$MeshFormat
4.1 0 8
$EndMeshFormat
$PhysicalNames
2
2 2 "ellipsoid_surface"
3 1 "ellipsoid_tumor"
$EndPhysicalNames
$Entities
2 3 1 1
1 0.5 0.5 0.8 0 
2 0.5 0.5 0.2 0 
1 0.4999998999999996 0.4999998999999996 0.7999998999999995 0.5000001000000003 0.5000001000000004 0.8000001000000004 0 2 1 -1 
2 0.4999998799999999 0.49999988 0.19999988 0.86000012 0.50000012 0.8000001200000001 0 2 2 -1 
3 0.4999998999999998 0.4999998999999998 0.1999998999999998 0.5000001000000003 0.5000001000000003 0.2000001000000002 0 2 2 -2 
1 -0.2200001199999999 0.08430768618346934 0.19999988 0.86000012 0.9156923138165305 0.8000001200000001 1 2 4 -1 -2 3 2 
1 -0.2200001199999999 0.08430768618346934 0.19999988 0.86000012 0.9156923138165305 0.8000001200000001 1 1 1 1 
$EndEntities
$Nodes
5 202 1 202
0 1 0 1
1
0.5 0.5 0.8
0 2 0 1
2
0.5 0.5 0.2
1 2 0 10
3
4
5
6
7
8
9
10
11
12
0.5936825947691637 0.5 0.2103359567661513
0.6826180202809198 0.4999999999999999 0.2414642477594605
0.7611173490298523 0.4999999999999999 0.2934783270123289
0.8217379812718979 0.4999999999999999 0.3654104196313544
0.8555654365197347 0.4999999999999999 0.453057213069388
0.8555654365197346 0.4999999999999999 0.5469427869306129
0.8217379812718976 0.4999999999999999 0.6345895803686469
0.761117349029852 0.5 0.7065216729876714
0.6826180202809204 0.5 0.7585357522405394
0.5936825947691636 0.4999999999999999 0.7896640432338488
2 1 0 149
13
14
15
16
17
18
19
20
21
22
23
24
25
26
27
28
29
30
31
32
33
34
35
36
37
38
39
40
41
42
43
44
45
46
47
48
49
50
51
52
53
54
55
56
57
58
59
60
61
62
63
64
65
66
67
68
69
70
71
72
73
74
75
76
77
78
79
80
81
82
83
84
85
86
87
88
89
90
91
92
93
94
95
96
97
98
99
100
101
102
103
104
105
106
107
108
109
110
111
112
113
114
115
116
117
118
119
120
121
122
123
124
125
126
127
128
129
130
131
132
133
134
135
136
137
138
139
140
141
142
143
144
145
146
147
148
149
150
151
152
153
154
155
156
157
158
159
160
161
0.845204291913781 0.4319083144597306 0.4988446516438864
0.6332299819861664 0.4197942942596275 0.7600422276405523
0.6332299819861632 0.4197942942596161 0.2399577723594522
0.8134506980852132 0.5875001553695604 0.4009698552029565
0.6332299819836249 0.580205705739154 0.2399577723579563
0.7162175615750663 0.5820280238335275 0.7168438754562516
0.545226740567193 0.5802738653988335 0.7801980718554909
0.7823555752020661 0.4217102274748503 0.3417008149374325
0.7802242467385098 0.4268018796849358 0.6646101258785077
0.8238330095374872 0.5797682846536718 0.5850468769903461
0.6474356170292228 0.5603433466717735 0.7630876622812269
0.6111454444628498 0.6354491583285204 0.7296844492516522
0.6797161632920785 0.6594416727635675 0.6668819336280623
0.7651896665118586 0.6214276710071689 0.634626315069721
0.723089214987903 0.675530823824314 0.5854168471668256
0.6361121697251737 0.707759735115928 0.5984400384962427
0.525641812517103 0.6594410027034588 0.723209344358512
0.6733017602470286 0.7100943214124517 0.5132378388458512
0.5819441922968397 0.7327521377785968 0.5262816562781104
0.6211137865745673 0.7211228032987113 0.4415653327214275
0.7054046856864097 0.6892412799781314 0.4311234725385961
0.6449250143794544 0.6877650138460576 0.3574259104600202
0.7388528402085689 0.6400618979503953 0.3595386658705812
0.5433853103471262 0.7214778603279207 0.6097652765923123
0.7244242349445641 0.5846533163009018 0.2906527193176756
0.5452267405671143 0.5802738653986421 0.2198019281444146
0.7234577246145157 0.4333297857867572 0.2800480149968744
0.6563088198575836 0.3550497275511113 0.2994906754420211
0.4787999329618472 0.738236225970932 0.5317152432967298
0.5799043147446376 0.3752794031491709 0.2524901249054379
0.5758442347795529 0.3263815008039345 0.3027532571231776
0.6342021335149558 0.3030615053222371 0.3700319127934625
0.5549951287694596 0.7126945956227527 0.3687988026032888
0.4496504133493506 0.7146306591347774 0.6275182434733835
0.5474066683222248 0.2757411929423467 0.4007123302069921
0.3714635589937234 0.7166953768415001 0.5718089143450662
0.4963945901077989 0.3007051846330218 0.3328744893277273
0.3638228324059119 0.6788771084897373 0.6647019280678418
0.286385876552213 0.6717449151692546 0.6105613690791387
0.3008265851284156 0.699471618563821 0.5167677337784369
0.2925927120956855 0.6229918765135848 0.691025127647276
0.2205030598685403 0.6080661536606128 0.6323014758342431
0.240097415333249 0.5453255518491034 0.6997015720916888
0.1785698188400179 0.5237848859993747 0.6317873045303855
0.2205996000742075 0.4552104619898794 0.6807040348274345
0.1752332672484299 0.4349784837054347 0.600740400494119
0.2390389824014283 0.3749247185879007 0.6351458542038094
0.2077816168937159 0.3649471600186107 0.5469194049223993
0.2892195388296928 0.4767256345758216 0.7414550524591046
0.2840371218647644 0.3177174045473028 0.5754588275630746
0.3246225438296189 0.3332775606654461 0.6587733171140674
0.2618646538591289 0.3204647665496144 0.4840240674572837
0.1936559388648395 0.3790665083071897 0.4555334861639522
0.3709754351123405 0.2895171103879312 0.5959991547698462
0.5415549169640465 0.4219614235247408 0.781576224613053
0.5770267663158423 0.3492175900543881 0.7244010131712061
0.25672654155726 0.3450421618982334 0.3933099688946067
0.2010194989645956 0.4169355205810811 0.3690676659516489
0.2715769876258343 0.3909047347355321 0.3124649488579214
0.2318117829219982 0.4756065316278439 0.3022062007746628
0.308694370078489 0.4533902461301408 0.2526331722480594
0.2853990632752311 0.5437126883608543 0.2654094288735691
0.2200028861413699 0.5648558684318964 0.3297520640253757
0.2870142803594488 0.6253819743239006 0.3157868754164191
0.1526515013562179 0.4638014445108064 0.4354461583678979
0.4500250019790177 0.6296208913074369 0.7490244225811507
0.3311121119198729 0.2967555982481994 0.424846287784459
0.3596843698607716 0.6003812289495913 0.2538636840161123
0.3731686833663678 0.6697219772963072 0.3160968503458715
0.4825642267720952 0.3549340633586537 0.7385527986795164
0.5167211746136298 0.3028116108601646 0.6704427761040574
0.6074956743688007 0.3061171596196255 0.6524474623881917
0.5469610280928576 0.2726743110027073 0.5878820305578204
0.6356430532156279 0.2839362631345311 0.5654206513687334
0.1676121642328907 0.5805552320401316 0.5560118381815052
0.4401153782136869 0.4189620557283087 0.777936028994435
0.3190185436877982 0.5546784124103862 0.7501649771036437
0.240806439480587 0.6433577143644434 0.3940061221542421
0.3559615109881662 0.3748049078247158 0.2739425486349436
0.3969370327983252 0.4417446060872655 0.2219334858975224
0.443202767140693 0.368937996668033 0.2531795739287908
0.6898612024205415 0.32377793947449 0.6282378999320883
0.7216153678944098 0.3129943038983665 0.5353709054412643
0.385347714975612 0.7269616813689972 0.4803902179218178
0.3118789636292462 0.6960059150494007 0.4265471687516235
0.4352531262317253 0.6523501467791782 0.2745620526310518
0.4350340199818842 0.5598590637627703 0.2145697332528096
0.5768129064377985 0.2656344578911323 0.5088804137093631
0.4800164518666069 0.2610950783550761 0.5232833428048798
0.4741263917489514 0.413707566389668 0.2208940461856056
0.4701005323830315 0.7323972442939735 0.4293534632813045
0.4581304135500113 0.7031470719390358 0.3441147839346464
0.586245342926802 0.6593380770215447 0.2874798382957383
0.3782573269333917 0.3597913453873242 0.7213393121540141
0.422982683419148 0.3083088669854728 0.6687185760346703
0.1648794569536236 0.5630598879109647 0.4238651354878006
0.1943197622741058 0.6255231648673818 0.4778194561356265
0.7358074324099716 0.3524526442445901 0.3682071941460705
0.700045363745518 0.3050814097992577 0.4466599963105375
0.7835419347479083 0.3565801434787948 0.4549448876132283
0.383089195591011 0.7101504954373303 0.3927470711867354
0.7988588659240583 0.3696693838086523 0.5378660087030999
0.3768001729840867 0.6269882995745332 0.7329434825177239
0.4573048363882418 0.274731251878758 0.5971775402146126
0.8284033545143575 0.4300564215030808 0.5863777329305907
0.3719900467273302 0.4859543386296661 0.7798431734740463
0.708043750130243 0.4289754892275828 0.72816860768624
0.6541334434282962 0.3607700963179846 0.7078773475488875
0.7536169087942362 0.6702818677351478 0.5051137067356468
0.7775167112834349 0.6436717465723669 0.4346965377527454
0.7879313514999484 0.6341307050599402 0.5656996703953912
0.8267151354547921 0.6007816655816035 0.4983134517906699
0.3389674387542738 0.2855909433267218 0.5127261802473322
0.4211753516574104 0.2677666541639359 0.4623711542415045
0.4068470255325409 0.2919931825024872 0.3720564847242234
0.3438996683260078 0.5144672975745462 0.2302756610672885
0.8280270997378255 0.4289269510429253 0.4140711668432198
0.7795165414420554 0.5799100333891032 0.3394824498416776
0.3344136083098231 0.3278296202154461 0.3430206851517557
0.2269991446039825 0.652755989212913 0.5422307682405347
0.1537777187375768 0.4361835988390625 0.5198419550394253
0.1413527292633457 0.5207228669628281 0.4979755900995219
0.1784121029286339 0.4978088685156348 0.3651893764526682
0.2858423210647303 0.3981080738907174 0.704764546676607
0.5894902113065984 0.6893319076811053 0.6686068667282992
0.4432045779143761 0.6753774542466389 0.6992528827505526
0.6629222685312857 0.6376853807128954 0.2951923492555285
0.4720251960545845 0.2726447038378367 0.4067785593145454
0.6122039269750654 0.2758495543108786 0.4475424868315859
0.7251053488513438 0.376639972951314 0.6761623408946326
0.7619174538750344 0.3620313059903216 0.6123291485696245
0.5430697548716114 0.7360212633517506 0.4591206592650792
0.4216575252264727 0.3234341748831294 0.3075782937029319
0.4073502847446813 0.5724666953986501 0.7753789445846583
0.5074102382943558 0.6336798530284096 0.2509226659853157
0.5427123728047947 0.4224919956523517 0.2183150905205215
0.4134087650640328 0.2690305867899456 0.5379281200231031
0.5114411566223656 0.6980961114130484 0.6690957237984309
0.5094772014087071 0.3486160587876243 0.2673421788255774
0.3500091000146773 0.420503388689364 0.7539731226202004
0.7905119990372308 0.5594970280734575 0.6608096088478954
0.2534293840619859 0.672592797215333 0.4648483874829641
0.3164686709723306 0.6730393732036335 0.3592052672765343
0.1586424118820628 0.5757177659272947 0.4889652738477219
0.1488202186736608 0.4988372129528303 0.5659846311110541
0.5127066875722911 0.2620798194915717 0.4620397463774862
0.663306396459907 0.2861231123950888 0.502435844774321
0.5120175272540212 0.678065767324205 0.2991098115055669
0.7883819000442887 0.3845616833457081 0.3931110110360516
3 1 0 41
162
163
164
165
166
167
168
169
170
171
172
173
174
175
176
177
178
179
180
181
182
183
184
185
186
187
188
189
190
191
192
193
194
195
196
197
198
199
200
201
202
0.5003359639698299 0.4998352256168216 0.5421111629205562
0.6596405940113225 0.5001995487095897 0.4522810962258195
0.3233189807019411 0.4989961374324075 0.4993038745746629
0.508869180993742 0.4926183275560451 0.3710435209810141
0.658690088998893 0.4854392123386109 0.6000208098746239
0.3871063700778715 0.4964042760373192 0.6346004654402881
0.428749267450417 0.5847206781900153 0.4490602909988489
0.4177901924245425 0.3999138353065131 0.4980008270547883
0.5911186503500251 0.4001415724901261 0.5122945898509896
0.3728812421851299 0.4685147267931926 0.374016183106671
0.5978058726049451 0.5965002079884253 0.5279218373563038
0.4902290686552305 0.5815622952008145 0.6341447861460247
0.5451150689865675 0.4550737890892149 0.6557892593747435
0.5841399658598694 0.5878707968818968 0.4033402276229941
0.5065375987334437 0.3851294683718925 0.4208773842870953
0.7305857215171156 0.5416029424174912 0.5314843004126308
0.3745403054008259 0.5938069630082323 0.559681006236576
0.6228348683491214 0.4796083876125526 0.3416283431595774
0.4983650516212684 0.3816284364735425 0.579281530577528
0.3241892828019335 0.4218690449524234 0.5801258749072019
0.285022177419884 0.5235845139876073 0.6006532716254572
0.7132672952501004 0.4346848271730789 0.5206909358070695
0.3261075463370278 0.5717034744880344 0.4060408428404123
0.4150465459693655 0.5647708956462443 0.3418631834097874
0.271790353666455 0.4823607311124346 0.4097799772508912
0.3223424515523928 0.4010850500768769 0.4536092444280044
0.7391116217330088 0.462689461863616 0.4158610183585798
0.234083382501167 0.5256048266307827 0.5167859758170589
0.4904004199234541 0.62708716350438 0.5320846135808532
0.6015266658494609 0.5738183316432712 0.6371361239573992
0.6941867396953433 0.5933661500775076 0.4548315694702503
0.6632294308583526 0.399484244919031 0.4396098404334655
0.4518134268170324 0.4150975466870843 0.3420612615521885
0.5589880345186489 0.4821982870303175 0.4598820296355504
0.4485092335341964 0.4175851326917557 0.6630183828473595
0.6219824750565737 0.3932135458329342 0.6066126793004846
0.4937808973361034 0.6156504230971017 0.3738106486290437
0.4509334035427874 0.4855970447880453 0.4543486505926506
0.3003163118567534 0.5938495243256359 0.4970289898198506
0.5476198043082008 0.4123781274514784 0.3350537794703131
0.7003028605864768 0.5402460957807689 0.3755318421032847
$EndNodes
$Elements
2 968 1 968
2 1 2 318
1 12 19 1 
2 1 67 12 
3 19 146 1 
4 1 88 67 
5 1 118 88 
6 1 146 118 
7 2 38 3 
8 3 148 2 
9 2 99 38 
10 2 102 99 
11 2 148 102 
12 4 15 3 
13 3 17 4 
14 15 148 3 
15 3 38 17 
16 4 37 5 
17 5 39 4 
18 4 39 15 
19 17 37 4 
20 6 20 5 
21 5 130 6 
22 20 39 5 
23 37 130 5 
24 6 16 7 
25 7 129 6 
26 6 130 16 
27 6 129 20 
28 8 13 7 
29 7 124 8 
30 13 129 7 
31 16 124 7 
32 8 22 9 
33 9 117 8 
34 8 117 13 
35 8 124 22 
36 10 21 9 
37 9 153 10 
38 21 117 9 
39 22 153 9 
40 10 18 11 
41 11 119 10 
42 10 153 18 
43 10 119 21 
44 12 14 11 
45 11 23 12 
46 14 119 11 
47 18 23 11 
48 12 67 14 
49 12 23 19 
50 13 114 112 
51 112 129 13 
52 13 117 114 
53 67 68 14 
54 68 120 14 
55 14 120 119 
56 39 40 15 
57 40 42 15 
58 42 148 15 
59 35 122 16 
60 16 130 35 
61 122 124 16 
62 17 139 37 
63 38 105 17 
64 105 139 17 
65 18 24 23 
66 18 25 24 
67 18 26 25 
68 18 153 26 
69 23 24 19 
70 24 29 19 
71 29 78 19 
72 78 146 19 
73 20 110 39 
74 20 161 110 
75 129 161 20 
76 21 143 117 
77 119 142 21 
78 142 143 21 
79 22 123 26 
80 26 153 22 
81 22 124 123 
82 25 137 24 
83 24 137 29 
84 26 27 25 
85 27 28 25 
86 28 137 25 
87 26 123 27 
88 27 30 28 
89 27 121 30 
90 27 123 121 
91 30 31 28 
92 31 36 28 
93 36 137 28 
94 29 138 78 
95 137 150 29 
96 29 150 138 
97 30 32 31 
98 30 33 32 
99 30 121 33 
100 32 144 31 
101 31 41 36 
102 31 144 41 
103 33 34 32 
104 34 45 32 
105 45 144 32 
106 33 35 34 
107 33 122 35 
108 121 122 33 
109 35 139 34 
110 34 105 45 
111 34 139 105 
112 35 130 37 
113 37 139 35 
114 41 46 36 
115 46 150 36 
116 36 150 137 
117 99 147 38 
118 38 147 105 
119 39 110 40 
120 40 43 42 
121 40 44 43 
122 40 110 44 
123 41 48 46 
124 41 96 48 
125 41 103 96 
126 41 144 103 
127 43 151 42 
128 42 151 148 
129 44 49 43 
130 49 151 43 
131 47 49 44 
132 44 141 47 
133 110 111 44 
134 111 141 44 
135 45 104 103 
136 103 144 45 
137 45 160 104 
138 105 160 45 
139 48 50 46 
140 50 138 46 
141 138 150 46 
142 47 140 49 
143 47 158 140 
144 141 158 47 
145 48 51 50 
146 48 52 51 
147 48 96 52 
148 49 140 127 
149 127 145 49 
150 145 151 49 
151 51 53 50 
152 53 115 50 
153 115 138 50 
154 52 132 51 
155 51 54 53 
156 51 132 54 
157 96 97 52 
158 97 154 52 
159 52 154 132 
160 54 55 53 
161 55 89 53 
162 89 115 53 
163 54 56 55 
164 54 87 56 
165 54 132 87 
166 56 57 55 
167 57 61 55 
168 61 89 55 
169 56 58 57 
170 56 157 58 
171 87 157 56 
172 58 59 57 
173 59 136 57 
174 57 136 61 
175 58 60 59 
176 58 133 60 
177 58 157 133 
178 60 62 59 
179 62 63 59 
180 63 136 59 
181 60 64 62 
182 60 65 64 
183 60 133 65 
184 61 118 89 
185 61 152 118 
186 136 152 61 
187 62 66 63 
188 64 125 62 
189 62 125 66 
190 66 107 63 
191 63 107 106 
192 106 136 63 
193 65 69 64 
194 69 79 64 
195 79 125 64 
196 65 70 69 
197 65 77 70 
198 65 133 77 
199 66 116 107 
200 66 149 116 
201 125 149 66 
202 67 82 68 
203 67 88 82 
204 82 83 68 
205 83 84 68 
206 84 120 68 
207 70 71 69 
208 71 131 69 
209 69 131 79 
210 70 72 71 
211 70 135 72 
212 77 135 70 
213 72 73 71 
214 73 91 71 
215 91 131 71 
216 72 74 73 
217 72 75 74 
218 72 135 75 
219 74 128 73 
220 73 92 91 
221 73 128 92 
222 75 76 74 
223 76 80 74 
224 80 128 74 
225 75 90 76 
226 75 108 90 
227 75 135 108 
228 76 81 80 
229 76 155 81 
230 90 155 76 
231 77 134 108 
232 108 135 77 
233 133 134 77 
234 78 138 115 
235 115 146 78 
236 79 126 125 
237 79 127 126 
238 79 131 127 
239 81 98 80 
240 98 99 80 
241 99 128 80 
242 81 104 98 
243 81 113 104 
244 81 155 113 
245 82 107 83 
246 88 106 82 
247 106 107 82 
248 83 85 84 
249 83 116 85 
250 107 116 83 
251 85 86 84 
252 86 94 84 
253 94 120 84 
254 85 100 86 
255 85 101 100 
256 85 116 101 
257 86 95 94 
258 86 159 95 
259 100 159 86 
260 87 132 109 
261 109 156 87 
262 87 156 134 
263 134 157 87 
264 88 152 106 
265 118 152 88 
266 89 146 115 
267 118 146 89 
268 90 154 97 
269 97 155 90 
270 108 109 90 
271 109 154 90 
272 92 93 91 
273 93 145 91 
274 91 145 131 
275 92 102 93 
276 99 102 92 
277 92 128 99 
278 102 151 93 
279 93 151 145 
280 95 143 94 
281 94 142 120 
282 94 143 142 
283 111 112 95 
284 95 159 111 
285 112 114 95 
286 114 143 95 
287 96 113 97 
288 103 113 96 
289 113 155 97 
290 98 147 99 
291 104 160 98 
292 98 160 147 
293 101 158 100 
294 100 158 141 
295 141 159 100 
296 116 149 101 
297 101 149 126 
298 126 158 101 
299 148 151 102 
300 104 113 103 
301 147 160 105 
302 106 152 136 
303 108 156 109 
304 134 156 108 
305 132 154 109 
306 110 112 111 
307 110 161 112 
308 111 159 141 
309 112 161 129 
310 117 143 114 
311 120 142 119 
312 121 124 122 
313 123 124 121 
314 126 149 125 
315 127 140 126 
316 140 158 126 
317 131 145 127 
318 133 157 134 
3 1 4 650
319 2 148 3 201 
320 65 60 187 189 
321 2 3 165 201 
322 38 175 165 179 
323 164 187 60 189 
324 115 173 167 178 
325 162 167 164 169 
326 53 115 167 178 
327 172 177 27 191 
328 165 175 38 198 
329 60 181 164 189 
330 1 173 174 196 
331 60 65 133 189 
332 27 177 26 191 
333 164 167 162 178 
334 166 174 11 191 
335 164 181 60 187 
336 38 17 175 179 
337 115 50 173 178 
338 169 127 187 194 
339 53 50 115 178 
340 162 169 164 199 
341 131 187 127 194 
342 168 175 190 195 
343 11 166 14 174 
344 38 2 3 165 
345 3 179 165 201 
346 166 177 9 183 
347 38 165 3 179 
348 164 178 162 199 
349 131 171 187 194 
350 26 177 166 191 
351 21 166 9 183 
352 144 175 190 198 
353 27 26 25 191 
354 144 175 172 190 
355 65 187 186 189 
356 58 181 60 189 
357 11 119 14 166 
358 12 11 14 174 
359 172 190 175 195 
360 117 21 9 183 
361 168 190 162 195 
362 162 172 166 195 
363 167 169 162 180 
364 27 177 172 192 
365 14 166 119 197 
366 166 172 163 195 
367 127 169 176 194 
368 53 115 89 167 
369 169 180 167 196 
370 117 9 177 183 
371 164 169 167 181 
372 169 187 171 194 
373 149 169 66 180 
374 26 153 166 177 
375 14 174 166 197 
376 153 9 166 177 
377 144 32 172 175 
378 115 50 138 173 
379 38 175 105 198 
380 166 170 162 195 
381 167 180 162 196 
382 53 178 167 182 
383 28 172 27 191 
384 158 176 101 180 
385 120 14 119 197 
386 162 170 166 174 
387 169 101 176 180 
388 99 2 165 194 
389 169 167 181 196 
390 166 174 170 197 
391 133 58 60 189 
392 66 181 63 196 
393 105 38 17 175 
394 27 172 30 192 
395 172 162 190 195 
396 166 172 162 191 
397 10 153 9 166 
398 186 187 164 189 
399 116 149 66 180 
400 100 158 101 180 
401 165 175 168 195 
402 25 28 27 191 
403 162 176 170 180 
404 162 169 176 180 
405 172 36 190 191 
406 66 107 180 196 
407 21 10 9 166 
408 173 190 36 191 
409 163 170 166 195 
410 16 188 177 192 
411 166 162 174 191 
412 168 175 165 198 
413 162 170 176 195 
414 168 195 162 199 
415 165 195 168 199 
416 99 165 185 194 
417 58 182 181 189 
418 53 167 89 182 
419 139 175 179 202 
420 139 175 17 179 
421 143 142 166 197 
422 144 190 103 198 
423 143 142 21 166 
424 127 126 140 176 
425 26 166 18 191 
426 13 183 177 188 
427 66 63 107 196 
428 74 72 171 186 
429 168 190 175 198 
430 72 73 74 171 
431 137 36 28 191 
432 17 38 3 179 
433 61 167 136 182 
434 79 169 127 187 
435 97 168 96 200 
436 162 178 168 199 
437 166 177 172 191 
438 150 36 137 173 
439 163 172 166 177 
440 141 176 170 193 
441 119 166 142 197 
442 153 18 26 166 
443 162 176 169 199 
444 74 171 184 186 
445 36 172 28 191 
446 136 167 106 181 
447 164 168 178 199 
448 101 126 169 176 
449 50 46 173 178 
450 168 178 96 200 
451 136 167 181 182 
452 50 46 138 173 
453 74 184 171 185 
454 61 136 57 182 
455 101 158 126 176 
456 162 195 176 199 
457 172 175 32 192 
458 106 181 167 196 
459 121 177 27 192 
460 92 185 171 194 
461 77 133 65 189 
462 125 66 169 181 
463 27 30 121 192 
464 118 167 146 196 
465 89 167 61 182 
466 89 61 55 182 
467 77 65 186 189 
468 127 169 126 176 
469 119 21 142 166 
470 176 195 193 201 
471 162 167 173 178 
472 36 137 173 191 
473 136 152 106 167 
474 100 170 141 176 
475 143 166 21 183 
476 11 10 119 166 
477 30 172 32 192 
478 81 113 155 184 
479 12 174 19 191 
480 19 174 173 191 
481 7 177 16 188 
482 131 79 127 187 
483 96 178 168 190 
484 97 184 168 200 
485 119 142 120 197 
486 101 169 149 180 
487 139 179 17 202 
488 72 71 73 171 
489 147 38 105 198 
490 131 171 71 187 
491 193 195 179 201 
492 81 113 184 185 
493 125 66 149 169 
494 168 184 113 185 
495 45 175 144 198 
496 173 178 46 190 
497 144 32 31 172 
498 168 103 190 198 
499 18 166 11 191 
500 136 181 57 182 
501 127 79 126 169 
502 2 38 99 165 
503 31 144 172 190 
504 153 10 18 166 
505 128 74 171 185 
506 170 174 162 180 
507 158 100 141 176 
508 53 89 55 182 
509 13 177 7 188 
510 166 170 163 183 
511 14 120 174 197 
512 166 183 143 197 
513 59 58 57 181 
514 136 106 63 181 
515 162 168 178 190 
516 97 113 168 184 
517 27 28 30 172 
518 115 146 167 173 
519 57 181 58 182 
520 108 189 186 200 
521 88 118 1 196 
522 68 83 174 197 
523 83 180 174 197 
524 96 97 113 168 
525 40 193 179 201 
526 68 84 83 197 
527 25 26 18 191 
528 72 71 171 186 
529 11 18 10 166 
530 99 165 38 185 
531 152 106 167 196 
532 63 181 106 196 
533 168 185 113 198 
534 119 10 21 166 
535 125 181 169 187 
536 162 178 173 190 
537 66 107 116 180 
538 110 188 179 193 
539 173 174 162 191 
540 62 181 125 187 
541 188 192 16 202 
542 150 36 173 190 
543 125 62 66 181 
544 150 173 46 190 
545 171 169 194 199 
546 136 61 152 167 
547 128 171 92 185 
548 139 105 17 175 
549 128 74 73 171 
550 113 185 81 198 
551 86 170 85 197 
552 91 171 131 194 
553 108 186 184 200 
554 96 178 52 200 
555 85 100 101 180 
556 103 96 168 190 
557 76 184 74 185 
558 51 178 53 182 
559 85 170 100 180 
560 171 186 71 187 
561 99 185 92 194 
562 33 32 34 192 
563 171 184 164 199 
564 95 159 86 170 
565 170 180 85 197 
566 149 101 126 169 
567 158 141 47 176 
568 168 164 184 199 
569 126 158 140 176 
570 95 183 170 197 
571 34 192 175 202 
572 174 180 170 197 
573 144 45 32 175 
574 143 21 117 183 
575 1 173 19 174 
576 150 46 36 190 
577 71 131 91 171 
578 97 96 52 200 
579 170 193 176 195 
580 65 60 64 187 
581 148 2 102 201 
582 83 84 180 197 
583 95 159 170 193 
584 150 137 29 173 
585 80 76 74 185 
586 110 179 40 193 
587 69 131 71 187 
588 64 62 125 187 
589 74 184 75 186 
590 95 170 86 197 
591 176 194 169 199 
592 32 175 34 192 
593 104 113 81 198 
594 157 56 58 189 
595 86 100 85 170 
596 139 34 175 202 
597 103 168 113 198 
598 132 51 182 200 
599 30 32 33 192 
600 168 184 171 199 
601 177 188 163 192 
602 1 118 146 196 
603 60 58 59 181 
604 97 155 113 184 
605 115 138 78 173 
606 94 143 183 197 
607 23 18 11 191 
608 36 31 28 172 
609 172 177 163 192 
610 27 123 26 177 
611 121 123 27 177 
612 36 31 172 190 
613 1 174 67 196 
614 35 192 34 202 
615 48 178 96 190 
616 39 179 110 188 
617 117 177 8 183 
618 164 187 171 199 
619 69 71 186 187 
620 74 75 72 186 
621 71 91 73 171 
622 178 182 51 200 
623 84 85 180 197 
624 174 180 83 196 
625 109 189 108 200 
626 54 132 51 182 
627 50 53 51 178 
628 101 149 116 180 
629 113 103 96 168 
630 95 170 183 193 
631 117 9 8 177 
632 88 1 67 196 
633 14 120 68 174 
634 23 12 19 191 
635 143 94 142 197 
636 164 169 187 199 
637 176 193 44 201 
638 145 131 127 194 
639 8 177 13 183 
640 99 38 147 185 
641 153 22 9 177 
642 141 44 176 193 
643 31 32 30 172 
644 82 174 83 196 
645 83 82 68 174 
646 146 89 115 167 
647 99 102 2 194 
648 162 180 174 196 
649 67 12 14 174 
650 16 7 124 177 
651 46 178 48 190 
652 94 183 95 197 
653 17 179 37 202 
654 182 189 132 200 
655 108 184 90 200 
656 79 125 126 169 
657 83 84 85 180 
658 61 57 55 182 
659 16 177 124 192 
660 163 172 175 195 
661 125 149 126 169 
662 68 174 120 197 
663 163 177 166 183 
664 139 17 37 202 
665 109 108 90 200 
666 29 173 137 191 
667 139 35 34 202 
668 115 78 146 173 
669 167 178 164 182 
670 128 80 74 185 
671 125 169 79 187 
672 54 132 182 189 
673 171 185 165 194 
674 163 179 193 195 
675 171 187 169 199 
676 75 184 108 186 
677 92 128 73 171 
678 40 110 39 179 
679 56 182 58 189 
680 91 92 73 171 
681 163 175 172 192 
682 104 103 113 198 
683 94 143 95 183 
684 141 44 47 176 
685 141 170 159 193 
686 92 171 91 194 
687 136 59 57 181 
688 181 182 164 189 
689 4 37 179 202 
690 70 65 69 186 
691 164 178 168 200 
692 4 37 17 179 
693 145 91 131 194 
694 13 8 7 177 
695 12 1 19 174 
696 65 69 186 187 
697 45 144 103 198 
698 54 51 53 182 
699 157 58 133 189 
700 69 71 70 186 
701 175 179 163 195 
702 54 87 132 189 
703 152 167 118 196 
704 12 67 1 174 
705 28 31 30 172 
706 19 173 29 191 
707 46 150 138 173 
708 117 8 13 183 
709 39 179 188 202 
710 165 179 175 195 
711 43 176 44 201 
712 50 48 46 178 
713 164 181 167 182 
714 86 85 84 197 
715 171 184 168 185 
716 164 168 184 200 
717 100 86 159 170 
718 81 155 76 184 
719 179 195 165 201 
720 67 174 82 196 
721 163 192 188 202 
722 171 185 168 199 
723 170 183 166 197 
724 159 141 100 170 
725 81 184 76 185 
726 44 193 40 201 
727 26 22 153 177 
728 102 99 92 194 
729 74 76 75 184 
730 177 183 163 188 
731 168 165 185 198 
732 103 41 96 190 
733 165 185 171 199 
734 165 168 185 199 
735 57 58 56 182 
736 89 118 61 167 
737 90 108 75 184 
738 137 28 25 191 
739 67 14 68 174 
740 39 188 5 202 
741 63 106 107 196 
742 9 22 8 177 
743 96 48 52 178 
744 148 42 15 201 
745 4 179 5 202 
746 152 61 118 167 
747 179 188 163 193 
748 7 16 6 188 
749 88 67 82 196 
750 112 183 13 188 
751 122 16 124 192 
752 169 181 164 187 
753 186 189 164 200 
754 6 188 16 202 
755 163 179 175 202 
756 67 68 82 174 
757 94 95 86 197 
758 17 3 4 179 
759 48 96 41 190 
760 39 110 20 188 
761 49 47 44 176 
762 81 76 80 185 
763 35 33 34 192 
764 111 183 112 193 
765 95 183 111 193 
766 62 63 66 181 
767 97 154 184 200 
768 108 77 186 189 
769 152 118 88 196 
770 176 165 195 201 
771 112 188 161 193 
772 164 184 171 186 
773 51 52 178 200 
774 99 128 92 185 
775 45 34 32 175 
776 15 40 179 201 
777 129 112 13 188 
778 138 150 29 173 
779 163 183 170 193 
780 123 22 26 177 
781 83 180 107 196 
782 70 77 65 186 
783 184 186 164 200 
784 147 105 160 198 
785 109 156 108 189 
786 163 188 179 202 
787 41 103 144 190 
788 164 186 171 187 
789 117 114 143 183 
790 95 111 159 193 
791 39 5 179 202 
792 111 95 112 183 
793 165 171 194 199 
794 39 20 5 188 
795 41 46 48 190 
796 15 42 40 201 
797 134 133 77 189 
798 98 185 147 198 
799 163 175 192 202 
800 72 70 71 186 
801 98 81 185 198 
802 105 175 45 198 
803 124 177 121 192 
804 62 60 59 181 
805 98 104 81 198 
806 117 13 114 183 
807 141 159 111 193 
808 6 5 188 202 
809 146 118 89 167 
810 78 29 19 173 
811 8 124 7 177 
812 75 108 135 186 
813 24 19 29 191 
814 107 83 116 180 
815 49 176 43 201 
816 116 85 101 180 
817 122 124 121 192 
818 55 54 53 182 
819 165 194 176 199 
820 90 97 154 184 
821 4 39 5 179 
822 129 13 7 188 
823 77 135 108 186 
824 31 41 144 190 
825 34 105 139 175 
826 49 44 43 176 
827 108 134 77 189 
828 3 15 4 179 
829 121 124 123 177 
830 163 193 170 195 
831 164 182 178 200 
832 127 140 49 176 
833 130 6 16 202 
834 183 188 112 193 
835 29 137 24 191 
836 13 112 114 183 
837 4 5 37 202 
838 110 161 188 193 
839 47 140 158 176 
840 68 120 84 197 
841 127 176 49 194 
842 6 5 20 188 
843 51 132 52 200 
844 160 105 45 198 
845 65 64 69 187 
846 16 122 35 192 
847 105 34 45 175 
848 154 90 184 200 
849 36 41 31 190 
850 154 109 90 200 
851 121 30 33 192 
852 131 69 79 187 
853 93 92 91 194 
854 51 52 48 178 
855 157 87 56 189 
856 142 94 120 197 
857 161 112 129 188 
858 40 43 44 201 
859 176 195 165 199 
860 23 19 24 191 
861 50 51 48 178 
862 6 130 5 202 
863 55 57 56 182 
864 110 112 161 193 
865 41 36 46 190 
866 116 83 85 180 
867 156 134 108 189 
868 97 52 154 200 
869 16 192 35 202 
870 59 136 63 181 
871 138 29 78 173 
872 152 88 106 196 
873 132 189 109 200 
874 39 15 40 179 
875 22 124 8 177 
876 114 95 143 183 
877 87 156 109 189 
878 64 125 79 187 
879 72 75 135 186 
880 132 87 109 189 
881 134 157 133 189 
882 82 83 107 196 
883 24 25 18 191 
884 104 45 103 198 
885 164 189 182 200 
886 43 40 42 201 
887 114 112 95 183 
888 62 59 63 181 
889 145 127 49 194 
890 77 70 135 186 
891 145 93 91 194 
892 16 35 130 202 
893 24 18 23 191 
894 90 155 97 184 
895 35 139 37 202 
896 72 135 70 186 
897 123 124 22 177 
898 55 56 54 182 
899 99 147 98 185 
900 99 80 128 185 
901 7 6 129 188 
902 161 20 110 188 
903 176 194 165 201 
904 76 90 75 184 
905 163 188 183 193 
906 98 147 160 198 
907 148 151 42 201 
908 94 86 84 197 
909 137 25 24 191 
910 39 4 15 179 
911 49 194 176 201 
912 145 151 93 194 
913 79 69 64 187 
914 102 194 151 201 
915 44 110 40 193 
916 84 120 94 197 
917 35 122 33 192 
918 81 80 98 185 
919 140 47 49 176 
920 155 90 76 184 
921 111 112 110 193 
922 104 160 45 198 
923 82 106 88 196 
924 52 132 154 200 
925 104 98 160 198 
926 49 151 194 201 
927 154 132 109 200 
928 44 141 111 193 
929 148 102 151 201 
930 121 33 122 192 
931 82 107 106 196 
932 87 134 156 189 
933 87 157 134 189 
934 20 129 6 188 
935 161 129 20 188 
936 93 151 102 194 
937 37 5 130 202 
938 93 102 92 194 
939 99 98 80 185 
940 145 49 151 194 
941 44 111 110 193 
942 49 43 151 201 
943 42 151 43 201 
944 37 130 35 202 
945 191 12 11 23 
946 191 11 12 174 
947 196 169 66 181 
948 196 66 169 180 
949 198 38 185 147 
950 198 185 38 165 
951 196 173 162 167 
952 196 162 173 174 
953 146 196 173 1 
954 173 196 146 167 
955 190 191 162 172 
956 162 191 190 173 
957 176 100 180 158 
958 176 180 100 170 
959 201 3 15 148 
960 201 15 3 179 
961 194 2 201 102 
962 194 201 2 165 
963 187 62 60 64 
964 187 60 62 181 
965 189 54 56 182 
966 189 56 54 87 
967 19 146 173 1 
968 173 146 19 78 
$EndElements
