$MeshFormat
4.1 0 8
$EndMeshFormat
$Entities
0 0 1 1
2 -33.40533070000001 0.5905930999999995 -14.1352539 -2.257822300000001 24.6779823 15.3594112 1 1 0 
1 -33.40533070000001 0.5905930999999995 -14.1352539 -2.257822300000001 24.6779823 15.3594112 0 1 2 
$EndEntities
$Nodes
1 752 1 752
2 2 0 752
1
2
3
4
5
6
7
8
9
10
11
12
13
14
15
16
17
18
19
20
21
22
23
24
25
26
27
28
29
30
31
32
33
34
35
36
37
38
39
40
41
42
43
44
45
46
47
48
49
50
51
52
53
54
55
56
57
58
59
60
61
62
63
64
65
66
67
68
69
70
71
72
73
74
75
76
77
78
79
80
81
82
83
84
85
86
87
88
89
90
91
92
93
94
95
96
97
98
99
100
101
102
103
104
105
106
107
108
109
110
111
112
113
114
115
116
117
118
119
120
121
122
123
124
125
126
127
128
129
130
131
132
133
134
135
136
137
138
139
140
141
142
143
144
145
146
147
148
149
150
151
152
153
154
155
156
157
158
159
160
161
162
163
164
165
166
167
168
169
170
171
172
173
174
175
176
177
178
179
180
181
182
183
184
185
186
187
188
189
190
191
192
193
194
195
196
197
198
199
200
201
202
203
204
205
206
207
208
209
210
211
212
213
214
215
216
217
218
219
220
221
222
223
224
225
226
227
228
229
230
231
232
233
234
235
236
237
238
239
240
241
242
243
244
245
246
247
248
249
250
251
252
253
254
255
256
257
258
259
260
261
262
263
264
265
266
267
268
269
270
271
272
273
274
275
276
277
278
279
280
281
282
283
284
285
286
287
288
289
290
291
292
293
294
295
296
297
298
299
300
301
302
303
304
305
306
307
308
309
310
311
312
313
314
315
316
317
318
319
320
321
322
323
324
325
326
327
328
329
330
331
332
333
334
335
336
337
338
339
340
341
342
343
344
345
346
347
348
349
350
351
352
353
354
355
356
357
358
359
360
361
362
363
364
365
366
367
368
369
370
371
372
373
374
375
376
377
378
379
380
381
382
383
384
385
386
387
388
389
390
391
392
393
394
395
396
397
398
399
400
401
402
403
404
405
406
407
408
409
410
411
412
413
414
415
416
417
418
419
420
421
422
423
424
425
426
427
428
429
430
431
432
433
434
435
436
437
438
439
440
441
442
443
444
445
446
447
448
449
450
451
452
453
454
455
456
457
458
459
460
461
462
463
464
465
466
467
468
469
470
471
472
473
474
475
476
477
478
479
480
481
482
483
484
485
486
487
488
489
490
491
492
493
494
495
496
497
498
499
500
501
502
503
504
505
506
507
508
509
510
511
512
513
514
515
516
517
518
519
520
521
522
523
524
525
526
527
528
529
530
531
532
533
534
535
536
537
538
539
540
541
542
543
544
545
546
547
548
549
550
551
552
553
554
555
556
557
558
559
560
561
562
563
564
565
566
567
568
569
570
571
572
573
574
575
576
577
578
579
580
581
582
583
584
585
586
587
588
589
590
591
592
593
594
595
596
597
598
599
600
601
602
603
604
605
606
607
608
609
610
611
612
613
614
615
616
617
618
619
620
621
622
623
624
625
626
627
628
629
630
631
632
633
634
635
636
637
638
639
640
641
642
643
644
645
646
647
648
649
650
651
652
653
654
655
656
657
658
659
660
661
662
663
664
665
666
667
668
669
670
671
672
673
674
675
676
677
678
679
680
681
682
683
684
685
686
687
688
689
690
691
692
693
694
695
696
697
698
699
700
701
702
703
704
705
706
707
708
709
710
711
712
713
714
715
716
717
718
719
720
721
722
723
724
725
726
727
728
729
730
731
732
733
734
735
736
737
738
739
740
741
742
743
744
745
746
747
748
749
750
751
752
-11.4618835 0.5905930999999999 5.1419134
-15.6236458 1.3303001 8.3239059
-13.2990961 2.0013239 11.0206041
-9.708972899999997 1.3619931 9.902636500000003
-28.9250126 2.2608092 2.9406934
-27.3455372 2.0489588 5.910078
-25.65185550000001 1.8636397 1.7717563
-23.432066 1.8577425 4.238529700000001
-14.6434774 1.8126872 1.8389437
-13.0168858 3.0331318 12.1928644
-13.8485918 2.8511772 -1.6656864
-6.906557100000001 2.4739606 2.7614434
-7.2025471 2.5003088 9.6426163
-30.1529331 3.5768187 6.851747
-28.1898708 3.4201579 -0.3058367000000001
-21.5420933 3.3211157 6.516058
-19.2698574 2.6746478 5.5087008
-18.3413277 2.6884983 2.8792608
-20.1594105 3.9682624 7.204177899999999
-18.8596096 3.2463424 7.377686499999999
-14.8737688 3.663321700000001 -3.296748899999999
-9.006644200000002 3.456643099999999 -2.2354853
-8.485443100000001 2.2708457 10.8993263
-33.1395264 5.416061400000001 2.1681352
-32.64807130000001 4.735607600000001 4.497291100000001
-24.0308266 4.909042400000001 8.002582600000002
-21.3065205 3.839046999999999 1.0789363
-15.4630594 3.206527700000001 -1.159927
-15.8221369 4.216346700000001 11.9588175
-14.3703747 4.838185299999999 -8.0563574
-7.119910199999999 4.4177418 12.4613695
-5.877437599999999 4.6486988 -3.519824
-25.787632 5.4124947 8.117831199999999
-21.94062229999999 4.7345028 0.09223140000000001
-21.5756283 5.109290100000001 7.490117499999999
-18.4766788 5.7509084 10.2604027
-12.8686047 4.271643200000002 -7.277748600000001
-11.3220463 5.178785799999999 -8.580636000000002
-8.124731099999998 5.0414538 -6.5826778
-4.6896544 5.3372908 0.08379050000000002
-4.934278000000001 4.869761 0.9514033
-4.1322732 4.774497 4.422901599999999
-33.40533070000001 6.496233500000001 3.1218512
-20.4906902 6.675837499999999 8.409237900000001
-19.2987099 6.1076131 -5.424926799999999
-15.3778028 6.9318805 -9.5611067
-14.5020571 5.801112199999999 -8.969862000000001
-7.2344255 6.438388300000001 -8.8973198
-5.4523301 6.171767700000001 11.7517176
-32.3820114 7.232123400000001 1.5539849
-30.9294548 7.4573665 6.608104199999999
-20.9036407 7.1793003 -1.6583433
-21.9103374 7.8895192 7.8567076
-11.9519444 6.369494899999999 -9.856496800000004
-9.0563564 6.2065969 -9.4234285
-5.2167945 7.145030999999999 -8.102340699999999
-6.1889606 7.949446700000001 13.2270336
-4.3142571 6.808512199999999 9.846117999999999
-31.368679 8.198714299999999 5.323236499999999
-30.8692913 9.019292800000001 2.6171646
-25.1885796 8.9866581 6.9603586
-23.0313721 8.250545500000001 7.348699600000001
-22.1852512 8.417921999999999 -1.7887142
-20.6400166 7.8066111 -6.541514899999999
-19.6584301 7.9177046 9.819788000000001
-7.114451899999999 9.051180800000001 14.0826206
-28.44564059999999 8.901559800000001 -0.1441584
-22.5493317 9.593112 -2.5529115
-6.9275436 9.252196300000001 -11.2494707
-4.5852308 9.587952599999999 -9.165596000000003
-28.9865704 10.6851234 3.9427693
-23.4229298 11.0669031 -5.158382899999999
-23.4801216 10.7470331 -2.13081
-12.5497084 10.9696846 -12.639246
-3.4465339 9.9187841 7.6891012
-2.895596 11.9477549 -7.4062805
-2.4381845 9.799596800000002 -3.9928815
-27.8852234 11.679575 2.5576553
-25.9316597 11.6044235 4.8582969
-24.2744465 11.6725845 -1.5236911
-25.3467407 12.0104265 4.725596899999999
-22.9321594 12.2963428 -8.589974399999999
-25.8912754 12.5316763 0.0566839
-26.8453579 12.2918968 2.7229176
-26.1852474 12.5893946 3.1055088
-24.5017033 12.5539436 -1.3719015
-24.5860443 13.3652248 -3.257355
-19.5288963 12.4748058 11.1749783
-6.487082 11.7763271 12.6942034
-7.116830299999999 14.6896114 11.6025076
-25.3910332 15.155982 0.226672
-24.0563545 13.7555408 -8.129802699999999
-25.0190926 14.4087858 -1.4109669
-18.0219002 14.6746702 12.3664913
-7.407595199999999 14.3635626 -12.4671497
-3.6581316 13.8882256 -9.188438399999999
-25.4870453 14.7715044 1.9605461
-8.9138994 16.757452 11.857398
-24.263258 14.8767376 6.314420699999999
-20.3761787 17.1007671 -11.7929602
-21.6393032 16.1278324 9.560988399999999
-4.697207 17.1364002 -9.017778399999997
-10.9775953 16.8492546 -13.4909229
-12.2315283 18.4261017 -13.639966
-9.4747887 18.3980446 -12.324235
-3.5721774 17.2024441 -2.7466125
-24.1748333 19.0540943 0.1283462
-24.1348133 18.6293907 -7.666104799999998
-21.9682503 18.8335991 -9.3138819
-9.967637100000001 18.2480831 11.7762356
-8.777327499999998 17.6490993 11.1071444
-5.031033000000001 19.5234909 -0.7237028000000001
-4.8595004 18.8752308 0.7598834000000001
-24.5442028 18.7004013 1.9900038
-18.3588753 19.4470844 -13.8612776
-9.9576931 19.2359505 10.8367987
-5.083287700000001 19.613945 -5.875117299999999
-23.9231415 20.3385563 -5.324910599999998
-22.1887131 21.2159367 -7.1562009
-20.6579475 19.8068962 -10.4352922
-19.2835693 21.5889874 -9.765532500000003
-19.1668701 20.1663952 -13.0171652
-16.0882816 20.9599285 11.1795168
-7.303069100000001 20.5452652 4.6537614
-22.1898613 21.5334492 -4.889249300000001
-22.781908 20.6001053 -2.361475
-21.2873783 21.7035866 5.355216
-19.8926849 20.0535164 -12.1708746
-18.7916031 20.990324 -12.2326698
-15.9992914 21.4206581 -12.6841869
-16.037653 22.0945034 9.107027099999998
-20.4801731 22.8839684 -6.3556442
-20.4172649 22.2510414 -3.2789865
-21.187088 22.282238 0.5592134
-12.0766811 22.6475163 7.320306799999999
-9.333209999999999 21.1881409 7.5198121
-7.583934799999999 21.3144989 -7.444315899999999
-19.590416 23.30188560000001 3.4251904
-15.6856165 22.8154335 -9.979886100000002
-12.6692324 23.2708244 6.0564036
-14.8264217 24.3315201 3.3652182
-14.0714378 24.6779823 0.4906707
-12.8841476 23.7683048 -3.9471531
-13.0355787 24.447298 -0.2443028
-14.6374216 0.8882926 7.105111099999999
-13.0586338 0.9616708 3.429399
-11.8186684 1.2418718 9.317549700000001
-11.7857418 0.7480265 3.7976904
-12.0604258 1.6902995 10.7165718
-11.753396 0.7249206000000001 6.480921700000001
-10.039588 0.8481088000000001 5.1763558
-9.3301163 1.3335615 9.324588800000001
-27.1446991 1.64898 3.5851443
-28.1017971 1.9759203 5.488743800000001
-27.160717 2.1005504 1.5640252
-24.8895874 2.8537927 0.2290052
-24.1772079 2.203871700000001 5.913270000000001
-22.9680004 2.1821012 5.4267302
-22.0428905 2.268970700000001 4.599144
-18.7943192 2.4582074 4.2759986
-17.588707 2.0894113 5.5447936
-16.3150406 2.0428402 9.5153008
-16.1779289 2.3679266 10.2674322
-14.1834736 2.3575728 0.1589217
-12.8868923 2.341742 0.07915250000000001
-10.2250147 2.2735684 0.8616149000000001
-7.6303563 3.0449378 0.7159262000000001
-7.112517799999998 1.8863355 5.617980499999998
-29.9826107 4.0040393 0.03798199999999999
-28.3167706 2.860058299999999 0.4918706
-29.9814968 3.2888329 1.040507
-26.5293674 3.176511 -0.4641104
-27.0404682 2.5904627 6.9565887
-22.0835075 3.8083234 7.101841
-21.6730328 3.0117249 2.25384
-21.0533352 2.896656499999999 5.7200465
-20.1116467 3.114331 2.26494
-19.1901932 3.052451599999999 6.5602412
-18.850132 3.3017354 1.7625366
-18.6907368 3.8732204 1.0157884
-17.4780006 2.6489663 8.860397300000001
-17.7062435 3.486859099999999 9.800492300000002
-17.0859013 3.5185964 0.4086779
-15.4020948 2.850857999999999 11.2047567
-11.1880035 3.349087 12.9210777
-10.3820896 2.6361134 -0.3909081
-8.025225599999999 3.2457719 -0.2976840000000001
-6.2876549 3.7684824 0.5411931
-5.298647900000001 3.416325099999999 3.4102671
-5.6790919 2.8389671 6.7305827
-5.685354199999999 3.4631612 8.9528713
-4.8380675 3.7477601 6.8559637
-32.1066208 4.8231606 5.4471107
-31.4216366 3.8041308 4.7973619
-29.42849349999999 3.960952 7.7263989
-28.1631508 4.154556799999998 8.200666399999999
-26.0122089 3.4658999 7.7297516
-21.1365929 4.489233500000001 7.2905498
-17.6211243 4.1334901 10.4421549
-16.4989452 4.270373300000001 -6.2264485
-16.5347328 3.5449057 11.0659199
-15.3566875 3.8607068 -5.621500499999999
-15.5497665 3.8365765 -2.7272146
-14.9925671 4.0847597 -6.8314385
-13.4876175 3.42435 -3.2946146
-11.1480083 4.6435714 -7.2911668
-11.6725559 3.5579789 -3.435058099999999
-9.961995099999999 4.3982363 -4.984328700000001
-8.652252200000001 3.875559099999999 13.0554886
-6.9509344 3.9529548 -2.4165359
-6.4630919 3.5902216 10.6073904
-5.765351799999999 4.664115899999998 10.9938231
-4.195847499999999 4.6202793 6.1066947
-4.8019338 4.6436176 8.8114986
-31.8851089 4.677686199999999 1.0275016
-30.5737534 4.7724113 -0.0469893
-29.5876026 4.9523969 7.9534111
-30.5326576 5.9903107 7.407600400000001
-28.61886790000001 5.512824499999999 8.336309399999999
-27.7568188 5.3307028 8.437981599999999
-27.1477108 4.807318199999999 -1.3694762
-22.6798325 5.953209400000001 7.647436099999999
-20.1786938 4.1418724 0.9393210000000001
-20.1887989 5.428616 8.068510099999999
-17.1405544 4.534996499999999 -5.3882122
-18.1153316 5.895419599999999 -7.2998738
-15.8047771 4.0656533 -3.9033341
-17.2687588 5.1490798 -2.8646913
-13.0221958 5.186672700000001 13.6201506
-11.467701 5.5580029 14.3902092
-9.649343499999999 4.891273000000001 14.0558863
-9.266497600000001 5.3824997 -8.450959200000002
-3.794363 6.224961799999999 2.6159599
-32.781662 5.837838199999999 1.4992695
-33.1748161 6.6466789 2.2524543
-32.37449649999999 6.1324596 5.7373767
-21.205452 6.161526199999999 -0.6195662999999999
-20.78762249999999 6.602376899999999 -1.0570379
-19.4473476 6.3879714 -3.6705372
-19.1160889 6.141485199999999 -3.0275705
-19.7972755 5.7083025 -0.4992663
-16.1811314 5.874082599999999 12.4528103
-10.0311117 5.5365682 -8.942589800000002
-7.973718600000001 5.5890169 13.925334
-6.3630013 6.180124799999999 -7.9345999
-7.4230328 6.219712700000001 13.8720207
-4.527565999999999 6.0062718 -4.803511599999999
-3.8505852 6.479968100000002 -2.7272055
-3.8262475 5.4068322 5.095714599999999
-32.6613464 6.9463172 5.028590199999999
-19.4127808 6.4950089 -6.546478700000001
-21.2572975 7.9628196 -2.5113072
-12.1270895 7.6320839 14.940176
-10.4029951 7.237268400000001 15.1760387
-9.4167767 8.3307295 15.2158985
-4.9004364 6.275861700000001 -6.3350916
-32.084568 8.038475999999999 4.453984699999999
-29.2056389 7.8721933 7.3904929
-27.8561268 7.992342900000001 -0.7186925000000001
-27.3435154 8.271917299999998 7.4885888
-24.1718845 9.3566713 -1.4968801
-21.9603786 7.306941 -1.2648473
-20.6082611 8.9201994 -8.036324499999999
-17.1576118 8.1570702 -9.4146967
-19.0463619 7.2569199 -7.8294973
-17.3064823 8.978349699999999 12.4110699
-12.0197783 8.2675924 -11.8636799
-10.4797726 9.056451800000001 15.3594112
-8.356076200000002 8.820593800000001 -11.6433582
-8.607055699999998 7.2588916 14.8073721
-7.442867300000001 8.036582900000001 14.3478527
-4.5424213 9.335416800000003 10.9421644
-3.7816856 7.6464081 -5.948300400000001
-30.5392723 9.271531099999999 4.116437899999999
-29.6801815 9.412762600000001 5.222463100000001
-27.3396778 9.1750574 6.816610799999999
-24.1042442 9.284572599999999 6.904862400000001
-23.3759003 9.7908068 -1.8405882
-22.9813862 9.521059999999999 7.3642011
-22.7355995 10.2188711 -6.3273492
-21.9971771 8.9659557 8.0797033
-19.212595 9.0423841 -9.224657999999998
-17.6569691 10.4409084 -10.562336
-16.4179401 9.342416800000002 12.9947348
-2.8286893 9.0096741 -4.7897863
-2.6633129 8.748016399999997 -3.3873107
-3.2072597 9.461456300000002 5.298895799999999
-29.1030521 9.819082300000002 1.0300397
-27.086647 10.547122 -0.8340654000000001
-26.1530876 9.985581400000001 -1.3049258
-22.9124565 10.8551035 -7.1533718
-18.8598003 10.0827808 11.2791653
-19.6266117 10.6178436 -9.848542200000001
-13.8060446 9.7446442 -11.9938078
-11.8640471 9.246710799999999 15.0360737
-9.8722677 9.681921999999998 -12.6540737
-7.760714499999999 10.4016085 -12.2219639
-6.4300108 10.5341587 -11.5848999
-7.253624 10.1040993 13.9806614
-6.094030899999999 9.5238066 -10.8300514
-5.004789799999999 10.8271055 -10.431448
-2.8045175 9.1759138 0.0072832
-27.4540768 11.843873 1.1189702
-29.6944771 10.1586771 2.592846899999999
-27.981329 10.7455273 5.107082799999999
-27.2798367 11.2979393 4.7031207
-24.5128136 11.329093 -1.4150624
-23.662384 10.8990812 6.828657199999999
-20.6620255 9.937183399999999 -8.8126116
-22.0293427 11.9219341 9.499134100000001
-15.9236431 10.9708328 -11.8529043
-15.0614882 10.6250153 13.614131
-13.7207127 11.3195162 -12.6489992
-9.767807999999999 12.3683758 14.3088493
-7.844545399999999 13.1247883 -12.5527687
-4.449778600000001 11.7531424 9.770439100000001
-3.1273263 11.5027103 -7.791047100000001
-2.2578223 11.1358805 -1.6658747
-27.419836 11.8084087 3.3745854
-25.9878063 13.0056181 2.7718215
-25.1226463 12.3419409 -0.7327515000000001
-24.7300568 11.9120417 5.388043400000001
-24.0125885 11.826602 -6.2977662
-23.2281418 10.9837036 -2.8118675
-24.1925602 12.2157602 6.095195799999999
-17.9156361 11.9820623 12.1439543
-15.5460176 11.7767916 -12.4631624
-8.353511800000001 12.173502 13.8638954
-6.369133499999999 11.6944561 -11.7159843
-5.217904099999999 11.7627821 11.3043699
-3.0692267 12.5070314 -8.093647000000001
-2.434202399999999 11.3549271 -4.688552899999999
-2.2584543 12.6114092 -3.049437
-26.4010201 12.7581377 1.3839264
-25.9047604 13.4692936 1.8594371
-25.5445766 13.7025738 2.9011357
-24.5554218 13.4019737 -7.4464355
-24.9223881 13.1006079 -5.2855215
-24.5301952 13.2763033 -2.1409886
-22.5256939 12.9340467 9.0944252
-21.5121555 12.9662237 -9.950441400000001
-17.9777031 13.3943853 -11.7329016
-14.6573162 13.9468737 13.2390127
-8.213078499999998 14.3952446 12.6079521
-4.443499600000001 13.5357819 -10.1916428
-2.3032808 12.8584585 -1.736388
-25.2702408 13.9299583 -6.2875261
-25.1436214 14.8689022 3.488334200000001
-23.683754 14.0942631 7.562097499999999
-22.7135925 14.9984426 8.5204182
-21.5237789 14.3200731 9.713979699999998
-12.2720556 12.4131842 -12.8964825
-9.9767017 14.9665976 13.0035295
-7.480173600000001 16.9466801 10.0722456
-4.606416199999999 13.8994188 7.8179674
-2.595478299999999 14.061595 -5.948772000000001
-2.554262399999999 14.4987116 -3.436702299999999
-22.6781406 14.0525579 -9.3932457
-20.5577984 15.4206982 -10.9867191
-11.6970968 14.9503708 13.2744207
-9.285492900000001 15.7756577 12.465169
-8.623779299999999 15.424058 -12.8227024
-8.375886000000003 16.4657059 -12.5424318
-4.2380047 15.1177893 5.1033025
-3.3571558 15.2990541 -8.1169844
-24.8412762 15.6606693 -7.4644241
-25.3202763 16.2490578 -6.6595235
-18.7652721 16.0407982 -12.0865898
-16.1557903 16.4780216 -13.1433945
-14.9520292 15.6625748 13.0599384
-6.7508993 15.7292204 -11.8921804
-4.805265400000001 15.7472525 -10.1813107
-24.8944416 17.8651791 -2.5546665
-24.951746 16.4305859 2.4855781
-23.4419422 17.2578049 6.607779
-22.939846 17.3248997 -8.9275255
-21.9791889 16.5914307 -10.0329838
-19.3443871 17.3886414 -12.7375412
-18.1849346 17.01183510000001 12.3333035
-18.0347385 17.94643019999999 12.3745947
-4.879843700000001 18.4059143 1.6944743
-4.2220197 15.9973936 3.2590871
-25.2979355 18.332346 -5.4811559
-24.7478733 17.81637 -0.1572458
-24.4828358 18.294817 3.0983443
-24.20253749999999 18.8793049 -1.2103409
-22.5666447 19.2034321 6.805902499999999
-21.3246651 18.3780022 -10.7106829
-13.8809137 18.3997345 -14.0105467
-5.744456799999999 17.4072189 -10.1805
-5.114860499999999 18.4126282 -8.268705399999998
-24.2103233 19.1673088 -2.390286
-24.0813618 19.1667137 3.0415134
-21.3489628 19.8990784 7.934401
-18.0548019 19.5164757 11.5652466
-16.8358154 19.0027905 -14.1352539
-16.4129715 18.4995842 12.992712
-13.2637777 19.0636864 -13.6559801
-5.7474337 19.51698110000001 -7.7999053
-6.5131292 19.3240242 5.0238023
-4.411219100000001 18.653904 -5.120852499999999
-4.7244692 19.3572216 -3.0295169
-23.3691978 19.9089375 -1.0358504
-23.4389706 20.3253899 1.9501963
-21.7350922 21.0165672 -7.914557499999999
-19.0777607 20.3435879 9.526886000000001
-15.9115953 20.4874859 -13.4522924
-16.7353916 19.8944035 12.0954323
-14.0527821 20.480278 -12.7014637
-11.3093643 20.3566017 10.7556524
-8.5987358 19.9125919 -10.6141272
-6.724591299999999 20.0537548 -8.416546800000003
-6.2589912 20.5549278 -6.8923287
-6.1862788 19.9872952 2.474791
-22.2517204 20.9858131 -1.3243157
-22.6446838 20.6890812 4.2963605
-22.2163963 21.5586014 1.2261621
-20.9218063 20.3195801 -9.242196099999999
-20.138752 21.4172897 7.5785947
-17.8045483 21.1573372 -12.7485704
-17.8783836 22.1580334 -10.7125511
-17.9662037 21.0551357 9.655420300000001
-13.3602295 20.8279076 11.5608578
-10.5922813 21.3525219 -10.394865
-9.8069334 20.823019 8.705187800000001
-8.750654200000001 20.8745613 -9.578697200000001
-8.061128599999998 22.210453 1.3422825
-6.7474151 21.2701569 -5.497240100000001
-6.342796799999999 21.1457653 -3.0263846
-5.7594662 20.679224 -2.1346908
-20.9710121 22.605423 1.6047659
-21.4760265 22.2052803 3.156826
-19.92249679999999 23.1710835 -5.459891300000001
-20.3069496 22.3978443 -1.3254462
-19.8939018 22.160799 6.576075100000001
-19.2189369 22.3073559 -8.696635200000001
-16.99012949999999 22.2834988 -11.1449232
-17.4577408 22.9382286 7.101081799999999
-14.6795187 22.004446 9.503024099999999
-11.0364552 22.166853 -9.240220999999996
-10.5570068 21.7793808 7.9159689
-10.8594027 22.7190456 6.2060852
-9.3953285 22.2605629 -7.7258611
-10.0799608 22.96862789999999 4.474319
-8.1688042 22.2555809 -2.5456121
-20.366848 23.0368004 2.1666384
-19.7809467 23.1273689 0.4662163
-17.6455841 22.9081421 -9.162616700000001
-18.9687119 23.3268719 -7.1764789
-18.2548943 23.4603634 -1.5023032
-17.7000141 23.5926533 -3.407227
-19.0848789 22.9729347 -2.9753602
-17.2896347 23.850605 3.9677613
-16.2792778 23.1983242 6.7395163
-11.8724689 23.5659103 -6.297575499999999
-11.3092871 23.61099430000001 -3.2711182
-11.6956692 23.8504734 -1.5621423
-11.2826176 23.356041 4.8062835
-10.6405487 23.3489017 3.8622975
-8.942439100000001 22.9419346 -0.6697372000000001
-17.3761997 24.2144356 0.4736193
-16.584568 23.9366055 -2.132662499999999
-15.6496611 23.6489639 -7.8550391
-15.4355574 23.9293289 -2.7533431
-15.4698095 24.5787754 -0.301349
-16.4643574 24.5016556 1.8534095
-14.2287817 24.4814663 -0.9218174
-13.5326061 24.0439873 3.9332895
-12.3982658 24.3358345 1.2976714
-10.7959452 1.1904101 8.098904599999999
-27.8985443 1.7786987 4.397697
-25.1300602 1.6008863 3.8052611
-10.6413851 2.1236758 11.5102205
-29.5412006 2.4684858 4.1459413
-23.8649235 2.8805239 7.020655199999999
-20.3200092 2.6119061 3.9183509
-9.453700100000001 3.0552297 12.4316664
-26.1728039 4.5118814 8.125686600000002
-12.5297232 3.7194593 -4.546217
-33.31457139999999 5.4405074 3.5956929
-24.7637939 6.6389928 -1.6890799
-3.5864973 6.3902335 5.931907700000001
-31.6905918 5.5672717 0.4395354
-17.4904385 4.749617600000001 -6.1562915
-26.1807346 7.3706722 7.803980799999999
-13.5090971 6.969816199999999 -10.1470556
-3.5261233 6.926267600000001 -0.102374
-3.3435795 7.2814012 3.8854136
-30.2715244 8.736104999999998 1.3427465
-29.4552135 7.9649687 0.1826494
-27.5851517 6.765820499999999 8.1797667
-3.6601541 8.937901499999999 8.521114299999999
-21.8686352 8.8393126 -5.404156199999999
-8.8338909 8.996084200000002 15.0290813
-3.2907784 8.075499500000003 5.0667672
-2.838376 9.278927799999998 1.105118
-12.3298168 10.8621216 14.6837711
-10.1026173 10.411768 -12.7865047
-3.258258099999999 11.0661783 5.448309400000001
-10.6487103 11.35888 14.804141
-4.6773295 11.6036634 -10.2905645
-2.6284611 12.8866291 -6.6852655
-24.4382401 13.9320145 6.2505789
-10.1788034 12.6620226 -12.8367167
-5.270399600000001 11.9033079 -10.946578
-3.6135795 13.9069557 4.560120599999999
-13.2171545 13.3880825 -13.3116846
-3.198251 14.6308146 1.7269585
-25.4128017 14.6730843 -5.294401199999999
-21.6894112 15.5271482 -10.2249899
-14.9248686 15.519906 -13.3149071
-2.9011385 15.3510599 -6.238771000000001
-25.1609669 15.6877069 -2.4002156
-19.7435284 16.0255451 11.0888128
-24.8622684 17.4984379 -1.4132193
-22.5862293 16.9919071 8.2394199
-12.2943707 17.4559708 -13.8946314
-22.2617531 17.888855 -9.513802500000001
-19.8839588 19.1003704 9.837659800000001
-24.727581 18.7152233 -6.9380012
-20.005415 19.071373 -12.7143507
-18.5563126 18.8664227 11.5424185
-5.972258600000001 18.502985 -9.3842049
-15.5481453 19.4441986 -13.9256401
-11.4036884 19.2669544 12.0511322
-5.7484035 20.4670486 -5.3851013
-18.6358967 22.1266632 7.812100899999999
-18.031271 23.0675049 6.352774599999999
-11.204566 1.1743565 2.8806894
-29.710535 2.7044566 5.6794782
-9.1356258 1.4327092 7.1604981
-7.4024019 2.166045399999999 8.014506300000001
-6.858716499999999 2.0102324 4.6347017
-11.978898 2.8800018 -1.8535429
-31.6833801 4.054975499999999 1.7216184
-32.6769104 4.4953718 2.9003763
-19.3809834 4.2889895 8.0541964
-6.336640800000001 3.996803299999999 -0.6255356000000001
-27.748064 5.8919668 -1.2570668
-26.2180882 4.4554806 -1.2746124
-24.2255077 5.814888999999999 -1.4825313
-6.0937643 5.321888 -5.940708600000001
-5.157211799999999 5.491955799999999 -4.977386
-5.069111799999999 5.163033499999999 -3.298898
-31.0916348 6.124353899999999 0.0969836
-22.5003052 6.355582199999999 -1.0121362
-26.01199340000001 7.999611900000001 -1.3059947
-23.9930038 7.662925199999998 7.377947799999999
-29.0605755 6.8656473 7.975128700000001
-10.8686657 7.9940767 -11.8418131
-2.821248799999999 9.1884155 3.1677599
-27.7462502 10.4719906 -0.2750747000000001
-2.7542338 10.7715969 3.2678471
-27.3914547 11.3214455 0.0684771
-25.0114956 10.4359426 6.1830716
-23.9725914 10.2873344 6.6734228
-23.3915825 11.3586159 -3.7090187
-3.5807452 11.6838503 6.9965582
-15.416502 12.7570858 13.2278194
-8.866150900000001 11.1935539 -12.6791182
-2.7606394 12.2120247 0.7828299000000001
-25.7820053 13.7334852 1.2285869
-24.8423042 13.5155592 4.921535499999999
-12.151906 12.2309437 14.3981228
-2.836463499999999 14.2056379 -0.3782223000000001
-6.0094838 14.753561 -11.5426702
-5.2369184 13.0030413 10.2590504
-3.9264352 13.0447273 6.9078069
-18.1073704 14.9477892 -11.9241781
-13.1222115 15.2667055 -13.5991993
-25.4133644 17.6546726 -4.928123
-17.2507648 16.1924095 12.8503933
-15.9540491 17.48053359999999 13.1320314
-12.0265894 16.6352596 12.8069057
-10.2871828 16.7362423 12.5100317
-6.8535423 16.8565769 -11.4936266
-3.4781859 16.8309975 -1.788009
-14.0309162 18.8009415 12.9169874
-22.6653728 21.1732407 -6.247395
-21.6660843 21.4571991 -1.2283078
-21.7313728 20.8971653 6.055595899999999
-5.951353100000001 20.3492126 0.4486764
-20.7812786 21.9291153 -2.4403024
-9.9038906 23.0779285 -3.8399587
-17.6851444 23.8015404 -6.4825082
-16.5952816 23.7710705 -3.749130200000001
-13.1464291 23.7516232 -6.428883999999999
-24.9746552 4.008301700000001 -0.7949449000000001
-27.8076801 4.160385099999999 -1.0065805
-32.9305077 6.3076978 4.957368900000001
-6.490224400000001 7.1776023 13.3850679
-30.0165443 8.3792171 6.3854003
-3.2199566 7.697099199999999 0.5928300999999999
-24.5351334 14.9551592 5.636114599999999
-13.9646797 16.1838093 -13.6695061
-25.3659267 17.48249239999999 -6.461399600000001
-17.2540493 18.335783 -14.0686979
-10.4161606 19.5430641 -12.0880184
-11.0913372 20.4641056 -11.6120653
-9.892564800000002 23.3612022 -1.6921427
-16.48243519999999 24.4385529 0.05784860000000001
-13.5513668 0.7543067 7.875989
-26.6573505 1.7254421 4.853966199999999
-24.0739899 1.8659259 4.9935164
-22.6666584 2.7682469 2.1540549
-24.4030457 3.9954162 7.921169300000001
-21.3006763 2.7208271 3.1563396
-20.8382492 3.611946099999999 6.7340889
-15.3454714 2.800072 -0.1226006
-22.7366867 4.2576795 7.5615482
-17.6474533 4.7025976 -0.9173989
-12.9488363 3.8330638 -5.871184799999999
-7.2146435 5.2845941 13.2899475
-22.2500992 6.6877213 7.6231031
-19.1161423 5.8709941 -1.6516038
-14.0778933 6.317444799999999 13.5354853
-3.9500144 5.6022177 6.8708973
-5.8030529 7.273868100000001 -8.780277299999998
-4.603404499999999 6.990691700000001 10.6766243
-23.8873215 7.917015599999999 -1.4872903
-21.4039707 8.30194 -3.4238045
-13.6951008 7.841401100000001 -10.7803574
-14.9050922 8.895605100000001 -10.926568
-14.3750067 8.504330599999999 13.7705698
-12.7111225 8.597977599999998 14.6965313
-4.241060300000001 8.228654899999999 -7.709439300000001
-22.419136 9.728130299999998 -3.6540265
-23.04599 10.9582148 7.6695223
-12.7028551 9.2844906 -12.2340822
-4.2025604 10.1706352 10.1007519
-20.1880589 10.2639141 -9.367278099999998
-24.6150417 12.765686 -6.819779400000001
-3.640132 11.9853182 -9.008347499999999
-25.4397049 13.4976091 0.06417590000000001
-13.8027906 13.4299774 -13.3703117
-12.3162766 16.64499470000001 -13.8540392
-5.432344400000001 16.2158737 7.0408792
-4.3232751 17.7579231 -7.383594
-24.6762924 17.3669109 -7.622520899999999
-20.0466061 17.5619049 10.5073462
-8.1194153 16.484066 11.4257202
-4.1708655 17.4789371 0.8394576
-19.9552841 18.4085407 -12.7574072
-15.3283815 18.4415188 -13.9804659
-9.052006700000002 19.2962246 -11.5486689
-24.2377663 19.7930851 -6.4103189
-23.5292454 20.5198078 -4.178012799999999
-17.6639042 20.4029198 -13.6036482
-12.5395231 21.5516701 9.555734600000003
-7.496889100000001 21.8275967 -0.8389934000000001
-20.3071327 22.6431103 -7.270529700000001
-10.7503586 23.2889099 -5.6780138
-15.3651657 24.5885353 2.5405719
-13.835763 24.5836658 2.00529
-33.0996437 7.096791700000001 3.6917248
-2.471819399999999 9.441686600000001 -2.17377
-27.0177612 10.6735153 5.631208400000001
-23.6350212 13.141489 7.694909099999999
-15.9612083 14.0757313 13.0480185
-9.1428528 14.5009336 -12.9396696
-5.5188956 18.4451351 3.3981438
-8.294734 22.1287899 -6.0322652
-18.5851421 23.6817245 -6.115354499999999
-28.48064989999999 9.4667244 6.144356699999999
-2.817676099999999 13.4883194 -7.517077899999999
-21.9523067 11.3461037 9.414934200000001
-8.972935700000001 10.0572691 14.8728714
-17.9695091 17.8027515 -13.7032328
-24.8763428 19.3305798 -5.599587
-9.8963175 1.1127391 3.5927174
-28.6423759 3.0220137 7.3715343
-6.873307700000001 4.6587415 -4.8300786
-29.515873 5.270484 -0.7021930000000001
-32.3432503 6.3782258 1.0783302
-30.0255413 6.436266400000002 -0.3426005
-20.987627 5.8337326 7.8134456
-16.6628151 12.0820284 12.7537956
-17.3817081 14.3407249 12.6814861
-15.227952 17.3218002 -13.6937056
-13.2614002 17.3087254 -13.9972038
-17.068573 23.3305664 -8.553109200000002
-9.3786383 23.1951427 0.7770138
-17.2109184 23.7475243 -2.4217286
-12.5456114 24.192379 2.7192032
-24.0898857 1.8381004 3.2112727
-16.3616066 2.0794036 3.300936
-17.1404171 2.8117068 1.7953001
-25.0180244 18.7970333 -4.278828100000001
-14.8451128 19.8617516 12.6261587
-9.680781399999999 20.5055866 -10.8987951
-14.1486874 0.8990474000000001 5.8592052
-9.614200599999998 23.3347588 -0.1091462
-11.8291302 4.427532199999999 13.6878328
-22.7098999 11.7470465 8.658362399999998
-14.7335529 20.5665455 12.1326952
-8.928930299999999 22.0781727 4.662182299999999
-20.2939243 22.7126198 4.459024
-14.1165485 1.2630919 9.4320173
-24.4917545 2.2970879 1.3308355
-9.306552900000002 1.3884296 8.1691742
-23.973362 3.3698015 7.5019135
-22.6031437 3.4283144 1.0156649
-4.962111499999999 3.4252706 5.315474499999999
-18.52244379999999 12.2988338 -11.113883
-13.6326237 14.8545361 13.1619558
-25.0751972 14.52633 -3.293072
-22.1117039 21.6109085 3.2086744
-14.4069729 21.3091297 11.0747147
-24.3789997 19.7599945 -4.1520686
-8.063639600000002 2.9948745 11.636055
-32.59921260000001 7.801136 2.9899766
-11.3038616 9.255339600000001 -12.6062603
-6.021400499999999 9.7235823 12.9248199
-10.0092649 14.2019873 -12.985527
-2.9344749 13.3104458 2.08254
-22.2529736 18.40944289999999 7.974824
-8.298953999999998 19.6488628 8.2721319
-15.9687719 22.167551 -11.605381
-15.6572237 23.83395580000001 -6.4242949
-23.8737774 5.270846400000001 -1.1663883
-3.7316828 6.5886722 0.9996451000000001
-14.7858791 13.1111002 -13.1530066
-18.5732555 18.8041096 -13.828392
-12.987956 23.4469509 -7.4223685
-13.24832339999999 19.7539806 12.4672375
-10.2043352 8.866540900000002 -12.3840494
-20.7042084 2.647194900000001 4.9095263
-25.5563736 11.0529585 -1.1585293
-13.8523951 22.3772221 -9.959925699999999
-23.1088848 11.7464123 -7.993516899999999
-5.860036799999999 17.7528229 5.9277744
-25.112339 16.5214577 -2.1225874
-30.4343395 4.5653791 7.267775499999999
-3.4584298 7.397130999999999 -4.378797100000001
-18.7305584 11.3719912 11.5989647
-12.59091 0.6005222 5.3056388
-28.5686283 2.5269465 6.6916957
-11.358737 18.1356735 12.4926901
-17.6791248 2.1802719 4.491377400000001
-16.3141518 4.9029064 -7.469061900000001
-13.5640621 21.4402657 -11.3176651
-17.4294643 18.9651661 12.3801823
-4.7727838 5.667155299999998 10.1244459
-18.0522785 2.4014468 6.5374351
-14.5964499 3.6812677 -4.0205207
-3.9354322 17.8894176 -2.1081836
-26.4004517 2.4002228 0.5559662999999999
-15.0683584 1.8124424 10.1745377
-25.0377712 12.8507891 4.5156746
-13.5415363 23.8959026 -2.7654879
-7.317364199999999 21.2167683 2.696657399999999
-16.9858742 6.0004206 11.9436007
$EndNodes
$Elements
1 1500 1 1500
2 2 2 1500
1 1 148 151 
2 1 736 148 
3 1 151 150 
4 150 736 1 
5 145 2 161 
6 145 602 2 
7 2 744 161 
8 162 744 2 
9 162 2 748 
10 602 698 2 
11 2 698 748 
12 185 10 3 
13 3 10 748 
14 3 149 473 
15 698 149 3 
16 185 3 473 
17 3 748 698 
18 4 13 23 
19 152 13 4 
20 23 473 4 
21 147 4 149 
22 470 4 147 
23 4 473 149 
24 4 470 152 
25 155 153 5 
26 5 153 471 
27 170 155 5 
28 170 5 171 
29 535 171 5 
30 474 5 471 
31 5 474 535 
32 603 6 154 
33 154 6 737 
34 173 6 157 
35 604 157 6 
36 737 6 173 
37 604 6 603 
38 7 153 155 
39 7 472 153 
40 155 747 7 
41 7 156 699 
42 747 156 7 
43 7 685 472 
44 699 685 7 
45 8 159 604 
46 607 159 8 
47 472 8 604 
48 472 685 8 
49 607 8 685 
50 9 164 146 
51 9 146 686 
52 609 164 9 
53 9 687 609 
54 687 9 686 
55 693 184 10 
56 748 10 184 
57 10 185 693 
58 11 28 21 
59 21 205 11 
60 28 11 609 
61 164 11 165 
62 11 164 609 
63 11 534 165 
64 205 534 11 
65 188 12 167 
66 167 12 670 
67 188 189 12 
68 533 12 189 
69 670 12 533 
70 13 211 23 
71 532 13 152 
72 13 190 191 
73 532 190 13 
74 211 13 191 
75 194 14 193 
76 14 733 193 
77 14 194 530 
78 671 195 14 
79 195 733 14 
80 737 14 530 
81 671 14 737 
82 170 169 15 
83 15 169 589 
84 170 15 172 
85 172 15 589 
86 16 198 174 
87 16 174 475 
88 16 475 176 
89 16 176 608 
90 608 198 16 
91 17 727 160 
92 17 160 739 
93 739 161 17 
94 17 161 744 
95 17 608 176 
96 727 17 176 
97 17 178 608 
98 744 178 17 
99 160 476 18 
100 160 18 686 
101 179 18 177 
102 177 18 607 
103 18 179 687 
104 18 476 607 
105 686 18 687 
106 178 20 19 
107 537 19 20 
108 19 608 178 
109 19 224 198 
110 19 198 608 
111 537 224 19 
112 178 744 20 
113 20 181 182 
114 181 20 744 
115 20 182 537 
116 28 203 21 
117 203 227 21 
118 745 205 21 
119 745 21 227 
120 22 187 186 
121 534 22 186 
122 187 22 210 
123 207 208 22 
124 207 22 534 
125 208 672 22 
126 22 672 210 
127 211 710 23 
128 473 23 477 
129 477 23 710 
130 43 235 24 
131 43 24 480 
132 234 215 24 
133 535 24 215 
134 235 234 24 
135 480 24 536 
136 24 535 536 
137 194 193 25 
138 193 236 25 
139 536 194 25 
140 25 236 590 
141 480 536 25 
142 480 25 590 
143 33 478 26 
144 26 485 33 
145 222 485 26 
146 222 26 610 
147 478 606 26 
148 610 26 606 
149 237 27 34 
150 702 34 27 
151 175 27 177 
152 27 175 702 
153 27 223 177 
154 237 223 27 
155 28 609 183 
156 611 28 183 
157 611 203 28 
158 201 184 29 
159 29 184 693 
160 201 29 752 
161 229 242 29 
162 693 229 29 
163 752 29 242 
164 37 30 38 
165 30 37 204 
166 30 54 38 
167 47 54 30 
168 30 740 47 
169 30 204 740 
170 31 613 209 
171 31 209 710 
172 31 211 212 
173 211 31 710 
174 31 212 613 
175 538 210 32 
176 672 32 210 
177 538 32 544 
178 542 543 32 
179 672 542 32 
180 544 32 543 
181 220 478 33 
182 491 220 33 
183 33 485 491 
184 588 34 156 
185 702 156 34 
186 237 34 546 
187 720 546 34 
188 720 34 588 
189 174 198 35 
190 610 174 35 
191 676 35 198 
192 610 35 222 
193 35 614 222 
194 35 676 614 
195 36 65 44 
196 224 36 44 
197 36 752 65 
198 537 199 36 
199 199 752 36 
200 537 36 224 
201 206 37 38 
202 37 612 204 
203 206 612 37 
204 243 38 54 
205 38 232 206 
206 243 232 38 
207 206 39 208 
208 232 39 206 
209 672 208 39 
210 232 542 39 
211 672 39 542 
212 188 40 41 
213 721 41 40 
214 40 188 538 
215 487 40 248 
216 248 40 544 
217 721 40 487 
218 544 40 538 
219 42 189 41 
220 42 41 233 
221 188 41 189 
222 233 41 721 
223 42 703 189 
224 42 249 213 
225 42 213 703 
226 42 233 249 
227 43 711 235 
228 590 43 480 
229 43 590 655 
230 655 711 43 
231 53 44 281 
232 44 53 676 
233 65 281 44 
234 44 676 224 
235 45 64 251 
236 45 493 64 
237 225 239 45 
238 484 225 45 
239 621 45 239 
240 45 251 484 
241 493 45 621 
242 486 47 46 
243 47 740 46 
244 226 264 46 
245 740 226 46 
246 264 623 46 
247 46 622 486 
248 623 622 46 
249 47 486 54 
250 232 55 48 
251 55 269 48 
252 232 48 245 
253 48 618 245 
254 618 48 269 
255 57 591 49 
256 49 619 57 
257 613 212 49 
258 49 212 743 
259 591 613 49 
260 743 619 49 
261 50 674 235 
262 711 50 235 
263 489 490 50 
264 489 50 711 
265 675 50 490 
266 50 545 674 
267 675 545 50 
268 250 51 59 
269 592 59 51 
270 51 236 218 
271 549 51 218 
272 236 51 250 
273 51 549 258 
274 51 258 592 
275 252 52 63 
276 52 262 63 
277 262 52 238 
278 52 615 238 
279 52 252 240 
280 52 240 615 
281 62 53 279 
282 53 62 614 
283 279 53 281 
284 53 614 676 
285 54 550 243 
286 486 267 54 
287 550 54 267 
288 232 243 55 
289 243 550 55 
290 55 550 269 
291 56 618 70 
292 626 56 70 
293 56 256 245 
294 618 56 245 
295 56 626 256 
296 271 57 66 
297 57 713 66 
298 57 271 591 
299 57 619 272 
300 713 57 272 
301 58 214 617 
302 58 743 214 
303 58 492 272 
304 58 272 619 
305 58 482 492 
306 617 482 58 
307 619 743 58 
308 250 59 257 
309 274 257 59 
310 275 274 59 
311 59 592 275 
312 60 274 304 
313 60 711 274 
314 288 60 304 
315 288 489 60 
316 60 489 711 
317 260 61 276 
318 485 61 260 
319 276 61 555 
320 277 61 548 
321 277 555 61 
322 548 61 485 
323 62 279 277 
324 548 62 277 
325 62 548 614 
326 68 252 63 
327 63 278 68 
328 262 261 63 
329 63 261 278 
330 251 64 263 
331 291 263 64 
332 280 291 64 
333 493 280 64 
334 666 281 65 
335 292 666 65 
336 65 752 292 
337 271 66 494 
338 494 66 299 
339 66 713 299 
340 67 289 259 
341 67 259 490 
342 67 490 288 
343 552 67 288 
344 552 289 67 
345 68 278 73 
346 68 73 324 
347 621 252 68 
348 68 324 627 
349 621 68 627 
350 297 69 269 
351 618 269 69 
352 69 297 298 
353 300 69 298 
354 69 300 618 
355 70 300 301 
356 300 70 618 
357 301 633 70 
358 626 70 633 
359 304 71 78 
360 78 71 319 
361 71 274 275 
362 304 274 71 
363 305 71 275 
364 71 305 319 
365 72 323 280 
366 72 280 493 
367 72 338 323 
368 338 72 557 
369 493 627 72 
370 557 72 627 
371 307 80 73 
372 73 80 324 
373 278 307 73 
374 352 74 313 
375 629 313 74 
376 504 74 352 
377 498 74 504 
378 74 498 712 
379 712 629 74 
380 495 287 75 
381 287 499 75 
382 558 316 75 
383 630 75 316 
384 495 75 492 
385 492 75 630 
386 499 558 75 
387 285 76 77 
388 76 332 77 
389 285 317 76 
390 317 331 76 
391 331 502 76 
392 76 502 332 
393 285 77 286 
394 656 286 77 
395 77 333 318 
396 318 656 77 
397 333 77 332 
398 78 319 84 
399 334 78 84 
400 78 303 304 
401 303 78 334 
402 81 85 79 
403 79 555 81 
404 319 79 85 
405 306 79 319 
406 79 306 657 
407 555 79 657 
408 86 80 321 
409 80 86 324 
410 307 321 80 
411 85 81 320 
412 320 81 749 
413 81 555 322 
414 81 322 749 
415 337 92 82 
416 358 82 92 
417 631 309 82 
418 309 730 82 
419 337 82 730 
420 341 82 358 
421 631 82 341 
422 289 554 83 
423 289 83 728 
424 83 303 334 
425 554 303 83 
426 321 83 634 
427 321 728 83 
428 634 83 334 
429 84 319 85 
430 85 320 84 
431 84 320 334 
432 339 86 93 
433 93 86 634 
434 634 86 321 
435 324 86 339 
436 87 324 339 
437 87 557 324 
438 557 87 338 
439 338 87 706 
440 339 706 87 
441 88 326 94 
442 94 514 88 
443 351 310 88 
444 88 310 735 
445 88 735 326 
446 351 88 514 
447 89 330 90 
448 89 90 344 
449 299 89 328 
450 299 713 89 
451 344 328 89 
452 330 89 713 
453 344 90 98 
454 90 641 98 
455 330 567 90 
456 567 354 90 
457 354 641 90 
458 93 91 513 
459 93 634 91 
460 97 384 91 
461 91 562 97 
462 91 384 515 
463 91 732 513 
464 732 91 515 
465 91 634 562 
466 366 92 337 
467 366 358 92 
468 93 706 339 
469 706 93 513 
470 326 678 94 
471 94 379 514 
472 94 572 379 
473 678 572 94 
474 315 95 329 
475 95 315 660 
476 329 95 566 
477 95 362 363 
478 362 95 660 
479 371 95 363 
480 95 371 566 
481 331 633 96 
482 665 331 96 
483 345 372 96 
484 96 633 345 
485 365 96 372 
486 96 365 665 
487 335 336 97 
488 335 97 562 
489 348 97 336 
490 374 97 348 
491 97 374 384 
492 98 111 110 
493 110 575 98 
494 98 641 111 
495 98 361 344 
496 361 98 575 
497 99 503 349 
498 349 516 99 
499 516 375 99 
500 594 99 375 
501 503 99 594 
502 359 100 368 
503 359 510 100 
504 368 100 378 
505 377 100 510 
506 377 643 100 
507 378 100 643 
508 350 351 101 
509 350 101 516 
510 101 351 514 
511 640 101 514 
512 716 516 101 
513 716 101 640 
514 365 372 102 
515 365 102 638 
516 390 102 372 
517 523 102 390 
518 102 523 391 
519 102 391 638 
520 363 103 104 
521 104 103 517 
522 103 363 362 
523 660 103 362 
524 103 636 517 
525 714 636 103 
526 660 714 103 
527 104 105 363 
528 104 598 105 
529 104 389 398 
530 517 389 104 
531 398 598 104 
532 105 576 363 
533 105 645 576 
534 105 598 645 
535 106 357 512 
536 106 577 357 
537 106 401 402 
538 512 401 106 
539 106 402 746 
540 106 746 577 
541 384 114 107 
542 114 404 107 
543 107 386 384 
544 386 107 403 
545 404 403 107 
546 376 108 109 
547 108 418 109 
548 108 376 639 
549 418 108 405 
550 405 108 646 
551 108 639 520 
552 646 108 520 
553 109 120 388 
554 418 120 109 
555 518 376 109 
556 109 388 518 
557 116 110 111 
558 110 116 525 
559 738 110 525 
560 110 738 575 
561 717 116 111 
562 354 111 641 
563 354 717 111 
564 113 112 582 
565 746 112 113 
566 112 402 430 
567 746 402 112 
568 582 112 430 
569 113 414 381 
570 113 381 642 
571 414 113 582 
572 746 113 642 
573 384 374 114 
574 374 385 114 
575 114 385 393 
576 114 393 404 
577 115 521 122 
578 115 122 648 
579 115 396 597 
580 396 115 648 
581 115 723 521 
582 723 115 597 
583 425 410 116 
584 116 410 525 
585 425 116 717 
586 117 399 413 
587 117 638 399 
588 401 117 402 
589 638 117 401 
590 430 402 117 
591 413 526 117 
592 430 117 526 
593 118 125 579 
594 118 647 125 
595 118 579 646 
596 669 118 646 
597 118 709 647 
598 669 709 118 
599 119 579 132 
600 132 651 119 
601 405 646 119 
602 651 405 119 
603 119 646 579 
604 121 128 120 
605 120 418 121 
606 128 388 120 
607 129 128 121 
608 421 129 121 
609 418 436 121 
610 121 436 421 
611 122 128 129 
612 122 521 128 
613 122 129 420 
614 648 122 420 
615 123 131 422 
616 131 123 708 
617 422 408 123 
618 123 408 695 
619 708 123 695 
620 696 136 124 
621 124 136 717 
622 414 124 400 
623 400 124 717 
624 751 124 414 
625 751 696 124 
626 125 433 132 
627 125 132 579 
628 433 125 133 
629 125 647 133 
630 133 126 583 
631 647 126 133 
632 126 392 403 
633 126 709 392 
634 415 126 403 
635 583 126 415 
636 647 709 126 
637 416 581 127 
638 707 416 127 
639 127 419 435 
640 581 419 127 
641 432 127 697 
642 127 432 707 
643 127 435 697 
644 128 521 388 
645 421 420 129 
646 407 130 409 
647 648 130 407 
648 409 130 741 
649 420 130 648 
650 718 130 420 
651 718 741 130 
652 131 527 422 
653 454 438 131 
654 527 131 438 
655 439 454 131 
656 131 708 439 
657 663 132 433 
658 449 651 132 
659 663 449 132 
660 133 452 433 
661 133 583 452 
662 134 417 431 
663 580 417 134 
664 431 447 134 
665 434 134 447 
666 134 434 580 
667 140 439 135 
668 458 140 135 
669 649 135 439 
670 441 442 135 
671 649 441 135 
672 458 135 442 
673 425 136 441 
674 425 717 136 
675 442 441 136 
676 442 136 444 
677 444 136 696 
678 137 413 412 
679 412 426 137 
680 413 137 662 
681 443 137 426 
682 662 137 443 
683 446 138 461 
684 446 697 138 
685 466 138 453 
686 528 453 138 
687 461 138 466 
688 697 528 138 
689 681 139 437 
690 437 139 718 
691 681 463 139 
692 139 463 724 
693 139 729 718 
694 729 139 724 
695 140 454 439 
696 140 468 454 
697 684 140 458 
698 140 684 468 
699 453 454 141 
700 453 141 653 
701 454 468 141 
702 468 654 141 
703 653 141 654 
704 467 142 144 
705 144 142 469 
706 465 142 467 
707 465 653 142 
708 469 142 654 
709 142 653 654 
710 456 455 143 
711 143 455 587 
712 457 456 143 
713 143 750 457 
714 719 586 143 
715 143 586 750 
716 719 143 587 
717 467 144 457 
718 457 144 692 
719 692 144 469 
720 739 145 161 
721 736 602 145 
722 691 736 145 
723 739 691 145 
724 529 148 146 
725 148 736 146 
726 164 165 146 
727 165 529 146 
728 146 691 686 
729 736 691 146 
730 602 147 149 
731 150 470 147 
732 150 147 602 
733 148 670 151 
734 529 670 148 
735 149 698 602 
736 151 531 150 
737 470 150 531 
738 736 150 602 
739 151 168 531 
740 533 168 151 
741 670 533 151 
742 700 152 470 
743 532 152 700 
744 153 603 471 
745 153 472 603 
746 471 154 530 
747 603 154 471 
748 154 737 530 
749 747 155 170 
750 156 172 588 
751 156 747 172 
752 699 156 702 
753 475 157 158 
754 158 157 604 
755 173 157 475 
756 159 158 604 
757 158 159 727 
758 158 176 475 
759 176 158 727 
760 476 159 607 
761 476 727 159 
762 160 727 476 
763 160 686 739 
764 181 162 163 
765 163 162 748 
766 162 181 744 
767 182 181 163 
768 163 201 182 
769 184 201 163 
770 184 163 748 
771 186 166 165 
772 165 166 529 
773 186 165 534 
774 186 167 166 
775 670 166 167 
776 670 529 166 
777 186 187 167 
778 538 167 187 
779 167 538 188 
780 168 190 532 
781 168 533 190 
782 168 532 531 
783 169 170 171 
784 169 171 215 
785 215 216 169 
786 169 216 589 
787 747 170 172 
788 171 535 215 
789 172 540 588 
790 589 540 172 
791 197 173 475 
792 671 173 197 
793 671 737 173 
794 701 475 174 
795 701 174 610 
796 177 607 175 
797 605 175 607 
798 702 175 605 
799 223 179 177 
800 179 223 180 
801 179 180 687 
802 183 180 241 
803 180 183 687 
804 241 180 223 
805 199 182 201 
806 199 537 182 
807 611 183 241 
808 609 687 183 
809 231 185 209 
810 209 185 477 
811 693 185 231 
812 185 473 477 
813 210 538 187 
814 533 189 703 
815 191 190 192 
816 192 190 703 
817 533 703 190 
818 191 192 214 
819 212 211 191 
820 191 214 212 
821 192 213 214 
822 703 213 192 
823 733 236 193 
824 194 474 530 
825 474 194 536 
826 195 196 217 
827 196 195 671 
828 217 733 195 
829 196 197 478 
830 196 671 197 
831 219 217 196 
832 220 219 196 
833 478 220 196 
834 197 475 701 
835 197 606 478 
836 197 701 606 
837 224 676 198 
838 199 201 752 
839 200 204 202 
840 200 202 225 
841 204 200 740 
842 484 200 225 
843 484 740 200 
844 612 202 204 
845 202 227 225 
846 202 745 227 
847 612 745 202 
848 228 227 203 
849 611 228 203 
850 207 205 479 
851 534 205 207 
852 479 205 745 
853 206 208 207 
854 206 207 479 
855 612 206 479 
856 231 209 244 
857 209 613 244 
858 710 209 477 
859 212 214 743 
860 214 213 617 
861 213 249 617 
862 215 483 216 
863 483 215 234 
864 483 545 216 
865 673 216 545 
866 589 216 673 
867 217 549 218 
868 733 217 218 
869 217 219 549 
870 236 733 218 
871 491 219 220 
872 491 549 219 
873 481 221 539 
874 541 221 481 
875 539 221 673 
876 541 540 221 
877 540 589 221 
878 589 673 221 
879 222 548 485 
880 222 614 548 
881 241 223 237 
882 227 239 225 
883 226 251 265 
884 226 484 251 
885 226 265 264 
886 740 484 226 
887 227 228 239 
888 228 240 239 
889 240 228 615 
890 228 611 615 
891 229 230 253 
892 229 693 230 
893 229 616 242 
894 616 229 253 
895 231 254 230 
896 230 693 231 
897 230 254 253 
898 231 244 270 
899 231 270 254 
900 232 245 542 
901 249 233 488 
902 488 233 721 
903 674 234 235 
904 674 483 234 
905 236 250 590 
906 241 237 238 
907 262 238 237 
908 262 237 546 
909 615 241 238 
910 252 239 240 
911 252 621 239 
912 241 615 611 
913 242 284 266 
914 266 752 242 
915 624 284 242 
916 624 242 616 
917 244 246 270 
918 246 244 613 
919 256 542 245 
920 246 271 270 
921 246 591 271 
922 613 591 246 
923 544 247 248 
924 247 734 248 
925 247 256 273 
926 256 247 543 
927 247 273 734 
928 247 544 543 
929 248 286 487 
930 286 248 734 
931 249 488 482 
932 617 249 482 
933 257 655 250 
934 250 655 590 
935 265 251 263 
936 268 253 254 
937 268 295 253 
938 295 625 253 
939 616 253 624 
940 624 253 625 
941 254 255 268 
942 270 255 254 
943 268 255 494 
944 255 270 494 
945 273 256 626 
946 542 256 543 
947 711 257 274 
948 257 711 655 
949 258 260 276 
950 258 549 260 
951 664 258 276 
952 258 664 592 
953 289 290 259 
954 290 547 259 
955 259 675 490 
956 259 547 539 
957 675 259 539 
958 485 260 491 
959 549 491 260 
960 262 620 261 
961 278 261 307 
962 547 290 261 
963 728 261 290 
964 307 261 728 
965 261 620 547 
966 546 620 262 
967 263 282 265 
968 309 282 263 
969 291 309 263 
970 264 265 282 
971 264 282 283 
972 623 264 283 
973 735 266 284 
974 735 292 266 
975 752 266 292 
976 267 622 294 
977 629 267 294 
978 622 267 486 
979 267 712 550 
980 629 712 267 
981 268 497 295 
982 268 494 667 
983 500 497 268 
984 268 667 500 
985 269 296 297 
986 726 296 269 
987 269 550 726 
988 494 270 271 
989 630 330 272 
990 272 330 713 
991 630 272 492 
992 285 273 317 
993 285 734 273 
994 626 317 273 
995 664 305 275 
996 275 592 664 
997 555 657 276 
998 664 276 657 
999 556 277 279 
1000 556 555 277 
1001 281 628 279 
1002 279 308 556 
1003 279 628 308 
1004 280 323 291 
1005 281 694 628 
1006 281 666 694 
1007 283 282 293 
1008 293 282 631 
1009 631 282 309 
1010 283 293 704 
1011 623 283 311 
1012 283 704 311 
1013 312 284 624 
1014 677 284 312 
1015 677 326 284 
1016 326 735 284 
1017 734 285 286 
1018 487 286 656 
1019 495 551 287 
1020 287 553 499 
1021 287 551 553 
1022 554 288 304 
1023 489 288 490 
1024 554 552 288 
1025 728 290 289 
1026 289 552 554 
1027 291 730 309 
1028 291 323 632 
1029 291 632 730 
1030 292 735 666 
1031 293 631 341 
1032 704 293 341 
1033 294 327 313 
1034 313 629 294 
1035 294 623 327 
1036 622 623 294 
1037 497 312 295 
1038 625 295 312 
1039 297 296 560 
1040 296 498 560 
1041 498 296 712 
1042 726 712 296 
1043 297 329 298 
1044 297 315 329 
1045 315 297 560 
1046 301 300 298 
1047 505 301 298 
1048 329 505 298 
1049 299 328 667 
1050 494 299 667 
1051 505 501 301 
1052 501 633 301 
1053 302 318 561 
1054 318 302 656 
1055 302 561 496 
1056 593 302 496 
1057 656 302 593 
1058 554 304 303 
1059 305 306 319 
1060 306 305 657 
1061 305 664 657 
1062 728 321 307 
1063 322 308 325 
1064 322 555 308 
1065 325 308 628 
1066 555 556 308 
1067 340 310 351 
1068 694 310 340 
1069 694 666 310 
1070 310 666 735 
1071 327 623 311 
1072 311 704 327 
1073 559 312 497 
1074 559 677 312 
1075 312 624 625 
1076 722 313 327 
1077 352 313 507 
1078 313 635 507 
1079 635 313 722 
1080 328 344 314 
1081 667 328 314 
1082 314 344 353 
1083 360 314 353 
1084 500 314 360 
1085 500 667 314 
1086 315 560 660 
1087 567 330 316 
1088 316 330 630 
1089 567 316 355 
1090 568 355 316 
1091 316 558 568 
1092 331 317 633 
1093 317 626 633 
1094 346 318 333 
1095 318 346 561 
1096 334 320 335 
1097 320 336 335 
1098 336 320 749 
1099 749 322 325 
1100 338 632 323 
1101 557 627 324 
1102 563 325 503 
1103 325 658 503 
1104 325 563 749 
1105 325 628 658 
1106 677 678 326 
1107 704 342 327 
1108 722 327 342 
1109 566 505 329 
1110 331 665 502 
1111 332 502 333 
1112 333 357 346 
1113 357 333 356 
1114 502 356 333 
1115 335 562 334 
1116 562 634 334 
1117 336 749 348 
1118 366 337 347 
1119 632 347 337 
1120 730 632 337 
1121 347 338 509 
1122 338 347 632 
1123 338 706 509 
1124 340 350 349 
1125 340 349 658 
1126 350 340 351 
1127 694 340 658 
1128 341 358 510 
1129 359 341 510 
1130 359 704 341 
1131 569 342 359 
1132 342 704 359 
1133 342 569 511 
1134 511 722 342 
1135 370 659 343 
1136 705 370 343 
1137 559 497 343 
1138 564 343 497 
1139 343 659 559 
1140 564 705 343 
1141 344 361 353 
1142 372 345 566 
1143 505 345 501 
1144 345 633 501 
1145 566 345 505 
1146 346 357 565 
1147 346 565 561 
1148 367 366 347 
1149 367 347 509 
1150 348 594 374 
1151 563 594 348 
1152 749 563 348 
1153 516 349 350 
1154 503 658 349 
1155 714 504 352 
1156 636 352 507 
1157 352 636 714 
1158 360 353 575 
1159 353 361 575 
1160 354 567 637 
1161 731 354 637 
1162 731 717 354 
1163 355 568 364 
1164 355 364 637 
1165 637 567 355 
1166 357 356 512 
1167 502 665 356 
1168 665 512 356 
1169 357 577 565 
1170 366 639 358 
1171 358 376 510 
1172 358 639 376 
1173 368 569 359 
1174 500 360 564 
1175 360 705 564 
1176 574 360 575 
1177 360 574 705 
1178 371 363 576 
1179 364 506 382 
1180 364 382 731 
1181 568 506 364 
1182 364 731 637 
1183 365 638 512 
1184 665 365 512 
1185 639 366 367 
1186 509 596 367 
1187 596 639 367 
1188 369 569 368 
1189 668 369 368 
1190 368 378 668 
1191 511 569 369 
1192 595 511 369 
1193 595 369 679 
1194 369 668 597 
1195 597 679 369 
1196 574 573 370 
1197 659 370 573 
1198 705 574 370 
1199 566 371 372 
1200 371 576 372 
1201 576 390 372 
1202 373 515 392 
1203 688 373 392 
1204 515 373 732 
1205 571 373 688 
1206 732 373 571 
1207 594 385 374 
1208 387 385 375 
1209 594 375 385 
1210 375 716 387 
1211 516 716 375 
1212 510 376 377 
1213 377 376 518 
1214 377 518 388 
1215 388 643 377 
1216 378 643 723 
1217 378 723 668 
1218 514 379 380 
1219 379 572 380 
1220 572 397 380 
1221 397 742 380 
1222 640 514 380 
1223 380 522 640 
1224 742 522 380 
1225 642 381 382 
1226 381 661 382 
1227 381 414 661 
1228 382 506 508 
1229 642 382 508 
1230 731 382 661 
1231 596 571 383 
1232 571 688 383 
1233 383 669 596 
1234 383 688 669 
1235 386 515 384 
1236 385 387 393 
1237 386 403 392 
1238 392 515 386 
1239 416 393 387 
1240 581 387 394 
1241 387 716 394 
1242 581 416 387 
1243 521 643 388 
1244 389 524 398 
1245 517 680 389 
1246 644 524 389 
1247 680 644 389 
1248 390 411 523 
1249 411 390 645 
1250 645 390 576 
1251 391 412 399 
1252 399 638 391 
1253 523 412 391 
1254 688 392 709 
1255 393 416 404 
1256 406 419 394 
1257 394 519 406 
1258 394 419 581 
1259 716 519 394 
1260 406 395 422 
1261 395 406 519 
1262 422 395 408 
1263 408 395 742 
1264 522 395 519 
1265 395 522 742 
1266 644 396 524 
1267 648 524 396 
1268 597 396 644 
1269 689 408 397 
1270 408 742 397 
1271 573 397 572 
1272 578 397 573 
1273 578 689 397 
1274 407 409 398 
1275 407 398 524 
1276 599 398 409 
1277 598 398 599 
1278 412 413 399 
1279 661 414 400 
1280 731 661 400 
1281 731 400 717 
1282 512 638 401 
1283 403 404 417 
1284 417 415 403 
1285 707 404 416 
1286 417 404 707 
1287 436 418 405 
1288 651 436 405 
1289 422 419 406 
1290 524 648 407 
1291 689 695 408 
1292 599 409 741 
1293 525 410 423 
1294 410 649 423 
1295 425 441 410 
1296 441 649 410 
1297 411 426 412 
1298 412 523 411 
1299 411 690 426 
1300 645 690 411 
1301 526 413 428 
1302 428 413 662 
1303 414 582 751 
1304 417 580 415 
1305 583 415 580 
1306 431 417 432 
1307 432 417 707 
1308 419 422 527 
1309 435 419 527 
1310 437 420 421 
1311 718 420 437 
1312 448 421 436 
1313 437 421 448 
1314 725 525 423 
1315 649 708 423 
1316 423 708 695 
1317 423 695 725 
1318 443 426 424 
1319 424 426 690 
1320 443 424 440 
1321 741 440 424 
1322 599 424 690 
1323 424 599 741 
1324 682 444 427 
1325 427 444 696 
1326 427 650 460 
1327 427 460 682 
1328 427 582 650 
1329 751 582 427 
1330 427 696 751 
1331 428 429 526 
1332 428 662 429 
1333 526 429 430 
1334 650 430 429 
1335 650 429 445 
1336 662 445 429 
1337 582 430 650 
1338 431 432 446 
1339 447 431 446 
1340 446 432 697 
1341 433 452 451 
1342 451 663 433 
1343 434 447 450 
1344 450 452 434 
1345 434 452 583 
1346 583 580 434 
1347 438 435 527 
1348 528 435 438 
1349 528 697 435 
1350 436 651 448 
1351 448 681 437 
1352 454 528 438 
1353 649 439 708 
1354 443 440 455 
1355 440 724 455 
1356 440 729 724 
1357 729 440 741 
1358 442 444 459 
1359 442 459 458 
1360 443 455 652 
1361 662 443 652 
1362 682 459 444 
1363 460 445 600 
1364 460 650 445 
1365 600 445 584 
1366 662 584 445 
1367 446 461 447 
1368 461 450 447 
1369 651 449 448 
1370 681 448 449 
1371 449 663 585 
1372 449 585 681 
1373 450 683 452 
1374 462 450 461 
1375 683 450 462 
1376 683 451 452 
1377 585 451 586 
1378 663 451 585 
1379 586 451 683 
1380 453 528 454 
1381 466 453 653 
1382 455 456 652 
1383 455 724 587 
1384 457 600 456 
1385 456 600 584 
1386 652 456 584 
1387 750 467 457 
1388 692 600 457 
1389 684 458 459 
1390 459 682 469 
1391 469 684 459 
1392 692 460 600 
1393 682 460 692 
1394 462 461 601 
1395 601 461 466 
1396 464 462 465 
1397 586 462 464 
1398 462 601 465 
1399 586 683 462 
1400 463 681 585 
1401 463 585 719 
1402 463 719 587 
1403 463 587 724 
1404 464 465 467 
1405 750 464 467 
1406 586 464 750 
1407 466 465 601 
1408 653 465 466 
1409 684 654 468 
1410 469 654 684 
1411 692 469 682 
1412 470 531 700 
1413 471 530 474 
1414 603 472 604 
1415 535 474 536 
1416 745 612 479 
1417 547 481 539 
1418 546 541 481 
1419 546 481 620 
1420 620 481 547 
1421 482 488 495 
1422 482 495 492 
1423 674 545 483 
1424 487 656 593 
1425 487 593 721 
1426 495 488 551 
1427 593 551 488 
1428 721 593 488 
1429 493 621 627 
1430 551 496 553 
1431 593 496 551 
1432 496 561 553 
1433 500 564 497 
1434 560 498 504 
1435 499 553 506 
1436 558 499 506 
1437 503 594 563 
1438 660 560 504 
1439 660 504 714 
1440 506 715 508 
1441 715 506 553 
1442 506 568 558 
1443 507 635 570 
1444 507 570 636 
1445 508 565 577 
1446 715 565 508 
1447 577 642 508 
1448 513 571 509 
1449 509 706 513 
1450 596 509 571 
1451 570 511 595 
1452 635 511 570 
1453 511 635 722 
1454 571 513 732 
1455 517 636 680 
1456 519 640 522 
1457 640 519 716 
1458 520 639 596 
1459 669 520 596 
1460 669 646 520 
1461 643 521 723 
1462 738 525 725 
1463 532 700 531 
1464 673 675 539 
1465 720 540 541 
1466 720 588 540 
1467 546 720 541 
1468 673 545 675 
1469 726 550 712 
1470 553 561 715 
1471 559 659 677 
1472 561 565 715 
1473 680 570 595 
1474 636 570 680 
1475 659 573 572 
1476 659 572 678 
1477 574 578 573 
1478 738 574 575 
1479 738 578 574 
1480 642 577 746 
1481 725 689 578 
1482 578 738 725 
1483 662 652 584 
1484 719 585 586 
1485 595 679 680 
1486 597 644 679 
1487 597 668 723 
1488 598 599 690 
1489 598 690 645 
1490 685 605 607 
1491 699 605 685 
1492 605 699 702 
1493 701 610 606 
1494 628 694 658 
1495 680 679 644 
1496 677 659 678 
1497 688 709 669 
1498 739 686 691 
1499 689 725 695 
1500 729 741 718 
$EndElements
