$MeshFormat
4.1 0 8
$EndMeshFormat
$Entities
0 0 1 0
1 -33.40533070000001 0.5905930999999995 -14.1352539 -2.257822300000001 24.6779823 15.3594112 0 0 
$EndEntities
$Nodes
1 752 1 752
2 1 0 752
1
2
3
4
5
6
7
8
9
10
11
12
13
14
15
16
17
18
19
20
21
22
23
24
25
26
27
28
29
30
31
32
33
34
35
36
37
38
39
40
41
42
43
44
45
46
47
48
49
50
51
52
53
54
55
56
57
58
59
60
61
62
63
64
65
66
67
68
69
70
71
72
73
74
75
76
77
78
79
80
81
82
83
84
85
86
87
88
89
90
91
92
93
94
95
96
97
98
99
100
101
102
103
104
105
106
107
108
109
110
111
112
113
114
115
116
117
118
119
120
121
122
123
124
125
126
127
128
129
130
131
132
133
134
135
136
137
138
139
140
141
142
143
144
145
146
147
148
149
150
151
152
153
154
155
156
157
158
159
160
161
162
163
164
165
166
167
168
169
170
171
172
173
174
175
176
177
178
179
180
181
182
183
184
185
186
187
188
189
190
191
192
193
194
195
196
197
198
199
200
201
202
203
204
205
206
207
208
209
210
211
212
213
214
215
216
217
218
219
220
221
222
223
224
225
226
227
228
229
230
231
232
233
234
235
236
237
238
239
240
241
242
243
244
245
246
247
248
249
250
251
252
253
254
255
256
257
258
259
260
261
262
263
264
265
266
267
268
269
270
271
272
273
274
275
276
277
278
279
280
281
282
283
284
285
286
287
288
289
290
291
292
293
294
295
296
297
298
299
300
301
302
303
304
305
306
307
308
309
310
311
312
313
314
315
316
317
318
319
320
321
322
323
324
325
326
327
328
329
330
331
332
333
334
335
336
337
338
339
340
341
342
343
344
345
346
347
348
349
350
351
352
353
354
355
356
357
358
359
360
361
362
363
364
365
366
367
368
369
370
371
372
373
374
375
376
377
378
379
380
381
382
383
384
385
386
387
388
389
390
391
392
393
394
395
396
397
398
399
400
401
402
403
404
405
406
407
408
409
410
411
412
413
414
415
416
417
418
419
420
421
422
423
424
425
426
427
428
429
430
431
432
433
434
435
436
437
438
439
440
441
442
443
444
445
446
447
448
449
450
451
452
453
454
455
456
457
458
459
460
461
462
463
464
465
466
467
468
469
470
471
472
473
474
475
476
477
478
479
480
481
482
483
484
485
486
487
488
489
490
491
492
493
494
495
496
497
498
499
500
501
502
503
504
505
506
507
508
509
510
511
512
513
514
515
516
517
518
519
520
521
522
523
524
525
526
527
528
529
530
531
532
533
534
535
536
537
538
539
540
541
542
543
544
545
546
547
548
549
550
551
552
553
554
555
556
557
558
559
560
561
562
563
564
565
566
567
568
569
570
571
572
573
574
575
576
577
578
579
580
581
582
583
584
585
586
587
588
589
590
591
592
593
594
595
596
597
598
599
600
601
602
603
604
605
606
607
608
609
610
611
612
613
614
615
616
617
618
619
620
621
622
623
624
625
626
627
628
629
630
631
632
633
634
635
636
637
638
639
640
641
642
643
644
645
646
647
648
649
650
651
652
653
654
655
656
657
658
659
660
661
662
663
664
665
666
667
668
669
670
671
672
673
674
675
676
677
678
679
680
681
682
683
684
685
686
687
688
689
690
691
692
693
694
695
696
697
698
699
700
701
702
703
704
705
706
707
708
709
710
711
712
713
714
715
716
717
718
719
720
721
722
723
724
725
726
727
728
729
730
731
732
733
734
735
736
737
738
739
740
741
742
743
744
745
746
747
748
749
750
751
752
-11.4618835 0.5905930999999999 5.1419134
-15.6236458 1.3303001 8.3239059
-13.2990961 2.0013239 11.0206041
-9.708972899999997 1.3619931 9.902636500000003
-28.9250126 2.2608092 2.9406934
-27.3455372 2.0489588 5.910078
-25.65185550000001 1.8636397 1.7717563
-23.432066 1.8577425 4.238529700000001
-14.6434774 1.8126872 1.8389437
-13.0168858 3.0331318 12.1928644
-13.8485918 2.8511772 -1.6656864
-6.906557100000001 2.4739606 2.7614434
-7.2025471 2.5003088 9.6426163
-30.1529331 3.5768187 6.851747
-28.1898708 3.4201579 -0.3058367000000001
-21.5420933 3.3211157 6.516058
-19.2698574 2.6746478 5.5087008
-18.3413277 2.6884983 2.8792608
-20.1594105 3.9682624 7.204177899999999
-18.8596096 3.2463424 7.377686499999999
-14.8737688 3.663321700000001 -3.296748899999999
-9.006644200000002 3.456643099999999 -2.2354853
-8.485443100000001 2.2708457 10.8993263
-33.1395264 5.416061400000001 2.1681352
-32.64807130000001 4.735607600000001 4.497291100000001
-24.0308266 4.909042400000001 8.002582600000002
-21.3065205 3.839046999999999 1.0789363
-15.4630594 3.206527700000001 -1.159927
-15.8221369 4.216346700000001 11.9588175
-14.3703747 4.838185299999999 -8.0563574
-7.119910199999999 4.4177418 12.4613695
-5.877437599999999 4.6486988 -3.519824
-25.787632 5.4124947 8.117831199999999
-21.94062229999999 4.7345028 0.09223140000000001
-21.5756283 5.109290100000001 7.490117499999999
-18.4766788 5.7509084 10.2604027
-12.8686047 4.271643200000002 -7.277748600000001
-11.3220463 5.178785799999999 -8.580636000000002
-8.124731099999998 5.0414538 -6.5826778
-4.6896544 5.3372908 0.08379050000000002
-4.934278000000001 4.869761 0.9514033
-4.1322732 4.774497 4.422901599999999
-33.40533070000001 6.496233500000001 3.1218512
-20.4906902 6.675837499999999 8.409237900000001
-19.2987099 6.1076131 -5.424926799999999
-15.3778028 6.9318805 -9.5611067
-14.5020571 5.801112199999999 -8.969862000000001
-7.2344255 6.438388300000001 -8.8973198
-5.4523301 6.171767700000001 11.7517176
-32.3820114 7.232123400000001 1.5539849
-30.9294548 7.4573665 6.608104199999999
-20.9036407 7.1793003 -1.6583433
-21.9103374 7.8895192 7.8567076
-11.9519444 6.369494899999999 -9.856496800000004
-9.0563564 6.2065969 -9.4234285
-5.2167945 7.145030999999999 -8.102340699999999
-6.1889606 7.949446700000001 13.2270336
-4.3142571 6.808512199999999 9.846117999999999
-31.368679 8.198714299999999 5.323236499999999
-30.8692913 9.019292800000001 2.6171646
-25.1885796 8.9866581 6.9603586
-23.0313721 8.250545500000001 7.348699600000001
-22.1852512 8.417921999999999 -1.7887142
-20.6400166 7.8066111 -6.541514899999999
-19.6584301 7.9177046 9.819788000000001
-7.114451899999999 9.051180800000001 14.0826206
-28.44564059999999 8.901559800000001 -0.1441584
-22.5493317 9.593112 -2.5529115
-6.9275436 9.252196300000001 -11.2494707
-4.5852308 9.587952599999999 -9.165596000000003
-28.9865704 10.6851234 3.9427693
-23.4229298 11.0669031 -5.158382899999999
-23.4801216 10.7470331 -2.13081
-12.5497084 10.9696846 -12.639246
-3.4465339 9.9187841 7.6891012
-2.895596 11.9477549 -7.4062805
-2.4381845 9.799596800000002 -3.9928815
-27.8852234 11.679575 2.5576553
-25.9316597 11.6044235 4.8582969
-24.2744465 11.6725845 -1.5236911
-25.3467407 12.0104265 4.725596899999999
-22.9321594 12.2963428 -8.589974399999999
-25.8912754 12.5316763 0.0566839
-26.8453579 12.2918968 2.7229176
-26.1852474 12.5893946 3.1055088
-24.5017033 12.5539436 -1.3719015
-24.5860443 13.3652248 -3.257355
-19.5288963 12.4748058 11.1749783
-6.487082 11.7763271 12.6942034
-7.116830299999999 14.6896114 11.6025076
-25.3910332 15.155982 0.226672
-24.0563545 13.7555408 -8.129802699999999
-25.0190926 14.4087858 -1.4109669
-18.0219002 14.6746702 12.3664913
-7.407595199999999 14.3635626 -12.4671497
-3.6581316 13.8882256 -9.188438399999999
-25.4870453 14.7715044 1.9605461
-8.9138994 16.757452 11.857398
-24.263258 14.8767376 6.314420699999999
-20.3761787 17.1007671 -11.7929602
-21.6393032 16.1278324 9.560988399999999
-4.697207 17.1364002 -9.017778399999997
-10.9775953 16.8492546 -13.4909229
-12.2315283 18.4261017 -13.639966
-9.4747887 18.3980446 -12.324235
-3.5721774 17.2024441 -2.7466125
-24.1748333 19.0540943 0.1283462
-24.1348133 18.6293907 -7.666104799999998
-21.9682503 18.8335991 -9.3138819
-9.967637100000001 18.2480831 11.7762356
-8.777327499999998 17.6490993 11.1071444
-5.031033000000001 19.5234909 -0.7237028000000001
-4.8595004 18.8752308 0.7598834000000001
-24.5442028 18.7004013 1.9900038
-18.3588753 19.4470844 -13.8612776
-9.9576931 19.2359505 10.8367987
-5.083287700000001 19.613945 -5.875117299999999
-23.9231415 20.3385563 -5.324910599999998
-22.1887131 21.2159367 -7.1562009
-20.6579475 19.8068962 -10.4352922
-19.2835693 21.5889874 -9.765532500000003
-19.1668701 20.1663952 -13.0171652
-16.0882816 20.9599285 11.1795168
-7.303069100000001 20.5452652 4.6537614
-22.1898613 21.5334492 -4.889249300000001
-22.781908 20.6001053 -2.361475
-21.2873783 21.7035866 5.355216
-19.8926849 20.0535164 -12.1708746
-18.7916031 20.990324 -12.2326698
-15.9992914 21.4206581 -12.6841869
-16.037653 22.0945034 9.107027099999998
-20.4801731 22.8839684 -6.3556442
-20.4172649 22.2510414 -3.2789865
-21.187088 22.282238 0.5592134
-12.0766811 22.6475163 7.320306799999999
-9.333209999999999 21.1881409 7.5198121
-7.583934799999999 21.3144989 -7.444315899999999
-19.590416 23.30188560000001 3.4251904
-15.6856165 22.8154335 -9.979886100000002
-12.6692324 23.2708244 6.0564036
-14.8264217 24.3315201 3.3652182
-14.0714378 24.6779823 0.4906707
-12.8841476 23.7683048 -3.9471531
-13.0355787 24.447298 -0.2443028
-14.6374216 0.8882926 7.105111099999999
-13.0586338 0.9616708 3.429399
-11.8186684 1.2418718 9.317549700000001
-11.7857418 0.7480265 3.7976904
-12.0604258 1.6902995 10.7165718
-11.753396 0.7249206000000001 6.480921700000001
-10.039588 0.8481088000000001 5.1763558
-9.3301163 1.3335615 9.324588800000001
-27.1446991 1.64898 3.5851443
-28.1017971 1.9759203 5.488743800000001
-27.160717 2.1005504 1.5640252
-24.8895874 2.8537927 0.2290052
-24.1772079 2.203871700000001 5.913270000000001
-22.9680004 2.1821012 5.4267302
-22.0428905 2.268970700000001 4.599144
-18.7943192 2.4582074 4.2759986
-17.588707 2.0894113 5.5447936
-16.3150406 2.0428402 9.5153008
-16.1779289 2.3679266 10.2674322
-14.1834736 2.3575728 0.1589217
-12.8868923 2.341742 0.07915250000000001
-10.2250147 2.2735684 0.8616149000000001
-7.6303563 3.0449378 0.7159262000000001
-7.112517799999998 1.8863355 5.617980499999998
-29.9826107 4.0040393 0.03798199999999999
-28.3167706 2.860058299999999 0.4918706
-29.9814968 3.2888329 1.040507
-26.5293674 3.176511 -0.4641104
-27.0404682 2.5904627 6.9565887
-22.0835075 3.8083234 7.101841
-21.6730328 3.0117249 2.25384
-21.0533352 2.896656499999999 5.7200465
-20.1116467 3.114331 2.26494
-19.1901932 3.052451599999999 6.5602412
-18.850132 3.3017354 1.7625366
-18.6907368 3.8732204 1.0157884
-17.4780006 2.6489663 8.860397300000001
-17.7062435 3.486859099999999 9.800492300000002
-17.0859013 3.5185964 0.4086779
-15.4020948 2.850857999999999 11.2047567
-11.1880035 3.349087 12.9210777
-10.3820896 2.6361134 -0.3909081
-8.025225599999999 3.2457719 -0.2976840000000001
-6.2876549 3.7684824 0.5411931
-5.298647900000001 3.416325099999999 3.4102671
-5.6790919 2.8389671 6.7305827
-5.685354199999999 3.4631612 8.9528713
-4.8380675 3.7477601 6.8559637
-32.1066208 4.8231606 5.4471107
-31.4216366 3.8041308 4.7973619
-29.42849349999999 3.960952 7.7263989
-28.1631508 4.154556799999998 8.200666399999999
-26.0122089 3.4658999 7.7297516
-21.1365929 4.489233500000001 7.2905498
-17.6211243 4.1334901 10.4421549
-16.4989452 4.270373300000001 -6.2264485
-16.5347328 3.5449057 11.0659199
-15.3566875 3.8607068 -5.621500499999999
-15.5497665 3.8365765 -2.7272146
-14.9925671 4.0847597 -6.8314385
-13.4876175 3.42435 -3.2946146
-11.1480083 4.6435714 -7.2911668
-11.6725559 3.5579789 -3.435058099999999
-9.961995099999999 4.3982363 -4.984328700000001
-8.652252200000001 3.875559099999999 13.0554886
-6.9509344 3.9529548 -2.4165359
-6.4630919 3.5902216 10.6073904
-5.765351799999999 4.664115899999998 10.9938231
-4.195847499999999 4.6202793 6.1066947
-4.8019338 4.6436176 8.8114986
-31.8851089 4.677686199999999 1.0275016
-30.5737534 4.7724113 -0.0469893
-29.5876026 4.9523969 7.9534111
-30.5326576 5.9903107 7.407600400000001
-28.61886790000001 5.512824499999999 8.336309399999999
-27.7568188 5.3307028 8.437981599999999
-27.1477108 4.807318199999999 -1.3694762
-22.6798325 5.953209400000001 7.647436099999999
-20.1786938 4.1418724 0.9393210000000001
-20.1887989 5.428616 8.068510099999999
-17.1405544 4.534996499999999 -5.3882122
-18.1153316 5.895419599999999 -7.2998738
-15.8047771 4.0656533 -3.9033341
-17.2687588 5.1490798 -2.8646913
-13.0221958 5.186672700000001 13.6201506
-11.467701 5.5580029 14.3902092
-9.649343499999999 4.891273000000001 14.0558863
-9.266497600000001 5.3824997 -8.450959200000002
-3.794363 6.224961799999999 2.6159599
-32.781662 5.837838199999999 1.4992695
-33.1748161 6.6466789 2.2524543
-32.37449649999999 6.1324596 5.7373767
-21.205452 6.161526199999999 -0.6195662999999999
-20.78762249999999 6.602376899999999 -1.0570379
-19.4473476 6.3879714 -3.6705372
-19.1160889 6.141485199999999 -3.0275705
-19.7972755 5.7083025 -0.4992663
-16.1811314 5.874082599999999 12.4528103
-10.0311117 5.5365682 -8.942589800000002
-7.973718600000001 5.5890169 13.925334
-6.3630013 6.180124799999999 -7.9345999
-7.4230328 6.219712700000001 13.8720207
-4.527565999999999 6.0062718 -4.803511599999999
-3.8505852 6.479968100000002 -2.7272055
-3.8262475 5.4068322 5.095714599999999
-32.6613464 6.9463172 5.028590199999999
-19.4127808 6.4950089 -6.546478700000001
-21.2572975 7.9628196 -2.5113072
-12.1270895 7.6320839 14.940176
-10.4029951 7.237268400000001 15.1760387
-9.4167767 8.3307295 15.2158985
-4.9004364 6.275861700000001 -6.3350916
-32.084568 8.038475999999999 4.453984699999999
-29.2056389 7.8721933 7.3904929
-27.8561268 7.992342900000001 -0.7186925000000001
-27.3435154 8.271917299999998 7.4885888
-24.1718845 9.3566713 -1.4968801
-21.9603786 7.306941 -1.2648473
-20.6082611 8.9201994 -8.036324499999999
-17.1576118 8.1570702 -9.4146967
-19.0463619 7.2569199 -7.8294973
-17.3064823 8.978349699999999 12.4110699
-12.0197783 8.2675924 -11.8636799
-10.4797726 9.056451800000001 15.3594112
-8.356076200000002 8.820593800000001 -11.6433582
-8.607055699999998 7.2588916 14.8073721
-7.442867300000001 8.036582900000001 14.3478527
-4.5424213 9.335416800000003 10.9421644
-3.7816856 7.6464081 -5.948300400000001
-30.5392723 9.271531099999999 4.116437899999999
-29.6801815 9.412762600000001 5.222463100000001
-27.3396778 9.1750574 6.816610799999999
-24.1042442 9.284572599999999 6.904862400000001
-23.3759003 9.7908068 -1.8405882
-22.9813862 9.521059999999999 7.3642011
-22.7355995 10.2188711 -6.3273492
-21.9971771 8.9659557 8.0797033
-19.212595 9.0423841 -9.224657999999998
-17.6569691 10.4409084 -10.562336
-16.4179401 9.342416800000002 12.9947348
-2.8286893 9.0096741 -4.7897863
-2.6633129 8.748016399999997 -3.3873107
-3.2072597 9.461456300000002 5.298895799999999
-29.1030521 9.819082300000002 1.0300397
-27.086647 10.547122 -0.8340654000000001
-26.1530876 9.985581400000001 -1.3049258
-22.9124565 10.8551035 -7.1533718
-18.8598003 10.0827808 11.2791653
-19.6266117 10.6178436 -9.848542200000001
-13.8060446 9.7446442 -11.9938078
-11.8640471 9.246710799999999 15.0360737
-9.8722677 9.681921999999998 -12.6540737
-7.760714499999999 10.4016085 -12.2219639
-6.4300108 10.5341587 -11.5848999
-7.253624 10.1040993 13.9806614
-6.094030899999999 9.5238066 -10.8300514
-5.004789799999999 10.8271055 -10.431448
-2.8045175 9.1759138 0.0072832
-27.4540768 11.843873 1.1189702
-29.6944771 10.1586771 2.592846899999999
-27.981329 10.7455273 5.107082799999999
-27.2798367 11.2979393 4.7031207
-24.5128136 11.329093 -1.4150624
-23.662384 10.8990812 6.828657199999999
-20.6620255 9.937183399999999 -8.8126116
-22.0293427 11.9219341 9.499134100000001
-15.9236431 10.9708328 -11.8529043
-15.0614882 10.6250153 13.614131
-13.7207127 11.3195162 -12.6489992
-9.767807999999999 12.3683758 14.3088493
-7.844545399999999 13.1247883 -12.5527687
-4.449778600000001 11.7531424 9.770439100000001
-3.1273263 11.5027103 -7.791047100000001
-2.2578223 11.1358805 -1.6658747
-27.419836 11.8084087 3.3745854
-25.9878063 13.0056181 2.7718215
-25.1226463 12.3419409 -0.7327515000000001
-24.7300568 11.9120417 5.388043400000001
-24.0125885 11.826602 -6.2977662
-23.2281418 10.9837036 -2.8118675
-24.1925602 12.2157602 6.095195799999999
-17.9156361 11.9820623 12.1439543
-15.5460176 11.7767916 -12.4631624
-8.353511800000001 12.173502 13.8638954
-6.369133499999999 11.6944561 -11.7159843
-5.217904099999999 11.7627821 11.3043699
-3.0692267 12.5070314 -8.093647000000001
-2.434202399999999 11.3549271 -4.688552899999999
-2.2584543 12.6114092 -3.049437
-26.4010201 12.7581377 1.3839264
-25.9047604 13.4692936 1.8594371
-25.5445766 13.7025738 2.9011357
-24.5554218 13.4019737 -7.4464355
-24.9223881 13.1006079 -5.2855215
-24.5301952 13.2763033 -2.1409886
-22.5256939 12.9340467 9.0944252
-21.5121555 12.9662237 -9.950441400000001
-17.9777031 13.3943853 -11.7329016
-14.6573162 13.9468737 13.2390127
-8.213078499999998 14.3952446 12.6079521
-4.443499600000001 13.5357819 -10.1916428
-2.3032808 12.8584585 -1.736388
-25.2702408 13.9299583 -6.2875261
-25.1436214 14.8689022 3.488334200000001
-23.683754 14.0942631 7.562097499999999
-22.7135925 14.9984426 8.5204182
-21.5237789 14.3200731 9.713979699999998
-12.2720556 12.4131842 -12.8964825
-9.9767017 14.9665976 13.0035295
-7.480173600000001 16.9466801 10.0722456
-4.606416199999999 13.8994188 7.8179674
-2.595478299999999 14.061595 -5.948772000000001
-2.554262399999999 14.4987116 -3.436702299999999
-22.6781406 14.0525579 -9.3932457
-20.5577984 15.4206982 -10.9867191
-11.6970968 14.9503708 13.2744207
-9.285492900000001 15.7756577 12.465169
-8.623779299999999 15.424058 -12.8227024
-8.375886000000003 16.4657059 -12.5424318
-4.2380047 15.1177893 5.1033025
-3.3571558 15.2990541 -8.1169844
-24.8412762 15.6606693 -7.4644241
-25.3202763 16.2490578 -6.6595235
-18.7652721 16.0407982 -12.0865898
-16.1557903 16.4780216 -13.1433945
-14.9520292 15.6625748 13.0599384
-6.7508993 15.7292204 -11.8921804
-4.805265400000001 15.7472525 -10.1813107
-24.8944416 17.8651791 -2.5546665
-24.951746 16.4305859 2.4855781
-23.4419422 17.2578049 6.607779
-22.939846 17.3248997 -8.9275255
-21.9791889 16.5914307 -10.0329838
-19.3443871 17.3886414 -12.7375412
-18.1849346 17.01183510000001 12.3333035
-18.0347385 17.94643019999999 12.3745947
-4.879843700000001 18.4059143 1.6944743
-4.2220197 15.9973936 3.2590871
-25.2979355 18.332346 -5.4811559
-24.7478733 17.81637 -0.1572458
-24.4828358 18.294817 3.0983443
-24.20253749999999 18.8793049 -1.2103409
-22.5666447 19.2034321 6.805902499999999
-21.3246651 18.3780022 -10.7106829
-13.8809137 18.3997345 -14.0105467
-5.744456799999999 17.4072189 -10.1805
-5.114860499999999 18.4126282 -8.268705399999998
-24.2103233 19.1673088 -2.390286
-24.0813618 19.1667137 3.0415134
-21.3489628 19.8990784 7.934401
-18.0548019 19.5164757 11.5652466
-16.8358154 19.0027905 -14.1352539
-16.4129715 18.4995842 12.992712
-13.2637777 19.0636864 -13.6559801
-5.7474337 19.51698110000001 -7.7999053
-6.5131292 19.3240242 5.0238023
-4.411219100000001 18.653904 -5.120852499999999
-4.7244692 19.3572216 -3.0295169
-23.3691978 19.9089375 -1.0358504
-23.4389706 20.3253899 1.9501963
-21.7350922 21.0165672 -7.914557499999999
-19.0777607 20.3435879 9.526886000000001
-15.9115953 20.4874859 -13.4522924
-16.7353916 19.8944035 12.0954323
-14.0527821 20.480278 -12.7014637
-11.3093643 20.3566017 10.7556524
-8.5987358 19.9125919 -10.6141272
-6.724591299999999 20.0537548 -8.416546800000003
-6.2589912 20.5549278 -6.8923287
-6.1862788 19.9872952 2.474791
-22.2517204 20.9858131 -1.3243157
-22.6446838 20.6890812 4.2963605
-22.2163963 21.5586014 1.2261621
-20.9218063 20.3195801 -9.242196099999999
-20.138752 21.4172897 7.5785947
-17.8045483 21.1573372 -12.7485704
-17.8783836 22.1580334 -10.7125511
-17.9662037 21.0551357 9.655420300000001
-13.3602295 20.8279076 11.5608578
-10.5922813 21.3525219 -10.394865
-9.8069334 20.823019 8.705187800000001
-8.750654200000001 20.8745613 -9.578697200000001
-8.061128599999998 22.210453 1.3422825
-6.7474151 21.2701569 -5.497240100000001
-6.342796799999999 21.1457653 -3.0263846
-5.7594662 20.679224 -2.1346908
-20.9710121 22.605423 1.6047659
-21.4760265 22.2052803 3.156826
-19.92249679999999 23.1710835 -5.459891300000001
-20.3069496 22.3978443 -1.3254462
-19.8939018 22.160799 6.576075100000001
-19.2189369 22.3073559 -8.696635200000001
-16.99012949999999 22.2834988 -11.1449232
-17.4577408 22.9382286 7.101081799999999
-14.6795187 22.004446 9.503024099999999
-11.0364552 22.166853 -9.240220999999996
-10.5570068 21.7793808 7.9159689
-10.8594027 22.7190456 6.2060852
-9.3953285 22.2605629 -7.7258611
-10.0799608 22.96862789999999 4.474319
-8.1688042 22.2555809 -2.5456121
-20.366848 23.0368004 2.1666384
-19.7809467 23.1273689 0.4662163
-17.6455841 22.9081421 -9.162616700000001
-18.9687119 23.3268719 -7.1764789
-18.2548943 23.4603634 -1.5023032
-17.7000141 23.5926533 -3.407227
-19.0848789 22.9729347 -2.9753602
-17.2896347 23.850605 3.9677613
-16.2792778 23.1983242 6.7395163
-11.8724689 23.5659103 -6.297575499999999
-11.3092871 23.61099430000001 -3.2711182
-11.6956692 23.8504734 -1.5621423
-11.2826176 23.356041 4.8062835
-10.6405487 23.3489017 3.8622975
-8.942439100000001 22.9419346 -0.6697372000000001
-17.3761997 24.2144356 0.4736193
-16.584568 23.9366055 -2.132662499999999
-15.6496611 23.6489639 -7.8550391
-15.4355574 23.9293289 -2.7533431
-15.4698095 24.5787754 -0.301349
-16.4643574 24.5016556 1.8534095
-14.2287817 24.4814663 -0.9218174
-13.5326061 24.0439873 3.9332895
-12.3982658 24.3358345 1.2976714
-10.7959452 1.1904101 8.098904599999999
-27.8985443 1.7786987 4.397697
-25.1300602 1.6008863 3.8052611
-10.6413851 2.1236758 11.5102205
-29.5412006 2.4684858 4.1459413
-23.8649235 2.8805239 7.020655199999999
-20.3200092 2.6119061 3.9183509
-9.453700100000001 3.0552297 12.4316664
-26.1728039 4.5118814 8.125686600000002
-12.5297232 3.7194593 -4.546217
-33.31457139999999 5.4405074 3.5956929
-24.7637939 6.6389928 -1.6890799
-3.5864973 6.3902335 5.931907700000001
-31.6905918 5.5672717 0.4395354
-17.4904385 4.749617600000001 -6.1562915
-26.1807346 7.3706722 7.803980799999999
-13.5090971 6.969816199999999 -10.1470556
-3.5261233 6.926267600000001 -0.102374
-3.3435795 7.2814012 3.8854136
-30.2715244 8.736104999999998 1.3427465
-29.4552135 7.9649687 0.1826494
-27.5851517 6.765820499999999 8.1797667
-3.6601541 8.937901499999999 8.521114299999999
-21.8686352 8.8393126 -5.404156199999999
-8.8338909 8.996084200000002 15.0290813
-3.2907784 8.075499500000003 5.0667672
-2.838376 9.278927799999998 1.105118
-12.3298168 10.8621216 14.6837711
-10.1026173 10.411768 -12.7865047
-3.258258099999999 11.0661783 5.448309400000001
-10.6487103 11.35888 14.804141
-4.6773295 11.6036634 -10.2905645
-2.6284611 12.8866291 -6.6852655
-24.4382401 13.9320145 6.2505789
-10.1788034 12.6620226 -12.8367167
-5.270399600000001 11.9033079 -10.946578
-3.6135795 13.9069557 4.560120599999999
-13.2171545 13.3880825 -13.3116846
-3.198251 14.6308146 1.7269585
-25.4128017 14.6730843 -5.294401199999999
-21.6894112 15.5271482 -10.2249899
-14.9248686 15.519906 -13.3149071
-2.9011385 15.3510599 -6.238771000000001
-25.1609669 15.6877069 -2.4002156
-19.7435284 16.0255451 11.0888128
-24.8622684 17.4984379 -1.4132193
-22.5862293 16.9919071 8.2394199
-12.2943707 17.4559708 -13.8946314
-22.2617531 17.888855 -9.513802500000001
-19.8839588 19.1003704 9.837659800000001
-24.727581 18.7152233 -6.9380012
-20.005415 19.071373 -12.7143507
-18.5563126 18.8664227 11.5424185
-5.972258600000001 18.502985 -9.3842049
-15.5481453 19.4441986 -13.9256401
-11.4036884 19.2669544 12.0511322
-5.7484035 20.4670486 -5.3851013
-18.6358967 22.1266632 7.812100899999999
-18.031271 23.0675049 6.352774599999999
-11.204566 1.1743565 2.8806894
-29.710535 2.7044566 5.6794782
-9.1356258 1.4327092 7.1604981
-7.4024019 2.166045399999999 8.014506300000001
-6.858716499999999 2.0102324 4.6347017
-11.978898 2.8800018 -1.8535429
-31.6833801 4.054975499999999 1.7216184
-32.6769104 4.4953718 2.9003763
-19.3809834 4.2889895 8.0541964
-6.336640800000001 3.996803299999999 -0.6255356000000001
-27.748064 5.8919668 -1.2570668
-26.2180882 4.4554806 -1.2746124
-24.2255077 5.814888999999999 -1.4825313
-6.0937643 5.321888 -5.940708600000001
-5.157211799999999 5.491955799999999 -4.977386
-5.069111799999999 5.163033499999999 -3.298898
-31.0916348 6.124353899999999 0.0969836
-22.5003052 6.355582199999999 -1.0121362
-26.01199340000001 7.999611900000001 -1.3059947
-23.9930038 7.662925199999998 7.377947799999999
-29.0605755 6.8656473 7.975128700000001
-10.8686657 7.9940767 -11.8418131
-2.821248799999999 9.1884155 3.1677599
-27.7462502 10.4719906 -0.2750747000000001
-2.7542338 10.7715969 3.2678471
-27.3914547 11.3214455 0.0684771
-25.0114956 10.4359426 6.1830716
-23.9725914 10.2873344 6.6734228
-23.3915825 11.3586159 -3.7090187
-3.5807452 11.6838503 6.9965582
-15.416502 12.7570858 13.2278194
-8.866150900000001 11.1935539 -12.6791182
-2.7606394 12.2120247 0.7828299000000001
-25.7820053 13.7334852 1.2285869
-24.8423042 13.5155592 4.921535499999999
-12.151906 12.2309437 14.3981228
-2.836463499999999 14.2056379 -0.3782223000000001
-6.0094838 14.753561 -11.5426702
-5.2369184 13.0030413 10.2590504
-3.9264352 13.0447273 6.9078069
-18.1073704 14.9477892 -11.9241781
-13.1222115 15.2667055 -13.5991993
-25.4133644 17.6546726 -4.928123
-17.2507648 16.1924095 12.8503933
-15.9540491 17.48053359999999 13.1320314
-12.0265894 16.6352596 12.8069057
-10.2871828 16.7362423 12.5100317
-6.8535423 16.8565769 -11.4936266
-3.4781859 16.8309975 -1.788009
-14.0309162 18.8009415 12.9169874
-22.6653728 21.1732407 -6.247395
-21.6660843 21.4571991 -1.2283078
-21.7313728 20.8971653 6.055595899999999
-5.951353100000001 20.3492126 0.4486764
-20.7812786 21.9291153 -2.4403024
-9.9038906 23.0779285 -3.8399587
-17.6851444 23.8015404 -6.4825082
-16.5952816 23.7710705 -3.749130200000001
-13.1464291 23.7516232 -6.428883999999999
-24.9746552 4.008301700000001 -0.7949449000000001
-27.8076801 4.160385099999999 -1.0065805
-32.9305077 6.3076978 4.957368900000001
-6.490224400000001 7.1776023 13.3850679
-30.0165443 8.3792171 6.3854003
-3.2199566 7.697099199999999 0.5928300999999999
-24.5351334 14.9551592 5.636114599999999
-13.9646797 16.1838093 -13.6695061
-25.3659267 17.48249239999999 -6.461399600000001
-17.2540493 18.335783 -14.0686979
-10.4161606 19.5430641 -12.0880184
-11.0913372 20.4641056 -11.6120653
-9.892564800000002 23.3612022 -1.6921427
-16.48243519999999 24.4385529 0.05784860000000001
-13.5513668 0.7543067 7.875989
-26.6573505 1.7254421 4.853966199999999
-24.0739899 1.8659259 4.9935164
-22.6666584 2.7682469 2.1540549
-24.4030457 3.9954162 7.921169300000001
-21.3006763 2.7208271 3.1563396
-20.8382492 3.611946099999999 6.7340889
-15.3454714 2.800072 -0.1226006
-22.7366867 4.2576795 7.5615482
-17.6474533 4.7025976 -0.9173989
-12.9488363 3.8330638 -5.871184799999999
-7.2146435 5.2845941 13.2899475
-22.2500992 6.6877213 7.6231031
-19.1161423 5.8709941 -1.6516038
-14.0778933 6.317444799999999 13.5354853
-3.9500144 5.6022177 6.8708973
-5.8030529 7.273868100000001 -8.780277299999998
-4.603404499999999 6.990691700000001 10.6766243
-23.8873215 7.917015599999999 -1.4872903
-21.4039707 8.30194 -3.4238045
-13.6951008 7.841401100000001 -10.7803574
-14.9050922 8.895605100000001 -10.926568
-14.3750067 8.504330599999999 13.7705698
-12.7111225 8.597977599999998 14.6965313
-4.241060300000001 8.228654899999999 -7.709439300000001
-22.419136 9.728130299999998 -3.6540265
-23.04599 10.9582148 7.6695223
-12.7028551 9.2844906 -12.2340822
-4.2025604 10.1706352 10.1007519
-20.1880589 10.2639141 -9.367278099999998
-24.6150417 12.765686 -6.819779400000001
-3.640132 11.9853182 -9.008347499999999
-25.4397049 13.4976091 0.06417590000000001
-13.8027906 13.4299774 -13.3703117
-12.3162766 16.64499470000001 -13.8540392
-5.432344400000001 16.2158737 7.0408792
-4.3232751 17.7579231 -7.383594
-24.6762924 17.3669109 -7.622520899999999
-20.0466061 17.5619049 10.5073462
-8.1194153 16.484066 11.4257202
-4.1708655 17.4789371 0.8394576
-19.9552841 18.4085407 -12.7574072
-15.3283815 18.4415188 -13.9804659
-9.052006700000002 19.2962246 -11.5486689
-24.2377663 19.7930851 -6.4103189
-23.5292454 20.5198078 -4.178012799999999
-17.6639042 20.4029198 -13.6036482
-12.5395231 21.5516701 9.555734600000003
-7.496889100000001 21.8275967 -0.8389934000000001
-20.3071327 22.6431103 -7.270529700000001
-10.7503586 23.2889099 -5.6780138
-15.3651657 24.5885353 2.5405719
-13.835763 24.5836658 2.00529
-33.0996437 7.096791700000001 3.6917248
-2.471819399999999 9.441686600000001 -2.17377
-27.0177612 10.6735153 5.631208400000001
-23.6350212 13.141489 7.694909099999999
-15.9612083 14.0757313 13.0480185
-9.1428528 14.5009336 -12.9396696
-5.5188956 18.4451351 3.3981438
-8.294734 22.1287899 -6.0322652
-18.5851421 23.6817245 -6.115354499999999
-28.48064989999999 9.4667244 6.144356699999999
-2.817676099999999 13.4883194 -7.517077899999999
-21.9523067 11.3461037 9.414934200000001
-8.972935700000001 10.0572691 14.8728714
-17.9695091 17.8027515 -13.7032328
-24.8763428 19.3305798 -5.599587
-9.8963175 1.1127391 3.5927174
-28.6423759 3.0220137 7.3715343
-6.873307700000001 4.6587415 -4.8300786
-29.515873 5.270484 -0.7021930000000001
-32.3432503 6.3782258 1.0783302
-30.0255413 6.436266400000002 -0.3426005
-20.987627 5.8337326 7.8134456
-16.6628151 12.0820284 12.7537956
-17.3817081 14.3407249 12.6814861
-15.227952 17.3218002 -13.6937056
-13.2614002 17.3087254 -13.9972038
-17.068573 23.3305664 -8.553109200000002
-9.3786383 23.1951427 0.7770138
-17.2109184 23.7475243 -2.4217286
-12.5456114 24.192379 2.7192032
-24.0898857 1.8381004 3.2112727
-16.3616066 2.0794036 3.300936
-17.1404171 2.8117068 1.7953001
-25.0180244 18.7970333 -4.278828100000001
-14.8451128 19.8617516 12.6261587
-9.680781399999999 20.5055866 -10.8987951
-14.1486874 0.8990474000000001 5.8592052
-9.614200599999998 23.3347588 -0.1091462
-11.8291302 4.427532199999999 13.6878328
-22.7098999 11.7470465 8.658362399999998
-14.7335529 20.5665455 12.1326952
-8.928930299999999 22.0781727 4.662182299999999
-20.2939243 22.7126198 4.459024
-14.1165485 1.2630919 9.4320173
-24.4917545 2.2970879 1.3308355
-9.306552900000002 1.3884296 8.1691742
-23.973362 3.3698015 7.5019135
-22.6031437 3.4283144 1.0156649
-4.962111499999999 3.4252706 5.315474499999999
-18.52244379999999 12.2988338 -11.113883
-13.6326237 14.8545361 13.1619558
-25.0751972 14.52633 -3.293072
-22.1117039 21.6109085 3.2086744
-14.4069729 21.3091297 11.0747147
-24.3789997 19.7599945 -4.1520686
-8.063639600000002 2.9948745 11.636055
-32.59921260000001 7.801136 2.9899766
-11.3038616 9.255339600000001 -12.6062603
-6.021400499999999 9.7235823 12.9248199
-10.0092649 14.2019873 -12.985527
-2.9344749 13.3104458 2.08254
-22.2529736 18.40944289999999 7.974824
-8.298953999999998 19.6488628 8.2721319
-15.9687719 22.167551 -11.605381
-15.6572237 23.83395580000001 -6.4242949
-23.8737774 5.270846400000001 -1.1663883
-3.7316828 6.5886722 0.9996451000000001
-14.7858791 13.1111002 -13.1530066
-18.5732555 18.8041096 -13.828392
-12.987956 23.4469509 -7.4223685
-13.24832339999999 19.7539806 12.4672375
-10.2043352 8.866540900000002 -12.3840494
-20.7042084 2.647194900000001 4.9095263
-25.5563736 11.0529585 -1.1585293
-13.8523951 22.3772221 -9.959925699999999
-23.1088848 11.7464123 -7.993516899999999
-5.860036799999999 17.7528229 5.9277744
-25.112339 16.5214577 -2.1225874
-30.4343395 4.5653791 7.267775499999999
-3.4584298 7.397130999999999 -4.378797100000001
-18.7305584 11.3719912 11.5989647
-12.59091 0.6005222 5.3056388
-28.5686283 2.5269465 6.6916957
-11.358737 18.1356735 12.4926901
-17.6791248 2.1802719 4.491377400000001
-16.3141518 4.9029064 -7.469061900000001
-13.5640621 21.4402657 -11.3176651
-17.4294643 18.9651661 12.3801823
-4.7727838 5.667155299999998 10.1244459
-18.0522785 2.4014468 6.5374351
-14.5964499 3.6812677 -4.0205207
-3.9354322 17.8894176 -2.1081836
-26.4004517 2.4002228 0.5559662999999999
-15.0683584 1.8124424 10.1745377
-25.0377712 12.8507891 4.5156746
-13.5415363 23.8959026 -2.7654879
-7.317364199999999 21.2167683 2.696657399999999
-16.9858742 6.0004206 11.9436007
$EndNodes
$Elements
1 1500 1 1500
2 1 2 1500
1 170 5 171 
2 173 157 475 
3 158 157 604 
4 687 9 686 
5 748 10 184 
6 532 152 700 
7 477 23 710 
8 14 194 530 
9 194 474 530 
10 671 173 197 
11 701 475 174 
12 605 175 607 
13 16 176 608 
14 223 179 177 
15 686 18 687 
16 484 740 200 
17 611 203 28 
18 479 205 745 
19 673 216 545 
20 241 223 237 
21 228 611 615 
22 199 752 36 
23 227 239 225 
24 201 29 752 
25 232 542 39 
26 542 543 32 
27 544 40 538 
28 49 212 743 
29 36 65 44 
30 740 226 46 
31 232 245 542 
32 591 613 49 
33 256 542 245 
34 655 711 43 
35 250 655 590 
36 226 264 46 
37 624 242 616 
38 622 267 486 
39 250 59 257 
40 277 61 548 
41 271 57 66 
42 69 300 618 
43 56 618 70 
44 60 711 274 
45 258 260 276 
46 67 289 259 
47 279 53 281 
48 623 264 283 
49 297 69 269 
50 713 57 272 
51 626 317 273 
52 555 657 276 
53 291 730 309 
54 313 629 294 
55 69 297 298 
56 554 304 303 
57 289 552 554 
58 72 280 493 
59 694 666 310 
60 299 89 328 
61 317 626 633 
62 334 78 84 
63 81 85 79 
64 291 632 730 
65 87 557 324 
66 505 345 501 
67 321 83 634 
68 320 336 335 
69 325 658 503 
70 567 316 355 
71 511 722 342 
72 352 636 714 
73 345 372 96 
74 91 562 97 
75 350 351 101 
76 678 572 94 
77 98 361 344 
78 567 354 90 
79 596 509 571 
80 369 569 368 
81 595 511 369 
82 103 363 362 
83 642 382 508 
84 108 639 520 
85 383 669 596 
86 373 515 392 
87 107 386 384 
88 516 716 375 
89 377 643 100 
90 397 742 380 
91 116 110 111 
92 354 111 641 
93 405 108 646 
94 108 418 109 
95 385 387 393 
96 522 395 519 
97 723 115 597 
98 648 524 396 
99 104 598 105 
100 661 414 400 
101 669 118 646 
102 115 521 122 
103 115 122 648 
104 123 408 695 
105 407 130 409 
106 599 398 409 
107 725 525 423 
108 525 410 423 
109 645 690 411 
110 113 112 582 
111 118 125 579 
112 131 123 708 
113 125 433 132 
114 433 125 133 
115 127 419 435 
116 131 527 422 
117 729 440 741 
118 649 441 135 
119 446 432 697 
120 448 681 437 
121 681 463 139 
122 469 684 459 
123 9 146 686 
124 739 691 145 
125 2 698 748 
126 149 698 602 
127 148 736 146 
128 602 147 149 
129 1 736 148 
130 147 4 149 
131 529 670 148 
132 1 148 151 
133 1 151 150 
134 470 4 147 
135 670 533 151 
136 700 152 470 
137 474 5 471 
138 747 155 170 
139 5 153 471 
140 671 737 173 
141 737 6 173 
142 7 472 153 
143 173 6 157 
144 7 156 699 
145 7 685 472 
146 603 472 604 
147 475 157 158 
148 699 605 685 
149 476 727 159 
150 739 161 17 
151 181 20 744 
152 162 2 748 
153 163 162 748 
154 184 163 748 
155 164 11 165 
156 3 10 748 
157 164 165 146 
158 529 148 146 
159 186 166 165 
160 670 529 166 
161 4 473 149 
162 23 473 4 
163 473 23 477 
164 152 13 4 
165 167 12 670 
166 168 532 531 
167 533 12 189 
168 168 190 532 
169 737 14 530 
170 747 170 172 
171 156 747 172 
172 156 172 588 
173 197 173 475 
174 702 175 605 
175 175 27 177 
176 27 223 177 
177 160 727 476 
178 177 18 607 
179 18 476 607 
180 744 178 17 
181 9 687 609 
182 201 184 29 
183 28 11 609 
184 534 205 207 
185 185 10 3 
186 185 3 473 
187 207 22 534 
188 186 187 167 
189 710 209 477 
190 31 209 710 
191 533 703 190 
192 211 13 191 
193 192 190 703 
194 535 24 215 
195 5 474 535 
196 15 169 589 
197 172 15 589 
198 172 540 588 
199 588 34 156 
200 701 610 606 
201 702 156 34 
202 16 198 174 
203 610 174 35 
204 241 180 223 
205 179 223 180 
206 20 181 182 
207 537 199 36 
208 611 183 241 
209 611 228 203 
210 611 28 183 
211 204 200 740 
212 200 204 202 
213 200 202 225 
214 203 227 21 
215 207 205 479 
216 10 185 693 
217 206 208 207 
218 207 208 22 
219 693 185 231 
220 230 693 231 
221 209 185 477 
222 231 185 209 
223 208 672 22 
224 538 32 544 
225 538 210 32 
226 188 41 189 
227 42 213 703 
228 191 192 214 
229 191 214 212 
230 193 236 25 
231 234 215 24 
232 483 545 216 
233 589 673 221 
234 541 540 221 
235 720 34 588 
236 537 36 224 
237 225 239 45 
238 227 228 239 
239 752 29 242 
240 30 37 204 
241 37 30 38 
242 206 37 38 
243 38 232 206 
244 206 39 208 
245 209 613 244 
246 40 188 538 
247 188 40 41 
248 247 544 543 
249 42 189 41 
250 58 214 617 
251 42 41 233 
252 235 234 24 
253 217 219 549 
254 491 549 219 
255 491 219 220 
256 546 541 481 
257 720 546 34 
258 35 676 614 
259 224 36 44 
260 45 251 484 
261 231 254 230 
262 232 243 55 
263 544 247 248 
264 619 743 58 
265 249 233 488 
266 249 488 482 
267 43 711 235 
268 43 590 655 
269 549 51 218 
270 259 547 539 
271 620 481 547 
272 262 238 237 
273 45 64 251 
274 252 621 239 
275 52 252 240 
276 65 281 44 
277 226 251 265 
278 36 752 65 
279 486 47 46 
280 244 246 270 
281 618 48 269 
282 246 591 271 
283 56 626 256 
284 49 619 57 
285 247 273 734 
286 248 286 487 
287 487 593 721 
288 482 488 495 
289 58 482 492 
290 721 593 488 
291 257 711 655 
292 257 655 250 
293 489 50 711 
294 250 51 59 
295 548 61 485 
296 53 44 281 
297 251 64 263 
298 265 251 263 
299 266 752 242 
300 624 253 625 
301 267 712 550 
302 629 712 267 
303 268 295 253 
304 295 625 253 
305 726 550 712 
306 268 253 254 
307 269 550 726 
308 254 255 268 
309 626 56 70 
310 57 619 272 
311 482 495 492 
312 58 492 272 
313 285 734 273 
314 487 656 593 
315 593 496 551 
316 274 257 59 
317 60 274 304 
318 275 274 59 
319 67 490 288 
320 289 290 259 
321 276 61 555 
322 261 620 547 
323 556 277 279 
324 62 53 279 
325 493 280 64 
326 68 252 63 
327 280 291 64 
328 666 281 65 
329 293 282 631 
330 631 282 309 
331 269 296 297 
332 285 273 317 
333 288 60 304 
334 71 274 275 
335 288 489 60 
336 305 71 275 
337 664 305 275 
338 305 664 657 
339 556 555 277 
340 493 627 72 
341 278 307 73 
342 279 308 556 
343 279 628 308 
344 291 309 263 
345 281 666 694 
346 292 666 65 
347 735 266 284 
348 623 283 311 
349 677 284 312 
350 294 623 327 
351 625 295 312 
352 500 497 268 
353 301 300 298 
354 272 330 713 
355 287 499 75 
356 318 656 77 
357 551 496 553 
358 287 551 553 
359 78 303 304 
360 289 83 728 
361 79 306 657 
362 81 555 322 
363 291 323 632 
364 555 556 308 
365 280 323 291 
366 557 72 627 
367 309 730 82 
368 310 666 735 
369 292 735 666 
370 283 293 704 
371 326 735 284 
372 677 326 284 
373 297 296 560 
374 315 297 560 
375 299 328 667 
376 329 505 298 
377 505 501 301 
378 330 89 713 
379 316 330 630 
380 501 633 301 
381 301 633 70 
382 626 70 633 
383 333 77 332 
384 303 78 334 
385 289 554 83 
386 84 319 85 
387 319 79 85 
388 72 338 323 
389 86 80 321 
390 307 321 80 
391 321 728 83 
392 749 322 325 
393 730 632 337 
394 557 87 338 
395 87 324 339 
396 324 86 339 
397 325 628 658 
398 88 310 735 
399 88 735 326 
400 635 313 722 
401 560 498 504 
402 316 558 568 
403 317 331 76 
404 76 502 332 
405 332 502 333 
406 499 553 506 
407 334 320 335 
408 320 81 749 
409 339 706 87 
410 339 86 93 
411 337 82 730 
412 341 82 358 
413 358 82 92 
414 340 349 658 
415 351 310 88 
416 340 310 351 
417 704 293 341 
418 88 326 94 
419 677 678 326 
420 326 678 94 
421 722 327 342 
422 559 497 343 
423 500 314 360 
424 660 504 714 
425 315 560 660 
426 328 344 314 
427 329 95 566 
428 315 95 329 
429 96 633 345 
430 502 665 356 
431 561 565 715 
432 335 97 562 
433 335 336 97 
434 338 87 706 
435 503 594 563 
436 563 594 348 
437 341 358 510 
438 350 340 351 
439 343 659 559 
440 511 635 722 
441 507 635 570 
442 360 705 564 
443 636 352 507 
444 360 314 353 
445 314 344 353 
446 89 90 344 
447 355 568 364 
448 357 356 512 
449 333 357 346 
450 346 357 565 
451 509 596 367 
452 509 706 513 
453 93 91 513 
454 91 732 513 
455 366 358 92 
456 503 99 594 
457 349 516 99 
458 516 349 350 
459 101 351 514 
460 370 659 343 
461 360 353 575 
462 344 90 98 
463 90 641 98 
464 95 371 566 
465 364 506 382 
466 97 384 91 
467 348 594 374 
468 594 99 375 
469 358 376 510 
470 510 376 377 
471 358 639 376 
472 350 101 516 
473 595 369 679 
474 360 574 705 
475 738 574 575 
476 660 103 362 
477 371 576 372 
478 566 371 372 
479 106 357 512 
480 508 565 577 
481 596 571 383 
482 571 513 732 
483 384 374 114 
484 377 376 518 
485 377 518 388 
486 716 101 640 
487 368 100 378 
488 640 101 514 
489 368 378 668 
490 668 369 368 
491 574 573 370 
492 110 575 98 
493 98 641 111 
494 364 382 731 
495 102 391 638 
496 365 102 638 
497 512 401 106 
498 520 639 596 
499 669 520 596 
500 114 385 393 
501 374 385 114 
502 108 376 639 
503 376 108 109 
504 109 388 518 
505 521 643 388 
506 640 519 716 
507 716 519 394 
508 369 668 597 
509 104 103 517 
510 738 110 525 
511 98 111 110 
512 105 645 576 
513 645 390 576 
514 354 717 111 
515 731 717 354 
516 731 354 637 
517 523 102 390 
518 102 523 391 
519 746 112 113 
520 106 401 402 
521 642 577 746 
522 746 113 642 
523 688 709 669 
524 688 392 709 
525 384 114 107 
526 114 404 107 
527 418 108 405 
528 643 521 723 
529 115 396 597 
530 396 115 648 
531 408 395 742 
532 644 396 524 
533 725 689 578 
534 398 598 104 
535 110 116 525 
536 717 116 111 
537 411 390 645 
538 390 411 523 
539 731 661 400 
540 399 638 391 
541 401 117 402 
542 405 646 119 
543 669 646 520 
544 404 403 107 
545 393 416 404 
546 415 126 403 
547 416 393 387 
548 387 716 394 
549 121 128 120 
550 120 418 121 
551 395 406 519 
552 422 408 123 
553 407 409 398 
554 407 398 524 
555 116 410 525 
556 411 690 426 
557 425 116 717 
558 412 426 137 
559 412 413 399 
560 526 429 430 
561 430 117 526 
562 430 402 117 
563 112 402 430 
564 118 647 125 
565 119 646 579 
566 417 415 403 
567 403 404 417 
568 707 404 416 
569 125 647 133 
570 647 126 133 
571 127 432 707 
572 436 418 405 
573 581 419 127 
574 418 436 121 
575 129 128 121 
576 648 130 407 
577 131 708 439 
578 441 649 410 
579 425 136 441 
580 443 137 426 
581 696 136 124 
582 137 413 412 
583 428 413 662 
584 428 662 429 
585 650 430 429 
586 526 413 428 
587 428 429 526 
588 119 579 132 
589 432 417 707 
590 132 651 119 
591 133 583 452 
592 432 127 697 
593 434 452 583 
594 438 435 527 
595 435 419 527 
596 437 420 421 
597 437 421 448 
598 527 131 438 
599 123 131 422 
600 437 139 718 
601 718 741 130 
602 649 439 708 
603 741 440 424 
604 441 442 135 
605 443 424 440 
606 442 136 444 
607 427 650 460 
608 662 584 445 
609 460 650 445 
610 650 429 445 
611 431 447 134 
612 431 432 446 
613 433 452 451 
614 446 461 447 
615 528 435 438 
616 681 448 449 
617 528 453 138 
618 681 139 437 
619 454 438 131 
620 140 454 439 
621 140 439 135 
622 455 724 587 
623 455 456 652 
624 443 440 455 
625 662 443 652 
626 682 459 444 
627 427 460 682 
628 663 451 585 
629 463 681 585 
630 683 450 462 
631 462 450 461 
632 465 142 467 
633 463 587 724 
634 469 654 684 
635 143 455 587 
636 456 455 143 
637 459 682 469 
638 653 465 466 
639 151 168 531 
640 471 530 474 
641 603 154 471 
642 17 608 176 
643 160 476 18 
644 171 535 215 
645 197 606 478 
646 183 180 241 
647 484 200 225 
648 199 182 201 
649 37 612 204 
650 243 232 38 
651 673 545 675 
652 481 221 539 
653 226 484 251 
654 236 51 250 
655 252 239 240 
656 46 622 486 
657 488 233 721 
658 51 258 592 
659 262 620 261 
660 242 284 266 
661 267 622 294 
662 593 551 488 
663 59 592 275 
664 547 290 261 
665 277 555 61 
666 309 282 263 
667 312 624 625 
668 281 628 279 
669 305 306 319 
670 306 305 657 
671 504 74 352 
672 84 320 334 
673 632 347 337 
674 338 347 632 
675 634 86 321 
676 506 568 558 
677 91 634 562 
678 503 658 349 
679 665 365 512 
680 705 370 343 
681 639 366 367 
682 513 571 509 
683 594 385 374 
684 514 379 380 
685 576 390 372 
686 378 723 668 
687 113 381 642 
688 128 521 388 
689 412 523 411 
690 647 709 126 
691 582 112 430 
692 133 126 583 
693 394 419 581 
694 421 129 121 
695 751 582 427 
696 434 447 450 
697 449 585 681 
698 453 454 141 
699 456 600 584 
700 662 652 584 
701 467 144 457 
702 465 653 142 
703 150 736 1 
704 145 602 2 
705 602 698 2 
706 146 691 686 
707 148 670 151 
708 470 531 700 
709 471 154 530 
710 155 153 5 
711 154 6 737 
712 7 153 155 
713 153 603 471 
714 603 6 154 
715 604 6 603 
716 699 685 7 
717 607 8 685 
718 159 158 604 
719 476 159 607 
720 165 166 529 
721 3 149 473 
722 670 166 167 
723 670 12 533 
724 170 169 15 
725 169 170 171 
726 196 671 197 
727 197 475 701 
728 27 175 702 
729 16 475 176 
730 177 607 175 
731 179 18 177 
732 179 180 687 
733 180 183 687 
734 163 201 182 
735 28 609 183 
736 185 473 477 
737 538 167 187 
738 211 710 23 
739 188 189 12 
740 24 535 536 
741 535 474 536 
742 474 194 536 
743 536 194 25 
744 169 171 215 
745 215 216 169 
746 194 14 193 
747 14 733 193 
748 169 216 589 
749 702 34 27 
750 174 198 35 
751 608 198 16 
752 199 537 182 
753 202 227 225 
754 202 745 227 
755 612 202 204 
756 206 612 37 
757 22 672 210 
758 212 211 191 
759 192 213 214 
760 480 25 590 
761 589 216 673 
762 539 221 673 
763 541 221 481 
764 720 588 540 
765 19 224 198 
766 224 676 198 
767 676 35 198 
768 484 225 45 
769 228 227 203 
770 199 201 752 
771 30 204 740 
772 232 39 206 
773 721 41 40 
774 58 743 214 
775 212 214 743 
776 674 483 234 
777 674 545 483 
778 33 485 491 
779 26 485 33 
780 222 485 26 
781 35 614 222 
782 47 54 30 
783 30 54 38 
784 232 48 245 
785 246 244 613 
786 56 256 245 
787 487 40 248 
788 721 40 487 
789 236 250 590 
790 51 236 218 
791 546 620 262 
792 546 481 620 
793 621 45 239 
794 226 265 264 
795 486 267 54 
796 550 54 267 
797 243 550 55 
798 270 255 254 
799 247 734 248 
800 617 482 58 
801 592 59 51 
802 258 549 260 
803 290 547 259 
804 485 61 260 
805 752 266 292 
806 616 253 624 
807 656 302 593 
808 593 302 496 
809 711 257 274 
810 258 664 592 
811 664 258 276 
812 260 61 276 
813 63 261 278 
814 62 279 277 
815 621 252 68 
816 264 282 283 
817 494 66 299 
818 495 287 75 
819 495 75 492 
820 285 77 286 
821 552 289 67 
822 664 276 657 
823 278 261 307 
824 283 282 293 
825 712 629 74 
826 268 497 295 
827 296 498 560 
828 268 667 500 
829 300 69 298 
830 70 300 301 
831 299 713 89 
832 285 317 76 
833 285 76 77 
834 318 302 656 
835 302 561 496 
836 287 553 499 
837 304 71 78 
838 554 288 304 
839 554 552 288 
840 79 555 81 
841 557 627 324 
842 631 309 82 
843 283 704 311 
844 498 74 504 
845 500 667 314 
846 499 558 75 
847 496 561 553 
848 554 303 83 
849 306 79 319 
850 728 321 307 
851 81 322 749 
852 338 72 557 
853 73 80 324 
854 559 312 497 
855 313 635 507 
856 564 343 497 
857 352 313 507 
858 714 504 352 
859 500 360 564 
860 568 355 316 
861 345 633 501 
862 558 499 506 
863 85 320 84 
864 325 563 749 
865 344 328 89 
866 566 505 329 
867 715 506 553 
868 336 749 348 
869 749 563 348 
870 359 341 510 
871 351 88 514 
872 677 659 678 
873 659 572 678 
874 635 511 570 
875 354 567 637 
876 566 345 505 
877 637 567 355 
878 568 506 364 
879 665 512 356 
880 366 337 347 
881 367 366 347 
882 706 93 513 
883 348 97 336 
884 569 342 359 
885 570 511 595 
886 507 570 636 
887 95 362 363 
888 371 95 363 
889 372 345 566 
890 97 374 384 
891 359 510 100 
892 511 569 369 
893 659 370 573 
894 705 574 370 
895 636 570 680 
896 382 506 508 
897 596 639 367 
898 91 384 515 
899 594 375 385 
900 388 643 377 
901 716 516 101 
902 640 514 380 
903 379 572 380 
904 659 573 572 
905 573 397 572 
906 595 679 680 
907 517 636 680 
908 103 636 517 
909 738 578 574 
910 390 102 372 
911 381 661 382 
912 512 638 401 
913 571 373 688 
914 518 376 109 
915 375 716 387 
916 378 100 643 
917 378 643 723 
918 380 522 640 
919 578 397 573 
920 574 578 573 
921 110 738 575 
922 104 105 363 
923 386 403 392 
924 114 393 404 
925 109 120 388 
926 408 742 397 
927 689 408 397 
928 105 598 645 
929 381 414 661 
930 638 117 401 
931 118 579 646 
932 118 709 647 
933 581 387 394 
934 418 120 109 
935 422 395 408 
936 524 648 407 
937 599 409 741 
938 598 599 690 
939 425 717 136 
940 414 113 582 
941 417 404 707 
942 583 126 415 
943 707 416 127 
944 122 129 420 
945 419 422 527 
946 422 419 406 
947 708 123 695 
948 410 649 423 
949 424 426 690 
950 751 696 124 
951 413 137 662 
952 582 430 650 
953 431 417 432 
954 651 405 119 
955 134 434 580 
956 450 452 434 
957 121 436 421 
958 448 421 436 
959 439 454 131 
960 662 137 443 
961 662 445 429 
962 449 651 132 
963 436 651 448 
964 697 528 138 
965 683 451 452 
966 450 683 452 
967 454 528 438 
968 139 463 724 
969 729 139 724 
970 440 724 455 
971 458 135 442 
972 652 456 584 
973 442 444 459 
974 442 459 458 
975 460 445 600 
976 692 460 600 
977 682 460 692 
978 461 138 466 
979 585 451 586 
980 586 451 683 
981 466 453 653 
982 463 585 719 
983 719 585 586 
984 586 462 464 
985 463 719 587 
986 719 586 143 
987 143 586 750 
988 464 465 467 
989 653 141 654 
990 719 143 587 
991 142 653 654 
992 143 750 457 
993 144 142 469 
994 469 142 654 
995 457 144 692 
996 684 458 459 
997 533 168 151 
998 170 155 5 
999 609 164 9 
1000 178 744 20 
1001 22 187 186 
1002 590 43 480 
1003 546 720 541 
1004 231 244 270 
1005 743 619 49 
1006 726 712 296 
1007 726 296 269 
1008 281 694 628 
1009 77 333 318 
1010 331 317 633 
1011 346 318 333 
1012 337 92 82 
1013 392 515 386 
1014 597 668 723 
1015 523 412 391 
1016 117 399 413 
1017 126 709 392 
1018 124 136 717 
1019 718 130 420 
1020 427 696 751 
1021 133 452 433 
1022 461 450 447 
1023 684 140 458 
1024 462 461 601 
1025 150 147 602 
1026 150 470 147 
1027 604 157 6 
1028 176 158 727 
1029 2 744 161 
1030 181 162 163 
1031 605 699 702 
1032 158 176 475 
1033 182 181 163 
1034 609 687 183 
1035 167 538 188 
1036 188 12 167 
1037 480 536 25 
1038 610 26 606 
1039 206 207 479 
1040 31 613 209 
1041 480 24 536 
1042 540 589 221 
1043 33 478 26 
1044 222 26 610 
1045 237 223 27 
1046 237 27 34 
1047 537 224 19 
1048 229 693 230 
1049 672 39 542 
1050 544 32 543 
1051 617 249 482 
1052 615 241 238 
1053 47 486 54 
1054 616 229 253 
1055 232 55 48 
1056 231 270 254 
1057 50 674 235 
1058 711 50 235 
1059 675 50 490 
1060 489 490 50 
1061 262 52 238 
1062 246 271 270 
1063 618 56 245 
1064 548 62 277 
1065 493 45 621 
1066 252 52 63 
1067 58 272 619 
1068 275 592 664 
1069 63 278 68 
1070 291 263 64 
1071 656 286 77 
1072 307 261 728 
1073 78 71 319 
1074 555 79 657 
1075 322 308 325 
1076 352 74 313 
1077 667 328 314 
1078 83 303 334 
1079 338 632 323 
1080 72 323 280 
1081 694 310 340 
1082 660 560 504 
1083 297 315 329 
1084 562 634 334 
1085 563 325 503 
1086 665 331 96 
1087 502 356 333 
1088 715 565 508 
1089 367 347 509 
1090 99 503 349 
1091 95 315 660 
1092 355 364 637 
1093 357 333 356 
1094 574 360 575 
1095 94 572 379 
1096 371 363 576 
1097 365 638 512 
1098 577 642 508 
1099 642 381 382 
1100 571 688 383 
1101 106 402 746 
1102 731 400 717 
1103 113 414 381 
1104 117 638 399 
1105 669 709 118 
1106 581 416 387 
1107 411 426 412 
1108 406 419 394 
1109 649 708 423 
1110 425 441 410 
1111 442 441 136 
1112 427 582 650 
1113 414 582 751 
1114 751 124 414 
1115 651 436 405 
1116 127 435 697 
1117 444 136 696 
1118 528 697 435 
1119 601 461 466 
1120 464 462 465 
1121 466 465 601 
1122 468 654 141 
1123 4 470 152 
1124 472 685 8 
1125 472 8 604 
1126 698 149 3 
1127 11 534 165 
1128 194 193 25 
1129 51 549 258 
1130 222 614 548 
1131 54 550 243 
1132 618 269 69 
1133 622 623 294 
1134 263 282 265 
1135 558 316 75 
1136 76 332 77 
1137 553 561 715 
1138 331 502 76 
1139 346 565 561 
1140 93 706 339 
1141 362 95 660 
1142 357 577 565 
1143 714 636 103 
1144 361 98 575 
1145 383 688 669 
1146 389 524 398 
1147 578 738 725 
1148 449 663 585 
1149 736 602 145 
1150 151 531 150 
1151 685 605 607 
1152 8 159 604 
1153 158 159 727 
1154 535 171 5 
1155 178 20 19 
1156 184 201 163 
1157 29 184 693 
1158 205 534 11 
1159 537 19 20 
1160 612 745 202 
1161 745 612 479 
1162 672 32 210 
1163 31 211 212 
1164 42 703 189 
1165 25 236 590 
1166 236 733 218 
1167 610 35 222 
1168 241 615 611 
1169 613 212 49 
1170 248 40 544 
1171 213 249 617 
1172 43 24 480 
1173 217 549 218 
1174 52 615 238 
1175 228 240 239 
1176 52 240 615 
1177 256 247 543 
1178 675 545 50 
1179 259 675 490 
1180 60 489 711 
1181 624 284 242 
1182 629 267 294 
1183 255 270 494 
1184 630 272 492 
1185 304 274 71 
1186 728 261 290 
1187 68 324 627 
1188 630 330 272 
1189 71 305 319 
1190 307 80 73 
1191 311 704 327 
1192 629 313 74 
1193 722 313 327 
1194 74 498 712 
1195 500 564 497 
1196 694 340 658 
1197 704 342 327 
1198 634 83 334 
1199 94 514 88 
1200 331 665 502 
1201 366 92 337 
1202 374 97 348 
1203 365 372 102 
1204 732 373 571 
1205 363 103 104 
1206 104 389 398 
1207 731 382 661 
1208 386 107 403 
1209 644 524 389 
1210 578 689 397 
1211 738 525 725 
1212 746 402 112 
1213 126 392 403 
1214 648 122 420 
1215 421 420 129 
1216 420 130 648 
1217 427 444 696 
1218 663 132 433 
1219 651 449 448 
1220 663 449 132 
1221 586 683 462 
1222 462 601 465 
1223 684 654 468 
1224 692 144 469 
1225 692 469 682 
1226 692 600 457 
1227 160 686 739 
1228 701 174 610 
1229 247 256 273 
1230 273 256 626 
1231 68 278 73 
1232 559 677 312 
1233 470 150 531 
1234 160 18 686 
1235 165 529 146 
1236 13 211 23 
1237 612 206 479 
1238 215 483 216 
1239 542 256 543 
1240 214 213 617 
1241 673 675 539 
1242 47 740 46 
1243 613 591 246 
1244 48 618 245 
1245 65 752 292 
1246 487 286 656 
1247 735 292 266 
1248 322 555 308 
1249 505 301 298 
1250 85 81 320 
1251 631 82 341 
1252 359 704 341 
1253 680 570 595 
1254 597 644 679 
1255 680 679 644 
1256 406 395 422 
1257 443 426 424 
1258 162 181 744 
1259 674 234 235 
1260 68 73 324 
1261 80 86 324 
1262 89 330 90 
1263 153 472 603 
1264 699 156 702 
1265 16 174 475 
1266 17 178 608 
1267 21 205 11 
1268 589 540 172 
1269 745 21 227 
1270 229 242 29 
1271 62 548 614 
1272 57 713 66 
1273 495 488 551 
1274 498 296 712 
1275 628 694 658 
1276 294 327 313 
1277 340 350 349 
1278 572 397 380 
1279 387 385 375 
1280 597 679 369 
1281 680 644 389 
1282 598 398 599 
1283 391 412 399 
1284 139 729 718 
1285 443 455 652 
1286 451 663 433 
1287 140 684 468 
1288 457 456 143 
1289 386 515 384 
1290 454 468 141 
1291 11 164 609 
1292 31 212 613 
1293 494 299 667 
1294 495 551 287 
1295 331 633 96 
1296 359 100 368 
1297 689 725 695 
1298 409 130 741 
1299 607 159 8 
1300 9 164 146 
1301 515 373 732 
1302 229 616 242 
1303 675 259 539 
1304 262 261 63 
1305 493 621 627 
1306 318 346 561 
1307 93 86 634 
1308 353 361 575 
1309 122 521 128 
1310 338 706 509 
1311 96 365 665 
1312 425 410 116 
1313 17 161 744 
1314 739 686 691 
1315 532 700 531 
1316 197 701 606 
1317 19 198 608 
1318 211 31 710 
1319 44 676 224 
1320 53 614 676 
1321 67 259 490 
1322 630 75 316 
1323 78 319 84 
1324 293 631 341 
1325 342 704 359 
1326 506 715 508 
1327 344 361 353 
1328 106 577 357 
1329 105 576 363 
1330 597 396 644 
1331 423 695 725 
1332 580 417 134 
1333 446 697 138 
1334 52 262 63 
1335 145 2 161 
1336 691 736 145 
1337 170 15 172 
1338 30 740 47 
1339 42 249 213 
1340 43 235 24 
1341 491 220 33 
1342 240 228 615 
1343 327 623 311 
1344 302 318 561 
1345 559 659 677 
1346 564 705 343 
1347 342 569 511 
1348 660 714 103 
1349 364 731 637 
1350 688 373 392 
1351 416 581 127 
1352 466 138 453 
1353 552 67 288 
1354 600 445 584 
1355 736 150 602 
1356 28 203 21 
1357 693 229 29 
1358 44 53 676 
1359 93 634 91 
1360 3 748 698 
1361 222 548 485 
1362 11 28 21 
1363 115 723 521 
1364 649 135 439 
1365 140 468 454 
1366 191 190 192 
1367 689 695 408 
1368 453 141 653 
1369 210 538 187 
1370 264 265 282 
1371 17 727 160 
1372 187 22 210 
1373 478 606 26 
1374 497 312 295 
1375 457 600 456 
1376 162 744 2 
1377 19 608 178 
1378 534 22 186 
1379 533 189 703 
1380 365 96 372 
1381 599 424 690 
1382 739 145 161 
1383 733 217 218 
1384 478 220 196 
1385 720 540 541 
1386 237 34 546 
1387 623 622 46 
1388 621 68 627 
1389 66 713 299 
1390 94 379 514 
1391 583 580 434 
1392 196 195 671 
1393 413 526 117 
1394 750 464 467 
1395 17 160 739 
1396 549 491 260 
1397 424 599 741 
1398 13 190 191 
1399 740 484 226 
1400 718 420 437 
1401 492 75 630 
1402 727 17 176 
1403 734 285 286 
1404 335 562 334 
1405 312 284 624 
1406 336 320 749 
1407 354 641 90 
1408 394 519 406 
1409 532 13 152 
1410 4 13 23 
1411 55 550 269 
1412 366 639 358 
1413 446 138 461 
1414 736 691 146 
1415 733 236 193 
1416 567 330 316 
1417 347 338 509 
1418 414 124 400 
1419 729 741 718 
1420 440 729 724 
1421 728 290 289 
1422 217 733 195 
1423 286 248 734 
1424 732 91 515 
1425 400 124 717 
1426 516 375 99 
1427 271 66 494 
1428 154 737 530 
1429 57 271 591 
1430 586 464 750 
1431 467 142 144 
1432 453 528 454 
1433 483 215 234 
1434 18 179 687 
1435 168 533 190 
1436 20 182 537 
1437 231 209 244 
1438 377 100 510 
1439 125 132 579 
1440 583 415 580 
1441 57 591 49 
1442 489 288 490 
1443 268 494 667 
1444 220 478 33 
1445 42 233 249 
1446 134 417 431 
1447 671 14 737 
1448 494 270 271 
1449 395 522 742 
1450 128 388 120 
1451 45 493 64 
1452 241 237 238 
1453 532 190 13 
1454 262 237 546 
1455 264 623 46 
1456 458 140 135 
1457 186 165 534 
1458 196 197 478 
1459 268 255 494 
1460 742 522 380 
1461 693 184 10 
1462 447 431 446 
1463 186 167 166 
1464 195 733 14 
1465 219 217 196 
1466 220 219 196 
1467 243 38 54 
1468 195 196 217 
1469 745 205 21 
1470 233 41 721 
1471 229 230 253 
1472 230 254 253 
1473 517 680 389 
1474 297 329 298 
1475 330 567 90 
1476 55 269 48 
1477 682 444 427 
1478 50 545 674 
1479 122 128 129 
1480 671 195 14 
1481 423 708 695 
1482 598 690 645 
1483 53 62 614 
1484 672 208 39 
1485 155 747 7 
1486 703 213 192 
1487 646 108 520 
1488 547 481 539 
1489 106 746 577 
1490 750 467 457 
1491 417 580 415 
1492 747 156 7 
1493 368 569 359 
1494 519 640 522 
1495 672 542 32 
1496 434 134 447 
1497 300 70 618 
1498 485 260 491 
1499 517 389 104 
1500 325 308 628 
$EndElements
