$MeshFormat
4.1 0 8
$EndMeshFormat
$Entities
0 0 0 1
1 0.2 0.25 0.3 0.8 0.75 0.7 0 1 1
$EndEntities
$Nodes
1 263 1 263
3 1 0 263
1
2
3
4
5
6
7
8
9
10
11
12
13
14
15
16
17
18
19
20
21
22
23
24
25
26
27
28
29
30
31
32
33
34
35
36
37
38
39
40
41
42
43
44
45
46
47
48
49
50
51
52
53
54
55
56
57
58
59
60
61
62
63
64
65
66
67
68
69
70
71
72
73
74
75
76
77
78
79
80
81
82
83
84
85
86
87
88
89
90
91
92
93
94
95
96
97
98
99
100
101
102
103
104
105
106
107
108
109
110
111
112
113
114
115
116
117
118
119
120
121
122
123
124
125
126
127
128
129
130
131
132
133
134
135
136
137
138
139
140
141
142
143
144
145
146
147
148
149
150
151
152
153
154
155
156
157
158
159
160
161
162
163
164
165
166
167
168
169
170
171
172
173
174
175
176
177
178
179
180
181
182
183
184
185
186
187
188
189
190
191
192
193
194
195
196
197
198
199
200
201
202
203
204
205
206
207
208
209
210
211
212
213
214
215
216
217
218
219
220
221
222
223
224
225
226
227
228
229
230
231
232
233
234
235
236
237
238
239
240
241
242
243
244
245
246
247
248
249
250
251
252
253
254
255
256
257
258
259
260
261
262
263
0.5000000000000000 0.5000000000000000 0.5000000000000000
0.5000000000000000 0.5000000000000000 0.7000000000000000
0.5927050983124842 0.5000000000000000 0.6902113032590307
0.5881677878438709 0.5238728757031316 0.6902113032590307
0.5750000000000000 0.5454089080003350 0.6902113032590307
0.5544906896004020 0.5625000000000000 0.6902113032590307
0.5286474508437579 0.5734731565365592 0.6902113032590307
0.5000000000000000 0.5772542485937369 0.6902113032590307
0.4713525491562421 0.5734731565365592 0.6902113032590307
0.4455093103995980 0.5625000000000000 0.6902113032590307
0.4250000000000000 0.5454089080003350 0.6902113032590307
0.4118322121561290 0.5238728757031316 0.6902113032590307
0.4072949016875158 0.5000000000000000 0.6902113032590307
0.4118322121561290 0.4761271242968685 0.6902113032590307
0.4250000000000000 0.4545910919996650 0.6902113032590307
0.4455093103995980 0.4375000000000000 0.6902113032590307
0.4713525491562421 0.4265268434634409 0.6902113032590307
0.5000000000000000 0.4227457514062631 0.6902113032590307
0.5286474508437579 0.4265268434634408 0.6902113032590307
0.5544906896004020 0.4375000000000000 0.6902113032590307
0.5750000000000000 0.4545910919996649 0.6902113032590307
0.5881677878438709 0.4761271242968684 0.6902113032590307
0.6763355756877419 0.5000000000000000 0.6618033988749895
0.6677050983124843 0.5454089080003350 0.6618033988749895
0.6426584774442731 0.5863728757031316 0.6618033988749895
0.6036474508437579 0.6188820645368942 0.6618033988749895
0.5544906896004020 0.6397542485937369 0.6618033988749895
0.5000000000000000 0.6469463130731183 0.6618033988749895
0.4455093103995980 0.6397542485937369 0.6618033988749895
0.3963525491562421 0.6188820645368942 0.6618033988749895
0.3573415225557270 0.5863728757031316 0.6618033988749895
0.3322949016875157 0.5454089080003350 0.6618033988749895
0.3236644243122581 0.5000000000000000 0.6618033988749895
0.3322949016875157 0.4545910919996650 0.6618033988749895
0.3573415225557269 0.4136271242968684 0.6618033988749895
0.3963525491562421 0.3811179354631058 0.6618033988749895
0.4455093103995979 0.3602457514062631 0.6618033988749895
0.4999999999999999 0.3530536869268817 0.6618033988749895
0.5544906896004020 0.3602457514062631 0.6618033988749895
0.6036474508437578 0.3811179354631058 0.6618033988749895
0.6426584774442730 0.4136271242968684 0.6618033988749895
0.6677050983124843 0.4545910919996649 0.6618033988749895
0.7427050983124842 0.5000000000000000 0.6175570504584946
0.7308262652881440 0.5625000000000000 0.6175570504584946
0.6963525491562421 0.6188820645368942 0.6175570504584946
0.6426584774442731 0.6636271242968684 0.6175570504584946
0.5750000000000000 0.6923552210734534 0.6175570504584946
0.5000000000000000 0.7022542485937369 0.6175570504584946
0.4250000000000000 0.6923552210734534 0.6175570504584946
0.3573415225557270 0.6636271242968684 0.6175570504584946
0.3036474508437579 0.6188820645368942 0.6175570504584946
0.2691737347118560 0.5625000000000000 0.6175570504584946
0.2572949016875158 0.5000000000000000 0.6175570504584946
0.2691737347118560 0.4375000000000001 0.6175570504584946
0.3036474508437579 0.3811179354631058 0.6175570504584946
0.3573415225557269 0.3363728757031316 0.6175570504584946
0.4250000000000000 0.3076447789265466 0.6175570504584946
0.4999999999999999 0.2977457514062631 0.6175570504584946
0.5750000000000000 0.3076447789265466 0.6175570504584946
0.6426584774442730 0.3363728757031316 0.6175570504584946
0.6963525491562421 0.3811179354631057 0.6175570504584946
0.7308262652881440 0.4374999999999999 0.6175570504584946
0.7853169548885460 0.5000000000000000 0.5618033988749895
0.7713525491562421 0.5734731565365592 0.5618033988749895
0.7308262652881440 0.6397542485937369 0.5618033988749895
0.6677050983124841 0.6923552210734534 0.5618033988749895
0.5881677878438709 0.7261271242968684 0.5618033988749895
0.5000000000000000 0.7377641290737884 0.5618033988749895
0.4118322121561291 0.7261271242968684 0.5618033988749895
0.3322949016875159 0.6923552210734534 0.5618033988749895
0.2691737347118560 0.6397542485937369 0.5618033988749895
0.2286474508437579 0.5734731565365592 0.5618033988749895
0.2146830451114540 0.5000000000000000 0.5618033988749895
0.2286474508437579 0.4265268434634410 0.5618033988749895
0.2691737347118560 0.3602457514062631 0.5618033988749895
0.3322949016875157 0.3076447789265467 0.5618033988749895
0.4118322121561290 0.2738728757031316 0.5618033988749895
0.4999999999999999 0.2622358709262116 0.5618033988749895
0.5881677878438709 0.2738728757031316 0.5618033988749895
0.6677050983124841 0.3076447789265466 0.5618033988749895
0.7308262652881440 0.3602457514062631 0.5618033988749895
0.7713525491562421 0.4265268434634408 0.5618033988749895
0.8000000000000000 0.5000000000000000 0.5000000000000000
0.7853169548885460 0.5772542485937369 0.5000000000000000
0.7427050983124842 0.6469463130731183 0.5000000000000000
0.6763355756877419 0.7022542485937369 0.5000000000000000
0.5927050983124842 0.7377641290737884 0.5000000000000000
0.5000000000000000 0.7500000000000000 0.5000000000000000
0.4072949016875158 0.7377641290737884 0.5000000000000000
0.3236644243122581 0.7022542485937369 0.5000000000000000
0.2572949016875158 0.6469463130731183 0.5000000000000000
0.2146830451114540 0.5772542485937369 0.5000000000000000
0.2000000000000000 0.5000000000000000 0.5000000000000000
0.2146830451114539 0.4227457514062632 0.5000000000000000
0.2572949016875158 0.3530536869268818 0.5000000000000000
0.3236644243122581 0.2977457514062631 0.5000000000000000
0.4072949016875158 0.2622358709262116 0.5000000000000000
0.4999999999999999 0.2500000000000000 0.5000000000000000
0.5927050983124842 0.2622358709262116 0.5000000000000000
0.6763355756877418 0.2977457514062631 0.5000000000000000
0.7427050983124842 0.3530536869268817 0.5000000000000000
0.7853169548885460 0.4227457514062631 0.5000000000000000
0.7853169548885461 0.5000000000000000 0.4381966011250105
0.7713525491562421 0.5734731565365592 0.4381966011250105
0.7308262652881440 0.6397542485937369 0.4381966011250105
0.6677050983124843 0.6923552210734534 0.4381966011250105
0.5881677878438710 0.7261271242968684 0.4381966011250105
0.5000000000000000 0.7377641290737884 0.4381966011250105
0.4118322121561291 0.7261271242968684 0.4381966011250105
0.3322949016875158 0.6923552210734534 0.4381966011250105
0.2691737347118560 0.6397542485937369 0.4381966011250105
0.2286474508437579 0.5734731565365592 0.4381966011250105
0.2146830451114539 0.5000000000000000 0.4381966011250105
0.2286474508437578 0.4265268434634410 0.4381966011250105
0.2691737347118560 0.3602457514062631 0.4381966011250105
0.3322949016875157 0.3076447789265467 0.4381966011250105
0.4118322121561290 0.2738728757031316 0.4381966011250105
0.4999999999999999 0.2622358709262116 0.4381966011250105
0.5881677878438709 0.2738728757031316 0.4381966011250105
0.6677050983124841 0.3076447789265466 0.4381966011250105
0.7308262652881440 0.3602457514062631 0.4381966011250105
0.7713525491562421 0.4265268434634408 0.4381966011250105
0.7427050983124842 0.5000000000000000 0.3824429495415054
0.7308262652881440 0.5625000000000000 0.3824429495415054
0.6963525491562421 0.6188820645368942 0.3824429495415054
0.6426584774442731 0.6636271242968684 0.3824429495415054
0.5750000000000000 0.6923552210734534 0.3824429495415054
0.5000000000000000 0.7022542485937369 0.3824429495415054
0.4250000000000000 0.6923552210734534 0.3824429495415054
0.3573415225557270 0.6636271242968684 0.3824429495415054
0.3036474508437579 0.6188820645368942 0.3824429495415054
0.2691737347118560 0.5625000000000000 0.3824429495415054
0.2572949016875158 0.5000000000000000 0.3824429495415054
0.2691737347118560 0.4375000000000001 0.3824429495415054
0.3036474508437579 0.3811179354631058 0.3824429495415054
0.3573415225557269 0.3363728757031316 0.3824429495415054
0.4250000000000000 0.3076447789265466 0.3824429495415054
0.4999999999999999 0.2977457514062631 0.3824429495415054
0.5750000000000000 0.3076447789265466 0.3824429495415054
0.6426584774442730 0.3363728757031316 0.3824429495415054
0.6963525491562421 0.3811179354631057 0.3824429495415054
0.7308262652881440 0.4374999999999999 0.3824429495415054
0.6763355756877419 0.5000000000000000 0.3381966011250105
0.6677050983124843 0.5454089080003350 0.3381966011250105
0.6426584774442731 0.5863728757031316 0.3381966011250105
0.6036474508437579 0.6188820645368942 0.3381966011250105
0.5544906896004020 0.6397542485937369 0.3381966011250105
0.5000000000000000 0.6469463130731183 0.3381966011250105
0.4455093103995980 0.6397542485937369 0.3381966011250105
0.3963525491562421 0.6188820645368942 0.3381966011250105
0.3573415225557269 0.5863728757031316 0.3381966011250105
0.3322949016875157 0.5454089080003350 0.3381966011250105
0.3236644243122581 0.5000000000000000 0.3381966011250105
0.3322949016875157 0.4545910919996650 0.3381966011250105
0.3573415225557269 0.4136271242968684 0.3381966011250105
0.3963525491562421 0.3811179354631058 0.3381966011250105
0.4455093103995979 0.3602457514062631 0.3381966011250105
0.4999999999999999 0.3530536869268817 0.3381966011250105
0.5544906896004020 0.3602457514062631 0.3381966011250105
0.6036474508437579 0.3811179354631057 0.3381966011250105
0.6426584774442731 0.4136271242968684 0.3381966011250105
0.6677050983124843 0.4545910919996649 0.3381966011250105
0.5927050983124842 0.5000000000000000 0.3097886967409693
0.5881677878438710 0.5238728757031316 0.3097886967409693
0.5750000000000001 0.5454089080003350 0.3097886967409693
0.5544906896004020 0.5625000000000000 0.3097886967409693
0.5286474508437579 0.5734731565365592 0.3097886967409693
0.5000000000000000 0.5772542485937369 0.3097886967409693
0.4713525491562421 0.5734731565365592 0.3097886967409693
0.4455093103995980 0.5625000000000000 0.3097886967409693
0.4250000000000000 0.5454089080003350 0.3097886967409693
0.4118322121561290 0.5238728757031316 0.3097886967409693
0.4072949016875158 0.5000000000000000 0.3097886967409693
0.4118322121561290 0.4761271242968685 0.3097886967409693
0.4250000000000000 0.4545910919996650 0.3097886967409693
0.4455093103995979 0.4375000000000000 0.3097886967409693
0.4713525491562421 0.4265268434634408 0.3097886967409693
0.5000000000000000 0.4227457514062631 0.3097886967409693
0.5286474508437579 0.4265268434634408 0.3097886967409693
0.5544906896004020 0.4375000000000000 0.3097886967409693
0.5750000000000000 0.4545910919996649 0.3097886967409693
0.5881677878438710 0.4761271242968684 0.3097886967409693
0.5000000000000000 0.5000000000000000 0.3000000000000000
0.5587785252292473 0.5000000000000000 0.5539344662916632
0.5475528258147577 0.5287909585677105 0.5539344662916632
0.5181635632001340 0.5465847495312456 0.5539344662916632
0.4818364367998660 0.5465847495312456 0.5539344662916632
0.4524471741852423 0.5287909585677105 0.5539344662916632
0.4412214747707527 0.5000000000000000 0.5539344662916632
0.4524471741852423 0.4712090414322895 0.5539344662916632
0.4818364367998660 0.4534152504687544 0.5539344662916632
0.5181635632001340 0.4534152504687544 0.5539344662916632
0.5475528258147577 0.4712090414322895 0.5539344662916632
0.5951056516295153 0.5000000000000000 0.5206011329583299
0.5769420884293813 0.5465847495312456 0.5206011329583299
0.5293892626146236 0.5753757080989561 0.5206011329583299
0.4706107373853763 0.5753757080989561 0.5206011329583299
0.4230579115706187 0.5465847495312456 0.5206011329583299
0.4048943483704847 0.5000000000000000 0.5206011329583299
0.4230579115706187 0.4534152504687544 0.5206011329583299
0.4706107373853763 0.4246242919010439 0.5206011329583299
0.5293892626146236 0.4246242919010439 0.5206011329583299
0.5769420884293813 0.4534152504687544 0.5206011329583299
0.5951056516295153 0.5000000000000000 0.4793988670416702
0.5769420884293813 0.5465847495312456 0.4793988670416702
0.5293892626146237 0.5753757080989561 0.4793988670416702
0.4706107373853763 0.5753757080989561 0.4793988670416702
0.4230579115706187 0.5465847495312456 0.4793988670416702
0.4048943483704847 0.5000000000000000 0.4793988670416702
0.4230579115706187 0.4534152504687544 0.4793988670416702
0.4706107373853763 0.4246242919010438 0.4793988670416702
0.5293892626146236 0.4246242919010438 0.4793988670416702
0.5769420884293813 0.4534152504687544 0.4793988670416702
0.5587785252292473 0.5000000000000000 0.4460655337083368
0.5475528258147577 0.5287909585677105 0.4460655337083368
0.5181635632001340 0.5465847495312456 0.4460655337083368
0.4818364367998660 0.5465847495312456 0.4460655337083368
0.4524471741852423 0.5287909585677105 0.4460655337083368
0.4412214747707527 0.5000000000000000 0.4460655337083368
0.4524471741852423 0.4712090414322895 0.4460655337083368
0.4818364367998660 0.4534152504687544 0.4460655337083368
0.5181635632001340 0.4534152504687544 0.4460655337083368
0.5475528258147577 0.4712090414322895 0.4460655337083368
0.6175570504584946 0.5000000000000000 0.6078689325833263
0.5951056516295153 0.5575819171354210 0.6078689325833263
0.5363271264002680 0.5931694990624912 0.6078689325833263
0.4636728735997320 0.5931694990624913 0.6078689325833263
0.4048943483704847 0.5575819171354210 0.6078689325833263
0.3824429495415054 0.5000000000000000 0.6078689325833263
0.4048943483704847 0.4424180828645790 0.6078689325833263
0.4636728735997320 0.4068305009375088 0.6078689325833263
0.5363271264002680 0.4068305009375088 0.6078689325833263
0.5951056516295153 0.4424180828645790 0.6078689325833263
0.6902113032590307 0.5000000000000000 0.5412022659166597
0.6538841768587627 0.5931694990624912 0.5412022659166597
0.5587785252292473 0.6507514161979122 0.5412022659166597
0.4412214747707527 0.6507514161979122 0.5412022659166597
0.3461158231412373 0.5931694990624913 0.5412022659166597
0.3097886967409693 0.5000000000000000 0.5412022659166597
0.3461158231412373 0.4068305009375088 0.5412022659166597
0.4412214747707527 0.3492485838020877 0.5412022659166597
0.5587785252292473 0.3492485838020877 0.5412022659166597
0.6538841768587627 0.4068305009375087 0.5412022659166597
0.6902113032590307 0.5000000000000000 0.4587977340833403
0.6538841768587627 0.5931694990624913 0.4587977340833403
0.5587785252292473 0.6507514161979123 0.4587977340833403
0.4412214747707527 0.6507514161979123 0.4587977340833403
0.3461158231412373 0.5931694990624913 0.4587977340833403
0.3097886967409693 0.5000000000000000 0.4587977340833403
0.3461158231412373 0.4068305009375088 0.4587977340833403
0.4412214747707527 0.3492485838020877 0.4587977340833403
0.5587785252292473 0.3492485838020877 0.4587977340833403
0.6538841768587627 0.4068305009375087 0.4587977340833403
0.6175570504584946 0.5000000000000000 0.3921310674166737
0.5951056516295153 0.5575819171354210 0.3921310674166737
0.5363271264002680 0.5931694990624913 0.3921310674166737
0.4636728735997320 0.5931694990624913 0.3921310674166737
0.4048943483704847 0.5575819171354210 0.3921310674166737
0.3824429495415054 0.5000000000000000 0.3921310674166737
0.4048943483704847 0.4424180828645790 0.3921310674166737
0.4636728735997319 0.4068305009375088 0.3921310674166737
0.5363271264002680 0.4068305009375087 0.3921310674166737
0.5951056516295153 0.4424180828645790 0.3921310674166737
$EndNodes
$Elements
1 801 1 801
3 1 4 801
1 1 2 3 4
2 1 2 3 5
3 1 2 4 5
4 1 2 4 6
5 1 2 5 6
6 1 2 5 7
7 1 2 6 7
8 1 2 6 8
9 1 3 4 5
10 1 3 4 6
11 1 3 5 6
12 1 3 5 7
13 1 3 6 7
14 1 3 6 8
15 1 3 7 8
16 1 3 7 9
17 1 4 5 6
18 1 4 5 7
19 1 4 6 7
20 1 4 6 8
21 1 4 7 8
22 1 4 7 9
23 1 4 8 9
24 1 4 8 10
25 1 5 6 7
26 1 5 6 8
27 1 5 7 8
28 1 5 7 9
29 1 5 8 9
30 1 5 8 10
31 1 5 9 10
32 1 5 9 11
33 1 6 7 8
34 1 6 7 9
35 1 6 8 9
36 1 6 8 10
37 1 6 9 10
38 1 6 9 11
39 1 6 10 11
40 1 6 10 12
41 1 7 8 9
42 1 7 8 10
43 1 7 9 10
44 1 7 9 11
45 1 7 10 11
46 1 7 10 12
47 1 7 11 12
48 1 7 11 13
49 1 8 9 10
50 1 8 9 11
51 1 8 10 11
52 1 8 10 12
53 1 8 11 12
54 1 8 11 13
55 1 8 12 13
56 1 8 12 14
57 1 9 10 11
58 1 9 10 12
59 1 9 11 12
60 1 9 11 13
61 1 9 12 13
62 1 9 12 14
63 1 9 13 14
64 1 9 13 15
65 1 10 11 12
66 1 10 11 13
67 1 10 12 13
68 1 10 12 14
69 1 10 13 14
70 1 10 13 15
71 1 10 14 15
72 1 10 14 16
73 2 3 4 5
74 2 3 4 6
75 2 3 5 6
76 2 3 5 7
77 2 3 6 7
78 2 3 6 8
79 2 5 6 7
80 2 5 6 8
81 2 5 7 8
82 2 5 7 9
83 2 5 8 9
84 2 5 8 10
85 2 7 8 9
86 2 7 8 10
87 2 7 9 10
88 2 7 9 11
89 2 7 10 11
90 2 7 10 12
91 2 9 10 11
92 2 9 10 12
93 2 9 11 12
94 2 9 11 13
95 2 9 12 13
96 2 9 12 14
97 7 8 9 10
98 7 8 9 11
99 7 8 10 11
100 7 8 10 12
101 7 8 11 12
102 7 8 11 13
103 7 10 11 12
104 7 10 11 13
105 7 10 12 13
106 7 10 12 14
107 7 10 13 14
108 7 10 13 15
109 7 12 13 14
110 7 12 13 15
111 7 12 14 15
112 7 12 14 16
113 7 12 15 16
114 7 12 15 17
115 7 14 15 16
116 7 14 15 17
117 7 14 16 17
118 7 14 16 18
119 7 14 17 18
120 7 14 17 19
121 12 13 14 15
122 12 13 14 16
123 12 13 15 16
124 12 13 15 17
125 12 13 16 17
126 12 13 16 18
127 12 15 16 17
128 12 15 16 18
129 12 15 17 18
130 12 15 17 19
131 12 15 18 19
132 12 15 18 20
133 12 17 18 19
134 12 17 18 20
135 12 17 19 20
136 12 17 19 21
137 12 17 20 21
138 12 17 20 22
139 12 19 20 21
140 12 19 20 22
141 12 19 21 22
142 12 19 21 23
143 12 19 22 23
144 12 19 22 24
145 17 18 19 20
146 17 18 19 21
147 17 18 20 21
148 17 18 20 22
149 17 18 21 22
150 17 18 21 23
151 17 20 21 22
152 17 20 21 23
153 17 20 22 23
154 17 20 22 24
155 17 20 23 24
156 17 20 23 25
157 17 22 23 24
158 17 22 23 25
159 17 22 24 25
160 17 22 24 26
161 17 22 25 26
162 17 22 25 27
163 17 24 25 26
164 17 24 25 27
165 17 24 26 27
166 17 24 26 28
167 17 24 27 28
168 17 24 27 29
169 22 23 24 25
170 22 23 24 26
171 22 23 25 26
172 22 23 25 27
173 22 23 26 27
174 22 23 26 28
175 22 25 26 27
176 22 25 26 28
177 22 25 27 28
178 22 25 27 29
179 22 25 28 29
180 22 25 28 30
181 22 27 28 29
182 22 27 28 30
183 22 27 29 30
184 22 27 29 31
185 22 27 30 31
186 22 27 30 32
187 22 29 30 31
188 22 29 30 32
189 22 29 31 32
190 22 29 31 33
191 22 29 32 33
192 22 29 32 34
193 27 28 29 30
194 27 28 29 31
195 27 28 30 31
196 27 28 30 32
197 27 28 31 32
198 27 28 31 33
199 27 30 31 32
200 27 30 31 33
201 27 30 32 33
202 27 30 32 34
203 27 30 33 34
204 27 30 33 35
205 27 32 33 34
206 27 32 33 35
207 27 32 34 35
208 27 32 34 36
209 27 32 35 36
210 27 32 35 37
211 27 34 35 36
212 27 34 35 37
213 27 34 36 37
214 27 34 36 38
215 27 34 37 38
216 27 34 37 39
217 32 33 34 35
218 32 33 34 36
219 32 33 35 36
220 32 33 35 37
221 32 33 36 37
222 32 33 36 38
223 32 35 36 37
224 32 35 36 38
225 32 35 37 38
226 32 35 37 39
227 32 35 38 39
228 32 35 38 40
229 32 37 38 39
230 32 37 38 40
231 32 37 39 40
232 32 37 39 41
233 32 37 40 41
234 32 37 40 42
235 32 39 40 41
236 32 39 40 42
237 32 39 41 42
238 32 39 41 43
239 32 39 42 43
240 32 39 42 44
241 37 38 39 40
242 37 38 39 41
243 37 38 40 41
244 37 38 40 42
245 37 38 41 42
246 37 38 41 43
247 37 40 41 42
248 37 40 41 43
249 37 40 42 43
250 37 40 42 44
251 37 40 43 44
252 37 40 43 45
253 37 42 43 44
254 37 42 43 45
255 37 42 44 45
256 37 42 44 46
257 37 42 45 46
258 37 42 45 47
259 37 44 45 46
260 37 44 45 47
261 37 44 46 47
262 37 44 46 48
263 37 44 47 48
264 37 44 47 49
265 42 43 44 45
266 42 43 44 46
267 42 43 45 46
268 42 43 45 47
269 42 43 46 47
270 42 43 46 48
271 42 45 46 47
272 42 45 46 48
273 42 45 47 48
274 42 45 47 49
275 42 45 48 49
276 42 45 48 50
277 42 47 48 49
278 42 47 48 50
279 42 47 49 50
280 42 47 49 51
281 42 47 50 51
282 42 47 50 52
283 42 49 50 51
284 42 49 50 52
285 42 49 51 52
286 42 49 51 53
287 42 49 52 53
288 42 49 52 54
289 47 48 49 50
290 47 48 49 51
291 47 48 50 51
292 47 48 50 52
293 47 48 51 52
294 47 48 51 53
295 47 50 51 52
296 47 50 51 53
297 47 50 52 53
298 47 50 52 54
299 47 50 53 54
300 47 50 53 55
301 47 52 53 54
302 47 52 53 55
303 47 52 54 55
304 47 52 54 56
305 47 52 55 56
306 47 52 55 57
307 47 54 55 56
308 47 54 55 57
309 47 54 56 57
310 47 54 56 58
311 47 54 57 58
312 47 54 57 59
313 52 53 54 55
314 52 53 54 56
315 52 53 55 56
316 52 53 55 57
317 52 53 56 57
318 52 53 56 58
319 52 55 56 57
320 52 55 56 58
321 52 55 57 58
322 52 55 57 59
323 52 55 58 59
324 52 55 58 60
325 52 57 58 59
326 52 57 58 60
327 52 57 59 60
328 52 57 59 61
329 52 57 60 61
330 52 57 60 62
331 52 59 60 61
332 52 59 60 62
333 52 59 61 62
334 52 59 61 63
335 52 59 62 63
336 52 59 62 64
337 57 58 59 60
338 57 58 59 61
339 57 58 60 61
340 57 58 60 62
341 57 58 61 62
342 57 58 61 63
343 57 60 61 62
344 57 60 61 63
345 57 60 62 63
346 57 60 62 64
347 57 60 63 64
348 57 60 63 65
349 57 62 63 64
350 57 62 63 65
351 57 62 64 65
352 57 62 64 66
353 57 62 65 66
354 57 62 65 67
355 57 64 65 66
356 57 64 65 67
357 57 64 66 67
358 57 64 66 68
359 57 64 67 68
360 57 64 67 69
361 62 63 64 65
362 62 63 64 66
363 62 63 65 66
364 62 63 65 67
365 62 63 66 67
366 62 63 66 68
367 62 65 66 67
368 62 65 66 68
369 62 65 67 68
370 62 65 67 69
371 62 65 68 69
372 62 65 68 70
373 62 67 68 69
374 62 67 68 70
375 62 67 69 70
376 62 67 69 71
377 62 67 70 71
378 62 67 70 72
379 62 69 70 71
380 62 69 70 72
381 62 69 71 72
382 62 69 71 73
383 62 69 72 73
384 62 69 72 74
385 67 68 69 70
386 67 68 69 71
387 67 68 70 71
388 67 68 70 72
389 67 68 71 72
390 67 68 71 73
391 67 70 71 72
392 67 70 71 73
393 67 70 72 73
394 67 70 72 74
395 67 70 73 74
396 67 70 73 75
397 67 72 73 74
398 67 72 73 75
399 67 72 74 75
400 67 72 74 76
401 67 72 75 76
402 67 72 75 77
403 67 74 75 76
404 67 74 75 77
405 67 74 76 77
406 67 74 76 78
407 67 74 77 78
408 67 74 77 79
409 72 73 74 75
410 72 73 74 76
411 72 73 75 76
412 72 73 75 77
413 72 73 76 77
414 72 73 76 78
415 72 75 76 77
416 72 75 76 78
417 72 75 77 78
418 72 75 77 79
419 72 75 78 79
420 72 75 78 80
421 72 77 78 79
422 72 77 78 80
423 72 77 79 80
424 72 77 79 81
425 72 77 80 81
426 72 77 80 82
427 72 79 80 81
428 72 79 80 82
429 72 79 81 82
430 72 79 81 83
431 72 79 82 83
432 72 79 82 84
433 77 78 79 80
434 77 78 79 81
435 77 78 80 81
436 77 78 80 82
437 77 78 81 82
438 77 78 81 83
439 77 80 81 82
440 77 80 81 83
441 77 80 82 83
442 77 80 82 84
443 77 80 83 84
444 77 80 83 85
445 77 82 83 84
446 77 82 83 85
447 77 82 84 85
448 77 82 84 86
449 77 82 85 86
450 77 82 85 87
451 77 84 85 86
452 77 84 85 87
453 77 84 86 87
454 77 84 86 88
455 77 84 87 88
456 77 84 87 89
457 82 83 84 85
458 82 83 84 86
459 82 83 85 86
460 82 83 85 87
461 82 83 86 87
462 82 83 86 88
463 82 85 86 87
464 82 85 86 88
465 82 85 87 88
466 82 85 87 89
467 82 85 88 89
468 82 85 88 90
469 82 87 88 89
470 82 87 88 90
471 82 87 89 90
472 82 87 89 91
473 82 87 90 91
474 82 87 90 92
475 82 89 90 91
476 82 89 90 92
477 82 89 91 92
478 82 89 91 93
479 82 89 92 93
480 82 89 92 94
481 87 88 89 90
482 87 88 89 91
483 87 88 90 91
484 87 88 90 92
485 87 88 91 92
486 87 88 91 93
487 87 90 91 92
488 87 90 91 93
489 87 90 92 93
490 87 90 92 94
491 87 90 93 94
492 87 90 93 95
493 87 92 93 94
494 87 92 93 95
495 87 92 94 95
496 87 92 94 96
497 87 92 95 96
498 87 92 95 97
499 87 94 95 96
500 87 94 95 97
501 87 94 96 97
502 87 94 96 98
503 87 94 97 98
504 87 94 97 99
505 92 93 94 95
506 92 93 94 96
507 92 93 95 96
508 92 93 95 97
509 92 93 96 97
510 92 93 96 98
511 92 95 96 97
512 92 95 96 98
513 92 95 97 98
514 92 95 97 99
515 92 95 98 99
516 92 95 98 100
517 92 97 98 99
518 92 97 98 100
519 92 97 99 100
520 92 97 99 101
521 92 97 100 101
522 92 97 100 102
523 92 99 100 101
524 92 99 100 102
525 92 99 101 102
526 92 99 101 103
527 92 99 102 103
528 92 99 102 104
529 97 98 99 100
530 97 98 99 101
531 97 98 100 101
532 97 98 100 102
533 97 98 101 102
534 97 98 101 103
535 97 100 101 102
536 97 100 101 103
537 97 100 102 103
538 97 100 102 104
539 97 100 103 104
540 97 100 103 105
541 97 102 103 104
542 97 102 103 105
543 97 102 104 105
544 97 102 104 106
545 97 102 105 106
546 97 102 105 107
547 97 104 105 106
548 97 104 105 107
549 97 104 106 107
550 97 104 106 108
551 97 104 107 108
552 97 104 107 109
553 102 103 104 105
554 102 103 104 106
555 102 103 105 106
556 102 103 105 107
557 102 103 106 107
558 102 103 106 108
559 102 105 106 107
560 102 105 106 108
561 102 105 107 108
562 102 105 107 109
563 102 105 108 109
564 102 105 108 110
565 102 107 108 109
566 102 107 108 110
567 102 107 109 110
568 102 107 109 111
569 102 107 110 111
570 102 107 110 112
571 102 109 110 111
572 102 109 110 112
573 102 109 111 112
574 102 109 111 113
575 102 109 112 113
576 102 109 112 114
577 107 108 109 110
578 107 108 109 111
579 107 108 110 111
580 107 108 110 112
581 107 108 111 112
582 107 108 111 113
583 107 110 111 112
584 107 110 111 113
585 107 110 112 113
586 107 110 112 114
587 107 110 113 114
588 107 110 113 115
589 107 112 113 114
590 107 112 113 115
591 107 112 114 115
592 107 112 114 116
593 107 112 115 116
594 107 112 115 117
595 107 114 115 116
596 107 114 115 117
597 107 114 116 117
598 107 114 116 118
599 107 114 117 118
600 107 114 117 119
601 112 113 114 115
602 112 113 114 116
603 112 113 115 116
604 112 113 115 117
605 112 113 116 117
606 112 113 116 118
607 112 115 116 117
608 112 115 116 118
609 112 115 117 118
610 112 115 117 119
611 112 115 118 119
612 112 115 118 120
613 112 117 118 119
614 112 117 118 120
615 112 117 119 120
616 112 117 119 121
617 112 117 120 121
618 112 117 120 122
619 112 119 120 121
620 112 119 120 122
621 112 119 121 122
622 112 119 121 123
623 112 119 122 123
624 112 119 122 124
625 117 118 119 120
626 117 118 119 121
627 117 118 120 121
628 117 118 120 122
629 117 118 121 122
630 117 118 121 123
631 117 120 121 122
632 117 120 121 123
633 117 120 122 123
634 117 120 122 124
635 117 120 123 124
636 117 120 123 125
637 117 122 123 124
638 117 122 123 125
639 117 122 124 125
640 117 122 124 126
641 117 122 125 126
642 117 122 125 127
643 117 124 125 126
644 117 124 125 127
645 117 124 126 127
646 117 124 126 128
647 117 124 127 128
648 117 124 127 129
649 122 123 124 125
650 122 123 124 126
651 122 123 125 126
652 122 123 125 127
653 122 123 126 127
654 122 123 126 128
655 122 125 126 127
656 122 125 126 128
657 122 125 127 128
658 122 125 127 129
659 122 125 128 129
660 122 125 128 130
661 122 127 128 129
662 122 127 128 130
663 122 127 129 130
664 122 127 129 131
665 122 127 130 131
666 122 127 130 132
667 122 129 130 131
668 122 129 130 132
669 122 129 131 132
670 122 129 131 133
671 122 129 132 133
672 122 129 132 134
673 127 128 129 130
674 127 128 129 131
675 127 128 130 131
676 127 128 130 132
677 127 128 131 132
678 127 128 131 133
679 127 130 131 132
680 127 130 131 133
681 127 130 132 133
682 127 130 132 134
683 127 130 133 134
684 127 130 133 135
685 127 132 133 134
686 127 132 133 135
687 127 132 134 135
688 127 132 134 136
689 127 132 135 136
690 127 132 135 137
691 127 134 135 136
692 127 134 135 137
693 127 134 136 137
694 127 134 136 138
695 127 134 137 138
696 127 134 137 139
697 132 133 134 135
698 132 133 134 136
699 132 133 135 136
700 132 133 135 137
701 132 133 136 137
702 132 133 136 138
703 132 135 136 137
704 132 135 136 138
705 132 135 137 138
706 132 135 137 139
707 132 135 138 139
708 132 135 138 140
709 132 137 138 139
710 132 137 138 140
711 132 137 139 140
712 132 137 139 141
713 132 137 140 141
714 132 137 140 142
715 132 139 140 141
716 132 139 140 142
717 132 139 141 142
718 132 139 141 143
719 132 139 142 143
720 132 139 142 144
721 137 138 139 140
722 137 138 139 141
723 137 138 140 141
724 137 138 140 142
725 137 138 141 142
726 137 138 141 143
727 137 140 141 142
728 137 140 141 143
729 137 140 142 143
730 137 140 142 144
731 137 140 143 144
732 137 140 143 145
733 137 142 143 144
734 137 142 143 145
735 137 142 144 145
736 137 142 144 146
737 137 142 145 146
738 137 142 145 147
739 137 144 145 146
740 137 144 145 147
741 137 144 146 147
742 137 144 146 148
743 137 144 147 148
744 137 144 147 149
745 142 143 144 145
746 142 143 144 146
747 142 143 145 146
748 142 143 145 147
749 142 143 146 147
750 142 143 146 148
751 142 145 146 147
752 142 145 146 148
753 142 145 147 148
754 142 145 147 149
755 142 145 148 149
756 142 145 148 150
757 142 147 148 149
758 142 147 148 150
759 142 147 149 150
760 142 147 149 151
761 142 147 150 151
762 142 147 150 152
763 142 149 150 151
764 142 149 150 152
765 142 149 151 152
766 142 149 151 153
767 142 149 152 153
768 142 149 152 154
769 147 148 149 150
770 147 148 149 151
771 147 148 150 151
772 147 148 150 152
773 147 148 151 152
774 147 148 151 153
775 147 150 151 152
776 147 150 151 153
777 147 150 152 153
778 147 150 152 154
779 147 150 153 154
780 147 150 153 155
781 147 152 153 154
782 147 152 153 155
783 147 152 154 155
784 147 152 154 156
785 147 152 155 156
786 147 152 155 157
787 147 154 155 156
788 147 154 155 157
789 147 154 156 157
790 147 154 156 158
791 147 154 157 158
792 147 154 157 159
793 152 153 154 155
794 152 153 154 156
795 152 153 155 156
796 152 153 155 157
797 152 153 156 157
798 152 153 156 158
799 152 155 156 157
800 152 155 156 158
801 152 155 157 158
$EndElements
