$MeshFormat
2.2 0 8
$EndMeshFormat
$PhysicalNames
1
1 1 "nerve_edge"
$EndPhysicalNames
$Nodes
30
1 0.8 0.5 0.5
2 0.793444 0.551978 0.5
3 0.774064 0.601684 0.5
4 0.742705 0.646946 0.5
5 0.700739 0.685786 0.5
6 0.65 0.716506 0.5
7 0.592705 0.737764 0.5
8 0.531359 0.74863 0.5
9 0.468641 0.74863 0.5
10 0.407295 0.737764 0.5
11 0.35 0.716506 0.5
12 0.299261 0.685786 0.5
13 0.257295 0.646946 0.5
14 0.225936 0.601684 0.5
15 0.206556 0.551978 0.5
16 0.2 0.5 0.5
17 0.206556 0.448022 0.5
18 0.225936 0.398316 0.5
19 0.257295 0.353054 0.5
20 0.299261 0.314214 0.5
21 0.35 0.283494 0.5
22 0.407295 0.262236 0.5
23 0.468641 0.25137 0.5
24 0.531359 0.25137 0.5
25 0.592705 0.262236 0.5
26 0.65 0.283494 0.5
27 0.700739 0.314214 0.5
28 0.742705 0.353054 0.5
29 0.774064 0.398316 0.5
30 0.793444 0.448022 0.5
$EndNodes
$Elements
29
1 1 2 1 1 1 2
2 1 2 1 1 2 3
3 1 2 1 1 3 4
4 1 2 1 1 4 5
5 1 2 1 1 5 6
6 1 2 1 1 6 7
7 1 2 1 1 7 8
8 1 2 1 1 8 9
9 1 2 1 1 9 10
10 1 2 1 1 10 11
11 1 2 1 1 11 12
12 1 2 1 1 12 13
13 1 2 1 1 13 14
14 1 2 1 1 14 15
15 1 2 1 1 15 16
16 1 2 1 1 16 17
17 1 2 1 1 17 18
18 1 2 1 1 18 19
19 1 2 1 1 19 20
20 1 2 1 1 20 21
21 1 2 1 1 21 22
22 1 2 1 1 22 23
23 1 2 1 1 23 24
24 1 2 1 1 24 25
25 1 2 1 1 25 26
26 1 2 1 1 26 27
27 1 2 1 1 27 28
28 1 2 1 1 28 29
29 1 2 1 1 29 30
$EndElements
