$MeshFormat
2.2 0 8
$EndMeshFormat
$PhysicalNames
1
1 1 "nerve_edge"
$EndPhysicalNames
$Nodes
300
1 0.0 0.0 0.0
2 0.0 0.0 0.0033444816053511705
3 0.0 0.0 0.006688963210702341
4 0.0 0.0 0.010033444816053512
5 0.0 0.0 0.013377926421404682
6 0.0 0.0 0.016722408026755852
7 0.0 0.0 0.020066889632107024
8 0.0 0.0 0.023411371237458192
9 0.0 0.0 0.026755852842809364
10 0.0 0.0 0.030100334448160536
11 0.0 0.0 0.033444816053511704
12 0.0 0.0 0.03678929765886287
13 0.0 0.0 0.04013377926421405
14 0.0 0.0 0.043478260869565216
15 0.0 0.0 0.046822742474916385
16 0.0 0.0 0.05016722408026756
17 0.0 0.0 0.05351170568561873
18 0.0 0.0 0.056856187290969896
19 0.0 0.0 0.06020066889632107
20 0.0 0.0 0.06354515050167224
21 0.0 0.0 0.06688963210702341
22 0.0 0.0 0.07023411371237458
23 0.0 0.0 0.07357859531772575
24 0.0 0.0 0.07692307692307693
25 0.0 0.0 0.0802675585284281
26 0.0 0.0 0.08361204013377926
27 0.0 0.0 0.08695652173913043
28 0.0 0.0 0.0903010033444816
29 0.0 0.0 0.09364548494983277
30 0.0 0.0 0.09698996655518395
31 0.0 0.0 0.10033444816053512
32 0.0 0.0 0.10367892976588629
33 0.0 0.0 0.10702341137123746
34 0.0 0.0 0.11036789297658862
35 0.0 0.0 0.11371237458193979
36 0.0 0.0 0.11705685618729096
37 0.0 0.0 0.12040133779264214
38 0.0 0.0 0.12374581939799331
39 0.0 0.0 0.12709030100334448
40 0.0 0.0 0.13043478260869565
41 0.0 0.0 0.13377926421404682
42 0.0 0.0 0.13712374581939799
43 0.0 0.0 0.14046822742474915
44 0.0 0.0 0.14381270903010032
45 0.0 0.0 0.1471571906354515
46 0.0 0.0 0.1505016722408027
47 0.0 0.0 0.15384615384615385
48 0.0 0.0 0.15719063545150502
49 0.0 0.0 0.1605351170568562
50 0.0 0.0 0.16387959866220736
51 0.0 0.0 0.16722408026755853
52 0.0 0.0 0.1705685618729097
53 0.0 0.0 0.17391304347826086
54 0.0 0.0 0.17725752508361203
55 0.0 0.0 0.1806020066889632
56 0.0 0.0 0.18394648829431437
57 0.0 0.0 0.18729096989966554
58 0.0 0.0 0.1906354515050167
59 0.0 0.0 0.1939799331103679
60 0.0 0.0 0.19732441471571907
61 0.0 0.0 0.20066889632107024
62 0.0 0.0 0.2040133779264214
63 0.0 0.0 0.20735785953177258
64 0.0 0.0 0.21070234113712374
65 0.0 0.0 0.2140468227424749
66 0.0 0.0 0.21739130434782608
67 0.0 0.0 0.22073578595317725
68 0.0 0.0 0.22408026755852842
69 0.0 0.0 0.22742474916387959
70 0.0 0.0 0.23076923076923075
71 0.0 0.0 0.23411371237458192
72 0.0 0.0 0.23745819397993312
73 0.0 0.0 0.2408026755852843
74 0.0 0.0 0.24414715719063546
75 0.0 0.0 0.24749163879598662
76 0.0 0.0 0.2508361204013378
77 0.0 0.0 0.25418060200668896
78 0.0 0.0 0.25752508361204013
79 0.0 0.0 0.2608695652173913
80 0.0 0.0 0.26421404682274247
81 0.0 0.0 0.26755852842809363
82 0.0 0.0 0.2709030100334448
83 0.0 0.0 0.27424749163879597
84 0.0 0.0 0.27759197324414714
85 0.0 0.0 0.2809364548494983
86 0.0 0.0 0.2842809364548495
87 0.0 0.0 0.28762541806020064
88 0.0 0.0 0.2909698996655518
89 0.0 0.0 0.294314381270903
90 0.0 0.0 0.29765886287625415
91 0.0 0.0 0.3010033444816054
92 0.0 0.0 0.30434782608695654
93 0.0 0.0 0.3076923076923077
94 0.0 0.0 0.3110367892976589
95 0.0 0.0 0.31438127090301005
96 0.0 0.0 0.3177257525083612
97 0.0 0.0 0.3210702341137124
98 0.0 0.0 0.32441471571906355
99 0.0 0.0 0.3277591973244147
100 0.0 0.0 0.3311036789297659
101 0.0 0.0 0.33444816053511706
102 0.0 0.0 0.3377926421404682
103 0.0 0.0 0.3411371237458194
104 0.0 0.0 0.34448160535117056
105 0.0 0.0 0.34782608695652173
106 0.0 0.0 0.3511705685618729
107 0.0 0.0 0.35451505016722407
108 0.0 0.0 0.35785953177257523
109 0.0 0.0 0.3612040133779264
110 0.0 0.0 0.36454849498327757
111 0.0 0.0 0.36789297658862874
112 0.0 0.0 0.3712374581939799
113 0.0 0.0 0.3745819397993311
114 0.0 0.0 0.37792642140468224
115 0.0 0.0 0.3812709030100334
116 0.0 0.0 0.3846153846153846
117 0.0 0.0 0.3879598662207358
118 0.0 0.0 0.391304347826087
119 0.0 0.0 0.39464882943143814
120 0.0 0.0 0.3979933110367893
121 0.0 0.0 0.4013377926421405
122 0.0 0.0 0.40468227424749165
123 0.0 0.0 0.4080267558528428
124 0.0 0.0 0.411371237458194
125 0.0 0.0 0.41471571906354515
126 0.0 0.0 0.4180602006688963
127 0.0 0.0 0.4214046822742475
128 0.0 0.0 0.42474916387959866
129 0.0 0.0 0.4280936454849498
130 0.0 0.0 0.431438127090301
131 0.0 0.0 0.43478260869565216
132 0.0 0.0 0.43812709030100333
133 0.0 0.0 0.4414715719063545
134 0.0 0.0 0.44481605351170567
135 0.0 0.0 0.44816053511705684
136 0.0 0.0 0.451505016722408
137 0.0 0.0 0.45484949832775917
138 0.0 0.0 0.45819397993311034
139 0.0 0.0 0.4615384615384615
140 0.0 0.0 0.4648829431438127
141 0.0 0.0 0.46822742474916385
142 0.0 0.0 0.47157190635451507
143 0.0 0.0 0.47491638795986624
144 0.0 0.0 0.4782608695652174
145 0.0 0.0 0.4816053511705686
146 0.0 0.0 0.48494983277591974
147 0.0 0.0 0.4882943143812709
148 0.0 0.0 0.4916387959866221
149 0.0 0.0 0.49498327759197325
150 0.0 0.0 0.4983277591973244
151 0.0 0.0 0.5016722408026756
152 0.0 0.0 0.5050167224080268
153 0.0 0.0 0.5083612040133779
154 0.0 0.0 0.5117056856187291
155 0.0 0.0 0.5150501672240803
156 0.0 0.0 0.5183946488294314
157 0.0 0.0 0.5217391304347826
158 0.0 0.0 0.5250836120401338
159 0.0 0.0 0.5284280936454849
160 0.0 0.0 0.5317725752508361
161 0.0 0.0 0.5351170568561873
162 0.0 0.0 0.5384615384615384
163 0.0 0.0 0.5418060200668896
164 0.0 0.0 0.5451505016722408
165 0.0 0.0 0.5484949832775919
166 0.0 0.0 0.5518394648829431
167 0.0 0.0 0.5551839464882943
168 0.0 0.0 0.5585284280936454
169 0.0 0.0 0.5618729096989966
170 0.0 0.0 0.5652173913043478
171 0.0 0.0 0.568561872909699
172 0.0 0.0 0.5719063545150501
173 0.0 0.0 0.5752508361204013
174 0.0 0.0 0.5785953177257525
175 0.0 0.0 0.5819397993311036
176 0.0 0.0 0.5852842809364548
177 0.0 0.0 0.588628762541806
178 0.0 0.0 0.5919732441471571
179 0.0 0.0 0.5953177257525083
180 0.0 0.0 0.5986622073578595
181 0.0 0.0 0.6020066889632107
182 0.0 0.0 0.6053511705685619
183 0.0 0.0 0.6086956521739131
184 0.0 0.0 0.6120401337792643
185 0.0 0.0 0.6153846153846154
186 0.0 0.0 0.6187290969899666
187 0.0 0.0 0.6220735785953178
188 0.0 0.0 0.6254180602006689
189 0.0 0.0 0.6287625418060201
190 0.0 0.0 0.6321070234113713
191 0.0 0.0 0.6354515050167224
192 0.0 0.0 0.6387959866220736
193 0.0 0.0 0.6421404682274248
194 0.0 0.0 0.6454849498327759
195 0.0 0.0 0.6488294314381271
196 0.0 0.0 0.6521739130434783
197 0.0 0.0 0.6555183946488294
198 0.0 0.0 0.6588628762541806
199 0.0 0.0 0.6622073578595318
200 0.0 0.0 0.6655518394648829
201 0.0 0.0 0.6688963210702341
202 0.0 0.0 0.6722408026755853
203 0.0 0.0 0.6755852842809364
204 0.0 0.0 0.6789297658862876
205 0.0 0.0 0.6822742474916388
206 0.0 0.0 0.68561872909699
207 0.0 0.0 0.6889632107023411
208 0.0 0.0 0.6923076923076923
209 0.0 0.0 0.6956521739130435
210 0.0 0.0 0.6989966555183946
211 0.0 0.0 0.7023411371237458
212 0.0 0.0 0.705685618729097
213 0.0 0.0 0.7090301003344481
214 0.0 0.0 0.7123745819397993
215 0.0 0.0 0.7157190635451505
216 0.0 0.0 0.7190635451505016
217 0.0 0.0 0.7224080267558528
218 0.0 0.0 0.725752508361204
219 0.0 0.0 0.7290969899665551
220 0.0 0.0 0.7324414715719063
221 0.0 0.0 0.7357859531772575
222 0.0 0.0 0.7391304347826086
223 0.0 0.0 0.7424749163879598
224 0.0 0.0 0.745819397993311
225 0.0 0.0 0.7491638795986622
226 0.0 0.0 0.7525083612040133
227 0.0 0.0 0.7558528428093645
228 0.0 0.0 0.7591973244147157
229 0.0 0.0 0.7625418060200668
230 0.0 0.0 0.765886287625418
231 0.0 0.0 0.7692307692307692
232 0.0 0.0 0.7725752508361204
233 0.0 0.0 0.7759197324414716
234 0.0 0.0 0.7792642140468228
235 0.0 0.0 0.782608695652174
236 0.0 0.0 0.7859531772575251
237 0.0 0.0 0.7892976588628763
238 0.0 0.0 0.7926421404682275
239 0.0 0.0 0.7959866220735786
240 0.0 0.0 0.7993311036789298
241 0.0 0.0 0.802675585284281
242 0.0 0.0 0.8060200668896321
243 0.0 0.0 0.8093645484949833
244 0.0 0.0 0.8127090301003345
245 0.0 0.0 0.8160535117056856
246 0.0 0.0 0.8193979933110368
247 0.0 0.0 0.822742474916388
248 0.0 0.0 0.8260869565217391
249 0.0 0.0 0.8294314381270903
250 0.0 0.0 0.8327759197324415
251 0.0 0.0 0.8361204013377926
252 0.0 0.0 0.8394648829431438
253 0.0 0.0 0.842809364548495
254 0.0 0.0 0.8461538461538461
255 0.0 0.0 0.8494983277591973
256 0.0 0.0 0.8528428093645485
257 0.0 0.0 0.8561872909698997
258 0.0 0.0 0.8595317725752508
259 0.0 0.0 0.862876254180602
260 0.0 0.0 0.8662207357859532
261 0.0 0.0 0.8695652173913043
262 0.0 0.0 0.8729096989966555
263 0.0 0.0 0.8762541806020067
264 0.0 0.0 0.8795986622073578
265 0.0 0.0 0.882943143812709
266 0.0 0.0 0.8862876254180602
267 0.0 0.0 0.8896321070234113
268 0.0 0.0 0.8929765886287625
269 0.0 0.0 0.8963210702341137
270 0.0 0.0 0.8996655518394648
271 0.0 0.0 0.903010033444816
272 0.0 0.0 0.9063545150501672
273 0.0 0.0 0.9096989966555183
274 0.0 0.0 0.9130434782608695
275 0.0 0.0 0.9163879598662207
276 0.0 0.0 0.9197324414715718
277 0.0 0.0 0.923076923076923
278 0.0 0.0 0.9264214046822742
279 0.0 0.0 0.9297658862876254
280 0.0 0.0 0.9331103678929765
281 0.0 0.0 0.9364548494983277
282 0.0 0.0 0.9397993311036789
283 0.0 0.0 0.9431438127090301
284 0.0 0.0 0.9464882943143813
285 0.0 0.0 0.9498327759197325
286 0.0 0.0 0.9531772575250836
287 0.0 0.0 0.9565217391304348
288 0.0 0.0 0.959866220735786
289 0.0 0.0 0.9632107023411371
290 0.0 0.0 0.9665551839464883
291 0.0 0.0 0.9698996655518395
292 0.0 0.0 0.9732441471571907
293 0.0 0.0 0.9765886287625418
294 0.0 0.0 0.979933110367893
295 0.0 0.0 0.9832775919732442
296 0.0 0.0 0.9866220735785953
297 0.0 0.0 0.9899665551839465
298 0.0 0.0 0.9933110367892977
299 0.0 0.0 0.9966555183946488
300 0.0 0.0 1.0
$EndNodes
$Elements
299
1 1 2 1 1 1 2
2 1 2 1 1 2 3
3 1 2 1 1 3 4
4 1 2 1 1 4 5
5 1 2 1 1 5 6
6 1 2 1 1 6 7
7 1 2 1 1 7 8
8 1 2 1 1 8 9
9 1 2 1 1 9 10
10 1 2 1 1 10 11
11 1 2 1 1 11 12
12 1 2 1 1 12 13
13 1 2 1 1 13 14
14 1 2 1 1 14 15
15 1 2 1 1 15 16
16 1 2 1 1 16 17
17 1 2 1 1 17 18
18 1 2 1 1 18 19
19 1 2 1 1 19 20
20 1 2 1 1 20 21
21 1 2 1 1 21 22
22 1 2 1 1 22 23
23 1 2 1 1 23 24
24 1 2 1 1 24 25
25 1 2 1 1 25 26
26 1 2 1 1 26 27
27 1 2 1 1 27 28
28 1 2 1 1 28 29
29 1 2 1 1 29 30
30 1 2 1 1 30 31
31 1 2 1 1 31 32
32 1 2 1 1 32 33
33 1 2 1 1 33 34
34 1 2 1 1 34 35
35 1 2 1 1 35 36
36 1 2 1 1 36 37
37 1 2 1 1 37 38
38 1 2 1 1 38 39
39 1 2 1 1 39 40
40 1 2 1 1 40 41
41 1 2 1 1 41 42
42 1 2 1 1 42 43
43 1 2 1 1 43 44
44 1 2 1 1 44 45
45 1 2 1 1 45 46
46 1 2 1 1 46 47
47 1 2 1 1 47 48
48 1 2 1 1 48 49
49 1 2 1 1 49 50
50 1 2 1 1 50 51
51 1 2 1 1 51 52
52 1 2 1 1 52 53
53 1 2 1 1 53 54
54 1 2 1 1 54 55
55 1 2 1 1 55 56
56 1 2 1 1 56 57
57 1 2 1 1 57 58
58 1 2 1 1 58 59
59 1 2 1 1 59 60
60 1 2 1 1 60 61
61 1 2 1 1 61 62
62 1 2 1 1 62 63
63 1 2 1 1 63 64
64 1 2 1 1 64 65
65 1 2 1 1 65 66
66 1 2 1 1 66 67
67 1 2 1 1 67 68
68 1 2 1 1 68 69
69 1 2 1 1 69 70
70 1 2 1 1 70 71
71 1 2 1 1 71 72
72 1 2 1 1 72 73
73 1 2 1 1 73 74
74 1 2 1 1 74 75
75 1 2 1 1 75 76
76 1 2 1 1 76 77
77 1 2 1 1 77 78
78 1 2 1 1 78 79
79 1 2 1 1 79 80
80 1 2 1 1 80 81
81 1 2 1 1 81 82
82 1 2 1 1 82 83
83 1 2 1 1 83 84
84 1 2 1 1 84 85
85 1 2 1 1 85 86
86 1 2 1 1 86 87
87 1 2 1 1 87 88
88 1 2 1 1 88 89
89 1 2 1 1 89 90
90 1 2 1 1 90 91
91 1 2 1 1 91 92
92 1 2 1 1 92 93
93 1 2 1 1 93 94
94 1 2 1 1 94 95
95 1 2 1 1 95 96
96 1 2 1 1 96 97
97 1 2 1 1 97 98
98 1 2 1 1 98 99
99 1 2 1 1 99 100
100 1 2 1 1 100 101
101 1 2 1 1 101 102
102 1 2 1 1 102 103
103 1 2 1 1 103 104
104 1 2 1 1 104 105
105 1 2 1 1 105 106
106 1 2 1 1 106 107
107 1 2 1 1 107 108
108 1 2 1 1 108 109
109 1 2 1 1 109 110
110 1 2 1 1 110 111
111 1 2 1 1 111 112
112 1 2 1 1 112 113
113 1 2 1 1 113 114
114 1 2 1 1 114 115
115 1 2 1 1 115 116
116 1 2 1 1 116 117
117 1 2 1 1 117 118
118 1 2 1 1 118 119
119 1 2 1 1 119 120
120 1 2 1 1 120 121
121 1 2 1 1 121 122
122 1 2 1 1 122 123
123 1 2 1 1 123 124
124 1 2 1 1 124 125
125 1 2 1 1 125 126
126 1 2 1 1 126 127
127 1 2 1 1 127 128
128 1 2 1 1 128 129
129 1 2 1 1 129 130
130 1 2 1 1 130 131
131 1 2 1 1 131 132
132 1 2 1 1 132 133
133 1 2 1 1 133 134
134 1 2 1 1 134 135
135 1 2 1 1 135 136
136 1 2 1 1 136 137
137 1 2 1 1 137 138
138 1 2 1 1 138 139
139 1 2 1 1 139 140
140 1 2 1 1 140 141
141 1 2 1 1 141 142
142 1 2 1 1 142 143
143 1 2 1 1 143 144
144 1 2 1 1 144 145
145 1 2 1 1 145 146
146 1 2 1 1 146 147
147 1 2 1 1 147 148
148 1 2 1 1 148 149
149 1 2 1 1 149 150
150 1 2 1 1 150 151
151 1 2 1 1 151 152
152 1 2 1 1 152 153
153 1 2 1 1 153 154
154 1 2 1 1 154 155
155 1 2 1 1 155 156
156 1 2 1 1 156 157
157 1 2 1 1 157 158
158 1 2 1 1 158 159
159 1 2 1 1 159 160
160 1 2 1 1 160 161
161 1 2 1 1 161 162
162 1 2 1 1 162 163
163 1 2 1 1 163 164
164 1 2 1 1 164 165
165 1 2 1 1 165 166
166 1 2 1 1 166 167
167 1 2 1 1 167 168
168 1 2 1 1 168 169
169 1 2 1 1 169 170
170 1 2 1 1 170 171
171 1 2 1 1 171 172
172 1 2 1 1 172 173
173 1 2 1 1 173 174
174 1 2 1 1 174 175
175 1 2 1 1 175 176
176 1 2 1 1 176 177
177 1 2 1 1 177 178
178 1 2 1 1 178 179
179 1 2 1 1 179 180
180 1 2 1 1 180 181
181 1 2 1 1 181 182
182 1 2 1 1 182 183
183 1 2 1 1 183 184
184 1 2 1 1 184 185
185 1 2 1 1 185 186
186 1 2 1 1 186 187
187 1 2 1 1 187 188
188 1 2 1 1 188 189
189 1 2 1 1 189 190
190 1 2 1 1 190 191
191 1 2 1 1 191 192
192 1 2 1 1 192 193
193 1 2 1 1 193 194
194 1 2 1 1 194 195
195 1 2 1 1 195 196
196 1 2 1 1 196 197
197 1 2 1 1 197 198
198 1 2 1 1 198 199
199 1 2 1 1 199 200
200 1 2 1 1 200 201
201 1 2 1 1 201 202
202 1 2 1 1 202 203
203 1 2 1 1 203 204
204 1 2 1 1 204 205
205 1 2 1 1 205 206
206 1 2 1 1 206 207
207 1 2 1 1 207 208
208 1 2 1 1 208 209
209 1 2 1 1 209 210
210 1 2 1 1 210 211
211 1 2 1 1 211 212
212 1 2 1 1 212 213
213 1 2 1 1 213 214
214 1 2 1 1 214 215
215 1 2 1 1 215 216
216 1 2 1 1 216 217
217 1 2 1 1 217 218
218 1 2 1 1 218 219
219 1 2 1 1 219 220
220 1 2 1 1 220 221
221 1 2 1 1 221 222
222 1 2 1 1 222 223
223 1 2 1 1 223 224
224 1 2 1 1 224 225
225 1 2 1 1 225 226
226 1 2 1 1 226 227
227 1 2 1 1 227 228
228 1 2 1 1 228 229
229 1 2 1 1 229 230
230 1 2 1 1 230 231
231 1 2 1 1 231 232
232 1 2 1 1 232 233
233 1 2 1 1 233 234
234 1 2 1 1 234 235
235 1 2 1 1 235 236
236 1 2 1 1 236 237
237 1 2 1 1 237 238
238 1 2 1 1 238 239
239 1 2 1 1 239 240
240 1 2 1 1 240 241
241 1 2 1 1 241 242
242 1 2 1 1 242 243
243 1 2 1 1 243 244
244 1 2 1 1 244 245
245 1 2 1 1 245 246
246 1 2 1 1 246 247
247 1 2 1 1 247 248
248 1 2 1 1 248 249
249 1 2 1 1 249 250
250 1 2 1 1 250 251
251 1 2 1 1 251 252
252 1 2 1 1 252 253
253 1 2 1 1 253 254
254 1 2 1 1 254 255
255 1 2 1 1 255 256
256 1 2 1 1 256 257
257 1 2 1 1 257 258
258 1 2 1 1 258 259
259 1 2 1 1 259 260
260 1 2 1 1 260 261
261 1 2 1 1 261 262
262 1 2 1 1 262 263
263 1 2 1 1 263 264
264 1 2 1 1 264 265
265 1 2 1 1 265 266
266 1 2 1 1 266 267
267 1 2 1 1 267 268
268 1 2 1 1 268 269
269 1 2 1 1 269 270
270 1 2 1 1 270 271
271 1 2 1 1 271 272
272 1 2 1 1 272 273
273 1 2 1 1 273 274
274 1 2 1 1 274 275
275 1 2 1 1 275 276
276 1 2 1 1 276 277
277 1 2 1 1 277 278
278 1 2 1 1 278 279
279 1 2 1 1 279 280
280 1 2 1 1 280 281
281 1 2 1 1 281 282
282 1 2 1 1 282 283
283 1 2 1 1 283 284
284 1 2 1 1 284 285
285 1 2 1 1 285 286
286 1 2 1 1 286 287
287 1 2 1 1 287 288
288 1 2 1 1 288 289
289 1 2 1 1 289 290
290 1 2 1 1 290 291
291 1 2 1 1 291 292
292 1 2 1 1 292 293
293 1 2 1 1 293 294
294 1 2 1 1 294 295
295 1 2 1 1 295 296
296 1 2 1 1 296 297
297 1 2 1 1 297 298
298 1 2 1 1 298 299
299 1 2 1 1 299 300
$EndElements
