$MeshFormat
4.1 0 8
$EndMeshFormat
$PhysicalNames
1
1 1 "nerve_edge"
$EndPhysicalNames
$Entities
26 25 0 0
1 -14.8862 2.941827 11.467401 0 
2 -14.8862 2.941827 11.467401 0 
3 -14.8862 2.941827 11.467401 0 
4 -14.8862 2.941827 11.467401 0 
5 -14.8862 2.941827 11.467401 0 
6 -14.409293 3.067904 11.741253 0 
7 -14.409293 3.067904 11.741253 0 
8 -14.409293 3.067904 11.741253 0 
9 -14.409293 3.067904 11.741253 0 
10 -14.409293 3.067904 11.741253 0 
11 -14.409293 3.067904 11.741253 0 
12 -14.409293 3.067904 11.741253 0 
13 -14.409293 3.067904 11.741253 0 
14 -14.409293 3.067904 11.741253 0 
15 -14.409293 3.067904 11.741253 0 
16 -14.409293 3.067904 11.741253 0 
17 -14.409293 3.067904 11.741253 0 
18 -14.409293 3.067904 11.741253 0 
19 -14.409293 3.067904 11.741253 0 
20 -14.409293 3.067904 11.741253 0 
21 -14.409293 3.067904 11.741253 0 
22 -14.409293 3.067904 11.741253 0 
23 -14.409293 3.067904 11.741253 0 
24 -14.409293 3.067904 11.741253 0 
25 -14.409293 3.067904 11.741253 0 
26 -14.409293 3.067904 11.741253 0 
1 -14.8862 2.941827 11.467401 -14.8862 2.941827 11.467401 1 1 2 1 -2 
2 -14.8862 2.941827 11.467401 -14.8862 2.941827 11.467401 1 1 2 2 -3 
3 -14.8862 2.941827 11.467401 -14.8862 2.941827 11.467401 1 1 2 3 -4 
4 -14.8862 2.941827 11.467401 -14.8862 2.941827 11.467401 1 1 2 4 -5 
5 -14.8862 2.941827 11.467401 -14.409293 3.067904 11.741253 1 1 2 5 -6 
6 -14.409293 3.067904 11.741253 -14.409293 3.067904 11.741253 1 1 2 6 -7 
7 -14.409293 3.067904 11.741253 -14.409293 3.067904 11.741253 1 1 2 7 -8 
8 -14.409293 3.067904 11.741253 -14.409293 3.067904 11.741253 1 1 2 8 -9 
9 -14.409293 3.067904 11.741253 -14.409293 3.067904 11.741253 1 1 2 9 -10 
10 -14.409293 3.067904 11.741253 -14.409293 3.067904 11.741253 1 1 2 10 -11 
11 -14.409293 3.067904 11.741253 -14.409293 3.067904 11.741253 1 1 2 11 -12 
12 -14.409293 3.067904 11.741253 -14.409293 3.067904 11.741253 1 1 2 12 -13 
13 -14.409293 3.067904 11.741253 -14.409293 3.067904 11.741253 1 1 2 13 -14 
14 -14.409293 3.067904 11.741253 -14.409293 3.067904 11.741253 1 1 2 14 -15 
15 -14.409293 3.067904 11.741253 -14.409293 3.067904 11.741253 1 1 2 15 -16 
16 -14.409293 3.067904 11.741253 -14.409293 3.067904 11.741253 1 1 2 16 -17 
17 -14.409293 3.067904 11.741253 -14.409293 3.067904 11.741253 1 1 2 17 -18 
18 -14.409293 3.067904 11.741253 -14.409293 3.067904 11.741253 1 1 2 18 -19 
19 -14.409293 3.067904 11.741253 -14.409293 3.067904 11.741253 1 1 2 19 -20 
20 -14.409293 3.067904 11.741253 -14.409293 3.067904 11.741253 1 1 2 20 -21 
21 -14.409293 3.067904 11.741253 -14.409293 3.067904 11.741253 1 1 2 21 -22 
22 -14.409293 3.067904 11.741253 -14.409293 3.067904 11.741253 1 1 2 22 -23 
23 -14.409293 3.067904 11.741253 -14.409293 3.067904 11.741253 1 1 2 23 -24 
24 -14.409293 3.067904 11.741253 -14.409293 3.067904 11.741253 1 1 2 24 -25 
25 -14.409293 3.067904 11.741253 -14.409293 3.067904 11.741253 1 1 2 25 -26 
$EndEntities
$Nodes
51 1154 1 1154
0 1 0 1
1
-14.8862 2.941827 11.467401
0 2 0 1
2
-14.8862 2.941827 11.467401
0 3 0 1
3
-14.8862 2.941827 11.467401
0 4 0 1
4
-14.8862 2.941827 11.467401
0 5 0 1
5
-14.8862 2.941827 11.467401
0 6 0 1
6
-14.409293 3.067904 11.741253
0 7 0 1
7
-14.409293 3.067904 11.741253
0 8 0 1
8
-14.409293 3.067904 11.741253
0 9 0 1
9
-14.409293 3.067904 11.741253
0 10 0 1
10
-14.409293 3.067904 11.741253
0 11 0 1
11
-14.409293 3.067904 11.741253
0 12 0 1
12
-14.409293 3.067904 11.741253
0 13 0 1
13
-14.409293 3.067904 11.741253
0 14 0 1
14
-14.409293 3.067904 11.741253
0 15 0 1
15
-14.409293 3.067904 11.741253
0 16 0 1
16
-14.409293 3.067904 11.741253
0 17 0 1
17
-14.409293 3.067904 11.741253
0 18 0 1
18
-14.409293 3.067904 11.741253
0 19 0 1
19
-14.409293 3.067904 11.741253
0 20 0 1
20
-14.409293 3.067904 11.741253
0 21 0 1
21
-14.409293 3.067904 11.741253
0 22 0 1
22
-14.409293 3.067904 11.741253
0 23 0 1
23
-14.409293 3.067904 11.741253
0 24 0 1
24
-14.409293 3.067904 11.741253
0 25 0 1
25
-14.409293 3.067904 11.741253
0 26 0 1
26
-14.409293 3.067904 11.741253
1 1 0 0
1 2 0 0
1 3 0 0
1 4 0 0
1 5 0 1128
27
28
29
30
31
32
33
34
35
36
37
38
39
40
41
42
43
44
45
46
47
48
49
50
51
52
53
54
55
56
57
58
59
60
61
62
63
64
65
66
67
68
69
70
71
72
73
74
75
76
77
78
79
80
81
82
83
84
85
86
87
88
89
90
91
92
93
94
95
96
97
98
99
100
101
102
103
104
105
106
107
108
109
110
111
112
113
114
115
116
117
118
119
120
121
122
123
124
125
126
127
128
129
130
131
132
133
134
135
136
137
138
139
140
141
142
143
144
145
146
147
148
149
150
151
152
153
154
155
156
157
158
159
160
161
162
163
164
165
166
167
168
169
170
171
172
173
174
175
176
177
178
179
180
181
182
183
184
185
186
187
188
189
190
191
192
193
194
195
196
197
198
199
200
201
202
203
204
205
206
207
208
209
210
211
212
213
214
215
216
217
218
219
220
221
222
223
224
225
226
227
228
229
230
231
232
233
234
235
236
237
238
239
240
241
242
243
244
245
246
247
248
249
250
251
252
253
254
255
256
257
258
259
260
261
262
263
264
265
266
267
268
269
270
271
272
273
274
275
276
277
278
279
280
281
282
283
284
285
286
287
288
289
290
291
292
293
294
295
296
297
298
299
300
301
302
303
304
305
306
307
308
309
310
311
312
313
314
315
316
317
318
319
320
321
322
323
324
325
326
327
328
329
330
331
332
333
334
335
336
337
338
339
340
341
342
343
344
345
346
347
348
349
350
351
352
353
354
355
356
357
358
359
360
361
362
363
364
365
366
367
368
369
370
371
372
373
374
375
376
377
378
379
380
381
382
383
384
385
386
387
388
389
390
391
392
393
394
395
396
397
398
399
400
401
402
403
404
405
406
407
408
409
410
411
412
413
414
415
416
417
418
419
420
421
422
423
424
425
426
427
428
429
430
431
432
433
434
435
436
437
438
439
440
441
442
443
444
445
446
447
448
449
450
451
452
453
454
455
456
457
458
459
460
461
462
463
464
465
466
467
468
469
470
471
472
473
474
475
476
477
478
479
480
481
482
483
484
485
486
487
488
489
490
491
492
493
494
495
496
497
498
499
500
501
502
503
504
505
506
507
508
509
510
511
512
513
514
515
516
517
518
519
520
521
522
523
524
525
526
527
528
529
530
531
532
533
534
535
536
537
538
539
540
541
542
543
544
545
546
547
548
549
550
551
552
553
554
555
556
557
558
559
560
561
562
563
564
565
566
567
568
569
570
571
572
573
574
575
576
577
578
579
580
581
582
583
584
585
586
587
588
589
590
591
592
593
594
595
596
597
598
599
600
601
602
603
604
605
606
607
608
609
610
611
612
613
614
615
616
617
618
619
620
621
622
623
624
625
626
627
628
629
630
631
632
633
634
635
636
637
638
639
640
641
642
643
644
645
646
647
648
649
650
651
652
653
654
655
656
657
658
659
660
661
662
663
664
665
666
667
668
669
670
671
672
673
674
675
676
677
678
679
680
681
682
683
684
685
686
687
688
689
690
691
692
693
694
695
696
697
698
699
700
701
702
703
704
705
706
707
708
709
710
711
712
713
714
715
716
717
718
719
720
721
722
723
724
725
726
727
728
729
730
731
732
733
734
735
736
737
738
739
740
741
742
743
744
745
746
747
748
749
750
751
752
753
754
755
756
757
758
759
760
761
762
763
764
765
766
767
768
769
770
771
772
773
774
775
776
777
778
779
780
781
782
783
784
785
786
787
788
789
790
791
792
793
794
795
796
797
798
799
800
801
802
803
804
805
806
807
808
809
810
811
812
813
814
815
816
817
818
819
820
821
822
823
824
825
826
827
828
829
830
831
832
833
834
835
836
837
838
839
840
841
842
843
844
845
846
847
848
849
850
851
852
853
854
855
856
857
858
859
860
861
862
863
864
865
866
867
868
869
870
871
872
873
874
875
876
877
878
879
880
881
882
883
884
885
886
887
888
889
890
891
892
893
894
895
896
897
898
899
900
901
902
903
904
905
906
907
908
909
910
911
912
913
914
915
916
917
918
919
920
921
922
923
924
925
926
927
928
929
930
931
932
933
934
935
936
937
938
939
940
941
942
943
944
945
946
947
948
949
950
951
952
953
954
955
956
957
958
959
960
961
962
963
964
965
966
967
968
969
970
971
972
973
974
975
976
977
978
979
980
981
982
983
984
985
986
987
988
989
990
991
992
993
994
995
996
997
998
999
1000
1001
1002
1003
1004
1005
1006
1007
1008
1009
1010
1011
1012
1013
1014
1015
1016
1017
1018
1019
1020
1021
1022
1023
1024
1025
1026
1027
1028
1029
1030
1031
1032
1033
1034
1035
1036
1037
1038
1039
1040
1041
1042
1043
1044
1045
1046
1047
1048
1049
1050
1051
1052
1053
1054
1055
1056
1057
1058
1059
1060
1061
1062
1063
1064
1065
1066
1067
1068
1069
1070
1071
1072
1073
1074
1075
1076
1077
1078
1079
1080
1081
1082
1083
1084
1085
1086
1087
1088
1089
1090
1091
1092
1093
1094
1095
1096
1097
1098
1099
1100
1101
1102
1103
1104
1105
1106
1107
1108
1109
1110
1111
1112
1113
1114
1115
1116
1117
1118
1119
1120
1121
1122
1123
1124
1125
1126
1127
1128
1129
1130
1131
1132
1133
1134
1135
1136
1137
1138
1139
1140
1141
1142
1143
1144
1145
1146
1147
1148
1149
1150
1151
1152
1153
1154
-14.88577758458808 2.941938671390625 11.46764356155893
-14.88535516917615 2.942050342781251 11.46788612311787
-14.88493275376423 2.942162014171876 11.4681286846768
-14.88451033835231 2.942273685562502 11.46837124623573
-14.88408792294039 2.942385356953127 11.46861380779466
-14.88366550752846 2.942497028343753 11.4688563693536
-14.88324309211654 2.942608699734378 11.46909893091253
-14.88282067670462 2.942720371125003 11.46934149247146
-14.8823982612927 2.942832042515627 11.46958405403039
-14.88197584588082 2.94294371390624 11.4698266155893
-14.88155343046895 2.943055385296854 11.4700691771482
-14.88113101505707 2.943167056687468 11.47031173870711
-14.88070859964519 2.943278728078082 11.47055430026602
-14.88028618423331 2.943390399468695 11.47079686182493
-14.87986376882143 2.943502070859309 11.47103942338383
-14.87944135340955 2.943613742249923 11.47128198494274
-14.87901893799767 2.943725413640537 11.47152454650165
-14.87859652258581 2.943837085031147 11.47176710806055
-14.87817410717396 2.943948756421753 11.47200966961944
-14.87775169176211 2.944060427812359 11.47225223117833
-14.87732927635026 2.944172099202965 11.47249479273722
-14.87690686093841 2.944283770593571 11.47273735429611
-14.87648444552656 2.944395441984176 11.472979915855
-14.87606203011471 2.944507113374782 11.47322247741389
-14.87563961470287 2.944618784765388 11.47346503897278
-14.87521719929102 2.944730456155994 11.47370760053167
-14.87479478387917 2.944842127546599 11.47395016209056
-14.87437236846732 2.944953798937205 11.47419272364945
-14.87394995305547 2.945065470327811 11.47443528520834
-14.87352753764362 2.945177141718417 11.47467784676723
-14.87310512223177 2.945288813109023 11.47492040832612
-14.87268270681992 2.945400484499629 11.47516296988501
-14.87226029140808 2.945512155890234 11.4754055314439
-14.87183787599623 2.94562382728084 11.47564809300279
-14.87141546058438 2.945735498671446 11.47589065456168
-14.87099304517253 2.945847170062052 11.47613321612057
-14.87057062976068 2.945958841452658 11.47637577767946
-14.87014821434883 2.946070512843264 11.47661833923835
-14.86972579893698 2.946182184233871 11.47686090079724
-14.86930338352513 2.946293855624477 11.47710346235614
-14.86888096811328 2.946405527015084 11.47734602391503
-14.86845855270143 2.94651719840569 11.47758858547392
-14.86803613728958 2.946628869796296 11.47783114703281
-14.86761372187773 2.946740541186903 11.4780737085917
-14.86719130646587 2.946852212577509 11.47831627015059
-14.86676889105402 2.946963883968115 11.47855883170948
-14.86634647564217 2.947075555358722 11.47880139326837
-14.86592406023032 2.947187226749328 11.47904395482726
-14.86550164481847 2.947298898139934 11.47928651638616
-14.86507922940662 2.94741056953054 11.47952907794505
-14.86465681399477 2.947522240921146 11.47977163950394
-14.86423439858292 2.947633912311753 11.48001420106283
-14.86381198317107 2.94774558370236 11.48025676262172
-14.8633895677592 2.94785725509297 11.48049932418062
-14.86296715234734 2.94796892648358 11.48074188573952
-14.86254473693547 2.948080597874191 11.48098444729842
-14.8621223215236 2.948192269264802 11.48122700885732
-14.86169990611174 2.948303940655412 11.48146957041622
-14.86127749069987 2.948415612046023 11.48171213197512
-14.860855075288 2.948527283436633 11.48195469353402
-14.86043265987614 2.948638954827244 11.48219725509292
-14.86001024446427 2.948750626217854 11.48243981665182
-14.8595878290524 2.948862297608465 11.48268237821072
-14.85916541364054 2.948973968999076 11.48292493976962
-14.85874299822867 2.949085640389686 11.48316750132853
-14.8583205828168 2.949197311780297 11.48341006288743
-14.85789816740494 2.949308983170907 11.48365262444633
-14.85747575199307 2.949420654561518 11.48389518600523
-14.8570533365812 2.949532325952128 11.48413774756413
-14.85663092116934 2.949643997342739 11.48438030912303
-14.85620850575748 2.949755668733347 11.48462287068192
-14.85578609034563 2.949867340123953 11.48486543224081
-14.85536367493378 2.949979011514559 11.4851079937997
-14.85494125952193 2.950090682905165 11.48535055535859
-14.85451884411008 2.95020235429577 11.48559311691748
-14.85409642869823 2.950314025686377 11.48583567847637
-14.85367401328639 2.950425697076982 11.48607824003526
-14.85325159787454 2.950537368467588 11.48632080159415
-14.85282918246269 2.950649039858194 11.48656336315304
-14.85240676705084 2.9507607112488 11.48680592471193
-14.85198435163899 2.950872382639405 11.48704848627082
-14.85156193622714 2.950984054030011 11.48729104782971
-14.85113952081529 2.951095725420617 11.4875336093886
-14.85071710540345 2.951207396811223 11.48777617094749
-14.8502946899916 2.951319068201829 11.48801873250638
-14.84987227457975 2.951430739592435 11.48826129406527
-14.8494498591679 2.95154241098304 11.48850385562416
-14.84902744375605 2.951654082373646 11.48874641718305
-14.8486050283442 2.951765753764252 11.48898897874194
-14.84818261293235 2.951877425154859 11.48923154030084
-14.8477601975205 2.951989096545465 11.48947410185973
-14.84733778210865 2.952100767936071 11.48971666341862
-14.8469153666968 2.952212439326678 11.48995922497751
-14.84649295128495 2.952324110717284 11.4902017865364
-14.8460705358731 2.95243578210789 11.49044434809529
-14.84564812046125 2.952547453498497 11.49068690965418
-14.8452257050494 2.952659124889103 11.49092947121307
-14.84480328963752 2.952770796279716 11.49117203277198
-14.84438087422564 2.95288246767033 11.49141459433089
-14.84395845881376 2.952994139060944 11.4916571558898
-14.84353604340188 2.953105810451557 11.4918997174487
-14.84311362799 2.953217481842171 11.49214227900761
-14.84269121257813 2.953329153232785 11.49238484056652
-14.84226879716625 2.953440824623399 11.49262740212542
-14.84184638175437 2.953552496014012 11.49286996368433
-14.84142396634249 2.953664167404627 11.49311252524324
-14.84100155093058 2.953775838795248 11.49335508680216
-14.84057913551867 2.953887510185869 11.49359764836109
-14.84015672010677 2.953999181576491 11.49384020992001
-14.83973430469486 2.954110852967112 11.49408277147893
-14.83931188928295 2.954222524357733 11.49432533303786
-14.83888947387105 2.954334195748354 11.49456789459678
-14.83846705845914 2.954445867138975 11.4948104561557
-14.83804464304723 2.954557538529596 11.49505301771463
-14.83762222763533 2.954669209920218 11.49529557927355
-14.83719981222342 2.954780881310838 11.49553814083247
-14.83677739681151 2.95489255270146 11.4957807023914
-14.83635498139961 2.955004224092081 11.49602326395032
-14.8359325659877 2.955115895482702 11.49626582550924
-14.83551015057579 2.955227566873323 11.49650838706817
-14.83508773516389 2.955339238263945 11.49675094862709
-14.83466531975198 2.955450909654566 11.49699351018601
-14.83424290434007 2.955562581045187 11.49723607174494
-14.83382048892818 2.955674252435804 11.49747863330385
-14.8333980735163 2.955785923826417 11.49772119486276
-14.83297565810443 2.95589759521703 11.49796375642167
-14.83255324269255 2.956009266607643 11.49820631798057
-14.83213082728067 2.956120937998257 11.49844887953948
-14.8317084118688 2.95623260938887 11.49869144109838
-14.83128599645692 2.956344280779483 11.49893400265729
-14.83086358104504 2.956455952170097 11.4991765642162
-14.83044116563317 2.95656762356071 11.4994191257751
-14.83001875022131 2.956679294951318 11.499661687334
-14.82959633480946 2.956790966341924 11.49990424889289
-14.82917391939761 2.956902637732529 11.50014681045178
-14.82875150398576 2.957014309123135 11.50038937201067
-14.82832908857391 2.957125980513741 11.50063193356956
-14.82790667316207 2.957237651904347 11.50087449512845
-14.82748425775022 2.957349323294952 11.50111705668734
-14.82706184233837 2.957460994685559 11.50135961824623
-14.82663942692652 2.957572666076164 11.50160217980512
-14.82621701151467 2.957684337466771 11.50184474136401
-14.82579459610282 2.957796008857377 11.5020873029229
-14.82537218069097 2.957907680247983 11.50232986448179
-14.82494976527912 2.958019351638589 11.50257242604068
-14.82452734986727 2.958131023029196 11.50281498759957
-14.82410493445542 2.958242694419802 11.50305754915846
-14.82368251904357 2.958354365810408 11.50330011071735
-14.82326010363172 2.958466037201014 11.50354267227625
-14.82283768821986 2.958577708591621 11.50378523383514
-14.82241527280802 2.958689379982227 11.50402779539403
-14.82199285739616 2.958801051372833 11.50427035695292
-14.82157044198431 2.95891272276344 11.50451291851181
-14.82114802657246 2.959024394154046 11.5047554800707
-14.82072561116061 2.959136065544652 11.50499804162959
-14.82030319574876 2.959247736935259 11.50524060318848
-14.81988078033691 2.959359408325865 11.50548316474737
-14.81945836492506 2.959471079716471 11.50572572630627
-14.81903594951321 2.959582751107078 11.50596828786516
-14.81861353410136 2.959694422497684 11.50621084942405
-14.81819111868951 2.95980609388829 11.50645341098294
-14.81776870327766 2.959917765278896 11.50669597254183
-14.81734628786581 2.960029436669503 11.50693853410072
-14.81692387245396 2.960141108060109 11.50718109565961
-14.81650145704211 2.960252779450715 11.5074236572185
-14.81607904163026 2.960364450841321 11.50766621877739
-14.81565662621841 2.960476122231928 11.50790878033629
-14.81523421080655 2.960587793622536 11.50815134189518
-14.81481179539468 2.960699465013146 11.50839390345408
-14.81438937998282 2.960811136403757 11.50863646501298
-14.81396696457095 2.960922807794367 11.50887902657188
-14.81354454915908 2.961034479184978 11.50912158813078
-14.81312213374722 2.961146150575589 11.50936414968968
-14.81269971833535 2.961257821966199 11.50960671124858
-14.81227730292348 2.96136949335681 11.50984927280748
-14.81185488751162 2.96148116474742 11.51009183436638
-14.81143247209975 2.96159283613803 11.51033439592528
-14.81101005668789 2.961704507528641 11.51057695748418
-14.81058764127602 2.961816178919251 11.51081951904308
-14.81016522586416 2.961927850309861 11.51106208060198
-14.80974281045229 2.962039521700471 11.51130464216088
-14.80932039504043 2.962151193091081 11.51154720371978
-14.80889797962856 2.962262864481691 11.51178976527868
-14.8084755642167 2.962374535872301 11.51203232683758
-14.80805314880483 2.962486207262911 11.51227488839648
-14.80763073339298 2.962597878653518 11.51251744995537
-14.80720831798113 2.962709550044124 11.51276001151426
-14.80678590256928 2.96282122143473 11.51300257307315
-14.80636348715743 2.962932892825335 11.51324513463204
-14.80594107174559 2.963044564215941 11.51348769619093
-14.80551865633374 2.963156235606547 11.51373025774982
-14.80509624092189 2.963267906997153 11.51397281930871
-14.80467382551004 2.963379578387758 11.5142153808676
-14.80425141009819 2.963491249778365 11.51445794242649
-14.80382899468634 2.963602921168971 11.51470050398538
-14.80340657927449 2.963714592559577 11.51494306554427
-14.80298416386264 2.963826263950183 11.51518562710316
-14.80256174845079 2.963937935340789 11.51542818866205
-14.80213933303894 2.964049606731396 11.51567075022095
-14.80171691762709 2.964161278122002 11.51591331177984
-14.80129450221524 2.964272949512608 11.51615587333873
-14.80087208680339 2.964384620903215 11.51639843489762
-14.80044967139153 2.964496292293822 11.51664099645651
-14.80002725597965 2.964607963684436 11.51688355801542
-14.79960484056778 2.96471963507505 11.51712611957433
-14.7991824251559 2.964831306465663 11.51736868113323
-14.79876000974402 2.964942977856277 11.51761124269214
-14.79833759433214 2.96505464924689 11.51785380425105
-14.79791517892026 2.965166320637504 11.51809636580996
-14.79749276350838 2.965277992028118 11.51833892736886
-14.7970703480965 2.965389663418732 11.51858148892777
-14.79664793268462 2.965501334809348 11.51882405048668
-14.79622551727271 2.965613006199969 11.51906661204561
-14.7958031018608 2.96572467759059 11.51930917360453
-14.7953806864489 2.965836348981211 11.51955173516345
-14.79495827103699 2.965948020371832 11.51979429672238
-14.79453585562508 2.966059691762454 11.5200368582813
-14.79411344021318 2.966171363153075 11.52027941984022
-14.79369102480127 2.966283034543696 11.52052198139915
-14.79326860938936 2.966394705934317 11.52076454295807
-14.79284619397746 2.966506377324938 11.52100710451699
-14.79242377856555 2.966618048715559 11.52124966607592
-14.79200136315364 2.96672972010618 11.52149222763484
-14.79157894774174 2.966841391496802 11.52173478919376
-14.79115653232983 2.966953062887423 11.52197735075269
-14.79073411691792 2.967064734278044 11.52221991231161
-14.79031170150602 2.967176405668665 11.52246247387053
-14.78988928609411 2.967288077059286 11.52270503542946
-14.7894668706822 2.967399748449907 11.52294759698838
-14.78904445527031 2.967511419840524 11.52319015854729
-14.78862203985844 2.967623091231137 11.5234327201062
-14.78819962444656 2.967734762621751 11.52367528166511
-14.78777720903468 2.967846434012365 11.52391784322402
-14.7873547936228 2.96795810540298 11.52416040478293
-14.7869323782109 2.968069776793597 11.52440296634184
-14.78650996279901 2.968181448184215 11.52464552790076
-14.78608754738712 2.968293119574832 11.52488808945967
-14.78566513197523 2.96840479096545 11.52513065101859
-14.78524271656333 2.968516462356066 11.5253732125775
-14.78482030115144 2.968628133746683 11.52561577413642
-14.78439788573955 2.968739805137301 11.52585833569533
-14.78397547032766 2.968851476527917 11.52610089725424
-14.78355305491579 2.968963147918529 11.52634345881315
-14.78313063950394 2.969074819309135 11.52658602037204
-14.7827082240921 2.96918649069974 11.52682858193092
-14.78228580868025 2.969298162090345 11.52707114348981
-14.7818633932684 2.969409833480951 11.5273137050487
-14.78144097785655 2.969521504871556 11.52755626660759
-14.78101856244471 2.969633176262162 11.52779882816648
-14.78059614703286 2.969744847652768 11.52804138972537
-14.78017373162101 2.969856519043374 11.52828395128426
-14.77975131620916 2.969968190433979 11.52852651284315
-14.77932890079731 2.970079861824586 11.52876907440204
-14.77890648538546 2.970191533215191 11.52901163596093
-14.77848406997361 2.970303204605797 11.52925419751982
-14.77806165456176 2.970414875996403 11.52949675907871
-14.77763923914991 2.970526547387009 11.5297393206376
-14.77721682373806 2.970638218777616 11.5299818821965
-14.77679440832621 2.970749890168222 11.53022444375539
-14.77637199291436 2.970861561558828 11.53046700531428
-14.77594957750251 2.970973232949434 11.53070956687317
-14.77552716209066 2.971084904340041 11.53095212843206
-14.77510474667881 2.971196575730647 11.53119468999095
-14.77468233126696 2.971308247121253 11.53143725154984
-14.77425991585511 2.971419918511859 11.53167981310873
-14.77383750044326 2.971531589902466 11.53192237466762
-14.77341508503141 2.971643261293072 11.53216493622652
-14.77299266961956 2.971754932683679 11.53240749778541
-14.77257025420771 2.971866604074285 11.5326500593443
-14.77214783879586 2.971978275464891 11.53289262090319
-14.77172542338401 2.972089946855498 11.53313518246208
-14.77130300797216 2.972201618246104 11.53337774402097
-14.7708805925603 2.97231328963671 11.53362030557986
-14.77045817714846 2.972424961027316 11.53386286713875
-14.7700357617366 2.972536632417923 11.53410542869764
-14.76961334632475 2.972648303808529 11.53434799025654
-14.7691909309129 2.972759975199135 11.53459055181543
-14.76876851550105 2.972871646589741 11.53483311337432
-14.7683461000892 2.972983317980348 11.53507567493321
-14.76792368467735 2.973094989370954 11.5353182364921
-14.7675012692655 2.97320666076156 11.53556079805099
-14.76707885385365 2.973318332152167 11.53580335960988
-14.7666564384418 2.973430003542772 11.53604592116877
-14.76623402302995 2.973541674933379 11.53628848272766
-14.7658116076181 2.973653346323984 11.53653104428655
-14.76538919220626 2.97376501771459 11.53677360584544
-14.76496677679441 2.973876689105196 11.53701616740433
-14.76454436138256 2.973988360495802 11.53725872896322
-14.76412194597071 2.974100031886407 11.53750129052211
-14.76369953055886 2.974211703277013 11.537743852081
-14.76327711514701 2.974323374667619 11.53798641363989
-14.76285469973515 2.974435046058228 11.53822897519879
-14.76243228432329 2.974546717448838 11.53847153675769
-14.76200986891143 2.974658388839448 11.53871409831659
-14.76158745349956 2.974770060230057 11.53895665987549
-14.7611650380877 2.974881731620667 11.53919922143438
-14.76074262267584 2.974993403011276 11.53944178299328
-14.76032020726397 2.975105074401886 11.53968434455218
-14.75989779185211 2.975216745792495 11.53992690611108
-14.75947537644025 2.975328417183105 11.54016946766998
-14.75905296102838 2.975440088573715 11.54041202922888
-14.75863054561652 2.975551759964325 11.54065459078778
-14.75820813020465 2.975663431354935 11.54089715234668
-14.75778571479279 2.975775102745545 11.54113971390557
-14.75736329938092 2.975886774136155 11.54138227546447
-14.75694088396906 2.975998445526765 11.54162483702337
-14.75651846855719 2.976110116917376 11.54186739858227
-14.75609605314533 2.976221788307985 11.54210996014117
-14.75567363773347 2.976333459698595 11.54235252170007
-14.75525122232162 2.976445131089201 11.54259508325896
-14.75482880690977 2.976556802479807 11.54283764481785
-14.75440639149792 2.976668473870413 11.54308020637674
-14.75398397608607 2.97678014526102 11.54332276793563
-14.75356156067422 2.976891816651626 11.54356532949453
-14.75313914526236 2.977003488042232 11.54380789105342
-14.75271672985051 2.977115159432838 11.54405045261231
-14.75229431443866 2.977226830823445 11.5442930141712
-14.7518718990268 2.977338502214055 11.5445355757301
-14.75144948361492 2.977450173604668 11.544778137289
-14.75102706820304 2.977561844995282 11.54502069884791
-14.75060465279116 2.977673516385896 11.54526326040682
-14.75018223737929 2.977785187776509 11.54550582196573
-14.74975982196741 2.977896859167123 11.54574838352463
-14.74933740655553 2.978008530557737 11.54599094508354
-14.74891499114365 2.978120201948351 11.54623350664245
-14.74849257573177 2.978231873338964 11.54647606820135
-14.74807016031987 2.978343544729583 11.54671862976027
-14.74764774490797 2.978455216120204 11.54696119131919
-14.74722532949606 2.978566887510825 11.54720375287812
-14.74680291408415 2.978678558901446 11.54744631443704
-14.74638049867225 2.978790230292068 11.54768887599597
-14.74595808326034 2.978901901682689 11.54793143755489
-14.74553566784843 2.97901357307331 11.54817399911381
-14.74511325243653 2.979125244463931 11.54841656067274
-14.74469083702462 2.979236915854552 11.54865912223166
-14.74426842161272 2.979348587245173 11.54890168379058
-14.74384600620081 2.979460258635794 11.5491442453495
-14.74342359078891 2.979571930026414 11.54938680690843
-14.743001175377 2.979683601417035 11.54962936846735
-14.7425787599651 2.979795272807656 11.54987193002627
-14.74215634455319 2.979906944198276 11.55011449158519
-14.74173392914129 2.980018615588897 11.55035705314411
-14.74131151372938 2.980130286979517 11.55059961470304
-14.74088909831748 2.980241958370138 11.55084217626196
-14.74046668290557 2.980353629760758 11.55108473782088
-14.74004426749367 2.980465301151379 11.5513272993798
-14.73962185208177 2.980576972541999 11.55156986093872
-14.73919943666986 2.980688643932619 11.55181242249765
-14.73877702125796 2.980800315323239 11.55205498405657
-14.73835460584606 2.980911986713859 11.55229754561549
-14.73793219043416 2.981023658104479 11.55254010717441
-14.73750977502225 2.9811353294951 11.55278266873333
-14.73708735961035 2.981247000885718 11.55302523029225
-14.73666494419848 2.981358672276332 11.55326779185116
-14.7362425287866 2.981470343666945 11.55351035341006
-14.73582011337473 2.981582015057558 11.55375291496897
-14.73539769796285 2.981693686448172 11.55399547652787
-14.73497528255097 2.981805357838784 11.55423803808678
-14.73455286713909 2.981917029229398 11.55448059964569
-14.73413045172722 2.982028700620011 11.55472316120459
-14.73370803631534 2.982140372010624 11.5549657227635
-14.73328562090347 2.982252043401235 11.5552082843224
-14.73286320549162 2.982363714791841 11.55545084588129
-14.73244079007977 2.982475386182448 11.55569340744018
-14.73201837466792 2.982587057573054 11.55593596899907
-14.73159595925607 2.98269872896366 11.55617853055796
-14.73117354384422 2.982810400354266 11.55642109211685
-14.73075112843237 2.982922071744873 11.55666365367574
-14.73032871302052 2.983033743135479 11.55690621523464
-14.72990629760867 2.983145414526085 11.55714877679353
-14.72948388219682 2.983257085916692 11.55739133835242
-14.72906146678497 2.983368757307298 11.55763389991131
-14.72863905137312 2.983480428697904 11.5578764614702
-14.72821663596127 2.983592100088511 11.55811902302909
-14.72779422054942 2.983703771479117 11.55836158458798
-14.72737180513757 2.983815442869723 11.55860414614687
-14.72694938972572 2.983927114260329 11.55884670770577
-14.72652697431386 2.984038785650936 11.55908926926466
-14.72610455890202 2.984150457041542 11.55933183082355
-14.72568214349016 2.984262128432148 11.55957439238244
-14.72525972807831 2.984373799822754 11.55981695394133
-14.72483731266646 2.984485471213361 11.56005951550022
-14.72441489725461 2.984597142603967 11.56030207705911
-14.72399248184276 2.984708813994573 11.560544638618
-14.72357006643091 2.98482048538518 11.56078720017689
-14.72314765101906 2.984932156775786 11.56102976173579
-14.72272523560721 2.985043828166392 11.56127232329468
-14.72230282019536 2.985155499556999 11.56151488485357
-14.72188040478351 2.985267170947605 11.56175744641246
-14.72145798937166 2.985378842338211 11.56200000797135
-14.72103557395981 2.985490513728818 11.56224256953024
-14.72061315854796 2.985602185119424 11.56248513108913
-14.72019074313611 2.98571385651003 11.56272769264802
-14.71976832772426 2.985825527900636 11.56297025420692
-14.71934591231241 2.985937199291243 11.56321281576581
-14.71892349690056 2.986048870681849 11.5634553773247
-14.71850108148871 2.986160542072455 11.56369793888359
-14.71807866607686 2.986272213463061 11.56394050044248
-14.71765625066501 2.986383884853667 11.56418306200137
-14.71723383525316 2.986495556244273 11.56442562356026
-14.71681141984131 2.986607227634878 11.56466818511915
-14.71638900442946 2.986718899025484 11.56491074667804
-14.71596658901762 2.98683057041609 11.56515330823693
-14.71554417360577 2.986942241806696 11.56539586979582
-14.71512175819392 2.987053913197302 11.56563843135471
-14.71469934278206 2.987165584587909 11.5658809929136
-14.7142769273702 2.987277255978519 11.5661235544725
-14.71385451195833 2.987388927369129 11.5663661160314
-14.71343209654647 2.987500598759739 11.5666086775903
-14.7130096811346 2.987612270150349 11.5668512391492
-14.71258726572274 2.987723941540959 11.5670938007081
-14.71216485031088 2.987835612931569 11.567336362267
-14.71174243489901 2.987947284322179 11.5675789238259
-14.71132001948714 2.988058955712789 11.5678214853848
-14.71089760407528 2.9881706271034 11.56806404694369
-14.71047518866341 2.98828229849401 11.5683066085026
-14.71005277325155 2.98839396988462 11.5685491700615
-14.70963035783968 2.988505641275231 11.5687917316204
-14.70920794242781 2.988617312665842 11.5690342931793
-14.70878552701595 2.988728984056452 11.5692768547382
-14.70836311160408 2.988840655447063 11.5695194162971
-14.70794069619221 2.988952326837673 11.569761977856
-14.70751828078035 2.989063998228284 11.5700045394149
-14.70709586536849 2.989175669618892 11.57024710097379
-14.70667344995664 2.989287341009498 11.57048966253268
-14.70625103454479 2.989399012400105 11.57073222409158
-14.70582861913294 2.989510683790711 11.57097478565047
-14.70540620372109 2.989622355181317 11.57121734720936
-14.70498378830924 2.989734026571923 11.57145990876825
-14.70456137289739 2.989845697962529 11.57170247032714
-14.70413895748554 2.989957369353136 11.57194503188603
-14.70371654207369 2.990069040743742 11.57218759344492
-14.70329412666181 2.990180712134355 11.57243015500383
-14.70287171124994 2.990292383524968 11.57267271656273
-14.70244929583806 2.990404054915582 11.57291527812164
-14.70202688042618 2.990515726306195 11.57315783968055
-14.7016044650143 2.990627397696809 11.57340040123946
-14.70118204960242 2.990739069087423 11.57364296279836
-14.70075963419054 2.990850740478037 11.57388552435727
-14.70033721877866 2.99096241186865 11.57412808591618
-14.69991480336678 2.991074083259264 11.57437064747508
-14.69949238795488 2.991185754649885 11.57461320903401
-14.69906997254297 2.991297426040506 11.57485577059293
-14.69864755713106 2.991409097431128 11.57509833215185
-14.69822514171916 2.991520768821749 11.57534089371078
-14.69780272630725 2.99163244021237 11.5755834552697
-14.69738031089534 2.991744111602991 11.57582601682862
-14.69695789548344 2.991855782993612 11.57606857838755
-14.69653548007153 2.991967454384233 11.57631113994647
-14.69611306465963 2.992079125774854 11.57655370150539
-14.69569064924772 2.992190797165475 11.57679626306432
-14.69526823383582 2.992302468556096 11.57703882462324
-14.69484581842391 2.992414139946717 11.57728138618216
-14.694423403012 2.992525811337337 11.57752394774108
-14.6940009876001 2.992637482727958 11.57776650930001
-14.6935785721882 2.992749154118578 11.57800907085893
-14.69315615677629 2.992860825509199 11.57825163241785
-14.69273374136439 2.99297249689982 11.57849419397677
-14.69231132595248 2.99308416829044 11.57873675553569
-14.69188891054058 2.993195839681061 11.57897931709462
-14.69146649512867 2.993307511071682 11.57922187865354
-14.69104407971677 2.993419182462302 11.57946444021246
-14.69062166430486 2.993530853852923 11.57970700177138
-14.69019924889296 2.993642525243544 11.57994956333031
-14.68977683348105 2.993754196634165 11.58019212488923
-14.68935441806915 2.993865868024785 11.58043468644815
-14.68893200265724 2.993977539415406 11.58067724800707
-14.68850958724534 2.994089210806025 11.58091980956599
-14.68808717183345 2.994200882196643 11.58116237112491
-14.68766475642155 2.994312553587261 11.58140493268383
-14.68724234100966 2.994424224977879 11.58164749424274
-14.68681992559776 2.994535896368497 11.58189005580166
-14.68639751018587 2.994647567759115 11.58213261736057
-14.68597509477397 2.994759239149733 11.58237517891949
-14.68555267936208 2.994870910540351 11.58261774047841
-14.68513026395019 2.994982581930969 11.58286030203733
-14.68470784853831 2.995094253321581 11.58310286359623
-14.68428543312644 2.995205924712192 11.58334542515513
-14.68386301771458 2.995317596102803 11.58358798671403
-14.68344060230271 2.995429267493413 11.58383054827293
-14.68301818689084 2.995540938884024 11.58407310983183
-14.68259577147898 2.995652610274635 11.58431567139073
-14.68217335606711 2.995764281665245 11.58455823294963
-14.68175094065524 2.995875953055855 11.58480079450853
-14.68132852524338 2.995987624446466 11.58504335606743
-14.68090610983152 2.996099295837073 11.58528591762632
-14.68048369441967 2.996210967227679 11.58552847918522
-14.68006127900782 2.996322638618286 11.58577104074411
-14.67963886359597 2.996434310008892 11.586013602303
-14.67921644818412 2.996545981399498 11.58625616386189
-14.67879403277227 2.996657652790105 11.58649872542078
-14.67837161736042 2.996769324180711 11.58674128697967
-14.67794920194857 2.996880995571317 11.58698384853856
-14.67752678653672 2.996992666961923 11.58722641009745
-14.67710437112487 2.99710433835253 11.58746897165634
-14.67668195571302 2.997216009743136 11.58771153321524
-14.67625954030117 2.997327681133742 11.58795409477413
-14.67583712488932 2.997439352524348 11.58819665633302
-14.67541470947747 2.997551023914955 11.58843921789191
-14.67499229406562 2.997662695305561 11.5886817794508
-14.67456987865377 2.997774366696167 11.58892434100969
-14.67414746324192 2.997886038086774 11.58916690256858
-14.67372504783007 2.99799770947738 11.58940946412747
-14.67330263241822 2.998109380867986 11.58965202568636
-14.67288021700637 2.998221052258591 11.58989458724525
-14.67245780159452 2.998332723649197 11.59013714880414
-14.67203538618267 2.998444395039803 11.59037971036303
-14.67161297077082 2.998556066430409 11.59062227192192
-14.67119055535897 2.998667737821015 11.59086483348081
-14.67076813994712 2.99877940921162 11.5911073950397
-14.67034572453528 2.998891080602226 11.59134995659859
-14.66992330912343 2.999002751992832 11.59159251815748
-14.66950089371158 2.999114423383438 11.59183507971637
-14.66907847829973 2.999226094774043 11.59207764127526
-14.66865606288788 2.99933776616465 11.59232020283415
-14.66823364747603 2.999449437555255 11.59256276439304
-14.66781123206419 2.999561108945861 11.59280532595193
-14.66738881665234 2.999672780336467 11.59304788751082
-14.66696640124049 2.999784451727073 11.59329044906971
-14.66654398582864 2.999896123117678 11.5935330106286
-14.66612157041679 3.000007794508285 11.59377557218749
-14.66569915500494 3.000119465898891 11.59401813374639
-14.66527673959309 3.000231137289497 11.59426069530528
-14.66485432418124 3.000342808680104 11.59450325686417
-14.66443190876939 3.00045448007071 11.59474581842306
-14.66400949335754 3.000566151461316 11.59498837998195
-14.66358707794569 3.000677822851922 11.59523094154084
-14.66316466253384 3.000789494242528 11.59547350309973
-14.66274224712198 3.000901165633135 11.59571606465862
-14.66231983171014 3.001012837023741 11.59595862621751
-14.66189741629828 3.001124508414347 11.59620118777641
-14.66147500088643 3.001236179804954 11.5964437493353
-14.66105258547458 3.00134785119556 11.59668631089419
-14.66063017006273 3.001459522586166 11.59692887245308
-14.66020775465088 3.001571193976773 11.59717143401197
-14.65978533923903 3.001682865367379 11.59741399557086
-14.65936292382718 3.001794536757985 11.59765655712975
-14.65894050841533 3.001906208148592 11.59789911868864
-14.65851809300348 3.002017879539198 11.59814168024753
-14.65809567759163 3.002129550929804 11.59838424180643
-14.65767326217978 3.00224122232041 11.59862680336532
-14.65725084676793 3.002352893711017 11.59886936492421
-14.65682843135608 3.002464565101623 11.5991119264831
-14.65640601594423 3.002576236492229 11.59935448804199
-14.65598360053238 3.002687907882835 11.59959704960088
-14.65556118512053 3.002799579273442 11.59983961115977
-14.65513876970867 3.002911250664049 11.60008217271867
-14.65471635429679 3.003022922054663 11.60032473427757
-14.65429393888492 3.003134593445277 11.60056729583648
-14.65387152347304 3.00324626483589 11.60080985739539
-14.65344910806116 3.003357936226504 11.60105241895429
-14.65302669264928 3.003469607617118 11.6012949805132
-14.6526042772374 3.003581279007732 11.60153754207211
-14.65218186182552 3.003692950398345 11.60178010363102
-14.65175944641364 3.003804621788959 11.60202266518992
-14.65133703100176 3.003916293179575 11.60226522674884
-14.65091461558985 3.004027964570195 11.60250778830776
-14.65049220017795 3.004139635960816 11.60275034986668
-14.65006978476604 3.004251307351437 11.6029929114256
-14.64964736935414 3.004362978742058 11.60323547298453
-14.64922495394223 3.004474650132678 11.60347803454345
-14.64880253853033 3.004586321523299 11.60372059610237
-14.64838012311842 3.00469799291392 11.60396315766129
-14.64795770770652 3.00480966430454 11.60420571922021
-14.64753529229461 3.004921335695161 11.60444828077914
-14.64711287688271 3.005033007085782 11.60469084233806
-14.6466904614708 3.005144678476402 11.60493340389698
-14.6462680460589 3.005256349867023 11.6051759654559
-14.64584563064699 3.005368021257643 11.60541852701483
-14.64542321523509 3.005479692648264 11.60566108857375
-14.64500079982318 3.005591364038885 11.60590365013267
-14.64457838441128 3.005703035429506 11.60614621169159
-14.64415596899937 3.005814706820126 11.60638877325052
-14.64373355358747 3.005926378210747 11.60663133480944
-14.64331113817556 3.006038049601369 11.60687389636836
-14.64288872276365 3.006149720991989 11.60711645792728
-14.64246630735175 3.006261392382611 11.60735901948621
-14.64204389193984 3.006373063773232 11.60760158104513
-14.64162147652793 3.006484735163853 11.60784414260406
-14.64119906111603 3.006596406554474 11.60808670416298
-14.64077664570412 3.006708077945095 11.6083292657219
-14.64035423029221 3.006819749335716 11.60857182728083
-14.63993181488032 3.006931420726335 11.60881438883974
-14.63950939946842 3.007043092116953 11.60905695039866
-14.63908698405653 3.007154763507571 11.60929951195758
-14.63866456864463 3.007266434898189 11.60954207351649
-14.63824215323274 3.007378106288807 11.60978463507541
-14.63781973782084 3.007489777679425 11.61002719663433
-14.63739732240895 3.007601449070043 11.61026975819324
-14.63697490699705 3.007713120460661 11.61051231975216
-14.63655249158516 3.007824791851279 11.61075488131108
-14.63613007617329 3.007936463241889 11.61099744286997
-14.63570766076143 3.008048134632499 11.61124000442888
-14.63528524534956 3.00815980602311 11.61148256598778
-14.63486282993769 3.008271477413721 11.61172512754668
-14.63444041452583 3.008383148804331 11.61196768910558
-14.63401799911396 3.008494820194942 11.61221025066448
-14.63359558370209 3.008606491585553 11.61245281222338
-14.63317316829023 3.008718162976163 11.61269537378228
-14.63275075287837 3.008829834366773 11.61293793534118
-14.63232833746651 3.008941505757379 11.61318049690007
-14.63190592205466 3.009053177147985 11.61342305845896
-14.63148350664281 3.009164848538592 11.61366562001785
-14.63106109123096 3.009276519929198 11.61390818157674
-14.63063867581911 3.009388191319804 11.61415074313563
-14.63021626040726 3.009499862710411 11.61439330469452
-14.62979384499541 3.009611534101017 11.61463586625341
-14.62937142958356 3.009723205491623 11.61487842781231
-14.62894901417171 3.009834876882229 11.6151209893712
-14.62852659875986 3.009946548272835 11.61536355093009
-14.62810418334801 3.010058219663441 11.61560611248898
-14.62768176793617 3.010169891054046 11.61584867404787
-14.62725935252432 3.010281562444652 11.61609123560676
-14.62683693711247 3.010393233835258 11.61633379716565
-14.62641452170062 3.010504905225864 11.61657635872454
-14.62599210628877 3.01061657661647 11.61681892028343
-14.62556969087692 3.010728248007076 11.61706148184232
-14.62514727546507 3.010839919397681 11.61730404340121
-14.62472486005322 3.010951590788287 11.6175466049601
-14.62430244464138 3.011063262178893 11.61778916651899
-14.62388002922953 3.011174933569499 11.61803172807788
-14.62345761381768 3.011286604960104 11.61827428963677
-14.62303519840583 3.01139827635071 11.61851685119566
-14.62261278299398 3.011509947741316 11.61875941275455
-14.62219036758213 3.011621619131922 11.61900197431344
-14.62176795217028 3.011733290522528 11.61924453587233
-14.62134553675843 3.011844961913134 11.61948709743122
-14.62092312134658 3.01195663330374 11.61972965899011
-14.62050070593473 3.012068304694346 11.619972220549
-14.62007829052288 3.012179976084953 11.62021478210789
-14.61965587511103 3.012291647475559 11.62045734366678
-14.61923345969918 3.012403318866165 11.62069990522567
-14.61881104428733 3.012514990256772 11.62094246678456
-14.61838862887548 3.012626661647378 11.62118502834346
-14.61796621346363 3.012738333037984 11.62142758990235
-14.61754379805178 3.012850004428591 11.62167015146124
-14.61712138263993 3.012961675819197 11.62191271302013
-14.61669896722808 3.013073347209803 11.62215527457902
-14.61627655181623 3.013185018600409 11.62239783613791
-14.61585413640438 3.013296689991016 11.6226403976968
-14.61543172099253 3.013408361381622 11.62288295925569
-14.61500930558068 3.013520032772228 11.62312552081458
-14.61458689016882 3.013631704162834 11.62336808237348
-14.61416447475697 3.013743375553442 11.62361064393237
-14.61374205934511 3.013855046944052 11.62385320549127
-14.61331964393324 3.013966718334662 11.62409576705017
-14.61289722852137 3.014078389725273 11.62433832860907
-14.61247481310951 3.014190061115884 11.62458089016797
-14.61205239769764 3.014301732506494 11.62482345172687
-14.61162998228577 3.014413403897105 11.62506601328577
-14.61120756687391 3.014525075287716 11.62530857484467
-14.61078515146204 3.014636746678326 11.62555113640357
-14.61036273605017 3.014748418068939 11.62579369796248
-14.60994032063827 3.014860089459557 11.62603625952139
-14.60951790522638 3.014971760850174 11.62627882108031
-14.60909548981448 3.015083432240793 11.62652138263923
-14.60867307440259 3.01519510363141 11.62676394419814
-14.60825065899069 3.015306775022029 11.62700650575706
-14.6078282435788 3.015418446412647 11.62724906731597
-14.6074058281669 3.015530117803265 11.62749162887489
-14.60698341275501 3.015641789193883 11.62773419043381
-14.60656099734311 3.015753460584502 11.62797675199273
-14.6061385819312 3.015865131975123 11.62821931355165
-14.6057161665193 3.015976803365743 11.62846187511057
-14.60529375110739 3.016088474756364 11.62870443666949
-14.60487133569549 3.016200146146984 11.62894699822842
-14.60444892028358 3.016311817537605 11.62918955978734
-14.60402650487168 3.016423488928226 11.62943212134626
-14.60360408945977 3.016535160318846 11.62967468290518
-14.60318167404787 3.016646831709467 11.62991724446411
-14.60275925863596 3.016758503100088 11.63015980602303
-14.60233684322406 3.016870174490708 11.63040236758195
-14.60191442781215 3.016981845881329 11.63064492914087
-14.60149201240025 3.01709351727195 11.63088749069979
-14.60106959698834 3.017205188662571 11.63113005225872
-14.60064718157644 3.017316860053191 11.63137261381764
-14.60022476616454 3.017428531443812 11.63161517537656
-14.59980235075263 3.017540202834432 11.63185773693548
-14.59937993534072 3.017651874225053 11.63210029849441
-14.59895751992882 3.017763545615674 11.63234286005333
-14.59853510451691 3.017875217006295 11.63258542161225
-14.598112689105 3.017986888396917 11.63282798317118
-14.5976902736931 3.018098559787537 11.6330705447301
-14.59726785828119 3.018210231178159 11.63331310628902
-14.59684544286929 3.01832190256878 11.63355566784795
-14.59642302745738 3.018433573959401 11.63379822940687
-14.59600061204547 3.018545245350022 11.63404079096579
-14.59557819663357 3.018656916740643 11.63428335252472
-14.59515578122169 3.018768588131257 11.63452591408362
-14.59473336580981 3.018880259521871 11.63476847564253
-14.59431095039793 3.018991930912485 11.63501103720144
-14.59388853498605 3.019103602303098 11.63525359876034
-14.59346611957417 3.019215273693712 11.63549616031925
-14.59304370416229 3.019326945084325 11.63573872187816
-14.59262128875041 3.019438616474939 11.63598128343707
-14.59219887333854 3.019550287865553 11.63622384499597
-14.59177645792666 3.019661959256165 11.63646640655488
-14.59135404251481 3.019773630646772 11.63670896811377
-14.59093162710296 3.019885302037378 11.63695152967266
-14.59050921169111 3.019996973427984 11.63719409123155
-14.59008679627926 3.020108644818591 11.63743665279044
-14.58966438086741 3.020220316209197 11.63767921434934
-14.58924196545556 3.020331987599803 11.63792177590823
-14.58881955004371 3.02044365899041 11.63816433746712
-14.58839713463186 3.020555330381016 11.63840689902601
-14.58797471922 3.020667001771624 11.6386494605849
-14.58755230380814 3.020778673162234 11.6388920221438
-14.58712988839627 3.020890344552845 11.6391345837027
-14.5867074729844 3.021002015943455 11.6393771452616
-14.58628505757254 3.021113687334066 11.6396197068205
-14.58586264216067 3.021225358724676 11.6398622683794
-14.5854402267488 3.021337030115287 11.6401048299383
-14.58501781133694 3.021448701505897 11.6403473914972
-14.58459539592507 3.021560372896508 11.64058995305611
-14.5841729805132 3.021672044287118 11.640832514615
-14.58375056510134 3.021783715677728 11.64107507617391
-14.58332814968947 3.021895387068338 11.6413176377328
-14.58290573427761 3.022007058458949 11.6415601992917
-14.58248331886574 3.022118729849558 11.6418027608506
-14.58206090345388 3.022230401240169 11.6420453224095
-14.58163848804202 3.022342072630779 11.6422878839684
-14.58121607263015 3.022453744021389 11.6425304455273
-14.58079365721829 3.022565415411999 11.6427730070862
-14.58037124180643 3.022677086802606 11.64301556864509
-14.57994882639458 3.022788758193212 11.64325813020398
-14.57952641098274 3.022900429583817 11.64350069176287
-14.57910399557089 3.023012100974423 11.64374325332176
-14.57868158015904 3.023123772365029 11.64398581488065
-14.57825916474719 3.023235443755635 11.64422837643954
-14.57783674933534 3.023347115146241 11.64447093799843
-14.57741433392349 3.023458786536847 11.64471349955732
-14.57699191851164 3.023570457927452 11.64495606111621
-14.57656950309979 3.023682129318058 11.6451986226751
-14.57614708768794 3.023793800708665 11.645441184234
-14.57572467227609 3.023905472099271 11.64568374579289
-14.57530225686424 3.024017143489877 11.64592630735178
-14.57487984145239 3.024128814880484 11.64616886891067
-14.57445742604054 3.02424048627109 11.64641143046956
-14.57403501062869 3.024352157661696 11.64665399202845
-14.57361259521684 3.024463829052303 11.64689655358734
-14.57319017980499 3.024575500442909 11.64713911514623
-14.57276776439314 3.024687171833515 11.64738167670512
-14.57234534898129 3.024798843224121 11.64762423826402
-14.57192293356944 3.024910514614728 11.64786679982291
-14.57150051815759 3.025022186005334 11.6481093613818
-14.57107810274574 3.02513385739594 11.64835192294069
-14.57065568733389 3.025245528786547 11.64859448449958
-14.57023327192204 3.025357200177153 11.64883704605847
-14.56981085651019 3.025468871567759 11.64907960761736
-14.56938844109833 3.025580542958366 11.64932216917625
-14.56896602568649 3.025692214348972 11.64956473073514
-14.56854361027463 3.025803885739578 11.64980729229404
-14.56812119486278 3.025915557130185 11.65004985385293
-14.56769877945093 3.026027228520791 11.65029241541182
-14.56727636403908 3.026138899911397 11.65053497697071
-14.56685394862723 3.026250571302003 11.6507775385296
-14.56643153321538 3.026362242692609 11.65102010008849
-14.56600911780353 3.026473914083216 11.65126266164738
-14.56558670239168 3.026585585473822 11.65150522320627
-14.56516428697983 3.026697256864428 11.65174778476516
-14.56474187156798 3.026808928255035 11.65199034632406
-14.56431945615613 3.026920599645641 11.65223290788295
-14.56389704074428 3.027032271036247 11.65247546944184
-14.56347462533243 3.027143942426854 11.65271803100073
-14.56305220992058 3.02725561381746 11.65296059255962
-14.56262979450873 3.027367285208066 11.65320315411851
-14.56220737909688 3.027478956598673 11.6534457156774
-14.561784963685 3.027590627989286 11.65368827723631
-14.56136254827311 3.027702299379903 11.65393083879522
-14.56094013286121 3.027813970770521 11.65417340035414
-14.56051771744932 3.027925642161138 11.65441596191305
-14.56009530203743 3.028037313551756 11.65465852347197
-14.55967288662553 3.028148984942373 11.65490108503088
-14.55925047121364 3.028260656332991 11.6551436465898
-14.55882805580175 3.028372327723608 11.65538620814872
-14.55840564038986 3.028483999114226 11.65562876970763
-14.55798322497794 3.02859567050485 11.65587133126656
-14.55756080956602 3.028707341895474 11.65611389282549
-14.5571383941541 3.028819013286099 11.65635645438442
-14.55671597874218 3.028930684676724 11.65659901594336
-14.55629356333026 3.029042356067349 11.65684157750229
-14.55587114791834 3.029154027457974 11.65708413906122
-14.55544873250641 3.029265698848599 11.65732670062015
-14.55502631709449 3.029377370239224 11.65756926217908
-14.55460390168257 3.029489041629849 11.65781182373801
-14.55418148627067 3.02960071302047 11.65805438529694
-14.55375907085876 3.029712384411091 11.65829694685586
-14.55333665544685 3.029824055801712 11.65853950841478
-14.55291424003495 3.029935727192334 11.65878206997371
-14.55249182462304 3.030047398582955 11.65902463153263
-14.55206940921113 3.030159069973576 11.65926719309155
-14.55164699379923 3.030270741364197 11.65950975465048
-14.55122457838732 3.030382412754818 11.6597523162094
-14.55080216297541 3.030494084145439 11.65999487776832
-14.55037974756351 3.03060575553606 11.66023743932725
-14.5499573321516 3.030717426926682 11.66048000088617
-14.54953491673969 3.030829098317303 11.66072256244509
-14.54911250132779 3.030940769707924 11.66096512400402
-14.54869008591588 3.031052441098545 11.66120768556294
-14.54826767050397 3.031164112489166 11.66145024712186
-14.54784525509207 3.031275783879787 11.66169280868079
-14.54742283968016 3.031387455270409 11.66193537023971
-14.54700042426826 3.031499126661027 11.66217793179863
-14.54657800885638 3.031610798051641 11.66242049335754
-14.5461555934445 3.031722469442255 11.66266305491644
-14.54573317803263 3.031834140832868 11.66290561647535
-14.54531076262075 3.031945812223482 11.66314817803426
-14.54488834720887 3.032057483614095 11.66339073959317
-14.54446593179699 3.032169155004709 11.66363330115207
-14.54404351638511 3.032280826395323 11.66387586271098
-14.54362110097323 3.032392497785937 11.66411842426989
-14.54319868556137 3.032504169176546 11.66436098582878
-14.54277627014952 3.032615840567153 11.66460354738768
-14.54235385473767 3.032727511957759 11.66484610894657
-14.54193143932582 3.032839183348365 11.66508867050546
-14.54150902391397 3.032950854738972 11.66533123206435
-14.54108660850212 3.033062526129578 11.66557379362324
-14.54066419309027 3.033174197520184 11.66581635518213
-14.54024177767842 3.033285868910791 11.66605891674102
-14.53981936226656 3.033397540301397 11.66630147829991
-14.5393969468547 3.033509211692006 11.66654403985881
-14.53897453144284 3.033620883082617 11.66678660141771
-14.53855211603097 3.033732554473227 11.66702916297661
-14.5381297006191 3.033844225863838 11.66727172453551
-14.53770728520724 3.033955897254448 11.66751428609441
-14.53728486979537 3.034067568645059 11.66775684765331
-14.5368624543835 3.03417924003567 11.66799940921221
-14.53644003897164 3.03429091142628 11.66824197077111
-14.53601762355977 3.034402582816891 11.66848453233001
-14.5355952081479 3.034514254207501 11.66872709388891
-14.53517279273604 3.034625925598111 11.66896965544781
-14.53475037732417 3.034737596988721 11.66921221700671
-14.53432796191231 3.034849268379331 11.66945477856561
-14.53390554650045 3.034960939769941 11.66969734012451
-14.53348313108858 3.035072611160551 11.66993990168341
-14.53306071567672 3.035184282551161 11.67018246324231
-14.53263830026485 3.035295953941771 11.67042502480121
-14.53221588485299 3.035407625332381 11.67066758636011
-14.53179346944114 3.035519296722987 11.670910147919
-14.53137105402929 3.035630968113593 11.67115270947789
-14.53094863861744 3.035742639504198 11.67139527103678
-14.53052622320559 3.035854310894804 11.67163783259567
-14.53010380779375 3.03596598228541 11.67188039415456
-14.5296813923819 3.036077653676016 11.67212295571345
-14.52925897697005 3.036189325066622 11.67236551727234
-14.5288365615582 3.036300996457228 11.67260807883123
-14.52841414614635 3.036412667847833 11.67285064039012
-14.5279917307345 3.03652433923844 11.67309320194901
-14.52756931532265 3.036636010629046 11.6733357635079
-14.5271468999108 3.036747682019652 11.67357832506679
-14.52672448449895 3.036859353410259 11.67382088662568
-14.5263020690871 3.036971024800865 11.67406344818457
-14.52587965367525 3.037082696191471 11.67430600974346
-14.5254572382634 3.037194367582078 11.67454857130236
-14.52503482285154 3.037306038972684 11.67479113286125
-14.5246124074397 3.03741771036329 11.67503369442014
-14.52418999202784 3.037529381753896 11.67527625597903
-14.52376757661599 3.037641053144503 11.67551881753792
-14.52334516120414 3.037752724535109 11.67576137909681
-14.52292274579229 3.037864395925715 11.6760039406557
-14.52250033038044 3.037976067316321 11.67624650221459
-14.52207791496859 3.038087738706928 11.67648906377348
-14.52165549955674 3.038199410097534 11.67673162533238
-14.52123308414489 3.03831108148814 11.67697418689127
-14.52081066873304 3.038422752878747 11.67721674845016
-14.52038825332119 3.038534424269353 11.67745931000905
-14.51996583790934 3.038646095659959 11.67770187156794
-14.51954342249749 3.038757767050566 11.67794443312683
-14.51912100708564 3.038869438441172 11.67818699468572
-14.51869859167379 3.038981109831778 11.67842955624461
-14.51827617626194 3.039092781222385 11.6786721178035
-14.51785376085009 3.039204452612991 11.6789146793624
-14.51743134543824 3.039316124003597 11.67915724092129
-14.51700893002639 3.039427795394203 11.67939980248018
-14.51658651461454 3.039539466784809 11.67964236403907
-14.51616409920269 3.039651138175415 11.67988492559796
-14.51574168379084 3.039762809566021 11.68012748715685
-14.51531926837899 3.039874480956626 11.68037004871574
-14.51489685296714 3.039986152347232 11.68061261027463
-14.51447443755529 3.040097823737838 11.68085517183352
-14.51405202214345 3.040209495128444 11.68109773339241
-14.5136296067316 3.040321166519049 11.6813402949513
-14.51320719131975 3.040432837909655 11.68158285651019
-14.5127847759079 3.04054450930026 11.68182541806908
-14.51236236049606 3.040656180690865 11.68206797962796
-14.51193994508421 3.04076785208147 11.68231054118685
-14.51151752967234 3.040879523472082 11.68255310274576
-14.51109511426045 3.040991194862699 11.68279566430467
-14.51067269884856 3.041102866253317 11.68303822586359
-14.51025028343667 3.041214537643933 11.6832807874225
-14.50982786802478 3.041326209034551 11.68352334898142
-14.50940545261288 3.041437880425168 11.68376591054033
-14.50898303720099 3.041549551815786 11.68400847209925
-14.5085606217891 3.041661223206403 11.68425103365816
-14.5081382063772 3.041772894597021 11.68449359521708
-14.50771579096532 3.041884565987635 11.68473615677599
-14.50729337555344 3.041996237378249 11.68497871833489
-14.50687096014156 3.042107908768863 11.6852212798938
-14.50644854472969 3.042219580159477 11.68546384145271
-14.5060261293178 3.042331251550093 11.68570640301162
-14.50560371390589 3.042442922940714 11.68594896457054
-14.50518129849398 3.042554594331335 11.68619152612947
-14.50475888308208 3.042666265721956 11.68643408768839
-14.50433646767017 3.042777937112577 11.68667664924731
-14.50391405225826 3.042889608503198 11.68691921080624
-14.50349163684636 3.04300127989382 11.68716177236516
-14.50306922143445 3.043112951284441 11.68740433392408
-14.50264680602254 3.043224622675062 11.68764689548301
-14.50222439061064 3.043336294065683 11.68788945704193
-14.50180197519873 3.043447965456304 11.68813201860085
-14.50137955978682 3.043559636846926 11.68837458015978
-14.50095714437492 3.043671308237546 11.6886171417187
-14.50053472896301 3.043782979628168 11.68885970327762
-14.5001123135511 3.043894651018789 11.68910226483655
-14.4996898981392 3.04400632240941 11.68934482639547
-14.49926748272729 3.044117993800031 11.6895873879544
-14.49884506731538 3.044229665190652 11.68982994951332
-14.4984226519035 3.044341336581268 11.69007251107223
-14.49800023649162 3.044453007971882 11.69031507263114
-14.49757782107974 3.044564679362496 11.69055763419004
-14.49715540566786 3.04467635075311 11.69080019574895
-14.49673299025598 3.044788022143723 11.69104275730786
-14.4963105748441 3.044899693534337 11.69128531886677
-14.49588815943222 3.045011364924951 11.69152788042567
-14.49546574402035 3.045123036315565 11.69177044198458
-14.49504332860847 3.045234707706178 11.69201300354349
-14.49462091319661 3.045346379096785 11.69225556510238
-14.49419849778476 3.045458050487392 11.69249812666127
-14.49377608237291 3.045569721877998 11.69274068822016
-14.49335366696106 3.045681393268604 11.69298324977905
-14.49293125154921 3.045793064659211 11.69322581133795
-14.49250883613736 3.045904736049817 11.69346837289684
-14.49208642072551 3.046016407440423 11.69371093445573
-14.49166400531366 3.046128078831029 11.69395349601462
-14.49124158990181 3.046239750221636 11.69419605757351
-14.49081917448996 3.046351421612242 11.6944386191324
-14.49039675907811 3.046463093002847 11.69468118069129
-14.48997434366626 3.046574764393453 11.69492374225018
-14.48955192825441 3.046686435784059 11.69516630380907
-14.48912951284257 3.046798107174665 11.69540886536796
-14.48870709743072 3.04690977856527 11.69565142692685
-14.48828468201887 3.047021449955877 11.69589398848574
-14.48786226660702 3.047133121346482 11.69613655004463
-14.48743985119517 3.047244792737089 11.69637911160352
-14.4870174357833 3.047356464127699 11.69662167316242
-14.48659502037144 3.047468135518309 11.69686423472132
-14.48617260495957 3.047579806908919 11.69710679628022
-14.48575018954771 3.047691478299529 11.69734935783912
-14.48532777413584 3.047803149690139 11.69759191939802
-14.48490535872398 3.047914821080749 11.69783448095692
-14.48448294331211 3.048026492471359 11.69807704251582
-14.48406052790025 3.04813816386197 11.69831960407472
-14.48363811248838 3.04824983525258 11.69856216563362
-14.48321569707652 3.04836150664319 11.69880472719252
-14.48279328166465 3.048473178033801 11.69904728875142
-14.48237086625278 3.048584849424411 11.69928985031032
-14.48194845084092 3.048696520815022 11.69953241186922
-14.48152603542905 3.048808192205632 11.69977497342812
-14.48110362001718 3.048919863596243 11.70001753498702
-14.48068120460532 3.049031534986854 11.70026009654592
-14.48025878919345 3.049143206377464 11.70050265810482
-14.47983637378159 3.049254877768072 11.70074521966371
-14.47941395836974 3.049366549158679 11.70098778122261
-14.47899154295789 3.049478220549285 11.7012303427815
-14.47856912754604 3.049589891939891 11.70147290434039
-14.47814671213419 3.049701563330498 11.70171546589928
-14.47772429672234 3.049813234721104 11.70195802745817
-14.47730188131049 3.04992490611171 11.70220058901706
-14.47687946589864 3.050036577502316 11.70244315057595
-14.47645705048679 3.050148248892923 11.70268571213484
-14.47603463507494 3.050259920283529 11.70292827369373
-14.47561221966309 3.050371591674135 11.70317083525263
-14.47518980425124 3.050483263064741 11.70341339681152
-14.47476738883939 3.050594934455348 11.70365595837041
-14.47434497342754 3.050706605845954 11.7038985199293
-14.47392255801569 3.05081827723656 11.70414108148819
-14.47350014260384 3.050929948627167 11.70438364304708
-14.47307772719198 3.051041620017773 11.70462620460597
-14.47265531178014 3.051153291408379 11.70486876616486
-14.47223289636828 3.051264962798986 11.70511132772375
-14.47181048095643 3.051376634189592 11.70535388928265
-14.47138806554458 3.051488305580198 11.70559645084154
-14.47096565013273 3.051599976970805 11.70583901240043
-14.47054323472088 3.051711648361411 11.70608157395932
-14.47012081930903 3.051823319752017 11.70632413551821
-14.46969840389718 3.051934991142623 11.7065666970771
-14.46927598848533 3.052046662533229 11.70680925863599
-14.46885357307348 3.052158333923836 11.70705182019488
-14.46843115766163 3.052270005314442 11.70729438175377
-14.46800874224978 3.052381676705048 11.70753694331266
-14.46758632683794 3.052493348095653 11.70777950487155
-14.46716391142609 3.052605019486259 11.70802206643044
-14.46674149601424 3.052716690876865 11.70826462798933
-14.46631908060239 3.052828362267471 11.70850718954822
-14.46589666519054 3.052940033658076 11.70874975110711
-14.46547424977869 3.053051705048682 11.708992312666
-14.46505183436683 3.05316337643929 11.7092348742249
-14.46462941895496 3.053275047829904 11.70947743578381
-14.46420700354308 3.053386719220517 11.70971999734271
-14.4637845881312 3.05349839061113 11.70996255890162
-14.46336217271933 3.053610062001743 11.71020512046052
-14.46293975730745 3.053721733392357 11.71044768201943
-14.46251734189557 3.05383340478297 11.71069024357834
-14.4620949264837 3.053945076173583 11.71093280513724
-14.46167251107182 3.054056747564196 11.71117536669615
-14.46125009565993 3.054168418954813 11.71141792825506
-14.46082768024802 3.054280090345435 11.71166048981399
-14.46040526483612 3.054391761736055 11.71190305137291
-14.45998284942421 3.054503433126677 11.71214561293183
-14.4595604340123 3.054615104517298 11.71238817449076
-14.4591380186004 3.054726775907919 11.71263073604968
-14.45871560318849 3.05483844729854 11.7128732976086
-14.45829318777658 3.054950118689161 11.71311585916753
-14.45787077236468 3.055061790079782 11.71335842072645
-14.45744835695277 3.055173461470404 11.71360098228537
-14.45702594154086 3.055285132861025 11.7138435438443
-14.45660352612895 3.055396804251646 11.71408610540322
-14.45618111071705 3.055508475642267 11.71432866696214
-14.45575869530514 3.055620147032888 11.71457122852107
-14.45533627989323 3.05573181842351 11.71481379007999
-14.45491386448133 3.05584348981413 11.71505635163891
-14.45449144906942 3.055955161204752 11.71529891319784
-14.45406903365751 3.056066832595373 11.71554147475676
-14.45364661824563 3.056178503985988 11.71578403631567
-14.45322420283375 3.056290175376601 11.71602659787458
-14.45280178742187 3.056401846767215 11.71626915943349
-14.45237937201 3.056513518157829 11.71651172099239
-14.45195695659812 3.056625189548443 11.7167542825513
-14.45153454118624 3.056736860939056 11.71699684411021
-14.45111212577436 3.05684853232967 11.71723940566911
-14.45068971036248 3.056960203720284 11.71748196722802
-14.4502672949506 3.057071875110897 11.71772452878693
-14.44984487953875 3.057183546501504 11.71796709034582
-14.4494224641269 3.05729521789211 11.71820965190471
-14.44900004871505 3.057406889282716 11.7184522134636
-14.4485776333032 3.057518560673322 11.71869477502249
-14.44815521789135 3.057630232063929 11.71893733658138
-14.4477328024795 3.057741903454535 11.71917989814028
-14.44731038706765 3.057853574845141 11.71942245969917
-14.4468879716558 3.057965246235748 11.71966502125806
-14.44646555624395 3.058076917626354 11.71990758281695
-14.4460431408321 3.05818858901696 11.72015014437584
-14.44562072542025 3.058300260407566 11.72039270593473
-14.4451983100084 3.058411931798172 11.72063526749362
-14.44477589459655 3.058523603188777 11.72087782905251
-14.44435347918471 3.058635274579383 11.7211203906114
-14.44393106377286 3.058746945969989 11.72136295217029
-14.44350864836101 3.058858617360595 11.72160551372918
-14.44308623294916 3.0589702887512 11.72184807528807
-14.44266381753731 3.059081960141806 11.72209063684696
-14.44224140212546 3.059193631532412 11.72233319840585
-14.44181898671361 3.059305302923018 11.72257575996474
-14.44139657130177 3.059416974313624 11.72281832152363
-14.44097415588992 3.059528645704229 11.72306088308252
-14.44055174047807 3.059640317094835 11.72330344464141
-14.44012932506622 3.059751988485441 11.7235460062003
-14.43970690965437 3.059863659876047 11.72378856775919
-14.43928449424252 3.059975331266652 11.72403112931808
-14.43886207883066 3.060087002657261 11.72427369087697
-14.4384396634188 3.060198674047871 11.72451625243587
-14.43801724800693 3.060310345438482 11.72475881399478
-14.43759483259506 3.060422016829093 11.72500137555368
-14.4371724171832 3.060533688219703 11.72524393711258
-14.43675000177133 3.060645359610314 11.72548649867148
-14.43632758635946 3.060757031000924 11.72572906023038
-14.4359051709476 3.060868702391535 11.72597162178928
-14.43548275553573 3.060980373782145 11.72621418334818
-14.43506034012386 3.061092045172756 11.72645674490708
-14.434637924712 3.061203716563367 11.72669930646598
-14.43421550930013 3.061315387953977 11.72694186802488
-14.43379309388826 3.061427059344588 11.72718442958378
-14.4333706784764 3.061538730735198 11.72742699114268
-14.43294826306453 3.061650402125809 11.72766955270158
-14.43252584765266 3.061762073516419 11.72791211426048
-14.4321034322408 3.06187374490703 11.72815467581938
-14.43168101682893 3.06198541629764 11.72839723737828
-14.43125860141708 3.062097087688247 11.72863979893717
-14.43083618600523 3.062208759078854 11.72888236049606
-14.43041377059338 3.06232043046946 11.72912492205496
-14.42999135518153 3.062432101860066 11.72936748361385
-14.42956893976968 3.062543773250672 11.72961004517274
-14.42914652435783 3.062655444641279 11.72985260673163
-14.42872410894598 3.062767116031885 11.73009516829052
-14.42830169353413 3.062878787422491 11.73033772984941
-14.42787927812227 3.062990458813097 11.7305802914083
-14.42745686271043 3.063102130203704 11.73082285296719
-14.42703444729857 3.06321380159431 11.73106541452608
-14.42661203188672 3.063325472984916 11.73130797608498
-14.42618961647487 3.063437144375523 11.73155053764387
-14.42576720106302 3.063548815766129 11.73179309920276
-14.42534478565117 3.063660487156735 11.73203566076165
-14.42492237023932 3.063772158547342 11.73227822232054
-14.42449995482747 3.063883829937948 11.73252078387943
-14.42407753941562 3.063995501328554 11.73276334543832
-14.42365512400377 3.06410717271916 11.73300590699721
-14.42323270859192 3.064218844109766 11.7332484685561
-14.42281029318008 3.064330515500371 11.73349103011499
-14.42238787776823 3.064442186890977 11.73373359167388
-14.42196546235638 3.064553858281583 11.73397615323277
-14.42154304694453 3.064665529672189 11.73421871479166
-14.42112063153268 3.064777201062795 11.73446127635055
-14.42069821612083 3.0648888724534 11.73470383790944
-14.42027580070898 3.065000543844006 11.73494639946833
-14.41985338529713 3.065112215234612 11.73518896102722
-14.41943096988529 3.065223886625218 11.73543152258611
-14.41900855447344 3.065335558015823 11.735674084145
-14.41858613906159 3.065447229406429 11.73591664570389
-14.41816372364974 3.065558900797035 11.73615920726278
-14.41774130823789 3.065670572187641 11.73640176882167
-14.41731889282604 3.065782243578247 11.73664433038056
-14.41689647741419 3.065893914968853 11.73688689193945
-14.41647406200233 3.066005586359464 11.73712945349835
-14.41605164659045 3.066117257750077 11.73737201505726
-14.41562923117857 3.066228929140691 11.73761457661617
-14.41520681576669 3.066340600531305 11.73785713817507
-14.41478440035481 3.066452271921918 11.73809969973398
-14.41436198494293 3.066563943312532 11.73834226129289
-14.41393956953105 3.066675614703146 11.7385848228518
-14.41351715411918 3.06678728609376 11.7388273844107
-14.4130947387073 3.066898957484373 11.73906994596961
-14.41267232329538 3.067010628874997 11.73931250752854
-14.41224990788346 3.067122300265622 11.73955506908747
-14.41182749247154 3.067233971656247 11.7397976306464
-14.41140507705961 3.067345643046873 11.74004019220534
-14.41098266164769 3.067457314437498 11.74028275376427
-14.41056024623577 3.067568985828124 11.7405253153232
-14.41013783082385 3.067680657218749 11.74076787688213
-14.40971541541192 3.067792328609375 11.74101043844107
1 6 0 0
1 7 0 0
1 8 0 0
1 9 0 0
1 10 0 0
1 11 0 0
1 12 0 0
1 13 0 0
1 14 0 0
1 15 0 0
1 16 0 0
1 17 0 0
1 18 0 0
1 19 0 0
1 20 0 0
1 21 0 0
1 22 0 0
1 23 0 0
1 24 0 0
1 25 0 0
$EndNodes
$Elements
25 1153 1 1153
1 1 1 1
1 1 2 
1 2 1 1
2 2 3 
1 3 1 1
3 3 4 
1 4 1 1
4 4 5 
1 5 1 1129
5 5 27 
6 27 28 
7 28 29 
8 29 30 
9 30 31 
10 31 32 
11 32 33 
12 33 34 
13 34 35 
14 35 36 
15 36 37 
16 37 38 
17 38 39 
18 39 40 
19 40 41 
20 41 42 
21 42 43 
22 43 44 
23 44 45 
24 45 46 
25 46 47 
26 47 48 
27 48 49 
28 49 50 
29 50 51 
30 51 52 
31 52 53 
32 53 54 
33 54 55 
34 55 56 
35 56 57 
36 57 58 
37 58 59 
38 59 60 
39 60 61 
40 61 62 
41 62 63 
42 63 64 
43 64 65 
44 65 66 
45 66 67 
46 67 68 
47 68 69 
48 69 70 
49 70 71 
50 71 72 
51 72 73 
52 73 74 
53 74 75 
54 75 76 
55 76 77 
56 77 78 
57 78 79 
58 79 80 
59 80 81 
60 81 82 
61 82 83 
62 83 84 
63 84 85 
64 85 86 
65 86 87 
66 87 88 
67 88 89 
68 89 90 
69 90 91 
70 91 92 
71 92 93 
72 93 94 
73 94 95 
74 95 96 
75 96 97 
76 97 98 
77 98 99 
78 99 100 
79 100 101 
80 101 102 
81 102 103 
82 103 104 
83 104 105 
84 105 106 
85 106 107 
86 107 108 
87 108 109 
88 109 110 
89 110 111 
90 111 112 
91 112 113 
92 113 114 
93 114 115 
94 115 116 
95 116 117 
96 117 118 
97 118 119 
98 119 120 
99 120 121 
100 121 122 
101 122 123 
102 123 124 
103 124 125 
104 125 126 
105 126 127 
106 127 128 
107 128 129 
108 129 130 
109 130 131 
110 131 132 
111 132 133 
112 133 134 
113 134 135 
114 135 136 
115 136 137 
116 137 138 
117 138 139 
118 139 140 
119 140 141 
120 141 142 
121 142 143 
122 143 144 
123 144 145 
124 145 146 
125 146 147 
126 147 148 
127 148 149 
128 149 150 
129 150 151 
130 151 152 
131 152 153 
132 153 154 
133 154 155 
134 155 156 
135 156 157 
136 157 158 
137 158 159 
138 159 160 
139 160 161 
140 161 162 
141 162 163 
142 163 164 
143 164 165 
144 165 166 
145 166 167 
146 167 168 
147 168 169 
148 169 170 
149 170 171 
150 171 172 
151 172 173 
152 173 174 
153 174 175 
154 175 176 
155 176 177 
156 177 178 
157 178 179 
158 179 180 
159 180 181 
160 181 182 
161 182 183 
162 183 184 
163 184 185 
164 185 186 
165 186 187 
166 187 188 
167 188 189 
168 189 190 
169 190 191 
170 191 192 
171 192 193 
172 193 194 
173 194 195 
174 195 196 
175 196 197 
176 197 198 
177 198 199 
178 199 200 
179 200 201 
180 201 202 
181 202 203 
182 203 204 
183 204 205 
184 205 206 
185 206 207 
186 207 208 
187 208 209 
188 209 210 
189 210 211 
190 211 212 
191 212 213 
192 213 214 
193 214 215 
194 215 216 
195 216 217 
196 217 218 
197 218 219 
198 219 220 
199 220 221 
200 221 222 
201 222 223 
202 223 224 
203 224 225 
204 225 226 
205 226 227 
206 227 228 
207 228 229 
208 229 230 
209 230 231 
210 231 232 
211 232 233 
212 233 234 
213 234 235 
214 235 236 
215 236 237 
216 237 238 
217 238 239 
218 239 240 
219 240 241 
220 241 242 
221 242 243 
222 243 244 
223 244 245 
224 245 246 
225 246 247 
226 247 248 
227 248 249 
228 249 250 
229 250 251 
230 251 252 
231 252 253 
232 253 254 
233 254 255 
234 255 256 
235 256 257 
236 257 258 
237 258 259 
238 259 260 
239 260 261 
240 261 262 
241 262 263 
242 263 264 
243 264 265 
244 265 266 
245 266 267 
246 267 268 
247 268 269 
248 269 270 
249 270 271 
250 271 272 
251 272 273 
252 273 274 
253 274 275 
254 275 276 
255 276 277 
256 277 278 
257 278 279 
258 279 280 
259 280 281 
260 281 282 
261 282 283 
262 283 284 
263 284 285 
264 285 286 
265 286 287 
266 287 288 
267 288 289 
268 289 290 
269 290 291 
270 291 292 
271 292 293 
272 293 294 
273 294 295 
274 295 296 
275 296 297 
276 297 298 
277 298 299 
278 299 300 
279 300 301 
280 301 302 
281 302 303 
282 303 304 
283 304 305 
284 305 306 
285 306 307 
286 307 308 
287 308 309 
288 309 310 
289 310 311 
290 311 312 
291 312 313 
292 313 314 
293 314 315 
294 315 316 
295 316 317 
296 317 318 
297 318 319 
298 319 320 
299 320 321 
300 321 322 
301 322 323 
302 323 324 
303 324 325 
304 325 326 
305 326 327 
306 327 328 
307 328 329 
308 329 330 
309 330 331 
310 331 332 
311 332 333 
312 333 334 
313 334 335 
314 335 336 
315 336 337 
316 337 338 
317 338 339 
318 339 340 
319 340 341 
320 341 342 
321 342 343 
322 343 344 
323 344 345 
324 345 346 
325 346 347 
326 347 348 
327 348 349 
328 349 350 
329 350 351 
330 351 352 
331 352 353 
332 353 354 
333 354 355 
334 355 356 
335 356 357 
336 357 358 
337 358 359 
338 359 360 
339 360 361 
340 361 362 
341 362 363 
342 363 364 
343 364 365 
344 365 366 
345 366 367 
346 367 368 
347 368 369 
348 369 370 
349 370 371 
350 371 372 
351 372 373 
352 373 374 
353 374 375 
354 375 376 
355 376 377 
356 377 378 
357 378 379 
358 379 380 
359 380 381 
360 381 382 
361 382 383 
362 383 384 
363 384 385 
364 385 386 
365 386 387 
366 387 388 
367 388 389 
368 389 390 
369 390 391 
370 391 392 
371 392 393 
372 393 394 
373 394 395 
374 395 396 
375 396 397 
376 397 398 
377 398 399 
378 399 400 
379 400 401 
380 401 402 
381 402 403 
382 403 404 
383 404 405 
384 405 406 
385 406 407 
386 407 408 
387 408 409 
388 409 410 
389 410 411 
390 411 412 
391 412 413 
392 413 414 
393 414 415 
394 415 416 
395 416 417 
396 417 418 
397 418 419 
398 419 420 
399 420 421 
400 421 422 
401 422 423 
402 423 424 
403 424 425 
404 425 426 
405 426 427 
406 427 428 
407 428 429 
408 429 430 
409 430 431 
410 431 432 
411 432 433 
412 433 434 
413 434 435 
414 435 436 
415 436 437 
416 437 438 
417 438 439 
418 439 440 
419 440 441 
420 441 442 
421 442 443 
422 443 444 
423 444 445 
424 445 446 
425 446 447 
426 447 448 
427 448 449 
428 449 450 
429 450 451 
430 451 452 
431 452 453 
432 453 454 
433 454 455 
434 455 456 
435 456 457 
436 457 458 
437 458 459 
438 459 460 
439 460 461 
440 461 462 
441 462 463 
442 463 464 
443 464 465 
444 465 466 
445 466 467 
446 467 468 
447 468 469 
448 469 470 
449 470 471 
450 471 472 
451 472 473 
452 473 474 
453 474 475 
454 475 476 
455 476 477 
456 477 478 
457 478 479 
458 479 480 
459 480 481 
460 481 482 
461 482 483 
462 483 484 
463 484 485 
464 485 486 
465 486 487 
466 487 488 
467 488 489 
468 489 490 
469 490 491 
470 491 492 
471 492 493 
472 493 494 
473 494 495 
474 495 496 
475 496 497 
476 497 498 
477 498 499 
478 499 500 
479 500 501 
480 501 502 
481 502 503 
482 503 504 
483 504 505 
484 505 506 
485 506 507 
486 507 508 
487 508 509 
488 509 510 
489 510 511 
490 511 512 
491 512 513 
492 513 514 
493 514 515 
494 515 516 
495 516 517 
496 517 518 
497 518 519 
498 519 520 
499 520 521 
500 521 522 
501 522 523 
502 523 524 
503 524 525 
504 525 526 
505 526 527 
506 527 528 
507 528 529 
508 529 530 
509 530 531 
510 531 532 
511 532 533 
512 533 534 
513 534 535 
514 535 536 
515 536 537 
516 537 538 
517 538 539 
518 539 540 
519 540 541 
520 541 542 
521 542 543 
522 543 544 
523 544 545 
524 545 546 
525 546 547 
526 547 548 
527 548 549 
528 549 550 
529 550 551 
530 551 552 
531 552 553 
532 553 554 
533 554 555 
534 555 556 
535 556 557 
536 557 558 
537 558 559 
538 559 560 
539 560 561 
540 561 562 
541 562 563 
542 563 564 
543 564 565 
544 565 566 
545 566 567 
546 567 568 
547 568 569 
548 569 570 
549 570 571 
550 571 572 
551 572 573 
552 573 574 
553 574 575 
554 575 576 
555 576 577 
556 577 578 
557 578 579 
558 579 580 
559 580 581 
560 581 582 
561 582 583 
562 583 584 
563 584 585 
564 585 586 
565 586 587 
566 587 588 
567 588 589 
568 589 590 
569 590 591 
570 591 592 
571 592 593 
572 593 594 
573 594 595 
574 595 596 
575 596 597 
576 597 598 
577 598 599 
578 599 600 
579 600 601 
580 601 602 
581 602 603 
582 603 604 
583 604 605 
584 605 606 
585 606 607 
586 607 608 
587 608 609 
588 609 610 
589 610 611 
590 611 612 
591 612 613 
592 613 614 
593 614 615 
594 615 616 
595 616 617 
596 617 618 
597 618 619 
598 619 620 
599 620 621 
600 621 622 
601 622 623 
602 623 624 
603 624 625 
604 625 626 
605 626 627 
606 627 628 
607 628 629 
608 629 630 
609 630 631 
610 631 632 
611 632 633 
612 633 634 
613 634 635 
614 635 636 
615 636 637 
616 637 638 
617 638 639 
618 639 640 
619 640 641 
620 641 642 
621 642 643 
622 643 644 
623 644 645 
624 645 646 
625 646 647 
626 647 648 
627 648 649 
628 649 650 
629 650 651 
630 651 652 
631 652 653 
632 653 654 
633 654 655 
634 655 656 
635 656 657 
636 657 658 
637 658 659 
638 659 660 
639 660 661 
640 661 662 
641 662 663 
642 663 664 
643 664 665 
644 665 666 
645 666 667 
646 667 668 
647 668 669 
648 669 670 
649 670 671 
650 671 672 
651 672 673 
652 673 674 
653 674 675 
654 675 676 
655 676 677 
656 677 678 
657 678 679 
658 679 680 
659 680 681 
660 681 682 
661 682 683 
662 683 684 
663 684 685 
664 685 686 
665 686 687 
666 687 688 
667 688 689 
668 689 690 
669 690 691 
670 691 692 
671 692 693 
672 693 694 
673 694 695 
674 695 696 
675 696 697 
676 697 698 
677 698 699 
678 699 700 
679 700 701 
680 701 702 
681 702 703 
682 703 704 
683 704 705 
684 705 706 
685 706 707 
686 707 708 
687 708 709 
688 709 710 
689 710 711 
690 711 712 
691 712 713 
692 713 714 
693 714 715 
694 715 716 
695 716 717 
696 717 718 
697 718 719 
698 719 720 
699 720 721 
700 721 722 
701 722 723 
702 723 724 
703 724 725 
704 725 726 
705 726 727 
706 727 728 
707 728 729 
708 729 730 
709 730 731 
710 731 732 
711 732 733 
712 733 734 
713 734 735 
714 735 736 
715 736 737 
716 737 738 
717 738 739 
718 739 740 
719 740 741 
720 741 742 
721 742 743 
722 743 744 
723 744 745 
724 745 746 
725 746 747 
726 747 748 
727 748 749 
728 749 750 
729 750 751 
730 751 752 
731 752 753 
732 753 754 
733 754 755 
734 755 756 
735 756 757 
736 757 758 
737 758 759 
738 759 760 
739 760 761 
740 761 762 
741 762 763 
742 763 764 
743 764 765 
744 765 766 
745 766 767 
746 767 768 
747 768 769 
748 769 770 
749 770 771 
750 771 772 
751 772 773 
752 773 774 
753 774 775 
754 775 776 
755 776 777 
756 777 778 
757 778 779 
758 779 780 
759 780 781 
760 781 782 
761 782 783 
762 783 784 
763 784 785 
764 785 786 
765 786 787 
766 787 788 
767 788 789 
768 789 790 
769 790 791 
770 791 792 
771 792 793 
772 793 794 
773 794 795 
774 795 796 
775 796 797 
776 797 798 
777 798 799 
778 799 800 
779 800 801 
780 801 802 
781 802 803 
782 803 804 
783 804 805 
784 805 806 
785 806 807 
786 807 808 
787 808 809 
788 809 810 
789 810 811 
790 811 812 
791 812 813 
792 813 814 
793 814 815 
794 815 816 
795 816 817 
796 817 818 
797 818 819 
798 819 820 
799 820 821 
800 821 822 
801 822 823 
802 823 824 
803 824 825 
804 825 826 
805 826 827 
806 827 828 
807 828 829 
808 829 830 
809 830 831 
810 831 832 
811 832 833 
812 833 834 
813 834 835 
814 835 836 
815 836 837 
816 837 838 
817 838 839 
818 839 840 
819 840 841 
820 841 842 
821 842 843 
822 843 844 
823 844 845 
824 845 846 
825 846 847 
826 847 848 
827 848 849 
828 849 850 
829 850 851 
830 851 852 
831 852 853 
832 853 854 
833 854 855 
834 855 856 
835 856 857 
836 857 858 
837 858 859 
838 859 860 
839 860 861 
840 861 862 
841 862 863 
842 863 864 
843 864 865 
844 865 866 
845 866 867 
846 867 868 
847 868 869 
848 869 870 
849 870 871 
850 871 872 
851 872 873 
852 873 874 
853 874 875 
854 875 876 
855 876 877 
856 877 878 
857 878 879 
858 879 880 
859 880 881 
860 881 882 
861 882 883 
862 883 884 
863 884 885 
864 885 886 
865 886 887 
866 887 888 
867 888 889 
868 889 890 
869 890 891 
870 891 892 
871 892 893 
872 893 894 
873 894 895 
874 895 896 
875 896 897 
876 897 898 
877 898 899 
878 899 900 
879 900 901 
880 901 902 
881 902 903 
882 903 904 
883 904 905 
884 905 906 
885 906 907 
886 907 908 
887 908 909 
888 909 910 
889 910 911 
890 911 912 
891 912 913 
892 913 914 
893 914 915 
894 915 916 
895 916 917 
896 917 918 
897 918 919 
898 919 920 
899 920 921 
900 921 922 
901 922 923 
902 923 924 
903 924 925 
904 925 926 
905 926 927 
906 927 928 
907 928 929 
908 929 930 
909 930 931 
910 931 932 
911 932 933 
912 933 934 
913 934 935 
914 935 936 
915 936 937 
916 937 938 
917 938 939 
918 939 940 
919 940 941 
920 941 942 
921 942 943 
922 943 944 
923 944 945 
924 945 946 
925 946 947 
926 947 948 
927 948 949 
928 949 950 
929 950 951 
930 951 952 
931 952 953 
932 953 954 
933 954 955 
934 955 956 
935 956 957 
936 957 958 
937 958 959 
938 959 960 
939 960 961 
940 961 962 
941 962 963 
942 963 964 
943 964 965 
944 965 966 
945 966 967 
946 967 968 
947 968 969 
948 969 970 
949 970 971 
950 971 972 
951 972 973 
952 973 974 
953 974 975 
954 975 976 
955 976 977 
956 977 978 
957 978 979 
958 979 980 
959 980 981 
960 981 982 
961 982 983 
962 983 984 
963 984 985 
964 985 986 
965 986 987 
966 987 988 
967 988 989 
968 989 990 
969 990 991 
970 991 992 
971 992 993 
972 993 994 
973 994 995 
974 995 996 
975 996 997 
976 997 998 
977 998 999 
978 999 1000 
979 1000 1001 
980 1001 1002 
981 1002 1003 
982 1003 1004 
983 1004 1005 
984 1005 1006 
985 1006 1007 
986 1007 1008 
987 1008 1009 
988 1009 1010 
989 1010 1011 
990 1011 1012 
991 1012 1013 
992 1013 1014 
993 1014 1015 
994 1015 1016 
995 1016 1017 
996 1017 1018 
997 1018 1019 
998 1019 1020 
999 1020 1021 
1000 1021 1022 
1001 1022 1023 
1002 1023 1024 
1003 1024 1025 
1004 1025 1026 
1005 1026 1027 
1006 1027 1028 
1007 1028 1029 
1008 1029 1030 
1009 1030 1031 
1010 1031 1032 
1011 1032 1033 
1012 1033 1034 
1013 1034 1035 
1014 1035 1036 
1015 1036 1037 
1016 1037 1038 
1017 1038 1039 
1018 1039 1040 
1019 1040 1041 
1020 1041 1042 
1021 1042 1043 
1022 1043 1044 
1023 1044 1045 
1024 1045 1046 
1025 1046 1047 
1026 1047 1048 
1027 1048 1049 
1028 1049 1050 
1029 1050 1051 
1030 1051 1052 
1031 1052 1053 
1032 1053 1054 
1033 1054 1055 
1034 1055 1056 
1035 1056 1057 
1036 1057 1058 
1037 1058 1059 
1038 1059 1060 
1039 1060 1061 
1040 1061 1062 
1041 1062 1063 
1042 1063 1064 
1043 1064 1065 
1044 1065 1066 
1045 1066 1067 
1046 1067 1068 
1047 1068 1069 
1048 1069 1070 
1049 1070 1071 
1050 1071 1072 
1051 1072 1073 
1052 1073 1074 
1053 1074 1075 
1054 1075 1076 
1055 1076 1077 
1056 1077 1078 
1057 1078 1079 
1058 1079 1080 
1059 1080 1081 
1060 1081 1082 
1061 1082 1083 
1062 1083 1084 
1063 1084 1085 
1064 1085 1086 
1065 1086 1087 
1066 1087 1088 
1067 1088 1089 
1068 1089 1090 
1069 1090 1091 
1070 1091 1092 
1071 1092 1093 
1072 1093 1094 
1073 1094 1095 
1074 1095 1096 
1075 1096 1097 
1076 1097 1098 
1077 1098 1099 
1078 1099 1100 
1079 1100 1101 
1080 1101 1102 
1081 1102 1103 
1082 1103 1104 
1083 1104 1105 
1084 1105 1106 
1085 1106 1107 
1086 1107 1108 
1087 1108 1109 
1088 1109 1110 
1089 1110 1111 
1090 1111 1112 
1091 1112 1113 
1092 1113 1114 
1093 1114 1115 
1094 1115 1116 
1095 1116 1117 
1096 1117 1118 
1097 1118 1119 
1098 1119 1120 
1099 1120 1121 
1100 1121 1122 
1101 1122 1123 
1102 1123 1124 
1103 1124 1125 
1104 1125 1126 
1105 1126 1127 
1106 1127 1128 
1107 1128 1129 
1108 1129 1130 
1109 1130 1131 
1110 1131 1132 
1111 1132 1133 
1112 1133 1134 
1113 1134 1135 
1114 1135 1136 
1115 1136 1137 
1116 1137 1138 
1117 1138 1139 
1118 1139 1140 
1119 1140 1141 
1120 1141 1142 
1121 1142 1143 
1122 1143 1144 
1123 1144 1145 
1124 1145 1146 
1125 1146 1147 
1126 1147 1148 
1127 1148 1149 
1128 1149 1150 
1129 1150 1151 
1130 1151 1152 
1131 1152 1153 
1132 1153 1154 
1133 1154 6 
1 6 1 1
1134 6 7 
1 7 1 1
1135 7 8 
1 8 1 1
1136 8 9 
1 9 1 1
1137 9 10 
1 10 1 1
1138 10 11 
1 11 1 1
1139 11 12 
1 12 1 1
1140 12 13 
1 13 1 1
1141 13 14 
1 14 1 1
1142 14 15 
1 15 1 1
1143 15 16 
1 16 1 1
1144 16 17 
1 17 1 1
1145 17 18 
1 18 1 1
1146 18 19 
1 19 1 1
1147 19 20 
1 20 1 1
1148 20 21 
1 21 1 1
1149 21 22 
1 22 1 1
1150 22 23 
1 23 1 1
1151 23 24 
1 24 1 1
1152 24 25 
1 25 1 1
1153 25 26 
$EndElements
