$MeshFormat
4.1 0 8
$EndMeshFormat
$Entities
0 0 1 1
1 -0.05022799999999999 -0.0122 -0.026288 0.03330900000000001 0.07971200000000002 0.055495 0 0 
1 -0.05022799999999999 -0.0122 -0.026288 0.03330900000000001 0.07971200000000002 0.055495 0 1 1 
$EndEntities
$Nodes
2 647 1 647
2 1 0 607
1
2
3
4
5
6
7
8
9
10
11
12
13
14
15
16
17
18
19
20
21
22
23
24
25
26
27
28
29
30
31
32
33
34
35
36
37
38
39
40
41
42
43
44
45
46
47
48
49
50
51
52
53
54
55
56
57
58
59
60
61
62
63
64
65
66
67
68
69
70
71
72
73
74
75
76
77
78
79
80
81
82
83
84
85
86
87
88
89
90
91
92
93
94
95
96
97
98
99
100
101
102
103
104
105
106
107
108
109
110
111
112
113
114
115
116
117
118
119
120
121
122
123
124
125
126
127
128
129
130
131
132
133
134
135
136
137
138
139
140
141
142
143
144
145
146
147
148
149
150
151
152
153
154
155
156
157
158
159
160
161
162
163
164
165
166
167
168
169
170
171
172
173
174
175
176
177
178
179
180
181
182
183
184
185
186
187
188
189
190
191
192
193
194
195
196
197
198
199
200
201
202
203
204
205
206
207
208
209
210
211
212
213
214
215
216
217
218
219
220
221
222
223
224
225
226
227
228
229
230
231
232
233
234
235
236
237
238
239
240
241
242
243
244
245
246
247
248
249
250
251
252
253
254
255
256
257
258
259
260
261
262
263
264
265
266
267
268
269
270
271
272
273
274
275
276
277
278
279
280
281
282
283
284
285
286
287
288
289
290
291
292
293
294
295
296
297
298
299
300
301
302
303
304
305
306
307
308
309
310
311
312
313
314
315
316
317
318
319
320
321
322
323
324
325
326
327
328
329
330
331
332
333
334
335
336
337
338
339
340
341
342
343
344
345
346
347
348
349
350
351
352
353
354
355
356
357
358
359
360
361
362
363
364
365
366
367
368
369
370
371
372
373
374
375
376
377
378
379
380
381
382
383
384
385
386
387
388
389
390
391
392
393
394
395
396
397
398
399
400
401
402
403
404
405
406
407
408
409
410
411
412
413
414
415
416
417
418
419
420
421
422
423
424
425
426
427
428
429
430
431
432
433
434
435
436
437
438
439
440
441
442
443
444
445
446
447
448
449
450
451
452
453
454
455
456
457
458
459
460
461
462
463
464
465
466
467
468
469
470
471
472
473
474
475
476
477
478
479
480
481
482
483
484
485
486
487
488
489
490
491
492
493
494
495
496
497
498
499
500
501
502
503
504
505
506
507
508
509
510
511
512
513
514
515
516
517
518
519
520
521
522
523
524
525
526
527
528
529
530
531
532
533
534
535
536
537
538
539
540
541
542
543
544
545
546
547
548
549
550
551
552
553
554
555
556
557
558
559
560
561
562
563
564
565
566
567
568
569
570
571
572
573
574
575
576
577
578
579
580
581
582
583
584
585
586
587
588
589
590
591
592
593
594
595
596
597
598
599
600
601
602
603
604
605
606
607
0.015909 0.05763600000000001 -0.022155
0.020267 -0.004796 -0.024613
0.026117 -0.000247 -0.018472
0.007179 0.07242000000000001 -0.012914
0.007394 0.07017000000000001 -0.016589
-0.018803 0.018153 -0.011121
-0.003812 0.07443100000000001 -0.010521
-0.024118 0.01208 -0.009486000000000001
-0.028815 0.01581 -0.006872000000000001
-0.015308 0.020687 -0.009673000000000001
-0.022653 0.019969 -0.005542
-0.028179 0.016286 -0.002523
-0.02911 0.015685 0.0003370000000000001
-0.037846 0.024073 0.002982
-0.002011 0.011754 -0.003088
-0.026861 0.015318 0.006304
-0.011173 0.021931 0.004151
-0.017713 0.001414 0.007646
-0.024544 0.009370000000000002 0.010543
0.024654 0.008607999999999999 0.003464
-0.026723 0.010936 0.009419
0.015997 -0.008378 0.004759
-0.008706999999999999 0.01893 0.009025
-0.024129 0.006899000000000001 0.012248
-0.045282 0.06824600000000001 0.02133
0.017269 0.07840400000000002 0.03640599999999999
-0.012355 -0.005667 0.048196
-0.023349 0.011065 0.050866
0.024264 0.05932200000000001 0.04592399999999999
-0.026609 0.014292 0.05133500000000001
0.032549 -0.003973000000000001 0.045768
0.01982 0.075839 0.049498
0.02001 0.07543800000000001 0.03098
-0.006796 0.005566 0.01295
-0.046715 0.05903600000000001 0.04961600000000001
0.016769 0.07093300000000001 -0.009399000000000001
-0.040626 0.020949 -0.016669
-0.041336 0.023731 -0.016946
0.005342 0.067098 -0.020191
0.01867 0.002809 -0.009766
0.007974000000000002 -0.009289000000000002 -0.004166
-0.030954 0.018423 0.002029
-0.04651300000000001 0.053435 0.005176
-0.045459 0.028431 0.005925
-0.002095 0.004796 0.005708
-0.038567 0.07840300000000001 0.014084
-0.018294 0.01637 0.011288
0.026736 0.004856 0.007177
-0.04615200000000001 0.029521 0.018868
-0.044716 0.06786400000000001 0.029998
0.015054 0.07871100000000002 0.03383300000000001
-0.042967 0.06472900000000001 0.05163200000000001
0.021367 0.076881 0.047344
0.025689 0.042588 0.047542
0.022902 0.061809 0.048162
-0.035534 0.019362 0.05231100000000001
0.01801 0.076807 0.0186
-0.002736 0.009560000000000001 -0.006993999999999999
-0.035263 0.022211 0.002604
-0.012553 0.018692 0.010158
0.031082 -0.007628 0.03248599999999999
-0.044775 0.020353 0.03983
-0.029887 0.07957500000000002 0.004213999999999999
0.017637 0.065141 -0.018027
-0.014026 0.008097 -0.011448
0.029615 -0.009037000000000002 0.02741
-0.04792399999999999 0.021975 0.053506
0.018549 0.002655 -0.001031
-0.047992 0.03965800000000001 0.05497200000000001
0.020629 0.004791 0.001417
-0.03176499999999999 0.022585 0.05367900000000001
-0.011665 -0.0007250000000000001 0.050964
-0.038001 0.07116300000000002 0.05101100000000001
0.026263 -0.007591 0.004696
0.022828 0.013229 -0.023538
-0.03549799999999999 0.020842 -0.018301
0.021724 0.025463 -0.022873
0.019696 0.027478 -0.023314
0.020192 0.03251100000000001 -0.022991
0.01793 0.05961900000000001 -0.020914
0.01683 0.06378 -0.020813
-0.024567 0.01218 -0.013182
-0.031504 0.014035 -0.017349
-0.04119100000000001 0.022163 -0.014942
0.025738 0.009318 -0.022163
0.020735 0.041356 -0.021289
-0.022448 0.06710000000000001 -0.016272
-0.04314900000000001 0.02515 -0.014345
0.003631 0.07548400000000001 -0.014179
0.018804 0.05610900000000001 -0.020541
0.015862 0.06959800000000001 -0.013224
-0.001106 0.07784100000000001 -0.013472
0.024074 -0.002155 -0.016496
-0.010927 0.011579 -0.013726
-0.007342 0.009689000000000001 -0.011242
-0.014288 0.016808 -0.012199
0.002314 0.07407200000000001 -0.010605
-0.003606 0.07453800000000001 -0.012082
-0.027782 0.011624 -0.009867000000000001
-0.041061 0.021877 -0.006163000000000001
0.011342 -0.006753 -0.01289
-0.032708 0.015969 -0.00891
-0.00393 0.011739 -0.009229000000000001
-0.01897500000000001 0.021397 -0.006676
-0.007224 0.018259 -0.00877
0.001284 0.07866400000000003 -0.006672
0.024316 0.009724 -0.010099
-0.01306 -0.000255 0.000144
0.01682 0.002282 -0.0071
-0.03385000000000001 0.07759600000000003 0.0004310000000000001
-0.011952 0.07933300000000001 -0.004086
-0.043827 0.027709 0.001652
-0.044803 0.029594 -0.001326
-0.02778 0.016757 0.002185
0.013437 0.07971200000000002 -0.003943
0.010368 -0.007237 -0.004159
0.010969 -0.007956000000000001 -0.000446
-0.011194 -0.004798 -0.0003310000000000001
-0.013254 -2.4e-05 0.002543
0.015228 0.07925800000000001 0.001479
-0.013865 -0.002608 0.001819
0.012679 -0.008092999999999999 0.002104
-0.011806 0.000404 0.002739
0.024696 0.010692 0.0003730000000000001
-0.022895 0.018469 0.008874000000000002
-0.014901 -0.00113 0.003981
-0.029202 0.013445 0.007916000000000001
-0.007127000000000001 0.018635 0.005257
0.018334 0.075839 0.003526
-0.018439 -0.001218 0.007445
-0.019775 0.00206 0.009902000000000001
-0.029539 0.013718 0.008459
0.015937 -0.009923 0.006652
-0.027077 0.010578 0.011067
-0.04325 0.022556 0.011824
-0.025727 0.008567999999999999 0.011341
-0.017768 0.011425 0.011914
-0.005018 0.001314 0.009716000000000001
0.024449 -0.009636000000000002 0.005886000000000001
-0.012746 0.004351 0.012991
-0.003543 0.010849 0.009509000000000002
-0.014001 0.005928 0.013727
0.016502 0.07810800000000001 0.013792
0.028578 -0.007418 0.013748
0.029897 -0.006662 0.021761
0.013976 0.07907200000000002 0.012728
0.028871 -0.008425999999999999 0.018639
0.018343 0.07734100000000001 0.024874
0.017027 0.07827600000000003 0.026627
0.019852 0.076879 0.036238
-0.042848 0.067831 0.045617
-0.050228 0.025974 0.048401
0.03330900000000001 -0.006757 0.04185200000000001
-0.046537 0.020007 0.050027
0.032478 -0.008562999999999999 0.044114
-0.002293 -0.01037 0.047432
0.031751 0.00762 0.04448399999999999
-0.02757 0.013605 0.049541
-0.032468 0.016644 0.049655
0.024998 0.05261900000000001 0.046891
-0.01948800000000001 0.004289 0.049089
0.028604 0.025216 0.04643
0.004932 -0.009363 0.048977
0.030259 -0.008291 0.046645
-0.014388 -0.002437 0.049715
-0.047254 0.031733 0.055075
0.026751 0.037531 0.046758
-0.03961100000000001 0.06638799999999999 0.054498
0.021835 0.07346800000000001 0.048176
0.020123 0.07770300000000002 0.042534
0.016929 -0.003253 -0.013684
-0.013311 0.000165 0.006031
-0.04063000000000001 0.07643500000000002 0.013336
-0.01028 0.008799 0.014395
-0.048174 0.026187 0.054565
-0.008739 -0.005979 0.001157
-0.030719 0.015277 0.005038
-0.017111 0.018682 0.009956000000000001
-0.01415 0.021411 0.007226
0.024359 0.048473 0.048079
-0.020058 0.008227 -0.010299
-0.006686 0.02007 -0.001683
0.022419 0.03003 -0.021528
-0.044382 0.03529399999999999 -0.012695
0.022357 -0.004171 -0.017308
-0.005911 0.004469000000000001 -0.008683
-0.016205 0.011972 0.052005
-0.000449 -0.001919 -0.018476
0.02381 0.01891 -0.021967
-0.001504 0.07011000000000001 -0.019027
-0.04204 0.031113 -0.016323
-0.04316 0.049925 -0.015549
-0.039532 0.05452700000000001 -0.016208
0.002486 0.07340000000000001 -0.016304
-0.021499 0.011656 -0.011652
0.02564 -0.003399 -0.021143
-0.0009130000000000001 0.07537600000000001 -0.014913
0.011607 -0.007902000000000001 -0.019933
0.021881 0.004282 -0.011293
-0.001461 0.075588 -0.009099000000000001
0.006227 -0.008704 -0.010829
-0.010116 0.002997 -0.009112
0.009503000000000001 -0.007129000000000001 -0.008543
-8.400000000000001e-05 -0.00741 -0.003443
-0.01036 0.022182 -0.002889
0.017839 0.07640300000000001 -0.002679
-0.034764 0.07860900000000001 0.006594
-0.021293 0.020996 0.005503
-0.046383 0.028587 0.011003
0.025892 0.005955999999999999 0.005874
-0.011606 0.0006590000000000001 0.010795
0.01827 0.07509200000000002 0.008406
-0.018444 -0.003368 0.010809
0.017784 0.07662100000000002 0.013526
-0.039799 0.07801100000000001 0.019197
-0.041141 0.07368600000000002 0.024261
-0.036519 0.077477 0.029814
-0.04219100000000001 0.021773 0.027297
-0.028691 0.07878000000000002 0.039814
0.025919 0.047918 0.045734
0.029628 0.022949 0.044523
-0.024995 0.07772900000000002 0.05303100000000001
0.003174 0.07692000000000002 0.050782
-0.0006560000000000001 -0.005713 0.050062
-0.04524599999999999 0.038979 0.055495
0.020939 0.06598899999999999 0.049239
-0.036748 0.06739000000000001 0.055072
-0.032885 0.07354000000000001 0.05350300000000001
-0.002711 0.07577100000000002 0.051934
0.007072 -0.007922 -0.016804
-0.046549 0.04698599999999999 -0.000476
-0.000105 -0.006866000000000001 0.000238
-0.02618 0.07482000000000001 -0.005852
0.03160200000000001 0.00893 0.041895
0.010347 -0.011103 0.007683000000000001
-0.028327 0.07421500000000002 0.054427
0.026524 -0.001024 -0.025816
0.013099 0.06568600000000001 -0.021561
-0.03509399999999999 0.020366 0.006687
0.021993 -0.005357 -0.020774
-0.033536 0.01625 0.022116
-0.004658 0.002024 -0.015049
0.006326 -0.009127999999999999 0.001883
0.018153 -0.011045 0.045874
0.014191 0.07347600000000001 -0.009568
0.009131 0.07267400000000002 -0.011353
-0.045219 0.049072 -0.011543
0.024802 0.001317 0.004874
0.020984 -0.0009570000000000001 0.003361
-0.035805 0.01977 0.009419
-0.046706 0.064471 0.017178
-0.049414 0.026047 0.04113900000000001
-0.018761 0.006273 0.050977
-0.009279000000000003 -0.005659 0.049695
-0.049922 0.03224399999999999 0.05255000000000001
0.016736 0.07861500000000002 -0.001121
0.031715 -0.009668 0.04048399999999999
-0.033756 0.05884200000000001 -0.017181
-0.020454 0.01826 -0.014987
-0.01676 0.026795 -0.018332
0.018276 0.045109 -0.022554
-0.017123 0.067431 -0.017734
-0.005671 0.07264300000000001 -0.015228
0.027189 0.002199 -0.022882
0.015089 0.06740400000000001 -0.019924
0.024095 0.007202 -0.012856
-0.016426 0.013843 -0.012726
-0.007669 0.07489800000000001 -0.008677000000000001
-0.005888000000000001 -0.003979000000000001 -0.002844
-0.034798 0.07119600000000002 -0.00295
-0.019518 0.015243 -0.011287
0.008090999999999999 0.07474900000000001 -0.009591000000000001
-0.032748 0.018493 -0.00317
-0.013912 0.0009520000000000002 -0.003472
-0.021648 0.07944600000000002 -0.001815
-0.006158 0.0009060000000000001 0.001283
-0.001572 0.007111 -0.001893
-0.042529 0.02202 0.015946
-0.04076 0.07712300000000002 0.017148
-0.03151200000000001 0.07811800000000001 0.046034
-0.047848 0.022168 0.038803
0.018525 0.07850000000000001 0.045754
-0.028059 0.07746700000000001 0.053085
-0.04837200000000001 0.05276 0.05133800000000001
0.006336 -0.011374 0.04731900000000001
0.028141 0.013757 0.047427
0.02596500000000001 0.023317 0.04799
-0.044993 0.025571 0.055161
-0.03858 0.06157 0.055461
-0.04321100000000001 0.026661 -0.0006610000000000001
0.013495 -0.001114 -0.00365
-0.016406 -0.00213 0.046848
-0.038283 0.05812900000000001 -0.014604
-0.035571 0.075854 0.0446
0.025057 0.013767 -0.018725
-0.047067 0.060289 0.023785
-0.0299 0.012988 0.012509
0.024225 0.058904 0.04271200000000001
0.021483 0.07555100000000001 0.04062200000000001
-0.011988 0.07857200000000002 0.04828399999999999
-0.006415 -0.009295000000000001 0.04514
0.022723 0.005659 -0.025493
0.024577 0.018546 -0.011135
-0.041589 0.038575 -0.01699
-0.047146 0.059868 0.02913
-0.026155 0.011921 0.04581900000000001
0.029863 -0.010455 0.044666
0.019201 -0.009510000000000001 0.047281
-0.014134 0.06417 -0.01928
0.020893 0.039564 0.049068
0.024063 -0.0008600000000000001 -0.026288
0.02356 0.026203 -0.020811
-0.04728 0.059374 0.01479
-0.019994 -0.00078 0.016618
-0.015564 0.07831300000000001 -0.005796
0.022017 0.037553 -0.019171
-0.000163 -0.007937000000000001 -0.019653
0.019811 0.009592000000000002 -0.025072
0.014321 -0.004653999999999999 -0.024408
-0.031794 0.062428 -0.015947
-0.044759 0.044515 -0.014821
0.025746 0.008378 -0.024251
-0.03344 0.014317 -0.014558
-0.004017 0.07169000000000002 -0.017242
-0.001012 0.07358200000000001 -0.016225
0.017614 0.06736600000000001 -0.011388
-0.039821 0.06456300000000001 -0.006225
-0.02535800000000001 0.015351 -0.007359
0.015314 0.07774800000000001 -0.006480000000000001
0.012982 -0.00394 -0.010834
-0.045439 0.059124 0.004012
-0.045927 0.053124 -0.00284
0.025421 0.019284 -0.002205
-0.04350900000000001 0.063454 0.002772
-0.00346 0.011271 0.004253999999999999
-0.042782 0.026347 0.004169000000000001
-0.0006200000000000001 -0.007096 0.003219
-0.02503 0.012486 0.009560000000000001
-0.017543 -0.00367 0.008180999999999999
-0.012835 -0.006602 0.006431
0.022138 0.004307 0.003563
0.026301 0.012609 0.004156
-0.020693 0.001743 0.010178
0.026158 -0.003 0.004715
-0.021262 0.006793 0.011016
0.02767 0.0038 0.009892000000000001
0.028207 -0.007466 0.008496999999999999
-0.043781 0.022555 0.026676
0.015898 0.07869200000000003 0.018582
-0.042996 0.07094500000000001 0.025553
-0.03441900000000001 0.07878900000000001 0.025666
-0.027182 0.07873700000000002 0.048707
0.003675 -0.012198 0.044634
-0.04954 0.022379 0.049005
-0.049743 0.025963 0.05264100000000001
-0.04901800000000001 0.04443 0.05381200000000001
0.022747 0.07246900000000001 0.045748
-0.044367 0.020348 0.052416
-0.03974 0.06784999999999999 0.053565
0.017522 0.077359 0.04910800000000001
0.031093 0.005395 0.046243
-0.04373900000000001 0.058214 0.05485800000000001
0.007397 0.07567800000000001 0.050942
-0.004807000000000001 -0.010345 0.011943
-0.020286 0.021488 0.000617
0.022673 0.056093 0.04867200000000001
0.013041 0.07110400000000001 -0.01276
-0.016139 -0.003594 0.035977
0.011075 0.07788100000000001 0.048869
0.016286 -0.006479 -0.021473
-0.020102 0.011213 0.05191800000000001
-0.008005 0.016277 -0.010751
-0.006923 0.013524 0.011039
0.005309 -0.000103 -0.019182
0.016836 -0.001827 -0.025108
0.022528 0.008969 -0.023831
-0.042346 0.046626 -0.016774
0.026223 -0.002808 -0.024539
-0.017417 0.07093100000000001 -0.013015
0.019577 0.05409800000000001 -0.018511
0.018643 0.060999 -0.018196
-0.04203800000000001 0.05412000000000001 -0.014233
0.025956 0.005129000000000001 -0.019613
-0.03348599999999999 0.06431799999999999 -0.011909
-0.043825 0.05403600000000001 -0.010703
-0.024298 0.06912000000000001 -0.013268
-0.034881 0.06805699999999999 -0.007553999999999999
0.023132 0.007543 -0.009952000000000001
-0.03065 0.015894 0.000211
-0.00189 0.07906800000000001 -0.002782
0.00208 -0.008573000000000001 -0.003295
-0.036811 0.023165 0.000793
0.022118 0.006733 -0.004149000000000001
-0.009077000000000002 0.002478000000000001 -0.005479
0.025106 0.014688 -0.007287
0.019057 0.06826000000000002 0.001661
-0.002908 0.00207 -0.003269
0.017657 -0.001335 0.001589
0.014394 -0.001939 -0.000639
-0.008281 -0.008477 0.006947
-0.044197 0.06792100000000001 0.009835000000000002
-0.035508 0.019319 0.01154
-0.045913 0.067374 0.01577
0.004517 -0.010788 0.008579000000000002
-0.011273 -0.007816999999999999 0.010232
-0.045261 0.024706 0.012104
0.02459 -0.010574 0.016677
0.01918 0.06777300000000001 0.016434
-0.044875 0.024086 0.020621
-0.031854 0.07924000000000002 0.023324
-0.036872 0.07757900000000001 0.026447
-0.025387 0.010024 0.032
-0.0009820000000000002 -0.011438 0.026908
0.0311 -0.00362 0.031337
-0.04975300000000001 0.045278 0.05066300000000001
0.028081 0.032828 0.045322
0.030425 0.011591 0.046166
-0.046705 0.052409 0.054406
0.016683 0.07419400000000002 0.050394
-0.037128 0.031433 -0.017732
-0.020529 0.07416400000000002 -0.009001
-0.044631 0.027228 -0.010001
-0.040647 0.059348 -0.009529000000000001
-0.008664 0.000347 0.006446
-0.045774 0.026095 0.02072
0.006019 -0.006973999999999999 -0.022535
0.028761 -0.010709 0.034998
0.004749000000000001 0.056829 -0.021173
0.026832 0.011458 0.01428
0.029982 -0.003373 0.022137
0.009535000000000002 -0.006572000000000001 -0.022064
-0.039874 0.043237 -0.017296
-0.00573 0.07824000000000002 -0.005377
-0.029745 0.014323 0.036732
-0.035452 0.05184 0.05465500000000001
0.00764 -0.009082000000000002 -0.001147
-0.027036 0.07110400000000001 -0.010217
0.024759 0.03385200000000001 0.022259
0.002054 -0.009372000000000002 -0.01997100000000001
-0.040016 0.029542 -0.017091
0.028304 -0.00497 0.006909
0.027726 0.00265 0.04749399999999999
-0.043545 0.039093 -0.016199
0.013854 -0.005356 -0.01573
-0.039844 0.067159 -0.000309
0.022216 0.036636 -0.010818
-0.004881000000000001 -0.010402 0.024395
-0.01043 0.07058 -0.016683
0.023283 0.05155800000000001 0.03196499999999999
0.032499 0.001203 0.045006
0.024994 0.017929 0.048147
-0.010283 0.021374 -0.006886000000000001
-0.010732 0.019073 -0.010387
-0.015989 0.002565 -0.006868000000000001
-0.030968 0.07914200000000002 0.001337
0.018334 -0.00532 0.003405
-0.023713 0.07968500000000002 0.002144
-0.016894 -0.004652 0.01191
0.01924 -0.0069 0.048063
-0.030028 0.019018 0.05293
-0.023782 0.07461100000000001 0.05435100000000001
0.025784 -0.009896000000000002 0.008636000000000001
-0.047599 0.040724 0.013354
-0.022625 0.015117 0.052448
-0.029699 0.052728 -0.017905
-0.044951 0.058064 -0.002731
-0.013247 -0.006227 0.027794
0.007898000000000001 0.078458 0.038955
-0.024336 0.010419 0.048404
-0.002736 0.008083 -0.017485
-0.045399 0.03361000000000001 -0.001801
-0.008352999999999999 0.07969000000000002 -0.000844
-0.025024 0.07927500000000003 0.013382
-0.021454 0.004979 0.035854
0.02445 0.050238 0.03771
0.028811 0.027568 0.042161
0.019256 0.001291 0.048095
-0.027278 0.023194 0.05333400000000001
-0.012101 0.06702400000000001 -0.019048
0.005763000000000001 -0.010722 -0.008085
-0.04698599999999999 0.048645 0.006836
-0.014459 0.014352 -0.016552
0.002455 -0.008726999999999999 -0.012229
0.024295 0.029969 0.014714
0.017197 -0.010715 0.009378000000000001
-0.046144 0.06447 0.027779
0.003068 -0.010029 -0.016751
0.029314 0.004848000000000001 0.027524
-0.046599 0.061401 0.04385600000000001
-0.037545 0.018677 0.04898499999999999
0.01889 -0.010998 0.023633
-0.028209 0.06528 0.054264
-0.032074 0.014679 0.011964
-0.037648 0.033488 0.054441
-0.015683 0.07847900000000001 0.050025
-0.0206 0.078557 0.041764
-0.047227 0.047247 0.022975
0.025575 0.03506599999999999 0.048037
0.021073 -0.01151 0.042448
0.001717 0.077588 -0.013642
-0.03647499999999999 0.020027 0.025292
0.022314 -0.010597 0.009696000000000001
-0.04885300000000001 0.03083899999999999 0.03648699999999999
0.025741 0.034583 0.032298
0.025356 0.05228 0.044105
-0.003949 0.06753000000000001 -0.019875
-0.009362000000000001 0.069678 -0.017956
-0.006139 -0.0009880000000000002 -0.013435
-0.036535 0.079308 0.017916
0.01955 0.07491100000000001 0.024481
0.021328 0.067869 0.03463900000000001
0.026799 -0.011283 0.04106
-0.002481000000000001 0.07824800000000001 0.04922
-0.021852 0.006732 0.045579
-0.00188 -0.009279000000000003 0.04881600000000001
0.018267 0.06996000000000001 -0.004847000000000001
-0.022886 0.004113 0.014833
0.009480000000000001 0.060823 -0.021727
0.025971 0.016695 0.001938
-0.034326 0.017329 0.038879
-0.037852 0.021791 0.05380700000000001
0.007173000000000001 0.07849500000000002 0.045978
0.013949 -0.001222 -0.007465
0.03033 -0.001984000000000001 0.047031
0.002965 0.079309 0.004748
-0.04385700000000001 0.024152 0.008102999999999999
-0.026643 0.009616000000000001 0.014189
-0.005181000000000001 0.018201 -0.004897
-0.031947 0.076889 0.049703
-0.038035 0.07167600000000002 0.002056
0.021553 0.04803900000000001 -0.001667
-0.00122 -0.006366 -0.015796
-0.045729 0.032246 0.003437
0.014387 -0.012156 0.043478
0.027886 0.02269 0.047237
-0.004687 0.01691 0.001484
0.026775 0.010239 0.007987000000000001
0.02222 0.049994 0.049006
0.018401 0.06426000000000001 0.049914
-0.015382 0.07629600000000003 0.052989
-0.045532 0.04063300000000001 -0.012941
0.020457 0.066411 0.024342
-0.026402 0.07813500000000002 -0.002853
-0.04325900000000001 0.061321 -0.004027
-0.048224 0.056876 0.04385000000000001
-0.007476 0.07378500000000002 0.05264900000000001
-0.000108 0.003982 0.050055
0.012951 0.004912 -0.024318
0.030372 0.004188000000000001 0.033703
-0.015048 0.02456 0.052005
0.001642 -0.011472 0.013661
0.004519 -0.0122 0.039907
-0.00257 -0.011057 0.04213300000000001
0.019036 0.067577 0.013239
-0.03753 0.01863 0.036596
0.010948 -0.01144 0.013087
0.001189 0.072959 0.05181900000000001
0.009745 0.033902 -0.022228
0.013859 0.04031000000000001 0.04957300000000001
0.018928 0.04935800000000001 -0.021743
-0.04385500000000001 0.024532 -0.008503
-0.005563 0.015115 0.008064
-0.012707 0.014742 0.012889
0.027322 -0.005847000000000001 0.047523
0.028068 -0.010278 0.028901
-0.044626 0.05162100000000001 0.055478
-0.037477 0.01696 -0.01343
0.010913 0.07944300000000001 0.005725
0.033083 -0.003348 0.0398
-0.029698 0.058916 -0.017924
-0.040247 0.07016200000000002 0.04864300000000001
-0.010549 0.015989 0.012059
0.016018 0.037793 -0.022911
-0.048595 0.05389100000000001 0.040482
-0.04761900000000001 0.055145 0.032286
0.009900000000000001 0.06634699999999999 0.050591
0.027196 -0.009466 0.014114
0.029126 -0.004332 0.013235
-0.029509 0.015132 0.005227
0.010812 0.07838000000000001 -0.007067
-0.046579 0.06398899999999999 0.012536
-0.02981 0.011482 -0.012048
0.024913 0.010669 -0.014876
-0.01347 -0.005567 0.044628
-0.045056 0.036459 -0.014126
0.00099 0.075351 -0.012164
-0.037194 0.07724400000000002 0.007851
0.01852 0.0641 -0.009214000000000002
-0.039624 0.07263800000000001 0.04172
-0.009858 0.07747500000000002 0.05167600000000001
-0.033104 0.017085 0.005608
0.018545 0.07417500000000002 0.016449
0.01735 0.07746900000000001 0.007249
-0.015781 0.02251 -0.005049000000000001
0.006791 0.07970400000000002 -0.003533
-0.044519 0.05978 0.05356900000000001
0.016029 0.048552 -0.022631
-0.047829 0.027621 0.024724
0.009611 -0.009531000000000001 0.002726
-0.048345 0.024629 0.032897
-0.015831 0.022718 0.003072
-0.027809 0.062496 -0.017509
-0.042188 0.022396 -0.009777000000000001
0.033187 -0.001283 0.04359900000000001
-0.04548199999999999 0.02234 0.05438
-0.018544 -0.00177 0.025353
-0.014632 0.00504 -0.01103
3 1 0 40
608
609
610
611
612
613
614
615
616
617
618
619
620
621
622
623
624
625
626
627
628
629
630
631
632
633
634
635
636
637
638
639
640
641
642
643
644
645
646
647
-0.01708489081664627 0.05121807150853947 0.008443136700482492
0.007121312089170691 0.04292907789056027 0.008407543343470525
-0.01550179821372156 0.03565232265722311 0.02433069817609244
-0.02683578972698582 0.03651062054202738 0.003351352343758246
0.01121948921017258 0.01597755941861806 0.009183010516006795
0.005782264513965619 0.01547581249881397 0.03204521572728319
0.0002132550542105072 0.05908294933997576 0.00365185423506401
-0.01128877663586921 0.0465079255852579 -0.007073655641641148
0.01502314390768669 0.01775232194284394 -0.007456130945250648
-0.01224705767038805 0.03661445415545236 0.008616757227996749
-0.01831886212418142 0.01264141494553184 0.0299001357293877
-0.001315337097305819 0.06457255073626796 -0.01049916990971028
-0.02898534165122141 0.06087663087387737 0.02466128446278901
0.007671500405658413 5.360265111072418e-05 0.007947482248884643
0.004897704066523478 0.02414908984137131 -0.001133633258682375
-0.03007532125506246 0.05482629724438765 0.0008359914428571515
0.005007840007888868 0.02471244772642947 0.01386018198606529
-0.0330753895938041 0.03030708301536991 -0.007363342417090415
0.01580256152041007 0.002947763183124341 0.01760094154901194
-0.03494378035719112 0.04815224831914577 -0.009080552156571439
-0.008064181882287521 0.02605431351788288 0.01982278428771258
0.005519408701334895 0.004078299633123421 -0.008238389517121067
0.007589410256636676 0.02057491531104415 -0.01384733299376022
-0.00514065426493056 0.03354692496917111 -0.01353300571277244
-0.03400900774488725 0.03218577256735723 0.01613530361504969
-0.02365603045917948 0.02407467089502137 0.02248873043558745
-0.02794493701079249 0.02676439529459813 -0.001462526879030477
-0.01774831520297202 0.05934965742863834 -0.006007735966416148
-0.004167584810633527 0.03098521468851543 0.00171140134030856
-0.01891727296560694 0.031352892952846 -0.001231481576465006
-0.006780355233023477 0.05900702341959448 0.03069541879630179
0.01129871145744625 0.007242536267332161 -0.00253966166380614
-0.01523273045826299 0.06858935323447139 0.004278325214084901
0.005447771174010947 -0.0009289033986768967 -0.0009058288147989031
-0.03152501333207597 0.03939487803831345 0.03508885309552937
-0.01149450719004803 0.03053627214775058 -0.00668059618439232
0.01097503430236333 0.06063742589105951 -0.01137225083691423
0.01419897653904655 0.009703397434188235 -0.01485667604255291
-0.03327412180018374 0.04723976273819312 0.01401951993006819
0.002341333803177737 0.0677391000720778 0.02183109000933407
$EndNodes
$Elements
2 3202 1 3202
2 1 2 1210
1 81 80 1 
2 90 1 80 
3 81 1 238 
4 560 1 90 
5 1 518 238 
6 597 518 1 
7 1 560 597 
8 237 2 311 
9 237 378 2 
10 2 240 370 
11 240 2 378 
12 311 2 319 
13 370 319 2 
14 3 93 196 
15 93 3 266 
16 196 264 3 
17 264 383 3 
18 266 3 383 
19 89 4 5 
20 4 367 5 
21 4 89 97 
22 4 97 246 
23 367 4 246 
24 39 194 5 
25 238 39 5 
26 89 5 194 
27 238 5 265 
28 5 367 265 
29 6 96 10 
30 10 104 6 
31 11 6 104 
32 11 328 6 
33 6 267 96 
34 271 267 6 
35 271 6 328 
36 200 97 7 
37 7 97 586 
38 7 98 268 
39 98 7 586 
40 7 268 200 
41 8 9 99 
42 9 8 328 
43 99 82 8 
44 82 195 8 
45 181 8 195 
46 271 8 181 
47 328 8 271 
48 9 12 13 
49 9 328 12 
50 13 389 9 
51 582 99 9 
52 9 389 102 
53 102 582 9 
54 96 453 10 
55 10 594 104 
56 452 10 453 
57 594 10 452 
58 11 114 12 
59 11 12 328 
60 104 365 11 
61 365 114 11 
62 12 114 13 
63 579 13 114 
64 13 177 389 
65 13 579 177 
66 14 59 239 
67 14 392 59 
68 336 112 14 
69 14 112 392 
70 336 14 239 
71 58 15 103 
72 277 15 58 
73 15 528 103 
74 277 335 15 
75 536 15 335 
76 536 528 15 
77 127 16 21 
78 21 16 338 
79 16 114 208 
80 16 579 114 
81 16 208 125 
82 338 16 125 
83 579 16 127 
84 23 17 128 
85 23 179 17 
86 17 182 128 
87 601 17 179 
88 17 205 182 
89 601 205 17 
90 130 18 126 
91 172 126 18 
92 343 18 130 
93 131 211 18 
94 18 343 131 
95 18 211 172 
96 136 21 19 
97 338 19 21 
98 19 131 136 
99 19 345 131 
100 19 338 345 
101 124 20 70 
102 20 341 70 
103 124 342 20 
104 20 210 341 
105 20 342 210 
106 21 132 127 
107 134 132 21 
108 136 134 21 
109 22 133 122 
110 398 22 122 
111 139 133 22 
112 139 22 456 
113 398 456 22 
114 179 23 60 
115 23 572 60 
116 562 23 128 
117 23 562 373 
118 572 23 373 
119 24 134 136 
120 24 527 134 
121 343 24 136 
122 24 343 517 
123 24 517 527 
124 50 350 25 
125 25 486 50 
126 403 251 25 
127 486 25 251 
128 279 25 350 
129 25 279 403 
130 51 26 149 
131 51 282 26 
132 150 149 26 
133 26 170 150 
134 26 282 170 
135 156 254 27 
136 156 27 301 
137 165 27 254 
138 27 165 292 
139 584 27 292 
140 27 584 301 
141 28 30 158 
142 371 30 28 
143 158 469 28 
144 161 253 28 
145 161 28 469 
146 371 28 253 
147 160 29 55 
148 357 55 29 
149 160 505 29 
150 29 298 357 
151 298 29 505 
152 159 30 56 
153 460 56 30 
154 159 158 30 
155 371 464 30 
156 30 464 460 
157 153 31 155 
158 153 604 31 
159 155 31 164 
160 31 524 164 
161 524 31 450 
162 604 450 31 
163 32 169 53 
164 360 32 53 
165 226 169 32 
166 226 32 419 
167 32 360 419 
168 33 148 149 
169 510 148 33 
170 149 150 33 
171 299 33 150 
172 299 511 33 
173 511 510 33 
174 138 34 141 
175 34 138 211 
176 174 34 140 
177 34 211 140 
178 141 34 373 
179 174 373 34 
180 151 35 52 
181 596 52 35 
182 151 489 35 
183 35 545 284 
184 35 284 596 
185 35 489 545 
186 91 245 36 
187 91 36 326 
188 36 329 206 
189 36 206 516 
190 329 36 245 
191 326 36 516 
192 38 76 37 
193 88 38 37 
194 83 37 76 
195 84 37 83 
196 88 37 84 
197 76 38 440 
198 88 191 38 
199 38 191 440 
200 194 39 190 
201 190 39 506 
202 39 238 518 
203 506 39 518 
204 40 388 109 
205 109 523 40 
206 199 40 171 
207 330 171 40 
208 388 40 199 
209 330 40 523 
210 41 116 117 
211 116 41 203 
212 41 117 436 
213 41 201 203 
214 480 201 41 
215 436 480 41 
216 392 42 59 
217 591 59 42 
218 177 42 389 
219 177 591 42 
220 42 273 389 
221 42 392 273 
222 43 332 231 
223 481 43 231 
224 43 481 313 
225 581 43 313 
226 43 331 332 
227 43 581 331 
228 44 112 336 
229 112 44 533 
230 44 406 209 
231 533 44 209 
232 336 526 44 
233 526 406 44 
234 45 138 141 
235 276 138 45 
236 335 45 141 
237 397 276 45 
238 277 45 335 
239 277 397 45 
240 279 46 173 
241 46 587 173 
242 509 207 46 
243 46 207 587 
244 215 46 279 
245 509 46 215 
246 125 178 47 
247 338 125 47 
248 137 338 47 
249 47 563 137 
250 178 563 47 
251 248 210 48 
252 210 537 48 
253 48 344 248 
254 48 441 344 
255 441 48 346 
256 48 537 346 
257 49 209 425 
258 209 49 463 
259 49 425 598 
260 497 463 49 
261 49 598 497 
262 50 489 151 
263 151 589 50 
264 589 350 50 
265 50 486 489 
266 149 349 51 
267 51 468 282 
268 349 568 51 
269 51 525 468 
270 568 525 51 
271 571 151 52 
272 52 359 571 
273 52 596 359 
274 357 53 169 
275 170 282 53 
276 53 299 170 
277 53 282 360 
278 357 299 53 
279 220 54 167 
280 498 167 54 
281 180 54 220 
282 54 180 538 
283 538 498 54 
284 160 55 366 
285 226 55 169 
286 169 55 357 
287 226 366 55 
288 56 490 159 
289 358 490 56 
290 358 56 605 
291 521 56 460 
292 605 56 521 
293 143 57 214 
294 349 57 143 
295 349 148 57 
296 57 148 510 
297 57 592 214 
298 592 57 510 
299 186 58 103 
300 186 397 58 
301 58 397 277 
302 591 239 59 
303 179 60 178 
304 60 563 178 
305 60 572 563 
306 61 66 145 
307 427 66 61 
308 414 61 145 
309 257 61 153 
310 153 61 414 
311 427 61 257 
312 62 154 281 
313 154 62 490 
314 218 62 348 
315 218 555 62 
316 281 348 62 
317 62 555 490 
318 63 455 207 
319 207 509 63 
320 275 455 63 
321 63 457 275 
322 63 509 457 
323 64 80 81 
324 80 64 381 
325 64 81 265 
326 91 64 265 
327 326 64 91 
328 326 381 64 
329 202 94 65 
330 94 267 65 
331 181 65 267 
332 454 65 181 
333 454 202 65 
334 145 66 147 
335 66 565 147 
336 427 565 66 
337 354 154 67 
338 154 358 67 
339 67 175 355 
340 67 605 175 
341 355 354 67 
342 358 605 67 
343 68 393 70 
344 68 70 398 
345 109 68 291 
346 109 393 68 
347 291 68 399 
348 398 399 68 
349 166 225 69 
350 255 166 69 
351 69 225 566 
352 255 69 356 
353 356 69 418 
354 418 69 566 
355 124 70 393 
356 70 341 398 
357 71 478 288 
358 288 521 71 
359 460 464 71 
360 521 460 71 
361 464 478 71 
362 165 72 253 
363 165 254 72 
364 72 224 187 
365 187 371 72 
366 224 72 254 
367 253 72 371 
368 228 73 359 
369 529 73 228 
370 294 73 529 
371 571 73 294 
372 73 571 359 
373 456 74 139 
374 74 462 139 
375 344 74 249 
376 74 456 249 
377 344 441 74 
378 347 74 441 
379 462 74 347 
380 77 75 78 
381 189 75 77 
382 78 75 318 
383 75 189 85 
384 75 85 376 
385 75 376 318 
386 259 83 76 
387 76 260 259 
388 260 76 420 
389 76 440 420 
390 78 183 77 
391 312 77 183 
392 189 77 312 
393 78 79 183 
394 79 78 573 
395 318 573 78 
396 79 86 183 
397 86 79 261 
398 79 573 261 
399 90 80 381 
400 265 81 238 
401 82 83 259 
402 83 82 582 
403 99 582 82 
404 195 82 259 
405 567 84 83 
406 323 567 83 
407 323 83 582 
408 88 84 603 
409 84 567 603 
410 85 189 295 
411 264 322 85 
412 383 264 85 
413 85 295 383 
414 85 322 376 
415 183 86 316 
416 261 560 86 
417 316 86 380 
418 86 560 380 
419 87 448 262 
420 87 262 602 
421 320 386 87 
422 87 602 320 
423 379 87 386 
424 448 87 379 
425 88 184 191 
426 184 88 422 
427 88 561 422 
428 88 603 561 
429 89 586 97 
430 500 89 194 
431 89 500 586 
432 90 381 380 
433 380 560 90 
434 367 245 91 
435 367 91 265 
436 197 98 92 
437 92 98 586 
438 197 92 500 
439 500 92 586 
440 93 171 185 
441 171 93 199 
442 185 196 93 
443 266 199 93 
444 202 95 94 
445 372 94 95 
446 267 94 96 
447 94 372 96 
448 95 186 103 
449 95 103 372 
450 186 95 202 
451 96 372 453 
452 272 97 200 
453 97 272 246 
454 263 98 197 
455 263 268 98 
456 392 100 273 
457 273 100 567 
458 290 100 392 
459 561 100 290 
460 100 561 603 
461 567 100 603 
462 203 201 101 
463 230 101 201 
464 330 203 101 
465 230 444 101 
466 330 101 444 
467 273 102 389 
468 102 273 567 
469 102 567 323 
470 323 582 102 
471 372 103 105 
472 103 528 105 
473 594 365 104 
474 372 105 453 
475 452 453 105 
476 452 105 528 
477 106 272 200 
478 200 433 106 
479 580 272 106 
480 390 106 433 
481 390 595 106 
482 580 106 595 
483 393 107 124 
484 395 124 107 
485 107 388 266 
486 266 583 107 
487 388 107 393 
488 395 107 583 
489 121 108 118 
490 108 269 118 
491 119 108 121 
492 108 119 123 
493 123 276 108 
494 274 269 108 
495 108 394 274 
496 394 108 276 
497 109 291 523 
498 393 109 388 
499 110 207 455 
500 207 110 587 
501 110 233 270 
502 110 543 233 
503 110 270 530 
504 110 455 543 
505 587 110 530 
506 315 275 111 
507 111 275 472 
508 315 111 433 
509 433 111 390 
510 390 111 472 
511 112 113 290 
512 533 113 112 
513 392 112 290 
514 561 290 113 
515 471 422 113 
516 113 422 561 
517 471 113 533 
518 208 114 365 
519 120 256 115 
520 568 120 115 
521 256 329 115 
522 329 580 115 
523 595 568 115 
524 595 115 580 
525 291 117 116 
526 203 330 116 
527 116 523 291 
528 330 523 116 
529 122 117 399 
530 599 117 122 
531 399 117 291 
532 436 117 599 
533 340 121 118 
534 176 118 269 
535 118 176 340 
536 121 126 119 
537 123 119 172 
538 126 172 119 
539 120 146 143 
540 120 143 593 
541 568 146 120 
542 593 256 120 
543 130 126 121 
544 339 130 121 
545 339 121 340 
546 133 599 122 
547 122 399 398 
548 123 172 424 
549 123 424 276 
550 395 342 124 
551 178 125 208 
552 127 132 177 
553 127 177 579 
554 128 182 536 
555 536 562 128 
556 129 206 256 
557 396 206 129 
558 212 554 129 
559 129 593 212 
560 129 256 593 
561 129 554 396 
562 130 339 213 
563 130 213 343 
564 136 131 343 
565 140 211 131 
566 131 345 140 
567 493 132 134 
568 591 177 132 
569 591 132 493 
570 139 485 133 
571 235 133 485 
572 235 599 133 
573 297 493 134 
574 297 134 527 
575 278 135 250 
576 526 250 135 
577 409 135 278 
578 135 409 406 
579 406 526 135 
580 345 137 142 
581 142 137 563 
582 137 345 338 
583 424 211 138 
584 424 138 276 
585 462 502 139 
586 485 139 502 
587 142 174 140 
588 140 345 142 
589 335 141 562 
590 141 373 562 
591 563 174 142 
592 143 146 349 
593 593 143 214 
594 144 145 147 
595 578 145 144 
596 577 144 147 
597 347 144 577 
598 578 144 347 
599 145 430 414 
600 578 430 145 
601 568 349 146 
602 565 577 147 
603 349 149 148 
604 170 299 150 
605 151 571 589 
606 354 152 252 
607 503 252 152 
608 152 355 255 
609 152 255 415 
610 152 354 355 
611 415 503 152 
612 257 153 155 
613 569 153 414 
614 569 604 153 
615 281 154 354 
616 490 358 154 
617 155 164 307 
618 257 155 307 
619 515 254 156 
620 353 285 156 
621 285 515 156 
622 553 156 301 
623 553 353 156 
624 157 234 221 
625 417 157 221 
626 157 604 234 
627 157 417 361 
628 157 361 450 
629 157 450 604 
630 306 158 159 
631 469 158 306 
632 434 306 159 
633 159 520 434 
634 520 159 490 
635 180 220 160 
636 366 180 160 
637 220 505 160 
638 161 165 253 
639 165 161 292 
640 161 514 292 
641 469 514 161 
642 162 221 416 
643 221 162 535 
644 162 416 498 
645 162 498 535 
646 163 459 224 
647 515 163 224 
648 285 308 163 
649 163 515 285 
650 163 308 459 
651 164 308 307 
652 308 164 459 
653 459 164 564 
654 164 524 564 
655 175 166 255 
656 288 166 175 
657 288 225 166 
658 220 167 416 
659 416 167 498 
660 359 168 227 
661 168 362 227 
662 359 596 168 
663 362 168 596 
664 185 171 444 
665 171 330 444 
666 172 211 424 
667 173 403 279 
668 401 403 173 
669 173 587 401 
670 572 373 174 
671 563 572 174 
672 355 175 255 
673 605 288 175 
674 232 176 204 
675 204 176 269 
676 337 176 232 
677 400 176 337 
678 176 400 340 
679 179 178 208 
680 179 208 601 
681 538 180 366 
682 195 607 181 
683 181 267 271 
684 454 181 607 
685 205 452 182 
686 528 182 452 
687 528 536 182 
688 183 316 312 
689 184 585 191 
690 184 422 471 
691 541 184 471 
692 184 541 585 
693 185 240 196 
694 444 240 185 
695 202 394 186 
696 186 394 397 
697 187 224 547 
698 187 464 371 
699 464 187 478 
700 550 478 187 
701 550 187 547 
702 317 242 188 
703 242 482 188 
704 374 317 188 
705 374 188 482 
706 312 295 189 
707 325 194 190 
708 325 190 324 
709 324 190 507 
710 507 190 506 
711 440 191 443 
712 443 191 585 
713 192 193 377 
714 192 382 193 
715 192 321 247 
716 192 247 385 
717 192 377 321 
718 192 385 382 
719 258 193 293 
720 258 377 193 
721 193 382 293 
722 194 325 197 
723 500 194 197 
724 482 195 259 
725 482 607 195 
726 378 196 240 
727 196 378 264 
728 197 325 263 
729 444 230 198 
730 198 230 487 
731 198 431 370 
732 198 370 444 
733 487 431 198 
734 388 199 266 
735 200 268 433 
736 480 230 201 
737 274 394 202 
738 274 202 454 
739 391 232 204 
740 269 508 204 
741 391 204 480 
742 204 483 480 
743 204 508 483 
744 452 205 594 
745 601 594 205 
746 206 329 256 
747 206 396 516 
748 208 365 601 
749 425 209 406 
750 463 533 209 
751 248 341 210 
752 210 342 537 
753 214 592 212 
754 214 212 593 
755 554 212 592 
756 314 517 213 
757 606 314 213 
758 213 339 458 
759 343 213 517 
760 458 606 213 
761 215 279 216 
762 216 411 215 
763 215 411 351 
764 351 509 215 
765 217 216 350 
766 216 217 411 
767 350 216 279 
768 280 217 294 
769 351 217 280 
770 294 217 589 
771 589 217 350 
772 351 411 217 
773 218 348 278 
774 218 278 501 
775 501 555 218 
776 219 280 352 
777 219 410 280 
778 219 352 496 
779 473 410 219 
780 473 219 496 
781 220 416 505 
782 234 476 221 
783 476 416 221 
784 417 221 535 
785 236 222 283 
786 461 222 236 
787 222 352 283 
788 495 352 222 
789 222 461 540 
790 495 222 540 
791 223 229 557 
792 590 229 223 
793 363 369 223 
794 363 223 557 
795 223 369 513 
796 513 590 223 
797 515 224 254 
798 477 224 459 
799 477 547 224 
800 435 225 288 
801 435 289 225 
802 289 566 225 
803 226 539 366 
804 226 419 539 
805 236 228 227 
806 227 228 359 
807 461 236 227 
808 227 362 289 
809 289 461 227 
810 283 228 236 
811 529 228 283 
812 557 229 546 
813 546 229 590 
814 480 487 230 
815 332 247 231 
816 541 231 247 
817 231 471 463 
818 231 463 481 
819 231 541 471 
820 232 243 337 
821 232 391 243 
822 387 270 233 
823 437 387 233 
824 421 437 233 
825 233 543 421 
826 234 549 476 
827 549 234 569 
828 234 604 569 
829 404 243 235 
830 235 243 599 
831 404 235 551 
832 556 235 485 
833 556 551 235 
834 237 322 264 
835 264 378 237 
836 322 237 311 
837 250 526 239 
838 591 250 239 
839 336 239 526 
840 370 240 444 
841 434 241 297 
842 493 297 241 
843 493 241 402 
844 402 241 501 
845 434 520 241 
846 241 520 501 
847 317 532 242 
848 482 242 607 
849 532 508 242 
850 508 607 242 
851 404 337 243 
852 243 391 436 
853 243 436 599 
854 244 308 285 
855 244 285 534 
856 307 308 244 
857 244 512 307 
858 499 512 244 
859 534 499 244 
860 245 246 272 
861 367 246 245 
862 580 245 272 
863 245 580 329 
864 321 541 247 
865 247 332 466 
866 385 247 466 
867 341 248 249 
868 248 344 249 
869 398 341 249 
870 249 456 398 
871 402 278 250 
872 402 250 591 
873 313 296 251 
874 486 251 296 
875 581 313 251 
876 403 581 251 
877 252 281 354 
878 252 600 281 
879 600 252 503 
880 356 415 255 
881 307 427 257 
882 258 293 320 
883 258 320 602 
884 570 377 258 
885 258 602 570 
886 482 259 260 
887 260 420 432 
888 260 432 465 
889 260 465 558 
890 470 482 260 
891 260 558 470 
892 560 261 597 
893 573 597 261 
894 262 448 507 
895 479 262 507 
896 602 262 479 
897 448 268 263 
898 325 324 263 
899 448 263 324 
900 383 583 266 
901 268 421 315 
902 433 268 315 
903 379 421 268 
904 379 268 448 
905 454 269 274 
906 607 269 454 
907 508 269 607 
908 387 445 270 
909 530 270 445 
910 275 315 543 
911 455 275 543 
912 275 457 472 
913 276 397 394 
914 278 348 409 
915 501 278 402 
916 280 283 352 
917 280 529 283 
918 280 294 529 
919 410 351 280 
920 348 281 409 
921 281 600 409 
922 369 360 282 
923 522 369 282 
924 468 522 282 
925 284 415 356 
926 356 418 284 
927 284 545 415 
928 418 596 284 
929 285 353 534 
930 286 287 451 
931 287 286 535 
932 417 286 361 
933 361 286 442 
934 417 535 286 
935 451 442 286 
936 287 310 451 
937 287 498 310 
938 287 535 498 
939 494 435 288 
940 288 478 494 
941 288 605 521 
942 566 289 362 
943 492 289 435 
944 289 492 461 
945 584 292 368 
946 368 292 606 
947 292 514 474 
948 606 292 474 
949 384 320 293 
950 423 293 382 
951 423 384 293 
952 294 589 571 
953 312 303 295 
954 295 303 583 
955 583 383 295 
956 296 305 486 
957 296 497 305 
958 296 313 463 
959 296 463 497 
960 306 297 412 
961 306 434 297 
962 527 412 297 
963 511 357 298 
964 475 298 476 
965 511 298 475 
966 505 476 298 
967 299 357 511 
968 468 496 300 
969 468 300 522 
970 496 495 300 
971 590 300 495 
972 522 300 513 
973 300 590 513 
974 553 301 467 
975 584 467 301 
976 322 311 302 
977 311 375 302 
978 376 302 318 
979 302 548 318 
980 302 376 322 
981 302 375 548 
982 446 303 312 
983 303 333 395 
984 303 446 333 
985 303 395 583 
986 432 420 304 
987 304 420 440 
988 432 304 443 
989 304 440 443 
990 574 486 305 
991 305 497 575 
992 574 305 575 
993 412 514 306 
994 514 469 306 
995 307 512 427 
996 309 428 465 
997 428 309 518 
998 465 570 309 
999 506 309 479 
1000 479 309 570 
1001 518 309 506 
1002 451 310 559 
1003 498 538 310 
1004 539 310 538 
1005 559 310 539 
1006 375 311 319 
1007 446 312 316 
1008 481 463 313 
1009 517 314 606 
1010 421 543 315 
1011 446 316 380 
1012 426 317 374 
1013 317 426 439 
1014 439 483 317 
1015 532 317 483 
1016 318 548 558 
1017 318 558 573 
1018 319 370 431 
1019 375 319 374 
1020 426 374 319 
1021 319 431 426 
1022 320 384 386 
1023 377 443 321 
1024 443 585 321 
1025 585 541 321 
1026 324 507 448 
1027 326 588 381 
1028 516 588 326 
1029 387 384 327 
1030 384 423 327 
1031 445 387 327 
1032 327 423 544 
1033 544 445 327 
1034 332 331 466 
1035 466 331 334 
1036 331 581 334 
1037 519 395 333 
1038 333 446 531 
1039 333 531 519 
1040 334 401 445 
1041 334 581 401 
1042 445 544 334 
1043 334 544 466 
1044 536 335 562 
1045 400 337 404 
1046 458 339 340 
1047 405 340 400 
1048 405 458 340 
1049 342 395 519 
1050 342 519 537 
1051 429 346 537 
1052 429 578 346 
1053 346 578 441 
1054 347 441 578 
1055 462 347 577 
1056 509 351 410 
1057 495 496 352 
1058 552 353 413 
1059 553 413 353 
1060 353 552 534 
1061 360 369 363 
1062 363 419 360 
1063 524 361 442 
1064 524 450 361 
1065 566 362 418 
1066 418 362 596 
1067 557 419 363 
1068 364 400 404 
1069 364 405 400 
1070 551 364 404 
1071 447 405 364 
1072 413 447 364 
1073 551 413 364 
1074 365 594 601 
1075 366 539 538 
1076 467 368 458 
1077 368 606 458 
1078 368 467 584 
1079 369 522 513 
1080 548 375 374 
1081 470 374 482 
1082 548 374 470 
1083 443 377 432 
1084 570 432 377 
1085 386 421 379 
1086 380 381 588 
1087 588 446 380 
1088 385 423 382 
1089 386 384 437 
1090 437 384 387 
1091 544 423 385 
1092 544 385 466 
1093 437 421 386 
1094 525 390 472 
1095 390 525 595 
1096 480 436 391 
1097 396 531 516 
1098 519 531 396 
1099 519 396 554 
1100 581 403 401 
1101 401 530 445 
1102 401 587 530 
1103 591 493 402 
1104 405 447 467 
1105 405 467 458 
1106 406 409 425 
1107 502 462 407 
1108 407 462 577 
1109 407 491 502 
1110 407 512 491 
1111 512 407 565 
1112 577 565 407 
1113 438 484 408 
1114 438 408 542 
1115 408 484 554 
1116 408 510 542 
1117 592 510 408 
1118 408 554 592 
1119 600 425 409 
1120 457 410 473 
1121 457 509 410 
1122 474 514 412 
1123 412 527 474 
1124 447 413 553 
1125 551 552 413 
1126 414 430 488 
1127 549 414 488 
1128 414 549 569 
1129 574 503 415 
1130 574 415 545 
1131 505 416 476 
1132 576 539 419 
1133 557 576 419 
1134 425 600 598 
1135 431 439 426 
1136 512 565 427 
1137 558 465 428 
1138 428 518 597 
1139 558 428 573 
1140 597 573 428 
1141 429 484 430 
1142 429 430 578 
1143 484 429 537 
1144 484 438 430 
1145 488 430 438 
1146 431 487 439 
1147 465 432 570 
1148 435 576 492 
1149 550 435 494 
1150 550 559 435 
1151 576 435 559 
1152 438 449 504 
1153 542 449 438 
1154 438 504 488 
1155 439 487 483 
1156 451 477 442 
1157 459 442 477 
1158 564 442 459 
1159 442 564 524 
1160 446 588 531 
1161 447 553 467 
1162 449 475 504 
1163 449 511 475 
1164 449 542 511 
1165 451 559 477 
1166 457 473 472 
1167 492 546 461 
1168 540 461 546 
1169 463 471 533 
1170 496 468 525 
1171 470 558 548 
1172 525 472 473 
1173 525 473 496 
1174 517 474 527 
1175 474 517 606 
1176 549 475 476 
1177 504 475 549 
1178 547 477 550 
1179 550 477 559 
1180 550 494 478 
1181 507 506 479 
1182 570 602 479 
1183 487 480 483 
1184 508 532 483 
1185 554 484 537 
1186 485 502 491 
1187 485 491 556 
1188 486 545 489 
1189 545 486 574 
1190 549 488 504 
1191 490 555 520 
1192 512 499 491 
1193 499 534 491 
1194 491 534 556 
1195 492 557 546 
1196 492 576 557 
1197 590 495 540 
1198 497 598 575 
1199 501 520 555 
1200 503 574 575 
1201 598 503 575 
1202 598 600 503 
1203 510 511 542 
1204 588 516 531 
1205 537 519 554 
1206 568 595 525 
1207 556 534 552 
1208 559 539 576 
1209 546 590 540 
1210 552 551 556 
3 1 4 1992
1211 269 202 454 274 
1212 15 335 277 639 
1213 174 373 572 628 
1214 380 86 316 446 
1215 126 339 130 121 
1216 574 486 545 489 
1217 572 563 174 628 
1218 335 45 277 639 
1219 336 14 112 533 
1220 115 206 595 580 
1221 208 42 125 239 
1222 34 140 211 467 
1223 216 411 217 620 
1224 125 208 239 632 
1225 32 419 169 226 
1226 270 530 623 640 
1227 208 178 179 633 
1228 270 530 445 623 
1229 452 453 10 643 
1230 259 9 11 102 
1231 484 609 537 612 
1232 195 65 267 181 
1233 141 613 34 621 
1234 449 610 609 628 
1235 312 446 316 183 
1236 179 23 17 628 
1237 59 239 42 634 
1238 11 625 102 634 
1239 530 207 587 620 
1240 383 199 171 93 
1241 530 270 63 640 
1242 299 150 33 511 
1243 72 292 161 514 
1244 331 334 581 620 
1245 42 239 208 634 
1246 334 620 331 623 
1247 246 97 4 619 
1248 286 417 221 535 
1249 533 14 112 625 
1250 551 138 34 621 
1251 208 179 601 617 
1252 410 473 219 620 
1253 174 142 140 606 
1254 391 203 629 641 
1255 207 530 63 620 
1256 34 373 174 613 
1257 125 42 16 239 
1258 34 174 467 613 
1259 46 173 587 620 
1260 334 445 620 623 
1261 609 610 449 638 
1262 530 620 445 623 
1263 208 125 178 633 
1264 547 550 477 613 
1265 591 16 42 239 
1266 97 586 325 98 
1267 34 141 373 613 
1268 125 208 632 633 
1269 581 334 401 620 
1270 383 266 583 376 
1271 533 632 611 646 
1272 47 563 178 633 
1273 208 239 632 634 
1274 563 47 137 618 
1275 99 9 82 582 
1276 625 627 611 637 
1277 587 401 530 620 
1278 231 611 623 646 
1279 104 594 10 643 
1280 439 483 487 230 
1281 608 610 620 646 
1282 387 270 623 635 
1283 564 524 569 442 
1284 124 393 70 639 
1285 591 132 16 493 
1286 59 632 239 634 
1287 384 327 423 623 
1288 620 623 530 640 
1289 477 559 451 613 
1290 336 14 533 632 
1291 297 241 434 633 
1292 579 16 42 591 
1293 14 632 59 634 
1294 532 317 242 188 
1295 205 601 17 643 
1296 23 128 17 636 
1297 138 141 34 621 
1298 216 217 350 620 
1299 331 43 623 646 
1300 587 173 401 620 
1301 516 272 246 614 
1302 41 201 391 203 
1303 58 616 15 629 
1304 387 384 437 635 
1305 200 97 614 619 
1306 173 279 403 620 
1307 279 25 403 620 
1308 142 174 563 618 
1309 567 603 100 625 
1310 9 11 328 259 
1311 331 623 620 646 
1312 45 141 138 621 
1313 563 137 142 618 
1314 467 211 34 447 
1315 60 23 179 628 
1316 200 268 7 619 
1317 579 132 16 591 
1318 449 609 438 628 
1319 208 632 611 634 
1320 314 211 140 606 
1321 423 327 544 623 
1322 530 63 620 640 
1323 277 639 45 641 
1324 173 403 401 620 
1325 572 373 23 628 
1326 232 337 45 276 
1327 413 613 491 626 
1328 208 611 632 633 
1329 487 431 230 198 
1330 277 629 15 639 
1331 447 34 467 613 
1332 270 445 387 623 
1333 59 392 14 634 
1334 277 58 15 629 
1335 11 104 260 634 
1336 610 642 620 646 
1337 562 335 536 624 
1338 73 359 227 228 
1339 387 445 327 623 
1340 208 617 601 637 
1341 384 387 327 623 
1342 447 551 34 621 
1343 174 563 618 628 
1344 208 179 617 633 
1345 413 621 613 626 
1346 76 102 11 625 
1347 388 393 107 616 
1348 206 115 329 580 
1349 328 82 9 259 
1350 327 445 544 623 
1351 260 470 558 631 
1352 473 638 640 647 
1353 124 616 393 639 
1354 512 442 564 569 
1355 425 600 409 348 
1356 615 611 627 637 
1357 533 14 625 632 
1358 379 448 268 619 
1359 516 245 246 272 
1360 174 606 467 618 
1361 40 330 523 645 
1362 112 392 290 625 
1363 608 615 611 623 
1364 217 411 351 620 
1365 330 629 523 645 
1366 611 632 610 646 
1367 560 597 261 446 
1368 558 573 79 78 
1369 306 618 412 633 
1370 25 251 403 620 
1371 273 567 100 625 
1372 536 182 128 636 
1373 8 181 195 271 
1374 276 424 337 138 
1375 610 617 608 638 
1376 76 11 259 625 
1377 231 623 481 646 
1378 344 441 48 346 
1379 387 623 384 635 
1380 437 384 386 635 
1381 608 620 610 638 
1382 172 424 340 123 
1383 544 445 334 623 
1384 14 239 59 632 
1385 208 611 617 637 
1386 332 43 231 623 
1387 208 634 611 637 
1388 231 623 611 627 
1389 536 15 528 622 
1390 273 102 625 634 
1391 601 637 17 643 
1392 102 11 259 76 
1393 508 397 483 629 
1394 41 201 480 391 
1395 611 623 615 627 
1396 508 186 397 629 
1397 609 638 449 647 
1398 262 87 602 635 
1399 610 638 620 642 
1400 208 617 611 633 
1401 581 403 251 620 
1402 125 402 493 633 
1403 231 43 481 623 
1404 292 72 474 514 
1405 608 638 614 640 
1406 483 397 204 629 
1407 260 634 104 637 
1408 296 497 463 646 
1409 330 40 171 645 
1410 620 638 608 640 
1411 611 617 608 646 
1412 334 331 466 623 
1413 201 483 204 629 
1414 449 610 559 638 
1415 15 629 616 639 
1416 273 102 567 625 
1417 520 501 555 642 
1418 514 72 474 547 
1419 501 633 632 642 
1420 508 483 532 629 
1421 544 334 466 623 
1422 125 632 402 633 
1423 449 638 511 647 
1424 464 158 30 478 
1425 178 125 47 633 
1426 337 176 424 276 
1427 309 615 619 635 
1428 401 403 581 620 
1429 481 623 43 646 
1430 614 640 638 647 
1431 304 541 184 625 
1432 433 614 390 640 
1433 572 60 563 628 
1434 179 17 601 617 
1435 70 393 68 639 
1436 528 452 182 631 
1437 421 233 437 635 
1438 611 610 632 633 
1439 232 276 45 641 
1440 384 423 293 627 
1441 112 290 113 625 
1442 394 274 202 269 
1443 232 45 337 641 
1444 14 336 239 632 
1445 536 335 15 612 
1446 492 620 219 638 
1447 607 195 65 482 
1448 125 16 493 402 
1449 72 514 187 547 
1450 365 208 601 637 
1451 174 467 613 618 
1452 397 276 232 641 
1453 245 516 580 272 
1454 141 612 613 621 
1455 200 614 268 619 
1456 520 633 501 642 
1457 47 618 563 633 
1458 616 630 78 645 
1459 594 104 637 643 
1460 276 337 45 138 
1461 392 59 42 634 
1462 463 632 533 646 
1463 14 392 625 634 
1464 497 642 632 646 
1465 137 345 19 338 
1466 488 491 613 626 
1467 379 619 268 635 
1468 83 323 102 76 
1469 280 410 217 351 
1470 112 14 392 625 
1471 611 608 623 646 
1472 23 373 562 624 
1473 473 638 620 640 
1474 141 562 373 624 
1475 52 289 151 571 
1476 575 620 642 646 
1477 340 211 424 172 
1478 489 589 50 151 
1479 37 38 88 84 
1480 615 623 608 635 
1481 397 45 276 641 
1482 550 638 610 642 
1483 199 171 40 645 
1484 446 616 622 630 
1485 435 492 576 638 
1486 391 629 204 641 
1487 591 579 132 177 
1488 614 638 609 647 
1489 379 448 619 635 
1490 208 365 634 637 
1491 610 617 611 646 
1492 71 159 490 520 
1493 614 619 615 635 
1494 78 630 318 645 
1495 189 295 75 85 
1496 496 473 525 647 
1497 11 260 625 634 
1498 325 586 197 98 
1499 533 471 611 625 
1500 49 632 497 642 
1501 615 627 623 635 
1502 533 625 611 632 
1503 365 104 11 634 
1504 497 632 463 646 
1505 493 16 591 402 
1506 217 351 410 620 
1507 341 20 70 612 
1508 62 490 555 642 
1509 325 97 98 619 
1510 611 634 625 637 
1511 278 409 348 218 
1512 278 501 402 632 
1513 58 397 186 629 
1514 413 551 447 621 
1515 123 340 172 121 
1516 142 606 174 618 
1517 393 388 109 645 
1518 632 642 610 646 
1519 578 429 346 626 
1520 496 638 473 647 
1521 277 45 397 641 
1522 42 208 114 634 
1523 512 442 459 564 
1524 610 618 550 633 
1525 268 614 433 640 
1526 141 373 613 624 
1527 260 625 634 637 
1528 277 629 639 641 
1529 542 609 449 647 
1530 424 337 138 400 
1531 598 497 575 642 
1532 266 376 383 645 
1533 497 49 463 632 
1534 314 140 142 606 
1535 246 614 619 644 
1536 527 137 47 618 
1537 606 211 140 467 
1538 204 483 508 397 
1539 572 23 60 628 
1540 586 194 97 325 
1541 609 617 610 638 
1542 524 604 569 442 
1543 277 397 629 641 
1544 486 305 296 620 
1545 583 376 266 645 
1546 608 623 620 640 
1547 241 402 501 632 
1548 437 386 421 635 
1549 126 340 339 121 
1550 450 604 524 442 
1551 368 72 474 292 
1552 632 633 610 642 
1553 555 501 218 642 
1554 11 9 12 273 
1555 616 629 58 630 
1556 608 615 614 617 
1557 260 259 11 625 
1558 256 206 120 115 
1559 542 449 511 647 
1560 179 17 617 628 
1561 182 17 128 636 
1562 109 388 40 645 
1563 528 182 536 622 
1564 473 640 525 647 
1565 384 623 423 627 
1566 405 211 447 364 
1567 270 110 455 543 
1568 421 268 315 640 
1569 374 426 319 431 
1570 261 86 560 446 
1571 575 642 497 646 
1572 442 524 450 361 
1573 438 609 624 628 
1574 562 536 128 624 
1575 393 109 639 645 
1576 610 608 617 646 
1577 368 584 72 292 
1578 211 340 339 172 
1579 58 15 616 630 
1580 573 261 597 446 
1581 336 533 44 632 
1582 7 268 263 619 
1583 581 251 313 620 
1584 289 52 35 596 
1585 15 612 335 639 
1586 58 103 15 630 
1587 174 613 373 628 
1588 393 616 388 645 
1589 520 71 159 478 
1590 560 597 531 644 
1591 591 42 579 177 
1592 123 424 340 176 
1593 100 392 273 625 
1594 519 537 609 612 
1595 325 194 97 619 
1596 549 476 221 234 
1597 379 268 421 640 
1598 520 555 490 642 
1599 365 594 104 637 
1600 611 617 610 633 
1601 526 336 44 632 
1602 365 104 634 637 
1603 490 71 520 642 
1604 141 45 335 612 
1605 277 397 58 629 
1606 513 300 468 638 
1607 184 541 471 625 
1608 10 594 452 643 
1609 393 109 68 639 
1610 98 97 7 619 
1611 496 468 638 647 
1612 44 533 209 632 
1613 138 404 337 621 
1614 335 612 45 639 
1615 508 532 242 629 
1616 526 135 250 632 
1617 516 614 246 644 
1618 620 623 608 646 
1619 142 137 517 618 
1620 368 474 72 547 
1621 293 258 384 627 
1622 124 70 20 612 
1623 72 584 368 547 
1624 431 370 444 198 
1625 250 239 526 632 
1626 424 176 337 400 
1627 268 635 619 640 
1628 481 43 313 646 
1629 613 621 612 626 
1630 379 635 268 640 
1631 536 128 622 636 
1632 204 629 397 641 
1633 250 135 278 632 
1634 311 322 264 237 
1635 336 526 239 632 
1636 405 211 467 447 
1637 389 273 9 102 
1638 7 263 98 619 
1639 325 190 194 619 
1640 199 266 383 645 
1641 567 102 76 625 
1642 208 365 114 634 
1643 550 618 306 633 
1644 205 17 636 643 
1645 406 135 526 632 
1646 527 412 474 618 
1647 474 547 368 618 
1648 629 630 616 645 
1649 496 525 468 647 
1650 448 263 268 619 
1651 391 436 41 641 
1652 508 242 186 629 
1653 241 402 632 633 
1654 126 172 340 121 
1655 579 42 16 114 
1656 452 528 105 631 
1657 241 632 501 633 
1658 201 101 374 629 
1659 547 552 413 613 
1660 260 615 637 643 
1661 324 190 325 619 
1662 11 12 114 634 
1663 597 380 428 644 
1664 109 629 523 639 
1665 586 97 7 98 
1666 559 550 435 638 
1667 428 615 614 619 
1668 571 151 589 492 
1669 332 623 231 627 
1670 463 313 296 646 
1671 211 405 138 364 
1672 114 12 42 634 
1673 609 614 428 615 
1674 45 639 621 641 
1675 610 617 609 628 
1676 392 100 290 625 
1677 463 481 313 646 
1678 309 615 428 619 
1679 438 624 613 628 
1680 94 202 242 95 
1681 528 15 103 630 
1682 561 100 603 625 
1683 614 615 608 635 
1684 550 435 638 642 
1685 388 616 107 645 
1686 608 635 623 640 
1687 536 622 182 636 
1688 399 68 291 639 
1689 291 523 629 639 
1690 571 294 73 492 
1691 421 386 379 635 
1692 105 372 453 631 
1693 561 290 100 625 
1694 482 94 242 470 
1695 200 7 97 619 
1696 520 71 478 642 
1697 233 635 421 640 
1698 313 620 296 646 
1699 559 610 550 638 
1700 138 337 45 621 
1701 548 318 630 645 
1702 84 83 37 76 
1703 340 123 176 121 
1704 392 273 625 634 
1705 15 528 622 630 
1706 629 639 109 645 
1707 241 493 402 633 
1708 576 559 435 638 
1709 268 619 614 640 
1710 83 102 259 76 
1711 88 440 422 625 
1712 536 612 15 622 
1713 393 639 616 645 
1714 285 163 308 459 
1715 205 17 182 636 
1716 172 340 339 126 
1717 11 273 12 634 
1718 374 330 444 171 
1719 466 623 332 627 
1720 365 601 594 637 
1721 398 399 122 621 
1722 101 330 374 629 
1723 570 623 384 627 
1724 615 617 611 637 
1725 491 477 488 613 
1726 618 628 563 633 
1727 355 605 67 354 
1728 562 128 23 624 
1729 11 114 365 634 
1730 373 624 23 628 
1731 610 628 618 633 
1732 333 446 616 622 
1733 470 630 558 631 
1734 428 614 531 644 
1735 380 560 86 446 
1736 551 413 556 621 
1737 444 370 319 375 
1738 179 628 617 633 
1739 15 616 612 639 
1740 252 152 354 154 
1741 141 613 612 624 
1742 314 142 517 606 
1743 434 159 478 520 
1744 313 251 296 620 
1745 171 199 383 548 
1746 560 531 597 446 
1747 246 619 4 644 
1748 368 613 467 618 
1749 611 615 608 617 
1750 260 637 104 643 
1751 105 103 372 630 
1752 139 502 462 344 
1753 441 462 502 344 
1754 521 71 56 490 
1755 295 376 583 645 
1756 17 637 636 643 
1757 333 609 446 622 
1758 446 303 333 616 
1759 304 541 625 627 
1760 23 624 128 636 
1761 558 631 622 636 
1762 124 70 612 639 
1763 344 248 249 626 
1764 47 527 618 633 
1765 558 470 548 630 
1766 614 525 640 647 
1767 291 109 523 639 
1768 536 622 128 624 
1769 379 421 635 640 
1770 201 374 101 230 
1771 269 186 394 397 
1772 122 22 398 621 
1773 176 123 424 276 
1774 116 41 436 641 
1775 597 428 531 644 
1776 541 231 471 627 
1777 10 453 96 260 
1778 94 202 65 242 
1779 399 639 291 641 
1780 548 383 171 93 
1781 124 20 342 612 
1782 311 264 3 196 
1783 250 278 402 632 
1784 243 436 391 641 
1785 503 252 62 642 
1786 12 273 42 634 
1787 484 438 408 609 
1788 541 471 625 627 
1789 15 622 616 630 
1790 345 19 24 137 
1791 195 65 482 267 
1792 542 408 609 647 
1793 453 631 10 643 
1794 440 84 76 625 
1795 589 294 571 492 
1796 619 635 614 640 
1797 570 384 258 627 
1798 291 639 629 641 
1799 614 615 609 617 
1800 341 20 612 626 
1801 462 347 74 441 
1802 379 386 87 635 
1803 328 11 6 259 
1804 494 550 478 642 
1805 211 458 405 467 
1806 104 10 6 260 
1807 372 630 470 631 
1808 473 472 525 640 
1809 357 226 539 511 
1810 104 10 260 643 
1811 315 111 275 640 
1812 428 609 531 614 
1813 609 558 622 636 
1814 269 204 508 397 
1815 75 295 189 645 
1816 374 483 201 629 
1817 528 103 105 630 
1818 374 629 330 645 
1819 392 42 273 634 
1820 330 171 374 645 
1821 175 605 67 355 
1822 45 621 337 641 
1823 452 631 453 643 
1824 181 267 195 271 
1825 124 612 616 639 
1826 496 492 219 638 
1827 232 204 397 641 
1828 531 446 333 609 
1829 122 399 117 641 
1830 159 158 306 478 
1831 614 635 608 640 
1832 372 94 482 470 
1833 174 618 613 628 
1834 243 391 232 641 
1835 232 337 243 641 
1836 382 293 423 627 
1837 249 341 398 626 
1838 198 431 230 444 
1839 45 612 141 621 
1840 155 31 153 164 
1841 612 616 15 622 
1842 428 619 614 644 
1843 474 606 517 618 
1844 23 628 624 636 
1845 609 622 612 624 
1846 424 211 405 138 
1847 616 639 629 645 
1848 613 624 373 628 
1849 527 474 517 618 
1850 533 463 209 632 
1851 291 68 109 639 
1852 534 499 491 477 
1853 547 613 368 618 
1854 598 49 497 642 
1855 438 488 504 613 
1856 56 521 490 358 
1857 309 465 615 635 
1858 419 282 357 170 
1859 399 621 639 641 
1860 187 613 547 618 
1861 599 122 117 641 
1862 550 559 477 613 
1863 70 621 612 639 
1864 464 306 158 478 
1865 595 580 272 106 
1866 598 575 503 642 
1867 547 477 552 613 
1868 188 242 532 629 
1869 255 503 415 642 
1870 118 108 123 276 
1871 344 249 502 626 
1872 39 190 506 619 
1873 452 105 453 631 
1874 38 191 88 440 
1875 382 193 293 627 
1876 344 502 441 626 
1877 456 502 249 626 
1878 297 47 125 633 
1879 153 257 155 307 
1880 22 621 133 626 
1881 399 291 117 641 
1882 247 231 541 627 
1883 452 594 205 643 
1884 382 423 385 627 
1885 86 261 573 446 
1886 606 368 467 618 
1887 513 468 557 638 
1888 83 567 323 76 
1889 209 49 406 632 
1890 431 370 319 444 
1891 111 472 275 640 
1892 110 270 233 543 
1893 567 102 323 76 
1894 612 621 45 639 
1895 137 527 47 338 
1896 176 424 340 400 
1897 456 249 398 626 
1898 508 186 269 397 
1899 307 155 153 164 
1900 531 333 519 609 
1901 496 468 300 638 
1902 243 599 117 641 
1903 412 618 527 633 
1904 484 612 613 624 
1905 260 615 465 627 
1906 335 612 536 624 
1907 404 243 337 621 
1908 271 328 6 259 
1909 142 517 606 618 
1910 220 167 54 475 
1911 118 123 176 276 
1912 419 357 226 539 
1913 84 38 88 440 
1914 479 506 507 619 
1915 470 630 629 645 
1916 494 478 71 642 
1917 337 621 243 641 
1918 65 202 607 242 
1919 211 140 213 314 
1920 117 291 116 641 
1921 527 517 137 618 
1922 397 269 232 276 
1923 560 531 588 644 
1924 137 24 345 517 
1925 161 165 72 253 
1926 75 376 295 645 
1927 76 38 84 440 
1928 574 435 489 545 
1929 420 304 184 625 
1930 88 191 422 440 
1931 446 609 558 622 
1932 1 597 560 90 
1933 422 471 113 625 
1934 375 374 319 444 
1935 422 184 471 625 
1936 548 302 383 375 
1937 514 306 187 618 
1938 247 541 321 627 
1939 140 213 131 211 
1940 147 491 66 145 
1941 140 131 213 314 
1942 503 494 252 642 
1943 382 192 193 627 
1944 574 415 503 642 
1945 309 619 479 635 
1946 383 548 199 645 
1947 494 503 255 642 
1948 105 630 372 631 
1949 11 12 9 328 
1950 122 621 399 641 
1951 201 483 374 230 
1952 631 636 615 643 
1953 289 151 571 492 
1954 554 614 609 647 
1955 118 176 123 121 
1956 101 374 330 444 
1957 609 617 615 636 
1958 199 548 171 645 
1959 242 202 186 95 
1960 454 65 202 607 
1961 103 470 372 630 
1962 95 372 103 470 
1963 332 231 247 627 
1964 548 630 470 645 
1965 528 630 105 631 
1966 440 76 420 625 
1967 125 493 297 633 
1968 138 405 424 400 
1969 339 130 172 126 
1970 412 514 474 618 
1971 49 209 463 632 
1972 354 605 67 154 
1973 622 630 528 631 
1974 211 405 340 424 
1975 72 27 584 254 
1976 457 472 473 640 
1977 92 197 586 98 
1978 263 325 197 98 
1979 615 465 627 635 
1980 232 391 204 641 
1981 56 71 159 490 
1982 636 637 617 643 
1983 586 197 194 325 
1984 446 622 558 630 
1985 357 29 55 298 
1986 204 176 232 269 
1987 390 614 525 640 
1988 243 621 599 641 
1989 435 550 494 642 
1990 412 527 297 633 
1991 308 244 285 459 
1992 574 503 575 642 
1993 271 267 195 259 
1994 243 117 436 641 
1995 94 372 95 470 
1996 345 142 137 517 
1997 5 4 619 644 
1998 352 529 280 492 
1999 128 624 622 636 
2000 444 431 374 319 
2001 295 583 303 645 
2002 599 621 122 641 
2003 249 248 341 626 
2004 147 66 491 565 
2005 138 551 404 621 
2006 117 116 436 641 
2007 511 51 33 647 
2008 484 613 438 624 
2009 434 159 306 478 
2010 615 617 637 643 
2011 456 485 502 626 
2012 269 394 108 276 
2013 308 512 307 244 
2014 263 268 7 98 
2015 388 199 40 645 
2016 260 631 615 643 
2017 269 274 108 394 
2018 181 65 454 607 
2019 265 81 64 238 
2020 118 340 176 121 
2021 21 134 338 132 
2022 472 390 525 640 
2023 79 316 446 183 
2024 213 18 131 211 
2025 281 252 62 503 
2026 419 357 169 226 
2027 510 148 57 647 
2028 484 408 554 609 
2029 127 338 16 132 
2030 280 529 294 492 
2031 374 470 629 645 
2032 242 202 607 508 
2033 190 324 506 619 
2034 502 578 441 626 
2035 548 171 444 375 
2036 617 628 610 633 
2037 309 506 479 619 
2038 108 118 269 276 
2039 206 120 129 256 
2040 219 352 280 492 
2041 550 547 187 613 
2042 396 272 516 614 
2043 304 432 541 627 
2044 558 630 622 631 
2045 374 101 230 444 
2046 395 333 303 616 
2047 172 130 18 126 
2048 275 472 457 640 
2049 569 549 414 512 
2050 503 62 281 600 
2051 612 622 536 624 
2052 5 619 39 644 
2053 187 550 613 618 
2054 338 16 21 127 
2055 192 377 193 627 
2056 453 260 10 631 
2057 35 489 435 545 
2058 326 64 381 644 
2059 360 419 369 282 
2060 568 593 212 129 
2061 473 410 509 620 
2062 89 194 97 586 
2063 484 438 609 624 
2064 484 609 612 624 
2065 606 474 368 618 
2066 137 19 527 338 
2067 353 224 163 552 
2068 107 583 266 645 
2069 408 554 609 647 
2070 148 349 57 647 
2071 149 349 148 647 
2072 81 381 64 644 
2073 107 266 388 645 
2074 232 204 269 397 
2075 149 33 51 647 
2076 512 153 569 564 
2077 405 138 364 400 
2078 238 81 64 644 
2079 127 21 338 132 
2080 424 405 340 400 
2081 591 42 59 239 
2082 230 483 374 532 
2083 615 636 617 643 
2084 171 444 374 548 
2085 430 491 488 626 
2086 388 266 199 645 
2087 357 282 53 170 
2088 150 26 51 511 
2089 241 297 493 633 
2090 569 234 549 604 
2091 118 123 108 121 
2092 527 24 19 137 
2093 137 527 24 517 
2094 545 435 35 284 
2095 95 103 186 470 
2096 499 414 549 512 
2097 47 297 527 633 
2098 485 556 491 626 
2099 186 103 58 470 
2100 367 265 91 644 
2101 622 624 609 636 
2102 394 269 397 276 
2103 16 127 132 579 
2104 187 306 550 618 
2105 289 151 492 435 
2106 414 430 491 488 
2107 81 1 80 518 
2108 573 316 86 446 
2109 127 132 579 177 
2110 5 265 367 644 
2111 299 357 53 170 
2112 207 110 530 587 
2113 163 285 353 552 
2114 64 91 265 644 
2115 362 596 284 418 
2116 468 513 557 522 
2117 336 112 44 533 
2118 150 51 33 511 
2119 195 267 482 259 
2120 357 282 419 169 
2121 230 431 374 444 
2122 238 5 39 644 
2123 412 306 514 618 
2124 265 5 238 644 
2125 171 548 374 645 
2126 381 380 588 644 
2127 442 512 477 569 
2128 96 94 482 372 
2129 85 295 75 376 
2130 326 91 64 644 
2131 576 557 468 638 
2132 504 559 475 449 
2133 95 242 94 470 
2134 269 118 176 276 
2135 500 92 197 586 
2136 604 31 450 524 
2137 357 53 282 169 
2138 64 265 238 644 
2139 10 631 260 643 
2140 502 407 578 626 
2141 117 599 243 436 
2142 349 525 568 647 
2143 578 430 429 626 
2144 415 574 435 642 
2145 396 614 516 644 
2146 320 293 258 384 
2147 499 534 459 477 
2148 340 339 458 211 
2149 374 548 470 645 
2150 515 156 224 353 
2151 366 505 475 298 
2152 541 432 321 627 
2153 292 165 72 161 
2154 6 96 267 259 
2155 188 374 242 629 
2156 1 81 238 518 
2157 475 54 220 310 
2158 499 534 244 459 
2159 318 376 75 645 
2160 106 390 433 200 
2161 491 407 147 565 
2162 496 461 352 492 
2163 352 219 496 492 
2164 596 35 289 435 
2165 244 534 285 459 
2166 114 13 579 177 
2167 358 67 605 154 
2168 357 419 576 539 
2169 605 288 358 154 
2170 288 605 355 354 
2171 289 362 596 435 
2172 114 579 42 177 
2173 430 407 491 626 
2174 380 560 597 90 
2175 57 592 143 214 
2176 377 432 193 627 
2177 428 1 518 644 
2178 71 56 159 460 
2179 375 374 444 548 
2180 123 119 108 121 
2181 242 374 470 629 
2182 224 156 553 353 
2183 512 442 477 459 
2184 288 605 354 154 
2185 242 186 202 508 
2186 349 57 592 143 
2187 569 549 477 442 
2188 512 459 477 499 
2189 94 65 267 482 
2190 271 6 267 259 
2191 430 578 407 626 
2192 224 163 515 353 
2193 224 156 301 553 
2194 96 482 259 260 
2195 377 321 443 432 
2196 116 41 117 436 
2197 186 242 95 470 
2198 541 304 443 432 
2199 238 518 81 644 
2200 568 396 554 614 
2201 468 557 576 522 
2202 254 27 584 301 
2203 354 355 288 152 
2204 605 288 521 358 
2205 115 256 206 329 
2206 288 354 152 154 
2207 321 432 377 627 
2208 405 340 458 211 
2209 522 557 576 363 
2210 238 39 518 644 
2211 342 20 537 612 
2212 166 69 225 255 
2213 505 220 180 538 
2214 537 612 20 626 
2215 84 37 38 76 
2216 288 605 175 355 
2217 381 588 326 644 
2218 568 593 129 120 
2219 134 527 19 338 
2220 254 72 27 165 
2221 339 213 458 211 
2222 503 281 252 600 
2223 482 267 96 259 
2224 342 537 519 612 
2225 285 353 552 534 
2226 193 432 465 627 
2227 94 267 96 482 
2228 443 321 541 432 
2229 86 316 573 79 
2230 210 48 537 626 
2231 346 537 48 626 
2232 134 19 21 338 
2233 342 20 210 537 
2234 338 134 527 297 
2235 346 429 537 626 
2236 134 24 19 527 
2237 408 542 510 647 
2238 557 513 229 223 
2239 134 338 132 297 
2240 136 19 21 134 
2241 220 180 160 505 
2242 283 280 352 529 
2243 132 493 134 297 
2244 66 61 145 414 
2245 169 357 55 226 
2246 607 269 508 202 
2247 159 56 30 460 
2248 195 607 65 181 
2249 88 184 422 191 
2250 84 83 76 567 
2251 541 321 443 585 
2252 457 509 473 410 
2253 478 288 494 71 
2254 300 522 513 468 
2255 415 255 152 503 
2256 435 255 225 415 
2257 460 71 56 521 
2258 521 56 605 358 
2259 209 406 49 425 
2260 292 606 474 368 
2261 368 458 606 467 
2262 27 254 156 301 
2263 407 512 565 491 
2264 224 459 163 477 
2265 476 221 416 162 
2266 475 287 476 498 
2267 538 54 498 310 
2268 229 513 590 223 
2269 369 363 419 360 
2270 419 557 363 576 
2271 568 349 51 525 
2272 593 129 120 256 
2273 80 64 81 381 
2274 190 324 507 506 
2275 86 316 79 183 
2276 428 518 1 597 
2277 560 531 446 588 
2278 86 573 261 79 
2279 607 269 202 454 
2280 447 413 364 551 
2281 391 480 41 436 
2282 407 147 565 577 
2283 558 573 78 318 
2284 281 409 600 348 
2285 298 476 505 475 
2286 187 224 72 547 
2287 134 24 136 19 
2288 560 588 446 380 
2289 551 552 556 413 
2290 537 484 554 609 
2291 484 429 430 626 
2292 297 306 412 633 
2293 297 434 306 633 
2294 560 588 380 644 
2295 560 380 597 644 
2296 101 203 629 201 
2297 629 203 101 330 
2298 149 150 51 33 
2299 149 51 150 26 
2300 538 54 220 180 
2301 538 220 54 310 
2302 102 11 273 9 
2303 102 273 11 634 
2304 230 439 431 487 
2305 482 242 374 470 
2306 482 374 242 188 
2307 3 311 383 264 
2308 406 44 632 526 
2309 406 632 44 209 
2310 200 433 614 390 
2311 614 433 200 268 
2312 620 589 305 575 
2313 600 348 62 281 
2314 565 414 512 427 
2315 628 559 449 610 
2316 154 281 252 62 
2317 154 252 281 354 
2318 246 97 614 272 
2319 246 614 97 619 
2320 517 345 314 131 
2321 517 314 345 142 
2322 140 314 345 131 
2323 140 345 314 142 
2324 620 445 401 530 
2325 620 401 445 334 
2326 391 201 629 203 
2327 629 201 391 204 
2328 34 551 364 138 
2329 364 551 34 447 
2330 364 211 34 138 
2331 34 211 364 447 
2332 447 621 613 413 
2333 613 621 447 34 
2334 635 270 640 233 
2335 635 640 270 623 
2336 245 516 644 36 
2337 644 516 245 246 
2338 245 367 644 246 
2339 514 72 253 161 
2340 620 486 589 50 
2341 620 589 486 305 
2342 489 589 486 50 
2343 120 568 143 146 
2344 120 143 568 593 
2345 285 515 353 156 
2346 353 515 285 163 
2347 399 68 621 398 
2348 399 621 68 639 
2349 70 621 68 398 
2350 70 68 621 639 
2351 425 598 642 49 
2352 554 609 519 537 
2353 24 517 131 345 
2354 131 517 24 343 
2355 24 136 131 343 
2356 597 446 428 573 
2357 597 428 446 531 
2358 558 428 446 573 
2359 16 493 297 125 
2360 297 493 16 132 
2361 297 338 16 125 
2362 16 338 297 132 
2363 318 558 630 78 
2364 318 630 558 548 
2365 174 467 140 34 
2366 140 467 174 606 
2367 241 520 633 501 
2368 241 633 520 434 
2369 270 543 640 233 
2370 613 467 547 368 
2371 627 637 260 615 
2372 260 637 627 625 
2373 455 207 530 63 
2374 530 207 455 110 
2375 530 270 455 63 
2376 455 270 530 110 
2377 325 263 619 98 
2378 325 619 263 324 
2379 642 490 252 62 
2380 83 582 102 323 
2381 65 482 242 607 
2382 242 482 65 94 
2383 73 529 492 294 
2384 446 616 312 303 
2385 58 630 470 103 
2386 470 630 58 629 
2387 523 629 641 291 
2388 641 116 523 291 
2389 453 372 260 631 
2390 470 372 260 482 
2391 470 260 372 631 
2392 632 425 642 49 
2393 641 41 203 116 
2394 641 203 41 391 
2395 39 194 619 5 
2396 619 194 39 190 
2397 490 252 154 152 
2398 490 154 252 62 
2399 632 250 125 402 
2400 632 125 250 239 
2401 125 250 16 402 
2402 125 16 250 239 
2403 16 250 591 402 
2404 16 591 250 239 
2405 575 646 305 620 
2406 575 305 646 497 
2407 296 305 646 620 
2408 296 646 305 497 
2409 154 288 521 152 
2410 521 288 154 358 
2411 521 490 154 152 
2412 154 490 521 358 
2413 523 645 109 40 
2414 109 645 523 629 
2415 249 74 139 456 
2416 139 74 249 344 
2417 139 502 249 456 
2418 249 502 139 344 
2419 622 182 631 528 
2420 622 631 182 636 
2421 159 478 30 158 
2422 272 614 525 97 
2423 390 525 272 595 
2424 620 279 46 173 
2425 264 85 311 383 
2426 311 85 264 322 
2427 85 302 311 383 
2428 311 302 85 322 
2429 85 376 302 383 
2430 302 376 85 322 
2431 151 35 289 52 
2432 613 447 547 467 
2433 613 547 447 413 
2434 442 604 549 450 
2435 442 549 604 569 
2436 113 561 625 290 
2437 625 561 113 422 
2438 11 260 6 259 
2439 6 260 11 104 
2440 259 102 82 9 
2441 259 82 102 83 
2442 582 82 102 9 
2443 582 102 82 83 
2444 16 208 42 125 
2445 16 42 208 114 
2446 631 636 452 182 
2447 631 452 636 643 
2448 205 452 636 182 
2449 205 636 452 643 
2450 620 50 25 486 
2451 620 25 50 350 
2452 375 383 311 302 
2453 375 311 383 3 
2454 637 17 617 601 
2455 637 617 17 636 
2456 427 414 66 565 
2457 427 66 414 61 
2458 559 613 449 504 
2459 559 449 613 628 
2460 438 449 613 504 
2461 438 613 449 628 
2462 642 218 632 501 
2463 628 17 636 23 
2464 628 636 17 617 
2465 643 601 594 205 
2466 643 594 601 637 
2467 312 189 616 77 
2468 258 602 384 570 
2469 258 384 602 320 
2470 75 645 78 318 
2471 514 547 618 187 
2472 618 547 514 474 
2473 626 556 413 621 
2474 626 413 556 491 
2475 221 286 549 234 
2476 625 113 533 471 
2477 625 533 113 112 
2478 633 642 550 610 
2479 312 183 616 446 
2480 616 183 630 446 
2481 616 630 183 78 
2482 625 88 84 603 
2483 625 84 88 440 
2484 164 308 512 307 
2485 512 153 164 307 
2486 164 153 512 564 
2487 441 462 578 502 
2488 441 578 462 347 
2489 620 46 207 587 
2490 478 550 633 642 
2491 478 520 633 434 
2492 633 520 478 642 
2493 84 567 625 603 
2494 625 567 84 76 
2495 612 341 621 70 
2496 612 621 341 626 
2497 398 621 341 70 
2498 398 341 621 626 
2499 627 471 611 231 
2500 627 611 471 625 
2501 344 462 74 441 
2502 344 74 462 139 
2503 204 201 480 483 
2504 204 480 201 391 
2505 219 638 473 496 
2506 473 638 219 620 
2507 221 157 286 234 
2508 221 286 157 417 
2509 357 511 576 299 
2510 576 511 357 539 
2511 625 561 88 603 
2512 625 88 561 422 
2513 119 172 121 123 
2514 119 121 172 126 
2515 52 227 596 289 
2516 362 227 596 168 
2517 362 596 227 289 
2518 124 107 616 395 
2519 616 107 124 393 
2520 361 157 286 417 
2521 130 172 211 339 
2522 211 172 130 18 
2523 211 213 130 339 
2524 130 213 211 18 
2525 623 544 627 466 
2526 623 627 544 423 
2527 385 627 544 466 
2528 385 544 627 423 
2529 492 294 620 589 
2530 217 620 294 589 
2531 614 617 638 608 
2532 638 617 614 609 
2533 483 317 230 439 
2534 483 230 317 532 
2535 90 381 644 380 
2536 428 90 644 380 
2537 428 644 90 1 
2538 597 90 428 380 
2539 597 428 90 1 
2540 638 557 492 576 
2541 638 492 557 546 
2542 122 621 133 22 
2543 93 383 266 3 
2544 93 266 383 199 
2545 609 542 438 408 
2546 609 438 542 449 
2547 22 398 626 456 
2548 22 626 398 621 
2549 532 629 374 188 
2550 374 629 532 483 
2551 330 116 641 203 
2552 641 116 330 523 
2553 641 629 330 203 
2554 330 629 641 523 
2555 161 28 514 469 
2556 161 514 28 253 
2557 371 514 28 469 
2558 371 28 514 253 
2559 202 269 186 394 
2560 186 269 202 508 
2561 546 496 638 540 
2562 546 638 496 300 
2563 590 495 546 540 
2564 590 546 495 300 
2565 495 496 546 540 
2566 495 546 496 300 
2567 574 575 435 642 
2568 557 229 638 546 
2569 638 229 557 513 
2570 196 185 311 240 
2571 375 311 185 240 
2572 640 233 315 421 
2573 543 315 233 421 
2574 632 425 278 409 
2575 463 481 471 231 
2576 4 367 644 5 
2577 4 644 367 246 
2578 627 260 432 465 
2579 346 441 626 344 
2580 346 626 441 578 
2581 76 260 625 259 
2582 76 625 260 420 
2583 568 115 206 595 
2584 206 115 568 120 
2585 206 396 568 595 
2586 619 324 448 263 
2587 248 210 626 48 
2588 248 626 210 341 
2589 375 171 240 185 
2590 444 240 171 185 
2591 464 71 30 460 
2592 464 30 71 478 
2593 159 30 71 460 
2594 159 71 30 478 
2595 626 613 484 612 
2596 552 285 477 163 
2597 552 477 285 534 
2598 459 477 285 163 
2599 459 285 477 534 
2600 575 620 435 642 
2601 638 620 435 492 
2602 638 435 620 642 
2603 372 96 260 482 
2604 372 260 96 453 
2605 440 585 443 191 
2606 184 625 440 420 
2607 440 184 585 191 
2608 589 151 435 492 
2609 435 151 589 489 
2610 254 156 224 515 
2611 254 224 156 301 
2612 196 93 311 185 
2613 196 311 93 3 
2614 311 93 375 185 
2615 311 375 93 3 
2616 5 89 97 4 
2617 97 89 5 194 
2618 97 619 5 4 
2619 5 619 97 194 
2620 278 218 632 409 
2621 632 218 278 501 
2622 255 152 288 355 
2623 255 175 288 166 
2624 288 175 255 355 
2625 647 51 525 468 
2626 609 636 428 558 
2627 609 428 636 615 
2628 310 287 475 498 
2629 66 414 491 565 
2630 624 141 335 612 
2631 624 335 141 562 
2632 435 151 35 289 
2633 435 35 151 489 
2634 599 133 621 235 
2635 621 133 599 122 
2636 559 449 576 475 
2637 559 576 449 638 
2638 511 576 449 475 
2639 511 449 576 638 
2640 464 158 371 30 
2641 28 371 158 30 
2642 28 158 371 469 
2643 524 164 153 31 
2644 153 164 524 564 
2645 524 569 153 564 
2646 476 498 162 416 
2647 157 549 604 450 
2648 604 549 157 234 
2649 361 442 549 450 
2650 157 361 549 450 
2651 298 539 475 366 
2652 559 539 475 576 
2653 609 519 622 333 
2654 609 622 519 612 
2655 616 622 519 333 
2656 616 519 622 612 
2657 364 404 138 551 
2658 488 477 499 549 
2659 499 477 488 491 
2660 499 414 488 549 
2661 488 414 499 491 
2662 260 627 420 625 
2663 260 420 627 432 
2664 304 420 627 625 
2665 304 627 420 432 
2666 6 260 96 259 
2667 96 260 6 10 
2668 396 272 580 516 
2669 580 272 396 595 
2670 580 206 396 516 
2671 396 206 580 595 
2672 243 235 621 404 
2673 243 621 235 599 
2674 194 500 586 89 
2675 586 500 194 197 
2676 635 384 87 602 
2677 635 87 384 386 
2678 320 87 384 602 
2679 320 384 87 386 
2680 628 636 609 624 
2681 609 636 628 617 
2682 458 211 606 467 
2683 297 47 338 125 
2684 297 338 47 527 
2685 557 363 513 223 
2686 557 513 363 522 
2687 369 513 363 223 
2688 369 363 513 522 
2689 332 331 623 466 
2690 332 623 331 43 
2691 186 470 629 242 
2692 629 470 186 58 
2693 148 647 33 149 
2694 33 647 148 510 
2695 518 80 644 1 
2696 90 644 80 1 
2697 90 80 644 381 
2698 176 232 276 337 
2699 276 232 176 269 
2700 435 596 284 362 
2701 435 284 596 35 
2702 477 512 549 569 
2703 477 549 512 499 
2704 228 227 461 236 
2705 352 461 529 492 
2706 54 498 475 167 
2707 54 475 498 310 
2708 26 282 419 170 
2709 259 328 8 271 
2710 8 328 259 82 
2711 8 195 259 271 
2712 259 195 8 82 
2713 620 509 207 46 
2714 644 91 36 326 
2715 505 366 180 160 
2716 505 180 366 538 
2717 576 511 150 299 
2718 150 511 576 26 
2719 385 192 627 247 
2720 385 627 192 382 
2721 18 343 213 131 
2722 18 213 343 130 
2723 245 91 644 367 
2724 644 91 245 36 
2725 644 531 396 614 
2726 147 491 430 407 
2727 430 491 147 145 
2728 554 568 214 212 
2729 592 554 214 212 
2730 129 206 568 120 
2731 568 206 129 396 
2732 584 301 224 254 
2733 584 72 224 547 
2734 224 72 584 254 
2735 383 302 645 376 
2736 383 645 302 548 
2737 318 645 302 376 
2738 318 302 645 548 
2739 206 580 245 516 
2740 245 580 206 329 
2741 245 36 206 516 
2742 206 36 245 329 
2743 495 540 461 496 
2744 461 540 495 222 
2745 461 352 495 496 
2746 495 352 461 222 
2747 20 210 626 341 
2748 20 626 210 537 
2749 532 374 317 188 
2750 532 317 374 230 
2751 568 614 647 525 
2752 647 614 568 554 
2753 517 131 213 343 
2754 517 213 131 314 
2755 425 409 135 278 
2756 425 135 409 406 
2757 282 522 419 369 
2758 282 419 522 468 
2759 576 522 419 468 
2760 459 244 512 308 
2761 459 512 244 499 
2762 153 604 524 31 
2763 153 524 604 569 
2764 235 485 626 556 
2765 626 485 235 133 
2766 626 621 235 556 
2767 235 621 626 133 
2768 627 258 193 293 
2769 192 321 627 247 
2770 627 321 192 377 
2771 573 446 79 316 
2772 79 446 573 558 
2773 145 430 144 147 
2774 145 144 430 578 
2775 221 535 476 287 
2776 221 476 535 162 
2777 498 476 535 287 
2778 498 535 476 162 
2779 360 419 169 32 
2780 169 419 360 282 
2781 169 53 360 32 
2782 360 53 169 282 
2783 620 216 215 279 
2784 620 46 215 509 
2785 215 46 620 279 
2786 516 326 644 36 
2787 644 326 516 588 
2788 292 27 72 165 
2789 292 72 27 584 
2790 616 519 395 333 
2791 183 77 616 78 
2792 616 77 183 312 
2793 8 9 82 99 
2794 8 82 9 328 
2795 571 73 289 492 
2796 516 531 644 588 
2797 516 644 531 396 
2798 534 556 413 491 
2799 534 413 556 552 
2800 613 534 413 491 
2801 613 413 534 552 
2802 477 534 613 491 
2803 477 613 534 552 
2804 270 63 543 455 
2805 275 543 63 455 
2806 87 448 635 262 
2807 87 635 448 379 
2808 213 606 211 314 
2809 213 211 606 458 
2810 620 294 410 217 
2811 280 410 294 217 
2812 635 465 479 309 
2813 570 479 465 309 
2814 479 465 602 570 
2815 619 507 635 448 
2816 619 635 507 479 
2817 262 635 507 448 
2818 262 507 635 479 
2819 247 466 627 385 
2820 627 466 247 332 
2821 387 233 635 437 
2822 387 635 233 270 
2823 615 428 465 309 
2824 545 415 435 284 
2825 435 415 545 574 
2826 255 435 642 415 
2827 255 642 435 494 
2828 43 581 646 331 
2829 43 646 581 313 
2830 620 646 581 331 
2831 620 581 646 313 
2832 251 486 620 25 
2833 620 486 251 296 
2834 350 279 620 25 
2835 350 620 279 216 
2836 504 310 475 559 
2837 589 350 620 50 
2838 589 620 350 217 
2839 596 359 227 52 
2840 596 227 359 168 
2841 546 461 638 492 
2842 546 638 461 540 
2843 496 638 461 492 
2844 496 461 638 540 
2845 160 505 298 29 
2846 298 505 160 366 
2847 298 55 160 29 
2848 160 55 298 366 
2849 415 418 284 356 
2850 288 71 152 494 
2851 288 152 71 521 
2852 490 71 152 521 
2853 152 503 494 252 
2854 494 503 152 255 
2855 467 584 547 368 
2856 371 72 514 187 
2857 371 514 72 253 
2858 187 478 306 464 
2859 306 478 187 550 
2860 353 413 224 552 
2861 353 224 413 553 
2862 547 224 413 552 
2863 404 400 138 337 
2864 404 138 400 364 
2865 477 224 552 163 
2866 477 552 224 547 
2867 459 164 512 564 
2868 459 512 164 308 
2869 129 554 568 396 
2870 129 568 554 212 
2871 51 282 419 26 
2872 419 282 51 468 
2873 51 419 576 26 
2874 576 419 51 468 
2875 51 576 511 26 
2876 226 366 298 55 
2877 298 366 226 539 
2878 226 511 298 539 
2879 511 510 647 33 
2880 647 510 511 542 
2881 433 315 640 111 
2882 433 640 315 268 
2883 390 111 640 472 
2884 390 640 111 433 
2885 106 272 390 200 
2886 106 390 272 595 
2887 465 558 631 260 
2888 631 615 465 260 
2889 480 230 483 201 
2890 483 230 480 487 
2891 613 438 626 484 
2892 613 626 438 488 
2893 430 626 438 484 
2894 430 438 626 488 
2895 235 551 621 404 
2896 621 551 235 556 
2897 502 491 626 485 
2898 502 626 491 407 
2899 383 295 376 583 
2900 376 295 383 85 
2901 264 237 196 311 
2902 264 196 237 378 
2903 311 240 370 2 
2904 370 240 311 375 
2905 370 319 311 2 
2906 311 319 370 375 
2907 167 416 475 220 
2908 505 475 416 220 
2909 505 416 475 476 
2910 225 289 362 566 
2911 225 362 289 435 
2912 284 362 415 435 
2913 415 225 362 566 
2914 415 362 225 435 
2915 512 491 414 565 
2916 414 491 512 499 
2917 13 9 273 12 
2918 13 273 9 389 
2919 42 13 273 12 
2920 42 273 13 389 
2921 114 13 42 12 
2922 600 425 503 348 
2923 600 503 425 598 
2924 642 503 425 348 
2925 642 425 503 598 
2926 614 396 609 531 
2927 614 609 396 554 
2928 519 609 396 531 
2929 519 396 609 554 
2930 626 484 537 612 
2931 626 537 484 429 
2932 512 153 414 569 
2933 620 509 63 207 
2934 19 24 131 345 
2935 19 131 24 136 
2936 77 75 645 78 
2937 645 75 77 189 
2938 645 616 77 78 
2939 77 616 645 189 
2940 633 306 478 434 
2941 633 478 306 550 
2942 427 512 61 414 
2943 153 61 512 414 
2944 625 632 634 611 
2945 634 632 625 14 
2946 462 407 578 502 
2947 344 48 626 346 
2948 344 626 48 248 
2949 143 568 554 146 
2950 554 568 143 214 
2951 143 592 554 214 
2952 618 628 550 613 
2953 618 550 628 610 
2954 559 550 628 613 
2955 559 628 550 610 
2956 289 73 52 227 
2957 289 52 73 571 
2958 359 52 73 227 
2959 359 73 52 571 
2960 395 342 616 124 
2961 395 616 342 519 
2962 612 616 342 124 
2963 612 342 616 519 
2964 574 435 589 489 
2965 589 435 574 575 
2966 574 305 589 575 
2967 255 494 288 152 
2968 303 616 583 395 
2969 303 583 616 645 
2970 107 583 616 395 
2971 107 616 583 645 
2972 418 362 415 284 
2973 415 362 418 566 
2974 348 642 632 425 
2975 632 642 348 218 
2976 632 409 348 425 
2977 348 409 632 218 
2978 288 255 435 494 
2979 549 451 475 504 
2980 310 475 451 504 
2981 310 451 475 287 
2982 218 642 62 555 
2983 414 145 491 430 
2984 414 491 145 66 
2985 78 79 630 183 
2986 78 630 79 558 
2987 446 630 79 183 
2988 446 79 630 558 
2989 220 310 505 475 
2990 220 505 310 538 
2991 408 57 510 592 
2992 408 510 57 647 
2993 349 57 408 592 
2994 349 408 57 647 
2995 214 593 568 143 
2996 214 568 593 212 
2997 627 570 193 258 
2998 627 193 570 465 
2999 432 570 193 465 
3000 255 225 288 435 
3001 255 288 225 166 
3002 486 574 589 489 
3003 486 589 574 305 
3004 307 427 153 257 
3005 307 153 427 512 
3006 61 153 427 257 
3007 61 427 153 512 
3008 312 295 616 189 
3009 312 616 295 303 
3010 645 616 295 189 
3011 645 295 616 303 
3012 457 509 640 473 
3013 457 640 509 63 
3014 620 640 509 473 
3015 620 509 640 63 
3016 416 498 475 476 
3017 416 475 498 167 
3018 317 439 374 230 
3019 317 374 439 426 
3020 431 374 439 230 
3021 431 439 374 426 
3022 348 642 62 218 
3023 69 418 415 356 
3024 415 255 69 356 
3025 69 255 415 225 
3026 428 446 609 558 
3027 428 609 446 531 
3028 349 647 51 525 
3029 349 51 647 149 
3030 509 351 620 410 
3031 200 614 525 390 
3032 525 614 200 97 
3033 525 272 200 390 
3034 200 272 525 97 
3035 525 272 396 614 
3036 396 272 525 595 
3037 396 568 525 614 
3038 525 568 396 595 
3039 447 413 224 553 
3040 224 413 447 547 
3041 224 301 467 553 
3042 447 224 467 553 
3043 467 224 447 547 
3044 178 563 628 633 
3045 628 563 178 60 
3046 628 179 178 633 
3047 178 179 628 60 
3048 286 442 549 234 
3049 549 451 442 286 
3050 442 451 549 477 
3051 507 619 324 448 
3052 507 324 619 506 
3053 375 383 93 3 
3054 375 93 383 548 
3055 351 620 215 509 
3056 215 411 620 351 
3057 620 411 215 216 
3058 503 348 62 600 
3059 503 62 348 642 
3060 513 638 546 300 
3061 546 638 513 229 
3062 546 590 513 300 
3063 513 590 546 229 
3064 543 315 640 233 
3065 640 315 543 275 
3066 471 463 646 481 
3067 646 463 471 533 
3068 471 611 646 533 
3069 646 231 471 481 
3070 471 231 646 611 
3071 444 240 375 171 
3072 375 240 444 370 
3073 440 184 422 625 
3074 422 184 440 191 
3075 435 589 620 575 
3076 620 589 435 492 
3077 93 375 171 548 
3078 171 375 93 185 
3079 158 371 306 464 
3080 158 306 371 469 
3081 187 306 371 464 
3082 371 514 306 187 
3083 371 306 514 469 
3084 286 442 157 361 
3085 286 157 442 234 
3086 549 157 442 361 
3087 549 442 157 234 
3088 456 485 139 502 
3089 133 139 456 485 
3090 456 139 133 22 
3091 456 626 133 485 
3092 133 626 456 22 
3093 539 475 511 298 
3094 539 511 475 576 
3095 539 475 310 559 
3096 488 549 613 477 
3097 488 613 549 504 
3098 451 613 549 477 
3099 451 549 613 504 
3100 80 644 81 518 
3101 80 81 644 381 
3102 298 357 226 55 
3103 298 226 357 511 
3104 461 529 222 352 
3105 283 222 529 352 
3106 461 228 222 529 
3107 461 222 228 236 
3108 283 222 228 529 
3109 283 228 222 236 
3110 419 26 150 576 
3111 150 26 419 170 
3112 419 150 299 576 
3113 299 150 419 170 
3114 419 299 357 576 
3115 357 299 419 170 
3116 224 584 467 301 
3117 467 584 224 547 
3118 462 347 144 577 
3119 462 144 347 578 
3120 430 144 407 578 
3121 407 462 144 577 
3122 407 144 462 578 
3123 221 287 286 535 
3124 135 632 425 278 
3125 425 406 632 135 
3126 632 406 425 49 
3127 522 419 363 576 
3128 522 363 419 369 
3129 570 377 193 258 
3130 193 377 570 432 
3131 147 144 407 430 
3132 147 407 144 577 
3133 461 529 73 228 
3134 73 529 461 492 
3135 461 289 73 492 
3136 227 73 461 289 
3137 227 461 73 228 
3138 63 543 640 270 
3139 63 275 640 543 
3140 640 275 63 457 
3141 619 309 518 428 
3142 619 644 518 39 
3143 518 644 619 428 
3144 506 619 518 39 
3145 506 518 619 309 
3146 440 304 184 420 
3147 541 443 184 585 
3148 541 184 443 304 
3149 440 184 443 585 
3150 440 443 184 304 
3151 280 410 620 294 
3152 620 410 280 219 
3153 620 492 280 294 
3154 280 492 620 219 
3155 623 602 384 635 
3156 623 384 602 570 
3157 627 465 623 635 
3158 627 623 465 570 
3159 465 602 623 635 
3160 465 623 602 570 
3161 602 479 635 465 
3162 635 479 602 262 
3163 559 451 504 310 
3164 559 504 451 613 
3165 566 69 415 225 
3166 566 415 69 418 
3167 642 71 252 490 
3168 642 252 71 494 
3169 152 252 71 490 
3170 152 71 252 494 
3171 451 286 221 287 
3172 451 221 286 549 
3173 476 451 221 287 
3174 476 221 451 549 
3175 475 451 476 287 
3176 475 476 451 549 
3177 51 576 647 511 
3178 51 647 576 468 
3179 638 647 576 511 
3180 638 576 647 468 
3181 465 558 615 631 
3182 465 615 558 428 
3183 636 615 558 631 
3184 636 558 615 428 
3185 2 311 196 237 
3186 196 311 2 240 
3187 196 378 2 237 
3188 2 378 196 240 
3189 505 538 475 310 
3190 505 475 538 366 
3191 539 475 538 310 
3192 539 538 475 366 
3193 13 42 177 114 
3194 13 177 42 389 
3195 408 568 647 349 
3196 408 647 568 554 
3197 143 146 592 349 
3198 143 592 146 554 
3199 592 146 408 349 
3200 592 408 146 554 
3201 146 568 408 349 
3202 146 408 568 554 
$EndElements
