$MeshFormat
4.1 0 8
$EndMeshFormat
$Entities
0 0 1 1
1 -0.0507354 -0.0127084 -0.0257096 0.03364540000000001 0.08303340000000001 0.0584158 0 0 
1 -0.0507354 -0.0127084 -0.0257096 0.03364540000000001 0.08303340000000001 0.0584158 0 1 1 
$EndEntities
$Nodes
2 683 1 683
2 1 0 627
1
2
3
4
5
6
7
8
9
10
11
12
13
14
15
16
17
18
19
20
21
22
23
24
25
26
27
28
29
30
31
32
33
34
35
36
37
38
39
40
41
42
43
44
45
46
47
48
49
50
51
52
53
54
55
56
57
58
59
60
61
62
63
64
65
66
67
68
69
70
71
72
73
74
75
76
77
78
79
80
81
82
83
84
85
86
87
88
89
90
91
92
93
94
95
96
97
98
99
100
101
102
103
104
105
106
107
108
109
110
111
112
113
114
115
116
117
118
119
120
121
122
123
124
125
126
127
128
129
130
131
132
133
134
135
136
137
138
139
140
141
142
143
144
145
146
147
148
149
150
151
152
153
154
155
156
157
158
159
160
161
162
163
164
165
166
167
168
169
170
171
172
173
174
175
176
177
178
179
180
181
182
183
184
185
186
187
188
189
190
191
192
193
194
195
196
197
198
199
200
201
202
203
204
205
206
207
208
209
210
211
212
213
214
215
216
217
218
219
220
221
222
223
224
225
226
227
228
229
230
231
232
233
234
235
236
237
238
239
240
241
242
243
244
245
246
247
248
249
250
251
252
253
254
255
256
257
258
259
260
261
262
263
264
265
266
267
268
269
270
271
272
273
274
275
276
277
278
279
280
281
282
283
284
285
286
287
288
289
290
291
292
293
294
295
296
297
298
299
300
301
302
303
304
305
306
307
308
309
310
311
312
313
314
315
316
317
318
319
320
321
322
323
324
325
326
327
328
329
330
331
332
333
334
335
336
337
338
339
340
341
342
343
344
345
346
347
348
349
350
351
352
353
354
355
356
357
358
359
360
361
362
363
364
365
366
367
368
369
370
371
372
373
374
375
376
377
378
379
380
381
382
383
384
385
386
387
388
389
390
391
392
393
394
395
396
397
398
399
400
401
402
403
404
405
406
407
408
409
410
411
412
413
414
415
416
417
418
419
420
421
422
423
424
425
426
427
428
429
430
431
432
433
434
435
436
437
438
439
440
441
442
443
444
445
446
447
448
449
450
451
452
453
454
455
456
457
458
459
460
461
462
463
464
465
466
467
468
469
470
471
472
473
474
475
476
477
478
479
480
481
482
483
484
485
486
487
488
489
490
491
492
493
494
495
496
497
498
499
500
501
502
503
504
505
506
507
508
509
510
511
512
513
514
515
516
517
518
519
520
521
522
523
524
525
526
527
528
529
530
531
532
533
534
535
536
537
538
539
540
541
542
543
544
545
546
547
548
549
550
551
552
553
554
555
556
557
558
559
560
561
562
563
564
565
566
567
568
569
570
571
572
573
574
575
576
577
578
579
580
581
582
583
584
585
586
587
588
589
590
591
592
593
594
595
596
597
598
599
600
601
602
603
604
605
606
607
608
609
610
611
612
613
614
615
616
617
618
619
620
621
622
623
624
625
626
627
0.0160697 0.0600375 -0.0233211
0.01995820000000001 -0.008530300000000001 -0.0240743
-0.0206131 -0.0031137 -0.0182892
0.0257373 -0.0034613 -0.0182984
0.0072523 0.07543760000000001 -0.0135935
0.0074685 0.07309390000000002 -0.017462
-0.0186458 0.0194662 -0.0109661
-0.0038503 0.07753230000000001 -0.0110748
-0.0241996 0.0135524 -0.008470699999999999
-0.0276783 0.0152383 -0.006566300000000001
-0.0154625 0.0215493 -0.0101818
-0.0218586 0.0206209 -0.0061241
-0.0258956 0.016724 -0.0037871
-0.027859 0.0162773 -0.0004851
-0.0397269 0.0235729 0.004425
-0.0033378 0.0151751 -0.0032589
-0.0245635 0.0157152 0.005504599999999999
-0.0112862 0.022845 0.004369
-0.0178919 0.0014729 0.0080485
-0.0227324 0.008776200000000001 0.0100998
0.024903 0.008967299999999999 0.0036463
-0.0253593 0.0114953 0.008949
0.0161591 -0.008726699999999999 0.0050085
-0.008601599999999999 0.0187042 0.009146300000000001
-0.0240207 0.0063244 0.012683
-0.0457392 0.07108979999999999 0.022453
0.0174426 0.08167100000000001 0.0383224
-0.0124798 -0.0059034 0.05073320000000001
-0.0235852 0.0115258 0.05354300000000001
0.0245089 0.0617935 0.0483409
-0.0268783 0.0148866 0.05403660000000001
0.03287760000000001 -0.004139 0.0481767
0.0200205 0.07899860000000002 0.05210310000000001
0.0202123 0.07858060000000001 0.03261140000000001
-0.0071249 0.0068319 0.0122229
-0.0471875 0.06149639999999999 0.0522275
0.0169383 0.0738886 -0.0098937
-0.0154204 0.0014318 -0.004290499999999999
-0.0410357 0.0218225 -0.0175464
-0.04175350000000001 0.0247201 -0.0178383
0.0053956 0.06989390000000001 -0.0212538
0.018859 0.0029256 -0.0102803
0.0080553 -0.009675700000000001 -0.0043854
-0.03276639999999999 0.017688 0.0034223
-0.0469835 0.0556607 0.0054482
-0.0474172 0.0281128 0.0075234
-0.0037704 0.008351899999999999 0.0064205
-0.0389568 0.0816704 0.0148246
-0.0173818 0.0166466 0.0117703
0.0270065 0.005057799999999999 0.007555099999999999
-0.04811710000000001 0.0292476 0.0211468
-0.0451682 0.07069180000000001 0.0315767
0.0152057 0.08199110000000001 0.03561370000000001
-0.0434009 0.06742640000000001 0.05434990000000001
0.0215832 0.0800839 0.04983580000000001
0.0259477 0.0443615 0.0500439
0.0231332 0.06438429999999999 0.05069730000000001
-0.0358928 0.0201691 0.0550636
0.0181923 0.0800071 0.0195787
-0.0038681 0.0125198 -0.006859400000000001
-0.03711800000000001 0.0216336 0.0040275
-0.0126802 0.0194708 0.0106928
0.0313958 -0.0079457 0.0341955
-0.0452271 0.0212012 0.0419265
-0.0301895 0.08289120000000001 0.0044361
0.0178152 0.0678554 -0.0189761
-0.0140936 0.0091856 -0.0115012
0.0299136 -0.009413699999999999 0.0288529
-0.0484083 0.0228907 0.05632180000000001
0.0187361 0.0027662 -0.0010845
-0.048477 0.04130960000000001 0.0578649
0.0208374 0.0049911 0.001492
-0.0320865 0.0235264 0.056504
-0.0117829 -0.0007546 0.05364600000000001
-0.0383846 0.07412820000000002 0.05369570000000001
0.0265281 -0.007906600000000001 0.0049432
0.0230589 0.0137798 -0.0247768
-0.0358568 0.0217102 -0.0192636
0.0219425 0.0265242 -0.0240766
0.0198955 0.0286235 -0.0245412
0.0203958 0.0338664 -0.0242009
0.0181113 0.06210330000000001 -0.0220152
0.0169999 0.06643729999999999 -0.0219079
-0.0295073 0.0118856 -0.0185347
-0.03182160000000001 0.0146201 -0.0182621
-0.0431055 0.0215836 -0.0144424
0.0258764 0.0079136 -0.0222157
0.0209441 0.04307850000000001 -0.0224086
-0.0226755 0.06989590000000001 -0.0171284
-0.0300177 0.0114358 -0.0154676
-0.0450838 0.0246954 -0.0138136
0.0036678 0.07862870000000002 -0.0149245
0.0189936 0.0584466 -0.0216216
0.0160222 0.0724979 -0.0139199
-0.0011167 0.081084 -0.0141807
0.0236744 -0.0054492 -0.0162185
-0.0266063 0.0075485 -0.0119275
-0.011594 0.0127102 -0.0127774
-0.008278600000000001 0.0119488 -0.0117519
-0.0144323 0.0175079 -0.0128406
0.0023367 0.0771583 -0.0111627
-0.0036424 0.07764430000000001 -0.0127178
-0.0266353 0.0108773 -0.0097191
-0.0429745 0.0212864 -0.0052009
0.0113336 -0.0088267 -0.0124549
-0.03161100000000001 0.0154029 -0.008711299999999998
-0.0050738 0.0147901 -0.009212300000000001
-0.0191667 0.0222895 -0.0070267
-0.01930840000000001 -0.0016777 -0.007825500000000001
-0.007297 0.0190196 -0.009232000000000002
0.0012973 0.0819415 -0.0070226
0.0245621 0.010129 -0.0106298
-0.0120404 0.0021728 -0.0015862
0.0169905 0.0023774 -0.007473700000000001
-0.03419220000000001 0.0808285 0.0004543
-0.0120731 0.0826385 -0.0043005
-0.0457693 0.0273615 0.003025
-0.0467552 0.0293245 -0.0001098
-0.0081391 -0.0062866 -0.0016814
-0.0254923 0.0172139 0.0011691
0.0135725 0.08303340000000001 -0.0041513
0.010473 -0.007539199999999999 -0.0043785
0.0110798 -0.0082883 -0.000469
-0.0113072 -0.0049982 -0.0003478000000000001
-0.0133875 -2.47e-05 0.0026766
0.0153817 0.08255949999999999 0.001557
-0.0140051 -0.0027172 0.0019149
0.0128067 -0.00843 0.002215
-0.011367 0.0012864 0.0027431
0.0249447 0.0111367 0.0003930000000000001
-0.0204835 0.0187718 0.008389300000000001
-0.015657 -0.0002865 0.0055076
-0.0269286 0.013764 0.0072017
-0.0071993 0.01941140000000001 0.005534099999999999
0.0185187 0.07899950000000001 0.0037124
-0.0186249 -0.0012688 0.007837200000000001
-0.0187791 0.0035392 0.009456500000000001
-0.0298371 0.0142895 0.008904500000000001
0.0160985 -0.0103356 0.0070018
-0.0273512 0.0110188 0.0116487
-0.0451863 0.0219933 0.013732
-0.0239277 0.007941500000000001 0.01094
-0.0168495 0.0114958 0.0124296
-0.00569 0.0049536 0.009134300000000001
0.0246955 -0.0100372 0.0061958
-0.0120577 0.0048675 0.0122812
-0.005212499999999999 0.0109162 0.009902000000000001
-0.0129468 0.0075683 0.0134831
0.0166689 0.081362 0.0145179
0.0288669 -0.0077268 0.0144721
0.0301986 -0.0069405 0.0229058
0.0141168 0.08236660000000001 0.0133983
0.0291628 -0.008777 0.0196197
0.0185279 0.08056400000000001 0.0261828
0.0171987 0.0815377 0.0280284
0.0200525 0.0800825 0.0381453
-0.043281 0.07065660000000001 0.04801850000000001
-0.0507354 0.0270557 0.0509479
0.0336454 -0.0070389 0.044055
-0.0470069 0.0208407 0.05265990000000001
0.0328059 -0.008919999999999999 0.0464364
-0.002316 -0.0108018 0.049928
0.0320722 0.007937400000000001 0.0468246
-0.0278483 0.0141724 0.05214770000000001
-0.0327956 0.0173383 0.0522683
0.0252498 0.05481120000000001 0.0493589
-0.019685 0.004468000000000001 0.05167310000000001
0.0288934 0.0262666 0.0488739
0.004982100000000001 -0.009752800000000001 0.051555
0.0305645 -0.008636200000000002 0.0491002
-0.014533 -0.0025388 0.05233190000000001
-0.04773110000000001 0.0330545 0.0579743
0.0270213 0.039095 0.04921910000000001
-0.0400114 0.0691543 0.0573658
0.0220563 0.07652920000000002 0.0507119
0.0203262 0.0809409 0.0447735
0.0168859 -0.0054782 -0.0131403
-0.0126211 0.0011754 0.006213999999999999
-0.04103970000000001 0.07962020000000003 0.0140378
-0.009566700000000001 0.0095017 0.0137593
-0.0486608 0.0272784 0.057437
-0.008827 -0.0062276 0.0012181
-0.0294836 0.0158529 0.004462400000000001
-0.0172837 0.01945990000000001 0.0104799
-0.0142928 0.0223028 0.0076059
0.0246047 0.0504929 0.05060980000000001
-0.0202558 0.009701699999999999 -0.009531500000000002
-0.006754 0.0209064 -0.0017718
0.0226455 0.03128069999999999 -0.0226605
-0.0463304 0.03526149999999999 -0.0120773
0.0219395 -0.0075492 -0.0170729
-0.0140431 -0.0010343 -0.0016181
-0.0056698 0.009458099999999999 -0.008918099999999998
-0.0163687 0.0124712 0.0547417
-0.009158699999999999 -0.0056914 -0.0224761
-0.0180116 -0.003585 -0.0207232
0.0240512 0.0196982 -0.0231234
-0.0015185 0.07303150000000001 -0.0200282
-0.043964 0.0309059 -0.0158957
-0.0435957 0.0520053 -0.0163671
-0.0399312 0.0567992 -0.0170608
0.0025112 0.0764577 -0.017162
-0.0271125 0.007858500000000001 -0.0188539
0.0253291 -0.006935799999999999 -0.0202936
-0.0009225000000000001 0.07851660000000002 -0.0156983
0.0100649 -0.0101565 -0.0204264
0.0221025 0.004460100000000001 -0.0118873
-0.0218947 0.0063357 -0.0089963
-0.0014756 0.07873670000000003 -0.009577900000000002
0.0061672 -0.0108592 -0.0102859
-0.0100339 0.0076557 -0.0104517
0.009476800000000002 -0.009217900000000001 -0.0078791
-0.008539700000000001 -0.009150699999999999 -0.0072936
-0.0104648 0.0231059 -0.003041
0.0180188 0.07958640000000002 -0.0028201
-0.0351149 0.0818837 0.0069406
-0.0199631 0.0218093 0.0049527
-0.04835110000000001 0.0282754 0.0128676
0.0261544 0.006204299999999999 0.006183400000000001
-0.0102755 0.0030396 0.010189
0.01845530000000001 0.07822080000000002 0.0088477
-0.0186303 -0.0035085 0.0113779
0.0179642 0.07981370000000002 0.0142381
-0.0402005 0.08126050000000001 0.0202066
-0.0415567 0.07675560000000002 0.025538
-0.036888 0.08070500000000001 0.0313832
-0.0441162 0.0211773 0.0300202
-0.0289814 0.08206210000000001 0.0419089
0.0261814 0.0499147 0.0481407
0.0299274 0.0239046 0.0468657
-0.0252472 0.0809677 0.05582160000000001
0.0032059 0.08012530000000001 0.0534546
-0.0006629000000000001 -0.005950899999999999 0.0526969
-0.0457027 0.04060310000000001 0.0584158
0.0211506 0.0687388 0.05183090000000001
-0.03711860000000001 0.07019770000000002 0.0579711
-0.033217 0.07660400000000002 0.05631870000000001
-0.0027384 0.07892770000000002 0.0546674
0.0054838 -0.0101779 -0.0171329
-0.0470187 0.04894449999999999 -0.0005013
-0.0001058 -0.0071522 0.0002502
-0.0264435 0.07793720000000001 -0.0061602
0.0319212 0.0093019 0.0440998
0.0104521 -0.0115665 0.008086600000000001
-0.0286127 0.07730660000000002 0.0572918
0.0262224 -0.004461700000000001 -0.0252128
0.0132309 0.06842340000000001 -0.0226961
-0.03694819999999999 0.0197116 0.008324999999999999
0.0217014 -0.009113899999999999 -0.0200326
0.001938 -0.0112178 -0.007050499999999999
-0.0338747 0.0169273 0.0232803
-0.0147417 -0.005994199999999999 -0.0206794
0.0063896 -0.009507800000000002 0.0019823
0.0183363 -0.0115048 0.0482881
0.0143342 0.07653670000000003 -0.0100721
0.0092227 0.07570200000000002 -0.0119505
-0.0456758 0.05111700000000001 -0.0121499
0.0250533 0.0013722 0.0051308
0.021196 -0.0009971000000000001 0.0035376
-0.0376657 0.0190909 0.0112006
-0.04717830000000001 0.06715690000000001 0.0180819
-0.0499134 0.0271318 0.04330390000000001
-0.01895100000000001 0.0065339 0.05365970000000001
-0.009372800000000002 -0.0058951 0.05231100000000001
-0.0504256 0.0335884 0.0553165
0.0169054 0.08189150000000001 -0.0011797
0.0320354 -0.0100706 0.04261520000000001
-0.0340966 0.0612935 -0.0180854
-0.0280629 0.0167082 -0.0201389
-0.0224779 0.0259942 -0.0203226
0.01846100000000001 0.0469888 -0.0237407
-0.0172955 0.07024060000000001 -0.0186666
-0.0057279 0.07566990000000001 -0.0160288
0.0268929 -0.0011044 -0.0221253
0.0152408 0.07021160000000001 -0.0209728
0.024338 0.007501799999999999 -0.0135332
-0.0162449 0.0149763 -0.0126562
-0.0077463 0.07801950000000001 -0.009134200000000002
-0.0168249 -0.004783100000000001 -0.008881200000000001
-0.03515 0.07416230000000001 -0.0031053
-0.01936930000000001 0.0164338 -0.0111406
0.0081732 0.07786430000000001 -0.010096
-0.03457780000000001 0.0177605 -0.0020506
-0.0148108 0.0040653 -0.006457
-0.0218667 0.08275640000000001 -0.0019097
-0.005525 0.0045043 0.0006234000000000001
-0.0029946 0.0117764 -0.0016245
-0.0444582 0.0214348 0.0180707
-0.04117210000000001 0.0803358 0.01805140000000001
-0.03182980000000001 0.0813735 0.0484569
-0.04833100000000001 0.0230922 0.0408446
0.0187122 0.08177120000000002 0.0481617
-0.0283422 0.08069510000000002 0.0558787
-0.0488611 0.05495780000000001 0.0540404
0.0064 -0.0118476 0.04980910000000001
0.0284248 0.0143296 0.0499235
0.0262273 0.0242888 0.05051600000000001
-0.04544719999999999 0.0266357 0.0580645
-0.0389701 0.06413480000000001 0.05837970000000001
-0.0451466 0.0262687 0.0005902
0.0136312 -0.0011604 -0.0038422
-0.016572 -0.0022193 0.0493144
-0.0386697 0.0605514 -0.0153727
-0.03592989999999999 0.07901500000000002 0.0469473
0.0253096 0.0143414 -0.0197095
-0.0475421 0.06280129999999999 0.0250368
-0.0302024 0.0135291 0.0131671
0.0244695 0.0613577 0.0449598
0.0216996 0.07869890000000002 0.0427603
-0.0121089 0.081846 0.050825
-0.0064802 -0.009682300000000001 0.04751610000000001
0.0223085 0.0026908 -0.0256894
0.0248249 0.0193187 -0.0117212
-0.04200860000000001 0.0401816 -0.0178839
-0.0476222 0.062362 0.0306627
-0.026419 0.012418 0.0482301
0.0301653 -0.0108909 0.0470168
0.0193948 -0.009906500000000002 0.0497689
-0.0142768 0.06684420000000001 -0.0202947
0.0211037 0.04121280000000001 0.05165090000000001
0.0237364 -0.004291199999999999 -0.0257096
0.0235964 0.0276286 -0.0214267
-0.0477583 0.0618479 0.0155679
-0.0201957 -0.0008119000000000001 0.0174934
-0.015721 0.0815758 -0.006101100000000001
0.0220369 0.039452 -0.0197005
-0.0056939 -0.008711899999999998 -0.0219628
0.0198893 0.0081995 -0.0252784
0.0138224 -0.0080518 -0.0245473
-0.03211530000000001 0.0650289 -0.0167863
-0.0452112 0.04637 -0.0156011
0.0253621 0.0055228 -0.0243818
-0.0244195 0.0018381 -0.0180699
-0.0337775 0.0149144 -0.0153243
-0.004057499999999999 0.0746774 -0.0181491
-0.0010221 0.07664800000000001 -0.0170789
0.0177916 0.07017300000000001 -0.0119869
-0.020971 -0.0026031 -0.0133233
-0.0402232 0.0672533 -0.0065526
-0.0242445 0.0163672 -0.0072964
0.0154695 0.08098789999999999 -0.006820700000000001
0.0129911 -0.0058957 -0.0102912
-0.012729 -0.0046111 -0.0032058
-0.0458977 0.0615868 0.0042229
-0.0463908 0.05533760000000001 -0.0029892
0.0256779 0.0200877 -0.0023214
-0.0439477 0.0660984 0.0029178
-0.0036345 0.0127819 0.004717499999999999
-0.0447134 0.0259423 0.0056737
-0.0006265000000000001 -0.007392 0.0033875
-0.0226403 0.012539 0.009110699999999999
-0.01772 -0.0038228 0.0086125
-0.0129649 -0.0068772 0.0067686
0.0223624 0.0044855 0.0037508
0.0265666 0.0131341 0.0043753
-0.020902 0.0018159 0.0107136
0.0264222 -0.0031248 0.0049625
-0.019447 0.0066184 0.0103737
0.0279491 0.003957700000000001 0.0104132
0.0284916 -0.0077769 0.0089441
-0.0457216 0.0219917 0.0293661
0.0160592 0.0819715 0.0195598
-0.0434305 0.07390140000000001 0.0268976
-0.0347671 0.08207210000000001 0.0270174
-0.0274571 0.08201839999999999 0.0512714
0.0037124 -0.0127063 0.04698289999999999
-0.05003970000000001 0.0233109 0.0515843
-0.0502452 0.0270454 0.0554118
-0.04951310000000001 0.0462808 0.05664370000000001
0.0229766 0.07548879999999999 0.04815580000000001
-0.0448146 0.0211957 0.0551748
-0.0401407 0.07067720000000001 0.056384
0.0176994 0.08058220000000001 0.05169340000000001
0.031407 0.0056204 0.04867730000000001
-0.0441815 0.06063950000000001 0.057745
0.007472400000000001 0.07883100000000001 0.05362290000000001
-0.0048562 -0.0107765 0.0125723
-0.0204913 0.0223829 0.0006496000000000001
0.0229017 0.0584299 0.0512343
0.0131728 0.07406690000000002 -0.0134321
-0.0163017 -0.0037436 0.0378713
0.0111871 0.08112560000000002 0.0514407
0.0158068 -0.009953099999999999 -0.0214571
-0.0203055 0.0116795 0.05464970000000001
-0.008086000000000001 0.01695490000000001 -0.0113168
-0.0067995 0.013072 0.0112666
-0.0038637 -0.0052095 -0.0231868
0.0163623 -0.0051067 -0.0252837
-0.022125 0.0004881 -0.0199042
0.022756 0.0093434 -0.0250853
-0.042774 0.0485693 -0.0176565
0.0258269 -0.006616599999999999 -0.0237179
-0.0175933 0.07388550000000001 -0.0136998
0.0197747 0.0563517 -0.0194846
0.018831 0.0635414 -0.0191537
-0.0424633 0.056375 -0.0149819
0.0261694 0.0033586 -0.0187158
-0.03382370000000001 0.0669981 -0.0125356
-0.0275695 0.007237599999999999 -0.0157194
-0.04426749999999999 0.0562881 -0.0112663
-0.0245431 0.0720003 -0.0139658
-0.0352328 0.07089290000000001 -0.007952300000000001
-0.0158969 -0.0009363 -0.00464
0.0233665 0.007856700000000001 -0.0104756
-0.0309601 0.0165557 0.0002221
-0.0019092 0.0823633 -0.0029281
0.002792 -0.009848000000000001 -0.0032575
-0.0386824 0.0226268 0.0021215
-0.005254899999999999 -0.009876300000000003 -0.0062263
0.0223415 0.0070138 -0.0043673
-0.0074244 0.0061786 -0.0076064
0.0253602 0.0153002 -0.0076696
0.0192496 0.07110360000000002 0.0017478
-0.0035428 0.008908299999999999 -0.0033846
0.0178353 -0.0013906 0.0016733
0.0145392 -0.00202 -0.0006730999999999999
-0.008365399999999999 -0.008830300000000001 0.0073128
-0.044643 0.07075090000000001 0.0103528
-0.0373663 0.0186208 0.0134331
-0.0463773 0.07018120000000001 0.0166
0.004562800000000001 -0.0112367 0.0090299
-0.0113866 -0.0081426 0.0107696
-0.0472175 0.024233 0.0140273
0.0248385 -0.0110147 0.0175546
0.01937390000000001 0.07059720000000001 0.0172986
-0.0468266 0.0235868 0.0229924
-0.0321763 0.08254210000000001 0.0245519
-0.0372437 0.08081079999999999 0.0278393
-0.0256428 0.0104424 0.03368380000000001
-0.0009925000000000001 -0.0119151 0.0283244
0.031414 -0.003771 0.03298639999999999
-0.0502564 0.0471649 0.05332890000000001
0.0283651 0.03419630000000001 0.0477071
0.03073209999999999 0.0120738 0.048596
-0.047177 0.05459280000000001 0.0572686
0.0168525 0.07728470000000003 0.0530457
-0.0375028 0.0327433 -0.01866540000000001
-0.0207364 0.07725440000000001 -0.0094754
-0.04658089999999999 0.0268598 -0.009240900000000002
-0.0410582 0.0618206 -0.0100309
-0.007544899999999999 0.0027325 0.0067594
-0.047736 0.0256787 0.0230975
0.005558499999999999 -0.008676000000000001 -0.0236894
0.0290517 -0.0111547 0.0368402
0.0047972 0.05919680000000001 -0.0222865
0.0271029 0.0119345 0.015032
0.0302852 -0.0035137 0.023302
0.0074506 -0.0101837 -0.0226367
-0.0402773 0.0450388 -0.0182056
-0.005788100000000001 0.08149960000000001 -0.0056599
-0.0300449 0.0149203 0.0386655
-0.0358102 0.0540004 0.05753230000000001
0.0077172 -0.0094603 -0.0012073
-0.0273086 0.07406740000000001 -0.0107545
0.0250092 0.03526219999999999 0.0234308
0.0005378999999999999 -0.009895900000000001 -0.0215801
-0.04042 0.030773 -0.0179907
0.0285895 -0.005177 0.0072729
0.0280063 0.0027602 0.049994
-0.04398469999999999 0.0407218 -0.0170517
0.0133496 -0.0087832 -0.0154118
-0.0402462 0.0699572 -0.0003246
0.0222381 0.0384973 -0.0109076
-0.004930199999999999 -0.0108355 0.0256794
-0.0105349 0.07352130000000001 -0.0175607
-0.0224717 0.0016987 -0.009866300000000001
0.0235183 0.053706 0.033647
0.0328269 0.0012534 0.047375
0.0252461 0.0186762 0.05068110000000001
-0.0103874 0.022265 -0.0072477
-0.0108405 0.0198681 -0.010934
-0.0244747 0.0061982 -0.0202746
-0.0180504 0.005311199999999999 -0.007960399999999999
-0.0312808 0.08244020000000001 0.0014067
0.0185188 -0.0055419 0.0035843
-0.023953 0.08300540000000001 0.0022567
-0.0170652 -0.0048465 0.0125372
0.0194341 -0.0071885 0.0505927
-0.0303313 0.0198098 0.0557158
-0.0240217 0.07771970000000002 0.05721180000000001
0.0260445 -0.0103084 0.0090913
-0.04808 0.0424206 0.0140569
-0.0228541 0.01574679999999999 0.0552077
-0.0299987 0.0549252 -0.0188474
-0.0454048 0.0604826 -0.0028753
-0.0133811 -0.0064862 0.0292565
0.007977900000000001 0.08172700000000001 0.0410047
-0.0245825 0.0108525 0.0509524
-0.0091979 0.0064354 -0.0221494
-0.0473567 0.0335072 -0.0006104000000000001
-0.008437099999999999 0.0830103 -0.0008876999999999999
-0.0252765 0.0825781 0.0140861
-0.0216708 0.005186400000000001 0.0377406
0.0246966 0.05233050000000001 0.0396953
0.0291024 0.0287168 0.0443805
0.01945000000000001 0.0013448 0.0506262
-0.0275537 0.0241598 0.0561414
-0.0122233 0.0698168 -0.0200504
0.004284899999999999 -0.0113027 -0.009067800000000001
-0.0474613 0.05067240000000001 0.0071956
-0.0233332 0.0106188 -0.0208037
-0.0058318 -0.0100713 -0.0185228
0.0245399 0.0312184 0.0154883
0.0173706 -0.0111608 0.009872200000000003
-0.04661010000000001 0.06715570000000001 0.0292412
0.0015624 -0.0105813 -0.01819
0.0296102 0.005050199999999999 0.0289726
-0.0470702 0.06395889999999999 0.0461645
-0.03792439999999999 0.01945460000000001 0.051563
0.01908130000000001 -0.011456 0.0248766
-0.0284942 0.0679998 0.0571204
-0.0323979 0.0152912 0.0125939
-0.0380279 0.03488280000000001 0.05730610000000001
-0.0158408 0.0817488 0.05265780000000001
-0.0208077 0.0818301 0.0439619
-0.0477045 0.049216 0.024184
0.0258326 0.0365267 0.0505652
0.0212857 -0.0119901 0.0446823
0.0017343 0.08082120000000001 -0.0143596
-0.0383432 0.01935860000000001 0.0279089
0.0225386 -0.0110387 0.0102058
-0.0493459 0.03212360000000001 0.0384066
0.0260014 0.03602439999999999 0.0339982
0.025612 0.05445750000000001 0.04642569999999999
-0.0185127 -0.0007593 -0.0213746
-0.0039886 0.0703438 -0.020921
-0.0094567 0.07258120000000001 -0.0189008
-0.0018123 -0.0112248 -0.0104508
-0.0174483 -0.0055803 -0.0170636
-0.03690429999999999 0.0826133 0.0188592
0.0197466 0.07803170000000002 0.0257687
0.0215429 0.07069720000000002 0.03646189999999999
0.0270699 -0.0117526 0.04322110000000001
-0.002506 0.0815081 0.05181140000000001
-0.0220729 0.0070131 0.0479783
-0.0018986 -0.009666000000000001 0.0513849
0.0184524 0.0728748 -0.0051019
-0.023117 0.0042839 0.015614
0.009576200000000003 0.06335699999999998 -0.0228712
0.0262333 0.0173914 0.0020396
-0.03467340000000001 0.0180511 0.0409253
-0.03823439999999999 0.0226986 0.05663930000000001
0.0072454 0.08176550000000002 0.0483978
0.0140896 -0.0012733 -0.007858
0.030636 -0.0020672 0.049506
0.0029949 0.0826143 0.0049983
-0.0457988 0.0236547 0.009815800000000001
-0.0269123 0.0100173 0.0149358
-0.0052327 0.0189592 -0.005154499999999999
-0.0322698 0.08009340000000001 0.05231880000000001
-0.0384191 0.07466290000000002 0.0021645
0.0217714 0.0500413 -0.001755
-0.009957200000000001 -0.008745699999999999 -0.0197295
-0.0476898 0.0320866 0.0049044
0.0145323 -0.0126616 0.0457661
0.0281684 0.0236351 0.0497233
-0.004733999999999999 0.0176148 0.0015617
0.0270453 0.0106661 0.0084069
0.0224437 0.05207680000000001 0.0515847
0.0185872 0.066937 0.0525414
-0.0155366 0.07947520000000002 0.0557785
-0.0459919 0.0423265 -0.0136223
0.0206639 0.06917770000000001 0.0256227
-0.0266692 0.08139060000000001 -0.0030029
-0.0436962 0.0638758 -0.0042391
-0.048711 0.0592457 0.0461584
-0.007552 0.0768592 0.0554205
-0.0001093 0.004148100000000001 0.05268860000000001
0.012438 0.0019135 -0.02445190000000001
0.0306791 0.004363300000000001 0.03547699999999999
-0.0152002 0.025583 0.05474250000000001
0.0016593 -0.01195 0.0143801
0.004565100000000001 -0.0127084 0.0420072
-0.0025957 -0.0115184 0.0443515
0.0192276 0.07039260000000001 0.0139358
-0.0379086 0.0194062 0.038522
0.0110586 -0.0119166 0.0137762
0.0012009 0.07599940000000001 0.0545464
0.0093224 0.0339034 -0.02336590000000001
0.0139992 0.0419904 0.0521822
0.0191187 0.0514153 -0.022887
-0.0457974 0.0240509 -0.0076635
-0.0054258 0.0147295 0.0081341
-0.0126416 0.014341 0.0132128
0.0275977 -0.0060913 0.0500245
0.0283516 -0.0107057 0.0304222
-0.0450775 0.05377170000000001 0.0583984
-0.0378563 0.0176673 -0.014137
0.0110228 0.08275300000000001 0.0060261
0.03341710000000001 -0.003487500000000001 0.0418953
-0.0299981 0.0613711 -0.0188672
-0.04065350000000001 0.07308500000000001 0.0512032
-0.0104619 0.0156397 0.0123404
0.0161796 0.0393682 -0.024117
-0.0490858 0.05613600000000001 0.04261280000000001
-0.0481004 0.0574427 0.0339851
0.0100005 0.0691114 0.05325410000000001
0.0274708 -0.009860300000000001 0.0148574
0.0294196 -0.0045116 0.0139316
-0.0272379 0.0155218 0.004371
0.0109208 0.08164610000000001 -0.007439100000000001
-0.0470496 0.0666549 0.0131959
-0.0286837 0.0107285 -0.0120146
0.0251648 0.011114 -0.015659
-0.0136065 -0.0057987 0.0469769
-0.0455108 0.0379783 -0.0148694
0.0010003 0.07849110000000002 -0.0128044
-0.0375698 0.0804633 0.0082641
0.0187071 0.06677120000000002 -0.009698500000000001
-0.04002439999999999 0.07566510000000003 0.0439165
-0.009958 0.08070300000000001 0.05439650000000001
-0.0334377 0.0177974 0.0059026
0.0187317 0.07726630000000002 0.0173155
0.0175252 0.0806974 0.0076314
-0.0159402 0.0234483 -0.005314999999999999
0.0068596 0.08302450000000001 -0.0037191
-0.04496889999999999 0.0622712 0.0563881
0.0161913 0.0505754 -0.0238221
-0.0483119 0.0287718 0.0260247
0.0097079 -0.0099282 0.0028689
-0.04883320000000001 0.02565530000000001 0.0346277
-0.0159906 0.0236651 0.0032345
-0.0280902 0.0650998 -0.0184299
-0.0441127 0.0218257 -0.009005500000000001
0.0335224 -0.0013362 0.045894
-0.04594069999999999 0.0232709 0.0572418
-0.0187312 -0.0018438 0.0266868
3 1 0 56
628
629
630
631
632
633
634
635
636
637
638
639
640
641
642
643
644
645
646
647
648
649
650
651
652
653
654
655
656
657
658
659
660
661
662
663
664
665
666
667
668
669
670
671
672
673
674
675
676
677
678
679
680
681
682
683
-0.01679852101092274 0.05325746606034674 0.008154129817851319
0.006956959565985139 0.04282966022554783 0.01182216024884894
-0.01571485057854319 0.03745414881296112 0.0255127469293675
-0.0287405832872001 0.03534400672574012 0.005612092890052194
0.0009043204532932468 0.01888770472858322 0.03348781320688961
-0.004684386623670909 0.04845768115464286 -0.007272453791899927
0.01085238685448164 0.01243932729065967 0.01160121093725567
0.008878287519350492 0.008822403831120179 -0.01489086357206979
0.000589498715803963 0.06455092417647627 0.004070976635828319
0.001775447081679449 0.01095653780667585 0.02127309751941486
0.00357407016398777 0.0241207507344301 0.01278597774911384
-0.01232044008760589 0.0380211840952436 0.009010649038909207
0.01144925613551475 0.01362207059732267 -0.001410284787324033
0.005426480795476875 0.02497606723771872 -0.001230395506881163
-0.0001103839748086613 0.01954865095837872 -0.01780944261125738
-0.02747039764453742 0.06327474001170816 0.02161838459479481
0.003531498728895084 -0.0004538881759297963 -0.008095381002625825
-0.002082658349212577 0.06561439969261046 -0.01111830291639985
-0.02100044448181872 0.03037369343817727 0.01300832473372389
-0.02532649466928801 0.02561934829557735 0.03968894014053093
0.01499959083317329 0.004365873215803285 0.03351627445660475
-0.002229471732741656 0.02955621080746146 0.03564339931817032
-0.01221452051816667 0.03533064010365134 -0.0128867565436458
0.006909163417733532 0.0009420863602267503 0.008653142071728194
-0.02949408111741978 0.05454521533828117 0.0009155001130305017
-0.03135034028786452 0.02694237809294395 -0.002752607426259178
-0.0135792435163122 0.008840350167635002 0.0286305163009424
-0.01473898009627748 0.0207450072413338 0.0293757554752068
-0.01945196303735676 0.03385500969670694 -0.001321950253737511
-0.00131338067381371 0.02861711640546451 -0.009557395692006454
0.01865023369551647 0.002070683560832142 0.01236674937585035
-0.007457128362109353 0.02897145543774249 0.01341666656238434
0.005174833866793102 0.01763094255810992 -0.009142240285824091
-0.02988747026141815 0.04045056160056743 -0.007896763924625608
-0.008225099951728931 0.002727195961545591 0.02263532041117799
-0.03217613590546463 0.05205364859112985 -0.008942428907994029
-0.0285037329803596 0.02360201490918937 0.008562886418379429
-0.02475558930371511 0.02121422893983935 0.02167484980193505
-0.01831929295943801 0.0617462033614028 -0.006300249802309038
-0.03473742762261747 0.03042459450338871 0.01475381237617662
-0.0325855095219354 0.04888628260546187 0.01470903932229913
-0.02593286098614344 0.06945684632594522 0.006732170656273554
0.005611216922547426 0.0005091035991365008 6.560426160449584e-05
-0.03775885111930151 0.03212937583987206 0.0002202013930048029
-0.008776935010781669 -0.00169952867758666 -0.01171630639133684
0.01656384828201566 0.02656777115351865 0.03152370600580333
-0.003042206745423161 0.05963028588048027 0.0290039914658578
0.01066685352294126 0.06544767996982601 -0.01432294904637544
-0.02975384321223122 0.02464043194151267 -0.01168889566109223
-0.0008621393344236809 0.07245529046267789 0.02115816741877983
-0.006014568966597704 0.01472469653852089 0.01984431862523046
-0.003981194762840216 0.03221490235794318 0.001753548642643789
-0.01614976858492272 0.002907518988341587 -0.01542854771047051
-0.01427128315066111 0.01297304299533373 -0.01732523151033124
0.00558182064697039 -0.002189082142280169 0.01970113421043744
0.001286648726936727 0.01537456727985482 0.01372501681645725
$EndNodes
$Elements
2 3407 1 3407
2 1 2 1250
1 83 82 1 
2 93 1 82 
3 83 1 247 
4 581 1 93 
5 1 539 247 
6 618 539 1 
7 1 581 618 
8 246 2 321 
9 246 392 2 
10 2 249 383 
11 249 2 392 
12 321 2 329 
13 383 329 2 
14 3 196 252 
15 3 389 196 
16 3 252 529 
17 338 333 3 
18 333 389 3 
19 338 3 529 
20 4 96 204 
21 96 4 276 
22 204 274 4 
23 274 397 4 
24 276 4 397 
25 92 5 6 
26 5 380 6 
27 5 92 101 
28 5 101 256 
29 380 5 256 
30 41 202 6 
31 247 41 6 
32 92 6 202 
33 247 6 275 
34 6 380 275 
35 7 100 11 
36 11 108 7 
37 12 7 108 
38 12 340 7 
39 7 277 100 
40 281 277 7 
41 281 7 340 
42 209 101 8 
43 8 101 607 
44 8 102 278 
45 102 8 607 
46 8 278 209 
47 9 10 103 
48 10 9 340 
49 103 208 9 
50 187 9 208 
51 281 9 187 
52 340 9 281 
53 10 13 14 
54 10 340 13 
55 14 405 10 
56 603 103 10 
57 10 405 106 
58 106 603 10 
59 100 471 11 
60 11 615 108 
61 470 11 471 
62 615 11 470 
63 12 120 13 
64 12 13 340 
65 108 378 12 
66 378 120 12 
67 13 120 14 
68 600 14 120 
69 14 183 405 
70 14 600 183 
71 15 61 248 
72 15 408 61 
73 349 117 15 
74 15 117 408 
75 349 15 248 
76 60 16 107 
77 287 16 60 
78 16 549 107 
79 287 348 16 
80 557 16 348 
81 557 549 16 
82 133 17 22 
83 22 17 351 
84 17 120 217 
85 17 600 120 
86 17 217 131 
87 351 17 131 
88 600 17 133 
89 24 18 134 
90 24 185 18 
91 18 188 134 
92 622 18 185 
93 18 214 188 
94 622 214 18 
95 136 19 132 
96 178 132 19 
97 356 19 136 
98 137 220 19 
99 19 356 137 
100 19 220 178 
101 142 22 20 
102 351 20 22 
103 20 137 142 
104 20 358 137 
105 20 351 358 
106 130 21 72 
107 21 354 72 
108 130 355 21 
109 21 219 354 
110 21 355 219 
111 22 138 133 
112 140 138 22 
113 142 140 22 
114 23 139 128 
115 415 23 128 
116 145 139 23 
117 145 23 475 
118 415 475 23 
119 185 24 62 
120 24 593 62 
121 583 24 134 
122 24 583 386 
123 593 24 386 
124 25 140 142 
125 25 548 140 
126 356 25 142 
127 25 356 538 
128 25 538 548 
129 52 363 26 
130 26 505 52 
131 420 261 26 
132 505 26 261 
133 289 26 363 
134 26 289 420 
135 53 27 155 
136 53 292 27 
137 156 155 27 
138 27 176 156 
139 27 292 176 
140 162 264 28 
141 162 28 311 
142 171 28 264 
143 28 171 302 
144 605 28 302 
145 28 605 311 
146 29 31 164 
147 384 31 29 
148 164 488 29 
149 167 263 29 
150 167 29 488 
151 384 29 263 
152 166 30 57 
153 370 57 30 
154 166 524 30 
155 30 308 370 
156 308 30 524 
157 165 31 58 
158 479 58 31 
159 165 164 31 
160 384 483 31 
161 31 483 479 
162 159 32 161 
163 159 625 32 
164 161 32 170 
165 32 545 170 
166 545 32 468 
167 625 468 32 
168 33 175 55 
169 373 33 55 
170 235 175 33 
171 235 33 436 
172 33 373 436 
173 34 154 155 
174 531 154 34 
175 155 156 34 
176 309 34 156 
177 309 532 34 
178 532 531 34 
179 144 35 147 
180 35 144 220 
181 180 35 146 
182 35 220 146 
183 147 35 386 
184 180 386 35 
185 157 36 54 
186 617 54 36 
187 157 508 36 
188 36 566 294 
189 36 294 617 
190 36 508 566 
191 94 255 37 
192 94 37 337 
193 37 341 215 
194 37 215 537 
195 341 37 255 
196 337 37 537 
197 113 38 192 
198 38 113 284 
199 192 38 403 
200 473 38 284 
201 38 473 403 
202 40 78 39 
203 91 40 39 
204 85 39 78 
205 86 39 85 
206 91 39 86 
207 78 40 457 
208 91 199 40 
209 40 199 457 
210 202 41 198 
211 198 41 526 
212 41 247 539 
213 526 41 539 
214 42 404 114 
215 114 544 42 
216 207 42 177 
217 342 177 42 
218 404 42 207 
219 342 42 544 
220 43 122 123 
221 122 43 212 
222 43 123 453 
223 43 210 212 
224 499 210 43 
225 43 453 250 
226 250 499 43 
227 408 44 61 
228 612 61 44 
229 183 44 405 
230 183 612 44 
231 44 283 405 
232 44 408 283 
233 45 345 240 
234 500 45 240 
235 45 500 323 
236 602 45 323 
237 45 344 345 
238 45 602 344 
239 46 117 349 
240 117 46 554 
241 46 423 218 
242 554 46 218 
243 349 547 46 
244 547 423 46 
245 47 144 147 
246 286 144 47 
247 348 47 147 
248 414 286 47 
249 287 47 348 
250 287 414 47 
251 289 48 179 
252 48 608 179 
253 530 216 48 
254 48 216 608 
255 224 48 289 
256 530 48 224 
257 131 184 49 
258 351 131 49 
259 143 351 49 
260 49 584 143 
261 184 584 49 
262 258 219 50 
263 219 558 50 
264 50 357 258 
265 50 458 357 
266 458 50 359 
267 50 558 359 
268 51 218 442 
269 218 51 482 
270 51 442 619 
271 516 482 51 
272 51 619 516 
273 52 508 157 
274 157 610 52 
275 610 363 52 
276 52 505 508 
277 155 362 53 
278 53 487 292 
279 362 589 53 
280 53 546 487 
281 589 546 53 
282 592 157 54 
283 54 372 592 
284 54 617 372 
285 370 55 175 
286 176 292 55 
287 55 309 176 
288 55 292 373 
289 370 309 55 
290 229 56 173 
291 517 173 56 
292 186 56 229 
293 56 186 559 
294 559 517 56 
295 166 57 379 
296 235 57 175 
297 175 57 370 
298 235 379 57 
299 58 509 165 
300 371 509 58 
301 371 58 626 
302 542 58 479 
303 626 58 542 
304 149 59 223 
305 362 59 149 
306 362 154 59 
307 59 154 531 
308 59 613 223 
309 613 59 531 
310 193 60 107 
311 193 414 60 
312 60 414 287 
313 612 248 61 
314 185 62 184 
315 62 584 184 
316 62 593 584 
317 63 68 151 
318 444 68 63 
319 431 63 151 
320 267 63 159 
321 159 63 431 
322 444 63 267 
323 64 160 291 
324 160 64 509 
325 227 64 361 
326 227 576 64 
327 291 361 64 
328 64 576 509 
329 65 474 216 
330 216 530 65 
331 285 474 65 
332 65 476 285 
333 65 530 476 
334 66 82 83 
335 82 66 395 
336 66 83 275 
337 94 66 275 
338 337 66 94 
339 337 395 66 
340 211 98 67 
341 98 277 67 
342 187 67 277 
343 473 67 187 
344 473 211 67 
345 151 68 153 
346 68 586 153 
347 444 586 68 
348 367 160 69 
349 160 371 69 
350 69 181 368 
351 69 626 181 
352 368 367 69 
353 371 626 69 
354 70 410 72 
355 70 72 415 
356 114 70 301 
357 114 410 70 
358 301 70 416 
359 415 416 70 
360 172 234 71 
361 265 172 71 
362 71 234 587 
363 265 71 369 
364 369 71 435 
365 435 71 587 
366 130 72 410 
367 72 354 415 
368 73 497 298 
369 298 542 73 
370 479 483 73 
371 542 479 73 
372 483 497 73 
373 171 74 263 
374 171 264 74 
375 74 233 194 
376 194 384 74 
377 233 74 264 
378 263 74 384 
379 237 75 372 
380 550 75 237 
381 304 75 550 
382 592 75 304 
383 75 592 372 
384 475 76 145 
385 76 481 145 
386 357 76 259 
387 76 475 259 
388 357 458 76 
389 360 76 458 
390 481 76 360 
391 79 77 80 
392 197 77 79 
393 80 77 328 
394 77 197 87 
395 77 87 390 
396 77 390 328 
397 269 85 78 
398 78 270 269 
399 270 78 437 
400 78 457 437 
401 80 189 79 
402 322 79 189 
403 197 79 322 
404 80 81 189 
405 81 80 594 
406 328 594 80 
407 81 88 189 
408 88 81 271 
409 81 594 271 
410 93 82 395 
411 275 83 247 
412 85 84 90 
413 84 85 269 
414 399 90 84 
415 203 84 269 
416 399 84 203 
417 588 86 85 
418 90 334 85 
419 334 588 85 
420 91 86 624 
421 86 588 624 
422 87 197 305 
423 274 332 87 
424 397 274 87 
425 87 305 397 
426 87 332 390 
427 189 88 326 
428 271 581 88 
429 326 88 394 
430 88 581 394 
431 89 465 272 
432 89 272 623 
433 330 401 89 
434 89 623 330 
435 393 89 401 
436 465 89 393 
437 97 90 399 
438 97 603 90 
439 603 334 90 
440 91 190 199 
441 190 91 439 
442 91 582 439 
443 91 624 582 
444 92 607 101 
445 519 92 202 
446 92 519 607 
447 93 395 394 
448 394 581 93 
449 380 255 94 
450 380 94 275 
451 205 102 95 
452 95 102 607 
453 205 95 519 
454 519 95 607 
455 96 177 191 
456 177 96 207 
457 191 204 96 
458 276 207 96 
459 208 103 97 
460 97 103 603 
461 466 208 97 
462 466 97 399 
463 211 99 98 
464 385 98 99 
465 277 98 100 
466 98 385 100 
467 99 193 107 
468 99 107 385 
469 193 99 211 
470 100 385 471 
471 282 101 209 
472 101 282 256 
473 273 102 205 
474 273 278 102 
475 408 104 283 
476 283 104 588 
477 300 104 408 
478 582 104 300 
479 104 582 624 
480 588 104 624 
481 212 210 105 
482 239 105 210 
483 342 212 105 
484 239 461 105 
485 342 105 461 
486 283 106 405 
487 106 283 588 
488 106 588 334 
489 334 603 106 
490 385 107 110 
491 107 549 110 
492 615 378 108 
493 338 279 109 
494 279 403 109 
495 109 466 338 
496 109 403 466 
497 385 110 471 
498 470 471 110 
499 470 110 549 
500 111 282 209 
501 209 450 111 
502 601 282 111 
503 406 111 450 
504 406 616 111 
505 601 111 616 
506 410 112 130 
507 412 130 112 
508 112 404 276 
509 276 604 112 
510 404 112 410 
511 412 112 604 
512 113 125 129 
513 125 113 192 
514 129 286 113 
515 113 411 284 
516 411 113 286 
517 114 301 544 
518 410 114 404 
519 115 216 474 
520 216 115 608 
521 115 242 280 
522 115 564 242 
523 115 280 551 
524 115 474 564 
525 608 115 551 
526 325 285 116 
527 116 285 491 
528 325 116 450 
529 450 116 406 
530 406 116 491 
531 117 118 300 
532 554 118 117 
533 408 117 300 
534 582 300 118 
535 490 439 118 
536 118 439 582 
537 490 118 554 
538 119 182 124 
539 124 343 119 
540 182 119 241 
541 213 119 343 
542 213 409 119 
543 119 409 241 
544 217 120 378 
545 126 266 121 
546 589 126 121 
547 266 341 121 
548 341 601 121 
549 616 589 121 
550 616 121 601 
551 301 123 122 
552 212 342 122 
553 122 544 301 
554 342 544 122 
555 128 123 416 
556 620 123 128 
557 416 123 301 
558 453 123 620 
559 192 124 127 
560 353 127 124 
561 124 182 353 
562 192 343 124 
563 127 132 125 
564 192 127 125 
565 129 125 178 
566 132 178 125 
567 126 152 149 
568 126 149 614 
569 589 152 126 
570 614 266 126 
571 136 132 127 
572 352 136 127 
573 352 127 353 
574 139 620 128 
575 128 416 415 
576 129 178 441 
577 129 441 286 
578 412 355 130 
579 184 131 217 
580 133 138 183 
581 133 183 600 
582 134 188 557 
583 557 583 134 
584 135 215 266 
585 413 215 135 
586 221 575 135 
587 135 614 221 
588 135 266 614 
589 135 575 413 
590 136 352 222 
591 136 222 356 
592 142 137 356 
593 146 220 137 
594 137 358 146 
595 512 138 140 
596 612 183 138 
597 612 138 512 
598 145 504 139 
599 244 139 504 
600 244 620 139 
601 307 512 140 
602 307 140 548 
603 288 141 260 
604 547 260 141 
605 426 141 288 
606 141 426 423 
607 423 547 141 
608 358 143 148 
609 148 143 584 
610 143 358 351 
611 441 220 144 
612 441 144 286 
613 481 521 145 
614 504 145 521 
615 148 180 146 
616 146 358 148 
617 348 147 583 
618 147 386 583 
619 584 180 148 
620 149 152 362 
621 614 149 223 
622 150 151 153 
623 599 151 150 
624 598 150 153 
625 360 150 598 
626 599 150 360 
627 151 447 431 
628 599 447 151 
629 589 362 152 
630 586 598 153 
631 362 155 154 
632 176 309 156 
633 157 592 610 
634 367 158 262 
635 522 262 158 
636 158 368 265 
637 158 265 432 
638 158 367 368 
639 432 522 158 
640 267 159 161 
641 590 159 431 
642 590 625 159 
643 291 160 367 
644 509 371 160 
645 161 170 317 
646 267 161 317 
647 536 264 162 
648 366 295 162 
649 295 536 162 
650 574 162 311 
651 574 366 162 
652 163 243 230 
653 434 163 230 
654 163 625 243 
655 163 434 374 
656 163 374 468 
657 163 468 625 
658 316 164 165 
659 488 164 316 
660 451 316 165 
661 165 541 451 
662 541 165 509 
663 186 229 166 
664 379 186 166 
665 229 524 166 
666 167 171 263 
667 171 167 302 
668 167 535 302 
669 488 535 167 
670 168 230 433 
671 230 168 556 
672 168 433 517 
673 168 517 556 
674 169 478 233 
675 536 169 233 
676 295 318 169 
677 169 536 295 
678 169 318 478 
679 170 318 317 
680 318 170 478 
681 478 170 585 
682 170 545 585 
683 181 172 265 
684 298 172 181 
685 298 234 172 
686 229 173 433 
687 433 173 517 
688 372 174 236 
689 174 375 236 
690 372 617 174 
691 375 174 617 
692 191 177 461 
693 177 342 461 
694 178 220 441 
695 179 420 289 
696 418 420 179 
697 179 608 418 
698 593 386 180 
699 584 593 180 
700 368 181 265 
701 626 298 181 
702 350 182 241 
703 417 182 350 
704 182 417 353 
705 185 184 217 
706 185 217 622 
707 559 186 379 
708 187 208 473 
709 187 277 281 
710 214 470 188 
711 549 188 470 
712 549 557 188 
713 189 326 322 
714 190 606 199 
715 190 439 490 
716 562 190 490 
717 190 562 606 
718 191 249 204 
719 461 249 191 
720 343 192 403 
721 211 411 193 
722 193 411 414 
723 194 233 568 
724 194 483 384 
725 483 194 497 
726 571 497 194 
727 571 194 568 
728 195 252 196 
729 195 196 525 
730 327 252 195 
731 387 327 195 
732 387 195 525 
733 525 196 389 
734 322 305 197 
735 336 202 198 
736 336 198 335 
737 335 198 527 
738 527 198 526 
739 457 199 460 
740 460 199 606 
741 200 201 391 
742 200 396 201 
743 200 331 257 
744 200 257 400 
745 200 391 331 
746 200 400 396 
747 268 201 303 
748 268 391 201 
749 201 396 303 
750 202 336 205 
751 519 202 205 
752 472 203 269 
753 399 203 333 
754 203 472 333 
755 392 204 249 
756 204 392 274 
757 205 336 273 
758 461 239 206 
759 206 239 506 
760 206 448 383 
761 206 383 461 
762 506 448 206 
763 404 207 276 
764 208 466 403 
765 208 403 473 
766 209 278 450 
767 499 239 210 
768 284 411 211 
769 284 211 473 
770 213 343 279 
771 279 529 213 
772 213 528 409 
773 528 213 502 
774 213 529 502 
775 470 214 615 
776 622 615 214 
777 215 341 266 
778 215 413 537 
779 217 378 622 
780 442 218 423 
781 482 554 218 
782 258 354 219 
783 219 355 558 
784 223 613 221 
785 223 221 614 
786 575 221 613 
787 324 538 222 
788 627 324 222 
789 222 352 477 
790 356 222 538 
791 477 627 222 
792 224 289 225 
793 225 428 224 
794 224 428 364 
795 364 530 224 
796 226 225 363 
797 225 226 428 
798 363 225 289 
799 290 226 304 
800 364 226 290 
801 304 226 610 
802 610 226 363 
803 364 428 226 
804 227 361 288 
805 227 288 520 
806 520 576 227 
807 228 290 365 
808 228 427 290 
809 228 365 515 
810 492 427 228 
811 492 228 515 
812 229 433 524 
813 243 495 230 
814 495 433 230 
815 434 230 556 
816 245 231 293 
817 480 231 245 
818 231 365 293 
819 514 365 231 
820 231 480 561 
821 514 231 561 
822 232 238 578 
823 611 238 232 
824 376 382 232 
825 376 232 578 
826 232 382 534 
827 534 611 232 
828 536 233 264 
829 496 233 478 
830 496 568 233 
831 452 234 298 
832 452 299 234 
833 299 587 234 
834 235 560 379 
835 235 436 560 
836 245 237 236 
837 236 237 372 
838 480 245 236 
839 236 375 299 
840 299 480 236 
841 293 237 245 
842 550 237 293 
843 578 238 567 
844 567 238 611 
845 499 506 239 
846 345 257 240 
847 562 240 257 
848 240 490 482 
849 240 482 500 
850 240 562 490 
851 241 253 350 
852 241 407 253 
853 241 409 407 
854 402 280 242 
855 454 402 242 
856 438 454 242 
857 242 564 438 
858 243 570 495 
859 570 243 590 
860 243 625 590 
861 421 253 244 
862 244 253 620 
863 421 244 572 
864 577 244 504 
865 577 572 244 
866 246 332 274 
867 274 392 246 
868 332 246 321 
869 260 547 248 
870 612 260 248 
871 349 248 547 
872 383 249 461 
873 409 250 407 
874 453 407 250 
875 528 250 409 
876 528 499 250 
877 451 251 307 
878 512 307 251 
879 512 251 419 
880 419 251 520 
881 451 541 251 
882 251 541 520 
883 327 553 252 
884 553 529 252 
885 421 350 253 
886 253 407 453 
887 253 453 620 
888 254 318 295 
889 254 295 555 
890 317 318 254 
891 254 533 317 
892 518 533 254 
893 555 518 254 
894 255 256 282 
895 380 256 255 
896 601 255 282 
897 255 601 341 
898 331 562 257 
899 257 345 485 
900 400 257 485 
901 354 258 259 
902 258 357 259 
903 415 354 259 
904 259 475 415 
905 419 288 260 
906 419 260 612 
907 323 306 261 
908 505 261 306 
909 602 323 261 
910 420 602 261 
911 262 291 367 
912 262 621 291 
913 621 262 522 
914 369 432 265 
915 317 444 267 
916 268 303 330 
917 268 330 623 
918 591 391 268 
919 268 623 591 
920 501 269 270 
921 472 269 501 
922 270 437 449 
923 270 449 484 
924 270 484 579 
925 489 501 270 
926 270 579 489 
927 581 271 618 
928 594 618 271 
929 272 465 527 
930 498 272 527 
931 623 272 498 
932 465 278 273 
933 336 335 273 
934 465 273 335 
935 397 604 276 
936 278 438 325 
937 450 278 325 
938 393 438 278 
939 393 278 465 
940 529 279 338 
941 343 403 279 
942 402 462 280 
943 551 280 462 
944 285 325 564 
945 474 285 564 
946 285 476 491 
947 286 414 411 
948 288 361 426 
949 520 288 419 
950 290 293 365 
951 290 550 293 
952 290 304 550 
953 427 364 290 
954 361 291 426 
955 291 621 426 
956 382 373 292 
957 543 382 292 
958 487 543 292 
959 294 432 369 
960 369 435 294 
961 294 566 432 
962 435 617 294 
963 295 366 555 
964 296 297 469 
965 297 296 556 
966 434 296 374 
967 374 296 459 
968 434 556 296 
969 469 459 296 
970 297 320 469 
971 297 517 320 
972 297 556 517 
973 513 452 298 
974 298 497 513 
975 298 626 542 
976 587 299 375 
977 511 299 452 
978 299 511 480 
979 605 302 381 
980 381 302 627 
981 302 535 493 
982 627 302 493 
983 398 330 303 
984 440 303 396 
985 440 398 303 
986 304 610 592 
987 322 313 305 
988 305 313 604 
989 604 397 305 
990 306 315 505 
991 306 516 315 
992 306 323 482 
993 306 482 516 
994 316 307 429 
995 316 451 307 
996 548 429 307 
997 532 370 308 
998 494 308 495 
999 532 308 494 
1000 524 495 308 
1001 309 370 532 
1002 487 515 310 
1003 487 310 543 
1004 515 514 310 
1005 611 310 514 
1006 543 310 534 
1007 310 611 534 
1008 574 311 486 
1009 605 486 311 
1010 332 321 312 
1011 321 388 312 
1012 390 312 328 
1013 312 569 328 
1014 312 390 332 
1015 312 388 569 
1016 463 313 322 
1017 313 346 412 
1018 313 463 346 
1019 313 412 604 
1020 449 437 314 
1021 314 437 457 
1022 449 314 460 
1023 314 457 460 
1024 595 505 315 
1025 315 516 596 
1026 595 315 596 
1027 429 535 316 
1028 535 488 316 
1029 317 533 444 
1030 319 445 484 
1031 445 319 539 
1032 484 591 319 
1033 526 319 498 
1034 498 319 591 
1035 539 319 526 
1036 469 320 580 
1037 517 559 320 
1038 560 320 559 
1039 580 320 560 
1040 388 321 329 
1041 463 322 326 
1042 500 482 323 
1043 538 324 627 
1044 438 564 325 
1045 463 326 394 
1046 443 327 387 
1047 327 443 456 
1048 456 502 327 
1049 553 327 502 
1050 328 569 579 
1051 328 579 594 
1052 329 383 448 
1053 388 329 387 
1054 443 387 329 
1055 329 448 443 
1056 330 398 401 
1057 391 460 331 
1058 460 606 331 
1059 606 562 331 
1060 338 399 333 
1061 333 472 389 
1062 335 527 465 
1063 337 609 395 
1064 537 609 337 
1065 466 399 338 
1066 402 398 339 
1067 398 440 339 
1068 462 402 339 
1069 339 440 565 
1070 565 462 339 
1071 345 344 485 
1072 485 344 347 
1073 344 602 347 
1074 540 412 346 
1075 346 463 552 
1076 346 552 540 
1077 347 418 462 
1078 347 602 418 
1079 462 565 347 
1080 347 565 485 
1081 557 348 583 
1082 417 350 421 
1083 477 352 353 
1084 422 353 417 
1085 422 477 353 
1086 355 412 540 
1087 355 540 558 
1088 446 359 558 
1089 446 599 359 
1090 359 599 458 
1091 360 458 599 
1092 481 360 598 
1093 530 364 427 
1094 514 515 365 
1095 573 366 430 
1096 574 430 366 
1097 366 573 555 
1098 373 382 376 
1099 376 436 373 
1100 545 374 459 
1101 545 468 374 
1102 587 375 435 
1103 435 375 617 
1104 578 436 376 
1105 377 417 421 
1106 377 422 417 
1107 572 377 421 
1108 464 422 377 
1109 430 464 377 
1110 572 430 377 
1111 378 615 622 
1112 379 560 559 
1113 486 381 477 
1114 381 627 477 
1115 381 486 605 
1116 382 543 534 
1117 569 388 387 
1118 489 387 501 
1119 569 387 489 
1120 387 525 501 
1121 525 389 472 
1122 460 391 449 
1123 591 449 391 
1124 401 438 393 
1125 394 395 609 
1126 609 463 394 
1127 400 440 396 
1128 401 398 454 
1129 454 398 402 
1130 565 440 400 
1131 565 400 485 
1132 454 438 401 
1133 546 406 491 
1134 406 546 616 
1135 413 552 537 
1136 540 552 413 
1137 540 413 575 
1138 602 420 418 
1139 418 551 462 
1140 418 608 551 
1141 612 512 419 
1142 422 464 486 
1143 422 486 477 
1144 423 426 442 
1145 521 481 424 
1146 424 481 598 
1147 424 510 521 
1148 424 533 510 
1149 533 424 586 
1150 598 586 424 
1151 455 503 425 
1152 455 425 563 
1153 425 503 575 
1154 425 531 563 
1155 613 531 425 
1156 425 575 613 
1157 621 442 426 
1158 476 427 492 
1159 476 530 427 
1160 493 535 429 
1161 429 548 493 
1162 464 430 574 
1163 572 573 430 
1164 431 447 507 
1165 570 431 507 
1166 431 570 590 
1167 595 522 432 
1168 595 432 566 
1169 524 433 495 
1170 597 560 436 
1171 578 597 436 
1172 442 621 619 
1173 448 456 443 
1174 533 586 444 
1175 579 484 445 
1176 445 539 618 
1177 579 445 594 
1178 618 594 445 
1179 446 503 447 
1180 446 447 599 
1181 503 446 558 
1182 503 455 447 
1183 507 447 455 
1184 448 506 456 
1185 484 449 591 
1186 452 597 511 
1187 571 452 513 
1188 571 580 452 
1189 597 452 580 
1190 455 467 523 
1191 563 467 455 
1192 455 523 507 
1193 456 506 502 
1194 469 496 459 
1195 478 459 496 
1196 585 459 478 
1197 459 585 545 
1198 463 609 552 
1199 464 574 486 
1200 467 494 523 
1201 467 532 494 
1202 467 563 532 
1203 469 580 496 
1204 501 525 472 
1205 476 492 491 
1206 511 567 480 
1207 561 480 567 
1208 482 490 554 
1209 515 487 546 
1210 489 579 569 
1211 546 491 492 
1212 546 492 515 
1213 538 493 548 
1214 493 538 627 
1215 570 494 495 
1216 523 494 570 
1217 568 496 571 
1218 571 496 580 
1219 571 513 497 
1220 527 526 498 
1221 591 623 498 
1222 528 506 499 
1223 506 528 502 
1224 529 553 502 
1225 575 503 558 
1226 504 521 510 
1227 504 510 577 
1228 505 566 508 
1229 566 505 595 
1230 570 507 523 
1231 509 576 541 
1232 533 518 510 
1233 518 555 510 
1234 510 555 577 
1235 511 578 567 
1236 511 597 578 
1237 611 514 561 
1238 516 619 596 
1239 520 541 576 
1240 522 595 596 
1241 619 522 596 
1242 619 621 522 
1243 531 532 563 
1244 609 537 552 
1245 558 540 575 
1246 589 616 546 
1247 577 555 573 
1248 580 560 597 
1249 567 611 561 
1250 573 572 577 
3 1 4 2157
1251 429 535 493 655 
1252 469 632 496 649 
1253 70 301 416 670 
1254 595 505 566 508 
1255 479 73 58 542 
1256 354 21 72 634 
1257 447 648 507 673 
1258 415 72 70 651 
1259 70 416 651 670 
1260 350 377 417 421 
1261 175 33 436 235 
1262 415 70 416 651 
1263 348 47 287 640 
1264 325 278 116 666 
1265 72 640 70 651 
1266 193 107 60 635 
1267 602 347 418 669 
1268 596 619 516 630 
1269 568 571 496 632 
1270 34 309 156 532 
1271 287 16 348 640 
1272 321 332 312 274 
1273 185 184 62 646 
1274 523 494 467 673 
1275 138 131 133 664 
1276 596 643 630 668 
1277 121 215 616 601 
1278 652 656 631 661 
1279 513 541 576 647 
1280 584 49 143 654 
1281 410 404 114 640 
1282 72 634 21 640 
1283 628 631 652 656 
1284 634 637 632 638 
1285 286 144 441 651 
1286 522 513 576 647 
1287 596 630 516 668 
1288 116 285 325 669 
1289 429 316 535 655 
1290 325 666 116 669 
1291 583 348 557 683 
1292 404 112 635 640 
1293 580 469 496 649 
1294 305 197 77 635 
1295 225 428 226 643 
1296 217 631 378 664 
1297 289 420 179 643 
1298 296 434 230 556 
1299 109 284 279 680 
1300 26 420 289 643 
1301 70 640 301 670 
1302 24 62 593 659 
1303 579 328 80 642 
1304 348 634 47 640 
1305 344 652 643 668 
1306 427 492 228 643 
1307 302 74 535 167 
1308 72 21 130 640 
1309 354 21 634 658 
1310 119 286 241 644 
1311 506 502 528 644 
1312 102 607 101 336 
1313 301 114 544 635 
1314 404 410 112 640 
1315 70 651 640 670 
1316 414 193 60 635 
1317 355 130 21 640 
1318 355 21 634 640 
1319 596 595 522 630 
1320 48 179 608 669 
1321 182 350 286 441 
1322 210 105 239 644 
1323 640 644 301 670 
1324 211 672 284 680 
1325 301 70 114 640 
1326 414 644 640 670 
1327 37 255 380 256 
1328 305 197 635 660 
1329 185 18 622 639 
1330 404 207 42 635 
1331 430 662 637 682 
1332 182 129 178 441 
1333 507 523 455 673 
1334 210 212 105 644 
1335 348 641 557 683 
1336 45 652 344 668 
1337 491 116 278 666 
1338 619 516 630 668 
1339 520 630 665 667 
1340 631 646 639 668 
1341 313 305 604 635 
1342 585 545 590 459 
1343 604 112 313 635 
1344 628 669 643 674 
1345 632 637 634 648 
1346 72 634 640 651 
1347 378 631 217 656 
1348 628 636 669 674 
1349 628 652 633 656 
1350 631 667 646 668 
1351 286 47 144 651 
1352 602 420 261 643 
1353 240 661 631 671 
1354 48 643 179 669 
1355 529 672 252 680 
1356 502 528 644 672 
1357 409 119 241 644 
1358 590 478 585 459 
1359 420 26 261 643 
1360 47 640 634 651 
1361 378 108 12 653 
1362 593 386 24 678 
1363 398 339 440 652 
1364 348 634 640 683 
1365 35 147 386 678 
1366 301 635 544 644 
1367 8 278 273 645 
1368 119 286 644 672 
1369 301 114 635 640 
1370 541 509 513 576 
1371 8 209 278 636 
1372 256 101 5 645 
1373 402 398 454 666 
1374 631 653 378 664 
1375 522 630 513 647 
1376 133 131 17 664 
1377 279 284 672 680 
1378 286 129 182 441 
1379 307 251 451 665 
1380 404 276 207 635 
1381 415 416 128 651 
1382 241 286 350 670 
1383 509 513 73 541 
1384 410 114 70 640 
1385 608 179 418 669 
1386 622 378 217 656 
1387 438 278 325 666 
1388 473 67 211 680 
1389 411 193 414 644 
1390 270 642 579 650 
1391 143 148 584 654 
1392 72 410 70 640 
1393 411 644 286 672 
1394 646 667 630 668 
1395 315 505 52 643 
1396 182 241 119 286 
1397 182 350 241 286 
1398 35 144 147 682 
1399 148 180 584 654 
1400 339 565 440 652 
1401 631 628 652 668 
1402 139 23 651 658 
1403 128 23 415 651 
1404 108 615 11 650 
1405 634 651 658 682 
1406 51 667 482 668 
1407 557 188 134 679 
1408 301 640 635 644 
1409 35 386 180 678 
1410 520 665 251 667 
1411 544 635 342 644 
1412 653 656 108 676 
1413 491 116 666 669 
1414 220 441 144 682 
1415 398 402 339 652 
1416 402 462 339 652 
1417 438 393 278 666 
1418 599 446 359 658 
1419 241 644 286 670 
1420 448 206 383 329 
1421 634 658 637 682 
1422 635 640 414 644 
1423 583 557 134 638 
1424 438 666 325 669 
1425 643 669 492 674 
1426 394 88 326 463 
1427 571 649 630 674 
1428 653 661 457 671 
1429 348 640 641 683 
1430 615 622 214 656 
1431 646 665 630 667 
1432 631 628 639 656 
1433 214 622 18 679 
1434 288 426 361 227 
1435 147 144 47 682 
1436 470 615 214 650 
1437 465 278 393 666 
1438 313 112 412 640 
1439 286 411 414 644 
1440 336 101 102 645 
1441 363 225 226 643 
1442 348 47 634 683 
1443 217 646 631 664 
1444 522 619 596 630 
1445 500 240 652 668 
1446 565 339 462 652 
1447 631 639 628 668 
1448 324 146 148 662 
1449 119 644 409 672 
1450 116 491 285 669 
1451 119 113 286 672 
1452 377 441 350 417 
1453 193 635 414 644 
1454 256 537 255 282 
1455 50 458 359 357 
1456 215 121 341 601 
1457 12 653 108 676 
1458 635 640 112 660 
1459 465 273 278 645 
1460 378 653 631 656 
1461 378 108 653 656 
1462 178 353 352 132 
1463 236 75 372 237 
1464 568 632 573 662 
1465 628 630 643 668 
1466 286 644 414 670 
1467 401 454 398 666 
1468 457 661 653 676 
1469 414 60 287 660 
1470 411 286 113 672 
1471 630 643 452 674 
1472 78 457 40 676 
1473 581 618 271 463 
1474 482 668 631 671 
1475 608 418 551 669 
1476 637 648 430 682 
1477 387 644 411 672 
1478 633 652 628 666 
1479 402 652 398 666 
1480 13 405 14 653 
1481 595 432 522 513 
1482 515 492 546 677 
1483 496 632 571 649 
1484 130 410 72 640 
1485 212 342 105 644 
1486 430 637 573 648 
1487 345 45 240 652 
1488 8 273 102 645 
1489 409 407 250 644 
1490 306 516 482 668 
1491 553 195 252 672 
1492 347 565 462 652 
1493 409 241 407 644 
1494 240 45 500 652 
1495 24 659 593 678 
1496 217 646 622 656 
1497 352 136 132 127 
1498 156 309 27 532 
1499 378 615 108 656 
1500 62 185 646 659 
1501 537 616 601 282 
1502 483 164 31 497 
1503 61 44 408 653 
1504 220 35 146 662 
1505 588 86 624 676 
1506 516 51 482 668 
1507 272 89 623 666 
1508 220 441 377 417 
1509 185 639 622 646 
1510 62 646 184 655 
1511 119 113 129 286 
1512 102 101 8 645 
1513 80 328 77 642 
1514 148 654 324 662 
1515 500 652 45 668 
1516 305 635 313 660 
1517 438 242 454 666 
1518 497 513 571 647 
1519 61 664 653 667 
1520 182 350 441 417 
1521 528 409 250 644 
1522 653 661 656 676 
1523 338 109 279 680 
1524 347 652 462 669 
1525 124 113 129 119 
1526 386 583 24 683 
1527 573 637 632 648 
1528 633 663 652 666 
1529 104 408 283 653 
1530 119 129 182 286 
1531 62 184 584 655 
1532 49 654 584 655 
1533 43 122 212 644 
1534 290 427 226 364 
1535 631 667 482 671 
1536 62 584 593 655 
1537 634 638 632 673 
1538 61 408 15 671 
1539 255 37 537 256 
1540 549 107 110 660 
1541 537 616 215 601 
1542 347 344 485 652 
1543 602 261 323 643 
1544 61 15 667 671 
1545 650 656 633 661 
1546 402 666 454 669 
1547 632 655 659 678 
1548 217 631 646 656 
1549 353 178 182 127 
1550 299 157 54 592 
1551 619 51 516 668 
1552 347 485 565 652 
1553 465 645 278 666 
1554 258 259 357 658 
1555 62 655 593 659 
1556 637 638 634 683 
1557 147 682 47 683 
1558 217 131 184 646 
1559 489 270 501 681 
1560 411 489 193 644 
1561 441 178 182 417 
1562 408 653 104 671 
1563 35 180 662 678 
1564 609 394 463 675 
1565 120 13 14 653 
1566 630 639 628 674 
1567 279 672 529 680 
1568 128 651 416 670 
1569 428 364 226 643 
1570 441 377 350 682 
1571 217 185 622 646 
1572 630 639 646 668 
1573 615 650 108 656 
1574 426 520 288 667 
1575 73 165 509 541 
1576 552 633 636 675 
1577 491 278 636 666 
1578 182 124 129 119 
1579 629 630 639 659 
1580 47 651 634 683 
1581 409 644 528 672 
1582 10 653 13 676 
1583 548 429 493 654 
1584 419 288 520 667 
1585 491 450 406 636 
1586 634 641 640 683 
1587 557 549 188 641 
1588 607 102 205 336 
1589 143 654 49 665 
1590 544 114 42 635 
1591 17 600 133 664 
1592 48 530 643 669 
1593 557 16 549 641 
1594 184 49 584 655 
1595 184 185 217 646 
1596 601 255 537 282 
1597 628 643 630 674 
1598 214 656 622 679 
1599 313 112 640 660 
1600 24 583 134 638 
1601 467 673 649 674 
1602 336 335 198 645 
1603 253 651 620 670 
1604 178 353 182 417 
1605 313 635 112 660 
1606 491 636 546 669 
1607 35 147 637 682 
1608 513 630 571 647 
1609 253 350 651 670 
1610 106 588 283 676 
1611 463 633 552 675 
1612 482 667 631 668 
1613 630 647 520 665 
1614 473 211 284 680 
1615 491 666 636 669 
1616 637 658 648 682 
1617 220 377 441 682 
1618 61 612 44 664 
1619 61 44 653 664 
1620 615 214 650 656 
1621 281 9 340 676 
1622 558 629 540 638 
1623 620 651 128 670 
1624 553 502 195 672 
1625 634 648 637 658 
1626 313 463 322 660 
1627 452 511 597 674 
1628 629 628 639 674 
1629 414 635 60 660 
1630 101 336 202 645 
1631 202 101 607 336 
1632 652 661 240 663 
1633 437 661 457 676 
1634 636 666 628 669 
1635 319 633 645 666 
1636 632 659 638 678 
1637 386 24 678 683 
1638 35 637 147 678 
1639 180 146 35 662 
1640 640 641 313 660 
1641 15 349 248 667 
1642 545 625 590 459 
1643 8 636 278 645 
1644 414 287 640 660 
1645 482 554 490 671 
1646 534 310 487 674 
1647 132 125 178 127 
1648 242 454 666 669 
1649 278 450 491 636 
1650 185 18 639 659 
1651 643 652 628 668 
1652 374 468 545 459 
1653 378 622 615 656 
1654 134 188 18 679 
1655 582 300 104 671 
1656 252 525 529 680 
1657 622 639 18 679 
1658 456 506 443 387 
1659 239 569 105 461 
1660 583 557 638 683 
1661 571 630 452 674 
1662 528 250 499 644 
1663 632 654 637 662 
1664 193 211 489 411 
1665 37 256 380 675 
1666 633 639 628 656 
1667 122 342 212 644 
1668 287 60 16 660 
1669 630 628 639 668 
1670 158 262 513 509 
1671 638 649 629 659 
1672 510 648 658 682 
1673 348 147 47 683 
1674 301 544 122 644 
1675 178 353 132 127 
1676 515 674 492 677 
1677 24 659 678 683 
1678 44 183 120 664 
1679 630 629 649 659 
1680 259 354 415 658 
1681 10 13 340 676 
1682 131 646 217 664 
1683 61 667 653 671 
1684 454 401 438 666 
1685 557 134 641 679 
1686 634 632 648 673 
1687 144 35 220 682 
1688 236 372 75 592 
1689 313 641 463 660 
1690 211 411 284 672 
1691 511 452 643 674 
1692 350 421 253 651 
1693 46 554 218 667 
1694 402 652 666 669 
1695 202 336 198 645 
1696 266 215 126 121 
1697 180 148 146 662 
1698 584 654 180 678 
1699 600 120 183 664 
1700 557 134 638 641 
1701 10 9 103 603 
1702 284 113 38 672 
1703 144 651 47 682 
1704 147 386 678 683 
1705 242 666 438 669 
1706 554 482 667 671 
1707 60 635 107 660 
1708 629 639 630 674 
1709 180 654 148 662 
1710 62 24 185 659 
1711 47 682 651 683 
1712 468 625 545 459 
1713 636 645 633 666 
1714 323 500 45 668 
1715 97 187 208 680 
1716 12 13 653 676 
1717 113 124 343 119 
1718 350 421 651 682 
1719 557 641 638 683 
1720 637 678 638 683 
1721 24 134 18 659 
1722 515 546 487 677 
1723 628 633 629 639 
1724 349 554 46 667 
1725 40 91 457 199 
1726 628 652 643 669 
1727 113 119 343 672 
1728 580 649 571 674 
1729 248 664 61 667 
1730 11 615 470 650 
1731 590 518 431 533 
1732 629 636 628 674 
1733 622 646 639 656 
1734 569 105 461 342 
1735 489 635 193 644 
1736 491 546 492 669 
1737 403 279 109 284 
1738 408 104 300 671 
1739 12 340 13 676 
1740 467 629 455 674 
1741 226 364 427 643 
1742 61 653 408 671 
1743 271 88 581 463 
1744 279 529 338 680 
1745 612 248 260 664 
1746 568 573 632 648 
1747 120 405 44 653 
1748 15 248 61 667 
1749 637 662 654 678 
1750 467 455 673 674 
1751 490 240 482 671 
1752 612 61 248 664 
1753 54 36 299 617 
1754 475 259 415 658 
1755 128 416 123 670 
1756 14 405 120 653 
1757 148 143 538 654 
1758 583 147 348 683 
1759 475 521 259 658 
1760 521 357 259 658 
1761 192 113 124 343 
1762 552 633 629 636 
1763 547 349 46 667 
1764 594 271 618 463 
1765 284 411 113 672 
1766 120 378 653 664 
1767 278 645 636 666 
1768 280 551 462 669 
1769 515 643 492 674 
1770 557 641 188 679 
1771 419 520 251 667 
1772 653 664 631 667 
1773 305 328 604 635 
1774 620 128 123 670 
1775 630 649 629 674 
1776 629 633 463 657 
1777 544 342 122 644 
1778 183 612 138 664 
1779 506 387 502 644 
1780 553 252 529 672 
1781 482 323 306 668 
1782 185 24 18 659 
1783 537 645 256 675 
1784 270 656 650 661 
1785 345 652 240 663 
1786 44 120 653 664 
1787 414 640 635 660 
1788 35 662 220 682 
1789 631 656 653 661 
1790 13 283 405 653 
1791 148 538 324 654 
1792 482 500 323 668 
1793 458 357 521 658 
1794 551 65 115 216 
1795 628 636 633 666 
1796 253 620 123 670 
1797 122 301 644 670 
1798 511 643 515 674 
1799 13 10 14 405 
1800 287 16 640 660 
1801 469 632 649 673 
1802 472 389 525 680 
1803 115 551 280 669 
1804 476 285 491 669 
1805 639 646 631 656 
1806 191 461 383 249 
1807 592 157 610 511 
1808 423 141 547 667 
1809 651 682 634 683 
1810 411 211 489 672 
1811 82 395 1 93 
1812 270 108 656 676 
1813 632 638 637 678 
1814 98 385 99 642 
1815 11 470 471 650 
1816 323 643 306 668 
1817 129 125 192 124 
1818 20 358 142 137 
1819 638 641 634 683 
1820 580 571 452 674 
1821 622 656 639 679 
1822 214 18 188 679 
1823 315 306 505 643 
1824 120 217 378 664 
1825 260 141 288 667 
1826 629 633 628 636 
1827 607 101 8 102 
1828 510 658 577 682 
1829 438 401 393 666 
1830 584 593 655 678 
1831 637 654 632 678 
1832 239 206 569 461 
1833 173 517 320 673 
1834 452 571 513 630 
1835 592 304 75 511 
1836 650 656 214 679 
1837 490 190 562 661 
1838 261 306 323 643 
1839 183 44 120 405 
1840 240 490 661 671 
1841 502 644 387 672 
1842 656 661 270 676 
1843 407 644 241 670 
1844 520 576 541 647 
1845 593 659 655 678 
1846 321 312 4 274 
1847 7 100 277 270 
1848 270 489 642 681 
1849 608 551 216 669 
1850 281 7 277 270 
1851 349 667 15 671 
1852 377 421 350 682 
1853 515 487 674 677 
1854 463 629 552 633 
1855 485 652 345 663 
1856 248 260 664 667 
1857 419 612 260 664 
1858 583 638 24 683 
1859 577 658 651 682 
1860 430 464 662 682 
1861 547 141 260 667 
1862 62 646 655 659 
1863 35 662 637 678 
1864 187 67 473 680 
1865 654 655 632 678 
1866 558 503 629 638 
1867 629 649 638 673 
1868 134 18 659 679 
1869 631 664 646 667 
1870 132 353 352 127 
1871 597 580 452 674 
1872 7 281 340 676 
1873 442 51 619 520 
1874 312 397 4 274 
1875 639 646 185 659 
1876 77 328 305 635 
1877 469 648 632 673 
1878 109 338 466 680 
1879 138 612 512 664 
1880 123 416 301 670 
1881 124 125 192 127 
1882 368 626 69 367 
1883 394 581 88 463 
1884 180 386 593 678 
1885 99 211 489 193 
1886 259 258 354 658 
1887 501 603 281 90 
1888 349 547 248 667 
1889 279 213 529 672 
1890 253 241 350 670 
1891 534 487 578 674 
1892 260 248 547 667 
1893 562 240 490 661 
1894 97 208 466 680 
1895 314 606 437 661 
1896 490 439 190 671 
1897 147 637 682 683 
1898 629 639 633 679 
1899 403 279 284 672 
1900 502 529 213 672 
1901 107 193 99 642 
1902 60 107 16 660 
1903 593 584 180 678 
1904 313 640 346 641 
1905 653 667 631 671 
1906 24 638 659 683 
1907 542 73 58 509 
1908 143 358 20 351 
1909 120 600 17 664 
1910 129 192 113 124 
1911 131 351 49 665 
1912 319 633 445 645 
1913 403 284 38 672 
1914 498 526 527 645 
1915 563 467 532 674 
1916 523 507 570 673 
1917 24 638 134 659 
1918 117 15 408 671 
1919 537 256 37 675 
1920 78 437 457 676 
1921 321 332 274 246 
1922 143 548 49 351 
1923 429 655 654 665 
1924 42 342 569 177 
1925 169 295 478 318 
1926 123 301 122 670 
1927 276 604 328 635 
1928 493 627 538 654 
1929 632 655 649 659 
1930 455 425 503 629 
1931 634 682 637 683 
1932 490 118 439 671 
1933 654 655 49 665 
1934 222 146 137 324 
1935 629 633 657 679 
1936 288 426 227 520 
1937 349 554 667 671 
1938 549 16 107 660 
1939 632 638 649 673 
1940 470 650 214 657 
1941 476 491 492 669 
1942 610 304 592 511 
1943 408 44 283 653 
1944 17 131 217 664 
1945 443 206 569 239 
1946 628 666 652 669 
1947 549 110 470 657 
1948 337 37 380 675 
1949 510 518 586 648 
1950 548 493 538 654 
1951 552 609 463 675 
1952 489 672 211 680 
1953 241 253 453 670 
1954 432 595 452 513 
1955 515 511 228 643 
1956 419 664 260 667 
1957 217 120 17 664 
1958 108 11 7 270 
1959 342 635 569 644 
1960 654 662 180 678 
1961 253 407 241 453 
1962 147 678 637 683 
1963 370 235 560 532 
1964 42 342 544 569 
1965 334 90 85 676 
1966 377 422 220 417 
1967 630 655 647 665 
1968 396 303 440 663 
1969 463 346 629 641 
1970 639 656 633 679 
1971 292 370 436 176 
1972 580 496 571 649 
1973 554 482 218 667 
1974 579 463 633 657 
1975 16 641 640 660 
1976 453 407 241 670 
1977 211 67 98 681 
1978 188 549 470 657 
1979 463 641 629 657 
1980 89 393 401 666 
1981 419 512 612 664 
1982 161 32 159 170 
1983 117 408 300 671 
1984 333 389 472 680 
1985 115 65 551 669 
1986 100 7 11 270 
1987 646 655 630 665 
1988 558 540 634 638 
1989 632 649 638 659 
1990 115 474 65 669 
1991 35 637 662 682 
1992 584 655 654 678 
1993 183 44 612 664 
1994 190 606 562 661 
1995 552 463 346 629 
1996 231 480 365 514 
1997 147 583 386 683 
1998 108 7 12 676 
1999 563 674 532 677 
2000 544 569 342 635 
2001 191 388 177 96 
2002 188 470 214 657 
2003 349 15 117 671 
2004 604 305 87 390 
2005 134 638 641 679 
2006 10 13 283 405 
2007 276 328 207 635 
2008 260 288 419 667 
2009 281 269 501 90 
2010 349 117 554 671 
2011 551 65 216 669 
2012 437 270 661 676 
2013 140 20 22 351 
2014 463 313 346 641 
2015 328 635 77 642 
2016 537 636 645 675 
2017 631 661 653 671 
2018 338 529 3 680 
2019 396 201 303 663 
2020 340 12 7 676 
2021 548 654 143 665 
2022 571 647 630 649 
2023 464 377 422 662 
2024 496 632 469 648 
2025 455 629 638 673 
2026 544 42 569 635 
2027 396 440 400 663 
2028 277 501 187 281 
2029 342 461 569 177 
2030 187 208 9 103 
2031 405 283 44 653 
2032 549 641 16 660 
2033 486 464 422 662 
2034 181 626 69 368 
2035 123 453 253 670 
2036 228 492 515 643 
2037 159 317 161 170 
2038 571 568 194 632 
2039 18 639 659 679 
2040 377 662 464 682 
2041 629 657 641 679 
2042 108 11 270 650 
2043 324 654 627 662 
2044 425 674 563 677 
2045 51 423 218 667 
2046 184 646 131 665 
2047 633 484 661 663 
2048 490 190 661 671 
2049 453 123 122 670 
2050 257 240 562 663 
2051 358 538 148 143 
2052 411 387 489 644 
2053 51 218 482 667 
2054 599 458 521 658 
2055 333 472 399 680 
2056 267 159 317 161 
2057 107 635 193 642 
2058 515 487 310 674 
2059 335 526 198 645 
2060 270 108 650 656 
2061 630 649 655 659 
2062 319 645 498 666 
2063 167 171 74 263 
2064 134 659 638 679 
2065 383 177 461 191 
2066 322 579 80 660 
2067 549 110 657 660 
2068 106 334 588 676 
2069 616 546 406 636 
2070 540 640 634 641 
2071 403 473 38 284 
2072 595 452 508 566 
2073 502 213 528 672 
2074 447 68 151 431 
2075 664 665 646 667 
2076 411 489 387 672 
2077 319 484 633 666 
2078 387 195 502 672 
2079 419 512 664 665 
2080 552 346 540 629 
2081 568 632 496 648 
2082 436 235 560 370 
2083 256 645 5 675 
2084 638 678 659 683 
2085 627 654 381 662 
2086 269 85 90 676 
2087 240 661 562 663 
2088 388 177 461 383 
2089 437 449 314 661 
2090 251 665 419 667 
2091 97 501 187 680 
2092 229 173 56 494 
2093 616 601 282 111 
2094 412 346 313 640 
2095 88 271 594 463 
2096 540 634 638 641 
2097 419 665 664 667 
2098 328 397 207 312 
2099 540 638 629 641 
2100 463 579 322 660 
2101 58 542 509 371 
2102 388 312 4 321 
2103 383 388 177 191 
2104 650 214 657 679 
2105 396 200 201 663 
2106 198 526 41 645 
2107 609 552 636 675 
2108 548 538 143 654 
2109 75 236 592 511 
2110 548 143 49 665 
2111 529 525 3 680 
2112 188 641 549 657 
2113 451 541 165 647 
2114 345 240 257 663 
2115 633 656 650 679 
2116 245 293 231 365 
2117 518 510 555 648 
2118 184 49 655 665 
2119 646 664 131 665 
2120 639 629 659 679 
2121 385 107 99 642 
2122 562 331 257 663 
2123 389 3 525 680 
2124 463 641 579 660 
2125 633 484 663 666 
2126 548 429 654 665 
2127 630 646 639 659 
2128 183 120 14 405 
2129 405 283 10 106 
2130 205 202 607 336 
2131 154 59 531 677 
2132 571 632 194 647 
2133 322 189 80 579 
2134 187 473 208 680 
2135 630 655 646 659 
2136 277 270 100 681 
2137 387 635 489 644 
2138 245 237 550 511 
2139 532 53 34 677 
2140 605 74 28 264 
2141 538 358 25 143 
2142 142 20 22 140 
2143 409 528 213 672 
2144 422 220 477 662 
2145 153 510 68 151 
2146 20 548 143 351 
2147 184 655 646 665 
2148 426 442 619 520 
2149 569 387 443 635 
2150 291 262 64 522 
2151 592 299 157 511 
2152 3 196 389 525 
2153 131 49 184 665 
2154 95 607 102 205 
2155 477 486 422 662 
2156 380 94 37 337 
2157 102 8 278 273 
2158 19 356 222 137 
2159 187 67 680 681 
2160 537 609 636 675 
2161 579 641 657 660 
2162 182 124 353 127 
2163 367 626 69 160 
2164 102 205 336 273 
2165 278 116 491 450 
2166 383 206 461 329 
2167 308 57 30 370 
2168 153 68 510 586 
2169 214 188 657 679 
2170 568 496 573 648 
2171 518 431 570 590 
2172 522 64 291 621 
2173 538 627 324 654 
2174 353 352 477 178 
2175 58 73 165 509 
2176 117 300 118 671 
2177 496 469 296 648 
2178 88 594 326 463 
2179 192 125 129 113 
2180 320 173 494 56 
2181 319 526 498 645 
2182 90 97 399 501 
2183 187 277 67 681 
2184 117 118 554 671 
2185 478 295 254 318 
2186 100 98 277 681 
2187 496 296 243 648 
2188 206 448 443 329 
2189 457 437 314 606 
2190 572 430 577 682 
2191 546 491 406 636 
2192 540 629 346 641 
2193 380 256 5 675 
2194 154 155 362 677 
2195 90 97 501 603 
2196 154 362 59 677 
2197 600 120 14 183 
2198 480 245 365 511 
2199 638 659 629 679 
2200 550 304 290 511 
2201 647 649 632 655 
2202 436 175 235 370 
2203 504 577 510 658 
2204 108 270 7 676 
2205 503 425 575 629 
2206 98 211 489 99 
2207 399 501 97 680 
2208 155 34 53 677 
2209 269 84 90 85 
2210 630 649 647 655 
2211 66 247 275 83 
2212 571 632 647 649 
2213 403 343 279 672 
2214 201 200 391 663 
2215 202 101 92 607 
2216 370 597 309 532 
2217 208 473 466 680 
2218 236 299 592 511 
2219 243 570 648 673 
2220 638 629 641 679 
2221 227 426 619 520 
2222 103 187 208 97 
2223 449 661 484 663 
2224 463 579 641 657 
2225 337 66 395 675 
2226 343 213 279 672 
2227 380 5 6 675 
2228 307 429 548 665 
2229 215 126 135 266 
2230 419 251 512 665 
2231 373 436 382 292 
2232 452 36 508 566 
2233 99 193 489 642 
2234 573 169 233 366 
2235 6 5 645 675 
2236 80 579 642 660 
2237 173 320 494 673 
2238 455 629 503 638 
2239 548 49 351 665 
2240 461 388 383 329 
2241 318 533 317 254 
2242 193 635 489 642 
2243 533 159 590 585 
2244 641 657 188 679 
2245 572 421 377 682 
2246 207 276 397 328 
2247 579 633 650 657 
2248 521 424 599 658 
2249 55 309 370 176 
2250 589 614 221 135 
2251 380 275 94 675 
2252 213 119 409 672 
2253 395 66 83 675 
2254 361 426 619 227 
2255 633 650 657 679 
2256 27 53 156 532 
2257 83 66 247 675 
2258 173 517 56 320 
2259 566 452 36 294 
2260 549 657 641 660 
2261 295 169 573 366 
2262 380 6 275 675 
2263 597 578 487 674 
2264 599 447 446 658 
2265 451 165 316 647 
2266 294 375 617 435 
2267 569 489 387 635 
2268 487 534 578 543 
2269 570 431 518 648 
2270 78 270 437 676 
2271 292 55 370 176 
2272 274 4 321 204 
2273 107 635 642 660 
2274 94 275 66 675 
2275 555 573 496 648 
2276 511 299 157 452 
2277 507 648 570 673 
2278 447 510 648 658 
2279 216 115 551 608 
2280 467 455 523 673 
2281 538 25 548 143 
2282 590 243 570 625 
2283 604 305 390 328 
2284 461 206 569 329 
2285 506 443 448 456 
2286 247 6 41 675 
2287 478 590 496 459 
2288 247 275 6 675 
2289 236 237 245 511 
2290 380 94 337 675 
2291 569 635 328 642 
2292 455 638 503 673 
2293 78 85 269 676 
2294 395 394 609 675 
2295 540 346 640 641 
2296 390 87 604 328 
2297 355 634 540 640 
2298 370 436 175 292 
2299 349 117 46 554 
2300 6 645 41 675 
2301 194 316 483 647 
2302 489 501 525 681 
2303 156 53 34 532 
2304 501 399 472 680 
2305 94 66 337 675 
2306 489 635 569 642 
2307 456 506 387 502 
2308 480 231 561 514 
2309 231 480 245 365 
2310 590 478 496 518 
2311 554 118 490 671 
2312 489 98 99 642 
2313 518 555 496 648 
2314 494 580 597 674 
2315 178 477 422 220 
2316 83 247 1 539 
2317 371 69 626 160 
2318 524 494 379 308 
2319 501 277 187 681 
2320 343 119 213 672 
2321 447 424 510 658 
2322 422 353 477 178 
2323 37 255 94 380 
2324 625 32 468 545 
2325 607 95 519 205 
2326 277 98 67 681 
2327 195 553 327 502 
2328 177 461 569 388 
2329 201 391 449 663 
2330 247 66 275 675 
2331 370 175 55 292 
2332 501 187 680 681 
2333 560 597 370 532 
2334 277 501 270 681 
2335 209 406 111 450 
2336 579 657 642 660 
2337 478 518 555 496 
2338 233 536 162 366 
2339 27 309 156 176 
2340 56 229 494 320 
2341 443 569 206 329 
2342 328 207 569 312 
2343 510 424 153 586 
2344 151 510 68 447 
2345 480 365 515 511 
2346 579 650 642 657 
2347 78 269 270 676 
2348 140 548 20 351 
2349 447 599 424 658 
2350 73 58 165 479 
2351 254 518 555 478 
2352 617 36 299 452 
2353 74 302 171 167 
2354 298 626 368 367 
2355 626 298 371 160 
2356 391 331 460 449 
2357 604 412 313 112 
2358 390 305 77 328 
2359 237 550 293 245 
2360 253 620 453 123 
2361 254 555 295 478 
2362 590 570 518 496 
2363 20 142 548 140 
2364 375 617 299 452 
2365 237 236 75 511 
2366 233 162 574 366 
2367 222 356 19 136 
2368 131 307 351 665 
2369 580 494 320 673 
2370 560 597 436 370 
2371 59 613 149 223 
2372 1 395 539 675 
2373 298 626 367 160 
2374 536 233 169 366 
2375 489 98 642 681 
2376 388 461 569 329 
2377 203 399 333 472 
2378 211 98 489 681 
2379 496 590 570 459 
2380 387 195 327 502 
2381 574 162 233 311 
2382 362 59 613 149 
2383 395 83 539 675 
2384 515 365 480 514 
2385 331 449 391 663 
2386 87 305 77 390 
2387 43 453 123 122 
2388 487 578 597 543 
2389 355 558 540 634 
2390 387 327 456 502 
2391 570 518 496 648 
2392 83 247 539 675 
2393 626 298 542 371 
2394 489 525 680 681 
2395 367 368 298 158 
2396 264 28 605 311 
2397 589 413 575 636 
2398 298 367 158 160 
2399 543 578 597 376 
2400 446 634 558 658 
2401 121 266 215 341 
2402 247 41 539 675 
2403 474 115 65 216 
2404 431 507 447 648 
2405 488 316 164 483 
2406 395 609 337 675 
2407 172 71 234 265 
2408 496 243 570 648 
2409 512 251 307 665 
2410 524 229 186 559 
2411 522 291 262 621 
2412 298 626 181 368 
2413 548 142 25 140 
2414 201 449 484 663 
2415 558 219 50 658 
2416 264 74 28 171 
2417 589 614 135 126 
2418 558 50 359 658 
2419 558 359 446 658 
2420 431 570 507 648 
2421 366 573 295 555 
2422 531 425 563 677 
2423 578 534 238 232 
2424 229 186 166 524 
2425 80 189 322 79 
2426 165 58 31 479 
2427 495 308 494 524 
2428 252 195 553 327 
2429 327 456 443 387 
2430 196 252 195 525 
2431 489 387 525 501 
2432 199 91 439 190 
2433 452 265 432 513 
2434 245 480 236 511 
2435 505 315 52 508 
2436 497 298 513 73 
2437 218 423 51 442 
2438 452 265 234 432 
2439 542 58 626 371 
2440 291 426 621 361 
2441 28 264 162 311 
2442 68 63 151 431 
2443 424 533 586 510 
2444 533 586 510 518 
2445 169 233 478 496 
2446 469 459 496 296 
2447 495 230 433 168 
2448 559 56 517 320 
2449 310 534 487 543 
2450 238 534 611 232 
2451 235 175 57 370 
2452 436 578 376 597 
2453 382 376 436 373 
2454 589 362 53 546 
2455 614 135 126 266 
2456 82 66 83 395 
2457 527 198 335 526 
2458 325 450 116 278 
2459 116 406 491 450 
2460 88 594 271 81 
2461 604 305 397 87 
2462 594 328 80 579 
2463 572 573 577 430 
2464 424 153 586 598 
2465 77 197 305 87 
2466 387 329 388 569 
2467 387 329 569 443 
2468 194 233 74 568 
2469 595 505 508 315 
2470 480 299 236 511 
2471 558 503 575 629 
2472 579 270 489 642 
2473 489 569 579 642 
2474 579 569 328 642 
2475 579 484 270 650 
2476 493 654 429 655 
2477 194 647 632 655 
2478 493 632 654 655 
2479 316 429 307 665 
2480 316 655 429 665 
2481 316 307 451 665 
2482 553 529 502 672 
2483 503 446 447 673 
2484 494 570 495 673 
2485 494 523 570 673 
2486 155 156 53 34 
2487 155 53 156 27 
2488 644 105 569 342 
2489 644 569 105 239 
2490 423 46 667 547 
2491 667 46 423 218 
2492 399 466 680 97 
2493 559 56 229 186 
2494 229 56 559 320 
2495 110 470 650 471 
2496 650 470 110 657 
2497 450 209 636 278 
2498 450 636 209 406 
2499 473 466 403 208 
2500 216 530 476 65 
2501 476 669 216 65 
2502 655 535 632 194 
2503 655 632 535 493 
2504 568 632 535 194 
2505 568 535 632 493 
2506 112 635 276 404 
2507 276 635 112 604 
2508 372 236 54 592 
2509 299 54 236 592 
2510 274 87 312 397 
2511 274 312 87 332 
2512 328 312 87 397 
2513 602 347 643 344 
2514 602 643 347 669 
2515 652 643 347 344 
2516 652 347 643 669 
2517 634 673 658 446 
2518 634 658 673 648 
2519 447 658 673 446 
2520 447 673 658 648 
2521 126 589 149 152 
2522 126 149 589 614 
2523 629 540 575 558 
2524 445 484 633 319 
2525 606 460 457 199 
2526 606 457 460 314 
2527 441 651 682 350 
2528 682 651 441 144 
2529 404 114 635 42 
2530 404 635 114 640 
2531 273 336 645 335 
2532 273 645 336 102 
2533 91 86 676 624 
2534 91 457 676 40 
2535 671 240 668 631 
2536 306 668 315 516 
2537 306 315 668 643 
2538 596 315 668 516 
2539 596 668 315 643 
2540 640 414 47 287 
2541 511 643 157 610 
2542 157 315 508 52 
2543 537 256 636 282 
2544 537 636 256 645 
2545 101 636 256 282 
2546 101 256 636 645 
2547 90 676 281 269 
2548 75 550 511 304 
2549 75 511 550 237 
2550 536 295 366 169 
2551 366 295 536 162 
2552 64 227 522 576 
2553 535 194 74 568 
2554 653 283 10 13 
2555 121 215 589 616 
2556 121 589 215 126 
2557 662 486 568 381 
2558 283 653 588 104 
2559 283 588 653 676 
2560 624 588 653 104 
2561 624 653 588 676 
2562 509 576 522 513 
2563 522 576 509 64 
2564 522 262 509 513 
2565 509 262 522 64 
2566 499 239 644 210 
2567 125 178 182 129 
2568 182 178 125 127 
2569 182 124 125 129 
2570 125 124 182 127 
2571 179 669 420 418 
2572 179 420 669 643 
2573 602 420 669 418 
2574 602 669 420 643 
2575 641 348 16 640 
2576 641 16 348 557 
2577 183 133 664 138 
2578 183 664 133 600 
2579 662 573 637 632 
2580 662 637 573 430 
2581 165 73 647 541 
2582 165 647 73 497 
2583 513 647 73 541 
2584 513 73 647 497 
2585 634 354 651 72 
2586 634 651 354 658 
2587 415 651 354 72 
2588 415 354 651 658 
2589 643 289 48 179 
2590 128 651 139 23 
2591 444 63 159 267 
2592 444 159 63 431 
2593 177 207 569 42 
2594 259 76 145 475 
2595 145 76 259 357 
2596 145 521 259 475 
2597 259 521 145 357 
2598 23 415 658 475 
2599 23 658 415 651 
2600 471 11 270 100 
2601 471 270 11 650 
2602 385 471 270 100 
2603 225 224 643 289 
2604 48 643 224 289 
2605 48 224 643 530 
2606 590 533 478 518 
2607 590 478 533 585 
2608 286 651 414 47 
2609 286 414 651 670 
2610 640 414 651 47 
2611 640 651 414 670 
2612 630 668 520 619 
2613 630 520 668 667 
2614 51 520 668 619 
2615 51 668 520 667 
2616 74 263 535 167 
2617 254 533 478 318 
2618 254 478 533 518 
2619 426 520 51 442 
2620 426 51 520 667 
2621 673 638 446 634 
2622 673 446 638 503 
2623 558 446 638 634 
2624 558 638 446 503 
2625 675 633 645 445 
2626 675 645 633 636 
2627 661 633 652 656 
2628 661 652 633 663 
2629 312 177 4 397 
2630 535 302 568 74 
2631 568 302 535 493 
2632 178 417 422 353 
2633 464 574 662 486 
2634 662 574 464 430 
2635 322 79 660 80 
2636 12 120 653 13 
2637 653 120 12 378 
2638 676 603 281 9 
2639 676 281 603 90 
2640 165 497 31 164 
2641 78 39 676 40 
2642 118 582 671 300 
2643 671 582 118 439 
2644 299 157 36 54 
2645 459 625 570 468 
2646 459 570 625 590 
2647 669 402 462 280 
2648 669 462 402 652 
2649 160 298 542 158 
2650 542 298 160 371 
2651 542 509 160 158 
2652 160 509 542 371 
2653 240 482 668 500 
2654 240 668 482 671 
2655 533 431 159 444 
2656 533 159 431 590 
2657 665 451 541 251 
2658 541 451 665 647 
2659 541 520 665 251 
2660 665 520 541 647 
2661 444 431 68 586 
2662 444 68 431 63 
2663 669 564 115 474 
2664 513 595 630 522 
2665 513 630 595 452 
2666 666 401 330 398 
2667 643 508 630 452 
2668 595 630 508 452 
2669 41 202 645 6 
2670 41 645 202 198 
2671 605 302 568 381 
2672 568 302 605 74 
2673 431 586 518 648 
2674 431 533 586 444 
2675 586 533 431 518 
2676 499 506 644 239 
2677 644 506 499 528 
2678 192 38 672 403 
2679 672 38 192 113 
2680 672 343 192 403 
2681 192 343 672 113 
2682 281 501 270 277 
2683 281 270 501 269 
2684 652 666 330 398 
2685 652 663 268 591 
2686 230 296 673 243 
2687 648 673 296 243 
2688 648 296 673 469 
2689 220 417 178 441 
2690 178 417 220 422 
2691 130 112 640 412 
2692 640 112 130 410 
2693 324 146 538 148 
2694 324 538 146 137 
2695 358 538 146 148 
2696 358 146 538 137 
2697 495 243 673 570 
2698 673 243 495 230 
2699 230 163 296 243 
2700 230 296 163 434 
2701 220 137 222 146 
2702 220 222 137 19 
2703 375 617 236 299 
2704 375 236 617 174 
2705 54 236 617 299 
2706 492 677 669 546 
2707 492 669 677 674 
2708 636 669 677 546 
2709 636 677 669 674 
2710 652 565 663 485 
2711 652 663 565 440 
2712 400 663 565 485 
2713 400 565 663 440 
2714 611 567 514 310 
2715 611 514 567 561 
2716 445 675 463 618 
2717 463 675 445 633 
2718 463 594 445 618 
2719 458 599 481 360 
2720 458 481 599 521 
2721 658 475 139 23 
2722 580 673 469 649 
2723 645 335 465 273 
2724 318 533 170 317 
2725 159 533 170 585 
2726 159 170 533 317 
2727 621 619 426 442 
2728 621 426 619 361 
2729 283 676 10 106 
2730 10 676 283 653 
2731 374 296 163 459 
2732 163 296 374 434 
2733 29 384 535 488 
2734 535 384 29 263 
2735 535 167 29 488 
2736 29 167 535 263 
2737 673 674 629 649 
2738 629 674 673 455 
2739 578 674 511 567 
2740 511 674 578 597 
2741 643 364 225 428 
2742 224 225 364 428 
2743 538 137 25 358 
2744 538 25 137 356 
2745 142 25 137 358 
2746 142 137 25 356 
2747 511 304 643 610 
2748 226 643 304 610 
2749 644 506 443 239 
2750 443 569 644 239 
2751 644 569 443 635 
2752 675 395 93 1 
2753 93 395 675 394 
2754 291 262 160 64 
2755 291 160 262 367 
2756 158 262 160 367 
2757 621 361 64 291 
2758 177 4 569 312 
2759 388 569 4 312 
2760 76 458 481 360 
2761 658 458 359 599 
2762 658 359 458 357 
2763 650 661 484 270 
2764 484 661 650 633 
2765 525 252 3 196 
2766 525 3 252 529 
2767 281 187 97 501 
2768 97 603 281 501 
2769 669 242 325 438 
2770 564 325 242 438 
2771 658 219 258 354 
2772 658 258 219 50 
2773 635 207 569 328 
2774 635 569 207 42 
2775 578 238 674 567 
2776 674 238 578 534 
2777 603 334 676 90 
2778 676 334 603 106 
2779 443 206 506 448 
2780 506 206 443 239 
2781 164 165 647 316 
2782 647 165 164 497 
2783 647 483 164 316 
2784 164 483 647 497 
2785 320 297 673 517 
2786 588 85 676 334 
2787 676 603 10 106 
2788 597 532 27 309 
2789 220 377 662 422 
2790 220 662 377 682 
2791 590 159 545 585 
2792 170 159 545 32 
2793 170 545 159 585 
2794 418 462 669 347 
2795 418 669 462 551 
2796 483 73 31 479 
2797 483 31 73 497 
2798 165 31 73 479 
2799 165 73 31 497 
2800 270 281 676 269 
2801 270 676 281 7 
2802 6 92 101 5 
2803 101 92 6 202 
2804 101 645 6 5 
2805 6 645 101 202 
2806 17 22 131 133 
2807 17 131 22 351 
2808 361 64 522 621 
2809 522 64 361 227 
2810 522 619 361 621 
2811 361 619 522 227 
2812 115 242 669 280 
2813 669 242 115 564 
2814 573 295 496 169 
2815 573 496 295 555 
2816 478 496 295 169 
2817 478 295 496 555 
2818 158 298 265 368 
2819 181 298 265 172 
2820 181 265 298 368 
2821 677 53 546 487 
2822 579 445 463 594 
2823 579 463 445 633 
2824 264 162 233 536 
2825 264 233 162 311 
2826 312 207 177 397 
2827 312 177 207 569 
2828 68 431 648 586 
2829 648 431 68 447 
2830 648 510 68 586 
2831 68 510 648 447 
2832 157 452 36 508 
2833 36 452 157 299 
2834 548 142 143 25 
2835 548 143 142 20 
2836 358 143 142 25 
2837 358 142 143 20 
2838 495 517 168 433 
2839 253 244 651 421 
2840 253 651 244 620 
2841 48 216 669 608 
2842 290 511 245 550 
2843 245 511 290 365 
2844 245 293 290 550 
2845 290 293 245 365 
2846 138 131 22 133 
2847 452 157 643 508 
2848 452 643 157 511 
2849 164 483 384 488 
2850 384 483 164 31 
2851 384 29 164 488 
2852 164 29 384 31 
2853 204 96 321 191 
2854 204 321 96 4 
2855 388 321 96 191 
2856 388 96 321 4 
2857 202 519 607 92 
2858 202 607 519 205 
2859 139 475 145 23 
2860 163 570 625 468 
2861 625 570 163 243 
2862 374 459 570 468 
2863 163 374 570 468 
2864 333 3 680 338 
2865 333 680 3 389 
2866 677 154 34 531 
2867 677 34 154 155 
2868 483 488 194 384 
2869 483 194 488 316 
2870 535 194 488 384 
2871 535 488 194 316 
2872 674 494 532 597 
2873 674 532 494 467 
2874 537 616 636 413 
2875 636 616 537 282 
2876 620 139 651 244 
2877 651 139 620 128 
2878 210 43 644 499 
2879 210 644 43 212 
2880 308 560 494 379 
2881 580 560 494 597 
2882 674 494 649 467 
2883 674 649 494 580 
2884 673 649 494 467 
2885 673 494 649 580 
2886 344 345 652 45 
2887 652 345 344 485 
2888 636 677 629 575 
2889 636 629 677 674 
2890 425 629 677 575 
2891 425 677 629 674 
2892 395 1 83 82 
2893 395 83 1 539 
2894 423 426 51 442 
2895 501 525 680 472 
2896 501 680 525 681 
2897 669 530 216 48 
2898 163 459 570 374 
2899 617 294 452 375 
2900 452 294 617 36 
2901 578 376 534 232 
2902 578 534 376 543 
2903 382 534 376 232 
2904 382 376 534 543 
2905 43 250 644 499 
2906 189 80 594 81 
2907 594 80 189 579 
2908 663 666 591 652 
2909 591 666 663 484 
2910 680 525 195 252 
2911 195 672 680 252 
2912 26 52 643 363 
2913 26 643 52 505 
2914 524 379 186 166 
2915 524 186 379 559 
2916 397 604 328 276 
2917 328 604 397 87 
2918 27 292 436 176 
2919 365 228 511 290 
2920 365 511 228 515 
2921 153 510 447 424 
2922 447 510 153 151 
2923 220 222 178 477 
2924 220 178 222 19 
2925 352 178 222 477 
2926 135 215 589 126 
2927 589 215 135 413 
2928 601 215 255 341 
2929 601 255 215 537 
2930 37 255 215 341 
2931 37 215 255 537 
2932 575 589 223 221 
2933 613 575 223 221 
2934 311 233 605 264 
2935 311 605 233 568 
2936 74 605 233 264 
2937 74 233 605 568 
2938 658 21 219 354 
2939 400 200 663 257 
2940 400 663 200 396 
2941 307 351 548 140 
2942 307 548 351 665 
2943 636 589 616 546 
2944 636 616 589 413 
2945 681 211 680 489 
2946 681 680 211 67 
2947 658 504 651 139 
2948 658 651 504 577 
2949 244 651 504 139 
2950 244 504 651 577 
2951 582 671 91 439 
2952 625 159 545 590 
2953 625 545 159 32 
2954 663 268 201 303 
2955 292 543 436 382 
2956 292 436 543 487 
2957 597 543 436 487 
2958 331 200 663 391 
2959 331 663 200 257 
2960 151 447 150 153 
2961 151 150 447 599 
2962 55 373 175 33 
2963 55 175 373 292 
2964 436 175 373 33 
2965 436 373 175 292 
2966 28 302 74 605 
2967 74 302 28 171 
2968 355 219 658 21 
2969 658 219 355 558 
2970 658 634 355 21 
2971 355 634 658 558 
2972 537 337 675 37 
2973 537 675 337 609 
2974 390 312 87 328 
2975 87 312 390 332 
2976 540 412 640 346 
2977 645 527 666 465 
2978 645 666 527 498 
2979 272 666 527 465 
2980 272 527 666 498 
2981 486 605 568 381 
2982 486 568 605 311 
2983 674 563 629 425 
2984 674 629 563 467 
2985 455 629 563 425 
2986 455 563 629 467 
2987 177 397 96 4 
2988 177 96 397 207 
2989 276 96 397 4 
2990 276 397 96 207 
2991 222 538 137 356 
2992 222 137 538 324 
2993 203 399 269 84 
2994 90 399 269 501 
2995 90 269 399 84 
2996 399 338 680 466 
2997 680 338 399 333 
2998 140 512 22 138 
2999 22 512 131 138 
3000 131 512 664 138 
3001 666 498 484 272 
3002 666 484 498 319 
3003 591 498 484 319 
3004 89 465 666 272 
3005 89 666 465 393 
3006 330 89 666 623 
3007 330 666 89 401 
3008 402 242 669 454 
3009 669 242 402 280 
3010 257 485 663 400 
3011 257 663 485 345 
3012 643 602 668 323 
3013 643 668 602 344 
3014 45 668 602 323 
3015 45 602 668 344 
3016 669 65 564 474 
3017 285 564 65 474 
3018 643 304 427 226 
3019 290 427 304 226 
3020 363 289 643 26 
3021 363 643 289 225 
3022 261 505 643 26 
3023 643 505 261 306 
3024 610 363 643 52 
3025 610 643 363 226 
3026 617 372 236 54 
3027 617 236 372 174 
3028 566 432 452 294 
3029 452 432 566 595 
3030 166 524 308 30 
3031 308 524 166 379 
3032 308 57 166 30 
3033 166 57 308 379 
3034 432 435 294 369 
3035 298 73 158 513 
3036 298 158 73 542 
3037 509 158 73 513 
3038 509 73 158 542 
3039 158 522 513 262 
3040 141 426 51 423 
3041 51 667 141 423 
3042 194 497 647 483 
3043 647 497 194 571 
3044 627 302 654 493 
3045 627 654 302 381 
3046 632 654 568 493 
3047 654 302 568 493 
3048 654 568 302 381 
3049 477 381 662 627 
3050 477 662 381 486 
3051 384 74 535 194 
3052 384 535 74 263 
3053 366 430 233 573 
3054 366 233 430 574 
3055 430 577 555 573 
3056 555 648 430 573 
3057 244 572 682 421 
3058 682 572 244 577 
3059 682 651 244 421 
3060 244 651 682 577 
3061 317 444 159 267 
3062 317 159 444 533 
3063 496 233 573 169 
3064 496 573 233 568 
3065 469 320 673 580 
3066 469 673 320 297 
3067 53 292 436 27 
3068 436 292 53 487 
3069 53 436 597 27 
3070 597 436 53 487 
3071 53 597 532 27 
3072 235 379 308 57 
3073 308 379 235 560 
3074 235 532 308 560 
3075 532 531 677 34 
3076 677 531 532 563 
3077 135 575 589 413 
3078 135 589 575 221 
3079 537 552 636 609 
3080 537 636 552 413 
3081 539 618 675 445 
3082 675 618 539 1 
3083 521 510 658 504 
3084 521 658 510 424 
3085 377 430 682 464 
3086 377 682 430 572 
3087 453 670 644 407 
3088 644 250 453 407 
3089 453 250 644 43 
3090 455 447 673 503 
3091 455 673 447 507 
3092 329 321 383 2 
3093 329 383 321 388 
3094 383 321 249 2 
3095 274 246 204 321 
3096 274 204 246 392 
3097 643 427 669 530 
3098 643 669 427 492 
3099 478 170 533 585 
3100 478 533 170 318 
3101 449 270 661 437 
3102 449 661 270 484 
3103 387 525 680 489 
3104 680 525 387 195 
3105 680 672 387 489 
3106 387 672 680 195 
3107 524 433 494 495 
3108 524 494 433 229 
3109 173 433 494 229 
3110 146 222 662 324 
3111 627 662 222 324 
3112 627 222 662 477 
3113 234 299 375 587 
3114 234 375 299 452 
3115 294 375 432 452 
3116 432 234 375 587 
3117 432 375 234 452 
3118 540 413 629 575 
3119 540 629 413 552 
3120 636 629 413 575 
3121 636 413 629 552 
3122 269 472 399 203 
3123 399 472 269 501 
3124 579 484 633 445 
3125 633 484 579 650 
3126 655 316 194 647 
3127 655 194 316 535 
3128 665 316 647 451 
3129 665 647 316 655 
3130 589 362 575 152 
3131 189 88 594 326 
3132 189 594 88 81 
3133 39 91 676 40 
3134 39 676 91 86 
3135 603 97 187 103 
3136 187 97 603 281 
3137 187 9 603 103 
3138 603 9 187 281 
3139 651 286 350 441 
3140 651 350 286 670 
3141 504 145 475 521 
3142 475 145 504 139 
3143 475 658 504 521 
3144 504 658 475 139 
3145 652 631 240 661 
3146 240 631 652 668 
3147 326 594 579 463 
3148 579 594 326 189 
3149 579 322 326 463 
3150 326 322 579 189 
3151 481 424 599 521 
3152 101 8 636 209 
3153 101 636 8 645 
3154 50 357 658 258 
3155 658 357 50 359 
3156 509 262 160 158 
3157 509 160 262 64 
3158 581 463 675 618 
3159 675 463 581 394 
3160 675 1 581 618 
3161 149 589 575 152 
3162 575 589 149 223 
3163 149 613 575 223 
3164 412 355 640 130 
3165 412 640 355 540 
3166 132 136 178 19 
3167 132 178 136 352 
3168 222 178 136 19 
3169 222 136 178 352 
3170 674 511 480 515 
3171 480 511 674 567 
3172 310 674 514 515 
3173 514 674 310 567 
3174 514 561 674 567 
3175 561 480 674 567 
3176 265 513 298 158 
3177 435 375 432 294 
3178 432 375 435 587 
3179 298 265 452 513 
3180 362 149 575 152 
3181 575 149 362 613 
3182 249 321 246 2 
3183 246 321 249 204 
3184 246 392 249 2 
3185 249 392 246 204 
3186 524 229 320 494 
3187 320 229 524 559 
3188 514 480 674 561 
3189 514 674 480 515 
3190 425 59 531 613 
3191 425 531 59 677 
3192 575 362 425 613 
3193 575 425 362 677 
3194 362 59 425 613 
3195 362 425 59 677 
3196 223 614 589 149 
3197 223 589 614 221 
3198 546 362 636 589 
3199 546 636 362 677 
3200 575 636 362 589 
3201 575 362 636 677 
3202 591 663 201 484 
3203 201 663 591 268 
3204 201 449 591 484 
3205 432 158 513 265 
3206 513 158 432 522 
3207 666 623 484 591 
3208 666 484 623 272 
3209 498 484 623 591 
3210 498 623 484 272 
3211 234 298 265 452 
3212 234 265 298 172 
3213 642 650 110 657 
3214 110 660 642 657 
3215 680 466 284 473 
3216 680 284 466 109 
3217 403 284 466 473 
3218 403 466 284 109 
3219 71 435 432 369 
3220 432 265 71 369 
3221 71 265 432 234 
3222 647 227 576 522 
3223 647 576 227 520 
3224 630 619 647 522 
3225 630 647 619 520 
3226 619 227 647 522 
3227 619 647 227 520 
3228 140 351 512 307 
3229 140 512 351 22 
3230 131 512 351 307 
3231 131 351 512 22 
3232 91 671 653 457 
3233 653 676 91 457 
3234 91 676 653 624 
3235 190 199 671 439 
3236 190 671 199 661 
3237 457 199 671 661 
3238 157 52 643 315 
3239 643 52 157 610 
3240 315 508 643 157 
3241 362 677 53 546 
3242 362 53 677 155 
3243 616 413 215 589 
3244 616 215 413 537 
3245 660 635 79 197 
3246 77 79 635 197 
3247 80 660 635 79 
3248 635 660 80 642 
3249 635 77 80 79 
3250 80 77 635 642 
3251 270 385 681 642 
3252 270 681 385 100 
3253 98 681 385 642 
3254 98 385 681 100 
3255 110 471 642 385 
3256 110 642 471 650 
3257 270 642 471 385 
3258 270 471 642 650 
3259 636 209 282 101 
3260 527 645 335 465 
3261 527 335 645 526 
3262 305 322 660 313 
3263 85 676 86 588 
3264 676 39 85 86 
3265 85 39 676 78 
3266 197 660 322 79 
3267 197 322 660 305 
3268 595 630 643 508 
3269 643 630 595 596 
3270 643 315 595 508 
3271 595 315 643 596 
3272 433 494 673 173 
3273 673 494 433 495 
3274 673 517 433 173 
3275 433 517 673 495 
3276 652 440 303 663 
3277 303 440 652 398 
3278 303 268 652 663 
3279 330 652 303 268 
3280 330 303 652 398 
3281 676 9 10 603 
3282 10 9 676 340 
3283 570 163 496 459 
3284 570 496 163 243 
3285 296 496 163 459 
3286 296 163 496 243 
3287 591 268 666 623 
3288 591 666 268 652 
3289 330 666 268 623 
3290 330 268 666 652 
3291 530 364 643 427 
3292 110 107 642 660 
3293 110 642 107 385 
3294 443 644 387 506 
3295 387 644 443 635 
3296 606 661 457 437 
3297 199 661 606 190 
3298 199 606 661 457 
3299 177 4 388 569 
3300 388 4 177 96 
3301 481 76 357 458 
3302 357 76 481 145 
3303 357 521 481 458 
3304 481 521 357 145 
3305 564 325 669 242 
3306 669 325 564 285 
3307 611 534 567 310 
3308 611 567 534 238 
3309 674 567 534 310 
3310 674 534 567 238 
3311 321 191 249 204 
3312 581 93 675 394 
3313 675 93 581 1 
3314 364 224 643 225 
3315 643 224 364 530 
3316 560 494 532 308 
3317 560 532 494 597 
3318 560 494 320 580 
3319 308 370 235 57 
3320 308 235 370 532 
3321 436 27 309 597 
3322 309 27 436 176 
3323 309 370 436 597 
3324 436 370 309 176 
3325 481 360 150 598 
3326 481 150 360 599 
3327 447 150 424 599 
3328 424 481 150 598 
3329 424 150 481 599 
3330 673 296 297 469 
3331 673 296 556 297 
3332 556 296 673 230 
3333 671 91 199 457 
3334 671 199 91 439 
3335 582 104 653 671 
3336 653 104 582 624 
3337 653 91 582 671 
3338 582 91 653 624 
3339 543 436 376 597 
3340 543 376 436 382 
3341 153 150 424 447 
3342 153 424 150 598 
3343 591 391 201 268 
3344 201 391 591 449 
3345 673 556 517 297 
3346 230 168 673 556 
3347 230 673 168 495 
3348 517 673 168 556 
3349 517 168 673 495 
3350 645 319 539 445 
3351 645 675 539 41 
3352 539 675 645 445 
3353 526 645 539 41 
3354 526 539 645 319 
3355 131 512 665 664 
3356 665 512 131 307 
3357 606 661 331 562 
3358 663 661 331 449 
3359 663 331 661 562 
3360 460 314 661 606 
3361 661 314 460 449 
3362 661 331 460 606 
3363 460 331 661 449 
3364 65 285 669 564 
3365 669 285 65 476 
3366 290 427 643 304 
3367 643 427 290 228 
3368 643 511 290 304 
3369 290 511 643 228 
3370 587 71 432 234 
3371 587 432 71 435 
3372 141 426 667 51 
3373 141 667 426 288 
3374 654 568 662 632 
3375 654 662 568 381 
3376 662 430 233 574 
3377 662 486 311 568 
3378 311 486 662 574 
3379 233 662 311 568 
3380 311 662 233 574 
3381 662 573 233 430 
3382 233 573 662 568 
3383 577 555 682 430 
3384 577 682 555 510 
3385 648 682 555 430 
3386 648 555 682 510 
3387 677 53 674 532 
3388 677 674 53 487 
3389 597 674 53 532 
3390 597 53 674 487 
3391 111 616 636 282 
3392 636 616 111 406 
3393 636 209 111 282 
3394 111 209 636 406 
3395 644 453 122 670 
3396 122 453 644 43 
3397 383 321 191 249 
3398 191 321 383 388 
3399 669 476 427 492 
3400 530 669 476 427 
3401 530 476 669 216 
3402 524 559 494 320 
3403 524 494 559 379 
3404 560 494 559 320 
3405 560 559 494 379 
3406 222 662 220 146 
3407 222 220 662 477 
$EndElements
