$MeshFormat
4.1 0 8
$EndMeshFormat
$Entities
0 0 1 1
1 -0.05022799999999999 -0.0122 -0.026288 0.03330900000000001 0.07971200000000002 0.055495 0 0 
1 -0.05022799999999999 -0.0122 -0.026288 0.03330900000000001 0.07971200000000002 0.055495 0 1 1 
$EndEntities
$Nodes
2 677 1 677
2 1 0 627
1
2
3
4
5
6
7
8
9
10
11
12
13
14
15
16
17
18
19
20
21
22
23
24
25
26
27
28
29
30
31
32
33
34
35
36
37
38
39
40
41
42
43
44
45
46
47
48
49
50
51
52
53
54
55
56
57
58
59
60
61
62
63
64
65
66
67
68
69
70
71
72
73
74
75
76
77
78
79
80
81
82
83
84
85
86
87
88
89
90
91
92
93
94
95
96
97
98
99
100
101
102
103
104
105
106
107
108
109
110
111
112
113
114
115
116
117
118
119
120
121
122
123
124
125
126
127
128
129
130
131
132
133
134
135
136
137
138
139
140
141
142
143
144
145
146
147
148
149
150
151
152
153
154
155
156
157
158
159
160
161
162
163
164
165
166
167
168
169
170
171
172
173
174
175
176
177
178
179
180
181
182
183
184
185
186
187
188
189
190
191
192
193
194
195
196
197
198
199
200
201
202
203
204
205
206
207
208
209
210
211
212
213
214
215
216
217
218
219
220
221
222
223
224
225
226
227
228
229
230
231
232
233
234
235
236
237
238
239
240
241
242
243
244
245
246
247
248
249
250
251
252
253
254
255
256
257
258
259
260
261
262
263
264
265
266
267
268
269
270
271
272
273
274
275
276
277
278
279
280
281
282
283
284
285
286
287
288
289
290
291
292
293
294
295
296
297
298
299
300
301
302
303
304
305
306
307
308
309
310
311
312
313
314
315
316
317
318
319
320
321
322
323
324
325
326
327
328
329
330
331
332
333
334
335
336
337
338
339
340
341
342
343
344
345
346
347
348
349
350
351
352
353
354
355
356
357
358
359
360
361
362
363
364
365
366
367
368
369
370
371
372
373
374
375
376
377
378
379
380
381
382
383
384
385
386
387
388
389
390
391
392
393
394
395
396
397
398
399
400
401
402
403
404
405
406
407
408
409
410
411
412
413
414
415
416
417
418
419
420
421
422
423
424
425
426
427
428
429
430
431
432
433
434
435
436
437
438
439
440
441
442
443
444
445
446
447
448
449
450
451
452
453
454
455
456
457
458
459
460
461
462
463
464
465
466
467
468
469
470
471
472
473
474
475
476
477
478
479
480
481
482
483
484
485
486
487
488
489
490
491
492
493
494
495
496
497
498
499
500
501
502
503
504
505
506
507
508
509
510
511
512
513
514
515
516
517
518
519
520
521
522
523
524
525
526
527
528
529
530
531
532
533
534
535
536
537
538
539
540
541
542
543
544
545
546
547
548
549
550
551
552
553
554
555
556
557
558
559
560
561
562
563
564
565
566
567
568
569
570
571
572
573
574
575
576
577
578
579
580
581
582
583
584
585
586
587
588
589
590
591
592
593
594
595
596
597
598
599
600
601
602
603
604
605
606
607
608
609
610
611
612
613
614
615
616
617
618
619
620
621
622
623
624
625
626
627
0.015909 0.05763600000000001 -0.022155
0.020267 -0.004796 -0.024613
-0.020407 -0.002989 -0.01737500000000001
0.026117 -0.000247 -0.018472
0.007179 0.07242000000000001 -0.012914
0.007394 0.07017000000000001 -0.016589
-0.01846 0.018687 -0.010418
-0.003812 0.07443100000000001 -0.010521
-0.023958 0.01301 -0.008047
-0.028815 0.01581 -0.006872000000000001
-0.015308 0.020687 -0.009673000000000001
-0.022653 0.019969 -0.005542
-0.028179 0.016286 -0.002523
-0.02911 0.015685 0.0003370000000000001
-0.03933 0.02263 0.004203999999999999
-0.003305 0.014568 -0.003096
-0.026861 0.015318 0.006304
-0.011173 0.021931 0.004151
-0.017713 0.001414 0.007646
-0.024544 0.009370000000000002 0.010543
0.024654 0.008607999999999999 0.003464
-0.026723 0.010936 0.009419
0.015997 -0.008378 0.004759
-0.008706999999999999 0.01893 0.009025
-0.024129 0.006899000000000001 0.012248
-0.045282 0.06824600000000001 0.02133
0.017269 0.07840400000000002 0.03640599999999999
-0.012355 -0.005667 0.048196
-0.023349 0.011065 0.050866
0.024264 0.05932200000000001 0.04592399999999999
-0.026609 0.014292 0.05133500000000001
0.032549 -0.003973000000000001 0.045768
0.01982 0.075839 0.049498
0.02001 0.07543800000000001 0.03098
-0.006131 0.008041 0.011713
-0.046715 0.05903600000000001 0.04961600000000001
0.016769 0.07093300000000001 -0.009399000000000001
-0.015266 0.001375 -0.004076
-0.040626 0.020949 -0.016669
-0.041336 0.023731 -0.016946
0.005342 0.067098 -0.020191
0.01867 0.002809 -0.009766
0.007974000000000002 -0.009289000000000002 -0.004166
-0.032438 0.01698 0.003251
-0.04651300000000001 0.053435 0.005176
-0.046943 0.02698800000000001 0.007147000000000001
-0.002618 0.008526000000000001 0.005865
-0.038567 0.07840300000000001 0.014084
-0.018294 0.01637 0.011288
0.026736 0.004856 0.007177
-0.047636 0.028078 0.02009
-0.044716 0.06786400000000001 0.029998
0.015054 0.07871100000000002 0.03383300000000001
-0.042967 0.06472900000000001 0.05163200000000001
0.021367 0.076881 0.047344
0.025689 0.042588 0.047542
0.022902 0.061809 0.048162
-0.035534 0.019362 0.05231100000000001
0.01801 0.076807 0.0186
-0.003829 0.012019 -0.006516
-0.03674699999999999 0.020769 0.003826
-0.012553 0.018692 0.010158
0.031082 -0.007628 0.03248599999999999
-0.044775 0.020353 0.03983
-0.029887 0.07957500000000002 0.004213999999999999
0.017637 0.065141 -0.018027
-0.013953 0.008819 -0.010926
0.029615 -0.009037000000000002 0.02741
-0.04792399999999999 0.021975 0.053506
0.018549 0.002655 -0.001031
-0.047992 0.03965800000000001 0.05497200000000001
0.020629 0.004791 0.001417
-0.03176499999999999 0.022585 0.05367900000000001
-0.011665 -0.0007250000000000001 0.050964
-0.038001 0.07116300000000002 0.05101100000000001
0.026263 -0.007591 0.004696
0.022828 0.013229 -0.023538
-0.03549799999999999 0.020842 -0.018301
0.021724 0.025463 -0.022873
0.019696 0.027478 -0.023314
0.020192 0.03251100000000001 -0.022991
0.01793 0.05961900000000001 -0.020914
0.01683 0.06378 -0.020813
-0.029212 0.011411 -0.017608
-0.031504 0.014035 -0.017349
-0.042675 0.020721 -0.01372
0.025738 0.009318 -0.022163
0.020735 0.041356 -0.021289
-0.022448 0.06710000000000001 -0.016272
-0.029718 0.010979 -0.014695
-0.04463300000000001 0.023707 -0.013123
0.003631 0.07548400000000001 -0.014179
0.018804 0.05610900000000001 -0.020541
0.015862 0.06959800000000001 -0.013224
-0.001106 0.07784100000000001 -0.013472
0.024074 -0.002155 -0.016496
-0.02634 0.007246 -0.011332
-0.011478 0.012202 -0.012138
-0.008196 0.011471 -0.011164
-0.014288 0.016808 -0.012199
0.002314 0.07407200000000001 -0.010605
-0.003606 0.07453800000000001 -0.012082
-0.027782 0.011624 -0.009867000000000001
-0.042545 0.020435 -0.004941
0.011342 -0.006753 -0.01289
-0.032708 0.015969 -0.00891
-0.005023000000000001 0.014198 -0.008750999999999998
-0.01897500000000001 0.021397 -0.006676
-0.019115 -0.001611 -0.007435
-0.007224 0.018259 -0.00877
0.001284 0.07866400000000003 -0.006672
0.024316 0.009724 -0.010099
-0.012646 0.0009580000000000001 -0.001518
0.01682 0.002282 -0.0071
-0.03385000000000001 0.07759600000000003 0.0004310000000000001
-0.011952 0.07933300000000001 -0.004086
-0.045311 0.026267 0.002874
-0.04628699999999999 0.028151 -0.000105
-0.008057999999999999 -0.006036 -0.001597
-0.02778 0.016757 0.002185
0.013437 0.07971200000000002 -0.003943
0.010368 -0.007237 -0.004159
0.010969 -0.007956000000000001 -0.000446
-0.011194 -0.004798 -0.0003310000000000001
-0.013254 -2.4e-05 0.002543
0.015228 0.07925800000000001 0.001479
-0.013865 -0.002608 0.001819
0.012679 -0.008092999999999999 0.002104
-0.011253 0.001235 0.002606
0.024696 0.010692 0.0003730000000000001
-0.022895 0.018469 0.008874000000000002
-0.014901 -0.00113 0.003981
-0.029202 0.013445 0.007916000000000001
-0.007127000000000001 0.018635 0.005257
0.018334 0.075839 0.003526
-0.018439 -0.001218 0.007445
-0.018591 0.003397 0.008984000000000001
-0.029539 0.013718 0.008459
0.015937 -0.009923 0.006652
-0.027077 0.010578 0.011067
-0.044734 0.021113 0.013045
-0.025727 0.008567999999999999 0.011341
-0.017768 0.011425 0.011914
-0.00471 0.006238 0.008779
0.024449 -0.009636000000000002 0.005886000000000001
-0.012128 0.005648 0.012003
-0.004236999999999999 0.011962 0.009509000000000002
-0.012818 0.007265 0.012809
0.016502 0.07810800000000001 0.013792
0.028578 -0.007418 0.013748
0.029897 -0.006662 0.021761
0.013976 0.07907200000000002 0.012728
0.028871 -0.008425999999999999 0.018639
0.018343 0.07734100000000001 0.024874
0.017027 0.07827600000000003 0.026627
0.019852 0.076879 0.036238
-0.042848 0.067831 0.045617
-0.050228 0.025974 0.048401
0.03330900000000001 -0.006757 0.04185200000000001
-0.046537 0.020007 0.050027
0.032478 -0.008562999999999999 0.044114
-0.002293 -0.01037 0.047432
0.031751 0.00762 0.04448399999999999
-0.02757 0.013605 0.049541
-0.032468 0.016644 0.049655
0.024998 0.05261900000000001 0.046891
-0.01948800000000001 0.004289 0.049089
0.028604 0.025216 0.04643
0.004932 -0.009363 0.048977
0.030259 -0.008291 0.046645
-0.014388 -0.002437 0.049715
-0.047254 0.031733 0.055075
0.026751 0.037531 0.046758
-0.03961100000000001 0.06638799999999999 0.054498
0.021835 0.07346800000000001 0.048176
0.020123 0.07770300000000002 0.042534
0.016929 -0.003253 -0.013684
-0.012495 0.001128 0.005903
-0.04063000000000001 0.07643500000000002 0.013336
-0.009662 0.010096 0.013407
-0.048174 0.026187 0.054565
-0.008739 -0.005979 0.001157
-0.030719 0.015277 0.005038
-0.017111 0.018682 0.009956000000000001
-0.01415 0.021411 0.007226
0.024359 0.048473 0.048079
-0.020053 0.009314000000000001 -0.009055000000000001
-0.006686 0.02007 -0.001683
0.022419 0.03003 -0.021528
-0.045867 0.03385200000000001 -0.011473
0.022357 -0.004171 -0.017308
-0.013903 -0.000993 -0.001537
-0.005613 0.009080000000000001 -0.008472
-0.016205 0.011972 0.052005
-0.009067 -0.005463000000000001 -0.021352
-0.017832 -0.003442 -0.019687
0.02381 0.01891 -0.021967
-0.001504 0.07011000000000001 -0.019027
-0.043524 0.02967 -0.015101
-0.04316 0.049925 -0.015549
-0.039532 0.05452700000000001 -0.016208
0.002486 0.07340000000000001 -0.016304
-0.026842 0.007543999999999999 -0.017911
0.02564 -0.003399 -0.021143
-0.0009130000000000001 0.07537600000000001 -0.014913
0.010086 -0.008030000000000001 -0.020462
0.021881 0.004282 -0.011293
-0.021676 0.006083000000000001 -0.008546000000000002
-0.001461 0.075588 -0.009099000000000001
0.006227 -0.008704 -0.010829
-0.009934000000000002 0.00735 -0.009929
0.009503000000000001 -0.007129000000000001 -0.008543
-0.008454999999999999 -0.008784999999999999 -0.006929
-0.01036 0.022182 -0.002889
0.017839 0.07640300000000001 -0.002679
-0.034764 0.07860900000000001 0.006594
-0.021293 0.020996 0.005503
-0.047867 0.027144 0.012225
0.025892 0.005955999999999999 0.005874
-0.010172 0.002918 0.009680000000000001
0.01827 0.07509200000000002 0.008406
-0.018444 -0.003368 0.010809
0.017784 0.07662100000000002 0.013526
-0.039799 0.07801100000000001 0.019197
-0.041141 0.07368600000000002 0.024261
-0.036519 0.077477 0.029814
-0.04367500000000001 0.02033 0.028519
-0.028691 0.07878000000000002 0.039814
0.025919 0.047918 0.045734
0.029628 0.022949 0.044523
-0.024995 0.07772900000000002 0.05303100000000001
0.003174 0.07692000000000002 0.050782
-0.0006560000000000001 -0.005713 0.050062
-0.04524599999999999 0.038979 0.055495
0.020939 0.06598899999999999 0.049239
-0.036748 0.06739000000000001 0.055072
-0.032885 0.07354000000000001 0.05350300000000001
-0.002711 0.07577100000000002 0.051934
0.005549999999999999 -0.00805 -0.017334
-0.046549 0.04698599999999999 -0.000476
-0.000105 -0.006866000000000001 0.000238
-0.02618 0.07482000000000001 -0.005852
0.03160200000000001 0.00893 0.041895
0.010347 -0.011103 0.007683000000000001
-0.028327 0.07421500000000002 0.054427
0.026524 -0.001024 -0.025816
0.013099 0.06568600000000001 -0.021561
-0.036579 0.018924 0.007909000000000001
0.021993 -0.005357 -0.020774
0.001919 -0.010769 -0.006697
-0.033536 0.01625 0.022116
-0.014595 -0.005754 -0.019645
0.006326 -0.009127999999999999 0.001883
0.018153 -0.011045 0.045874
0.014191 0.07347600000000001 -0.009568
0.009131 0.07267400000000002 -0.011353
-0.045219 0.049072 -0.011543
0.024802 0.001317 0.004874
0.020984 -0.0009570000000000001 0.003361
-0.037289 0.018327 0.010641
-0.046706 0.064471 0.017178
-0.049414 0.026047 0.04113900000000001
-0.018761 0.006273 0.050977
-0.009279000000000003 -0.005659 0.049695
-0.049922 0.03224399999999999 0.05255000000000001
0.016736 0.07861500000000002 -0.001121
0.031715 -0.009668 0.04048399999999999
-0.033756 0.05884200000000001 -0.017181
-0.027782 0.01604 -0.019132
-0.021737 0.026309 -0.019338
0.018276 0.045109 -0.022554
-0.017123 0.067431 -0.017734
-0.005671 0.07264300000000001 -0.015228
0.027189 0.002199 -0.022882
0.015089 0.06740400000000001 -0.019924
0.024095 0.007202 -0.012856
-0.016083 0.014377 -0.012023
-0.007669 0.07489800000000001 -0.008677000000000001
-0.016657 -0.004592000000000001 -0.008437
-0.034798 0.07119600000000002 -0.00295
-0.019175 0.015777 -0.010584
0.008090999999999999 0.07474900000000001 -0.009591000000000001
-0.03423200000000001 0.017051 -0.001948
-0.014884 0.002977 -0.00538
-0.021648 0.07944600000000002 -0.001815
-0.00547 0.004324 0.0005920000000000001
-0.002965 0.011305 -0.001544
-0.044013 0.020578 0.017167
-0.04076 0.07712300000000002 0.017148
-0.03151200000000001 0.07811800000000001 0.046034
-0.047848 0.022168 0.038803
0.018525 0.07850000000000001 0.045754
-0.028059 0.07746700000000001 0.053085
-0.04837200000000001 0.05276 0.05133800000000001
0.006336 -0.011374 0.04731900000000001
0.028141 0.013757 0.047427
0.02596500000000001 0.023317 0.04799
-0.044993 0.025571 0.055161
-0.03858 0.06157 0.055461
-0.044696 0.025218 0.0005600000000000001
0.013495 -0.001114 -0.00365
-0.016406 -0.00213 0.046848
-0.038283 0.05812900000000001 -0.014604
-0.035571 0.075854 0.0446
0.025057 0.013767 -0.018725
-0.047067 0.060289 0.023785
-0.0299 0.012988 0.012509
0.024225 0.058904 0.04271200000000001
0.021483 0.07555100000000001 0.04062200000000001
-0.011988 0.07857200000000002 0.04828399999999999
-0.006415 -0.009295000000000001 0.04514
0.022723 0.005659 -0.025493
0.024577 0.018546 -0.011135
-0.041589 0.038575 -0.01699
-0.047146 0.059868 0.02913
-0.026155 0.011921 0.04581900000000001
0.029863 -0.010455 0.044666
0.019201 -0.009510000000000001 0.047281
-0.014134 0.06417 -0.01928
0.020893 0.039564 0.049068
0.024063 -0.0008600000000000001 -0.026288
0.02336 0.026524 -0.020356
-0.04728 0.059374 0.01479
-0.019994 -0.00078 0.016618
-0.015564 0.07831300000000001 -0.005796
0.021817 0.037874 -0.018716
-0.005637 -0.008364 -0.020865
0.019811 0.009592000000000002 -0.025072
0.014321 -0.004653999999999999 -0.024408
-0.031794 0.062428 -0.015947
-0.044759 0.044515 -0.014821
0.025746 0.008378 -0.024251
-0.024175 0.001764 -0.017166
-0.03344 0.014317 -0.014558
-0.004017 0.07169000000000002 -0.017242
-0.001012 0.07358200000000001 -0.016225
0.017614 0.06736600000000001 -0.011388
-0.020761 -0.002499 -0.012657
-0.039821 0.06456300000000001 -0.006225
-0.025015 0.015885 -0.006656
0.015314 0.07774800000000001 -0.006480000000000001
0.012982 -0.00394 -0.010834
-0.012602 -0.004427 -0.003046
-0.045439 0.059124 0.004012
-0.045927 0.053124 -0.00284
0.025421 0.019284 -0.002205
-0.04350900000000001 0.063454 0.002772
-0.003599 0.012271 0.004481000000000001
-0.04426599999999999 0.024904 0.00539
-0.0006200000000000001 -0.007096 0.003219
-0.02503 0.012486 0.009560000000000001
-0.017543 -0.00367 0.008180999999999999
-0.012835 -0.006602 0.006431
0.022138 0.004307 0.003563
0.026301 0.012609 0.004156
-0.020693 0.001743 0.010178
0.026158 -0.003 0.004715
-0.02034 0.006743000000000001 0.009960999999999999
0.02767 0.0038 0.009892000000000001
0.028207 -0.007466 0.008496999999999999
-0.04526499999999999 0.021112 0.027898
0.015898 0.07869200000000003 0.018582
-0.042996 0.07094500000000001 0.025553
-0.03441900000000001 0.07878900000000001 0.025666
-0.027182 0.07873700000000002 0.048707
0.003675 -0.012198 0.044634
-0.04954 0.022379 0.049005
-0.049743 0.025963 0.05264100000000001
-0.04901800000000001 0.04443 0.05381200000000001
0.022747 0.07246900000000001 0.045748
-0.044367 0.020348 0.052416
-0.03974 0.06784999999999999 0.053565
0.017522 0.077359 0.04910800000000001
0.031093 0.005395 0.046243
-0.04373900000000001 0.058214 0.05485800000000001
0.007397 0.07567800000000001 0.050942
-0.004807000000000001 -0.010345 0.011943
-0.020286 0.021488 0.000617
0.022673 0.056093 0.04867200000000001
0.013041 0.07110400000000001 -0.01276
-0.016139 -0.003594 0.035977
0.011075 0.07788100000000001 0.048869
0.016286 -0.006479 -0.021473
-0.020102 0.011213 0.05191800000000001
-0.008005 0.016277 -0.010751
-0.006923 0.013524 0.011039
-0.003309 -0.003647 -0.022058
0.016836 -0.001827 -0.025108
-0.021904 0.000468 -0.018909
0.022528 0.008969 -0.023831
-0.042346 0.046626 -0.016774
0.026223 -0.002808 -0.024539
-0.017417 0.07093100000000001 -0.013015
0.019577 0.05409800000000001 -0.018511
0.018643 0.060999 -0.018196
-0.04203800000000001 0.05412000000000001 -0.014233
0.025956 0.005129000000000001 -0.019613
-0.03348599999999999 0.06431799999999999 -0.011909
-0.027294 0.006948 -0.014933
-0.043825 0.05403600000000001 -0.010703
-0.024298 0.06912000000000001 -0.013268
-0.034881 0.06805699999999999 -0.007553999999999999
-0.015738 -0.0008990000000000001 -0.004408
0.023132 0.007543 -0.009952000000000001
-0.03065 0.015894 0.000211
-0.00189 0.07906800000000001 -0.002782
0.002764 -0.009454000000000001 -0.003094
-0.038295 0.021722 0.002015
-0.005202 -0.009481 -0.005914999999999999
0.022118 0.006733 -0.004149000000000001
-0.00735 0.005932 -0.007226
0.025106 0.014688 -0.007287
0.019057 0.06826000000000002 0.001661
-0.003508 0.008552000000000001 -0.003216
0.017657 -0.001335 0.001589
0.014394 -0.001939 -0.000639
-0.008281 -0.008477 0.006947
-0.044197 0.06792100000000001 0.009835000000000002
-0.036992 0.017876 0.012761
-0.045913 0.067374 0.01577
0.004517 -0.010788 0.008579000000000002
-0.011273 -0.007816999999999999 0.010232
-0.04674499999999999 0.023264 0.013326
0.02459 -0.010574 0.016677
0.01918 0.06777300000000001 0.016434
-0.046359 0.022644 0.021842
-0.031854 0.07924000000000002 0.023324
-0.036872 0.07757900000000001 0.026447
-0.025387 0.010024 0.032
-0.0009820000000000002 -0.011438 0.026908
0.0311 -0.00362 0.031337
-0.04975300000000001 0.045278 0.05066300000000001
0.028081 0.032828 0.045322
0.030425 0.011591 0.046166
-0.046705 0.052409 0.054406
0.016683 0.07419400000000002 0.050394
-0.037128 0.031433 -0.017732
-0.020529 0.07416400000000002 -0.009001
-0.046115 0.025786 -0.008779
-0.040647 0.059348 -0.009529000000000001
-0.00747 0.002624 0.006421
-0.047259 0.024652 0.021942
0.006019 -0.006973999999999999 -0.022535
0.028761 -0.010709 0.034998
0.004749000000000001 0.056829 -0.021173
0.026832 0.011458 0.01428
0.029982 -0.003373 0.022137
0.008014 -0.006701 -0.022594
-0.039874 0.043237 -0.017296
-0.00573 0.07824000000000002 -0.005377
-0.029745 0.014323 0.036732
-0.035452 0.05184 0.05465500000000001
0.00764 -0.009082000000000002 -0.001147
-0.027036 0.07110400000000001 -0.010217
0.024759 0.03385200000000001 0.022259
0.0005329999999999999 -0.009500000000000001 -0.020501
-0.040016 0.029542 -0.017091
0.028304 -0.00497 0.006909
0.027726 0.00265 0.04749399999999999
-0.043545 0.039093 -0.016199
0.013854 -0.005356 -0.01573
-0.039844 0.067159 -0.000309
0.022016 0.036957 -0.010363
-0.004881000000000001 -0.010402 0.024395
-0.01043 0.07058 -0.016683
-0.022247 0.001631 -0.009373000000000001
0.023283 0.05155800000000001 0.03196499999999999
0.032499 0.001203 0.045006
0.024994 0.017929 0.048147
-0.010283 0.021374 -0.006886000000000001
-0.010732 0.019073 -0.010387
-0.02423 0.00595 -0.019261
-0.017088 0.002902 -0.006407
-0.030968 0.07914200000000002 0.001337
0.018334 -0.00532 0.003405
-0.023713 0.07968500000000002 0.002144
-0.016894 -0.004652 0.01191
0.01924 -0.0069 0.048063
-0.030028 0.019018 0.05293
-0.023782 0.07461100000000001 0.05435100000000001
0.025784 -0.009896000000000002 0.008636000000000001
-0.047599 0.040724 0.013354
-0.022625 0.015117 0.052448
-0.029699 0.052728 -0.017905
-0.044951 0.058064 -0.002731
-0.013247 -0.006227 0.027794
0.007898000000000001 0.078458 0.038955
-0.024336 0.010419 0.048404
-0.00859 0.007533 -0.021072
-0.046883 0.032167 -0.00058
-0.008352999999999999 0.07969000000000002 -0.000844
-0.025024 0.07927500000000003 0.013382
-0.021454 0.004979 0.035854
0.02445 0.050238 0.03771
0.028811 0.027568 0.042161
0.019256 0.001291 0.048095
-0.027278 0.023194 0.05333400000000001
-0.012101 0.06702400000000001 -0.019048
0.004242 -0.010851 -0.008614999999999999
-0.04698599999999999 0.048645 0.006836
-0.0231 0.010194 -0.019764
-0.005774 -0.009668 -0.017597
0.024295 0.029969 0.014714
0.017197 -0.010715 0.009378000000000001
-0.046144 0.06447 0.027779
0.001546 -0.010158 -0.017281
0.029314 0.004848000000000001 0.027524
-0.046599 0.061401 0.04385600000000001
-0.037545 0.018677 0.04898499999999999
0.01889 -0.010998 0.023633
-0.028209 0.06528 0.054264
-0.032074 0.014679 0.011964
-0.037648 0.033488 0.054441
-0.015683 0.07847900000000001 0.050025
-0.0206 0.078557 0.041764
-0.047227 0.047247 0.022975
0.025575 0.03506599999999999 0.048037
0.021073 -0.01151 0.042448
0.001717 0.077588 -0.013642
-0.03795999999999999 0.018585 0.026514
0.022314 -0.010597 0.009696000000000001
-0.04885300000000001 0.03083899999999999 0.03648699999999999
0.025741 0.034583 0.032298
0.025356 0.05228 0.044105
-0.018328 -0.000729 -0.020306
-0.003949 0.06753000000000001 -0.019875
-0.009362000000000001 0.069678 -0.017956
-0.001794 -0.010776 -0.009927999999999999
-0.017274 -0.005357 -0.016211
-0.036535 0.079308 0.017916
0.01955 0.07491100000000001 0.024481
0.021328 0.067869 0.03463900000000001
0.026799 -0.011283 0.04106
-0.002481000000000001 0.07824800000000001 0.04922
-0.021852 0.006732 0.045579
-0.00188 -0.009279000000000003 0.04881600000000001
0.018267 0.06996000000000001 -0.004847000000000001
-0.022886 0.004113 0.014833
0.009480000000000001 0.060823 -0.021727
0.025971 0.016695 0.001938
-0.034326 0.017329 0.038879
-0.037852 0.021791 0.05380700000000001
0.007173000000000001 0.07849500000000002 0.045978
0.013949 -0.001222 -0.007465
0.03033 -0.001984000000000001 0.047031
0.002965 0.079309 0.004748
-0.045341 0.022709 0.009325
-0.026643 0.009616000000000001 0.014189
-0.005181000000000001 0.018201 -0.004897
-0.031947 0.076889 0.049703
-0.038035 0.07167600000000002 0.002056
0.021553 0.04803900000000001 -0.001667
-0.009857000000000001 -0.008396000000000001 -0.018744
-0.047213 0.030804 0.004659
0.014387 -0.012156 0.043478
0.027886 0.02269 0.047237
-0.004687 0.01691 0.001484
0.026775 0.010239 0.007987000000000001
0.02222 0.049994 0.049006
0.018401 0.06426000000000001 0.049914
-0.015382 0.07629600000000003 0.052989
-0.045532 0.04063300000000001 -0.012941
0.020457 0.066411 0.024342
-0.026402 0.07813500000000002 -0.002853
-0.04325900000000001 0.061321 -0.004027
-0.048224 0.056876 0.04385000000000001
-0.007476 0.07378500000000002 0.05264900000000001
-0.000108 0.003982 0.050055
0.012951 0.004912 -0.024318
0.030372 0.004188000000000001 0.033703
-0.015048 0.02456 0.052005
0.001642 -0.011472 0.013661
0.004519 -0.0122 0.039907
-0.00257 -0.011057 0.04213300000000001
0.019036 0.067577 0.013239
-0.03753 0.01863 0.036596
0.010948 -0.01144 0.013087
0.001189 0.072959 0.05181900000000001
0.009745 0.033902 -0.022228
0.013859 0.04031000000000001 0.04957300000000001
0.018928 0.04935800000000001 -0.021743
-0.045339 0.023089 -0.007281
-0.005563 0.015115 0.008064
-0.012707 0.014742 0.012889
0.027322 -0.005847000000000001 0.047523
0.028068 -0.010278 0.028901
-0.044626 0.05162100000000001 0.055478
-0.037477 0.01696 -0.01343
0.010913 0.07944300000000001 0.005725
0.033083 -0.003348 0.0398
-0.029698 0.058916 -0.017924
-0.040247 0.07016200000000002 0.04864300000000001
-0.010549 0.015989 0.012059
0.016018 0.037793 -0.022911
-0.048595 0.05389100000000001 0.040482
-0.04761900000000001 0.055145 0.032286
0.009900000000000001 0.06634699999999999 0.050591
0.027196 -0.009466 0.014114
0.029126 -0.004332 0.013235
-0.029509 0.015132 0.005227
0.010812 0.07838000000000001 -0.007067
-0.046579 0.06398899999999999 0.012536
-0.02981 0.011482 -0.012048
0.024913 0.010669 -0.014876
-0.01347 -0.005567 0.044628
-0.045056 0.036459 -0.014126
0.00099 0.075351 -0.012164
-0.037194 0.07724400000000002 0.007851
0.01852 0.0641 -0.009214000000000002
-0.039624 0.07263800000000001 0.04172
-0.009858 0.07747500000000002 0.05167600000000001
-0.033104 0.017085 0.005608
0.018545 0.07417500000000002 0.016449
0.01735 0.07746900000000001 0.007249
-0.015781 0.02251 -0.005049000000000001
0.006791 0.07970400000000002 -0.003533
-0.044519 0.05978 0.05356900000000001
0.016029 0.048552 -0.022631
-0.047829 0.027621 0.024724
0.009611 -0.009531000000000001 0.002726
-0.048345 0.024629 0.032897
-0.015831 0.022718 0.003072
-0.027809 0.062496 -0.017509
-0.04367200000000001 0.020953 -0.008556000000000001
0.033187 -0.001283 0.04359900000000001
-0.04548199999999999 0.02234 0.05438
-0.018544 -0.00177 0.025353
3 1 0 50
628
629
630
631
632
633
634
635
636
637
638
639
640
641
642
643
644
645
646
647
648
649
650
651
652
653
654
655
656
657
658
659
660
661
662
663
664
665
666
667
668
669
670
671
672
673
674
675
676
677
-0.01708489081664627 0.05121807150853947 0.008443136700482492
0.008336982794553258 0.04397097640474798 0.0128285580488335
-0.01550179821372156 0.03565232265722311 0.02433069817609244
0.007144190574149152 0.01507503948448162 0.03023120928588521
-0.01873457889740075 0.0432541041148326 0.03878141981150705
0.01067402254152628 0.01845017100576641 0.01078655543539709
-0.02902111737639571 0.03449695972075546 0.002628298350381262
-0.009862903106312788 0.04219238679296432 -0.00900546661693798
-0.001463904097262412 0.05934816721467808 0.0009940710726310045
0.0112545612384769 0.01166652462384969 -0.003527395751685934
0.006278381955319985 0.02511027083091079 -0.00104605611083251
0.0049247910849308 0.001068112368504386 -0.01214164256150691
-0.01039335787781701 0.01667129037525932 0.03606034903215843
-0.004721360143917101 0.04757061494602158 0.03147421895938796
-0.02347654351157358 0.02926986691084246 0.02587810121897614
-0.01224705767038805 0.03661445415545236 0.008616757227996749
0.006696938465040914 0.0005507287240666509 0.01054246917345493
-0.001315337097305823 0.06457255073626796 -0.01049916990971028
0.00163804266304776 0.01057940972792487 -0.01333880409061778
-0.02876760359888514 0.06167763444015952 0.01760175506098514
0.008196611792085558 0.02010940514379433 -0.01424788204219441
-0.0009012947221095479 0.0224884831976184 0.02071498309362886
-0.03007532125506246 0.05482629724438765 0.0008359914428571515
-0.002833476158587578 0.02929373760411584 0.008449692297297624
-0.01122626406807966 0.02555462163330595 0.02210085367628525
0.01634481507213077 0.006235878736298295 0.01707789841051748
-0.02949966093674878 0.02606578985981203 0.008383088740809943
-0.0204566794277899 0.02929296918462816 0.01297543869005648
-0.03158782070788881 0.04404578204463572 -0.008448046941274909
-0.006916477532785063 0.002584406374359687 0.02246866099907129
0.0102778874195576 0.03680679007491598 0.03329433800701329
-0.02961767007097756 0.02532525050117214 -0.001688198234406232
-0.01714942165366696 0.05897009236148178 -0.007621650842216209
-0.005214070058228244 0.02681013931109905 -0.01364438548948712
0.01523238570152034 0.01004875461494361 -0.01441961386442055
-0.01912519268004286 0.03214923285836684 -0.00125315805547869
0.004747864706149163 0.01566599302452292 0.001691702151370858
-0.01767308858383668 0.03035656355206073 -0.01103158223519928
-0.007197832033701637 -0.00194070921725183 -0.009122838752713433
-0.002983834902296302 0.001094656102504557 -0.01679200311944471
0.00124904777636216 0.01120613580141691 0.01756236376550837
-0.005928626935206561 0.06616301664053748 0.02360940846086977
-0.01683814306706813 0.06786902713833053 0.004993057039453137
0.004133808957345325 0.001235144562335128 -0.002314766445133687
0.005923080005408202 0.04609509127881707 -0.005254192552153735
-0.03358236845557663 0.02784702209561527 -0.009343649915125696
0.01044156062352833 0.06287665138759937 -0.01311197838523955
-0.03139345503130216 0.04569206793142588 0.01450529546906296
-0.01526671603380325 0.0109241745596052 0.02373755371980054
0.009469604395750491 0.0654814918421769 0.02235109786083356
$EndNodes
$Elements
2 3376 1 3376
2 1 2 1250
1 83 82 1 
2 93 1 82 
3 83 1 247 
4 581 1 93 
5 1 539 247 
6 618 539 1 
7 1 581 618 
8 246 2 321 
9 246 392 2 
10 2 249 383 
11 249 2 392 
12 321 2 329 
13 383 329 2 
14 3 196 252 
15 3 389 196 
16 3 252 529 
17 338 333 3 
18 333 389 3 
19 338 3 529 
20 4 96 204 
21 96 4 276 
22 204 274 4 
23 274 397 4 
24 276 4 397 
25 92 5 6 
26 5 380 6 
27 5 92 101 
28 5 101 256 
29 380 5 256 
30 41 202 6 
31 247 41 6 
32 92 6 202 
33 247 6 275 
34 6 380 275 
35 7 100 11 
36 11 108 7 
37 12 7 108 
38 12 340 7 
39 7 277 100 
40 281 277 7 
41 281 7 340 
42 209 101 8 
43 8 101 607 
44 8 102 278 
45 102 8 607 
46 8 278 209 
47 9 10 103 
48 10 9 340 
49 103 208 9 
50 187 9 208 
51 281 9 187 
52 340 9 281 
53 10 13 14 
54 10 340 13 
55 14 405 10 
56 603 103 10 
57 10 405 106 
58 106 603 10 
59 100 471 11 
60 11 615 108 
61 470 11 471 
62 615 11 470 
63 12 120 13 
64 12 13 340 
65 108 378 12 
66 378 120 12 
67 13 120 14 
68 600 14 120 
69 14 183 405 
70 14 600 183 
71 15 61 248 
72 15 408 61 
73 349 117 15 
74 15 117 408 
75 349 15 248 
76 60 16 107 
77 287 16 60 
78 16 549 107 
79 287 348 16 
80 557 16 348 
81 557 549 16 
82 133 17 22 
83 22 17 351 
84 17 120 217 
85 17 600 120 
86 17 217 131 
87 351 17 131 
88 600 17 133 
89 24 18 134 
90 24 185 18 
91 18 188 134 
92 622 18 185 
93 18 214 188 
94 622 214 18 
95 136 19 132 
96 178 132 19 
97 356 19 136 
98 137 220 19 
99 19 356 137 
100 19 220 178 
101 142 22 20 
102 351 20 22 
103 20 137 142 
104 20 358 137 
105 20 351 358 
106 130 21 72 
107 21 354 72 
108 130 355 21 
109 21 219 354 
110 21 355 219 
111 22 138 133 
112 140 138 22 
113 142 140 22 
114 23 139 128 
115 415 23 128 
116 145 139 23 
117 145 23 475 
118 415 475 23 
119 185 24 62 
120 24 593 62 
121 583 24 134 
122 24 583 386 
123 593 24 386 
124 25 140 142 
125 25 548 140 
126 356 25 142 
127 25 356 538 
128 25 538 548 
129 52 363 26 
130 26 505 52 
131 420 261 26 
132 505 26 261 
133 289 26 363 
134 26 289 420 
135 53 27 155 
136 53 292 27 
137 156 155 27 
138 27 176 156 
139 27 292 176 
140 162 264 28 
141 162 28 311 
142 171 28 264 
143 28 171 302 
144 605 28 302 
145 28 605 311 
146 29 31 164 
147 384 31 29 
148 164 488 29 
149 167 263 29 
150 167 29 488 
151 384 29 263 
152 166 30 57 
153 370 57 30 
154 166 524 30 
155 30 308 370 
156 308 30 524 
157 165 31 58 
158 479 58 31 
159 165 164 31 
160 384 483 31 
161 31 483 479 
162 159 32 161 
163 159 625 32 
164 161 32 170 
165 32 545 170 
166 545 32 468 
167 625 468 32 
168 33 175 55 
169 373 33 55 
170 235 175 33 
171 235 33 436 
172 33 373 436 
173 34 154 155 
174 531 154 34 
175 155 156 34 
176 309 34 156 
177 309 532 34 
178 532 531 34 
179 144 35 147 
180 35 144 220 
181 180 35 146 
182 35 220 146 
183 147 35 386 
184 180 386 35 
185 157 36 54 
186 617 54 36 
187 157 508 36 
188 36 566 294 
189 36 294 617 
190 36 508 566 
191 94 255 37 
192 94 37 337 
193 37 341 215 
194 37 215 537 
195 341 37 255 
196 337 37 537 
197 113 38 192 
198 38 113 284 
199 192 38 403 
200 473 38 284 
201 38 473 403 
202 40 78 39 
203 91 40 39 
204 85 39 78 
205 86 39 85 
206 91 39 86 
207 78 40 457 
208 91 199 40 
209 40 199 457 
210 202 41 198 
211 198 41 526 
212 41 247 539 
213 526 41 539 
214 42 404 114 
215 114 544 42 
216 207 42 177 
217 342 177 42 
218 404 42 207 
219 342 42 544 
220 43 122 123 
221 122 43 212 
222 43 123 453 
223 43 210 212 
224 499 210 43 
225 43 453 250 
226 250 499 43 
227 408 44 61 
228 612 61 44 
229 183 44 405 
230 183 612 44 
231 44 283 405 
232 44 408 283 
233 45 345 240 
234 500 45 240 
235 45 500 323 
236 602 45 323 
237 45 344 345 
238 45 602 344 
239 46 117 349 
240 117 46 554 
241 46 423 218 
242 554 46 218 
243 349 547 46 
244 547 423 46 
245 47 144 147 
246 286 144 47 
247 348 47 147 
248 414 286 47 
249 287 47 348 
250 287 414 47 
251 289 48 179 
252 48 608 179 
253 530 216 48 
254 48 216 608 
255 224 48 289 
256 530 48 224 
257 131 184 49 
258 351 131 49 
259 143 351 49 
260 49 584 143 
261 184 584 49 
262 258 219 50 
263 219 558 50 
264 50 357 258 
265 50 458 357 
266 458 50 359 
267 50 558 359 
268 51 218 442 
269 218 51 482 
270 51 442 619 
271 516 482 51 
272 51 619 516 
273 52 508 157 
274 157 610 52 
275 610 363 52 
276 52 505 508 
277 155 362 53 
278 53 487 292 
279 362 589 53 
280 53 546 487 
281 589 546 53 
282 592 157 54 
283 54 372 592 
284 54 617 372 
285 370 55 175 
286 176 292 55 
287 55 309 176 
288 55 292 373 
289 370 309 55 
290 229 56 173 
291 517 173 56 
292 186 56 229 
293 56 186 559 
294 559 517 56 
295 166 57 379 
296 235 57 175 
297 175 57 370 
298 235 379 57 
299 58 509 165 
300 371 509 58 
301 371 58 626 
302 542 58 479 
303 626 58 542 
304 149 59 223 
305 362 59 149 
306 362 154 59 
307 59 154 531 
308 59 613 223 
309 613 59 531 
310 193 60 107 
311 193 414 60 
312 60 414 287 
313 612 248 61 
314 185 62 184 
315 62 584 184 
316 62 593 584 
317 63 68 151 
318 444 68 63 
319 431 63 151 
320 267 63 159 
321 159 63 431 
322 444 63 267 
323 64 160 291 
324 160 64 509 
325 227 64 361 
326 227 576 64 
327 291 361 64 
328 64 576 509 
329 65 474 216 
330 216 530 65 
331 285 474 65 
332 65 476 285 
333 65 530 476 
334 66 82 83 
335 82 66 395 
336 66 83 275 
337 94 66 275 
338 337 66 94 
339 337 395 66 
340 211 98 67 
341 98 277 67 
342 187 67 277 
343 473 67 187 
344 473 211 67 
345 151 68 153 
346 68 586 153 
347 444 586 68 
348 367 160 69 
349 160 371 69 
350 69 181 368 
351 69 626 181 
352 368 367 69 
353 371 626 69 
354 70 410 72 
355 70 72 415 
356 114 70 301 
357 114 410 70 
358 301 70 416 
359 415 416 70 
360 172 234 71 
361 265 172 71 
362 71 234 587 
363 265 71 369 
364 369 71 435 
365 435 71 587 
366 130 72 410 
367 72 354 415 
368 73 497 298 
369 298 542 73 
370 479 483 73 
371 542 479 73 
372 483 497 73 
373 171 74 263 
374 171 264 74 
375 74 233 194 
376 194 384 74 
377 233 74 264 
378 263 74 384 
379 237 75 372 
380 550 75 237 
381 304 75 550 
382 592 75 304 
383 75 592 372 
384 475 76 145 
385 76 481 145 
386 357 76 259 
387 76 475 259 
388 357 458 76 
389 360 76 458 
390 481 76 360 
391 79 77 80 
392 197 77 79 
393 80 77 328 
394 77 197 87 
395 77 87 390 
396 77 390 328 
397 269 85 78 
398 78 270 269 
399 270 78 437 
400 78 457 437 
401 80 189 79 
402 322 79 189 
403 197 79 322 
404 80 81 189 
405 81 80 594 
406 328 594 80 
407 81 88 189 
408 88 81 271 
409 81 594 271 
410 93 82 395 
411 275 83 247 
412 85 84 90 
413 84 85 269 
414 399 90 84 
415 203 84 269 
416 399 84 203 
417 588 86 85 
418 90 334 85 
419 334 588 85 
420 91 86 624 
421 86 588 624 
422 87 197 305 
423 274 332 87 
424 397 274 87 
425 87 305 397 
426 87 332 390 
427 189 88 326 
428 271 581 88 
429 326 88 394 
430 88 581 394 
431 89 465 272 
432 89 272 623 
433 330 401 89 
434 89 623 330 
435 393 89 401 
436 465 89 393 
437 97 90 399 
438 97 603 90 
439 603 334 90 
440 91 190 199 
441 190 91 439 
442 91 582 439 
443 91 624 582 
444 92 607 101 
445 519 92 202 
446 92 519 607 
447 93 395 394 
448 394 581 93 
449 380 255 94 
450 380 94 275 
451 205 102 95 
452 95 102 607 
453 205 95 519 
454 519 95 607 
455 96 177 191 
456 177 96 207 
457 191 204 96 
458 276 207 96 
459 208 103 97 
460 97 103 603 
461 466 208 97 
462 466 97 399 
463 211 99 98 
464 385 98 99 
465 277 98 100 
466 98 385 100 
467 99 193 107 
468 99 107 385 
469 193 99 211 
470 100 385 471 
471 282 101 209 
472 101 282 256 
473 273 102 205 
474 273 278 102 
475 408 104 283 
476 283 104 588 
477 300 104 408 
478 582 104 300 
479 104 582 624 
480 588 104 624 
481 212 210 105 
482 239 105 210 
483 342 212 105 
484 239 461 105 
485 342 105 461 
486 283 106 405 
487 106 283 588 
488 106 588 334 
489 334 603 106 
490 385 107 110 
491 107 549 110 
492 615 378 108 
493 338 279 109 
494 279 403 109 
495 109 466 338 
496 109 403 466 
497 385 110 471 
498 470 471 110 
499 470 110 549 
500 111 282 209 
501 209 450 111 
502 601 282 111 
503 406 111 450 
504 406 616 111 
505 601 111 616 
506 410 112 130 
507 412 130 112 
508 112 404 276 
509 276 604 112 
510 404 112 410 
511 412 112 604 
512 113 125 129 
513 125 113 192 
514 129 286 113 
515 113 411 284 
516 411 113 286 
517 114 301 544 
518 410 114 404 
519 115 216 474 
520 216 115 608 
521 115 242 280 
522 115 564 242 
523 115 280 551 
524 115 474 564 
525 608 115 551 
526 325 285 116 
527 116 285 491 
528 325 116 450 
529 450 116 406 
530 406 116 491 
531 117 118 300 
532 554 118 117 
533 408 117 300 
534 582 300 118 
535 490 439 118 
536 118 439 582 
537 490 118 554 
538 119 182 124 
539 124 343 119 
540 182 119 241 
541 213 119 343 
542 213 409 119 
543 119 409 241 
544 217 120 378 
545 126 266 121 
546 589 126 121 
547 266 341 121 
548 341 601 121 
549 616 589 121 
550 616 121 601 
551 301 123 122 
552 212 342 122 
553 122 544 301 
554 342 544 122 
555 128 123 416 
556 620 123 128 
557 416 123 301 
558 453 123 620 
559 192 124 127 
560 353 127 124 
561 124 182 353 
562 192 343 124 
563 127 132 125 
564 192 127 125 
565 129 125 178 
566 132 178 125 
567 126 152 149 
568 126 149 614 
569 589 152 126 
570 614 266 126 
571 136 132 127 
572 352 136 127 
573 352 127 353 
574 139 620 128 
575 128 416 415 
576 129 178 441 
577 129 441 286 
578 412 355 130 
579 184 131 217 
580 133 138 183 
581 133 183 600 
582 134 188 557 
583 557 583 134 
584 135 215 266 
585 413 215 135 
586 221 575 135 
587 135 614 221 
588 135 266 614 
589 135 575 413 
590 136 352 222 
591 136 222 356 
592 142 137 356 
593 146 220 137 
594 137 358 146 
595 512 138 140 
596 612 183 138 
597 612 138 512 
598 145 504 139 
599 244 139 504 
600 244 620 139 
601 307 512 140 
602 307 140 548 
603 288 141 260 
604 547 260 141 
605 426 141 288 
606 141 426 423 
607 423 547 141 
608 358 143 148 
609 148 143 584 
610 143 358 351 
611 441 220 144 
612 441 144 286 
613 481 521 145 
614 504 145 521 
615 148 180 146 
616 146 358 148 
617 348 147 583 
618 147 386 583 
619 584 180 148 
620 149 152 362 
621 614 149 223 
622 150 151 153 
623 599 151 150 
624 598 150 153 
625 360 150 598 
626 599 150 360 
627 151 447 431 
628 599 447 151 
629 589 362 152 
630 586 598 153 
631 362 155 154 
632 176 309 156 
633 157 592 610 
634 367 158 262 
635 522 262 158 
636 158 368 265 
637 158 265 432 
638 158 367 368 
639 432 522 158 
640 267 159 161 
641 590 159 431 
642 590 625 159 
643 291 160 367 
644 509 371 160 
645 161 170 317 
646 267 161 317 
647 536 264 162 
648 366 295 162 
649 295 536 162 
650 574 162 311 
651 574 366 162 
652 163 243 230 
653 434 163 230 
654 163 625 243 
655 163 434 374 
656 163 374 468 
657 163 468 625 
658 316 164 165 
659 488 164 316 
660 451 316 165 
661 165 541 451 
662 541 165 509 
663 186 229 166 
664 379 186 166 
665 229 524 166 
666 167 171 263 
667 171 167 302 
668 167 535 302 
669 488 535 167 
670 168 230 433 
671 230 168 556 
672 168 433 517 
673 168 517 556 
674 169 478 233 
675 536 169 233 
676 295 318 169 
677 169 536 295 
678 169 318 478 
679 170 318 317 
680 318 170 478 
681 478 170 585 
682 170 545 585 
683 181 172 265 
684 298 172 181 
685 298 234 172 
686 229 173 433 
687 433 173 517 
688 372 174 236 
689 174 375 236 
690 372 617 174 
691 375 174 617 
692 191 177 461 
693 177 342 461 
694 178 220 441 
695 179 420 289 
696 418 420 179 
697 179 608 418 
698 593 386 180 
699 584 593 180 
700 368 181 265 
701 626 298 181 
702 350 182 241 
703 417 182 350 
704 182 417 353 
705 185 184 217 
706 185 217 622 
707 559 186 379 
708 187 208 473 
709 187 277 281 
710 214 470 188 
711 549 188 470 
712 549 557 188 
713 189 326 322 
714 190 606 199 
715 190 439 490 
716 562 190 490 
717 190 562 606 
718 191 249 204 
719 461 249 191 
720 343 192 403 
721 211 411 193 
722 193 411 414 
723 194 233 568 
724 194 483 384 
725 483 194 497 
726 571 497 194 
727 571 194 568 
728 195 252 196 
729 195 196 525 
730 327 252 195 
731 387 327 195 
732 387 195 525 
733 525 196 389 
734 322 305 197 
735 336 202 198 
736 336 198 335 
737 335 198 527 
738 527 198 526 
739 457 199 460 
740 460 199 606 
741 200 201 391 
742 200 396 201 
743 200 331 257 
744 200 257 400 
745 200 391 331 
746 200 400 396 
747 268 201 303 
748 268 391 201 
749 201 396 303 
750 202 336 205 
751 519 202 205 
752 472 203 269 
753 399 203 333 
754 203 472 333 
755 392 204 249 
756 204 392 274 
757 205 336 273 
758 461 239 206 
759 206 239 506 
760 206 448 383 
761 206 383 461 
762 506 448 206 
763 404 207 276 
764 208 466 403 
765 208 403 473 
766 209 278 450 
767 499 239 210 
768 284 411 211 
769 284 211 473 
770 213 343 279 
771 279 529 213 
772 213 528 409 
773 528 213 502 
774 213 529 502 
775 470 214 615 
776 622 615 214 
777 215 341 266 
778 215 413 537 
779 217 378 622 
780 442 218 423 
781 482 554 218 
782 258 354 219 
783 219 355 558 
784 223 613 221 
785 223 221 614 
786 575 221 613 
787 324 538 222 
788 627 324 222 
789 222 352 477 
790 356 222 538 
791 477 627 222 
792 224 289 225 
793 225 428 224 
794 224 428 364 
795 364 530 224 
796 226 225 363 
797 225 226 428 
798 363 225 289 
799 290 226 304 
800 364 226 290 
801 304 226 610 
802 610 226 363 
803 364 428 226 
804 227 361 288 
805 227 288 520 
806 520 576 227 
807 228 290 365 
808 228 427 290 
809 228 365 515 
810 492 427 228 
811 492 228 515 
812 229 433 524 
813 243 495 230 
814 495 433 230 
815 434 230 556 
816 245 231 293 
817 480 231 245 
818 231 365 293 
819 514 365 231 
820 231 480 561 
821 514 231 561 
822 232 238 578 
823 611 238 232 
824 376 382 232 
825 376 232 578 
826 232 382 534 
827 534 611 232 
828 536 233 264 
829 496 233 478 
830 496 568 233 
831 452 234 298 
832 452 299 234 
833 299 587 234 
834 235 560 379 
835 235 436 560 
836 245 237 236 
837 236 237 372 
838 480 245 236 
839 236 375 299 
840 299 480 236 
841 293 237 245 
842 550 237 293 
843 578 238 567 
844 567 238 611 
845 499 506 239 
846 345 257 240 
847 562 240 257 
848 240 490 482 
849 240 482 500 
850 240 562 490 
851 241 253 350 
852 241 407 253 
853 241 409 407 
854 402 280 242 
855 454 402 242 
856 438 454 242 
857 242 564 438 
858 243 570 495 
859 570 243 590 
860 243 625 590 
861 421 253 244 
862 244 253 620 
863 421 244 572 
864 577 244 504 
865 577 572 244 
866 246 332 274 
867 274 392 246 
868 332 246 321 
869 260 547 248 
870 612 260 248 
871 349 248 547 
872 383 249 461 
873 409 250 407 
874 453 407 250 
875 528 250 409 
876 528 499 250 
877 451 251 307 
878 512 307 251 
879 512 251 419 
880 419 251 520 
881 451 541 251 
882 251 541 520 
883 327 553 252 
884 553 529 252 
885 421 350 253 
886 253 407 453 
887 253 453 620 
888 254 318 295 
889 254 295 555 
890 317 318 254 
891 254 533 317 
892 518 533 254 
893 555 518 254 
894 255 256 282 
895 380 256 255 
896 601 255 282 
897 255 601 341 
898 331 562 257 
899 257 345 485 
900 400 257 485 
901 354 258 259 
902 258 357 259 
903 415 354 259 
904 259 475 415 
905 419 288 260 
906 419 260 612 
907 323 306 261 
908 505 261 306 
909 602 323 261 
910 420 602 261 
911 262 291 367 
912 262 621 291 
913 621 262 522 
914 369 432 265 
915 317 444 267 
916 268 303 330 
917 268 330 623 
918 591 391 268 
919 268 623 591 
920 501 269 270 
921 472 269 501 
922 270 437 449 
923 270 449 484 
924 270 484 579 
925 489 501 270 
926 270 579 489 
927 581 271 618 
928 594 618 271 
929 272 465 527 
930 498 272 527 
931 623 272 498 
932 465 278 273 
933 336 335 273 
934 465 273 335 
935 397 604 276 
936 278 438 325 
937 450 278 325 
938 393 438 278 
939 393 278 465 
940 529 279 338 
941 343 403 279 
942 402 462 280 
943 551 280 462 
944 285 325 564 
945 474 285 564 
946 285 476 491 
947 286 414 411 
948 288 361 426 
949 520 288 419 
950 290 293 365 
951 290 550 293 
952 290 304 550 
953 427 364 290 
954 361 291 426 
955 291 621 426 
956 382 373 292 
957 543 382 292 
958 487 543 292 
959 294 432 369 
960 369 435 294 
961 294 566 432 
962 435 617 294 
963 295 366 555 
964 296 297 469 
965 297 296 556 
966 434 296 374 
967 374 296 459 
968 434 556 296 
969 469 459 296 
970 297 320 469 
971 297 517 320 
972 297 556 517 
973 513 452 298 
974 298 497 513 
975 298 626 542 
976 587 299 375 
977 511 299 452 
978 299 511 480 
979 605 302 381 
980 381 302 627 
981 302 535 493 
982 627 302 493 
983 398 330 303 
984 440 303 396 
985 440 398 303 
986 304 610 592 
987 322 313 305 
988 305 313 604 
989 604 397 305 
990 306 315 505 
991 306 516 315 
992 306 323 482 
993 306 482 516 
994 316 307 429 
995 316 451 307 
996 548 429 307 
997 532 370 308 
998 494 308 495 
999 532 308 494 
1000 524 495 308 
1001 309 370 532 
1002 487 515 310 
1003 487 310 543 
1004 515 514 310 
1005 611 310 514 
1006 543 310 534 
1007 310 611 534 
1008 574 311 486 
1009 605 486 311 
1010 332 321 312 
1011 321 388 312 
1012 390 312 328 
1013 312 569 328 
1014 312 390 332 
1015 312 388 569 
1016 463 313 322 
1017 313 346 412 
1018 313 463 346 
1019 313 412 604 
1020 449 437 314 
1021 314 437 457 
1022 449 314 460 
1023 314 457 460 
1024 595 505 315 
1025 315 516 596 
1026 595 315 596 
1027 429 535 316 
1028 535 488 316 
1029 317 533 444 
1030 319 445 484 
1031 445 319 539 
1032 484 591 319 
1033 526 319 498 
1034 498 319 591 
1035 539 319 526 
1036 469 320 580 
1037 517 559 320 
1038 560 320 559 
1039 580 320 560 
1040 388 321 329 
1041 463 322 326 
1042 500 482 323 
1043 538 324 627 
1044 438 564 325 
1045 463 326 394 
1046 443 327 387 
1047 327 443 456 
1048 456 502 327 
1049 553 327 502 
1050 328 569 579 
1051 328 579 594 
1052 329 383 448 
1053 388 329 387 
1054 443 387 329 
1055 329 448 443 
1056 330 398 401 
1057 391 460 331 
1058 460 606 331 
1059 606 562 331 
1060 338 399 333 
1061 333 472 389 
1062 335 527 465 
1063 337 609 395 
1064 537 609 337 
1065 466 399 338 
1066 402 398 339 
1067 398 440 339 
1068 462 402 339 
1069 339 440 565 
1070 565 462 339 
1071 345 344 485 
1072 485 344 347 
1073 344 602 347 
1074 540 412 346 
1075 346 463 552 
1076 346 552 540 
1077 347 418 462 
1078 347 602 418 
1079 462 565 347 
1080 347 565 485 
1081 557 348 583 
1082 417 350 421 
1083 477 352 353 
1084 422 353 417 
1085 422 477 353 
1086 355 412 540 
1087 355 540 558 
1088 446 359 558 
1089 446 599 359 
1090 359 599 458 
1091 360 458 599 
1092 481 360 598 
1093 530 364 427 
1094 514 515 365 
1095 573 366 430 
1096 574 430 366 
1097 366 573 555 
1098 373 382 376 
1099 376 436 373 
1100 545 374 459 
1101 545 468 374 
1102 587 375 435 
1103 435 375 617 
1104 578 436 376 
1105 377 417 421 
1106 377 422 417 
1107 572 377 421 
1108 464 422 377 
1109 430 464 377 
1110 572 430 377 
1111 378 615 622 
1112 379 560 559 
1113 486 381 477 
1114 381 627 477 
1115 381 486 605 
1116 382 543 534 
1117 569 388 387 
1118 489 387 501 
1119 569 387 489 
1120 387 525 501 
1121 525 389 472 
1122 460 391 449 
1123 591 449 391 
1124 401 438 393 
1125 394 395 609 
1126 609 463 394 
1127 400 440 396 
1128 401 398 454 
1129 454 398 402 
1130 565 440 400 
1131 565 400 485 
1132 454 438 401 
1133 546 406 491 
1134 406 546 616 
1135 413 552 537 
1136 540 552 413 
1137 540 413 575 
1138 602 420 418 
1139 418 551 462 
1140 418 608 551 
1141 612 512 419 
1142 422 464 486 
1143 422 486 477 
1144 423 426 442 
1145 521 481 424 
1146 424 481 598 
1147 424 510 521 
1148 424 533 510 
1149 533 424 586 
1150 598 586 424 
1151 455 503 425 
1152 455 425 563 
1153 425 503 575 
1154 425 531 563 
1155 613 531 425 
1156 425 575 613 
1157 621 442 426 
1158 476 427 492 
1159 476 530 427 
1160 493 535 429 
1161 429 548 493 
1162 464 430 574 
1163 572 573 430 
1164 431 447 507 
1165 570 431 507 
1166 431 570 590 
1167 595 522 432 
1168 595 432 566 
1169 524 433 495 
1170 597 560 436 
1171 578 597 436 
1172 442 621 619 
1173 448 456 443 
1174 533 586 444 
1175 579 484 445 
1176 445 539 618 
1177 579 445 594 
1178 618 594 445 
1179 446 503 447 
1180 446 447 599 
1181 503 446 558 
1182 503 455 447 
1183 507 447 455 
1184 448 506 456 
1185 484 449 591 
1186 452 597 511 
1187 571 452 513 
1188 571 580 452 
1189 597 452 580 
1190 455 467 523 
1191 563 467 455 
1192 455 523 507 
1193 456 506 502 
1194 469 496 459 
1195 478 459 496 
1196 585 459 478 
1197 459 585 545 
1198 463 609 552 
1199 464 574 486 
1200 467 494 523 
1201 467 532 494 
1202 467 563 532 
1203 469 580 496 
1204 501 525 472 
1205 476 492 491 
1206 511 567 480 
1207 561 480 567 
1208 482 490 554 
1209 515 487 546 
1210 489 579 569 
1211 546 491 492 
1212 546 492 515 
1213 538 493 548 
1214 493 538 627 
1215 570 494 495 
1216 523 494 570 
1217 568 496 571 
1218 571 496 580 
1219 571 513 497 
1220 527 526 498 
1221 591 623 498 
1222 528 506 499 
1223 506 528 502 
1224 529 553 502 
1225 575 503 558 
1226 504 521 510 
1227 504 510 577 
1228 505 566 508 
1229 566 505 595 
1230 570 507 523 
1231 509 576 541 
1232 533 518 510 
1233 518 555 510 
1234 510 555 577 
1235 511 578 567 
1236 511 597 578 
1237 611 514 561 
1238 516 619 596 
1239 520 541 576 
1240 522 595 596 
1241 619 522 596 
1242 619 621 522 
1243 531 532 563 
1244 609 537 552 
1245 558 540 575 
1246 589 616 546 
1247 577 555 573 
1248 580 560 597 
1249 567 611 561 
1250 573 572 577 
3 1 4 2126
1251 72 410 70 637 
1252 46 349 554 654 
1253 130 410 72 637 
1254 100 471 385 661 
1255 269 277 7 281 
1256 46 554 218 654 
1257 644 657 653 668 
1258 88 326 81 189 
1259 282 616 101 636 
1260 461 448 239 639 
1261 132 352 136 127 
1262 595 505 566 508 
1263 419 288 520 654 
1264 441 144 220 377 
1265 260 141 288 654 
1266 528 409 250 639 
1267 118 659 300 673 
1268 121 215 616 601 
1269 147 144 47 668 
1270 414 287 47 671 
1271 547 141 260 654 
1272 226 225 428 647 
1273 175 33 436 235 
1274 280 551 650 670 
1275 269 12 10 340 
1276 528 250 210 639 
1277 105 210 212 639 
1278 280 551 462 650 
1279 105 461 239 639 
1280 653 657 631 668 
1281 269 10 12 673 
1282 15 634 349 654 
1283 301 70 114 637 
1284 409 250 639 671 
1285 414 637 287 671 
1286 333 67 389 472 
1287 568 571 496 631 
1288 119 286 241 671 
1289 147 583 386 668 
1290 410 114 70 637 
1291 342 461 105 639 
1292 147 35 144 668 
1293 269 106 10 673 
1294 596 642 516 675 
1295 99 385 107 646 
1296 419 520 251 654 
1297 269 7 12 340 
1298 216 608 551 647 
1299 344 45 650 675 
1300 397 207 177 96 
1301 551 280 65 670 
1302 596 619 516 642 
1303 309 156 34 532 
1304 11 471 100 661 
1305 344 347 602 647 
1306 260 288 419 654 
1307 256 101 5 645 
1308 347 647 344 650 
1309 144 35 220 657 
1310 296 434 230 556 
1311 427 492 228 647 
1312 551 65 216 647 
1313 409 407 250 671 
1314 105 212 342 639 
1315 250 210 639 671 
1316 180 386 593 668 
1317 628 634 650 663 
1318 528 409 639 666 
1319 24 583 134 651 
1320 239 210 105 639 
1321 214 622 18 663 
1322 490 190 634 673 
1323 510 631 653 657 
1324 48 179 608 647 
1325 287 60 16 637 
1326 347 462 647 650 
1327 551 647 462 650 
1328 596 647 632 675 
1329 131 642 49 655 
1330 414 47 286 671 
1331 241 407 409 671 
1332 214 18 643 663 
1333 184 131 49 655 
1334 593 24 62 652 
1335 414 60 287 637 
1336 409 639 666 671 
1337 101 607 336 102 
1338 411 666 639 671 
1339 340 269 7 281 
1340 414 639 637 671 
1341 119 666 286 671 
1342 634 656 650 663 
1343 210 212 639 671 
1344 602 347 418 647 
1345 632 647 630 675 
1346 307 251 451 642 
1347 286 182 350 441 
1348 211 67 529 473 
1349 411 286 666 671 
1350 190 656 634 673 
1351 349 634 554 654 
1352 70 415 72 644 
1353 580 469 496 631 
1354 144 220 377 657 
1355 576 522 513 642 
1356 24 386 583 649 
1357 185 18 622 643 
1358 608 418 551 647 
1359 510 430 631 657 
1360 630 628 647 669 
1361 350 241 286 671 
1362 62 185 184 655 
1363 632 630 647 669 
1364 503 629 558 633 
1365 134 583 557 664 
1366 402 280 650 660 
1367 585 545 590 459 
1368 214 643 18 651 
1369 628 630 647 675 
1370 398 339 440 650 
1371 314 437 656 673 
1372 647 650 551 670 
1373 593 386 24 649 
1374 70 416 415 644 
1375 344 650 647 675 
1376 529 279 211 473 
1377 226 363 225 647 
1378 537 282 256 636 
1379 208 67 333 472 
1380 608 179 418 647 
1381 402 398 454 660 
1382 520 642 251 654 
1383 179 289 420 647 
1384 289 26 420 647 
1385 214 18 188 651 
1386 342 639 544 662 
1387 557 188 134 651 
1388 322 463 326 189 
1389 554 482 218 654 
1390 240 634 650 675 
1391 541 513 73 497 
1392 51 642 654 675 
1393 67 208 187 472 
1394 144 377 441 644 
1395 193 414 411 639 
1396 177 461 342 662 
1397 440 339 565 650 
1398 554 634 482 654 
1399 551 65 647 670 
1400 287 664 47 671 
1401 179 420 418 647 
1402 506 448 239 206 
1403 511 632 647 669 
1404 596 632 642 675 
1405 489 646 569 648 
1406 612 138 17 512 
1407 280 462 402 650 
1408 338 529 67 473 
1409 236 75 372 237 
1410 402 462 339 650 
1411 398 402 339 650 
1412 528 639 506 667 
1413 129 182 286 441 
1414 394 88 326 463 
1415 414 193 60 646 
1416 628 641 630 643 
1417 51 218 482 654 
1418 119 182 241 286 
1419 240 650 500 675 
1420 67 389 472 525 
1421 467 629 669 677 
1422 103 10 269 603 
1423 350 241 182 286 
1424 342 544 42 662 
1425 215 121 341 601 
1426 286 441 350 644 
1427 185 24 18 651 
1428 104 582 300 673 
1429 339 462 565 650 
1430 190 490 634 656 
1431 414 60 637 646 
1432 603 106 269 334 
1433 459 533 590 585 
1434 49 652 642 676 
1435 465 278 393 645 
1436 120 600 17 612 
1437 537 255 256 282 
1438 211 279 529 666 
1439 103 269 10 340 
1440 144 377 644 657 
1441 250 407 210 671 
1442 428 364 226 647 
1443 600 138 17 612 
1444 348 583 147 664 
1445 143 584 49 676 
1446 26 261 420 647 
1447 489 100 98 385 
1448 240 650 634 656 
1449 637 664 287 671 
1450 313 638 322 648 
1451 134 651 583 664 
1452 549 188 557 638 
1453 62 184 584 652 
1454 357 458 50 359 
1455 402 650 398 660 
1456 454 398 401 660 
1457 565 462 347 650 
1458 286 144 441 644 
1459 482 554 490 634 
1460 342 42 177 662 
1461 106 269 10 603 
1462 306 516 482 675 
1463 631 668 657 676 
1464 634 482 654 675 
1465 345 45 240 650 
1466 506 639 239 667 
1467 288 426 361 227 
1468 622 643 18 663 
1469 279 529 338 473 
1470 515 492 546 669 
1471 144 644 47 668 
1472 579 484 270 635 
1473 51 654 482 675 
1474 599 446 359 653 
1475 448 383 461 206 
1476 628 629 641 643 
1477 398 440 303 656 
1478 42 544 114 662 
1479 12 10 659 673 
1480 579 445 484 635 
1481 430 644 572 657 
1482 272 89 623 660 
1483 602 420 261 647 
1484 240 45 500 650 
1485 190 562 490 656 
1486 134 188 18 651 
1487 414 637 639 646 
1488 241 350 253 671 
1489 270 489 579 661 
1490 595 432 522 513 
1491 525 67 529 211 
1492 467 629 658 669 
1493 630 642 632 675 
1494 634 665 659 673 
1495 347 344 485 650 
1496 414 639 193 646 
1497 490 118 439 673 
1498 596 522 619 642 
1499 557 16 549 664 
1500 500 650 45 675 
1501 67 338 389 525 
1502 565 347 485 650 
1503 24 649 583 651 
1504 206 448 239 461 
1505 483 164 31 497 
1506 642 655 654 675 
1507 573 631 430 657 
1508 629 636 628 669 
1509 654 655 634 675 
1510 418 420 602 647 
1511 634 655 643 675 
1512 348 147 47 664 
1513 634 628 650 675 
1514 450 636 406 670 
1515 569 648 646 662 
1516 377 220 441 417 
1517 528 666 639 667 
1518 78 106 269 673 
1519 438 242 454 660 
1520 634 628 643 663 
1521 147 633 583 668 
1522 49 642 548 676 
1523 452 511 597 632 
1524 490 240 482 634 
1525 182 350 441 417 
1526 619 516 642 675 
1527 649 668 631 676 
1528 378 659 217 663 
1529 240 634 490 656 
1530 490 439 190 673 
1531 62 584 593 652 
1532 548 429 493 676 
1533 255 537 601 282 
1534 134 557 651 664 
1535 615 622 214 663 
1536 146 220 35 657 
1537 99 107 193 646 
1538 637 638 313 648 
1539 129 182 119 286 
1540 515 546 487 669 
1541 634 643 628 675 
1542 278 393 645 660 
1543 146 35 180 657 
1544 286 47 144 644 
1545 61 44 408 659 
1546 640 652 649 676 
1547 630 641 628 669 
1548 290 427 226 364 
1549 583 649 386 668 
1550 17 512 131 654 
1551 350 286 644 671 
1552 157 54 299 592 
1553 508 610 52 157 
1554 49 584 184 652 
1555 128 415 416 644 
1556 570 631 495 658 
1557 119 113 129 286 
1558 628 650 635 663 
1559 500 45 323 675 
1560 629 628 641 669 
1561 124 113 129 119 
1562 465 645 393 660 
1563 516 51 482 675 
1564 73 165 509 541 
1565 184 49 652 655 
1566 378 217 622 663 
1567 80 313 322 648 
1568 178 353 352 132 
1569 506 502 528 667 
1570 642 652 49 655 
1571 43 122 212 671 
1572 60 107 16 648 
1573 336 607 205 102 
1574 637 648 313 662 
1575 185 643 622 655 
1576 77 197 305 87 
1577 119 113 286 666 
1578 129 182 124 119 
1579 226 364 427 647 
1580 336 101 102 645 
1581 497 541 513 632 
1582 419 251 512 654 
1583 148 180 584 676 
1584 15 248 61 654 
1585 636 669 629 677 
1586 641 649 640 652 
1587 185 18 643 651 
1588 100 385 489 661 
1589 632 641 630 669 
1590 60 16 637 648 
1591 612 248 260 654 
1592 107 385 110 648 
1593 650 656 635 663 
1594 47 644 286 671 
1595 499 210 528 250 
1596 385 646 489 648 
1597 354 21 72 633 
1598 533 478 585 459 
1599 278 636 450 670 
1600 128 23 415 644 
1601 511 647 515 669 
1602 214 188 470 661 
1603 619 642 51 675 
1604 348 557 583 664 
1605 108 12 378 663 
1606 573 568 631 657 
1607 307 49 131 642 
1608 322 313 463 638 
1609 398 650 440 656 
1610 35 386 180 668 
1611 520 576 541 642 
1612 568 640 631 657 
1613 61 612 44 654 
1614 562 240 490 656 
1615 338 67 529 525 
1616 619 51 516 675 
1617 214 643 635 663 
1618 256 636 645 674 
1619 656 663 634 665 
1620 549 470 188 661 
1621 130 72 633 637 
1622 620 123 253 644 
1623 411 286 113 666 
1624 180 148 146 657 
1625 114 404 42 662 
1626 607 202 101 336 
1627 545 625 590 459 
1628 584 652 49 676 
1629 147 47 633 668 
1630 467 563 629 677 
1631 639 666 411 667 
1632 322 638 463 648 
1633 306 505 315 647 
1634 386 649 593 668 
1635 357 258 259 653 
1636 184 217 131 655 
1637 628 650 647 670 
1638 454 401 438 660 
1639 128 416 123 644 
1640 132 353 352 127 
1641 107 646 385 648 
1642 468 625 545 459 
1643 143 148 584 676 
1644 558 629 540 633 
1645 62 184 652 655 
1646 640 631 657 676 
1647 207 276 397 662 
1648 386 35 147 668 
1649 217 655 622 663 
1650 568 381 640 657 
1651 641 658 629 669 
1652 541 251 520 642 
1653 266 215 126 121 
1654 17 612 512 654 
1655 557 638 188 651 
1656 452 632 596 647 
1657 303 268 398 656 
1658 35 180 657 668 
1659 644 664 637 671 
1660 280 115 474 564 
1661 438 278 325 670 
1662 470 615 214 665 
1663 217 185 622 655 
1664 24 134 18 651 
1665 47 664 644 671 
1666 593 649 24 652 
1667 612 600 138 183 
1668 647 669 628 670 
1669 313 648 80 662 
1670 635 650 628 660 
1671 374 468 545 459 
1672 214 635 643 651 
1673 217 659 654 663 
1674 640 649 631 676 
1675 253 123 453 671 
1676 591 398 650 660 
1677 106 659 10 673 
1678 72 21 130 633 
1679 620 128 123 644 
1680 270 579 635 661 
1681 8 278 273 645 
1682 143 49 548 676 
1683 563 467 532 677 
1684 553 252 529 666 
1685 54 36 299 617 
1686 630 643 655 675 
1687 634 663 659 665 
1688 541 73 165 497 
1689 336 202 101 645 
1690 393 278 438 670 
1691 7 100 277 270 
1692 74 302 167 640 
1693 416 301 123 671 
1694 185 651 643 655 
1695 635 656 650 660 
1696 217 184 185 655 
1697 489 98 99 385 
1698 123 644 416 671 
1699 537 636 256 674 
1700 482 500 323 675 
1701 61 654 44 659 
1702 102 101 8 645 
1703 630 628 643 675 
1704 271 88 581 463 
1705 503 631 633 653 
1706 12 659 665 673 
1707 567 511 515 669 
1708 502 666 528 667 
1709 345 650 240 656 
1710 193 107 60 646 
1711 631 633 653 668 
1712 10 13 12 659 
1713 278 660 645 670 
1714 378 615 108 663 
1715 211 411 284 666 
1716 393 660 278 670 
1717 654 655 217 663 
1718 321 332 274 246 
1719 482 323 306 675 
1720 123 253 644 671 
1721 644 653 633 668 
1722 549 16 107 648 
1723 74 605 302 640 
1724 8 273 102 645 
1725 336 198 202 645 
1726 628 669 636 670 
1727 549 188 638 661 
1728 465 273 278 645 
1729 422 377 220 657 
1730 511 632 452 647 
1731 411 193 639 667 
1732 354 415 259 653 
1733 148 657 180 676 
1734 605 74 568 640 
1735 419 612 260 654 
1736 177 191 388 96 
1737 123 301 122 671 
1738 647 650 628 675 
1739 180 657 668 676 
1740 336 335 198 645 
1741 378 120 217 659 
1742 130 355 412 540 
1743 515 511 228 647 
1744 607 101 8 102 
1745 1 82 395 93 
1746 99 489 385 646 
1747 592 157 610 511 
1748 553 502 195 667 
1749 12 659 378 663 
1750 583 633 147 664 
1751 470 471 11 661 
1752 429 548 642 676 
1753 572 430 577 644 
1754 313 412 637 662 
1755 639 646 637 662 
1756 130 346 412 637 
1757 515 310 567 669 
1758 549 107 110 648 
1759 485 650 345 656 
1760 343 113 124 119 
1761 470 549 110 661 
1762 107 60 646 648 
1763 591 650 398 656 
1764 284 113 38 666 
1765 628 660 650 670 
1766 350 644 253 671 
1767 17 120 612 654 
1768 592 304 75 511 
1769 354 21 633 653 
1770 438 401 393 660 
1771 580 571 452 632 
1772 120 44 612 654 
1773 217 654 131 655 
1774 242 660 438 670 
1775 553 666 502 667 
1776 496 296 243 631 
1777 629 641 643 651 
1778 643 655 634 663 
1779 639 646 569 667 
1780 13 120 12 659 
1781 278 645 636 670 
1782 637 646 60 648 
1783 357 259 521 653 
1784 594 271 618 672 
1785 287 637 16 664 
1786 40 199 91 673 
1787 120 654 217 659 
1788 40 457 199 673 
1789 169 295 478 318 
1790 475 521 259 653 
1791 475 259 415 653 
1792 346 629 463 638 
1793 357 521 458 653 
1794 630 643 641 651 
1795 622 655 643 663 
1796 489 648 579 661 
1797 368 626 69 367 
1798 489 569 579 648 
1799 253 407 241 453 
1800 453 241 253 671 
1801 214 635 651 661 
1802 394 581 88 463 
1803 388 4 397 96 
1804 305 390 604 662 
1805 16 648 549 664 
1806 378 622 615 663 
1807 557 549 638 664 
1808 633 583 651 664 
1809 633 649 583 668 
1810 437 449 314 656 
1811 649 651 24 652 
1812 158 367 262 160 
1813 256 645 5 674 
1814 130 21 355 633 
1815 451 165 497 541 
1816 633 583 649 651 
1817 99 646 193 667 
1818 597 580 452 632 
1819 177 207 397 569 
1820 145 521 481 357 
1821 269 7 277 270 
1822 643 651 630 652 
1823 458 481 521 357 
1824 313 637 346 638 
1825 542 73 58 509 
1826 222 146 137 324 
1827 591 623 398 660 
1828 609 394 463 672 
1829 44 654 120 659 
1830 284 411 113 666 
1831 492 669 647 670 
1832 612 61 248 654 
1833 571 631 568 640 
1834 591 398 268 656 
1835 615 663 214 665 
1836 393 438 660 670 
1837 100 489 270 661 
1838 213 529 279 666 
1839 580 496 571 631 
1840 630 655 642 675 
1841 597 580 632 641 
1842 629 649 641 651 
1843 632 641 640 652 
1844 113 119 343 666 
1845 651 652 643 655 
1846 493 627 538 676 
1847 123 122 453 671 
1848 407 453 43 671 
1849 302 535 167 640 
1850 497 451 541 632 
1851 104 624 582 673 
1852 569 397 177 96 
1853 106 283 659 673 
1854 635 643 628 663 
1855 654 659 634 663 
1856 588 624 104 673 
1857 385 648 489 661 
1858 548 493 538 676 
1859 635 663 656 665 
1860 502 529 213 666 
1861 378 12 120 659 
1862 321 274 4 204 
1863 455 425 503 629 
1864 636 645 635 660 
1865 143 358 20 351 
1866 572 644 377 657 
1867 284 38 403 666 
1868 47 287 348 664 
1869 396 303 440 656 
1870 412 346 313 637 
1871 269 12 270 673 
1872 471 110 385 661 
1873 241 453 407 671 
1874 634 655 654 663 
1875 645 660 636 670 
1876 610 304 592 511 
1877 642 652 640 676 
1878 638 651 557 664 
1879 194 571 568 640 
1880 389 338 3 525 
1881 43 453 122 671 
1882 552 609 463 672 
1883 421 253 350 644 
1884 552 463 346 629 
1885 629 638 633 651 
1886 481 360 76 458 
1887 425 629 563 677 
1888 393 401 89 660 
1889 515 647 492 669 
1890 403 279 284 666 
1891 496 469 296 631 
1892 419 512 612 654 
1893 269 12 7 270 
1894 422 220 377 417 
1895 235 560 370 532 
1896 605 568 381 640 
1897 325 116 285 670 
1898 99 193 211 667 
1899 12 13 10 340 
1900 510 496 507 631 
1901 497 513 571 632 
1902 629 643 628 672 
1903 541 451 251 642 
1904 501 187 67 277 
1905 411 666 211 667 
1906 181 626 69 368 
1907 108 7 12 270 
1908 470 214 661 665 
1909 49 307 548 642 
1910 100 7 11 270 
1911 396 201 303 656 
1912 432 595 452 513 
1913 316 640 429 642 
1914 11 615 470 665 
1915 193 646 639 667 
1916 44 283 408 659 
1917 636 660 628 670 
1918 228 492 515 647 
1919 164 316 165 497 
1920 279 403 284 473 
1921 47 644 633 668 
1922 74 194 568 640 
1923 259 258 354 653 
1924 161 32 159 170 
1925 381 302 605 640 
1926 472 187 67 501 
1927 396 440 400 656 
1928 429 642 640 676 
1929 628 636 635 660 
1930 148 143 538 676 
1931 518 510 555 496 
1932 187 208 67 473 
1933 422 464 377 657 
1934 58 542 509 371 
1935 436 292 370 176 
1936 78 457 40 673 
1937 501 67 472 525 
1938 316 164 483 497 
1939 616 601 282 111 
1940 288 426 227 520 
1941 594 618 445 672 
1942 270 661 635 665 
1943 177 569 461 662 
1944 638 651 635 661 
1945 413 616 282 636 
1946 467 629 455 658 
1947 422 486 464 657 
1948 41 198 526 645 
1949 494 597 467 658 
1950 257 240 562 656 
1951 305 197 77 662 
1952 631 649 633 668 
1953 78 588 106 673 
1954 541 632 451 642 
1955 147 633 47 664 
1956 108 11 7 665 
1957 629 628 636 672 
1958 297 517 495 658 
1959 502 213 528 666 
1960 159 267 161 317 
1961 16 637 648 664 
1962 11 100 270 661 
1963 643 652 630 655 
1964 646 648 637 662 
1965 638 651 629 672 
1966 635 651 638 672 
1967 116 491 285 670 
1968 280 115 564 242 
1969 635 214 663 665 
1970 463 313 346 638 
1971 324 627 657 676 
1972 387 506 239 667 
1973 143 548 49 351 
1974 200 201 396 656 
1975 633 638 637 664 
1976 552 346 540 629 
1977 317 161 159 170 
1978 635 628 643 672 
1979 475 504 521 653 
1980 569 646 639 662 
1981 571 580 631 658 
1982 515 487 310 669 
1983 503 633 631 649 
1984 477 422 220 657 
1985 348 16 557 664 
1986 637 644 633 664 
1987 641 649 629 658 
1988 229 173 56 494 
1989 370 436 560 235 
1990 498 526 527 645 
1991 528 213 409 666 
1992 594 463 271 672 
1993 20 25 358 143 
1994 77 390 305 662 
1995 37 380 337 674 
1996 568 496 573 631 
1997 549 638 648 661 
1998 503 649 631 658 
1999 81 326 463 189 
2000 167 171 74 263 
2001 331 257 562 656 
2002 595 452 508 566 
2003 348 287 16 664 
2004 345 240 257 656 
2005 632 640 642 652 
2006 37 380 94 337 
2007 1 618 581 93 
2008 521 599 458 653 
2009 640 657 627 676 
2010 44 405 283 659 
2011 153 510 68 151 
2012 580 641 597 658 
2013 78 269 270 673 
2014 319 645 498 660 
2015 343 113 192 124 
2016 358 148 143 538 
2017 429 548 307 642 
2018 299 157 592 511 
2019 540 629 346 638 
2020 540 633 629 638 
2021 338 529 3 525 
2022 3 196 389 525 
2023 575 636 629 677 
2024 404 207 42 662 
2025 506 387 502 667 
2026 597 669 487 677 
2027 397 569 207 662 
2028 270 665 437 673 
2029 470 110 471 661 
2030 457 437 314 606 
2031 291 262 64 522 
2032 636 669 546 670 
2033 503 629 649 658 
2034 367 626 69 160 
2035 569 646 489 667 
2036 74 28 605 264 
2037 476 491 492 670 
2038 95 205 607 102 
2039 609 394 672 674 
2040 273 336 205 102 
2041 477 486 422 657 
2042 635 645 636 672 
2043 353 182 124 127 
2044 58 73 165 509 
2045 463 638 629 672 
2046 607 205 202 336 
2047 370 30 57 308 
2048 110 648 385 661 
2049 638 661 635 672 
2050 406 636 546 670 
2051 549 648 638 664 
2052 522 64 291 621 
2053 86 624 588 673 
2054 635 636 628 672 
2055 546 669 636 677 
2056 456 506 239 387 
2057 478 295 254 318 
2058 633 651 638 664 
2059 6 5 645 674 
2060 484 270 635 665 
2061 353 352 477 178 
2062 550 290 365 511 
2063 513 452 571 632 
2064 153 68 510 586 
2065 86 91 624 673 
2066 39 78 40 673 
2067 399 97 501 90 
2068 12 665 270 673 
2069 451 165 316 497 
2070 227 426 619 520 
2071 618 394 445 672 
2072 533 318 254 317 
2073 273 278 8 102 
2074 194 316 483 640 
2075 83 66 275 247 
2076 397 569 388 96 
2077 22 140 351 138 
2078 532 53 34 677 
2079 491 406 546 670 
2080 305 604 313 662 
2081 549 648 110 661 
2082 579 648 638 661 
2083 78 270 437 673 
2084 404 276 207 662 
2085 388 569 177 96 
2086 436 370 175 235 
2087 627 640 381 657 
2088 503 425 575 629 
2089 3 338 389 333 
2090 133 351 17 138 
2091 463 638 579 648 
2092 550 304 290 511 
2093 335 526 198 645 
2094 579 661 638 672 
2095 269 277 501 270 
2096 201 200 391 656 
2097 635 661 214 665 
2098 538 627 324 676 
2099 463 579 638 672 
2100 319 526 498 645 
2101 343 213 279 666 
2102 457 78 437 673 
2103 215 126 135 266 
2104 365 290 228 511 
2105 413 282 537 636 
2106 47 633 644 664 
2107 484 656 635 660 
2108 154 59 531 677 
2109 285 491 476 670 
2110 590 570 431 533 
2111 6 645 41 674 
2112 411 211 193 667 
2113 59 613 531 677 
2114 494 580 597 658 
2115 494 532 467 597 
2116 570 507 496 631 
2117 143 25 358 538 
2118 337 66 395 674 
2119 351 17 22 133 
2120 569 312 397 388 
2121 452 36 508 566 
2122 373 436 382 292 
2123 108 663 615 665 
2124 589 614 221 135 
2125 638 648 637 664 
2126 492 427 530 647 
2127 548 538 143 676 
2128 108 615 11 665 
2129 635 445 645 672 
2130 20 548 143 351 
2131 222 19 356 137 
2132 92 202 101 607 
2133 456 239 443 387 
2134 573 169 233 366 
2135 83 395 66 674 
2136 484 635 656 665 
2137 302 493 535 640 
2138 12 108 270 665 
2139 98 211 489 99 
2140 448 383 329 461 
2141 533 159 590 585 
2142 425 575 629 677 
2143 343 279 403 666 
2144 247 83 66 674 
2145 90 269 84 85 
2146 11 470 661 665 
2147 636 672 645 674 
2148 133 22 351 138 
2149 387 569 489 667 
2150 387 195 502 667 
2151 194 483 571 640 
2152 155 34 53 677 
2153 154 155 362 677 
2154 361 426 619 227 
2155 154 362 59 677 
2156 496 243 570 631 
2157 25 20 548 143 
2158 370 292 55 176 
2159 156 27 53 532 
2160 590 243 570 625 
2161 503 631 455 658 
2162 143 548 25 538 
2163 566 452 36 294 
2164 211 489 67 98 
2165 518 431 570 533 
2166 380 275 94 674 
2167 497 483 316 571 
2168 445 672 394 674 
2169 17 133 138 600 
2170 521 424 599 653 
2171 388 383 461 329 
2172 299 157 511 452 
2173 431 447 510 507 
2174 6 275 380 674 
2175 133 138 600 183 
2176 66 94 275 674 
2177 59 362 613 677 
2178 309 370 55 176 
2179 608 551 115 216 
2180 295 169 573 366 
2181 617 375 435 294 
2182 554 349 46 117 
2183 156 53 34 532 
2184 599 447 446 653 
2185 370 292 436 175 
2186 387 456 506 502 
2187 247 6 41 674 
2188 569 177 461 388 
2189 275 6 247 674 
2190 395 394 609 674 
2191 99 489 646 667 
2192 459 533 496 590 
2193 331 562 449 656 
2194 503 455 629 658 
2195 337 94 66 674 
2196 220 422 477 178 
2197 94 337 380 674 
2198 422 353 477 178 
2199 87 305 77 390 
2200 579 635 661 672 
2201 552 463 629 672 
2202 632 642 630 652 
2203 316 571 483 640 
2204 445 635 579 672 
2205 642 630 652 655 
2206 493 640 627 676 
2207 103 10 9 340 
2208 66 275 247 674 
2209 519 95 205 607 
2210 625 32 468 545 
2211 55 292 370 175 
2212 270 11 661 665 
2213 108 7 270 665 
2214 213 119 409 666 
2215 380 255 37 94 
2216 201 391 449 656 
2217 594 579 463 672 
2218 445 645 672 674 
2219 330 303 268 398 
2220 478 518 555 496 
2221 429 535 493 640 
2222 447 424 510 653 
2223 362 546 589 677 
2224 328 390 77 662 
2225 233 536 162 366 
2226 379 524 494 308 
2227 171 74 302 167 
2228 445 579 594 672 
2229 1 83 247 539 
2230 253 123 620 453 
2231 494 56 229 320 
2232 254 518 555 478 
2233 632 630 641 652 
2234 209 450 406 111 
2235 510 424 153 586 
2236 535 316 194 640 
2237 515 480 365 511 
2238 228 515 365 511 
2239 553 195 502 327 
2240 617 36 299 452 
2241 467 455 523 658 
2242 254 555 295 478 
2243 120 14 600 183 
2244 99 211 489 667 
2245 160 626 69 371 
2246 370 436 597 560 
2247 298 626 160 371 
2248 298 626 368 367 
2249 375 617 299 452 
2250 11 270 7 665 
2251 394 581 618 93 
2252 447 599 424 653 
2253 59 613 149 223 
2254 213 343 119 666 
2255 423 288 442 426 
2256 429 640 493 676 
2257 38 284 403 473 
2258 195 387 502 327 
2259 73 58 165 479 
2260 391 331 460 449 
2261 1 395 539 674 
2262 233 162 574 366 
2263 478 533 496 459 
2264 298 626 367 160 
2265 535 263 194 384 
2266 362 59 613 149 
2267 502 387 456 327 
2268 590 570 496 459 
2269 333 203 399 472 
2270 533 478 496 518 
2271 536 233 169 366 
2272 83 539 395 674 
2273 574 162 233 311 
2274 391 331 449 656 
2275 222 356 19 136 
2276 247 539 83 674 
2277 589 413 575 636 
2278 43 123 122 453 
2279 264 28 605 311 
2280 158 298 368 367 
2281 626 298 542 371 
2282 121 266 215 341 
2283 367 158 298 160 
2284 130 355 540 633 
2285 558 633 21 653 
2286 429 316 535 640 
2287 523 494 467 658 
2288 543 578 597 376 
2289 503 558 446 633 
2290 247 41 539 674 
2291 265 234 71 172 
2292 355 21 558 633 
2293 524 229 186 559 
2294 395 609 337 674 
2295 298 626 181 368 
2296 522 291 262 621 
2297 531 613 425 677 
2298 140 548 20 351 
2299 589 614 135 126 
2300 264 74 28 171 
2301 446 633 558 653 
2302 484 201 449 656 
2303 580 494 320 658 
2304 460 331 562 449 
2305 540 355 558 633 
2306 366 573 295 555 
2307 219 50 558 653 
2308 359 558 50 653 
2309 20 22 140 351 
2310 359 446 558 653 
2311 355 21 219 558 
2312 351 140 548 307 
2313 140 25 20 548 
2314 531 425 563 677 
2315 578 534 238 232 
2316 613 575 425 677 
2317 140 351 138 307 
2318 142 20 22 140 
2319 166 229 186 524 
2320 130 412 346 540 
2321 79 322 189 80 
2322 293 290 365 550 
2323 473 466 403 208 
2324 252 195 553 327 
2325 195 196 252 525 
2326 140 25 142 20 
2327 138 512 140 307 
2328 10 14 13 405 
2329 165 58 31 479 
2330 562 331 460 606 
2331 497 298 513 73 
2332 527 198 335 526 
2333 452 265 432 513 
2334 452 265 234 432 
2335 479 73 58 542 
2336 542 58 626 371 
2337 423 141 288 426 
2338 194 483 497 571 
2339 194 263 74 384 
2340 28 264 162 311 
2341 424 533 586 510 
2342 68 63 151 431 
2343 233 478 169 496 
2344 469 459 496 296 
2345 495 230 433 168 
2346 495 308 494 524 
2347 559 56 517 320 
2348 238 534 611 232 
2349 175 370 57 235 
2350 436 578 376 597 
2351 382 376 436 373 
2352 589 362 53 546 
2353 614 135 126 266 
2354 82 66 83 395 
2355 282 209 616 111 
2356 443 456 387 327 
2357 407 250 43 453 
2358 572 573 577 430 
2359 424 153 586 598 
2360 194 233 74 568 
2361 616 209 406 111 
2362 282 209 101 616 
2363 291 426 621 361 
2364 476 530 492 427 
2365 575 558 503 629 
2366 307 316 429 642 
2367 307 451 316 642 
2368 503 446 447 653 
2369 503 633 446 653 
2370 570 495 494 658 
2371 523 570 494 658 
2372 553 529 502 666 
2373 155 156 53 34 
2374 155 53 156 27 
2375 39 91 673 40 
2376 39 673 91 86 
2377 559 56 229 186 
2378 229 56 559 320 
2379 606 656 562 190 
2380 673 606 656 314 
2381 673 656 606 190 
2382 437 606 673 314 
2383 654 547 46 349 
2384 4 321 397 274 
2385 160 291 262 64 
2386 160 262 291 367 
2387 316 640 632 571 
2388 632 640 316 642 
2389 316 451 632 642 
2390 349 117 634 15 
2391 634 117 349 554 
2392 209 450 636 406 
2393 636 450 209 278 
2394 329 448 387 443 
2395 248 349 654 15 
2396 586 431 533 444 
2397 448 239 387 443 
2398 256 101 636 282 
2399 256 636 101 645 
2400 657 510 644 653 
2401 657 644 510 430 
2402 577 510 644 430 
2403 423 288 654 218 
2404 654 288 423 141 
2405 654 46 423 218 
2406 647 462 418 551 
2407 647 418 462 347 
2408 575 629 540 558 
2409 606 460 457 199 
2410 606 457 460 314 
2411 301 671 114 544 
2412 301 114 671 637 
2413 660 280 670 242 
2414 660 670 280 650 
2415 255 537 674 37 
2416 674 537 255 256 
2417 674 380 255 37 
2418 255 380 674 256 
2419 610 647 505 52 
2420 505 508 610 52 
2421 671 411 414 639 
2422 671 414 411 286 
2423 126 589 149 152 
2424 126 149 589 614 
2425 657 144 668 644 
2426 657 668 144 35 
2427 248 547 654 349 
2428 248 654 547 260 
2429 157 610 452 508 
2430 157 452 610 511 
2431 536 295 366 169 
2432 366 295 536 162 
2433 634 61 654 15 
2434 634 654 61 659 
2435 117 408 634 15 
2436 408 61 634 15 
2437 408 634 61 659 
2438 671 119 409 241 
2439 671 409 119 666 
2440 64 227 522 576 
2441 669 641 578 567 
2442 669 578 641 597 
2443 142 137 25 356 
2444 538 137 25 358 
2445 538 25 137 356 
2446 129 125 353 178 
2447 132 353 125 178 
2448 132 125 353 127 
2449 25 20 137 142 
2450 25 137 20 358 
2451 284 211 279 473 
2452 279 211 284 666 
2453 43 210 671 212 
2454 43 671 210 407 
2455 17 512 307 131 
2456 307 512 17 138 
2457 307 351 17 131 
2458 17 351 307 138 
2459 662 328 648 80 
2460 662 648 328 569 
2461 579 328 648 569 
2462 634 118 554 490 
2463 634 554 118 117 
2464 522 576 509 64 
2465 509 262 522 64 
2466 280 564 670 242 
2467 285 564 670 476 
2468 101 8 636 209 
2469 101 636 8 645 
2470 278 636 8 209 
2471 278 8 636 645 
2472 146 358 538 148 
2473 538 358 146 137 
2474 146 324 538 137 
2475 675 240 482 500 
2476 675 482 240 634 
2477 656 673 665 634 
2478 665 673 656 437 
2479 216 474 551 115 
2480 216 551 474 65 
2481 280 551 474 115 
2482 280 474 551 65 
2483 336 273 645 102 
2484 336 645 273 335 
2485 118 634 673 490 
2486 118 673 634 659 
2487 645 445 660 319 
2488 645 660 445 635 
2489 484 660 445 319 
2490 484 445 660 635 
2491 637 662 671 639 
2492 637 671 662 114 
2493 544 671 662 639 
2494 544 662 671 114 
2495 584 652 180 593 
2496 584 180 652 676 
2497 75 550 511 304 
2498 642 541 513 576 
2499 642 513 541 632 
2500 520 576 522 227 
2501 522 576 520 642 
2502 522 619 520 227 
2503 520 619 522 642 
2504 74 263 640 167 
2505 74 640 263 194 
2506 535 640 263 167 
2507 535 263 640 194 
2508 122 544 671 301 
2509 509 262 160 158 
2510 509 160 262 64 
2511 404 637 114 410 
2512 114 637 404 662 
2513 637 412 112 662 
2514 404 112 637 410 
2515 637 112 404 662 
2516 79 80 313 322 
2517 79 313 80 662 
2518 581 271 672 618 
2519 672 271 581 463 
2520 672 394 581 618 
2521 581 394 672 463 
2522 661 188 651 214 
2523 661 651 188 638 
2524 338 333 67 389 
2525 41 202 645 6 
2526 645 202 41 198 
2527 296 631 230 243 
2528 230 631 296 469 
2529 512 654 655 131 
2530 239 456 448 506 
2531 448 456 239 443 
2532 417 422 178 353 
2533 509 160 542 158 
2534 509 542 160 371 
2535 298 542 160 158 
2536 298 160 542 371 
2537 663 12 665 108 
2538 663 665 12 659 
2539 129 353 417 178 
2540 417 353 129 182 
2541 417 441 129 178 
2542 129 441 417 182 
2543 662 397 604 276 
2544 662 604 397 390 
2545 658 669 597 467 
2546 597 669 658 641 
2547 85 78 86 588 
2548 85 86 78 39 
2549 673 86 78 588 
2550 673 78 86 39 
2551 259 76 145 475 
2552 145 76 259 357 
2553 145 521 259 475 
2554 259 521 145 357 
2555 633 354 644 72 
2556 633 644 354 653 
2557 415 644 354 72 
2558 415 354 644 653 
2559 128 644 139 23 
2560 637 72 644 70 
2561 637 644 72 633 
2562 165 497 31 164 
2563 647 289 48 179 
2564 274 87 321 397 
2565 321 87 274 332 
2566 87 312 321 397 
2567 321 312 87 332 
2568 87 390 312 397 
2569 312 390 87 332 
2570 662 79 305 197 
2571 662 305 79 313 
2572 322 305 79 197 
2573 322 79 305 313 
2574 157 36 299 54 
2575 603 97 501 103 
2576 501 97 603 90 
2577 501 269 603 103 
2578 603 269 501 90 
2579 250 210 43 499 
2580 250 43 210 407 
2581 459 625 570 468 
2582 459 570 625 590 
2583 118 582 673 300 
2584 673 582 118 439 
2585 23 415 653 475 
2586 23 653 415 644 
2587 17 217 654 131 
2588 17 654 217 120 
2589 647 52 26 505 
2590 647 26 52 363 
2591 444 431 68 586 
2592 444 68 431 63 
2593 218 288 442 423 
2594 268 623 398 591 
2595 268 398 623 330 
2596 525 252 211 529 
2597 525 211 252 667 
2598 666 211 252 529 
2599 666 252 211 667 
2600 183 612 120 44 
2601 183 120 612 600 
2602 103 501 187 97 
2603 187 208 103 97 
2604 103 208 187 9 
2605 77 662 80 328 
2606 495 243 631 570 
2607 631 243 495 230 
2608 677 597 467 532 
2609 677 467 597 669 
2610 464 574 657 486 
2611 657 574 464 430 
2612 170 318 533 317 
2613 533 159 170 317 
2614 170 159 533 585 
2615 596 675 315 647 
2616 596 315 675 516 
2617 306 315 675 647 
2618 306 675 315 516 
2619 458 481 599 521 
2620 458 599 481 360 
2621 669 578 543 534 
2622 543 310 669 534 
2623 669 310 543 487 
2624 647 48 216 608 
2625 269 334 90 603 
2626 269 90 334 85 
2627 667 553 252 195 
2628 667 252 553 666 
2629 611 567 514 310 
2630 611 514 567 561 
2631 515 514 567 310 
2632 515 567 514 561 
2633 357 481 76 458 
2634 357 76 481 145 
2635 230 163 296 243 
2636 230 296 163 434 
2637 370 532 597 309 
2638 597 532 370 560 
2639 375 617 236 299 
2640 375 236 617 174 
2641 54 236 617 299 
2642 130 112 637 412 
2643 637 112 130 410 
2644 374 296 163 459 
2645 163 296 374 434 
2646 650 565 656 485 
2647 650 656 565 440 
2648 400 656 565 485 
2649 400 565 656 440 
2650 417 220 178 422 
2651 417 178 220 441 
2652 442 619 642 51 
2653 288 654 642 520 
2654 511 304 647 610 
2655 226 647 304 610 
2656 93 395 674 394 
2657 93 674 395 1 
2658 595 452 610 508 
2659 629 563 455 425 
2660 629 455 563 467 
2661 96 397 276 4 
2662 96 276 397 207 
2663 112 276 662 604 
2664 112 662 276 404 
2665 621 619 426 442 
2666 621 426 619 361 
2667 342 639 671 544 
2668 671 639 342 212 
2669 671 122 342 544 
2670 342 122 671 212 
2671 167 29 535 488 
2672 167 535 29 263 
2673 384 535 29 488 
2674 384 29 535 263 
2675 588 85 269 334 
2676 269 85 588 78 
2677 269 106 588 334 
2678 588 106 269 78 
2679 388 397 321 312 
2680 388 321 397 4 
2681 621 361 64 291 
2682 578 238 669 567 
2683 669 238 578 534 
2684 458 653 359 357 
2685 359 653 458 599 
2686 204 191 321 249 
2687 388 321 191 249 
2688 546 670 492 491 
2689 492 670 546 669 
2690 670 242 325 438 
2691 564 325 242 438 
2692 525 252 3 196 
2693 525 3 252 529 
2694 662 461 639 569 
2695 662 639 461 342 
2696 5 380 674 6 
2697 5 674 380 256 
2698 14 13 659 120 
2699 14 659 13 405 
2700 44 14 659 120 
2701 44 659 14 405 
2702 183 14 44 120 
2703 183 44 14 405 
2704 589 121 215 616 
2705 215 121 589 126 
2706 215 413 589 616 
2707 645 335 465 273 
2708 258 219 653 50 
2709 258 653 219 354 
2710 448 239 667 387 
2711 667 239 448 639 
2712 483 73 31 479 
2713 483 31 73 497 
2714 165 31 73 479 
2715 165 73 31 497 
2716 573 295 496 169 
2717 573 496 295 555 
2718 478 496 295 169 
2719 478 295 496 555 
2720 606 460 656 314 
2721 606 656 460 562 
2722 449 656 460 314 
2723 449 460 656 562 
2724 361 64 522 621 
2725 522 64 361 227 
2726 522 619 361 621 
2727 361 619 522 227 
2728 204 96 321 191 
2729 204 321 96 4 
2730 388 321 96 191 
2731 388 96 321 4 
2732 264 162 233 536 
2733 264 233 162 311 
2734 6 92 101 5 
2735 101 92 6 202 
2736 101 645 6 5 
2737 6 645 101 202 
2738 220 137 222 146 
2739 220 222 137 19 
2740 388 177 249 191 
2741 461 249 177 191 
2742 426 619 642 442 
2743 642 619 426 520 
2744 642 288 426 442 
2745 426 288 642 520 
2746 181 298 265 172 
2747 181 265 298 368 
2748 158 298 265 368 
2749 320 297 658 517 
2750 431 510 68 586 
2751 452 157 36 299 
2752 452 36 157 508 
2753 662 177 207 42 
2754 662 207 177 569 
2755 633 629 649 503 
2756 633 649 629 651 
2757 620 139 644 244 
2758 644 139 620 128 
2759 483 164 384 31 
2760 29 384 164 31 
2761 29 164 384 488 
2762 545 170 159 32 
2763 159 170 545 585 
2764 545 590 159 585 
2765 495 517 168 433 
2766 463 326 271 88 
2767 463 271 326 594 
2768 81 271 326 88 
2769 81 326 271 594 
2770 163 570 625 468 
2771 625 570 163 243 
2772 374 459 570 468 
2773 163 374 570 468 
2774 580 632 658 571 
2775 580 658 632 641 
2776 631 658 640 571 
2777 658 632 640 571 
2778 658 640 632 641 
2779 308 560 494 379 
2780 580 560 494 597 
2781 652 641 651 630 
2782 652 651 641 649 
2783 377 421 644 572 
2784 507 496 518 570 
2785 518 496 507 510 
2786 518 431 507 570 
2787 507 431 518 510 
2788 413 282 601 537 
2789 601 282 413 616 
2790 601 215 413 537 
2791 413 215 601 616 
2792 253 244 644 421 
2793 253 644 244 620 
2794 202 519 607 92 
2795 607 519 202 205 
2796 660 398 89 623 
2797 660 89 398 401 
2798 330 89 398 623 
2799 330 398 89 401 
2800 672 651 643 635 
2801 672 643 651 629 
2802 307 49 351 131 
2803 307 351 49 548 
2804 578 376 534 232 
2805 578 534 376 543 
2806 382 534 376 232 
2807 382 376 534 543 
2808 345 344 650 485 
2809 345 650 344 45 
2810 192 38 343 403 
2811 192 343 38 113 
2812 666 343 38 403 
2813 666 38 343 113 
2814 395 1 83 82 
2815 83 1 395 539 
2816 677 154 34 531 
2817 677 34 154 155 
2818 617 452 294 36 
2819 294 452 617 375 
2820 163 459 570 374 
2821 496 533 570 590 
2822 496 570 533 518 
2823 237 236 480 245 
2824 365 480 550 511 
2825 660 656 591 484 
2826 660 591 656 650 
2827 494 56 658 173 
2828 494 658 56 320 
2829 517 658 56 173 
2830 517 56 658 320 
2831 27 292 436 176 
2832 220 222 178 477 
2833 220 178 222 19 
2834 352 178 222 477 
2835 647 530 216 48 
2836 524 379 186 166 
2837 524 186 379 559 
2838 597 532 156 309 
2839 156 532 597 27 
2840 200 400 656 396 
2841 656 400 200 257 
2842 153 510 447 424 
2843 447 510 153 151 
2844 575 589 223 221 
2845 613 575 223 221 
2846 135 215 589 126 
2847 589 215 135 413 
2848 412 604 662 313 
2849 662 604 412 112 
2850 233 311 605 568 
2851 605 311 233 264 
2852 605 74 233 568 
2853 233 74 605 264 
2854 397 312 662 390 
2855 397 662 312 569 
2856 328 662 312 390 
2857 328 312 662 569 
2858 215 601 255 537 
2859 255 601 215 341 
2860 255 37 215 537 
2861 215 37 255 341 
2862 514 561 480 515 
2863 480 561 514 231 
2864 480 365 514 515 
2865 514 365 480 231 
2866 21 219 653 354 
2867 21 653 219 558 
2868 589 636 677 546 
2869 677 636 589 575 
2870 91 582 673 439 
2871 91 673 582 624 
2872 636 589 616 546 
2873 636 616 589 413 
2874 230 297 296 556 
2875 296 297 230 469 
2876 292 543 436 382 
2877 292 436 543 487 
2878 597 543 436 487 
2879 254 478 533 518 
2880 254 533 478 318 
2881 625 159 545 590 
2882 625 545 159 32 
2883 244 504 644 577 
2884 644 504 244 139 
2885 656 268 201 303 
2886 594 463 81 326 
2887 331 200 656 391 
2888 331 656 200 257 
2889 151 447 150 153 
2890 151 150 447 599 
2891 230 556 495 297 
2892 230 495 556 168 
2893 517 495 556 297 
2894 517 556 495 168 
2895 55 373 175 33 
2896 55 175 373 292 
2897 436 175 373 33 
2898 436 373 175 292 
2899 48 224 647 530 
2900 48 647 224 289 
2901 225 224 647 289 
2902 537 337 674 37 
2903 537 674 337 609 
2904 28 302 74 605 
2905 74 302 28 171 
2906 555 577 430 510 
2907 555 430 577 573 
2908 631 555 430 510 
2909 631 430 555 573 
2910 496 555 631 510 
2911 496 631 555 573 
2912 524 433 494 495 
2913 524 494 433 229 
2914 173 433 494 229 
2915 146 222 657 324 
2916 627 657 222 324 
2917 627 222 657 477 
2918 477 381 657 627 
2919 477 657 381 486 
2920 403 279 338 473 
2921 338 279 403 109 
2922 338 466 403 473 
2923 403 466 338 109 
2924 472 208 399 333 
2925 466 208 399 97 
2926 208 67 338 333 
2927 208 399 338 466 
2928 338 399 208 333 
2929 45 602 675 344 
2930 45 675 602 323 
2931 647 675 602 344 
2932 645 527 660 465 
2933 645 660 527 498 
2934 272 660 527 465 
2935 272 527 660 498 
2936 588 283 673 104 
2937 673 283 588 106 
2938 449 270 656 437 
2939 449 656 270 484 
2940 665 656 270 437 
2941 665 270 656 484 
2942 190 91 673 439 
2943 190 673 91 199 
2944 660 498 484 272 
2945 660 484 498 319 
2946 591 498 484 319 
2947 257 485 656 400 
2948 656 485 257 345 
2949 89 465 660 272 
2950 89 660 465 393 
2951 402 242 660 454 
2952 402 660 242 280 
2953 567 480 515 511 
2954 567 515 480 561 
2955 285 564 65 474 
2956 285 65 564 476 
2957 280 65 564 474 
2958 363 289 647 26 
2959 363 647 289 225 
2960 505 261 647 306 
2961 505 647 261 26 
2962 610 363 647 52 
2963 610 647 363 226 
2964 617 372 236 54 
2965 617 236 372 174 
2966 432 435 294 369 
2967 450 325 670 116 
2968 450 670 325 278 
2969 647 304 427 226 
2970 290 427 304 226 
2971 566 432 452 294 
2972 452 432 566 595 
2973 298 73 158 513 
2974 298 158 73 542 
2975 509 73 158 542 
2976 158 522 513 262 
2977 222 538 137 356 
2978 137 538 222 324 
2979 486 605 568 381 
2980 568 605 486 311 
2981 568 657 486 381 
2982 627 302 640 493 
2983 627 640 302 381 
2984 366 430 233 573 
2985 366 233 430 574 
2986 533 510 431 586 
2987 431 510 533 518 
2988 377 430 657 464 
2989 377 657 430 572 
2990 496 233 573 169 
2991 496 573 233 568 
2992 478 170 533 585 
2993 478 533 170 318 
2994 166 524 308 30 
2995 308 524 166 379 
2996 308 57 166 30 
2997 166 57 308 379 
2998 469 320 631 580 
2999 658 631 320 580 
3000 53 292 436 27 
3001 436 292 53 487 
3002 53 436 597 27 
3003 597 436 53 487 
3004 53 597 532 27 
3005 235 532 308 560 
3006 308 379 235 560 
3007 235 379 308 57 
3008 532 531 677 34 
3009 677 531 532 563 
3010 406 116 670 491 
3011 406 670 116 450 
3012 135 575 589 413 
3013 135 589 575 221 
3014 636 672 537 413 
3015 552 672 537 609 
3016 552 537 672 413 
3017 239 639 528 210 
3018 528 639 239 506 
3019 528 499 239 210 
3020 239 499 528 506 
3021 421 417 644 350 
3022 421 644 417 377 
3023 441 644 417 350 
3024 441 417 644 377 
3025 244 572 644 421 
3026 644 572 244 577 
3027 521 510 653 504 
3028 521 653 510 424 
3029 631 455 653 503 
3030 447 653 455 503 
3031 397 305 390 604 
3032 390 305 397 87 
3033 274 246 204 321 
3034 274 204 246 392 
3035 321 329 383 388 
3036 383 329 321 2 
3037 383 249 321 388 
3038 321 249 383 2 
3039 505 595 610 508 
3040 234 299 375 587 
3041 234 375 299 452 
3042 294 375 432 452 
3043 432 234 375 587 
3044 432 375 234 452 
3045 540 413 629 575 
3046 540 629 413 552 
3047 672 413 629 552 
3048 203 399 269 84 
3049 90 399 269 501 
3050 90 269 399 84 
3051 592 75 299 511 
3052 455 658 507 523 
3053 455 507 658 631 
3054 570 507 658 523 
3055 570 658 507 631 
3056 589 362 575 152 
3057 589 575 362 677 
3058 613 362 575 677 
3059 533 159 431 590 
3060 647 530 65 216 
3061 283 659 104 408 
3062 283 104 659 673 
3063 300 104 659 408 
3064 300 659 104 673 
3065 79 77 662 80 
3066 79 662 77 197 
3067 158 262 73 509 
3068 158 73 262 513 
3069 262 522 73 509 
3070 262 73 522 513 
3071 576 541 73 509 
3072 576 73 541 513 
3073 522 576 73 509 
3074 522 73 576 513 
3075 444 533 63 431 
3076 159 63 533 431 
3077 648 80 594 81 
3078 648 463 594 579 
3079 594 463 648 81 
3080 481 424 599 521 
3081 357 50 653 359 
3082 357 653 50 258 
3083 469 230 495 297 
3084 469 495 230 631 
3085 658 469 495 297 
3086 658 495 469 631 
3087 320 469 658 297 
3088 320 658 469 631 
3089 149 589 575 152 
3090 575 589 149 223 
3091 149 613 575 223 
3092 103 269 187 501 
3093 277 187 269 501 
3094 277 269 187 281 
3095 299 75 54 236 
3096 299 54 75 592 
3097 372 54 75 236 
3098 372 75 54 592 
3099 676 649 180 652 
3100 676 180 649 668 
3101 593 180 649 652 
3102 593 649 180 668 
3103 513 298 265 158 
3104 435 375 432 294 
3105 435 432 375 587 
3106 362 149 575 152 
3107 575 149 362 613 
3108 298 265 452 513 
3109 677 53 669 487 
3110 677 669 53 155 
3111 546 669 53 487 
3112 431 151 510 447 
3113 431 510 151 68 
3114 649 658 640 631 
3115 640 658 649 641 
3116 229 320 524 494 
3117 229 524 320 559 
3118 136 222 178 19 
3119 178 222 136 352 
3120 178 132 136 19 
3121 136 132 178 352 
3122 223 614 589 149 
3123 223 589 614 221 
3124 656 591 201 268 
3125 656 201 591 484 
3126 449 591 201 484 
3127 269 472 399 203 
3128 399 472 269 501 
3129 387 501 667 489 
3130 667 501 387 525 
3131 67 211 667 489 
3132 667 211 67 525 
3133 501 67 667 489 
3134 667 67 501 525 
3135 660 623 484 591 
3136 660 484 623 272 
3137 498 484 623 591 
3138 498 623 484 272 
3139 234 298 265 452 
3140 234 265 298 172 
3141 432 158 513 265 
3142 513 158 432 522 
3143 317 444 159 267 
3144 317 159 444 533 
3145 63 159 444 267 
3146 63 444 159 533 
3147 594 328 648 579 
3148 648 328 594 80 
3149 476 530 670 492 
3150 476 670 530 65 
3151 647 670 530 492 
3152 647 530 670 65 
3153 408 300 634 659 
3154 408 634 300 117 
3155 118 634 300 659 
3156 118 300 634 117 
3157 606 673 457 437 
3158 632 316 497 451 
3159 497 316 632 571 
3160 659 106 405 283 
3161 10 405 659 106 
3162 10 659 405 13 
3163 547 423 654 46 
3164 547 654 423 141 
3165 510 644 504 577 
3166 510 504 644 653 
3167 71 435 432 369 
3168 432 265 71 369 
3169 71 265 432 234 
3170 452 647 610 511 
3171 301 637 416 70 
3172 301 416 637 671 
3173 644 416 637 70 
3174 644 637 416 671 
3175 578 641 511 567 
3176 669 641 511 632 
3177 669 511 641 567 
3178 511 597 641 578 
3179 641 597 511 632 
3180 125 353 182 129 
3181 125 182 353 127 
3182 124 125 182 129 
3183 124 182 125 127 
3184 192 124 125 127 
3185 538 146 657 324 
3186 657 146 538 148 
3187 657 676 538 324 
3188 538 676 657 148 
3189 362 677 669 546 
3190 669 677 362 155 
3191 669 53 362 546 
3192 362 53 669 155 
3193 9 187 269 281 
3194 269 187 9 103 
3195 269 340 9 281 
3196 9 340 269 103 
3197 530 364 647 427 
3198 651 185 652 655 
3199 651 652 185 24 
3200 62 652 185 655 
3201 62 185 652 24 
3202 512 307 642 251 
3203 512 654 642 655 
3204 642 654 512 251 
3205 131 642 512 307 
3206 131 512 642 655 
3207 636 209 616 101 
3208 406 616 636 209 
3209 406 636 616 546 
3210 442 218 654 288 
3211 654 218 442 51 
3212 654 642 442 288 
3213 442 642 654 51 
3214 606 199 673 190 
3215 673 199 606 457 
3216 543 669 597 578 
3217 597 669 543 487 
3218 527 645 335 465 
3219 527 335 645 526 
3220 570 163 496 459 
3221 570 496 163 243 
3222 296 496 163 459 
3223 296 163 496 243 
3224 364 647 224 530 
3225 224 428 647 364 
3226 647 428 224 225 
3227 647 452 315 596 
3228 595 315 452 596 
3229 513 452 596 595 
3230 513 522 596 642 
3231 596 522 513 595 
3232 632 596 513 452 
3233 632 513 596 642 
3234 611 534 567 310 
3235 611 567 534 238 
3236 669 567 534 310 
3237 669 534 567 238 
3238 433 494 658 173 
3239 658 494 433 495 
3240 658 517 433 173 
3241 433 517 658 495 
3242 564 325 670 242 
3243 670 325 564 285 
3244 322 80 463 189 
3245 322 463 80 648 
3246 81 463 80 189 
3247 81 80 463 648 
3248 113 125 124 129 
3249 113 124 125 192 
3250 461 249 388 177 
3251 388 249 461 383 
3252 346 637 540 638 
3253 346 540 637 130 
3254 633 540 637 638 
3255 633 637 540 130 
3256 164 384 316 483 
3257 164 316 384 488 
3258 194 316 384 483 
3259 195 525 667 387 
3260 195 667 525 252 
3261 384 535 316 194 
3262 384 316 535 488 
3263 475 504 145 521 
3264 653 139 644 23 
3265 644 139 653 504 
3266 475 145 139 23 
3267 139 145 475 504 
3268 653 475 139 23 
3269 139 475 653 504 
3270 560 494 532 308 
3271 560 532 494 597 
3272 560 494 320 580 
3273 277 67 489 98 
3274 489 67 277 501 
3275 489 100 277 98 
3276 277 270 489 501 
3277 277 489 270 100 
3278 308 370 235 57 
3279 308 235 370 532 
3280 480 550 231 365 
3281 293 231 550 365 
3282 480 237 231 550 
3283 480 231 237 245 
3284 293 231 237 550 
3285 293 237 231 245 
3286 436 27 156 597 
3287 156 27 436 176 
3288 436 156 309 597 
3289 309 156 436 176 
3290 436 309 370 597 
3291 370 309 436 176 
3292 481 360 150 598 
3293 481 150 360 599 
3294 447 150 424 599 
3295 424 481 150 598 
3296 424 150 481 599 
3297 591 391 201 268 
3298 201 391 591 449 
3299 543 436 376 597 
3300 543 376 436 382 
3301 153 150 424 447 
3302 153 424 150 598 
3303 222 657 220 146 
3304 222 220 657 477 
3305 208 399 187 472 
3306 208 187 399 97 
3307 501 187 399 472 
3308 501 399 187 97 
3309 338 208 473 67 
3310 473 208 338 466 
3311 306 675 261 647 
3312 306 261 675 323 
3313 602 261 675 647 
3314 602 675 261 323 
3315 65 564 670 280 
3316 65 670 564 476 
3317 587 71 432 234 
3318 587 432 71 435 
3319 290 427 647 304 
3320 647 427 290 228 
3321 647 511 290 304 
3322 290 511 647 228 
3323 657 430 233 574 
3324 657 486 311 568 
3325 311 486 657 574 
3326 233 657 311 568 
3327 311 657 233 574 
3328 657 573 233 430 
3329 233 573 657 568 
3330 53 597 677 532 
3331 53 677 597 487 
3332 672 537 674 636 
3333 672 674 537 609 
3334 645 319 539 445 
3335 645 674 539 41 
3336 539 674 645 445 
3337 526 645 539 41 
3338 526 539 645 319 
3339 618 394 539 445 
3340 674 539 394 445 
3341 1 674 394 93 
3342 394 674 1 539 
3343 394 618 1 93 
3344 1 618 394 539 
3345 387 667 388 569 
3346 667 639 388 569 
3347 639 461 388 569 
3348 387 329 667 448 
3349 667 329 387 388 
3350 329 639 667 448 
3351 667 639 329 388 
3352 329 461 639 448 
3353 639 461 329 388 
3354 447 510 631 653 
3355 631 510 447 507 
3356 631 455 447 653 
3357 447 455 631 507 
3358 2 321 204 246 
3359 204 321 2 249 
3360 204 392 2 246 
3361 2 392 204 249 
3362 505 595 452 610 
3363 452 595 505 315 
3364 452 647 505 610 
3365 505 647 452 315 
3366 524 559 494 320 
3367 524 494 559 379 
3368 560 494 559 320 
3369 560 559 494 379 
3370 413 629 636 672 
3371 413 636 629 575 
3372 480 550 75 237 
3373 75 550 480 511 
3374 480 299 75 511 
3375 236 75 480 299 
3376 236 480 75 237 
$EndElements
