$MeshFormat
4.1 0 8
$EndMeshFormat
$Entities
0 0 1 1
1 -0.050735 -0.012708 -0.02571 0.03364500000000001 0.08303300000000001 0.058416 0 0 
1 -0.050735 -0.012708 -0.02571 0.03364500000000001 0.08303300000000001 0.058416 0 1 1 
$EndEntities
$Nodes
2 676 1 676
2 1 0 627
1
2
3
4
5
6
7
8
9
10
11
12
13
14
15
16
17
18
19
20
21
22
23
24
25
26
27
28
29
30
31
32
33
34
35
36
37
38
39
40
41
42
43
44
45
46
47
48
49
50
51
52
53
54
55
56
57
58
59
60
61
62
63
64
65
66
67
68
69
70
71
72
73
74
75
76
77
78
79
80
81
82
83
84
85
86
87
88
89
90
91
92
93
94
95
96
97
98
99
100
101
102
103
104
105
106
107
108
109
110
111
112
113
114
115
116
117
118
119
120
121
122
123
124
125
126
127
128
129
130
131
132
133
134
135
136
137
138
139
140
141
142
143
144
145
146
147
148
149
150
151
152
153
154
155
156
157
158
159
160
161
162
163
164
165
166
167
168
169
170
171
172
173
174
175
176
177
178
179
180
181
182
183
184
185
186
187
188
189
190
191
192
193
194
195
196
197
198
199
200
201
202
203
204
205
206
207
208
209
210
211
212
213
214
215
216
217
218
219
220
221
222
223
224
225
226
227
228
229
230
231
232
233
234
235
236
237
238
239
240
241
242
243
244
245
246
247
248
249
250
251
252
253
254
255
256
257
258
259
260
261
262
263
264
265
266
267
268
269
270
271
272
273
274
275
276
277
278
279
280
281
282
283
284
285
286
287
288
289
290
291
292
293
294
295
296
297
298
299
300
301
302
303
304
305
306
307
308
309
310
311
312
313
314
315
316
317
318
319
320
321
322
323
324
325
326
327
328
329
330
331
332
333
334
335
336
337
338
339
340
341
342
343
344
345
346
347
348
349
350
351
352
353
354
355
356
357
358
359
360
361
362
363
364
365
366
367
368
369
370
371
372
373
374
375
376
377
378
379
380
381
382
383
384
385
386
387
388
389
390
391
392
393
394
395
396
397
398
399
400
401
402
403
404
405
406
407
408
409
410
411
412
413
414
415
416
417
418
419
420
421
422
423
424
425
426
427
428
429
430
431
432
433
434
435
436
437
438
439
440
441
442
443
444
445
446
447
448
449
450
451
452
453
454
455
456
457
458
459
460
461
462
463
464
465
466
467
468
469
470
471
472
473
474
475
476
477
478
479
480
481
482
483
484
485
486
487
488
489
490
491
492
493
494
495
496
497
498
499
500
501
502
503
504
505
506
507
508
509
510
511
512
513
514
515
516
517
518
519
520
521
522
523
524
525
526
527
528
529
530
531
532
533
534
535
536
537
538
539
540
541
542
543
544
545
546
547
548
549
550
551
552
553
554
555
556
557
558
559
560
561
562
563
564
565
566
567
568
569
570
571
572
573
574
575
576
577
578
579
580
581
582
583
584
585
586
587
588
589
590
591
592
593
594
595
596
597
598
599
600
601
602
603
604
605
606
607
608
609
610
611
612
613
614
615
616
617
618
619
620
621
622
623
624
625
626
627
0.01607 0.060038 -0.023321
0.01995800000000001 -0.008530000000000001 -0.024074
-0.020613 -0.003114 -0.018289
0.025737 -0.003461000000000001 -0.018298
0.007252 0.07543800000000001 -0.013594
0.007469000000000001 0.07309400000000002 -0.017462
-0.018646 0.019466 -0.010966
-0.00385 0.07753200000000002 -0.011075
-0.0242 0.013552 -0.008470999999999999
-0.029106 0.016469 -0.007233999999999999
-0.015463 0.021549 -0.010182
-0.022882 0.020801 -0.005834
-0.028464 0.016965 -0.002656
-0.029404 0.016339 0.0003550000000000001
-0.039727 0.023573 0.004425
-0.003338 0.015175 -0.003259
-0.027132 0.015956 0.006636
-0.011286 0.022845 0.004369
-0.017892 0.001473 0.008048
-0.024792 0.00976 0.011098
0.024903 0.008966999999999999 0.003646
-0.026993 0.011392 0.009915
0.016159 -0.008726999999999999 0.005009
-0.008794999999999999 0.019719 0.009500000000000001
-0.024373 0.007186000000000001 0.012893
-0.045739 0.07109000000000001 0.022453
0.017443 0.08167100000000001 0.038322
-0.01248 -0.005903 0.05073300000000001
-0.023585 0.011526 0.05354300000000001
0.024509 0.06179399999999999 0.048341
-0.026878 0.014887 0.05403700000000001
0.032878 -0.004139 0.048177
0.02002 0.07899900000000001 0.05210300000000001
0.020212 0.07858100000000001 0.03261100000000001
-0.006193000000000001 0.008376000000000001 0.01233
-0.047187 0.061496 0.052227
0.016938 0.073889 -0.009894000000000002
-0.01542 0.001432 -0.004291
-0.041036 0.021822 -0.017546
-0.041754 0.02472 -0.017838
0.005396 0.06989400000000001 -0.021254
0.018859 0.002926 -0.01028
0.008055 -0.009676000000000002 -0.004385
-0.032766 0.017688 0.003422
-0.046983 0.055661 0.005448000000000001
-0.047417 0.028113 0.007523
-0.002644 0.008881 0.006174
-0.038957 0.08167000000000001 0.014825
-0.018479 0.017052 0.011882
0.027006 0.005058 0.007554999999999999
-0.04811700000000001 0.029248 0.021147
-0.045168 0.07069200000000002 0.031577
0.015206 0.08199100000000001 0.035614
-0.043401 0.06742600000000001 0.05435000000000001
0.021583 0.080084 0.04983600000000001
0.025948 0.044362 0.050044
0.023133 0.064384 0.05069700000000001
-0.035893 0.020169 0.05506399999999999
0.018192 0.08000699999999999 0.019579
-0.003868 0.01252 -0.006859000000000001
-0.03711800000000001 0.021634 0.004027
-0.01268 0.01947100000000001 0.010693
0.031396 -0.007946000000000002 0.034196
-0.045227 0.021201 0.041926
-0.030189 0.08289100000000001 0.004436
0.017815 0.067855 -0.018976
-0.014094 0.009186000000000001 -0.011501
0.029914 -0.009414 0.028853
-0.048408 0.022891 0.056322
0.018736 0.002766 -0.001085
-0.048477 0.04131000000000001 0.057865
0.020837 0.004991 0.001492
-0.032086 0.023526 0.056504
-0.011783 -0.000755 0.05364600000000001
-0.038385 0.07412800000000001 0.05369600000000001
0.026528 -0.007907000000000001 0.004943
0.023059 0.01378 -0.024777
-0.035857 0.02171 -0.019264
0.021943 0.026524 -0.024077
0.019895 0.028623 -0.024541
0.020396 0.033866 -0.024201
0.018111 0.06210300000000001 -0.022015
0.017 0.066437 -0.021908
-0.029507 0.011886 -0.018535
-0.031822 0.01462 -0.018262
-0.04310600000000001 0.021584 -0.014442
0.025876 0.007914000000000001 -0.022216
0.020944 0.04307900000000001 -0.022409
-0.022675 0.06989600000000001 -0.017128
-0.030018 0.011436 -0.015468
-0.04508399999999999 0.024695 -0.013814
0.003668 0.07862900000000002 -0.014925
0.018994 0.058447 -0.021622
0.016022 0.07249800000000001 -0.01392
-0.001117 0.081084 -0.014181
0.023674 -0.005449000000000001 -0.016219
-0.026606 0.007548 -0.011928
-0.011594 0.01271 -0.012777
-0.008279000000000002 0.011949 -0.011752
-0.014432 0.017508 -0.012841
0.002337 0.077158 -0.011163
-0.003642 0.07764400000000002 -0.012718
-0.028063 0.012108 -0.010386
-0.042975 0.021286 -0.005201
0.011334 -0.008827 -0.012455
-0.033038 0.016634 -0.009379000000000002
-0.005074 0.01479 -0.009212000000000001
-0.019167 0.022289 -0.007027
-0.01930800000000001 -0.001678 -0.007826000000000001
-0.007297 0.01902 -0.009232000000000002
0.001297 0.081942 -0.007023000000000001
0.024562 0.010129 -0.01063
-0.012774 0.000998 -0.001598
0.01699 0.002377 -0.007474
-0.03419200000000001 0.080829 0.000454
-0.012073 0.082639 -0.004301
-0.045769 0.027361 0.003025
-0.046755 0.029324 -0.00011
-0.008139 -0.006287 -0.001681
-0.028061 0.01745500000000001 0.0023
0.013573 0.08303300000000001 -0.004151
0.010473 -0.007539 -0.004378
0.01108 -0.008288 -0.000469
-0.011307 -0.004998 -0.000348
-0.013388 -2.5e-05 0.002677
0.015382 0.08256000000000001 0.001557
-0.014005 -0.002717 0.001915
0.012807 -0.00843 0.002215
-0.011367 0.001286 0.002743
0.024945 0.011137 0.0003930000000000001
-0.023126 0.019239 0.009341
-0.015052 -0.001177 0.004191
-0.029497 0.014005 0.008333
-0.007199000000000001 0.019411 0.005533999999999999
0.018519 0.07899900000000001 0.003712
-0.018625 -0.001269 0.007837
-0.018779 0.003539 0.009457
-0.029837 0.01429 0.008904
0.016098 -0.010336 0.007002
-0.027351 0.011019 0.011649
-0.045186 0.021993 0.013732
-0.025987 0.008924999999999999 0.011938
-0.017947 0.011901 0.012541
-0.004758 0.006498 0.009241000000000001
0.024696 -0.010037 0.006196
-0.012251 0.005883000000000001 0.012635
-0.00428 0.01246 0.010009
-0.012947 0.007568 0.013483
0.016669 0.081362 0.014518
0.028867 -0.007727 0.014472
0.030199 -0.00694 0.022906
0.014117 0.082367 0.013398
0.029163 -0.008777 0.01962
0.018528 0.08056400000000001 0.026183
0.017199 0.081538 0.028028
0.020053 0.080082 0.038145
-0.043281 0.070657 0.04801800000000001
-0.050735 0.027056 0.050948
0.033645 -0.007039 0.044055
-0.047007 0.020841 0.05266000000000001
0.032806 -0.008919999999999999 0.046436
-0.002316 -0.010802 0.049928
0.032072 0.007937000000000001 0.046825
-0.027848 0.014172 0.05214800000000001
-0.032796 0.017338 0.052268
0.02525 0.05481100000000001 0.04935900000000001
-0.019685 0.004468000000000001 0.05167300000000001
0.028893 0.026267 0.048874
0.004982 -0.009753 0.051555
0.030565 -0.008636000000000001 0.0491
-0.014533 -0.002539 0.05233200000000001
-0.047731 0.033055 0.057974
0.027021 0.039095 0.04921900000000001
-0.040011 0.06915400000000001 0.057366
0.022056 0.07652900000000001 0.05071200000000001
0.020326 0.080941 0.044773
0.016886 -0.005478 -0.01314
-0.012621 0.001175 0.006213999999999999
-0.04104 0.07962000000000002 0.014038
-0.00976 0.010517 0.014113
-0.048661 0.027278 0.057437
-0.008827 -0.006228 0.001218
-0.031029 0.015914 0.005303
-0.017284 0.01946000000000001 0.01048
-0.014293 0.022303 0.007606
0.024605 0.050493 0.05061000000000001
-0.020256 0.009702000000000001 -0.009532000000000002
-0.006754 0.020906 -0.001772
0.022645 0.031281 -0.022661
-0.04633 0.03526199999999999 -0.012077
0.021939 -0.007549 -0.017073
-0.014043 -0.001034 -0.001618
-0.00567 0.009457999999999999 -0.008917999999999999
-0.016369 0.012471 0.05474200000000001
-0.009159 -0.005691 -0.022476
-0.018012 -0.003585 -0.020723
0.024051 0.019698 -0.023123
-0.001519 0.07303100000000001 -0.020028
-0.043964 0.030906 -0.015896
-0.043596 0.052005 -0.016367
-0.039931 0.056799 -0.017061
0.002511 0.076458 -0.017162
-0.027113 0.007858 -0.018854
0.025329 -0.006935999999999999 -0.020294
-0.0009220000000000002 0.078517 -0.015698
0.010065 -0.010157 -0.020426
0.022102 0.00446 -0.011887
-0.021895 0.006336 -0.008996000000000001
-0.001476 0.07873700000000002 -0.009578000000000001
0.006167000000000001 -0.010859 -0.010286
-0.010034 0.007656 -0.010452
0.009477000000000001 -0.009218 -0.007879000000000001
-0.008540000000000001 -0.009150999999999999 -0.007293999999999999
-0.010465 0.023106 -0.003041
0.018019 0.07958600000000002 -0.00282
-0.035115 0.081884 0.006941
-0.021508 0.021871 0.005793
-0.04835100000000001 0.028275 0.012868
0.026154 0.006203999999999999 0.006183000000000001
-0.010275 0.00304 0.010189
0.01845500000000001 0.07822100000000003 0.008848
-0.01863 -0.003508 0.011378
0.017964 0.07981400000000001 0.014238
-0.040201 0.08126100000000001 0.020207
-0.041557 0.07675600000000002 0.025538
-0.036888 0.08070500000000001 0.031383
-0.044116 0.021177 0.03002
-0.028981 0.08206200000000001 0.041909
0.026181 0.049915 0.048141
0.029927 0.023905 0.046866
-0.025247 0.080968 0.055822
0.003206 0.08012500000000002 0.053455
-0.0006630000000000001 -0.005951 0.05269700000000001
-0.045703 0.04060300000000001 0.058416
0.021151 0.06873900000000001 0.05183100000000001
-0.03711900000000001 0.07019800000000001 0.057971
-0.033217 0.07660400000000002 0.05631900000000001
-0.002738 0.07892800000000001 0.05466700000000001
0.005484 -0.010178 -0.017133
-0.04701900000000001 0.04894399999999999 -0.000501
-0.000106 -0.007152 0.00025
-0.026444 0.07793700000000001 -0.006160000000000001
0.031921 0.009302000000000001 0.0441
0.010452 -0.011566 0.008087
-0.028613 0.077307 0.057292
0.026222 -0.004462000000000001 -0.025213
0.013231 0.06842300000000001 -0.022696
-0.03694799999999999 0.019712 0.008324999999999999
0.021701 -0.009114000000000001 -0.020033
0.001938 -0.011218 -0.00705
-0.033875 0.016927 0.02328
-0.014742 -0.005993999999999999 -0.020679
0.00639 -0.009508000000000001 0.001982
0.018336 -0.011505 0.048288
0.014334 0.07653700000000001 -0.010072
0.009223 0.07570200000000002 -0.011951
-0.045676 0.05111700000000001 -0.01215
0.025053 0.001372 0.005131
0.021196 -0.0009970000000000001 0.003538
-0.037666 0.019091 0.011201
-0.047178 0.06715699999999999 0.018082
-0.04991300000000001 0.027132 0.043304
-0.01895100000000001 0.006534 0.05366000000000001
-0.009373000000000001 -0.005895 0.05231100000000001
-0.050426 0.033588 0.055316
0.016905 0.08189100000000001 -0.00118
0.032035 -0.010071 0.04261500000000001
-0.034097 0.06129399999999999 -0.018085
-0.028063 0.016708 -0.020139
-0.022478 0.025994 -0.020323
0.01846100000000001 0.046989 -0.023741
-0.017296 0.07024100000000001 -0.018667
-0.005728 0.07567000000000002 -0.016029
0.026893 -0.001104 -0.022125
0.015241 0.07021200000000001 -0.020973
0.024338 0.007502 -0.013533
-0.016245 0.014976 -0.012656
-0.007746 0.07801900000000001 -0.009134000000000001
-0.016825 -0.004783000000000001 -0.008881
-0.03515 0.07416200000000002 -0.003105
-0.019369 0.016434 -0.011141
0.008173 0.07786400000000002 -0.010096
-0.034578 0.017761 -0.002051
-0.015034 0.003101 -0.005663
-0.021867 0.08275600000000001 -0.00191
-0.005525 0.004504 0.0006230000000000001
-0.002995 0.011776 -0.001625
-0.044458 0.021435 0.018071
-0.04117200000000001 0.080336 0.018051
-0.03183 0.081373 0.048457
-0.04833100000000001 0.023092 0.040845
0.018712 0.08177100000000001 0.048162
-0.028342 0.08069500000000002 0.05587900000000001
-0.048861 0.05495800000000001 0.05404
0.0064 -0.011848 0.04980900000000001
0.028425 0.01433 0.049923
0.026227 0.024289 0.05051600000000001
-0.04544699999999999 0.026636 0.058064
-0.03897 0.06413500000000001 0.05838
-0.045147 0.026269 0.00059
0.013631 -0.00116 -0.003842
-0.016572 -0.002219 0.049314
-0.03867 0.060551 -0.015373
-0.03593 0.07901500000000002 0.046947
0.02531 0.014341 -0.01971
-0.047542 0.062801 0.025037
-0.030202 0.013529 0.013167
0.02447 0.061358 0.04495999999999999
0.0217 0.07869900000000002 0.04276
-0.012109 0.081846 0.050825
-0.006480000000000001 -0.009682000000000001 0.047516
0.022309 0.002691 -0.025689
0.024825 0.019319 -0.011721
-0.042009 0.040182 -0.017884
-0.047622 0.062362 0.030663
-0.026419 0.012418 0.04823
0.030165 -0.010891 0.047017
0.01939500000000001 -0.009906000000000002 0.049769
-0.014277 0.066844 -0.020295
0.021104 0.04121300000000001 0.05165100000000001
0.023736 -0.004291 -0.02571
0.023596 0.027629 -0.021427
-0.047758 0.061848 0.015568
-0.020196 -0.0008120000000000001 0.017493
-0.015721 0.08157600000000001 -0.006101000000000001
0.022037 0.039452 -0.019701
-0.005693999999999999 -0.008711999999999999 -0.021963
0.019889 0.008199 -0.025278
0.013822 -0.008052 -0.024547
-0.032115 0.065029 -0.016786
-0.045211 0.04637 -0.015601
0.025362 0.005523 -0.024382
-0.024419 0.001838 -0.01807
-0.033778 0.014914 -0.015324
-0.004058 0.07467700000000001 -0.018149
-0.001022 0.07664800000000001 -0.017079
0.017792 0.07017300000000001 -0.011987
-0.020971 -0.002603 -0.013323
-0.040223 0.06725300000000001 -0.006553000000000001
-0.025268 0.016547 -0.007006
0.015469 0.08098799999999999 -0.006821000000000001
0.012991 -0.005896 -0.010291
-0.012729 -0.004611 -0.003206
-0.045898 0.061587 0.004223
-0.046391 0.05533800000000001 -0.002989
0.025678 0.020088 -0.002321
-0.043948 0.066098 0.002918
-0.003635 0.012782 0.004717
-0.044713 0.025942 0.005673999999999999
-0.0006260000000000001 -0.007392 0.003388
-0.025283 0.013006 0.010063
-0.01772 -0.003823 0.008612
-0.012965 -0.006877 0.006769000000000001
0.022362 0.004486 0.003751
0.026567 0.013134 0.004375
-0.020902 0.001816 0.010714
0.026422 -0.003125 0.004963
-0.020545 0.007024 0.010485
0.027949 0.003958000000000001 0.010413
0.028492 -0.007777 0.008944000000000001
-0.045722 0.021992 0.029366
0.016059 0.081971 0.01956
-0.04343 0.07390100000000001 0.026898
-0.034767 0.08207200000000001 0.027017
-0.027457 0.08201799999999999 0.051271
0.003712 -0.012706 0.046983
-0.05004 0.023311 0.051584
-0.050245 0.027045 0.055412
-0.04951300000000001 0.046281 0.056644
0.022977 0.075489 0.048156
-0.044815 0.021196 0.055175
-0.040141 0.070677 0.056384
0.017699 0.080582 0.05169300000000001
0.031407 0.00562 0.048677
-0.044181 0.06064 0.057745
0.007472 0.07883100000000001 0.05362300000000001
-0.004856 -0.010776 0.012572
-0.020491 0.022383 0.0006500000000000001
0.022902 0.05843 0.051234
0.013173 0.07406700000000001 -0.013432
-0.016302 -0.003744 0.037871
0.011187 0.08112600000000002 0.051441
0.015807 -0.009953 -0.021457
-0.020305 0.01168 0.05465000000000001
-0.008086000000000001 0.016955 -0.011317
-0.006993 0.014087 0.01162
-0.003864 -0.005209999999999999 -0.023187
0.016362 -0.005107 -0.025284
-0.022125 0.000488 -0.01990400000000001
0.022756 0.009343000000000001 -0.025085
-0.042774 0.048569 -0.017657
0.025827 -0.006617 -0.023718
-0.017593 0.07388600000000001 -0.0137
0.019775 0.05635200000000001 -0.01948500000000001
0.018831 0.063541 -0.019154
-0.042463 0.056375 -0.014982
0.026169 0.003359 -0.018716
-0.033824 0.066998 -0.012536
-0.02757 0.007238 -0.015719
-0.04426799999999999 0.056288 -0.011266
-0.024543 0.07200000000000001 -0.013966
-0.035233 0.07089300000000001 -0.007952000000000001
-0.015897 -0.0009360000000000001 -0.00464
0.023366 0.007857000000000001 -0.010476
-0.03096 0.016556 0.000222
-0.001909 0.08236300000000001 -0.002928
0.002792 -0.009848000000000001 -0.003257
-0.038682 0.022627 0.002121
-0.005254999999999999 -0.009876000000000003 -0.006226
0.022341 0.007013999999999999 -0.004367
-0.007424 0.006179 -0.007606
0.02536 0.0153 -0.00767
0.01925 0.07110400000000001 0.001748
-0.003543 0.008907999999999999 -0.003385
0.017835 -0.001391 0.001673
0.014539 -0.00202 -0.000673
-0.008364999999999999 -0.008830000000000001 0.007313
-0.044643 0.07075100000000001 0.010353
-0.037366 0.018621 0.013433
-0.046377 0.07018100000000001 0.0166
0.004563000000000001 -0.011237 0.009030000000000002
-0.011387 -0.008142999999999999 0.01077
-0.047217 0.024233 0.014027
0.024838 -0.011015 0.017555
0.01937400000000001 0.07059700000000001 0.017299
-0.046827 0.023587 0.022992
-0.032176 0.082542 0.024552
-0.03724399999999999 0.08081099999999999 0.027839
-0.025643 0.010442 0.033684
-0.000992 -0.011915 0.028324
0.031414 -0.003771 0.03298599999999999
-0.050256 0.047165 0.05332900000000001
0.028365 0.034196 0.047707
0.030732 0.012074 0.048596
-0.047177 0.05459300000000001 0.057269
0.016852 0.07728500000000002 0.053046
-0.037503 0.032743 -0.018665
-0.020736 0.07725400000000002 -0.009475000000000001
-0.046581 0.02686 -0.009241000000000001
-0.041058 0.061821 -0.010031
-0.007545 0.002733 0.006759
-0.047736 0.025679 0.023097
0.005559 -0.008676000000000001 -0.023689
0.029052 -0.011155 0.03684
0.004797 0.05919700000000001 -0.022287
0.027103 0.011935 0.015032
0.030285 -0.003514 0.023302
0.007451 -0.010184 -0.022637
-0.040277 0.045039 -0.018206
-0.005788000000000001 0.0815 -0.00566
-0.030045 0.01492 0.038665
-0.03581 0.05400000000000001 0.05753200000000001
0.007717 -0.00946 -0.001207
-0.027309 0.07406700000000001 -0.010755
0.025009 0.03526199999999999 0.023431
0.000538 -0.009896000000000002 -0.02158
-0.04042 0.030773 -0.017991
0.02859 -0.005177 0.007273
0.028006 0.00276 0.049994
-0.043985 0.040722 -0.017052
0.01335 -0.008782999999999999 -0.015412
-0.040246 0.06995699999999999 -0.000325
0.022238 0.038497 -0.010908
-0.004929999999999999 -0.010835 0.025679
-0.010535 0.07352100000000002 -0.017561
-0.022472 0.001699 -0.009866000000000002
0.023518 0.053706 0.033647
0.032827 0.001253 0.047375
0.025246 0.018676 0.050681
-0.010387 0.022265 -0.007248
-0.01084 0.019868 -0.010934
-0.024475 0.006198 -0.020275
-0.017261 0.003023 -0.006744
-0.031281 0.08244 0.001407
0.018519 -0.005542 0.003584
-0.023953 0.08300500000000001 0.002257
-0.017065 -0.004846 0.012537
0.019434 -0.007188000000000001 0.05059300000000001
-0.030331 0.01981 0.055716
-0.024022 0.07772000000000003 0.05721200000000001
0.026044 -0.010308 0.009091
-0.04808 0.042421 0.014057
-0.022854 0.015747 0.055208
-0.029999 0.054925 -0.018847
-0.04540499999999999 0.060483 -0.002875
-0.013381 -0.006486 0.029257
0.007978000000000001 0.08172700000000001 0.041005
-0.024582 0.010853 0.050952
-0.009198 0.006435 -0.022149
-0.047357 0.033507 -0.0006100000000000001
-0.008437 0.08301 -0.000888
-0.025277 0.082578 0.014086
-0.021671 0.005186000000000001 0.037741
0.024697 0.05233100000000001 0.039695
0.029102 0.028717 0.04438
0.01945000000000001 0.001345 0.050626
-0.027554 0.02416 0.056141
-0.012223 0.06981699999999999 -0.02005
0.004285 -0.011303 -0.009068
-0.047461 0.05067200000000001 0.007196
-0.023333 0.010619 -0.020804
-0.005832 -0.010071 -0.018523
0.02454 0.031218 0.015488
0.017371 -0.011161 0.009872000000000002
-0.04661000000000001 0.06715600000000001 0.029241
0.001562 -0.010581 -0.01819
0.02961 0.00505 0.028973
-0.04707 0.06395899999999999 0.046164
-0.03792399999999999 0.01945500000000001 0.051563
0.019081 -0.011456 0.024877
-0.028494 0.068 0.05712
-0.032398 0.015291 0.012594
-0.038028 0.034883 0.057306
-0.015841 0.081749 0.05265800000000001
-0.020808 0.08183 0.043962
-0.047704 0.049216 0.024184
0.025833 0.036527 0.050565
0.021286 -0.01199 0.044682
0.001734 0.080821 -0.01436
-0.038343 0.019359 0.027909
0.022539 -0.011039 0.010206
-0.049346 0.032124 0.038407
0.026001 0.03602399999999999 0.033998
0.025612 0.05445800000000001 0.046426
-0.018513 -0.000759 -0.02137500000000001
-0.003989 0.070344 -0.020921
-0.009457 0.07258100000000001 -0.018901
-0.001812 -0.011225 -0.010451
-0.017448 -0.00558 -0.017064
-0.03690399999999999 0.08261300000000001 0.018859
0.019747 0.07803200000000002 0.025769
0.021543 0.07069700000000001 0.03646199999999999
0.02707 -0.011753 0.043221
-0.002506 0.081508 0.05181100000000001
-0.022073 0.007013 0.047978
-0.001899 -0.009666000000000001 0.051385
0.018452 0.07287500000000001 -0.005102000000000001
-0.023117 0.004284 0.015614
0.009576000000000003 0.06335699999999998 -0.022871
0.026233 0.017391 0.00204
-0.03467300000000001 0.018051 0.040925
-0.038234 0.022699 0.05663900000000001
0.007245 0.08176600000000002 0.048398
0.01409 -0.001273 -0.007858
0.030636 -0.002067 0.049506
0.002995 0.08261400000000001 0.004998
-0.045799 0.023655 0.009816000000000002
-0.026912 0.010017 0.014936
-0.005233 0.018959 -0.005155
-0.03227 0.08009300000000001 0.05231900000000001
-0.038419 0.07466300000000002 0.002164
0.021771 0.050041 -0.001755
-0.009957000000000001 -0.008746 -0.01973
-0.04769 0.032087 0.004904
0.014532 -0.012662 0.04576599999999999
0.028168 0.023635 0.049723
-0.004733999999999999 0.017615 0.001562
0.027045 0.010666 0.008407
0.022444 0.05207700000000001 0.051585
0.018587 0.066937 0.052541
-0.015537 0.07947500000000002 0.055778
-0.045992 0.042326 -0.013622
0.020664 0.069178 0.025623
-0.026669 0.08139100000000001 -0.003003
-0.04369600000000001 0.063876 -0.004239
-0.048711 0.059246 0.046158
-0.007552 0.076859 0.05542
-0.000109 0.004148000000000001 0.05268900000000001
0.012438 0.001913 -0.024452
0.030679 0.004363000000000001 0.03547699999999999
-0.0152 0.025583 0.05474200000000001
0.001659 -0.01195 0.01438
0.004565 -0.012708 0.042007
-0.002596 -0.011518 0.044351
0.019228 0.07039300000000001 0.013936
-0.037909 0.019406 0.038522
0.011059 -0.011917 0.013776
0.001201 0.07599900000000001 0.054546
0.009322 0.033903 -0.023366
0.013999 0.04199 0.05218200000000001
0.019119 0.051415 -0.022887
-0.045797 0.024051 -0.007664
-0.005619 0.015745 0.008487999999999999
-0.012835 0.015356 0.013567
0.027598 -0.006091 0.050024
0.028352 -0.010706 0.030422
-0.045077 0.05377200000000001 0.05839800000000001
-0.037856 0.017667 -0.014137
0.011023 0.08275300000000001 0.006026
0.033417 -0.003487000000000001 0.041895
-0.029998 0.061371 -0.018867
-0.040654 0.07308500000000001 0.05120300000000001
-0.010656 0.016655 0.012694
0.01618 0.039368 -0.024117
-0.049086 0.05613600000000001 0.04261300000000001
-0.0481 0.057443 0.03398499999999999
0.01 0.06911100000000001 0.053254
0.027471 -0.009860000000000001 0.014857
0.02942 -0.004512 0.013932
-0.029807 0.015763 0.005502
0.010921 0.08164600000000001 -0.007439
-0.04705 0.06665500000000001 0.013196
-0.030111 0.01196 -0.012682
0.025165 0.011114 -0.015659
-0.013606 -0.005799 0.046977
-0.045511 0.037978 -0.014869
0.001 0.07849100000000002 -0.012804
-0.03757 0.08046300000000001 0.008264000000000001
0.018707 0.06677100000000001 -0.009699000000000001
-0.040024 0.07566500000000002 0.043916
-0.009958 0.08070300000000001 0.05439600000000001
-0.033438 0.017797 0.005903
0.018732 0.07726600000000003 0.017315
0.017525 0.080697 0.007631
-0.01594 0.023448 -0.005314999999999999
0.006860000000000001 0.08302500000000002 -0.003719
-0.044969 0.062271 0.056388
0.016191 0.050575 -0.023822
-0.04831200000000001 0.028772 0.026025
0.009708 -0.009927999999999999 0.002869
-0.04883300000000001 0.025655 0.03462800000000001
-0.015991 0.023665 0.003234
-0.02809 0.06510000000000001 -0.01843
-0.04411300000000001 0.021826 -0.009006000000000002
0.033522 -0.001336 0.045894
-0.045941 0.023271 0.057242
-0.018731 -0.001844 0.026687
3 1 0 49
628
629
630
631
632
633
634
635
636
637
638
639
640
641
642
643
644
645
646
647
648
649
650
651
652
653
654
655
656
657
658
659
660
661
662
663
664
665
666
667
668
669
670
671
672
673
674
675
676
-0.00682305918622197 0.04547372617885806 0.02822351312144539
0.01060796491200532 0.01901997056111447 0.04134037506053125
-0.01345037090626555 0.03739580802149732 0.04070334812734529
0.01263044521563463 0.04031719394326913 0.01178557363789602
-0.001310955408706003 0.0569105522454382 0.008393037870977905
0.0005102914492498212 0.0005107135244632133 0.03938314579001565
-0.02565442059610419 0.0439446214591522 0.004473020112939516
-0.009876581486142183 0.04306884223092072 -0.009209043896392531
0.01141866513289043 0.01559139324430401 0.008287779958363448
-0.0140247167244832 0.01484980355245199 0.03590986370737388
0.007226957085320377 0.008129986442893759 -0.01410285032006782
-0.02223590800416548 0.03390028345828454 0.01750386384201387
-0.007390940438114718 0.02915906421633558 0.02298272952520999
0.00198988347643253 0.01433739796895093 0.02728693875990517
-0.02384616689777929 0.06255583058443344 0.009082343441155806
-0.0005596127383087953 0.03299392727162868 0.009467065675743212
-0.006286643651256108 0.001646463156010945 0.02596832920860911
0.002076254192625294 0.02061251383091095 -0.01738458267921051
0.0004251680447659506 0.03245001752994386 -0.00778180107440486
0.0081644094136804 0.001859260784032804 0.01081552601847944
0.00353099674608486 -0.0004533572397413654 -0.008095962854491512
-0.01165522376276028 0.0335099504332742 -0.01394080399939886
0.0009405242425228758 0.06566559562956967 -0.01143717728622699
-0.03112118444895362 0.03267799279223763 0.003006630021435166
0.01047786451525001 0.02448409065772603 -0.007393109456909468
-0.01965481646517455 0.03460800338534852 -0.001343030281242783
0.002148881815249216 0.02044024525539129 0.01668752689897547
-0.01279301813087232 0.03370780059318406 0.007848464134066311
-0.03229342943693035 0.0497184295685888 -0.005889077700364716
-0.02513920594175753 0.06031939791403041 0.03062504021575465
0.008004207662572116 0.008591166745562508 -0.001619301029197631
0.01761783000812962 0.003204102487832344 0.01519897684870344
-0.03362060086656105 0.06994617185434487 0.01808059809068101
-0.007840943400650653 0.016182277441298 0.02313927746417906
-0.01603292875754312 0.02288661746817723 0.02070993687454119
-0.03661818122072601 0.03059325935125769 0.01888460601667289
-0.03440664161102045 0.02949349388950814 -0.008728617005401928
0.004501648359295894 0.0719737882871945 0.0004284359132378525
-0.0157952984218036 0.06184655007660215 -0.005944762493624751
0.0009941676878362816 0.001025917596830679 0.005421354513268648
-0.008491966711377839 -0.002089369729669478 -0.01142188690939894
0.010666420841625 0.06544691222318333 -0.01432191255601396
-0.03084780617342655 0.02493906498273612 -0.001249570890295855
0.0175062249595167 0.01517014744128622 -0.007709950209369699
-0.03038483895632345 0.0349339923224027 0.03547227657292637
-0.001360236025841013 0.06927946323553111 0.02425234730151674
0.009971611107737024 0.03195424726008868 0.03348353261584351
-0.02985358752012628 0.02579930547976809 0.009281851077869869
0.00664943617564866 -0.001725040381344837 0.0003361476534277919
$EndNodes
$Elements
2 3360 1 3360
2 1 2 1250
1 83 82 1 
2 93 1 82 
3 83 1 247 
4 581 1 93 
5 1 539 247 
6 618 539 1 
7 1 581 618 
8 246 2 321 
9 246 392 2 
10 2 249 383 
11 249 2 392 
12 321 2 329 
13 383 329 2 
14 3 196 252 
15 3 389 196 
16 3 252 529 
17 338 333 3 
18 333 389 3 
19 338 3 529 
20 4 96 204 
21 96 4 276 
22 204 274 4 
23 274 397 4 
24 276 4 397 
25 92 5 6 
26 5 380 6 
27 5 92 101 
28 5 101 256 
29 380 5 256 
30 41 202 6 
31 247 41 6 
32 92 6 202 
33 247 6 275 
34 6 380 275 
35 7 100 11 
36 11 108 7 
37 12 7 108 
38 12 340 7 
39 7 277 100 
40 281 277 7 
41 281 7 340 
42 209 101 8 
43 8 101 607 
44 8 102 278 
45 102 8 607 
46 8 278 209 
47 9 10 103 
48 10 9 340 
49 103 208 9 
50 187 9 208 
51 281 9 187 
52 340 9 281 
53 10 13 14 
54 10 340 13 
55 14 405 10 
56 603 103 10 
57 10 405 106 
58 106 603 10 
59 100 471 11 
60 11 615 108 
61 470 11 471 
62 615 11 470 
63 12 120 13 
64 12 13 340 
65 108 378 12 
66 378 120 12 
67 13 120 14 
68 600 14 120 
69 14 183 405 
70 14 600 183 
71 15 61 248 
72 15 408 61 
73 349 117 15 
74 15 117 408 
75 349 15 248 
76 60 16 107 
77 287 16 60 
78 16 549 107 
79 287 348 16 
80 557 16 348 
81 557 549 16 
82 133 17 22 
83 22 17 351 
84 17 120 217 
85 17 600 120 
86 17 217 131 
87 351 17 131 
88 600 17 133 
89 24 18 134 
90 24 185 18 
91 18 188 134 
92 622 18 185 
93 18 214 188 
94 622 214 18 
95 136 19 132 
96 178 132 19 
97 356 19 136 
98 137 220 19 
99 19 356 137 
100 19 220 178 
101 142 22 20 
102 351 20 22 
103 20 137 142 
104 20 358 137 
105 20 351 358 
106 130 21 72 
107 21 354 72 
108 130 355 21 
109 21 219 354 
110 21 355 219 
111 22 138 133 
112 140 138 22 
113 142 140 22 
114 23 139 128 
115 415 23 128 
116 145 139 23 
117 145 23 475 
118 415 475 23 
119 185 24 62 
120 24 593 62 
121 583 24 134 
122 24 583 386 
123 593 24 386 
124 25 140 142 
125 25 548 140 
126 356 25 142 
127 25 356 538 
128 25 538 548 
129 52 363 26 
130 26 505 52 
131 420 261 26 
132 505 26 261 
133 289 26 363 
134 26 289 420 
135 53 27 155 
136 53 292 27 
137 156 155 27 
138 27 176 156 
139 27 292 176 
140 162 264 28 
141 162 28 311 
142 171 28 264 
143 28 171 302 
144 605 28 302 
145 28 605 311 
146 29 31 164 
147 384 31 29 
148 164 488 29 
149 167 263 29 
150 167 29 488 
151 384 29 263 
152 166 30 57 
153 370 57 30 
154 166 524 30 
155 30 308 370 
156 308 30 524 
157 165 31 58 
158 479 58 31 
159 165 164 31 
160 384 483 31 
161 31 483 479 
162 159 32 161 
163 159 625 32 
164 161 32 170 
165 32 545 170 
166 545 32 468 
167 625 468 32 
168 33 175 55 
169 373 33 55 
170 235 175 33 
171 235 33 436 
172 33 373 436 
173 34 154 155 
174 531 154 34 
175 155 156 34 
176 309 34 156 
177 309 532 34 
178 532 531 34 
179 144 35 147 
180 35 144 220 
181 180 35 146 
182 35 220 146 
183 147 35 386 
184 180 386 35 
185 157 36 54 
186 617 54 36 
187 157 508 36 
188 36 566 294 
189 36 294 617 
190 36 508 566 
191 94 255 37 
192 94 37 337 
193 37 341 215 
194 37 215 537 
195 341 37 255 
196 337 37 537 
197 113 38 192 
198 38 113 284 
199 192 38 403 
200 473 38 284 
201 38 473 403 
202 40 78 39 
203 91 40 39 
204 85 39 78 
205 86 39 85 
206 91 39 86 
207 78 40 457 
208 91 199 40 
209 40 199 457 
210 202 41 198 
211 198 41 526 
212 41 247 539 
213 526 41 539 
214 42 404 114 
215 114 544 42 
216 207 42 177 
217 342 177 42 
218 404 42 207 
219 342 42 544 
220 43 122 123 
221 122 43 212 
222 43 123 453 
223 43 210 212 
224 499 210 43 
225 43 453 250 
226 250 499 43 
227 408 44 61 
228 612 61 44 
229 183 44 405 
230 183 612 44 
231 44 283 405 
232 44 408 283 
233 45 345 240 
234 500 45 240 
235 45 500 323 
236 602 45 323 
237 45 344 345 
238 45 602 344 
239 46 117 349 
240 117 46 554 
241 46 423 218 
242 554 46 218 
243 349 547 46 
244 547 423 46 
245 47 144 147 
246 286 144 47 
247 348 47 147 
248 414 286 47 
249 287 47 348 
250 287 414 47 
251 289 48 179 
252 48 608 179 
253 530 216 48 
254 48 216 608 
255 224 48 289 
256 530 48 224 
257 131 184 49 
258 351 131 49 
259 143 351 49 
260 49 584 143 
261 184 584 49 
262 258 219 50 
263 219 558 50 
264 50 357 258 
265 50 458 357 
266 458 50 359 
267 50 558 359 
268 51 218 442 
269 218 51 482 
270 51 442 619 
271 516 482 51 
272 51 619 516 
273 52 508 157 
274 157 610 52 
275 610 363 52 
276 52 505 508 
277 155 362 53 
278 53 487 292 
279 362 589 53 
280 53 546 487 
281 589 546 53 
282 592 157 54 
283 54 372 592 
284 54 617 372 
285 370 55 175 
286 176 292 55 
287 55 309 176 
288 55 292 373 
289 370 309 55 
290 229 56 173 
291 517 173 56 
292 186 56 229 
293 56 186 559 
294 559 517 56 
295 166 57 379 
296 235 57 175 
297 175 57 370 
298 235 379 57 
299 58 509 165 
300 371 509 58 
301 371 58 626 
302 542 58 479 
303 626 58 542 
304 149 59 223 
305 362 59 149 
306 362 154 59 
307 59 154 531 
308 59 613 223 
309 613 59 531 
310 193 60 107 
311 193 414 60 
312 60 414 287 
313 612 248 61 
314 185 62 184 
315 62 584 184 
316 62 593 584 
317 63 68 151 
318 444 68 63 
319 431 63 151 
320 267 63 159 
321 159 63 431 
322 444 63 267 
323 64 160 291 
324 160 64 509 
325 227 64 361 
326 227 576 64 
327 291 361 64 
328 64 576 509 
329 65 474 216 
330 216 530 65 
331 285 474 65 
332 65 476 285 
333 65 530 476 
334 66 82 83 
335 82 66 395 
336 66 83 275 
337 94 66 275 
338 337 66 94 
339 337 395 66 
340 211 98 67 
341 98 277 67 
342 187 67 277 
343 473 67 187 
344 473 211 67 
345 151 68 153 
346 68 586 153 
347 444 586 68 
348 367 160 69 
349 160 371 69 
350 69 181 368 
351 69 626 181 
352 368 367 69 
353 371 626 69 
354 70 410 72 
355 70 72 415 
356 114 70 301 
357 114 410 70 
358 301 70 416 
359 415 416 70 
360 172 234 71 
361 265 172 71 
362 71 234 587 
363 265 71 369 
364 369 71 435 
365 435 71 587 
366 130 72 410 
367 72 354 415 
368 73 497 298 
369 298 542 73 
370 479 483 73 
371 542 479 73 
372 483 497 73 
373 171 74 263 
374 171 264 74 
375 74 233 194 
376 194 384 74 
377 233 74 264 
378 263 74 384 
379 237 75 372 
380 550 75 237 
381 304 75 550 
382 592 75 304 
383 75 592 372 
384 475 76 145 
385 76 481 145 
386 357 76 259 
387 76 475 259 
388 357 458 76 
389 360 76 458 
390 481 76 360 
391 79 77 80 
392 197 77 79 
393 80 77 328 
394 77 197 87 
395 77 87 390 
396 77 390 328 
397 269 85 78 
398 78 270 269 
399 270 78 437 
400 78 457 437 
401 80 189 79 
402 322 79 189 
403 197 79 322 
404 80 81 189 
405 81 80 594 
406 328 594 80 
407 81 88 189 
408 88 81 271 
409 81 594 271 
410 93 82 395 
411 275 83 247 
412 85 84 90 
413 84 85 269 
414 399 90 84 
415 203 84 269 
416 399 84 203 
417 588 86 85 
418 90 334 85 
419 334 588 85 
420 91 86 624 
421 86 588 624 
422 87 197 305 
423 274 332 87 
424 397 274 87 
425 87 305 397 
426 87 332 390 
427 189 88 326 
428 271 581 88 
429 326 88 394 
430 88 581 394 
431 89 465 272 
432 89 272 623 
433 330 401 89 
434 89 623 330 
435 393 89 401 
436 465 89 393 
437 97 90 399 
438 97 603 90 
439 603 334 90 
440 91 190 199 
441 190 91 439 
442 91 582 439 
443 91 624 582 
444 92 607 101 
445 519 92 202 
446 92 519 607 
447 93 395 394 
448 394 581 93 
449 380 255 94 
450 380 94 275 
451 205 102 95 
452 95 102 607 
453 205 95 519 
454 519 95 607 
455 96 177 191 
456 177 96 207 
457 191 204 96 
458 276 207 96 
459 208 103 97 
460 97 103 603 
461 466 208 97 
462 466 97 399 
463 211 99 98 
464 385 98 99 
465 277 98 100 
466 98 385 100 
467 99 193 107 
468 99 107 385 
469 193 99 211 
470 100 385 471 
471 282 101 209 
472 101 282 256 
473 273 102 205 
474 273 278 102 
475 408 104 283 
476 283 104 588 
477 300 104 408 
478 582 104 300 
479 104 582 624 
480 588 104 624 
481 212 210 105 
482 239 105 210 
483 342 212 105 
484 239 461 105 
485 342 105 461 
486 283 106 405 
487 106 283 588 
488 106 588 334 
489 334 603 106 
490 385 107 110 
491 107 549 110 
492 615 378 108 
493 338 279 109 
494 279 403 109 
495 109 466 338 
496 109 403 466 
497 385 110 471 
498 470 471 110 
499 470 110 549 
500 111 282 209 
501 209 450 111 
502 601 282 111 
503 406 111 450 
504 406 616 111 
505 601 111 616 
506 410 112 130 
507 412 130 112 
508 112 404 276 
509 276 604 112 
510 404 112 410 
511 412 112 604 
512 113 125 129 
513 125 113 192 
514 129 286 113 
515 113 411 284 
516 411 113 286 
517 114 301 544 
518 410 114 404 
519 115 216 474 
520 216 115 608 
521 115 242 280 
522 115 564 242 
523 115 280 551 
524 115 474 564 
525 608 115 551 
526 325 285 116 
527 116 285 491 
528 325 116 450 
529 450 116 406 
530 406 116 491 
531 117 118 300 
532 554 118 117 
533 408 117 300 
534 582 300 118 
535 490 439 118 
536 118 439 582 
537 490 118 554 
538 119 182 124 
539 124 343 119 
540 182 119 241 
541 213 119 343 
542 213 409 119 
543 119 409 241 
544 217 120 378 
545 126 266 121 
546 589 126 121 
547 266 341 121 
548 341 601 121 
549 616 589 121 
550 616 121 601 
551 301 123 122 
552 212 342 122 
553 122 544 301 
554 342 544 122 
555 128 123 416 
556 620 123 128 
557 416 123 301 
558 453 123 620 
559 192 124 127 
560 353 127 124 
561 124 182 353 
562 192 343 124 
563 127 132 125 
564 192 127 125 
565 129 125 178 
566 132 178 125 
567 126 152 149 
568 126 149 614 
569 589 152 126 
570 614 266 126 
571 136 132 127 
572 352 136 127 
573 352 127 353 
574 139 620 128 
575 128 416 415 
576 129 178 441 
577 129 441 286 
578 412 355 130 
579 184 131 217 
580 133 138 183 
581 133 183 600 
582 134 188 557 
583 557 583 134 
584 135 215 266 
585 413 215 135 
586 221 575 135 
587 135 614 221 
588 135 266 614 
589 135 575 413 
590 136 352 222 
591 136 222 356 
592 142 137 356 
593 146 220 137 
594 137 358 146 
595 512 138 140 
596 612 183 138 
597 612 138 512 
598 145 504 139 
599 244 139 504 
600 244 620 139 
601 307 512 140 
602 307 140 548 
603 288 141 260 
604 547 260 141 
605 426 141 288 
606 141 426 423 
607 423 547 141 
608 358 143 148 
609 148 143 584 
610 143 358 351 
611 441 220 144 
612 441 144 286 
613 481 521 145 
614 504 145 521 
615 148 180 146 
616 146 358 148 
617 348 147 583 
618 147 386 583 
619 584 180 148 
620 149 152 362 
621 614 149 223 
622 150 151 153 
623 599 151 150 
624 598 150 153 
625 360 150 598 
626 599 150 360 
627 151 447 431 
628 599 447 151 
629 589 362 152 
630 586 598 153 
631 362 155 154 
632 176 309 156 
633 157 592 610 
634 367 158 262 
635 522 262 158 
636 158 368 265 
637 158 265 432 
638 158 367 368 
639 432 522 158 
640 267 159 161 
641 590 159 431 
642 590 625 159 
643 291 160 367 
644 509 371 160 
645 161 170 317 
646 267 161 317 
647 536 264 162 
648 366 295 162 
649 295 536 162 
650 574 162 311 
651 574 366 162 
652 163 243 230 
653 434 163 230 
654 163 625 243 
655 163 434 374 
656 163 374 468 
657 163 468 625 
658 316 164 165 
659 488 164 316 
660 451 316 165 
661 165 541 451 
662 541 165 509 
663 186 229 166 
664 379 186 166 
665 229 524 166 
666 167 171 263 
667 171 167 302 
668 167 535 302 
669 488 535 167 
670 168 230 433 
671 230 168 556 
672 168 433 517 
673 168 517 556 
674 169 478 233 
675 536 169 233 
676 295 318 169 
677 169 536 295 
678 169 318 478 
679 170 318 317 
680 318 170 478 
681 478 170 585 
682 170 545 585 
683 181 172 265 
684 298 172 181 
685 298 234 172 
686 229 173 433 
687 433 173 517 
688 372 174 236 
689 174 375 236 
690 372 617 174 
691 375 174 617 
692 191 177 461 
693 177 342 461 
694 178 220 441 
695 179 420 289 
696 418 420 179 
697 179 608 418 
698 593 386 180 
699 584 593 180 
700 368 181 265 
701 626 298 181 
702 350 182 241 
703 417 182 350 
704 182 417 353 
705 185 184 217 
706 185 217 622 
707 559 186 379 
708 187 208 473 
709 187 277 281 
710 214 470 188 
711 549 188 470 
712 549 557 188 
713 189 326 322 
714 190 606 199 
715 190 439 490 
716 562 190 490 
717 190 562 606 
718 191 249 204 
719 461 249 191 
720 343 192 403 
721 211 411 193 
722 193 411 414 
723 194 233 568 
724 194 483 384 
725 483 194 497 
726 571 497 194 
727 571 194 568 
728 195 252 196 
729 195 196 525 
730 327 252 195 
731 387 327 195 
732 387 195 525 
733 525 196 389 
734 322 305 197 
735 336 202 198 
736 336 198 335 
737 335 198 527 
738 527 198 526 
739 457 199 460 
740 460 199 606 
741 200 201 391 
742 200 396 201 
743 200 331 257 
744 200 257 400 
745 200 391 331 
746 200 400 396 
747 268 201 303 
748 268 391 201 
749 201 396 303 
750 202 336 205 
751 519 202 205 
752 472 203 269 
753 399 203 333 
754 203 472 333 
755 392 204 249 
756 204 392 274 
757 205 336 273 
758 461 239 206 
759 206 239 506 
760 206 448 383 
761 206 383 461 
762 506 448 206 
763 404 207 276 
764 208 466 403 
765 208 403 473 
766 209 278 450 
767 499 239 210 
768 284 411 211 
769 284 211 473 
770 213 343 279 
771 279 529 213 
772 213 528 409 
773 528 213 502 
774 213 529 502 
775 470 214 615 
776 622 615 214 
777 215 341 266 
778 215 413 537 
779 217 378 622 
780 442 218 423 
781 482 554 218 
782 258 354 219 
783 219 355 558 
784 223 613 221 
785 223 221 614 
786 575 221 613 
787 324 538 222 
788 627 324 222 
789 222 352 477 
790 356 222 538 
791 477 627 222 
792 224 289 225 
793 225 428 224 
794 224 428 364 
795 364 530 224 
796 226 225 363 
797 225 226 428 
798 363 225 289 
799 290 226 304 
800 364 226 290 
801 304 226 610 
802 610 226 363 
803 364 428 226 
804 227 361 288 
805 227 288 520 
806 520 576 227 
807 228 290 365 
808 228 427 290 
809 228 365 515 
810 492 427 228 
811 492 228 515 
812 229 433 524 
813 243 495 230 
814 495 433 230 
815 434 230 556 
816 245 231 293 
817 480 231 245 
818 231 365 293 
819 514 365 231 
820 231 480 561 
821 514 231 561 
822 232 238 578 
823 611 238 232 
824 376 382 232 
825 376 232 578 
826 232 382 534 
827 534 611 232 
828 536 233 264 
829 496 233 478 
830 496 568 233 
831 452 234 298 
832 452 299 234 
833 299 587 234 
834 235 560 379 
835 235 436 560 
836 245 237 236 
837 236 237 372 
838 480 245 236 
839 236 375 299 
840 299 480 236 
841 293 237 245 
842 550 237 293 
843 578 238 567 
844 567 238 611 
845 499 506 239 
846 345 257 240 
847 562 240 257 
848 240 490 482 
849 240 482 500 
850 240 562 490 
851 241 253 350 
852 241 407 253 
853 241 409 407 
854 402 280 242 
855 454 402 242 
856 438 454 242 
857 242 564 438 
858 243 570 495 
859 570 243 590 
860 243 625 590 
861 421 253 244 
862 244 253 620 
863 421 244 572 
864 577 244 504 
865 577 572 244 
866 246 332 274 
867 274 392 246 
868 332 246 321 
869 260 547 248 
870 612 260 248 
871 349 248 547 
872 383 249 461 
873 409 250 407 
874 453 407 250 
875 528 250 409 
876 528 499 250 
877 451 251 307 
878 512 307 251 
879 512 251 419 
880 419 251 520 
881 451 541 251 
882 251 541 520 
883 327 553 252 
884 553 529 252 
885 421 350 253 
886 253 407 453 
887 253 453 620 
888 254 318 295 
889 254 295 555 
890 317 318 254 
891 254 533 317 
892 518 533 254 
893 555 518 254 
894 255 256 282 
895 380 256 255 
896 601 255 282 
897 255 601 341 
898 331 562 257 
899 257 345 485 
900 400 257 485 
901 354 258 259 
902 258 357 259 
903 415 354 259 
904 259 475 415 
905 419 288 260 
906 419 260 612 
907 323 306 261 
908 505 261 306 
909 602 323 261 
910 420 602 261 
911 262 291 367 
912 262 621 291 
913 621 262 522 
914 369 432 265 
915 317 444 267 
916 268 303 330 
917 268 330 623 
918 591 391 268 
919 268 623 591 
920 501 269 270 
921 472 269 501 
922 270 437 449 
923 270 449 484 
924 270 484 579 
925 489 501 270 
926 270 579 489 
927 581 271 618 
928 594 618 271 
929 272 465 527 
930 498 272 527 
931 623 272 498 
932 465 278 273 
933 336 335 273 
934 465 273 335 
935 397 604 276 
936 278 438 325 
937 450 278 325 
938 393 438 278 
939 393 278 465 
940 529 279 338 
941 343 403 279 
942 402 462 280 
943 551 280 462 
944 285 325 564 
945 474 285 564 
946 285 476 491 
947 286 414 411 
948 288 361 426 
949 520 288 419 
950 290 293 365 
951 290 550 293 
952 290 304 550 
953 427 364 290 
954 361 291 426 
955 291 621 426 
956 382 373 292 
957 543 382 292 
958 487 543 292 
959 294 432 369 
960 369 435 294 
961 294 566 432 
962 435 617 294 
963 295 366 555 
964 296 297 469 
965 297 296 556 
966 434 296 374 
967 374 296 459 
968 434 556 296 
969 469 459 296 
970 297 320 469 
971 297 517 320 
972 297 556 517 
973 513 452 298 
974 298 497 513 
975 298 626 542 
976 587 299 375 
977 511 299 452 
978 299 511 480 
979 605 302 381 
980 381 302 627 
981 302 535 493 
982 627 302 493 
983 398 330 303 
984 440 303 396 
985 440 398 303 
986 304 610 592 
987 322 313 305 
988 305 313 604 
989 604 397 305 
990 306 315 505 
991 306 516 315 
992 306 323 482 
993 306 482 516 
994 316 307 429 
995 316 451 307 
996 548 429 307 
997 532 370 308 
998 494 308 495 
999 532 308 494 
1000 524 495 308 
1001 309 370 532 
1002 487 515 310 
1003 487 310 543 
1004 515 514 310 
1005 611 310 514 
1006 543 310 534 
1007 310 611 534 
1008 574 311 486 
1009 605 486 311 
1010 332 321 312 
1011 321 388 312 
1012 390 312 328 
1013 312 569 328 
1014 312 390 332 
1015 312 388 569 
1016 463 313 322 
1017 313 346 412 
1018 313 463 346 
1019 313 412 604 
1020 449 437 314 
1021 314 437 457 
1022 449 314 460 
1023 314 457 460 
1024 595 505 315 
1025 315 516 596 
1026 595 315 596 
1027 429 535 316 
1028 535 488 316 
1029 317 533 444 
1030 319 445 484 
1031 445 319 539 
1032 484 591 319 
1033 526 319 498 
1034 498 319 591 
1035 539 319 526 
1036 469 320 580 
1037 517 559 320 
1038 560 320 559 
1039 580 320 560 
1040 388 321 329 
1041 463 322 326 
1042 500 482 323 
1043 538 324 627 
1044 438 564 325 
1045 463 326 394 
1046 443 327 387 
1047 327 443 456 
1048 456 502 327 
1049 553 327 502 
1050 328 569 579 
1051 328 579 594 
1052 329 383 448 
1053 388 329 387 
1054 443 387 329 
1055 329 448 443 
1056 330 398 401 
1057 391 460 331 
1058 460 606 331 
1059 606 562 331 
1060 338 399 333 
1061 333 472 389 
1062 335 527 465 
1063 337 609 395 
1064 537 609 337 
1065 466 399 338 
1066 402 398 339 
1067 398 440 339 
1068 462 402 339 
1069 339 440 565 
1070 565 462 339 
1071 345 344 485 
1072 485 344 347 
1073 344 602 347 
1074 540 412 346 
1075 346 463 552 
1076 346 552 540 
1077 347 418 462 
1078 347 602 418 
1079 462 565 347 
1080 347 565 485 
1081 557 348 583 
1082 417 350 421 
1083 477 352 353 
1084 422 353 417 
1085 422 477 353 
1086 355 412 540 
1087 355 540 558 
1088 446 359 558 
1089 446 599 359 
1090 359 599 458 
1091 360 458 599 
1092 481 360 598 
1093 530 364 427 
1094 514 515 365 
1095 573 366 430 
1096 574 430 366 
1097 366 573 555 
1098 373 382 376 
1099 376 436 373 
1100 545 374 459 
1101 545 468 374 
1102 587 375 435 
1103 435 375 617 
1104 578 436 376 
1105 377 417 421 
1106 377 422 417 
1107 572 377 421 
1108 464 422 377 
1109 430 464 377 
1110 572 430 377 
1111 378 615 622 
1112 379 560 559 
1113 486 381 477 
1114 381 627 477 
1115 381 486 605 
1116 382 543 534 
1117 569 388 387 
1118 489 387 501 
1119 569 387 489 
1120 387 525 501 
1121 525 389 472 
1122 460 391 449 
1123 591 449 391 
1124 401 438 393 
1125 394 395 609 
1126 609 463 394 
1127 400 440 396 
1128 401 398 454 
1129 454 398 402 
1130 565 440 400 
1131 565 400 485 
1132 454 438 401 
1133 546 406 491 
1134 406 546 616 
1135 413 552 537 
1136 540 552 413 
1137 540 413 575 
1138 602 420 418 
1139 418 551 462 
1140 418 608 551 
1141 612 512 419 
1142 422 464 486 
1143 422 486 477 
1144 423 426 442 
1145 521 481 424 
1146 424 481 598 
1147 424 510 521 
1148 424 533 510 
1149 533 424 586 
1150 598 586 424 
1151 455 503 425 
1152 455 425 563 
1153 425 503 575 
1154 425 531 563 
1155 613 531 425 
1156 425 575 613 
1157 621 442 426 
1158 476 427 492 
1159 476 530 427 
1160 493 535 429 
1161 429 548 493 
1162 464 430 574 
1163 572 573 430 
1164 431 447 507 
1165 570 431 507 
1166 431 570 590 
1167 595 522 432 
1168 595 432 566 
1169 524 433 495 
1170 597 560 436 
1171 578 597 436 
1172 442 621 619 
1173 448 456 443 
1174 533 586 444 
1175 579 484 445 
1176 445 539 618 
1177 579 445 594 
1178 618 594 445 
1179 446 503 447 
1180 446 447 599 
1181 503 446 558 
1182 503 455 447 
1183 507 447 455 
1184 448 506 456 
1185 484 449 591 
1186 452 597 511 
1187 571 452 513 
1188 571 580 452 
1189 597 452 580 
1190 455 467 523 
1191 563 467 455 
1192 455 523 507 
1193 456 506 502 
1194 469 496 459 
1195 478 459 496 
1196 585 459 478 
1197 459 585 545 
1198 463 609 552 
1199 464 574 486 
1200 467 494 523 
1201 467 532 494 
1202 467 563 532 
1203 469 580 496 
1204 501 525 472 
1205 476 492 491 
1206 511 567 480 
1207 561 480 567 
1208 482 490 554 
1209 515 487 546 
1210 489 579 569 
1211 546 491 492 
1212 546 492 515 
1213 538 493 548 
1214 493 538 627 
1215 570 494 495 
1216 523 494 570 
1217 568 496 571 
1218 571 496 580 
1219 571 513 497 
1220 527 526 498 
1221 591 623 498 
1222 528 506 499 
1223 506 528 502 
1224 529 553 502 
1225 575 503 558 
1226 504 521 510 
1227 504 510 577 
1228 505 566 508 
1229 566 505 595 
1230 570 507 523 
1231 509 576 541 
1232 533 518 510 
1233 518 555 510 
1234 510 555 577 
1235 511 578 567 
1236 511 597 578 
1237 611 514 561 
1238 516 619 596 
1239 520 541 576 
1240 522 595 596 
1241 619 522 596 
1242 619 621 522 
1243 531 532 563 
1244 609 537 552 
1245 558 540 575 
1246 589 616 546 
1247 577 555 573 
1248 580 560 597 
1249 567 611 561 
1250 573 572 577 
3 1 4 2110
1251 595 505 566 508 
1252 651 656 653 664 
1253 326 88 189 81 
1254 579 484 270 649 
1255 512 662 131 675 
1256 479 73 58 542 
1257 437 653 656 664 
1258 562 651 190 664 
1259 116 285 325 642 
1260 132 352 136 127 
1261 306 516 482 657 
1262 552 463 346 631 
1263 482 634 500 642 
1264 175 33 436 235 
1265 441 144 220 377 
1266 557 549 188 652 
1267 143 148 584 661 
1268 148 180 584 661 
1269 580 469 496 629 
1270 117 15 408 651 
1271 634 653 651 656 
1272 193 107 60 638 
1273 516 639 482 657 
1274 482 639 634 657 
1275 34 309 156 532 
1276 562 656 651 664 
1277 321 332 312 274 
1278 490 190 562 651 
1279 347 602 344 660 
1280 333 67 389 472 
1281 565 339 462 656 
1282 500 240 634 651 
1283 398 402 339 656 
1284 583 557 134 654 
1285 490 190 651 664 
1286 557 16 549 652 
1287 325 278 116 666 
1288 347 565 462 656 
1289 415 72 70 658 
1290 349 15 117 651 
1291 117 300 118 651 
1292 296 434 230 556 
1293 396 200 201 656 
1294 634 642 482 657 
1295 414 60 287 658 
1296 217 131 184 639 
1297 117 408 300 651 
1298 35 386 180 661 
1299 217 184 185 639 
1300 516 663 639 672 
1301 144 377 441 667 
1302 602 347 418 660 
1303 325 116 642 666 
1304 398 339 440 656 
1305 640 641 637 661 
1306 639 657 516 672 
1307 67 338 211 473 
1308 12 653 664 670 
1309 72 410 70 671 
1310 506 502 528 648 
1311 414 193 60 638 
1312 102 607 101 336 
1313 300 118 651 664 
1314 562 490 651 656 
1315 119 286 241 648 
1316 516 482 639 663 
1317 408 300 651 664 
1318 130 410 72 671 
1319 210 105 239 648 
1320 621 576 227 672 
1321 634 651 240 656 
1322 116 491 285 642 
1323 608 551 216 660 
1324 635 653 634 656 
1325 347 344 485 656 
1326 37 255 380 256 
1327 347 485 565 656 
1328 628 634 632 655 
1329 628 634 639 657 
1330 339 565 440 656 
1331 182 129 178 441 
1332 240 651 490 656 
1333 143 661 584 662 
1334 8 278 273 650 
1335 210 212 105 648 
1336 256 101 5 650 
1337 214 18 188 643 
1338 220 35 146 644 
1339 347 344 642 660 
1340 622 214 615 653 
1341 427 492 228 657 
1342 415 70 416 658 
1343 585 545 590 459 
1344 281 103 269 90 
1345 632 642 628 657 
1346 324 146 148 644 
1347 642 657 632 673 
1348 557 188 134 643 
1349 146 35 180 644 
1350 500 634 482 651 
1351 62 185 184 662 
1352 72 70 658 671 
1353 590 478 585 459 
1354 378 217 622 653 
1355 103 10 269 603 
1356 409 119 241 648 
1357 628 639 634 655 
1358 632 634 628 642 
1359 77 652 638 671 
1360 280 462 402 642 
1361 301 114 544 658 
1362 522 595 513 672 
1363 502 528 648 668 
1364 596 619 516 672 
1365 344 642 45 656 
1366 596 516 657 672 
1367 378 651 217 653 
1368 180 148 644 661 
1369 628 642 634 657 
1370 103 269 10 340 
1371 208 67 333 472 
1372 17 138 131 675 
1373 603 106 269 334 
1374 398 440 303 656 
1375 651 664 653 670 
1376 634 635 632 655 
1377 596 657 595 672 
1378 347 642 344 656 
1379 184 131 49 662 
1380 211 473 338 668 
1381 119 286 648 668 
1382 378 108 12 653 
1383 217 651 378 670 
1384 143 584 49 662 
1385 131 639 217 675 
1386 338 529 67 211 
1387 322 463 326 189 
1388 143 637 148 661 
1389 491 116 278 666 
1390 500 482 240 651 
1391 129 182 286 441 
1392 61 408 15 651 
1393 240 500 634 656 
1394 482 323 306 657 
1395 180 148 146 644 
1396 541 73 497 672 
1397 492 657 642 673 
1398 482 554 490 651 
1399 349 117 554 651 
1400 491 632 492 642 
1401 67 208 187 472 
1402 185 24 18 655 
1403 408 664 651 670 
1404 336 101 102 650 
1405 472 67 389 525 
1406 119 182 241 286 
1407 241 182 350 286 
1408 306 657 323 660 
1409 562 240 490 656 
1410 378 653 12 670 
1411 106 269 10 603 
1412 396 201 303 656 
1413 338 473 279 668 
1414 398 402 656 666 
1415 632 657 628 673 
1416 284 473 211 668 
1417 414 411 193 648 
1418 402 398 454 666 
1419 544 638 342 648 
1420 78 106 269 664 
1421 414 638 60 658 
1422 438 278 325 666 
1423 347 462 642 656 
1424 35 180 644 661 
1425 206 448 329 383 
1426 452 511 597 630 
1427 394 88 326 463 
1428 396 303 440 656 
1429 510 644 641 647 
1430 465 273 278 650 
1431 270 645 579 649 
1432 134 188 18 643 
1433 635 634 653 655 
1434 15 61 651 675 
1435 549 107 110 652 
1436 467 628 425 632 
1437 622 18 214 655 
1438 288 426 361 227 
1439 378 615 108 653 
1440 411 648 286 668 
1441 8 273 102 650 
1442 349 15 651 663 
1443 301 544 648 658 
1444 551 280 65 642 
1445 270 653 437 664 
1446 24 583 134 654 
1447 147 35 144 647 
1448 596 595 522 672 
1449 414 193 638 648 
1450 492 642 632 673 
1451 554 651 482 663 
1452 269 103 603 90 
1453 651 670 217 675 
1454 301 70 114 658 
1455 491 642 116 666 
1456 256 537 255 282 
1457 217 185 622 655 
1458 102 101 8 650 
1459 438 393 278 666 
1460 50 458 359 357 
1461 119 648 409 668 
1462 215 121 341 601 
1463 510 647 641 659 
1464 347 642 462 660 
1465 236 75 372 237 
1466 628 657 639 672 
1467 490 240 482 651 
1468 503 425 575 631 
1469 280 551 462 642 
1470 513 497 73 672 
1471 581 618 271 463 
1472 525 67 529 211 
1473 551 462 642 660 
1474 378 651 653 670 
1475 465 278 393 666 
1476 67 338 389 525 
1477 138 512 131 675 
1478 595 432 522 513 
1479 201 200 391 656 
1480 131 662 639 675 
1481 286 411 414 648 
1482 212 342 105 648 
1483 562 331 257 656 
1484 632 635 634 666 
1485 409 407 250 648 
1486 490 651 118 664 
1487 409 241 407 648 
1488 396 440 400 656 
1489 576 520 227 672 
1490 217 622 653 655 
1491 156 309 27 532 
1492 184 639 131 662 
1493 483 164 31 497 
1494 553 195 252 668 
1495 467 631 628 632 
1496 642 657 492 660 
1497 619 663 516 672 
1498 408 104 300 664 
1499 510 430 644 647 
1500 286 441 182 667 
1501 220 441 377 417 
1502 529 211 338 668 
1503 185 639 184 662 
1504 80 328 77 645 
1505 632 634 642 666 
1506 593 386 24 654 
1507 147 35 647 654 
1508 507 629 570 674 
1509 582 300 104 664 
1510 182 350 441 417 
1511 387 648 411 668 
1512 401 454 398 666 
1513 410 114 70 671 
1514 528 409 250 648 
1515 61 408 651 670 
1516 114 638 544 658 
1517 182 441 350 667 
1518 108 615 11 649 
1519 637 640 630 641 
1520 303 268 398 656 
1521 290 427 226 364 
1522 43 122 212 648 
1523 255 37 537 256 
1524 119 113 286 668 
1525 622 214 653 655 
1526 15 248 61 675 
1527 336 335 198 650 
1528 416 70 301 658 
1529 129 182 119 286 
1530 557 643 134 654 
1531 148 143 538 637 
1532 299 157 54 592 
1533 24 134 18 643 
1534 608 418 551 660 
1535 609 394 463 669 
1536 178 182 441 417 
1537 634 635 656 666 
1538 580 496 571 629 
1539 12 664 10 670 
1540 522 513 576 672 
1541 552 635 632 669 
1542 470 615 214 649 
1543 378 622 615 653 
1544 522 619 596 672 
1545 101 336 202 650 
1546 599 446 359 659 
1547 124 113 129 119 
1548 496 510 633 641 
1549 441 417 350 667 
1550 73 165 509 541 
1551 61 612 44 675 
1552 272 89 623 666 
1553 114 658 70 671 
1554 182 124 129 119 
1555 628 632 643 655 
1556 402 280 642 666 
1557 180 386 593 661 
1558 119 113 129 286 
1559 279 529 338 668 
1560 465 650 278 666 
1561 476 285 491 642 
1562 635 646 445 669 
1563 607 102 205 336 
1564 544 114 42 638 
1565 110 470 549 646 
1566 552 646 635 669 
1567 637 640 662 672 
1568 17 131 217 675 
1569 217 639 655 675 
1570 193 411 489 648 
1571 409 648 528 668 
1572 348 557 583 636 
1573 601 255 537 282 
1574 286 182 350 667 
1575 61 44 670 675 
1576 60 638 107 652 
1577 241 286 350 667 
1578 182 178 353 417 
1579 411 286 113 668 
1580 16 557 348 636 
1581 640 661 637 662 
1582 338 67 529 525 
1583 419 288 520 663 
1584 147 144 47 647 
1585 178 353 352 132 
1586 515 492 546 673 
1587 621 522 576 672 
1588 516 51 482 663 
1589 349 651 554 663 
1590 635 643 632 655 
1591 143 49 548 662 
1592 214 18 643 655 
1593 217 639 185 655 
1594 284 279 473 668 
1595 61 670 651 675 
1596 280 115 474 564 
1597 651 655 639 675 
1598 425 628 467 673 
1599 593 24 640 654 
1600 202 101 607 336 
1601 638 648 544 658 
1602 615 649 108 653 
1603 15 349 248 663 
1604 616 282 601 665 
1605 553 502 195 668 
1606 202 336 198 650 
1607 286 648 414 658 
1608 143 637 661 662 
1609 545 625 590 459 
1610 16 348 287 636 
1611 37 256 380 669 
1612 520 251 663 672 
1613 35 644 641 661 
1614 60 107 16 652 
1615 470 110 471 649 
1616 490 118 439 664 
1617 374 468 545 459 
1618 570 629 495 674 
1619 61 44 408 670 
1620 621 227 619 672 
1621 619 51 516 663 
1622 239 569 105 461 
1623 456 506 443 387 
1624 455 467 425 631 
1625 628 632 631 643 
1626 240 45 500 656 
1627 630 641 640 674 
1628 638 652 60 658 
1629 138 351 17 131 
1630 641 644 35 647 
1631 427 492 657 660 
1632 138 612 512 675 
1633 528 250 499 648 
1634 637 644 148 661 
1635 363 657 52 660 
1636 348 47 287 658 
1637 377 417 441 667 
1638 17 120 600 675 
1639 122 342 212 648 
1640 158 262 513 509 
1641 257 240 562 656 
1642 425 632 628 673 
1643 214 646 653 655 
1644 132 353 352 127 
1645 301 544 122 648 
1646 516 306 315 657 
1647 491 632 642 666 
1648 615 214 649 653 
1649 13 12 10 670 
1650 452 595 657 672 
1651 345 45 240 656 
1652 642 656 402 666 
1653 490 439 190 664 
1654 426 520 288 663 
1655 236 372 75 592 
1656 584 593 62 662 
1657 532 467 597 673 
1658 648 658 286 676 
1659 568 633 637 641 
1660 48 179 608 660 
1661 266 215 126 121 
1662 120 217 670 675 
1663 313 305 604 671 
1664 491 278 665 666 
1665 541 73 165 497 
1666 608 179 418 660 
1667 77 645 638 652 
1668 515 657 492 673 
1669 454 401 438 666 
1670 632 635 552 646 
1671 24 386 583 654 
1672 422 377 220 644 
1673 52 657 505 660 
1674 467 425 631 632 
1675 639 663 651 675 
1676 468 625 545 459 
1677 612 248 260 675 
1678 348 583 147 636 
1679 411 489 211 193 
1680 414 648 638 658 
1681 217 378 120 670 
1682 637 641 633 644 
1683 549 16 107 652 
1684 10 664 106 670 
1685 324 148 627 644 
1686 148 538 324 627 
1687 512 307 131 662 
1688 463 646 552 669 
1689 632 643 635 646 
1690 571 568 637 641 
1691 62 184 584 662 
1692 590 518 431 533 
1693 569 105 461 342 
1694 580 571 452 630 
1695 15 651 663 675 
1696 114 638 658 671 
1697 193 489 638 648 
1698 180 593 584 661 
1699 271 88 581 463 
1700 507 510 496 641 
1701 484 653 635 656 
1702 549 646 188 652 
1703 110 107 385 645 
1704 289 224 225 660 
1705 188 549 470 646 
1706 628 630 657 672 
1707 452 513 595 672 
1708 647 654 641 659 
1709 54 36 299 617 
1710 491 665 632 666 
1711 120 12 13 670 
1712 632 650 635 666 
1713 496 633 629 641 
1714 74 633 302 637 
1715 594 271 618 463 
1716 467 628 597 673 
1717 571 629 568 641 
1718 658 667 286 676 
1719 157 610 511 657 
1720 8 101 209 665 
1721 17 217 120 675 
1722 557 636 16 652 
1723 506 387 502 648 
1724 544 342 122 648 
1725 120 670 44 675 
1726 349 554 46 663 
1727 497 451 541 672 
1728 557 643 636 652 
1729 619 520 663 672 
1730 553 252 529 668 
1731 568 629 633 641 
1732 211 411 284 668 
1733 386 147 583 654 
1734 354 21 72 636 
1735 476 491 492 642 
1736 113 119 343 668 
1737 188 470 214 646 
1738 548 429 493 637 
1739 143 548 637 662 
1740 64 522 576 621 
1741 282 101 256 665 
1742 541 251 520 672 
1743 191 461 383 249 
1744 597 580 452 630 
1745 592 157 610 511 
1746 82 395 1 93 
1747 602 420 261 660 
1748 650 665 278 666 
1749 619 227 520 672 
1750 47 286 414 658 
1751 270 269 10 106 
1752 419 612 260 675 
1753 640 654 643 674 
1754 408 283 664 670 
1755 258 259 357 659 
1756 641 647 35 654 
1757 641 654 640 674 
1758 419 520 251 663 
1759 410 404 114 671 
1760 596 516 315 657 
1761 452 657 630 672 
1762 591 398 268 656 
1763 414 287 47 658 
1764 591 398 656 666 
1765 607 101 8 102 
1766 122 301 648 676 
1767 113 124 343 119 
1768 438 401 393 666 
1769 628 640 639 655 
1770 239 206 569 461 
1771 345 240 257 656 
1772 639 662 640 672 
1773 46 554 218 663 
1774 104 408 283 664 
1775 592 304 75 511 
1776 467 628 631 674 
1777 35 641 654 661 
1778 226 364 427 657 
1779 505 657 306 660 
1780 260 141 288 663 
1781 571 637 630 641 
1782 77 638 328 671 
1783 563 467 532 673 
1784 425 467 563 673 
1785 26 420 289 660 
1786 349 547 248 663 
1787 547 349 46 663 
1788 386 654 593 661 
1789 515 546 487 673 
1790 315 306 505 657 
1791 148 637 627 644 
1792 321 312 4 274 
1793 214 643 188 646 
1794 502 648 387 668 
1795 42 638 114 671 
1796 547 141 260 663 
1797 289 420 179 660 
1798 260 248 547 663 
1799 15 663 248 675 
1800 78 457 40 664 
1801 104 588 624 664 
1802 194 571 568 637 
1803 411 211 489 668 
1804 301 658 648 676 
1805 634 656 642 666 
1806 407 648 241 676 
1807 270 106 10 664 
1808 637 630 640 672 
1809 305 328 604 671 
1810 12 120 378 670 
1811 602 261 323 660 
1812 348 287 636 658 
1813 636 654 647 659 
1814 11 615 470 649 
1815 179 420 418 660 
1816 8 278 650 665 
1817 549 110 646 652 
1818 72 21 130 636 
1819 520 576 541 672 
1820 451 165 497 541 
1821 307 49 131 662 
1822 312 397 4 274 
1823 420 26 261 660 
1824 270 10 12 664 
1825 24 134 643 654 
1826 507 496 629 641 
1827 7 100 277 270 
1828 593 661 640 662 
1829 628 640 643 674 
1830 49 584 184 662 
1831 368 626 69 367 
1832 498 526 527 650 
1833 394 581 88 463 
1834 284 411 113 668 
1835 24 643 18 655 
1836 602 418 420 660 
1837 48 289 179 660 
1838 281 7 277 270 
1839 185 655 639 662 
1840 389 338 3 525 
1841 261 306 323 660 
1842 279 213 529 668 
1843 562 449 331 656 
1844 348 147 47 636 
1845 612 61 248 675 
1846 423 141 547 663 
1847 130 72 636 671 
1848 99 211 489 193 
1849 416 658 301 676 
1850 641 644 637 661 
1851 104 624 582 664 
1852 542 73 58 509 
1853 537 256 37 669 
1854 502 529 213 668 
1855 415 647 72 658 
1856 143 358 20 351 
1857 452 630 513 672 
1858 222 146 137 324 
1859 404 410 112 671 
1860 583 636 557 654 
1861 639 640 630 672 
1862 321 332 274 246 
1863 42 114 404 671 
1864 605 302 74 633 
1865 42 342 569 177 
1866 259 354 415 659 
1867 169 295 478 318 
1868 493 535 302 637 
1869 415 416 128 647 
1870 288 426 227 520 
1871 640 593 654 661 
1872 503 654 641 674 
1873 337 37 380 669 
1874 77 328 305 671 
1875 610 304 592 511 
1876 552 609 463 669 
1877 628 643 640 655 
1878 443 206 569 239 
1879 128 416 123 676 
1880 281 501 103 90 
1881 442 51 619 663 
1882 652 658 638 671 
1883 78 588 106 664 
1884 276 604 328 671 
1885 628 639 630 672 
1886 432 595 452 513 
1887 621 619 522 672 
1888 548 538 143 637 
1889 185 18 622 655 
1890 148 538 627 637 
1891 591 623 398 666 
1892 342 638 569 648 
1893 640 643 24 655 
1894 253 407 241 453 
1895 253 241 350 676 
1896 42 342 544 569 
1897 370 235 560 532 
1898 635 653 646 655 
1899 377 422 220 417 
1900 283 106 664 670 
1901 269 106 270 664 
1902 11 470 471 649 
1903 89 393 401 666 
1904 292 370 436 176 
1905 286 658 47 667 
1906 475 521 259 659 
1907 128 23 415 647 
1908 521 357 259 659 
1909 279 403 284 473 
1910 39 78 40 664 
1911 510 577 430 647 
1912 403 279 284 668 
1913 101 650 256 665 
1914 572 644 430 647 
1915 620 128 123 676 
1916 584 661 593 662 
1917 537 282 256 665 
1918 161 32 159 170 
1919 108 11 7 270 
1920 537 601 282 665 
1921 286 144 441 667 
1922 108 7 12 270 
1923 458 357 521 659 
1924 220 477 422 644 
1925 231 480 365 514 
1926 475 259 415 659 
1927 518 510 555 496 
1928 501 187 67 277 
1929 544 569 342 638 
1930 621 576 64 227 
1931 164 316 165 497 
1932 123 416 301 676 
1933 191 388 177 96 
1934 645 646 110 652 
1935 604 305 87 390 
1936 278 450 491 665 
1937 248 663 260 675 
1938 603 103 97 90 
1939 316 164 483 497 
1940 100 7 11 270 
1941 10 12 13 340 
1942 464 377 422 644 
1943 507 523 455 674 
1944 270 100 489 645 
1945 650 665 632 669 
1946 241 253 453 676 
1947 72 658 636 671 
1948 8 209 278 665 
1949 253 620 123 676 
1950 328 638 77 645 
1951 269 501 281 90 
1952 8 650 101 665 
1953 335 526 198 650 
1954 630 639 628 640 
1955 260 288 419 663 
1956 544 42 569 638 
1957 100 489 501 270 
1958 415 416 647 658 
1959 501 67 187 472 
1960 342 461 569 177 
1961 497 316 451 672 
1962 354 21 636 659 
1963 181 626 69 368 
1964 511 630 452 657 
1965 452 595 508 657 
1966 128 647 416 676 
1967 107 645 110 652 
1968 453 407 241 676 
1969 159 317 161 170 
1970 256 650 5 669 
1971 486 464 422 644 
1972 123 301 122 676 
1973 419 512 612 675 
1974 355 130 21 636 
1975 214 643 646 655 
1976 24 643 640 654 
1977 152 362 613 149 
1978 187 208 67 473 
1979 252 195 489 668 
1980 277 501 187 281 
1981 597 628 580 630 
1982 267 159 317 161 
1983 624 86 91 664 
1984 620 647 128 676 
1985 588 86 624 664 
1986 628 643 631 674 
1987 201 391 449 656 
1988 383 177 461 191 
1989 167 171 74 263 
1990 228 492 515 657 
1991 493 627 538 637 
1992 557 636 643 654 
1993 632 665 650 666 
1994 198 526 41 650 
1995 619 621 361 227 
1996 595 452 508 566 
1997 554 482 218 663 
1998 115 280 242 564 
1999 411 387 489 648 
2000 103 501 97 90 
2001 319 650 498 666 
2002 562 460 314 606 
2003 502 213 528 668 
2004 436 235 560 370 
2005 387 195 502 668 
2006 489 211 529 668 
2007 147 636 583 654 
2008 338 529 3 525 
2009 419 260 663 675 
2010 548 493 538 637 
2011 429 637 548 662 
2012 429 548 307 662 
2013 484 656 635 666 
2014 143 548 49 351 
2015 113 129 125 124 
2016 388 177 461 383 
2017 13 405 14 670 
2018 78 269 270 664 
2019 229 173 56 494 
2020 635 646 643 655 
2021 616 601 282 111 
2022 270 108 649 653 
2023 88 271 594 463 
2024 131 351 49 307 
2025 328 397 207 312 
2026 523 507 570 674 
2027 470 214 646 649 
2028 411 489 387 668 
2029 639 655 640 662 
2030 455 467 631 674 
2031 489 529 252 668 
2032 13 14 120 670 
2033 58 542 509 371 
2034 628 630 640 674 
2035 388 312 4 321 
2036 44 283 408 670 
2037 383 388 177 191 
2038 192 113 124 343 
2039 20 25 358 143 
2040 286 47 144 667 
2041 406 450 209 665 
2042 75 236 592 511 
2043 278 209 450 665 
2044 108 11 270 649 
2045 609 552 632 669 
2046 381 302 605 633 
2047 348 636 47 658 
2048 525 489 67 211 
2049 640 654 641 661 
2050 259 258 354 659 
2051 245 293 231 365 
2052 385 107 99 645 
2053 568 629 496 633 
2054 636 652 346 671 
2055 241 667 350 676 
2056 437 457 78 664 
2057 205 202 607 336 
2058 537 665 256 669 
2059 245 237 550 511 
2060 387 638 489 648 
2061 636 658 652 671 
2062 541 451 251 672 
2063 277 100 501 270 
2064 153 510 68 151 
2065 256 665 650 669 
2066 147 47 636 647 
2067 470 646 110 649 
2068 358 538 148 143 
2069 529 489 525 211 
2070 569 387 443 638 
2071 291 262 64 522 
2072 409 528 213 668 
2073 475 504 521 659 
2074 452 571 513 630 
2075 592 299 157 511 
2076 3 196 389 525 
2077 491 450 406 665 
2078 445 635 579 646 
2079 425 575 631 632 
2080 477 486 422 644 
2081 95 607 102 205 
2082 572 430 577 647 
2083 380 94 37 337 
2084 102 8 278 273 
2085 319 526 498 650 
2086 144 47 647 667 
2087 647 658 416 676 
2088 367 626 69 160 
2089 182 124 353 127 
2090 102 205 336 273 
2091 278 116 491 450 
2092 329 461 206 383 
2093 51 218 482 663 
2094 308 57 30 370 
2095 153 68 510 586 
2096 51 423 218 663 
2097 518 431 570 590 
2098 522 64 291 621 
2099 631 643 654 674 
2100 123 453 253 676 
2101 453 123 122 676 
2102 469 230 296 629 
2103 353 352 477 178 
2104 58 73 165 509 
2105 88 594 326 463 
2106 489 252 529 525 
2107 599 458 521 659 
2108 501 399 97 90 
2109 451 165 316 497 
2110 478 295 254 318 
2111 380 256 5 669 
2112 206 448 443 329 
2113 457 437 314 606 
2114 630 637 571 672 
2115 3 338 389 333 
2116 110 646 645 649 
2117 552 463 631 646 
2118 480 245 365 511 
2119 571 580 629 674 
2120 550 304 290 511 
2121 147 647 636 654 
2122 78 270 437 664 
2123 436 175 235 370 
2124 17 22 351 133 
2125 351 22 140 138 
2126 49 307 548 662 
2127 139 647 504 659 
2128 572 421 377 667 
2129 138 17 351 133 
2130 90 269 84 85 
2131 571 630 580 674 
2132 66 247 275 83 
2133 6 5 650 669 
2134 412 346 313 671 
2135 202 101 92 607 
2136 370 597 309 532 
2137 236 299 592 511 
2138 47 658 647 667 
2139 494 532 467 597 
2140 337 66 395 669 
2141 98 211 489 99 
2142 227 426 619 520 
2143 403 343 279 668 
2144 380 5 6 669 
2145 628 580 630 674 
2146 19 356 222 137 
2147 497 571 316 672 
2148 215 126 135 266 
2149 373 436 382 292 
2150 169 366 233 633 
2151 44 405 283 670 
2152 452 36 508 566 
2153 343 213 279 668 
2154 535 316 194 637 
2155 571 637 316 672 
2156 538 358 25 143 
2157 570 507 496 629 
2158 638 645 107 652 
2159 195 387 489 668 
2160 329 388 461 383 
2161 318 533 317 254 
2162 533 159 590 585 
2163 532 53 34 673 
2164 380 275 94 669 
2165 207 276 397 328 
2166 395 66 83 669 
2167 55 309 370 176 
2168 589 614 221 135 
2169 72 647 636 658 
2170 83 66 247 669 
2171 515 511 228 657 
2172 20 548 143 351 
2173 361 426 619 227 
2174 211 489 67 98 
2175 213 119 409 668 
2176 27 53 156 532 
2177 380 6 275 669 
2178 566 452 36 294 
2179 429 535 493 637 
2180 579 463 646 652 
2181 138 351 22 133 
2182 173 56 494 674 
2183 569 489 387 638 
2184 94 275 66 669 
2185 294 375 617 435 
2186 292 55 370 176 
2187 579 646 635 649 
2188 274 4 321 204 
2189 600 133 138 183 
2190 464 633 430 644 
2191 511 299 157 452 
2192 6 650 41 669 
2193 133 138 17 600 
2194 216 115 551 608 
2195 247 6 41 669 
2196 247 275 6 669 
2197 25 20 548 143 
2198 305 604 328 390 
2199 590 243 570 625 
2200 461 206 569 329 
2201 538 25 548 143 
2202 380 94 337 669 
2203 506 443 448 456 
2204 464 486 633 644 
2205 478 590 496 459 
2206 484 303 201 656 
2207 395 394 609 669 
2208 503 631 654 674 
2209 431 447 510 507 
2210 236 237 245 511 
2211 569 638 328 645 
2212 572 647 421 667 
2213 328 604 87 390 
2214 631 643 636 654 
2215 381 633 486 644 
2216 370 436 175 292 
2217 349 117 46 554 
2218 489 195 252 525 
2219 94 66 337 669 
2220 156 53 34 532 
2221 154 59 531 673 
2222 103 10 9 340 
2223 59 613 531 673 
2224 489 638 569 645 
2225 456 506 387 502 
2226 521 424 599 659 
2227 155 34 53 673 
2228 480 231 561 514 
2229 231 480 245 365 
2230 636 647 47 658 
2231 590 478 496 518 
2232 599 447 446 659 
2233 194 316 571 637 
2234 220 422 477 178 
2235 371 69 626 160 
2236 83 247 1 539 
2237 524 494 379 308 
2238 303 484 268 656 
2239 422 353 477 178 
2240 233 366 574 633 
2241 37 255 94 380 
2242 343 119 213 668 
2243 154 155 362 673 
2244 625 32 468 545 
2245 607 95 519 205 
2246 579 646 645 652 
2247 195 553 327 502 
2248 177 461 569 388 
2249 591 656 484 666 
2250 351 548 49 307 
2251 247 66 275 669 
2252 303 268 330 398 
2253 154 362 59 673 
2254 370 175 55 292 
2255 560 597 370 532 
2256 209 406 111 450 
2257 503 455 631 674 
2258 478 518 555 496 
2259 589 413 221 665 
2260 233 536 162 366 
2261 27 309 156 176 
2262 546 665 589 673 
2263 494 56 229 320 
2264 443 569 206 329 
2265 328 207 569 312 
2266 510 424 153 586 
2267 589 221 575 665 
2268 480 365 515 511 
2269 201 449 484 656 
2270 126 135 413 215 
2271 413 126 215 665 
2272 484 591 268 656 
2273 600 120 14 183 
2274 73 58 165 479 
2275 447 424 510 659 
2276 59 362 613 673 
2277 254 518 555 478 
2278 617 36 299 452 
2279 74 302 171 167 
2280 298 626 368 367 
2281 626 298 371 160 
2282 467 455 523 674 
2283 391 331 460 449 
2284 328 77 305 390 
2285 237 550 293 245 
2286 647 667 658 676 
2287 320 494 56 674 
2288 253 620 453 123 
2289 254 555 295 478 
2290 590 570 518 496 
2291 297 230 469 629 
2292 284 403 38 473 
2293 375 617 299 452 
2294 237 236 75 511 
2295 579 645 646 649 
2296 233 162 574 366 
2297 1 395 539 669 
2298 362 546 589 673 
2299 297 495 230 629 
2300 560 597 436 370 
2301 59 613 149 223 
2302 447 599 424 659 
2303 546 491 406 665 
2304 298 626 367 160 
2305 536 233 169 366 
2306 388 461 569 329 
2307 203 399 333 472 
2308 429 316 535 637 
2309 496 590 570 459 
2310 562 314 460 449 
2311 387 195 327 502 
2312 574 162 233 311 
2313 362 59 613 149 
2314 395 83 539 669 
2315 413 215 537 665 
2316 413 589 221 135 
2317 222 356 19 136 
2318 515 365 480 514 
2319 135 413 589 126 
2320 574 311 233 633 
2321 87 305 77 390 
2322 43 453 123 122 
2323 83 247 539 669 
2324 487 578 597 543 
2325 387 327 456 502 
2326 626 298 542 371 
2327 367 368 298 158 
2328 201 484 268 303 
2329 298 367 158 160 
2330 543 578 597 376 
2331 247 41 539 669 
2332 121 266 215 341 
2333 413 632 575 665 
2334 413 589 126 665 
2335 221 413 575 665 
2336 395 609 337 669 
2337 488 316 164 483 
2338 406 616 546 665 
2339 172 71 234 265 
2340 540 631 346 636 
2341 589 546 616 665 
2342 524 229 186 559 
2343 522 291 262 621 
2344 523 494 467 674 
2345 140 548 20 351 
2346 540 636 346 671 
2347 298 626 181 368 
2348 264 74 28 171 
2349 589 614 135 126 
2350 531 613 425 673 
2351 460 331 562 449 
2352 540 355 558 636 
2353 446 636 558 659 
2354 580 494 320 674 
2355 558 631 540 636 
2356 558 219 50 659 
2357 558 50 359 659 
2358 20 22 140 351 
2359 88 326 594 81 
2360 366 573 295 555 
2361 558 359 446 659 
2362 351 140 548 307 
2363 578 534 238 232 
2364 140 25 20 548 
2365 20 22 142 140 
2366 531 425 563 673 
2367 229 186 166 524 
2368 425 455 563 467 
2369 165 58 31 479 
2370 452 265 432 513 
2371 151 68 63 431 
2372 140 25 142 20 
2373 252 195 553 327 
2374 196 252 195 525 
2375 489 387 525 501 
2376 473 466 403 208 
2377 10 14 13 405 
2378 562 331 460 606 
2379 245 480 236 511 
2380 511 561 480 567 
2381 497 298 513 73 
2382 291 426 621 361 
2383 218 423 51 442 
2384 452 265 234 432 
2385 542 58 626 371 
2386 424 533 586 510 
2387 169 233 478 496 
2388 495 230 433 168 
2389 495 308 494 524 
2390 559 56 517 320 
2391 436 578 376 597 
2392 238 534 611 232 
2393 235 175 57 370 
2394 382 376 436 373 
2395 589 362 53 546 
2396 575 135 413 221 
2397 614 135 126 266 
2398 82 66 83 395 
2399 527 198 335 526 
2400 325 450 116 278 
2401 116 406 491 450 
2402 88 594 271 81 
2403 604 305 397 87 
2404 327 456 443 387 
2405 424 153 586 598 
2406 77 197 305 87 
2407 387 329 569 443 
2408 387 489 525 195 
2409 572 573 577 430 
2410 387 329 388 569 
2411 480 299 236 511 
2412 568 571 496 629 
2413 552 346 540 631 
2414 558 575 540 631 
2415 575 558 503 631 
2416 425 503 455 631 
2417 579 270 489 645 
2418 489 569 579 645 
2419 579 569 328 645 
2420 553 529 502 668 
2421 570 495 494 674 
2422 523 570 494 674 
2423 155 156 53 34 
2424 155 53 156 27 
2425 35 386 654 147 
2426 654 386 35 661 
2427 648 105 569 342 
2428 648 569 105 239 
2429 437 606 664 314 
2430 437 664 606 190 
2431 562 664 606 314 
2432 562 606 664 190 
2433 423 46 663 547 
2434 663 46 423 218 
2435 399 466 208 97 
2436 399 472 208 333 
2437 559 56 229 186 
2438 559 229 56 320 
2439 39 91 664 40 
2440 39 664 91 86 
2441 421 417 667 350 
2442 421 667 417 377 
2443 662 640 185 655 
2444 24 185 640 655 
2445 372 236 54 592 
2446 299 54 236 592 
2447 274 87 312 397 
2448 274 312 87 332 
2449 328 312 87 397 
2450 656 500 642 45 
2451 656 642 500 634 
2452 586 431 533 444 
2453 657 225 363 226 
2454 657 363 225 660 
2455 364 428 657 226 
2456 428 225 657 226 
2457 126 589 149 152 
2458 126 149 589 614 
2459 660 462 418 551 
2460 660 418 462 347 
2461 606 460 457 199 
2462 606 457 460 314 
2463 543 310 578 534 
2464 543 578 310 487 
2465 273 336 650 335 
2466 273 650 336 102 
2467 217 651 655 653 
2468 655 651 217 675 
2469 644 510 633 430 
2470 644 633 510 641 
2471 167 302 637 74 
2472 167 637 302 535 
2473 75 550 511 304 
2474 75 511 550 237 
2475 536 295 366 169 
2476 366 295 536 162 
2477 110 471 645 385 
2478 110 645 471 649 
2479 100 645 471 385 
2480 311 486 633 574 
2481 125 178 182 129 
2482 182 124 125 129 
2483 125 124 182 127 
2484 142 137 25 356 
2485 538 137 25 358 
2486 538 25 137 356 
2487 509 576 522 513 
2488 522 576 509 64 
2489 522 262 509 513 
2490 509 262 522 64 
2491 499 239 648 210 
2492 509 576 672 541 
2493 672 576 509 513 
2494 672 73 509 541 
2495 509 73 672 513 
2496 314 562 656 449 
2497 656 562 314 664 
2498 656 437 314 449 
2499 314 437 656 664 
2500 216 474 551 115 
2501 216 551 474 65 
2502 280 551 474 115 
2503 280 474 551 65 
2504 641 510 447 507 
2505 447 510 641 659 
2506 281 103 340 269 
2507 281 340 103 9 
2508 280 564 642 242 
2509 635 669 650 632 
2510 650 669 635 445 
2511 444 63 159 267 
2512 444 159 63 431 
2513 177 207 569 42 
2514 259 76 145 475 
2515 145 76 259 357 
2516 145 521 259 475 
2517 259 521 145 357 
2518 657 578 310 567 
2519 182 125 353 178 
2520 182 353 125 127 
2521 132 353 125 178 
2522 132 125 353 127 
2523 590 533 478 518 
2524 590 478 533 585 
2525 657 157 52 508 
2526 657 52 157 610 
2527 20 25 137 358 
2528 20 137 25 142 
2529 338 333 67 389 
2530 254 533 478 318 
2531 254 478 533 518 
2532 651 118 554 490 
2533 651 554 118 117 
2534 312 177 4 397 
2535 417 422 178 353 
2536 464 574 633 486 
2537 633 574 464 430 
2538 637 167 194 535 
2539 377 220 35 144 
2540 35 220 377 644 
2541 438 666 242 454 
2542 280 666 242 642 
2543 663 426 619 442 
2544 663 619 426 520 
2545 645 471 270 100 
2546 645 270 471 649 
2547 11 270 471 100 
2548 11 471 270 649 
2549 165 497 31 164 
2550 118 582 664 300 
2551 664 582 118 439 
2552 652 322 197 79 
2553 85 78 86 588 
2554 85 86 78 39 
2555 664 86 78 588 
2556 664 78 86 39 
2557 299 157 36 54 
2558 459 625 570 468 
2559 459 570 625 590 
2560 160 298 542 158 
2561 542 298 160 371 
2562 542 509 160 158 
2563 160 509 542 371 
2564 533 431 159 444 
2565 533 159 431 590 
2566 600 675 138 17 
2567 444 431 68 586 
2568 444 68 431 63 
2569 286 676 241 648 
2570 241 676 286 667 
2571 623 398 268 591 
2572 268 398 623 330 
2573 276 671 112 604 
2574 112 671 276 404 
2575 52 660 26 363 
2576 26 660 52 505 
2577 561 511 657 567 
2578 41 202 650 6 
2579 41 650 202 198 
2580 146 358 538 148 
2581 538 358 146 137 
2582 538 324 146 148 
2583 146 324 538 137 
2584 508 657 505 52 
2585 636 354 647 72 
2586 636 647 354 659 
2587 415 647 354 72 
2588 415 354 647 659 
2589 655 651 634 653 
2590 655 634 651 639 
2591 499 506 648 239 
2592 648 506 499 528 
2593 269 334 90 603 
2594 269 90 334 85 
2595 199 40 664 91 
2596 199 664 40 457 
2597 281 501 270 277 
2598 281 270 501 269 
2599 220 417 178 441 
2600 178 417 220 422 
2601 646 653 649 214 
2602 649 653 646 635 
2603 130 112 671 412 
2604 671 112 130 410 
2605 495 243 629 570 
2606 629 243 495 230 
2607 664 457 190 437 
2608 664 190 457 199 
2609 606 190 457 437 
2610 606 457 190 199 
2611 138 183 675 600 
2612 138 675 183 612 
2613 120 675 183 600 
2614 375 617 236 299 
2615 375 236 617 174 
2616 54 236 617 299 
2617 650 335 465 273 
2618 12 270 653 108 
2619 653 270 12 664 
2620 458 599 481 360 
2621 458 481 599 521 
2622 99 385 489 98 
2623 99 489 385 645 
2624 100 489 385 98 
2625 100 385 489 645 
2626 103 501 187 97 
2627 187 208 103 97 
2628 103 208 187 9 
2629 656 331 391 449 
2630 318 533 170 317 
2631 159 533 170 585 
2632 159 170 533 317 
2633 621 619 426 442 
2634 621 426 619 361 
2635 404 42 638 207 
2636 638 42 404 671 
2637 638 328 276 207 
2638 276 328 638 671 
2639 404 638 276 207 
2640 276 638 404 671 
2641 340 7 270 12 
2642 340 10 270 269 
2643 270 10 340 12 
2644 657 673 578 628 
2645 597 578 673 628 
2646 597 673 578 487 
2647 649 653 484 270 
2648 484 653 649 635 
2649 511 304 657 610 
2650 226 657 304 610 
2651 648 506 443 239 
2652 443 569 648 239 
2653 648 569 443 638 
2654 669 395 93 1 
2655 93 395 669 394 
2656 445 669 463 618 
2657 463 669 445 646 
2658 463 594 445 618 
2659 291 262 160 64 
2660 291 160 262 367 
2661 158 262 160 367 
2662 621 361 64 291 
2663 621 64 361 227 
2664 177 4 569 312 
2665 388 569 4 312 
2666 76 458 481 360 
2667 657 514 310 515 
2668 514 511 657 561 
2669 657 511 514 515 
2670 514 480 511 561 
2671 511 480 514 515 
2672 525 252 3 196 
2673 525 3 252 529 
2674 288 663 442 426 
2675 564 325 242 438 
2676 588 85 269 334 
2677 269 85 588 78 
2678 269 106 588 334 
2679 588 106 269 78 
2680 224 225 364 428 
2681 638 207 569 328 
2682 638 569 207 42 
2683 238 611 310 567 
2684 310 611 238 534 
2685 310 578 238 567 
2686 238 578 310 534 
2687 665 601 215 537 
2688 458 359 659 599 
2689 659 359 458 357 
2690 443 206 506 448 
2691 506 206 443 239 
2692 320 674 629 580 
2693 659 139 475 504 
2694 281 103 187 9 
2695 281 187 103 501 
2696 597 532 27 309 
2697 590 159 545 585 
2698 170 159 545 32 
2699 170 545 159 585 
2700 674 571 641 629 
2701 674 641 571 630 
2702 483 73 31 479 
2703 483 31 73 497 
2704 165 31 73 479 
2705 165 73 31 497 
2706 492 673 491 546 
2707 492 491 673 632 
2708 665 491 673 546 
2709 665 673 491 632 
2710 652 346 643 636 
2711 631 643 346 636 
2712 6 92 101 5 
2713 101 92 6 202 
2714 101 650 6 5 
2715 6 650 101 202 
2716 573 496 295 555 
2717 478 496 295 169 
2718 478 295 496 555 
2719 216 660 48 608 
2720 158 298 265 368 
2721 181 298 265 172 
2722 181 265 298 368 
2723 192 125 124 113 
2724 192 124 125 127 
2725 258 219 659 50 
2726 258 659 219 354 
2727 270 281 340 269 
2728 270 340 281 7 
2729 264 162 233 536 
2730 220 137 222 146 
2731 220 222 137 19 
2732 312 207 177 397 
2733 312 177 207 569 
2734 431 510 68 586 
2735 157 452 36 508 
2736 36 452 157 299 
2737 463 652 189 322 
2738 311 28 633 605 
2739 74 633 28 605 
2740 74 28 633 264 
2741 495 517 168 433 
2742 676 647 253 620 
2743 244 647 253 421 
2744 244 253 647 620 
2745 667 572 144 377 
2746 667 144 572 647 
2747 144 572 35 377 
2748 144 35 572 647 
2749 35 572 644 377 
2750 35 644 572 647 
2751 290 511 245 550 
2752 245 511 290 365 
2753 245 293 290 550 
2754 290 293 245 365 
2755 452 157 657 508 
2756 452 657 157 511 
2757 631 646 632 552 
2758 632 646 631 643 
2759 164 483 384 488 
2760 384 483 164 31 
2761 384 29 164 488 
2762 164 29 384 31 
2763 204 96 321 191 
2764 204 321 96 4 
2765 388 321 96 191 
2766 388 96 321 4 
2767 202 519 607 92 
2768 202 607 519 205 
2769 510 647 504 577 
2770 510 504 647 659 
2771 670 14 44 405 
2772 670 44 14 120 
2773 183 44 14 405 
2774 183 14 44 120 
2775 507 496 518 570 
2776 518 496 507 510 
2777 518 431 507 570 
2778 507 431 518 510 
2779 163 570 625 468 
2780 625 570 163 243 
2781 374 459 570 468 
2782 163 374 570 468 
2783 673 53 546 487 
2784 483 488 194 384 
2785 483 194 488 316 
2786 535 488 194 316 
2787 672 571 513 497 
2788 672 513 571 630 
2789 494 597 628 580 
2790 628 597 494 467 
2791 628 674 494 580 
2792 494 674 628 467 
2793 210 43 648 499 
2794 210 648 43 212 
2795 308 560 494 379 
2796 580 560 494 597 
2797 666 398 89 623 
2798 666 89 398 401 
2799 330 89 398 623 
2800 330 398 89 401 
2801 344 345 656 45 
2802 656 345 344 485 
2803 475 145 139 23 
2804 425 632 613 575 
2805 425 613 632 673 
2806 589 152 665 575 
2807 517 674 56 173 
2808 56 674 517 320 
2809 395 1 83 82 
2810 395 83 1 539 
2811 463 579 445 594 
2812 463 445 579 646 
2813 660 530 216 48 
2814 343 192 38 403 
2815 38 192 343 113 
2816 163 459 570 374 
2817 570 459 163 243 
2818 617 294 452 375 
2819 452 294 617 36 
2820 578 376 534 232 
2821 578 534 376 543 
2822 382 534 376 232 
2823 382 376 534 543 
2824 43 250 648 499 
2825 80 81 652 189 
2826 524 379 186 166 
2827 524 186 379 559 
2828 139 128 647 23 
2829 397 604 328 276 
2830 328 604 397 87 
2831 27 292 436 176 
2832 673 154 34 531 
2833 673 34 154 155 
2834 365 228 511 290 
2835 365 511 228 515 
2836 153 510 447 424 
2837 447 510 153 151 
2838 220 222 178 477 
2839 220 178 222 19 
2840 352 178 222 477 
2841 601 215 255 341 
2842 601 255 215 537 
2843 37 255 215 341 
2844 37 215 255 537 
2845 525 501 67 489 
2846 525 67 501 472 
2847 412 604 671 313 
2848 412 671 604 112 
2849 575 589 223 221 
2850 613 575 223 221 
2851 633 233 74 264 
2852 558 631 446 503 
2853 558 446 631 636 
2854 659 654 446 636 
2855 446 631 654 503 
2856 446 654 631 636 
2857 426 442 141 423 
2858 426 141 442 288 
2859 663 141 51 423 
2860 141 442 51 423 
2861 400 200 656 257 
2862 400 656 200 396 
2863 219 659 21 354 
2864 297 230 296 469 
2865 297 296 230 556 
2866 412 671 540 346 
2867 504 244 647 139 
2868 504 647 244 577 
2869 91 582 664 439 
2870 91 664 582 624 
2871 625 159 545 590 
2872 625 545 159 32 
2873 292 543 436 382 
2874 292 436 543 487 
2875 597 543 436 487 
2876 331 200 656 391 
2877 331 656 200 257 
2878 151 447 150 153 
2879 151 150 447 599 
2880 449 591 268 484 
2881 268 591 449 391 
2882 268 201 449 484 
2883 449 201 268 391 
2884 48 224 660 530 
2885 48 660 224 289 
2886 55 373 175 33 
2887 55 175 373 292 
2888 436 175 373 33 
2889 436 373 175 292 
2890 230 556 495 297 
2891 230 495 556 168 
2892 517 495 556 297 
2893 517 556 495 168 
2894 28 302 74 605 
2895 28 74 302 171 
2896 537 337 669 37 
2897 537 669 337 609 
2898 514 657 567 561 
2899 567 657 514 310 
2900 567 611 514 561 
2901 514 611 567 310 
2902 312 390 87 332 
2903 312 87 390 328 
2904 283 588 664 106 
2905 283 664 588 104 
2906 234 299 375 587 
2907 234 375 299 452 
2908 294 375 432 452 
2909 432 234 375 587 
2910 432 375 234 452 
2911 486 605 633 381 
2912 486 633 605 311 
2913 469 320 629 580 
2914 469 629 320 297 
2915 453 676 648 407 
2916 648 250 453 407 
2917 453 250 648 43 
2918 177 397 96 4 
2919 177 96 397 207 
2920 276 96 397 4 
2921 276 397 96 207 
2922 203 399 269 84 
2923 90 399 269 501 
2924 90 269 399 84 
2925 208 67 338 333 
2926 208 399 338 466 
2927 338 399 208 333 
2928 403 279 338 473 
2929 338 279 403 109 
2930 338 466 403 473 
2931 403 466 338 109 
2932 222 538 137 356 
2933 222 137 538 324 
2934 140 512 351 138 
2935 140 351 512 307 
2936 131 351 512 138 
2937 131 512 351 307 
2938 91 190 664 199 
2939 664 190 91 439 
2940 650 527 666 465 
2941 650 666 527 498 
2942 272 666 527 465 
2943 272 527 666 498 
2944 666 498 484 272 
2945 666 484 498 319 
2946 591 498 484 319 
2947 402 242 666 454 
2948 666 242 402 280 
2949 257 485 656 400 
2950 257 656 485 345 
2951 602 45 660 323 
2952 602 660 45 344 
2953 642 45 660 344 
2954 280 65 564 474 
2955 285 564 65 474 
2956 657 304 427 226 
2957 290 427 304 226 
2958 363 289 660 26 
2959 363 660 289 225 
2960 261 505 660 26 
2961 660 505 261 306 
2962 610 363 657 52 
2963 610 657 363 226 
2964 566 432 452 294 
2965 452 432 566 595 
2966 432 435 294 369 
2967 298 73 158 513 
2968 298 158 73 542 
2969 509 158 73 513 
2970 509 73 158 542 
2971 158 522 513 262 
2972 496 233 633 169 
2973 496 633 233 568 
2974 627 302 637 493 
2975 477 381 644 627 
2976 477 644 381 486 
2977 194 497 316 483 
2978 316 497 194 571 
2979 366 430 633 573 
2980 366 633 430 574 
2981 430 577 555 573 
2982 555 577 430 510 
2983 430 555 496 573 
2984 496 555 430 510 
2985 430 496 633 573 
2986 633 496 430 510 
2987 533 510 431 586 
2988 431 510 533 518 
2989 317 444 159 267 
2990 317 159 444 533 
2991 469 629 459 496 
2992 469 459 629 296 
2993 166 524 308 30 
2994 308 524 166 379 
2995 308 57 166 30 
2996 166 57 308 379 
2997 53 292 436 27 
2998 436 292 53 487 
2999 53 436 597 27 
3000 597 436 53 487 
3001 53 597 532 27 
3002 235 379 308 57 
3003 308 379 235 560 
3004 235 532 308 560 
3005 532 531 673 34 
3006 673 531 532 563 
3007 665 632 537 413 
3008 552 632 537 609 
3009 552 537 632 413 
3010 539 618 669 445 
3011 669 618 539 1 
3012 305 322 671 313 
3013 521 510 659 504 
3014 521 659 510 424 
3015 377 430 644 464 
3016 377 644 430 572 
3017 244 572 647 421 
3018 647 572 244 577 
3019 329 321 383 2 
3020 329 383 321 388 
3021 383 321 249 2 
3022 274 246 204 321 
3023 274 204 246 392 
3024 478 170 533 585 
3025 478 533 170 318 
3026 449 270 656 437 
3027 449 656 270 484 
3028 653 656 270 437 
3029 653 270 656 484 
3030 89 465 666 272 
3031 89 666 465 393 
3032 524 433 494 495 
3033 524 494 433 229 
3034 173 433 494 229 
3035 146 222 644 324 
3036 627 644 222 324 
3037 627 222 644 477 
3038 617 372 236 54 
3039 617 236 372 174 
3040 540 413 631 575 
3041 540 631 413 552 
3042 632 631 413 575 
3043 632 413 631 552 
3044 269 472 399 203 
3045 399 472 269 501 
3046 579 484 635 445 
3047 635 484 579 649 
3048 447 446 641 503 
3049 447 641 446 659 
3050 654 641 446 503 
3051 654 446 641 659 
3052 632 613 362 673 
3053 674 641 507 629 
3054 530 65 660 216 
3055 482 639 651 634 
3056 651 639 482 663 
3057 601 121 665 215 
3058 601 665 121 616 
3059 126 665 121 215 
3060 504 145 475 521 
3061 475 145 504 139 
3062 656 462 402 339 
3063 656 402 462 642 
3064 662 639 663 672 
3065 663 639 662 675 
3066 481 424 599 521 
3067 652 463 594 579 
3068 652 80 594 81 
3069 188 652 643 557 
3070 643 652 188 646 
3071 50 357 659 258 
3072 659 357 50 359 
3073 74 194 637 167 
3074 509 262 160 158 
3075 509 160 262 64 
3076 589 121 665 616 
3077 665 121 589 126 
3078 581 463 669 618 
3079 669 463 581 394 
3080 669 1 581 618 
3081 660 65 551 216 
3082 660 551 65 642 
3083 652 79 189 322 
3084 652 189 79 80 
3085 149 589 575 152 
3086 575 589 149 223 
3087 575 613 149 152 
3088 149 613 575 223 
3089 384 29 167 263 
3090 412 355 671 130 
3091 412 671 355 540 
3092 636 671 355 130 
3093 636 355 671 540 
3094 565 400 656 485 
3095 565 656 400 440 
3096 578 673 310 487 
3097 578 310 673 657 
3098 515 310 673 487 
3099 515 673 310 657 
3100 643 652 631 346 
3101 643 631 652 646 
3102 463 631 652 346 
3103 463 652 631 646 
3104 113 284 343 38 
3105 113 343 284 668 
3106 403 343 284 38 
3107 403 284 343 668 
3108 265 513 298 158 
3109 435 375 432 294 
3110 432 375 435 587 
3111 298 265 452 513 
3112 489 638 99 193 
3113 489 99 638 645 
3114 107 99 638 193 
3115 107 638 99 645 
3116 151 431 510 68 
3117 510 431 151 447 
3118 249 321 246 2 
3119 246 321 249 204 
3120 246 392 249 2 
3121 249 392 246 204 
3122 524 229 320 494 
3123 320 229 524 559 
3124 620 139 647 244 
3125 647 139 620 128 
3126 633 496 295 573 
3127 295 496 633 169 
3128 295 366 633 573 
3129 633 366 295 169 
3130 136 222 178 19 
3131 178 222 136 352 
3132 178 132 136 19 
3133 136 132 178 352 
3134 223 614 589 149 
3135 223 589 614 221 
3136 355 219 659 21 
3137 659 219 355 558 
3138 659 636 355 21 
3139 355 636 659 558 
3140 666 623 484 591 
3141 666 484 623 272 
3142 498 484 623 591 
3143 498 623 484 272 
3144 234 298 265 452 
3145 234 265 298 172 
3146 432 158 513 265 
3147 513 158 432 522 
3148 384 74 167 194 
3149 384 167 74 263 
3150 28 162 233 264 
3151 233 162 28 311 
3152 233 633 28 264 
3153 28 633 233 311 
3154 328 594 645 80 
3155 328 645 594 579 
3156 652 645 594 80 
3157 652 594 645 579 
3158 674 455 641 503 
3159 674 641 455 507 
3160 447 641 455 503 
3161 447 455 641 507 
3162 642 476 660 492 
3163 642 660 476 65 
3164 530 476 660 65 
3165 427 476 660 530 
3166 427 660 476 492 
3167 233 194 633 74 
3168 233 633 194 568 
3169 637 633 194 74 
3170 637 194 633 568 
3171 637 316 662 429 
3172 637 662 316 672 
3173 307 662 316 429 
3174 316 451 662 307 
3175 316 662 451 672 
3176 512 662 251 307 
3177 662 451 251 307 
3178 662 251 451 672 
3179 670 106 405 283 
3180 10 405 670 106 
3181 10 670 405 13 
3182 399 501 187 472 
3183 187 501 399 97 
3184 187 208 399 472 
3185 399 208 187 97 
3186 71 435 432 369 
3187 432 265 71 369 
3188 71 265 432 234 
3189 657 364 225 428 
3190 445 650 666 635 
3191 666 650 445 319 
3192 666 484 445 635 
3193 445 484 666 319 
3194 657 511 578 567 
3195 597 511 628 630 
3196 597 628 511 578 
3197 657 628 511 630 
3198 657 511 628 578 
3199 79 652 77 197 
3200 652 80 77 645 
3201 77 80 652 79 
3202 282 665 209 101 
3203 362 673 53 546 
3204 362 53 673 155 
3205 527 650 335 465 
3206 527 335 650 526 
3207 62 593 640 662 
3208 640 593 62 24 
3209 640 185 62 662 
3210 62 185 640 24 
3211 67 277 489 501 
3212 67 489 277 98 
3213 100 489 277 501 
3214 100 277 489 98 
3215 666 242 325 438 
3216 666 325 242 642 
3217 183 44 675 120 
3218 675 44 183 612 
3219 629 230 163 243 
3220 163 459 629 243 
3221 434 230 629 296 
3222 434 629 230 163 
3223 459 434 629 296 
3224 459 629 434 163 
3225 374 434 459 296 
3226 374 459 434 163 
3227 16 60 658 287 
3228 658 60 16 652 
3229 658 636 16 287 
3230 16 636 658 652 
3231 657 505 595 508 
3232 315 595 657 505 
3233 315 657 595 596 
3234 384 488 167 29 
3235 443 648 387 506 
3236 387 648 443 638 
3237 177 4 388 569 
3238 388 4 177 96 
3239 481 76 357 458 
3240 357 76 481 145 
3241 357 521 481 458 
3242 481 521 357 145 
3243 564 325 642 242 
3244 642 325 564 285 
3245 495 297 674 629 
3246 495 674 297 517 
3247 320 674 297 629 
3248 320 297 674 517 
3249 139 475 647 659 
3250 139 647 475 23 
3251 415 647 475 659 
3252 415 475 647 23 
3253 321 191 249 204 
3254 581 93 669 394 
3255 669 93 581 1 
3256 647 253 667 676 
3257 647 667 253 421 
3258 350 667 253 676 
3259 350 253 667 421 
3260 433 494 674 173 
3261 674 494 433 495 
3262 674 517 433 173 
3263 433 517 674 495 
3264 488 194 167 535 
3265 488 167 194 384 
3266 657 364 660 225 
3267 657 660 364 427 
3268 530 364 660 427 
3269 364 224 660 225 
3270 660 224 364 530 
3271 560 494 532 308 
3272 560 532 494 597 
3273 560 494 320 580 
3274 575 613 665 632 
3275 575 665 613 152 
3276 589 362 665 152 
3277 665 613 362 632 
3278 665 362 613 152 
3279 308 370 235 57 
3280 308 235 370 532 
3281 326 189 652 81 
3282 652 189 326 463 
3283 652 594 326 81 
3284 326 594 652 463 
3285 436 27 309 597 
3286 309 27 436 176 
3287 309 370 436 597 
3288 436 370 309 176 
3289 141 442 663 51 
3290 663 442 141 288 
3291 481 360 150 598 
3292 481 150 360 599 
3293 447 150 424 599 
3294 424 481 150 598 
3295 424 150 481 599 
3296 543 436 376 597 
3297 543 376 436 382 
3298 153 150 424 447 
3299 153 424 150 598 
3300 650 319 539 445 
3301 650 669 539 41 
3302 539 669 650 445 
3303 526 650 539 41 
3304 526 539 650 319 
3305 648 453 122 676 
3306 122 453 648 43 
3307 338 208 473 67 
3308 473 208 338 466 
3309 45 660 500 642 
3310 45 500 660 323 
3311 500 660 482 642 
3312 500 482 660 323 
3313 482 660 657 642 
3314 482 657 660 323 
3315 65 564 642 280 
3316 65 285 642 564 
3317 642 285 65 476 
3318 290 427 657 304 
3319 657 427 290 228 
3320 657 511 290 304 
3321 290 511 657 228 
3322 587 71 432 234 
3323 587 432 71 435 
3324 302 633 644 637 
3325 644 633 302 381 
3326 644 627 302 637 
3327 302 627 644 381 
3328 629 459 570 243 
3329 629 570 459 496 
3330 53 597 673 532 
3331 53 673 597 487 
3332 632 537 669 665 
3333 632 669 537 609 
3334 209 111 665 282 
3335 209 665 111 406 
3336 616 665 111 282 
3337 616 111 665 406 
3338 322 671 463 652 
3339 322 463 671 313 
3340 346 463 671 652 
3341 346 671 463 313 
3342 305 322 652 671 
3343 652 322 305 197 
3344 652 77 305 671 
3345 305 77 652 197 
3346 383 321 191 249 
3347 191 321 383 388 
3348 524 559 494 320 
3349 524 494 559 379 
3350 560 494 559 320 
3351 560 559 494 379 
3352 222 644 220 146 
3353 222 220 644 477 
3354 673 665 362 632 
3355 673 362 665 589 
3356 251 662 663 672 
3357 675 662 251 512 
3358 251 662 675 663 
3359 251 419 675 512 
3360 675 419 251 663 
$EndElements
