$MeshFormat
4.1 0 8
$EndMeshFormat
$Entities
0 0 1 1
1 -0.04781100000000001 -0.010675 -0.023687 0.031201 0.07857500000000002 0.05373700000000001 0 0 
1 -0.04781100000000001 -0.010675 -0.023687 0.031201 0.07857500000000002 0.05373700000000001 0 1 1 
$EndEntities
$Nodes
2 647 1 647
2 1 0 594
1
2
3
4
5
6
7
8
9
10
11
12
13
14
15
16
17
18
19
20
21
22
23
24
25
26
27
28
29
30
31
32
33
34
35
36
37
38
39
40
41
42
43
44
45
46
47
48
49
50
51
52
53
54
55
56
57
58
59
60
61
62
63
64
65
66
67
68
69
70
71
72
73
74
75
76
77
78
79
80
81
82
83
84
85
86
87
88
89
90
91
92
93
94
95
96
97
98
99
100
101
102
103
104
105
106
107
108
109
110
111
112
113
114
115
116
117
118
119
120
121
122
123
124
125
126
127
128
129
130
131
132
133
134
135
136
137
138
139
140
141
142
143
144
145
146
147
148
149
150
151
152
153
154
155
156
157
158
159
160
161
162
163
164
165
166
167
168
169
170
171
172
173
174
175
176
177
178
179
180
181
182
183
184
185
186
187
188
189
190
191
192
193
194
195
196
197
198
199
200
201
202
203
204
205
206
207
208
209
210
211
212
213
214
215
216
217
218
219
220
221
222
223
224
225
226
227
228
229
230
231
232
233
234
235
236
237
238
239
240
241
242
243
244
245
246
247
248
249
250
251
252
253
254
255
256
257
258
259
260
261
262
263
264
265
266
267
268
269
270
271
272
273
274
275
276
277
278
279
280
281
282
283
284
285
286
287
288
289
290
291
292
293
294
295
296
297
298
299
300
301
302
303
304
305
306
307
308
309
310
311
312
313
314
315
316
317
318
319
320
321
322
323
324
325
326
327
328
329
330
331
332
333
334
335
336
337
338
339
340
341
342
343
344
345
346
347
348
349
350
351
352
353
354
355
356
357
358
359
360
361
362
363
364
365
366
367
368
369
370
371
372
373
374
375
376
377
378
379
380
381
382
383
384
385
386
387
388
389
390
391
392
393
394
395
396
397
398
399
400
401
402
403
404
405
406
407
408
409
410
411
412
413
414
415
416
417
418
419
420
421
422
423
424
425
426
427
428
429
430
431
432
433
434
435
436
437
438
439
440
441
442
443
444
445
446
447
448
449
450
451
452
453
454
455
456
457
458
459
460
461
462
463
464
465
466
467
468
469
470
471
472
473
474
475
476
477
478
479
480
481
482
483
484
485
486
487
488
489
490
491
492
493
494
495
496
497
498
499
500
501
502
503
504
505
506
507
508
509
510
511
512
513
514
515
516
517
518
519
520
521
522
523
524
525
526
527
528
529
530
531
532
533
534
535
536
537
538
539
540
541
542
543
544
545
546
547
548
549
550
551
552
553
554
555
556
557
558
559
560
561
562
563
564
565
566
567
568
569
570
571
572
573
574
575
576
577
578
579
580
581
582
583
584
585
586
587
588
589
590
591
592
593
594
0.01459 0.05761500000000001 -0.01993
0.019684 -0.002314 -0.022501
0.023809 0.001541 -0.018763
0.007068 0.07248600000000001 -0.013007
0.007328 0.069578 -0.015803
-0.020115 0.018489 -0.009430000000000001
-0.002858 0.07503300000000002 -0.010879
-0.023014 0.015966 -0.011198
-0.028222 0.015755 -0.00666
-0.016275 0.019628 -0.008185
-0.021709 0.020626 -0.002709
-0.026794 0.019217 -0.001133
-0.028686 0.01923 0.001807
-0.038621 0.023352 0.003042
-0.001683 0.013647 0.004173
-0.02537 0.017868 0.008714
-0.011909 0.021746 0.004951
-0.015295 0.0009420000000000001 0.010302
-0.023213 0.011893 0.012461
0.024248 0.007812 0.002546
-0.026123 0.014593 0.01158
0.01683 -0.006992 0.004723000000000001
-0.010303 0.019283 0.008902
-0.023817 0.006718 0.013409
-0.04367100000000001 0.06769000000000001 0.02284899999999999
0.016513 0.07699300000000002 0.035676
-0.010699 -0.003948 0.04574399999999999
-0.022405 0.010831 0.049529
0.023057 0.05816200000000001 0.045092
-0.026762 0.01511 0.05011100000000001
0.030355 -0.003349 0.043923
0.018192 0.07343100000000001 0.047568
0.018699 0.07409800000000001 0.031213
-0.008229 0.008022999999999999 0.01394
-0.044676 0.059269 0.047862
0.015557 0.070313 -0.008327999999999999
-0.038055 0.022747 -0.014806
-0.039363 0.025471 -0.015029
0.004413 0.066653 -0.01813
0.018645 0.00144 -0.009647000000000001
0.008161999999999999 -0.007687 -0.005089000000000001
-0.032875 0.018276 0.001667
-0.04554399999999999 0.05368300000000001 0.005411
-0.04369900000000001 0.028153 0.006934999999999999
-0.003339 0.004812 0.008479
-0.037483 0.07605400000000001 0.01408
-0.01786 0.017509 0.011811
0.025682 0.004738 0.007487000000000001
-0.046012 0.032992 0.018953
-0.04323800000000001 0.067047 0.031704
0.012836 0.07754200000000001 0.030391
-0.04165300000000001 0.06416200000000001 0.049907
0.018839 0.07421900000000001 0.045463
0.024588 0.042781 0.046636
0.021667 0.062134 0.046795
-0.03548099999999999 0.02003 0.05068
0.017038 0.07562800000000001 0.018188
0.001395 0.008234000000000002 -0.003085
-0.036173 0.021177 0.003045
-0.013055 0.019437 0.010366
0.029447 -0.006636 0.032743
-0.043097 0.021695 0.038578
-0.029039 0.07809900000000002 0.005406
0.01587 0.064238 -0.016631
0.028461 -0.007941 0.027624
-0.045596 0.02387 0.05115300000000001
0.018859 0.001455 -0.001703
-0.046251 0.041126 0.0532
0.021582 0.004154 0.000349
-0.03196599999999999 0.022493 0.052768
-0.011625 0.001495 0.04913100000000001
-0.0365 0.07063600000000002 0.049664
0.024268 -0.005646 0.007254999999999999
0.021744 0.015077 -0.022065
-0.033926 0.023111 -0.015515
0.021122 0.024233 -0.021242
0.019336 0.027209 -0.02193
0.019014 0.033728 -0.021268
0.016426 0.05971000000000001 -0.018895
0.015003 0.06276100000000001 -0.018611
-0.025114 0.014764 -0.012027
-0.031537 0.017543 -0.013553
-0.039004 0.022116 -0.01358
0.023628 0.009576000000000003 -0.021315
0.019176 0.04110800000000001 -0.01998400000000001
-0.021428 0.06677400000000001 -0.015058
-0.041094 0.026005 -0.012792
0.003036 0.07357500000000002 -0.013631
0.017202 0.055747 -0.018877
0.01455 0.06872800000000001 -0.01259
-0.0003790000000000001 0.07489300000000002 -0.013333
0.022262 -0.000196 -0.017043
-0.015509 0.017051 -0.012673
0.002837 0.07487400000000001 -0.010946
-0.003182 0.074519 -0.012287
-0.026923 0.014941 -0.010576
-0.039392 0.02283199999999999 -0.006266
0.010948 -0.00606 -0.012427
-0.032038 0.016934 -0.008312999999999999
-0.002782 0.015726 -0.003068
-0.018228 0.02161 -0.003564
-0.00912 0.019603 -0.00589
0.001686 0.07690600000000002 -0.005619
0.023401 0.009268 -0.009061
-0.007564 -0.002001 0.004772
0.017976 0.001368 -0.006539000000000001
-0.032281 0.07517600000000002 0.001691
-0.011826 0.07787600000000001 -0.002976
-0.042546 0.027123 0.001898
-0.04351900000000001 0.029646 -0.001768
-0.025752 0.019369 0.004031
0.012367 0.07705500000000001 -0.001378
0.011083 -0.005881000000000001 -0.005095
0.011218 -0.006755 -0.001043
-0.007999000000000001 -0.002758 0.003082
0.01449 0.07732700000000001 0.004428000000000001
-0.011249 -0.002082 0.005955999999999999
0.013593 -0.006792 0.002233
-0.008147 -0.001331 0.007729000000000001
0.023996 0.009792 -0.0008630000000000001
-0.020893 0.018791 0.009790999999999999
-0.028496 0.017095 0.009231000000000001
-0.008671 0.019706 0.005801000000000001
0.017309 0.071919 0.003964
-0.016033 -8.500000000000001e-05 0.009197
-0.017708 0.006488000000000001 0.013889
-0.029496 0.014221 0.008626999999999999
0.015324 -0.008624999999999999 0.006547000000000001
-0.026916 0.010928 0.012748
-0.041993 0.023593 0.013375
-0.024285 0.008424999999999998 0.01136
-0.01619 0.014037 0.014819
-0.00532 0.002977 0.01157
0.022069 -0.007572 0.007733
-0.012603 0.007845 0.01521
-0.003942 0.01096 0.013446
-0.013284 0.010649 0.014863
0.016045 0.07703500000000002 0.013192
0.027386 -0.006477 0.015496
0.028602 -0.004964 0.022639
0.015256 0.07725900000000001 0.018253
0.027742 -0.007614999999999999 0.02014
0.017343 0.07586600000000002 0.024661
0.016516 0.07682000000000001 0.027586
0.018591 0.07572900000000002 0.036109
-0.04185000000000001 0.06637799999999999 0.04402399999999999
-0.04781100000000001 0.028964 0.047215
0.030886 -0.005078 0.040397
-0.044577 0.022398 0.047476
0.029695 -0.006875 0.04267900000000001
-0.00214 -0.008194 0.045226
0.030123 0.007946000000000002 0.044035
-0.026681 0.013516 0.047851
-0.031921 0.01668 0.04644
0.02351 0.052907 0.04615900000000001
-0.018855 0.005285 0.047431
0.027186 0.026393 0.045605
0.006861000000000001 -0.007439 0.04708499999999999
0.027515 -0.006328 0.044732
-0.01348 -0.000297 0.047564
-0.0454 0.03361800000000001 0.05325100000000001
0.025512 0.038428 0.046101
-0.039234 0.06474200000000001 0.053041
0.020152 0.07113900000000001 0.046651
0.018384 0.07597100000000001 0.04127
0.017465 -0.002058 -0.013946
-0.012206 -0.000599 0.007518
-0.039591 0.073877 0.013339
-0.01036 0.012179 0.014346
-0.04598699999999999 0.02746 0.052575
-0.005894 -0.004282 0.001844
-0.03037 0.016161 0.004619
-0.016608 0.01946400000000001 0.01067
-0.01434 0.021346 0.007598
0.023452 0.048884 0.047
-0.008836000000000002 0.020648 0.000613
0.020773 0.030599 -0.020319
-0.043461 0.034585 -0.011252
0.020671 -0.002242 -0.017835
-0.015288 0.011978 0.050788
0.022443 0.018289 -0.020642
-0.001811 0.06946300000000001 -0.017391
-0.041294 0.031666 -0.014691
-0.04146499999999999 0.05015700000000001 -0.013291
-0.038535 0.05398 -0.014418
0.001988000000000001 0.07209600000000002 -0.015386
0.023073 -0.001083 -0.020629
-0.0009180000000000001 0.07407400000000001 -0.014167
0.010928 -0.005914999999999999 -0.018529
0.021167 0.003256 -0.012174
-0.001158 0.07572800000000002 -0.009076000000000002
0.007484 -0.007763000000000001 -0.010312
0.009922 -0.006608 -0.008702999999999999
-0.000657 -0.006253999999999999 -0.004379
-0.011719 0.022206 -0.000172
0.016223 0.072889 -0.001989
-0.033585 0.076957 0.007126
-0.019724 0.020753 0.006882000000000001
-0.045032 0.030248 0.011804
0.024997 0.006757 0.005491
-0.011565 0.001346 0.011215
0.017686 0.07249200000000001 0.009095000000000001
-0.017564 -0.001407 0.012966
0.017015 0.07571800000000001 0.013155
-0.037937 0.07627500000000002 0.019599
-0.03969900000000001 0.073847 0.024595
-0.036333 0.07546800000000001 0.030732
-0.041322 0.021413 0.028367
-0.026103 0.07769300000000003 0.03616399999999999
0.024795 0.046306 0.045641
0.028143 0.022108 0.04411900000000001
-0.024491 0.07514900000000001 0.050868
0.002078 0.07549500000000002 0.04947
-0.000383 -0.002226 0.048457
-0.042202 0.040958 0.05370800000000001
0.019643 0.06546 0.047957
-0.035769 0.06655899999999999 0.053276
-0.03265200000000001 0.071927 0.05153600000000001
-0.003957 0.07466000000000002 0.05060800000000001
0.007953 -0.007275999999999999 -0.015074
-0.045253 0.046907 0.000138
-6.600000000000001e-05 -0.007418 0.000195
-0.027305 0.073352 -0.004941
0.029933 0.010894 0.041586
0.009696000000000001 -0.009594000000000002 0.009079000000000002
-0.028654 0.07286400000000001 0.05231100000000001
0.023833 -0.000162 -0.02357
0.011577 0.064371 -0.018688
-0.03675 0.020997 0.00641
0.020393 -0.003022 -0.020442
-0.033326 0.01622 0.023351
-0.004585000000000001 0.003131 -0.015404
0.005317 -0.008571 0.002305
0.017933 -0.009644000000000002 0.042735
0.012548 0.072838 -0.009096000000000002
0.008536000000000002 0.07310800000000001 -0.011423
-0.04355700000000001 0.048998 -0.009090000000000001
0.02428 0.001537 0.005252
0.021738 -0.001221 0.00393
-0.037083 0.020451 0.010412
-0.045212 0.063067 0.018009
-0.047362 0.027506 0.040705
-0.017887 0.00635 0.049471
-0.00765 -0.003852 0.047841
-0.047362 0.03363800000000001 0.05117800000000001
0.015225 0.07622700000000002 0.000344
0.029642 -0.007663000000000001 0.039701
-0.03296399999999999 0.05780800000000001 -0.015556
-0.021868 0.018032 -0.014792
-0.017548 0.02698800000000001 -0.01713
0.017243 0.043982 -0.020879
-0.016683 0.066833 -0.016631
-0.005443000000000001 0.07247300000000001 -0.014501
0.024367 0.002586 -0.021969
0.013401 0.06593300000000001 -0.01725
0.023155 0.006439 -0.013516
-0.008367999999999999 0.07480600000000001 -0.009690000000000001
-0.004353999999999999 -0.003369 -0.002993
-0.034251 0.070815 -0.001953
0.007 0.07490400000000001 -0.009178
-0.033921 0.018823 -0.003506
-0.004122000000000001 -0.001016 -0.000376
-0.021298 0.07790900000000001 -0.000127
-0.004872 2e-05 0.007227
-0.000253 0.006392 0.004384
-0.04112300000000001 0.022202 0.018309
-0.039773 0.07455500000000001 0.01832
-0.031121 0.07619000000000002 0.04219800000000001
-0.045593 0.023875 0.03778499999999999
0.015164 0.07641300000000001 0.04312800000000001
-0.028193 0.075089 0.04994
-0.046121 0.052256 0.049981
0.007288 -0.009362000000000001 0.045038
0.027049 0.014486 0.046376
0.025237 0.024503 0.047083
-0.040794 0.027781 0.05329100000000001
-0.03551 0.059505 0.05372200000000001
-0.041767 0.026259 -0.001734
0.014906 -0.0022 -0.003872
-0.015696 -0.000192 0.04265500000000001
-0.036739 0.057862 -0.013298
-0.035193 0.07374100000000001 0.043441
0.023634 0.014466 -0.017972
-0.04627999999999999 0.057167 0.022565
-0.029363 0.012652 0.01844
0.023717 0.055411 0.041847
0.019715 0.07363900000000001 0.039703
-0.008815 0.07705400000000001 0.04598499999999999
-0.006646 -0.007159 0.04237200000000001
0.020627 0.006247 -0.023199
0.023647 0.020175 -0.01146
-0.039329 0.037226 -0.015979
-0.046628 0.055747 0.028894
-0.026643 0.011714 0.042499
0.027234 -0.008320999999999999 0.042341
0.018394 -0.008234000000000002 0.045606
-0.011728 0.060755 -0.018478
0.020269 0.038255 0.048047
0.021896 0.000175 -0.023687
0.021859 0.026011 -0.018925
-0.045891 0.05711300000000001 0.013731
-0.019265 0.000226 0.017715
-0.015357 0.07662900000000002 -0.00505
0.02051 0.037263 -0.018107
0.001543 -0.004749000000000001 -0.017339
0.017866 0.013882 -0.022495
0.013836 -0.002818 -0.021793
-0.030173 0.06224499999999999 -0.014432
-0.042702 0.044415 -0.013186
0.023256 0.006075 -0.022588
-0.032226 0.016816 -0.012303
-0.00474 0.07098500000000001 -0.016238
-0.001604 0.07252000000000002 -0.015529
0.016709 0.065708 -0.011316
-0.038017 0.063678 -0.005832
-0.025067 0.016557 -0.007345
0.013658 0.07528400000000002 -0.004683000000000001
0.013642 -0.003946 -0.010595
-0.044513 0.058367 0.003594
-0.044665 0.052937 -0.001618
0.0238 0.024866 -0.004087
-0.042581 0.062611 0.002584
-0.002648 0.011996 0.009602000000000001
-0.041717 0.025688 0.004733999999999999
-0.0008860000000000001 -0.007746 0.003378
-0.022929 0.014972 0.011818
-0.014601 -0.002472 0.010411
-0.010063 -0.003932000000000001 0.007666
0.022766 0.003497 0.003018
0.024966 0.013973 0.003184
-0.019751 0.002616 0.011361
0.024799 -0.001995 0.006255999999999999
-0.018686 0.010598 0.01428
0.026611 0.00435 0.010324
0.026209 -0.00593 0.010498
-0.043098 0.022623 0.027959
-0.041467 0.071011 0.026877
-0.034208 0.07722000000000002 0.025746
-0.025405 0.07670700000000001 0.04567
0.003506 -0.010157 0.04063300000000001
-0.046861 0.0247 0.047355
-0.047388 0.027221 0.05091900000000001
-0.04694 0.04431300000000001 0.051864
0.021023 0.069013 0.04424599999999999
-0.04283900000000001 0.021879 0.05051200000000001
-0.038598 0.06692000000000001 0.051884
0.015573 0.07507500000000002 0.047218
0.029382 0.005948 0.045149
-0.041931 0.058065 0.053394
0.007352 0.07454600000000002 0.04931000000000001
-0.003535 -0.008578000000000001 0.014494
-0.019492 0.021813 0.00166
0.021729 0.056195 0.047511
0.011763 0.070618 -0.012755
-0.014758 -0.002782 0.033452
0.009155 0.07616500000000002 0.047561
0.015317 -0.004353999999999999 -0.020469
-0.019855 0.010922 0.05054
-0.007764 0.016202 -0.009804000000000002
-0.007616 0.015172 0.01248
0.004841000000000001 0.001591 -0.019556
0.015662 0.0004350000000000001 -0.022825
0.0219 0.009828 -0.022843
-0.03955 0.047532 -0.015197
0.02372 -0.0009460000000000001 -0.022867
-0.017483 0.07070700000000001 -0.012559
0.018481 0.051221 -0.017325
0.017318 0.05969800000000001 -0.016769
-0.040326 0.054245 -0.012678
0.024304 0.006375 -0.018907
-0.032949 0.06409600000000001 -0.010843
-0.042148 0.054274 -0.009353
-0.024487 0.06829900000000001 -0.012224
-0.033885 0.06762900000000001 -0.006193000000000001
0.022007 0.005925 -0.009622
-0.030542 0.016991 -0.0009170000000000001
-0.002892 0.07799100000000002 -0.001115
0.002658 -0.007755 -0.002977
-0.037582 0.022416 0.00036
0.021712 0.006103000000000001 -0.004399
-0.0005660000000000001 0.00138 -0.000323
0.024048 0.016178 -0.006274999999999999
0.019 0.06276600000000002 0.001206
-0.001025 0.002606 0.003602
0.01868 -0.001735 0.001466
0.01531 -0.002948000000000001 -0.0009440000000000001
-0.006423000000000001 -0.007023000000000001 0.007847999999999999
-0.041805 0.067803 0.008924
-0.03578699999999999 0.018691 0.013838
-0.04358 0.067375 0.015622
0.00307 -0.009267000000000001 0.008996000000000001
-0.009483 -0.006393 0.013573
-0.04370300000000001 0.025843 0.013157
0.024107 -0.009194000000000001 0.018737
0.02046 0.060852 0.017765
-0.044002 0.024644 0.021978
-0.030073 0.07812800000000002 0.023487
-0.036679 0.076318 0.026216
-0.02535500000000001 0.009287000000000002 0.03165
-0.000309 -0.009884000000000002 0.026979
0.029668 -0.000208 0.031405
-0.04742 0.04448599999999999 0.04813000000000001
0.02643 0.033814 0.044895
0.028981 0.01262 0.045242
-0.045035 0.05171800000000001 0.05283200000000001
0.013812 0.07125500000000001 0.048743
-0.035187 0.031804 -0.016407
-0.02076 0.07312700000000001 -0.008362
-0.042989 0.028778 -0.008534000000000002
-0.039302 0.05916800000000001 -0.009232000000000002
-0.006823000000000001 0.000587 0.010373
-0.045371 0.027977 0.020818
0.006673 -0.004938 -0.019718
0.027728 -0.008869 0.03434300000000001
0.003264 0.05205700000000001 -0.020224
0.026594 0.011877 0.014162
0.028335 0.00385 0.021871
0.009524000000000001 -0.005721 -0.020128
-0.035403 0.042124 -0.016418
-0.00585 0.07707400000000002 -0.005443000000000001
-0.030497 0.014362 0.03528499999999999
-0.028576 0.04801 0.05336200000000001
0.007341 -0.008092999999999999 -0.001574
-0.027426 0.06983300000000001 -0.008917
0.024782 0.03481200000000001 0.023357
0.003776 -0.006636 -0.017898
-0.038962 0.030473 -0.015878
0.026038 -0.003261 0.008525
0.025353 0.004305 0.046399
-0.041349 0.03897999999999999 -0.015143
0.014115 -0.004703000000000001 -0.015909
-0.038817 0.066811 -0.000292
0.021608 0.036963 -0.011461
-0.004792 -0.008645 0.024812
-0.01098 0.07011500000000001 -0.015459
0.0237 0.048821 0.031153
0.030778 0.001462 0.04428599999999999
0.022053 0.019852 0.047565
-0.011211 0.021309 -0.003567
-0.012142 0.018345 -0.009472000000000001
-0.029271 0.07724500000000002 0.002127
0.01937400000000001 -0.004898 0.004325
-0.023891 0.07850700000000001 0.006393
-0.015013 -0.003473 0.015219
0.017789 -0.004234999999999999 0.046804
-0.030819 0.019324 0.051937
-0.024021 0.07204600000000001 0.052429
0.02431 -0.007981 0.010788
-0.046068 0.041774 0.012189
-0.023935 0.015919 0.051482
-0.022439 0.048388 -0.017731
-0.043525 0.05707 -0.002519
-0.011201 -0.005452 0.028594
0.004759 0.07771900000000001 0.036952
-0.023611 0.010284 0.04687
-0.002692 0.011636 -0.018522
-0.044527 0.034883 -0.001928
-0.010816 0.07839200000000002 0.002806
-0.021812 0.07857500000000002 0.016752
-0.021496 0.0047 0.032721
0.024741 0.045917 0.036757
0.027278 0.029653 0.041762
0.0137 0.006905 0.048135
-0.026452 0.022814 0.05255800000000001
-0.013527 0.065155 -0.017829
0.005235999999999999 -0.007757 -0.008326999999999999
-0.04598599999999999 0.049162 0.00717
-0.009894000000000002 0.01299 -0.016917
0.002125 -0.006697 -0.012468
0.024488 0.030148 0.015331
0.016634 -0.009625 0.011661
-0.04536 0.062194 0.029238
0.004854 -0.007369000000000001 -0.01597
0.028436 0.011316 0.028078
-0.04490499999999999 0.061382 0.041963
-0.037876 0.019614 0.046175
0.018685 -0.010159 0.02448
-0.022574 0.064267 0.052924
-0.031522 0.015034 0.013539
-0.03165100000000001 0.03188 0.053297
-0.015481 0.07652600000000002 0.04793
-0.017033 0.07774500000000002 0.03846499999999999
-0.046775 0.04602 0.023029
0.024851 0.035032 0.046597
0.019827 -0.010245 0.038509
0.000687 0.07456700000000001 -0.013496
-0.037335 0.018834 0.025808
0.021622 -0.009179000000000001 0.012524
-0.047434 0.03381000000000001 0.036866
0.026023 0.033057 0.03165200000000001
0.024685 0.04950300000000001 0.044141
-0.004193000000000001 0.066248 -0.018303
-0.009263 0.06866200000000001 -0.017056
-0.003424 -0.003043 -0.010524
-0.034401 0.07760900000000001 0.016721
0.018786 0.07168000000000001 0.024435
0.021349 0.06470000000000001 0.034345
0.025012 -0.009668 0.037077
-0.001232 0.07666900000000001 0.048244
-0.021884 0.006958 0.042453
-0.000107 -0.007337 0.04726
0.017735 0.06583899999999999 -0.005229999999999999
-0.021772 0.003781000000000001 0.016661
0.007033999999999999 0.060027 -0.019845
0.024155 0.024615 0.001531
-0.03487200000000001 0.017256 0.03685
-0.03702 0.022547 0.05255100000000001
0.00542 0.07710500000000002 0.044998
0.015055 -0.001792 -0.007233
0.028921 -0.001238 0.04540499999999999
0.000445 0.07834000000000001 0.010024
-0.042009 0.024788 0.008838
-0.025692 0.008772 0.01777
-0.007308 0.020185 -0.002361
-0.031982 0.07458200000000001 0.04794499999999999
-0.03706499999999999 0.07120500000000002 0.002704
0.020913 0.047316 -0.003265
-0.0008020000000000001 -0.004097 -0.01475
-0.044649 0.0323 0.004018
0.013367 -0.010382 0.039129
0.027042 0.02262 0.04611700000000001
-0.006917 0.018075 0.002795
0.025663 0.014433 0.008137999999999999
0.022112 0.048262 0.047743
0.016387 0.05932300000000001 0.048797
-0.016551 0.07473600000000002 0.051145
-0.043928 0.040759 -0.010504
0.021104 0.061367 0.02541
-0.025258 0.07621900000000001 -0.002268
-0.041422 0.060511 -0.003884
-0.046457 0.055869 0.042867
-0.009556000000000002 0.073008 0.05133900000000001
-0.001988000000000001 0.007481000000000001 0.049683
0.011683 0.008292000000000001 -0.021778
0.029303 0.010878 0.034548
-0.013464 0.024121 0.051461
0.002916 -0.009929 0.016193
0.005338 -0.010675 0.034738
-0.00301 -0.008874000000000002 0.038711
0.020017 0.060155 0.01159
-0.038213 0.019153 0.03572699999999999
0.011135 -0.010267 0.017198
-0.000236 0.07193500000000001 0.05067700000000001
0.005683000000000001 0.03156399999999999 -0.020676
0.009356000000000001 0.038398 0.049496
0.017307 0.049296 -0.01996700000000001
-0.04189200000000001 0.025694 -0.007866000000000001
-0.007559 0.016585 0.008000999999999999
-0.012179 0.016379 0.014572
0.025968 -0.003866 0.045959
0.027083 -0.008944000000000001 0.027451
-0.043347 0.05117000000000001 0.05373700000000001
-0.035633 0.019176 -0.011572
0.010307 0.07802200000000002 0.008140999999999999
0.030935 0.00028 0.039116
-0.027074 0.05682300000000001 -0.016912
-0.039076 0.06904500000000001 0.047166
-0.010182 0.017187 0.013421
0.014429 0.036727 -0.021389
-0.047277 0.05162300000000001 0.03861300000000001
-0.047175 0.050205 0.031755
0.004752 0.062187 0.050361
0.026343 -0.008090999999999999 0.015886
0.027519 -0.002216 0.014055
-0.028553 0.018509 0.00644
0.009754000000000001 0.07626000000000002 -0.005526
-0.044562 0.06272100000000001 0.011308
-0.029053 0.015185 -0.011171
0.023984 0.011248 -0.013833
-0.012063 -0.004086 0.041355
-0.043226 0.037083 -0.013136
0.000697 0.07495400000000001 -0.012264
-0.036622 0.07503900000000001 0.008112999999999999
0.018439 0.05915000000000001 -0.009997000000000001
-0.039047 0.07096600000000002 0.039981
-0.009022000000000001 0.07571200000000002 0.04977
-0.033252 0.017914 0.006767
0.018304 0.07097200000000001 0.016113
0.016328 0.07617700000000001 0.007573
-0.015455 0.022327 -0.002179
0.005998 0.07759300000000002 -0.0008200000000000001
-0.043021 0.05945 0.052066
0.013927 0.048883 -0.02076
-0.04647399999999999 0.03183900000000001 0.026052
0.009856000000000002 -0.008378 0.00279
-0.046359 0.027183 0.032234
-0.015619 0.022339 0.003828
-0.02598 0.062198 -0.016222
-0.04015300000000001 0.023218 -0.009828
0.031201 0.000169 0.04268300000000001
-0.04323 0.023736 0.052441
-0.017957 -0.000549 0.024733
5e-05 0.002755 -0.007668
-0.004653 0.010125 -0.011377
3 1 0 53
595
596
597
598
599
600
601
602
603
604
605
606
607
608
609
610
611
612
613
614
615
616
617
618
619
620
621
622
623
624
625
626
627
628
629
630
631
632
633
634
635
636
637
638
639
640
641
642
643
644
645
646
647
-0.001737606049200155 0.05378820007236084 0.0267471542775384
-0.0280880988976793 0.03617602749810636 0.009184687587766745
-0.01076396722427243 0.04019610407211001 0.00406444712093672
-0.0200595176752496 0.03079576682917337 0.02923091938792424
-0.02380728280321622 0.05683505268169055 0.01079400333374055
-0.001651374599494734 0.01957191847053631 0.03248747267506716
0.01175141872412368 0.005042036367125861 0.01183435748738923
0.008420402089882522 0.02933222636142848 0.01093157226275564
-0.00934591579094955 0.05598382744178124 0.001546728465738495
0.0002418436859423479 0.06260416517734674 -0.005943061633341078
0.01332072913159016 0.03989526832115203 0.02142882695605672
-0.0141982808214763 0.03146520271329291 0.01685165384222297
-0.03013269319428763 0.02980023493341161 -0.004784569813770034
0.01214006672683195 0.01050241700490172 -7.936754063993115e-05
-0.02683908385015129 0.0213181782842055 0.02134841472506477
-0.02863847968075831 0.0495234909661823 -0.002462976174032855
-0.001022396950182146 0.06927873093553545 -0.009737775857059722
-0.02555272554962914 0.05160366503012193 0.03174788316018476
0.008696180781723859 0.004948539591636322 0.02851495753678595
0.008022117535063227 0.000666830162102492 0.003466097165627052
-0.006394025534371224 0.02894860815573789 0.01026888860941093
-0.006501802672737774 0.00731602264131894 0.0296090243000151
-0.03432098347982092 0.0352249760014229 0.038244142685305
-0.03043642239312961 0.06449562296431043 0.0202527867435575
-0.03025272259916398 0.02765264966859358 0.006143334026932892
-0.01917105706764123 0.03344667923564892 -0.002958792274663346
0.008350737539642899 0.0628148754735896 -0.01005550229030493
-0.02820325378375075 0.06377523519608978 0.04064407365732051
0.01507501828861927 0.02456494163845582 0.03119358688613456
-0.004697401555505923 0.03122684012976897 -0.0008231597366832747
-0.01604142741172895 0.01311212948610129 0.0271617496015488
0.01828161696286282 -0.0007581718501888674 0.01193849267610951
0.01338926308290821 0.00887869299161724 -0.008979142085629974
-0.01222354654545559 0.06078893260367948 -0.002348555764968244
-0.01747757114811209 0.02141564787047711 0.02007931756105176
-0.03462493970149664 0.03132897202880433 0.01699652272646311
-0.02046151725662249 0.02657915976663864 0.01286615633865703
0.01482219259911566 0.004468630907283861 0.004297708447294801
-0.02523852121722119 0.06297561275819853 0.0006327358579434339
-0.007469938804162685 0.001221700945897367 0.01959091585041372
0.006341291412875823 -0.001481760625015174 -0.006519661961187029
-0.03507801156633694 0.05643514305018694 0.002254858177059817
-0.0267937352440103 0.0229846981031797 -0.009947074779866618
0.003724968201632917 -0.0003257887164167836 0.01268113918240376
-0.007672030344706877 0.02053210064273887 0.02271560271151464
-0.005526876580290718 0.02712308494729335 -0.01484912111615199
-0.03458249903114394 0.05310115536642065 -0.007358930748983584
0.009973861281092941 0.02419360311239952 -0.007968942576828696
-0.028126817298975 0.02346087434954484 0.01069432494313793
0.009459446778385873 0.06863381744613088 -0.002964906162983086
-0.02797052853329746 0.06824306325320793 0.008475572950171078
-0.03582879843368966 0.03341672689955506 0.00161631119573306
-0.03372716794712605 0.04791512308093828 0.01258790342688674
$EndNodes
$Elements
2 3108 1 3108
2 1 2 1184
1 80 79 1 
2 89 1 79 
3 80 1 228 
4 546 1 89 
5 1 504 228 
6 583 504 1 
7 1 546 583 
8 227 2 299 
9 227 365 2 
10 2 230 357 
11 230 2 365 
12 299 2 307 
13 357 307 2 
14 3 92 187 
15 92 3 256 
16 187 254 3 
17 254 370 3 
18 256 3 370 
19 88 4 5 
20 4 354 5 
21 4 88 94 
22 4 94 236 
23 354 4 236 
24 39 186 5 
25 228 39 5 
26 88 5 186 
27 228 5 255 
28 5 354 255 
29 8 93 6 
30 8 6 316 
31 6 93 10 
32 10 101 6 
33 11 6 101 
34 11 316 6 
35 191 94 7 
36 7 94 572 
37 7 95 257 
38 95 7 572 
39 7 257 191 
40 8 9 96 
41 9 8 316 
42 93 8 81 
43 96 81 8 
44 9 12 13 
45 9 316 12 
46 13 376 9 
47 568 96 9 
48 9 376 99 
49 99 568 9 
50 93 440 10 
51 10 580 101 
52 439 10 440 
53 580 10 439 
54 11 111 12 
55 11 12 316 
56 101 352 11 
57 352 111 11 
58 12 111 13 
59 565 13 111 
60 13 172 376 
61 13 565 172 
62 14 59 229 
63 14 379 59 
64 324 109 14 
65 14 109 379 
66 324 14 229 
67 58 15 100 
68 265 15 58 
69 15 514 100 
70 265 323 15 
71 522 15 323 
72 522 514 15 
73 122 16 21 
74 21 16 326 
75 16 111 198 
76 16 565 111 
77 16 198 121 
78 326 16 121 
79 565 16 122 
80 23 17 123 
81 23 174 17 
82 17 176 123 
83 587 17 174 
84 17 195 176 
85 587 195 17 
86 125 18 167 
87 331 18 125 
88 126 201 18 
89 18 331 126 
90 18 201 167 
91 131 21 19 
92 326 19 21 
93 19 126 131 
94 19 333 126 
95 19 326 333 
96 120 20 69 
97 20 329 69 
98 120 330 20 
99 20 200 329 
100 20 330 200 
101 21 127 122 
102 129 127 21 
103 131 129 21 
104 22 128 118 
105 385 22 118 
106 134 128 22 
107 134 22 442 
108 385 442 22 
109 174 23 60 
110 23 558 60 
111 548 23 123 
112 23 548 360 
113 558 23 360 
114 24 129 131 
115 24 513 129 
116 331 24 131 
117 24 331 503 
118 24 503 513 
119 50 337 25 
120 25 472 50 
121 390 241 25 
122 472 25 241 
123 267 25 337 
124 25 267 390 
125 51 26 144 
126 51 270 26 
127 145 144 26 
128 26 165 145 
129 26 270 165 
130 151 244 27 
131 151 27 289 
132 160 27 244 
133 27 160 280 
134 570 27 280 
135 27 570 289 
136 28 30 153 
137 358 30 28 
138 153 455 28 
139 156 243 28 
140 156 28 455 
141 358 28 243 
142 155 29 55 
143 344 55 29 
144 155 491 29 
145 29 286 344 
146 286 29 491 
147 154 30 56 
148 446 56 30 
149 154 153 30 
150 358 450 30 
151 30 450 446 
152 148 31 150 
153 148 590 31 
154 150 31 159 
155 31 510 159 
156 510 31 437 
157 590 437 31 
158 32 164 53 
159 347 32 53 
160 216 164 32 
161 216 32 406 
162 32 347 406 
163 33 143 144 
164 496 143 33 
165 144 145 33 
166 287 33 145 
167 287 497 33 
168 497 496 33 
169 133 34 136 
170 34 133 201 
171 169 34 135 
172 34 201 135 
173 136 34 360 
174 169 360 34 
175 146 35 52 
176 582 52 35 
177 146 475 35 
178 35 531 272 
179 35 272 582 
180 35 475 531 
181 90 235 36 
182 90 36 314 
183 36 317 196 
184 36 196 502 
185 317 36 235 
186 314 36 502 
187 38 75 37 
188 87 38 37 
189 82 37 75 
190 83 37 82 
191 87 37 83 
192 75 38 427 
193 87 183 38 
194 38 183 427 
195 186 39 182 
196 182 39 492 
197 39 228 504 
198 492 39 504 
199 40 375 106 
200 106 509 40 
201 190 40 166 
202 318 166 40 
203 375 40 190 
204 318 40 509 
205 41 113 114 
206 113 41 193 
207 41 114 423 
208 41 192 193 
209 466 192 41 
210 423 466 41 
211 379 42 59 
212 577 59 42 
213 172 42 376 
214 172 577 42 
215 42 261 376 
216 42 379 261 
217 43 320 221 
218 467 43 221 
219 43 467 301 
220 567 43 301 
221 43 319 320 
222 43 567 319 
223 44 109 324 
224 109 44 519 
225 44 393 199 
226 519 44 199 
227 324 512 44 
228 512 393 44 
229 45 133 136 
230 264 133 45 
231 323 45 136 
232 384 264 45 
233 265 45 323 
234 265 384 45 
235 267 46 168 
236 46 573 168 
237 495 197 46 
238 46 197 573 
239 205 46 267 
240 495 46 205 
241 121 173 47 
242 326 121 47 
243 132 326 47 
244 47 549 132 
245 173 549 47 
246 238 200 48 
247 200 523 48 
248 48 332 238 
249 48 428 332 
250 428 48 334 
251 48 523 334 
252 49 199 412 
253 199 49 449 
254 49 412 584 
255 483 449 49 
256 49 584 483 
257 50 475 146 
258 146 575 50 
259 575 337 50 
260 50 472 475 
261 144 141 51 
262 141 554 51 
263 51 454 270 
264 51 511 454 
265 554 511 51 
266 557 146 52 
267 52 346 557 
268 52 582 346 
269 344 53 164 
270 165 270 53 
271 53 287 165 
272 53 270 347 
273 344 287 53 
274 210 54 162 
275 484 162 54 
276 175 54 210 
277 54 175 524 
278 524 484 54 
279 155 55 353 
280 216 55 164 
281 164 55 344 
282 216 353 55 
283 56 476 154 
284 345 476 56 
285 345 56 591 
286 507 56 446 
287 591 56 507 
288 141 57 138 
289 138 57 204 
290 141 143 57 
291 57 143 496 
292 57 578 204 
293 578 57 496 
294 100 594 58 
295 58 384 265 
296 384 58 381 
297 58 593 381 
298 594 593 58 
299 577 229 59 
300 174 60 173 
301 60 549 173 
302 60 558 549 
303 61 65 140 
304 414 65 61 
305 401 61 140 
306 247 61 148 
307 148 61 401 
308 414 61 247 
309 62 149 269 
310 149 62 476 
311 208 62 336 
312 208 541 62 
313 269 336 62 
314 62 541 476 
315 63 441 197 
316 197 495 63 
317 263 441 63 
318 63 443 263 
319 63 495 443 
320 64 79 80 
321 79 64 368 
322 64 80 255 
323 90 64 255 
324 314 64 90 
325 314 368 64 
326 140 65 142 
327 65 551 142 
328 414 551 65 
329 341 149 66 
330 149 345 66 
331 66 170 342 
332 66 591 170 
333 342 341 66 
334 345 591 66 
335 67 380 69 
336 67 69 385 
337 106 67 279 
338 106 380 67 
339 279 67 386 
340 385 386 67 
341 161 215 68 
342 245 161 68 
343 68 215 552 
344 245 68 343 
345 343 68 405 
346 405 68 552 
347 120 69 380 
348 69 329 385 
349 70 464 276 
350 276 507 70 
351 446 450 70 
352 507 446 70 
353 450 464 70 
354 160 71 243 
355 160 244 71 
356 71 214 180 
357 180 358 71 
358 214 71 244 
359 243 71 358 
360 218 72 346 
361 515 72 218 
362 282 72 515 
363 557 72 282 
364 72 557 346 
365 442 73 134 
366 73 448 134 
367 332 73 239 
368 73 442 239 
369 332 428 73 
370 335 73 428 
371 448 73 335 
372 76 74 77 
373 181 74 76 
374 77 74 306 
375 74 181 84 
376 74 84 363 
377 74 363 306 
378 249 82 75 
379 75 250 249 
380 250 75 407 
381 75 427 407 
382 77 177 76 
383 300 76 177 
384 181 76 300 
385 77 78 177 
386 78 77 559 
387 306 559 77 
388 78 85 177 
389 85 78 251 
390 78 559 251 
391 89 79 368 
392 255 80 228 
393 81 82 249 
394 82 81 568 
395 81 249 93 
396 96 568 81 
397 553 83 82 
398 311 553 82 
399 311 82 568 
400 87 83 589 
401 83 553 589 
402 84 181 283 
403 254 310 84 
404 370 254 84 
405 84 283 370 
406 84 310 363 
407 177 85 304 
408 251 546 85 
409 304 85 367 
410 85 546 367 
411 86 435 252 
412 86 252 588 
413 308 373 86 
414 86 588 308 
415 366 86 373 
416 435 86 366 
417 87 178 183 
418 178 87 409 
419 87 547 409 
420 87 589 547 
421 88 572 94 
422 486 88 186 
423 88 486 572 
424 89 368 367 
425 367 546 89 
426 354 235 90 
427 354 90 255 
428 188 95 91 
429 91 95 572 
430 188 91 486 
431 486 91 572 
432 92 166 179 
433 166 92 190 
434 179 187 92 
435 256 190 92 
436 468 93 249 
437 93 359 440 
438 359 93 468 
439 260 94 191 
440 94 260 236 
441 253 95 188 
442 253 257 95 
443 379 97 261 
444 261 97 553 
445 278 97 379 
446 547 97 278 
447 97 547 589 
448 553 97 589 
449 193 192 98 
450 220 98 192 
451 318 193 98 
452 220 431 98 
453 318 98 431 
454 261 99 376 
455 99 261 553 
456 99 553 311 
457 311 568 99 
458 359 100 102 
459 100 514 102 
460 594 100 359 
461 580 352 101 
462 359 102 440 
463 439 440 102 
464 439 102 514 
465 103 260 191 
466 191 420 103 
467 566 260 103 
468 377 103 420 
469 377 581 103 
470 566 103 581 
471 380 104 120 
472 382 120 104 
473 104 375 256 
474 256 569 104 
475 375 104 380 
476 382 104 569 
477 117 105 115 
478 105 258 115 
479 117 119 105 
480 119 264 105 
481 262 258 105 
482 105 381 262 
483 381 105 264 
484 106 279 509 
485 380 106 375 
486 107 197 441 
487 197 107 573 
488 107 223 259 
489 107 529 223 
490 107 259 516 
491 107 441 529 
492 573 107 516 
493 303 263 108 
494 108 263 458 
495 303 108 420 
496 420 108 377 
497 377 108 458 
498 109 110 278 
499 519 110 109 
500 379 109 278 
501 547 278 110 
502 457 409 110 
503 110 409 547 
504 457 110 519 
505 198 111 352 
506 116 246 112 
507 554 116 112 
508 246 317 112 
509 317 566 112 
510 581 554 112 
511 581 112 566 
512 279 114 113 
513 193 318 113 
514 113 509 279 
515 318 509 113 
516 118 114 386 
517 585 114 118 
518 386 114 279 
519 423 114 585 
520 328 117 115 
521 171 115 258 
522 115 171 328 
523 116 141 138 
524 116 138 579 
525 554 141 116 
526 579 246 116 
527 167 119 117 
528 125 167 117 
529 327 125 117 
530 327 117 328 
531 128 585 118 
532 118 386 385 
533 119 167 411 
534 119 411 264 
535 382 330 120 
536 173 121 198 
537 122 127 172 
538 122 172 565 
539 123 176 522 
540 522 548 123 
541 124 196 246 
542 383 196 124 
543 202 540 124 
544 124 579 202 
545 124 246 579 
546 124 540 383 
547 125 327 203 
548 125 203 331 
549 131 126 331 
550 135 201 126 
551 126 333 135 
552 479 127 129 
553 577 172 127 
554 577 127 479 
555 134 471 128 
556 225 128 471 
557 225 585 128 
558 285 479 129 
559 285 129 513 
560 266 130 240 
561 512 240 130 
562 396 130 266 
563 130 396 393 
564 393 512 130 
565 333 132 137 
566 137 132 549 
567 132 333 326 
568 411 201 133 
569 411 133 264 
570 448 488 134 
571 471 134 488 
572 137 169 135 
573 135 333 137 
574 323 136 548 
575 136 360 548 
576 549 169 137 
577 579 138 204 
578 139 140 142 
579 564 140 139 
580 563 139 142 
581 335 139 563 
582 564 139 335 
583 140 417 401 
584 564 417 140 
585 141 144 143 
586 551 563 142 
587 165 287 145 
588 146 557 575 
589 341 147 242 
590 489 242 147 
591 147 342 245 
592 147 245 402 
593 147 341 342 
594 402 489 147 
595 247 148 150 
596 555 148 401 
597 555 590 148 
598 269 149 341 
599 476 345 149 
600 150 159 295 
601 247 150 295 
602 501 244 151 
603 340 273 151 
604 273 501 151 
605 539 151 289 
606 539 340 151 
607 152 224 211 
608 404 152 211 
609 152 590 224 
610 152 404 348 
611 152 348 437 
612 152 437 590 
613 294 153 154 
614 455 153 294 
615 421 294 154 
616 154 506 421 
617 506 154 476 
618 175 210 155 
619 353 175 155 
620 210 491 155 
621 156 160 243 
622 160 156 280 
623 156 500 280 
624 455 500 156 
625 157 211 403 
626 211 157 521 
627 157 403 484 
628 157 484 521 
629 158 445 214 
630 501 158 214 
631 273 296 158 
632 158 501 273 
633 158 296 445 
634 159 296 295 
635 296 159 445 
636 445 159 550 
637 159 510 550 
638 170 161 245 
639 276 161 170 
640 276 215 161 
641 210 162 403 
642 403 162 484 
643 346 163 217 
644 163 349 217 
645 346 582 163 
646 349 163 582 
647 179 166 431 
648 166 318 431 
649 167 201 411 
650 168 390 267 
651 388 390 168 
652 168 573 388 
653 558 360 169 
654 549 558 169 
655 342 170 245 
656 591 276 170 
657 222 171 194 
658 194 171 258 
659 325 171 222 
660 387 171 325 
661 171 387 328 
662 174 173 198 
663 174 198 587 
664 524 175 353 
665 195 439 176 
666 514 176 439 
667 514 522 176 
668 177 304 300 
669 178 571 183 
670 178 409 457 
671 527 178 457 
672 178 527 571 
673 179 230 187 
674 431 230 179 
675 180 214 533 
676 180 450 358 
677 450 180 464 
678 536 464 180 
679 536 180 533 
680 300 283 181 
681 313 186 182 
682 313 182 312 
683 312 182 493 
684 493 182 492 
685 427 183 430 
686 430 183 571 
687 184 185 364 
688 184 369 185 
689 184 309 237 
690 184 237 372 
691 184 364 309 
692 184 372 369 
693 248 185 281 
694 248 364 185 
695 185 369 281 
696 186 313 188 
697 486 186 188 
698 365 187 230 
699 187 365 254 
700 188 313 253 
701 431 220 189 
702 189 220 473 
703 189 418 357 
704 189 357 431 
705 473 418 189 
706 375 190 256 
707 191 257 420 
708 466 220 192 
709 378 222 194 
710 258 494 194 
711 378 194 466 
712 194 469 466 
713 194 494 469 
714 439 195 580 
715 587 580 195 
716 196 317 246 
717 196 383 502 
718 198 352 587 
719 412 199 393 
720 449 519 199 
721 238 329 200 
722 200 330 523 
723 204 578 202 
724 204 202 579 
725 540 202 578 
726 302 503 203 
727 592 302 203 
728 203 327 444 
729 331 203 503 
730 444 592 203 
731 205 267 206 
732 206 398 205 
733 205 398 338 
734 338 495 205 
735 207 206 337 
736 206 207 398 
737 337 206 267 
738 268 207 282 
739 338 207 268 
740 282 207 575 
741 575 207 337 
742 338 398 207 
743 208 336 266 
744 208 266 487 
745 487 541 208 
746 209 268 339 
747 209 397 268 
748 209 339 482 
749 459 397 209 
750 459 209 482 
751 210 403 491 
752 224 462 211 
753 462 403 211 
754 404 211 521 
755 226 212 271 
756 447 212 226 
757 212 339 271 
758 481 339 212 
759 212 447 526 
760 481 212 526 
761 213 219 543 
762 576 219 213 
763 350 356 213 
764 350 213 543 
765 213 356 499 
766 499 576 213 
767 501 214 244 
768 463 214 445 
769 463 533 214 
770 422 215 276 
771 422 277 215 
772 277 552 215 
773 216 525 353 
774 216 406 525 
775 226 218 217 
776 217 218 346 
777 447 226 217 
778 217 349 277 
779 277 447 217 
780 271 218 226 
781 515 218 271 
782 543 219 532 
783 532 219 576 
784 466 473 220 
785 320 237 221 
786 527 221 237 
787 221 457 449 
788 221 449 467 
789 221 527 457 
790 222 233 325 
791 222 378 233 
792 374 259 223 
793 424 374 223 
794 408 424 223 
795 223 529 408 
796 224 535 462 
797 535 224 555 
798 224 590 555 
799 391 233 225 
800 225 233 585 
801 391 225 537 
802 542 225 471 
803 542 537 225 
804 227 310 254 
805 254 365 227 
806 310 227 299 
807 240 512 229 
808 577 240 229 
809 324 229 512 
810 357 230 431 
811 421 231 285 
812 479 285 231 
813 479 231 389 
814 389 231 487 
815 421 506 231 
816 231 506 487 
817 305 232 361 
818 305 518 232 
819 456 361 232 
820 468 456 232 
821 468 232 593 
822 518 494 232 
823 494 593 232 
824 391 325 233 
825 233 378 423 
826 233 423 585 
827 234 296 273 
828 234 273 520 
829 295 296 234 
830 234 498 295 
831 485 498 234 
832 520 485 234 
833 235 236 260 
834 354 236 235 
835 566 235 260 
836 235 566 317 
837 309 527 237 
838 237 320 452 
839 372 237 452 
840 329 238 239 
841 238 332 239 
842 385 329 239 
843 239 442 385 
844 389 266 240 
845 389 240 577 
846 301 284 241 
847 472 241 284 
848 567 301 241 
849 390 567 241 
850 242 269 341 
851 242 586 269 
852 586 242 489 
853 343 402 245 
854 295 414 247 
855 248 281 308 
856 248 308 588 
857 556 364 248 
858 248 588 556 
859 468 249 250 
860 250 407 419 
861 250 419 451 
862 250 451 544 
863 456 468 250 
864 250 544 456 
865 546 251 583 
866 559 583 251 
867 252 435 493 
868 465 252 493 
869 588 252 465 
870 435 257 253 
871 313 312 253 
872 435 253 312 
873 370 569 256 
874 257 408 303 
875 420 257 303 
876 366 408 257 
877 366 257 435 
878 262 593 258 
879 494 258 593 
880 374 432 259 
881 516 259 432 
882 381 593 262 
883 263 303 529 
884 441 263 529 
885 263 443 458 
886 264 384 381 
887 266 336 396 
888 487 266 389 
889 268 271 339 
890 268 515 271 
891 268 282 515 
892 397 338 268 
893 336 269 396 
894 269 586 396 
895 356 347 270 
896 508 356 270 
897 454 508 270 
898 272 402 343 
899 343 405 272 
900 272 531 402 
901 405 582 272 
902 273 340 520 
903 274 275 438 
904 275 274 521 
905 404 274 348 
906 348 274 429 
907 404 521 274 
908 438 429 274 
909 275 298 438 
910 275 484 298 
911 275 521 484 
912 480 422 276 
913 276 464 480 
914 276 591 507 
915 552 277 349 
916 478 277 422 
917 277 478 447 
918 570 280 355 
919 355 280 592 
920 280 500 460 
921 592 280 460 
922 371 308 281 
923 410 281 369 
924 410 371 281 
925 282 575 557 
926 300 291 283 
927 283 291 569 
928 569 370 283 
929 284 293 472 
930 284 483 293 
931 284 301 449 
932 284 449 483 
933 294 285 399 
934 294 421 285 
935 513 399 285 
936 497 344 286 
937 461 286 462 
938 497 286 461 
939 491 462 286 
940 287 344 497 
941 454 482 288 
942 454 288 508 
943 482 481 288 
944 576 288 481 
945 508 288 499 
946 288 576 499 
947 539 289 453 
948 570 453 289 
949 310 299 290 
950 299 362 290 
951 363 290 306 
952 290 534 306 
953 290 363 310 
954 290 362 534 
955 433 291 300 
956 291 321 382 
957 291 433 321 
958 291 382 569 
959 419 407 292 
960 292 407 427 
961 419 292 430 
962 292 427 430 
963 560 472 293 
964 293 483 561 
965 560 293 561 
966 399 500 294 
967 500 455 294 
968 295 498 414 
969 297 415 451 
970 415 297 504 
971 451 556 297 
972 492 297 465 
973 465 297 556 
974 504 297 492 
975 438 298 545 
976 484 524 298 
977 525 298 524 
978 545 298 525 
979 362 299 307 
980 433 300 304 
981 467 449 301 
982 503 302 592 
983 408 529 303 
984 433 304 367 
985 413 305 361 
986 305 413 426 
987 426 469 305 
988 518 305 469 
989 306 534 544 
990 306 544 559 
991 307 357 418 
992 362 307 361 
993 413 361 307 
994 307 418 413 
995 308 371 373 
996 364 430 309 
997 430 571 309 
998 571 527 309 
999 312 493 435 
1000 314 574 368 
1001 502 574 314 
1002 374 371 315 
1003 371 410 315 
1004 432 374 315 
1005 315 410 530 
1006 530 432 315 
1007 320 319 452 
1008 452 319 322 
1009 319 567 322 
1010 505 382 321 
1011 321 433 517 
1012 321 517 505 
1013 322 388 432 
1014 322 567 388 
1015 432 530 322 
1016 322 530 452 
1017 522 323 548 
1018 387 325 391 
1019 444 327 328 
1020 392 328 387 
1021 392 444 328 
1022 330 382 505 
1023 330 505 523 
1024 416 334 523 
1025 416 564 334 
1026 334 564 428 
1027 335 428 564 
1028 448 335 563 
1029 495 338 397 
1030 481 482 339 
1031 538 340 400 
1032 539 400 340 
1033 340 538 520 
1034 347 356 350 
1035 350 406 347 
1036 510 348 429 
1037 510 437 348 
1038 552 349 405 
1039 405 349 582 
1040 543 406 350 
1041 351 387 391 
1042 351 392 387 
1043 537 351 391 
1044 434 392 351 
1045 400 434 351 
1046 537 400 351 
1047 352 580 587 
1048 353 525 524 
1049 453 355 444 
1050 355 592 444 
1051 355 453 570 
1052 356 508 499 
1053 468 594 359 
1054 534 362 361 
1055 534 361 456 
1056 430 364 419 
1057 556 419 364 
1058 373 408 366 
1059 367 368 574 
1060 574 433 367 
1061 372 410 369 
1062 373 371 424 
1063 424 371 374 
1064 530 410 372 
1065 530 372 452 
1066 424 408 373 
1067 511 377 458 
1068 377 511 581 
1069 466 423 378 
1070 383 517 502 
1071 505 517 383 
1072 505 383 540 
1073 567 390 388 
1074 388 516 432 
1075 388 573 516 
1076 577 479 389 
1077 392 434 453 
1078 392 453 444 
1079 393 396 412 
1080 488 448 394 
1081 394 448 563 
1082 394 477 488 
1083 394 498 477 
1084 498 394 551 
1085 563 551 394 
1086 425 470 395 
1087 425 395 528 
1088 395 470 540 
1089 395 496 528 
1090 578 496 395 
1091 395 540 578 
1092 586 412 396 
1093 443 397 459 
1094 443 495 397 
1095 460 500 399 
1096 399 513 460 
1097 434 400 539 
1098 537 538 400 
1099 401 417 474 
1100 535 401 474 
1101 401 535 555 
1102 560 489 402 
1103 560 402 531 
1104 491 403 462 
1105 562 525 406 
1106 543 562 406 
1107 412 586 584 
1108 418 426 413 
1109 498 551 414 
1110 544 451 415 
1111 415 504 583 
1112 544 415 559 
1113 583 559 415 
1114 416 470 417 
1115 416 417 564 
1116 470 416 523 
1117 470 425 417 
1118 474 417 425 
1119 418 473 426 
1120 451 419 556 
1121 422 562 478 
1122 536 422 480 
1123 536 545 422 
1124 562 422 545 
1125 425 436 490 
1126 528 436 425 
1127 425 490 474 
1128 426 473 469 
1129 438 463 429 
1130 445 429 463 
1131 550 429 445 
1132 429 550 510 
1133 433 574 517 
1134 434 539 453 
1135 436 461 490 
1136 436 497 461 
1137 436 528 497 
1138 438 545 463 
1139 443 459 458 
1140 478 532 447 
1141 526 447 532 
1142 449 457 519 
1143 482 454 511 
1144 456 544 534 
1145 511 458 459 
1146 511 459 482 
1147 503 460 513 
1148 460 503 592 
1149 535 461 462 
1150 490 461 535 
1151 533 463 536 
1152 536 463 545 
1153 536 480 464 
1154 493 492 465 
1155 556 588 465 
1156 473 466 469 
1157 593 594 468 
1158 494 518 469 
1159 540 470 523 
1160 471 488 477 
1161 471 477 542 
1162 472 531 475 
1163 531 472 560 
1164 535 474 490 
1165 476 541 506 
1166 498 485 477 
1167 485 520 477 
1168 477 520 542 
1169 478 543 532 
1170 478 562 543 
1171 576 481 526 
1172 483 584 561 
1173 487 506 541 
1174 489 560 561 
1175 584 489 561 
1176 584 586 489 
1177 496 497 528 
1178 574 502 517 
1179 523 505 540 
1180 554 581 511 
1181 542 520 538 
1182 545 525 562 
1183 532 576 526 
1184 538 537 542 
3 1 4 1924
1185 414 295 247 148 
1186 135 302 203 592 
1187 596 606 599 647 
1188 26 270 497 287 
1189 346 217 72 218 
1190 598 596 630 647 
1191 512 324 44 619 
1192 210 462 491 403 
1193 352 198 587 631 
1194 443 441 63 263 
1195 137 169 549 625 
1196 118 128 22 614 
1197 603 604 517 624 
1198 468 456 250 640 
1199 260 191 94 611 
1200 15 323 265 601 
1201 15 601 265 608 
1202 174 17 587 615 
1203 166 318 361 431 
1204 477 520 401 613 
1205 601 602 136 613 
1206 198 352 619 631 
1207 94 4 236 611 
1208 460 500 616 625 
1209 17 195 587 624 
1210 500 399 294 625 
1211 592 280 355 616 
1212 323 136 601 602 
1213 51 270 497 26 
1214 415 604 603 624 
1215 404 274 521 211 
1216 520 477 401 485 
1217 250 456 544 640 
1218 528 436 497 595 
1219 476 242 62 149 
1220 208 541 487 617 
1221 625 629 598 639 
1222 512 619 44 630 
1223 198 352 111 619 
1224 385 22 442 632 
1225 98 361 318 431 
1226 174 615 587 631 
1227 506 487 541 598 
1228 558 360 23 615 
1229 249 93 8 81 
1230 14 324 229 619 
1231 383 517 602 603 
1232 67 608 279 632 
1233 597 599 596 606 
1234 86 252 435 628 
1235 500 460 399 625 
1236 596 606 630 631 
1237 399 609 598 629 
1238 386 67 279 632 
1239 128 22 614 626 
1240 493 611 435 628 
1241 496 395 528 595 
1242 237 527 309 641 
1243 458 443 633 645 
1244 60 174 173 631 
1245 214 340 539 613 
1246 118 614 22 632 
1247 265 608 601 614 
1248 57 578 496 141 
1249 597 603 595 605 
1250 399 598 294 625 
1251 598 609 487 630 
1252 330 608 20 632 
1253 417 613 474 623 
1254 136 613 602 616 
1255 386 279 614 632 
1256 222 233 378 614 
1257 13 379 59 619 
1258 103 420 191 611 
1259 195 580 587 620 
1260 15 514 522 624 
1261 608 614 279 632 
1262 493 604 492 611 
1263 118 22 385 632 
1264 143 496 51 141 
1265 399 598 625 629 
1266 277 35 531 272 
1267 512 229 324 619 
1268 386 279 114 614 
1269 153 30 450 464 
1270 242 476 62 617 
1271 13 42 59 379 
1272 415 517 604 624 
1273 35 277 349 272 
1274 265 323 45 638 
1275 15 323 601 602 
1276 536 612 598 617 
1277 26 145 287 497 
1278 439 250 10 580 
1279 600 616 500 625 
1280 279 614 608 635 
1281 493 604 611 628 
1282 168 390 388 645 
1283 98 318 361 635 
1284 377 420 604 628 
1285 15 602 601 608 
1286 460 500 280 616 
1287 190 166 40 627 
1288 377 604 420 611 
1289 377 103 604 611 
1290 136 34 133 634 
1291 329 239 238 632 
1292 385 386 118 632 
1293 11 352 607 619 
1294 233 423 378 614 
1295 263 303 628 633 
1296 325 233 222 614 
1297 558 360 615 639 
1298 137 549 132 625 
1299 377 604 103 644 
1300 11 607 12 619 
1301 609 630 598 631 
1302 200 48 601 632 
1303 359 100 594 642 
1304 60 558 23 615 
1305 362 190 166 92 
1306 381 222 378 614 
1307 420 257 611 628 
1308 189 473 220 413 
1309 377 103 581 644 
1310 14 59 379 619 
1311 500 294 600 625 
1312 192 98 220 635 
1313 420 611 604 628 
1314 420 108 303 628 
1315 523 540 505 602 
1316 539 613 453 616 
1317 435 366 86 628 
1318 225 128 614 626 
1319 1 583 546 89 
1320 512 240 229 619 
1321 154 464 598 617 
1322 136 616 602 639 
1323 323 601 136 638 
1324 527 178 607 646 
1325 13 111 12 619 
1326 595 598 545 612 
1327 558 549 169 639 
1328 517 415 604 621 
1329 558 169 360 639 
1330 58 100 15 608 
1331 424 371 373 633 
1332 360 548 23 615 
1333 318 40 166 627 
1334 20 120 69 608 
1335 600 625 598 639 
1336 596 606 598 630 
1337 72 515 218 622 
1338 391 233 325 614 
1339 69 380 67 608 
1340 318 166 361 627 
1341 580 250 10 101 
1342 325 222 381 614 
1343 386 614 118 632 
1344 323 136 45 638 
1345 154 30 153 464 
1346 105 258 171 115 
1347 595 599 597 606 
1348 198 174 587 631 
1349 541 598 487 617 
1350 173 629 60 631 
1351 614 626 22 632 
1352 603 604 297 628 
1353 69 20 608 632 
1354 615 620 587 631 
1355 483 617 584 630 
1356 86 588 628 633 
1357 263 628 458 633 
1358 198 619 111 643 
1359 352 587 620 631 
1360 58 594 100 642 
1361 265 601 323 638 
1362 279 106 509 627 
1363 371 308 633 641 
1364 324 44 619 646 
1365 146 52 35 277 
1366 15 100 514 624 
1367 445 555 401 429 
1368 461 525 286 497 
1369 601 614 608 632 
1370 606 598 630 631 
1371 606 612 599 647 
1372 4 236 611 621 
1373 547 589 87 607 
1374 373 371 308 633 
1375 22 626 442 632 
1376 595 598 606 639 
1377 547 97 589 607 
1378 500 600 280 616 
1379 123 522 176 624 
1380 263 458 443 633 
1381 20 330 120 608 
1382 377 420 103 611 
1383 459 511 482 595 
1384 23 548 123 615 
1385 59 577 565 619 
1386 602 613 601 623 
1387 379 13 42 261 
1388 62 476 541 617 
1389 272 277 349 552 
1390 417 477 401 613 
1391 483 612 630 647 
1392 362 290 190 92 
1393 464 70 276 617 
1394 303 257 420 628 
1395 454 511 51 595 
1396 278 97 547 607 
1397 598 600 294 625 
1398 509 40 318 627 
1399 198 631 619 643 
1400 382 120 330 608 
1401 136 601 613 638 
1402 236 260 94 611 
1403 425 417 474 623 
1404 153 294 154 464 
1405 21 16 122 643 
1406 280 533 570 616 
1407 326 132 47 629 
1408 98 361 220 635 
1409 559 251 583 433 
1410 556 628 588 633 
1411 520 463 401 613 
1412 512 240 619 630 
1413 154 506 476 617 
1414 156 280 500 180 
1415 225 585 233 614 
1416 388 567 636 645 
1417 380 69 120 608 
1418 44 630 619 646 
1419 599 606 595 612 
1420 352 620 619 631 
1421 173 549 60 629 
1422 280 570 355 616 
1423 533 600 613 616 
1424 463 533 536 600 
1425 598 630 612 647 
1426 595 600 598 639 
1427 415 559 583 433 
1428 265 58 608 614 
1429 325 614 384 638 
1430 604 611 103 644 
1431 458 459 443 645 
1432 226 217 218 622 
1433 277 146 52 557 
1434 583 517 415 433 
1435 10 439 440 640 
1436 257 435 253 611 
1437 15 608 100 642 
1438 136 133 45 638 
1439 378 614 423 635 
1440 439 250 580 620 
1441 43 319 567 636 
1442 35 531 475 622 
1443 482 511 454 595 
1444 408 628 303 633 
1445 506 598 541 617 
1446 15 265 58 608 
1447 517 603 383 604 
1448 597 599 595 603 
1449 545 598 595 600 
1450 618 636 567 645 
1451 257 435 611 628 
1452 511 395 595 603 
1453 384 325 381 614 
1454 445 550 555 429 
1455 388 322 432 645 
1456 350 508 356 406 
1457 259 223 107 633 
1458 374 432 315 636 
1459 608 614 58 635 
1460 97 278 379 607 
1461 60 606 558 615 
1462 58 627 594 642 
1463 200 20 329 632 
1464 567 322 388 636 
1465 541 476 506 617 
1466 483 612 617 630 
1467 236 260 611 644 
1468 565 59 13 577 
1469 417 613 601 626 
1470 417 601 613 623 
1471 409 547 87 607 
1472 360 136 602 639 
1473 356 350 406 347 
1474 80 228 1 621 
1475 59 565 13 619 
1476 391 614 325 638 
1477 180 280 500 600 
1478 380 106 67 627 
1479 51 33 497 496 
1480 549 132 625 629 
1481 334 601 48 626 
1482 113 114 279 635 
1483 532 478 481 622 
1484 69 329 20 632 
1485 464 154 70 617 
1486 195 620 587 624 
1487 482 618 612 622 
1488 48 626 601 632 
1489 49 483 584 630 
1490 199 630 44 646 
1491 223 529 107 633 
1492 476 276 242 149 
1493 564 416 334 626 
1494 308 556 588 633 
1495 285 231 421 609 
1496 279 627 509 635 
1497 509 627 318 635 
1498 606 615 595 639 
1499 14 229 59 619 
1500 88 4 94 611 
1501 67 69 608 632 
1502 17 587 615 624 
1503 265 614 601 638 
1504 512 130 240 630 
1505 176 195 17 624 
1506 567 636 618 647 
1507 218 217 72 622 
1508 98 192 193 635 
1509 121 629 47 631 
1510 536 545 598 612 
1511 117 125 327 167 
1512 553 97 261 637 
1513 191 257 7 611 
1514 260 103 611 644 
1515 445 498 555 550 
1516 436 595 528 605 
1517 374 259 432 633 
1518 535 474 401 613 
1519 114 423 585 614 
1520 492 604 39 611 
1521 318 627 361 635 
1522 364 248 185 641 
1523 381 614 378 635 
1524 527 610 221 646 
1525 239 626 238 632 
1526 297 603 415 604 
1527 72 217 557 622 
1528 390 241 567 618 
1529 409 607 178 646 
1530 114 614 279 635 
1531 407 292 178 607 
1532 325 384 264 638 
1533 72 282 515 622 
1534 600 602 613 616 
1535 424 374 371 633 
1536 60 23 174 615 
1537 517 602 624 642 
1538 118 386 114 614 
1539 598 595 606 612 
1540 457 527 221 646 
1541 482 288 562 454 
1542 161 245 215 617 
1543 100 359 102 640 
1544 388 432 516 645 
1545 198 16 121 643 
1546 199 44 519 646 
1547 424 373 408 633 
1548 293 284 472 618 
1549 238 626 48 632 
1550 235 236 354 644 
1551 391 225 233 614 
1552 269 242 62 617 
1553 352 11 607 620 
1554 279 608 627 635 
1555 554 124 202 644 
1556 432 259 516 645 
1557 136 133 613 634 
1558 229 577 59 619 
1559 594 58 593 627 
1560 361 362 431 307 
1561 278 607 110 646 
1562 406 508 356 270 
1563 630 631 609 643 
1564 567 319 322 636 
1565 596 631 630 643 
1566 567 301 636 647 
1567 14 324 619 646 
1568 417 401 474 613 
1569 454 562 482 595 
1570 477 140 394 626 
1571 596 599 597 610 
1572 417 477 613 626 
1573 57 496 143 141 
1574 556 610 628 633 
1575 619 620 596 631 
1576 14 619 379 646 
1577 7 572 94 611 
1578 487 609 266 630 
1579 223 408 529 633 
1580 240 619 630 643 
1581 133 411 351 634 
1582 388 636 322 645 
1583 482 595 562 612 
1584 542 613 477 626 
1585 176 522 514 624 
1586 264 387 325 391 
1587 168 267 390 618 
1588 46 267 168 618 
1589 598 617 612 630 
1590 135 137 333 625 
1591 610 620 596 646 
1592 156 71 280 180 
1593 121 47 173 631 
1594 340 214 463 613 
1595 168 618 390 645 
1596 352 587 580 620 
1597 567 618 301 647 
1598 49 449 483 630 
1599 470 540 602 605 
1600 610 633 308 641 
1601 592 460 280 616 
1602 15 602 608 642 
1603 589 97 553 75 
1604 542 538 520 613 
1605 25 337 50 618 
1606 514 100 102 640 
1607 257 366 435 628 
1608 100 608 58 642 
1609 136 613 133 638 
1610 607 619 352 620 
1611 179 362 166 92 
1612 342 170 66 341 
1613 463 445 401 429 
1614 261 97 379 607 
1615 567 241 301 618 
1616 205 206 267 618 
1617 533 280 600 616 
1618 109 14 379 646 
1619 601 626 614 632 
1620 513 333 132 625 
1621 440 439 102 640 
1622 512 393 130 630 
1623 322 636 432 645 
1624 46 168 573 645 
1625 325 264 391 638 
1626 459 209 397 618 
1627 527 457 178 646 
1628 517 502 574 621 
1629 585 423 233 614 
1630 305 469 361 518 
1631 4 611 5 621 
1632 446 70 56 507 
1633 282 72 557 622 
1634 528 51 497 496 
1635 34 136 616 634 
1636 15 100 602 642 
1637 599 610 596 647 
1638 114 423 614 635 
1639 104 382 569 627 
1640 596 630 449 646 
1641 277 531 35 622 
1642 597 606 596 631 
1643 527 419 309 641 
1644 573 197 46 645 
1645 148 414 61 247 
1646 436 528 425 605 
1647 602 616 600 639 
1648 293 483 284 612 
1649 449 483 630 647 
1650 169 135 34 616 
1651 607 620 610 646 
1652 597 596 620 631 
1653 545 562 595 612 
1654 59 42 13 577 
1655 577 565 619 643 
1656 118 114 585 614 
1657 389 266 487 609 
1658 101 580 250 620 
1659 453 616 613 634 
1660 561 584 483 617 
1661 485 477 401 498 
1662 174 23 17 615 
1663 221 646 610 647 
1664 333 137 132 625 
1665 99 553 261 637 
1666 15 602 100 624 
1667 542 520 477 613 
1668 408 223 424 633 
1669 536 422 612 617 
1670 469 361 518 635 
1671 259 374 223 633 
1672 381 58 614 635 
1673 221 320 636 641 
1674 380 67 608 627 
1675 98 193 318 635 
1676 550 510 555 429 
1677 276 476 242 617 
1678 449 630 199 646 
1679 432 633 259 645 
1680 600 613 602 623 
1681 25 50 472 618 
1682 276 507 476 617 
1683 4 354 236 621 
1684 5 186 39 611 
1685 109 379 278 646 
1686 15 522 602 624 
1687 406 454 270 497 
1688 431 189 361 307 
1689 267 25 390 618 
1690 133 634 351 638 
1691 413 220 361 473 
1692 385 67 386 632 
1693 573 168 388 645 
1694 359 594 456 642 
1695 254 299 310 227 
1696 70 507 276 617 
1697 597 596 610 620 
1698 315 410 371 641 
1699 497 454 51 528 
1700 221 636 467 647 
1701 536 598 545 600 
1702 60 629 606 631 
1703 381 222 194 378 
1704 101 11 620 637 
1705 599 636 618 645 
1706 107 259 633 645 
1707 374 424 223 633 
1708 377 511 458 628 
1709 603 628 610 633 
1710 46 618 168 645 
1711 596 619 631 643 
1712 487 231 389 609 
1713 384 614 265 638 
1714 599 618 459 645 
1715 489 147 242 617 
1716 610 646 596 647 
1717 549 173 47 629 
1718 250 544 451 640 
1719 467 449 221 647 
1720 240 130 266 630 
1721 16 198 111 643 
1722 430 571 527 309 
1723 135 302 126 203 
1724 619 630 596 646 
1725 225 614 391 638 
1726 411 133 351 638 
1727 3 299 187 92 
1728 135 203 126 201 
1729 333 126 135 625 
1730 409 110 607 646 
1731 535 401 463 613 
1732 434 453 613 634 
1733 315 530 410 641 
1734 513 625 132 629 
1735 596 630 619 643 
1736 540 383 602 603 
1737 180 533 280 600 
1738 221 237 320 641 
1739 22 134 442 626 
1740 308 610 556 633 
1741 549 629 625 639 
1742 236 611 621 644 
1743 374 633 432 636 
1744 546 583 251 367 
1745 122 565 577 643 
1746 297 451 415 603 
1747 169 616 360 639 
1748 561 489 584 617 
1749 39 492 504 604 
1750 182 492 39 611 
1751 266 609 389 630 
1752 533 463 214 613 
1753 416 601 334 626 
1754 285 609 399 629 
1755 519 449 199 646 
1756 340 214 158 463 
1757 482 612 562 622 
1758 449 646 221 647 
1759 483 293 561 612 
1760 426 418 413 473 
1761 409 178 457 646 
1762 39 611 604 621 
1763 616 625 600 639 
1764 602 615 597 624 
1765 533 600 463 613 
1766 245 147 489 617 
1767 221 43 467 636 
1768 451 603 297 628 
1769 198 121 631 643 
1770 190 375 256 627 
1771 592 460 616 625 
1772 608 58 627 635 
1773 226 447 217 622 
1774 390 25 241 618 
1775 40 509 106 627 
1776 123 17 23 615 
1777 14 109 324 646 
1778 11 101 6 637 
1779 250 419 407 607 
1780 529 263 443 633 
1781 198 173 174 631 
1782 463 613 600 623 
1783 475 472 50 622 
1784 419 527 607 646 
1785 608 627 58 642 
1786 596 646 449 647 
1787 308 556 610 641 
1788 229 619 240 643 
1789 402 489 560 617 
1790 381 264 325 384 
1791 97 607 261 637 
1792 618 636 599 647 
1793 483 284 612 647 
1794 603 610 599 633 
1795 402 215 245 489 
1796 562 612 478 622 
1797 379 607 278 646 
1798 415 544 517 624 
1799 449 630 596 647 
1800 495 197 63 645 
1801 324 109 44 646 
1802 295 148 498 550 
1803 599 603 597 610 
1804 260 566 103 644 
1805 543 288 532 219 
1806 241 284 301 618 
1807 260 103 191 611 
1808 409 457 110 646 
1809 221 320 43 636 
1810 13 565 111 619 
1811 111 619 565 643 
1812 394 140 564 626 
1813 517 604 383 621 
1814 543 562 288 454 
1815 598 629 606 639 
1816 285 399 625 629 
1817 577 619 229 643 
1818 561 483 612 617 
1819 133 613 634 638 
1820 511 377 581 644 
1821 240 630 389 643 
1822 411 264 133 638 
1823 587 620 615 624 
1824 116 112 246 644 
1825 43 567 301 636 
1826 351 387 264 391 
1827 107 516 259 645 
1828 558 615 606 639 
1829 186 182 39 611 
1830 572 486 88 611 
1831 292 183 407 178 
1832 351 634 613 638 
1833 411 351 264 638 
1834 594 627 456 642 
1835 97 75 589 607 
1836 95 7 257 611 
1837 451 544 415 640 
1838 4 5 354 621 
1839 352 101 11 620 
1840 329 385 239 632 
1841 225 471 128 626 
1842 121 609 629 631 
1843 332 238 239 626 
1844 293 612 284 618 
1845 441 529 443 645 
1846 5 611 39 621 
1847 419 610 527 646 
1848 464 276 480 617 
1849 580 101 352 620 
1850 95 257 253 611 
1851 360 602 548 615 
1852 549 47 132 629 
1853 511 540 603 644 
1854 382 627 608 642 
1855 489 215 245 617 
1856 134 73 442 626 
1857 284 301 618 647 
1858 398 338 207 618 
1859 419 607 610 646 
1860 381 378 194 635 
1861 253 312 313 611 
1862 439 620 624 640 
1863 573 388 516 645 
1864 166 534 362 431 
1865 472 618 50 622 
1866 294 598 536 600 
1867 525 545 562 595 
1868 517 415 433 544 
1869 221 610 636 647 
1870 434 613 351 634 
1871 411 351 387 264 
1872 47 629 173 631 
1873 81 568 96 637 
1874 100 359 640 642 
1875 415 559 433 544 
1876 12 607 11 637 
1877 561 560 489 617 
1878 384 265 45 638 
1879 432 636 633 645 
1880 389 630 609 643 
1881 499 288 543 219 
1882 39 604 504 621 
1883 93 468 249 250 
1884 73 448 335 626 
1885 369 184 185 641 
1886 451 620 250 640 
1887 597 620 615 631 
1888 284 618 612 647 
1889 73 335 428 626 
1890 293 560 561 612 
1891 529 633 443 645 
1892 467 636 43 647 
1893 411 387 119 264 
1894 577 229 240 643 
1895 43 636 301 647 
1896 478 562 422 612 
1897 276 242 147 617 
1898 447 271 339 622 
1899 555 498 148 550 
1900 379 619 607 646 
1901 360 616 136 639 
1902 464 536 598 617 
1903 489 586 584 617 
1904 190 256 290 534 
1905 473 361 413 305 
1906 569 256 306 363 
1907 536 422 545 612 
1908 597 615 606 631 
1909 261 607 12 637 
1910 52 35 277 582 
1911 383 621 604 644 
1912 420 257 191 611 
1913 67 385 69 632 
1914 534 166 361 431 
1915 209 459 482 618 
1916 190 166 534 362 
1917 451 610 603 628 
1918 321 382 608 642 
1919 34 616 135 634 
1920 451 610 607 620 
1921 613 616 136 634 
1922 432 530 315 636 
1923 371 410 281 641 
1924 593 361 627 635 
1925 279 509 113 635 
1926 240 266 389 630 
1927 197 495 46 645 
1928 467 43 301 647 
1929 545 600 595 623 
1930 602 615 360 639 
1931 351 391 264 638 
1932 464 536 294 598 
1933 385 329 69 632 
1934 173 198 121 631 
1935 113 318 193 635 
1936 594 593 456 627 
1937 407 250 607 637 
1938 422 480 276 617 
1939 209 618 482 622 
1940 284 483 449 647 
1941 592 625 616 634 
1942 451 597 603 610 
1943 406 454 508 270 
1944 9 316 8 637 
1945 609 631 121 643 
1946 236 235 260 644 
1947 557 277 146 622 
1948 291 569 382 627 
1949 469 494 194 635 
1950 100 624 602 642 
1951 186 486 188 611 
1952 337 50 618 622 
1953 201 18 203 126 
1954 313 312 182 611 
1955 616 625 135 634 
1956 545 438 463 600 
1957 577 389 122 643 
1958 545 422 562 612 
1959 315 636 530 641 
1960 451 597 610 620 
1961 284 449 301 647 
1962 16 111 565 643 
1963 337 618 207 622 
1964 511 540 395 603 
1965 417 477 140 401 
1966 190 534 166 627 
1967 236 621 354 644 
1968 106 380 375 627 
1969 524 175 54 210 
1970 354 255 90 621 
1971 597 595 606 615 
1972 298 484 275 623 
1973 104 375 380 627 
1974 134 448 73 626 
1975 215 489 402 617 
1976 277 557 217 622 
1977 451 607 250 620 
1978 301 449 467 647 
1979 309 419 364 641 
1980 184 369 372 641 
1981 250 620 607 637 
1982 528 595 395 605 
1983 407 419 292 607 
1984 10 250 439 640 
1985 439 250 620 640 
1986 560 612 293 622 
1987 161 215 276 617 
1988 148 295 159 550 
1989 456 593 361 627 
1990 146 575 557 622 
1991 109 278 110 646 
1992 527 610 419 641 
1993 469 194 466 635 
1994 188 313 186 611 
1995 46 495 618 645 
1996 354 5 255 621 
1997 561 612 560 617 
1998 113 509 318 635 
1999 277 217 447 622 
2000 415 544 624 640 
2001 517 505 602 642 
2002 94 572 88 611 
2003 182 186 313 611 
2004 7 95 572 611 
2005 101 620 250 637 
2006 581 103 566 644 
2007 264 384 45 638 
2008 612 618 599 647 
2009 438 600 545 623 
2010 287 344 53 270 
2011 116 246 124 644 
2012 607 620 11 637 
2013 557 575 282 622 
2014 51 144 496 143 
2015 349 277 35 582 
2016 592 135 625 634 
2017 49 199 449 630 
2018 306 283 181 291 
2019 555 535 401 429 
2020 495 63 443 645 
2021 375 190 40 627 
2022 221 636 610 641 
2023 166 534 361 627 
2024 417 140 477 626 
2025 135 201 34 634 
2026 531 422 277 272 
2027 346 72 217 557 
2028 306 291 181 642 
2029 569 306 256 627 
2030 225 542 626 638 
2031 74 76 306 181 
2032 131 24 331 126 
2033 392 351 411 634 
2034 463 401 535 429 
2035 19 21 131 129 
2036 308 248 556 641 
2037 417 601 416 626 
2038 287 165 26 270 
2039 317 235 36 644 
2040 464 480 536 617 
2041 190 256 534 627 
2042 316 12 11 637 
2043 39 228 5 621 
2044 88 486 186 611 
2045 5 228 255 621 
2046 456 640 359 642 
2047 339 482 481 622 
2048 411 133 201 634 
2049 463 600 438 623 
2050 593 518 361 635 
2051 325 171 387 264 
2052 511 578 395 540 
2053 534 290 190 362 
2054 536 545 463 600 
2055 332 73 428 626 
2056 157 211 275 623 
2057 322 530 432 636 
2058 201 133 34 634 
2059 505 540 383 602 
2060 45 133 264 638 
2061 261 13 42 376 
2062 112 196 246 644 
2063 319 43 320 636 
2064 202 124 540 644 
2065 56 70 446 154 
2066 593 627 58 635 
2067 545 595 605 623 
2068 413 426 473 305 
2069 382 291 627 642 
2070 40 106 375 627 
2071 362 534 361 431 
2072 513 399 460 625 
2073 604 621 611 644 
2074 402 560 422 617 
2075 122 389 479 643 
2076 251 85 546 367 
2077 395 470 425 605 
2078 96 568 9 637 
2079 452 636 320 641 
2080 326 609 285 629 
2081 515 282 268 622 
2082 150 31 148 159 
2083 556 610 451 628 
2084 448 564 335 626 
2085 109 519 44 646 
2086 601 602 523 608 
2087 341 342 170 147 
2088 296 445 295 234 
2089 633 636 599 645 
2090 392 453 434 634 
2091 11 6 316 637 
2092 351 613 537 638 
2093 102 359 440 640 
2094 451 419 607 610 
2095 445 295 234 498 
2096 425 470 417 623 
2097 456 627 534 642 
2098 319 320 452 636 
2099 333 503 126 625 
2100 16 565 122 643 
2101 9 12 316 637 
2102 562 454 406 497 
2103 10 440 93 250 
2104 344 406 53 270 
2105 184 372 237 641 
2106 566 260 235 644 
2107 460 503 513 625 
2108 51 270 454 497 
2109 389 609 479 643 
2110 429 224 463 274 
2111 525 562 406 497 
2112 579 124 116 246 
2113 584 412 49 630 
2114 422 536 480 617 
2115 159 445 295 296 
2116 556 451 297 628 
2117 8 96 9 637 
2118 262 222 194 381 
2119 124 246 196 644 
2120 520 234 485 445 
2121 460 592 503 625 
2122 389 231 479 609 
2123 504 1 228 621 
2124 250 451 419 607 
2125 194 378 466 635 
2126 10 440 250 640 
2127 539 214 151 340 
2128 610 636 633 641 
2129 240 389 577 643 
2130 122 577 127 479 
2131 291 306 627 642 
2132 317 566 235 644 
2133 593 232 361 518 
2134 523 601 416 602 
2135 305 361 232 518 
2136 444 328 327 201 
2137 94 191 7 611 
2138 81 82 568 637 
2139 382 330 505 608 
2140 364 185 184 641 
2141 554 581 112 644 
2142 82 249 75 637 
2143 201 135 444 634 
2144 51 144 143 141 
2145 53 165 287 270 
2146 599 636 610 647 
2147 445 295 498 550 
2148 441 443 63 645 
2149 536 533 180 600 
2150 250 75 249 637 
2151 456 361 534 627 
2152 530 636 452 641 
2153 599 633 610 636 
2154 411 201 392 634 
2155 556 588 248 308 
2156 422 531 277 622 
2157 456 593 232 361 
2158 505 608 602 642 
2159 417 564 140 626 
2160 479 122 577 389 
2161 248 281 185 641 
2162 295 150 148 159 
2163 471 225 542 626 
2164 165 26 145 287 
2165 135 203 201 444 
2166 407 75 250 637 
2167 601 608 523 632 
2168 193 192 466 635 
2169 213 508 356 350 
2170 135 592 444 634 
2171 203 135 592 444 
2172 3 370 310 290 
2173 112 116 554 644 
2174 8 81 96 637 
2175 534 627 306 642 
2176 560 612 422 617 
2177 452 530 322 636 
2178 508 562 454 406 
2179 392 444 453 634 
2180 511 581 554 644 
2181 615 620 597 624 
2182 335 564 428 626 
2183 159 445 550 295 
2184 415 504 604 621 
2185 33 51 144 496 
2186 287 145 33 497 
2187 193 41 113 635 
2188 215 402 422 617 
2189 447 271 212 339 
2190 582 35 349 272 
2191 9 568 99 637 
2192 214 151 289 539 
2193 319 452 322 636 
2194 508 499 543 213 
2195 122 565 172 577 
2196 434 351 392 634 
2197 160 71 280 156 
2198 456 534 544 642 
2199 112 566 317 644 
2200 21 285 326 609 
2201 288 576 532 219 
2202 387 171 105 264 
2203 513 285 625 629 
2204 317 36 196 644 
2205 589 553 83 75 
2206 93 6 10 250 
2207 391 537 225 638 
2208 422 276 215 617 
2209 213 543 508 350 
2210 554 116 124 644 
2211 193 466 41 635 
2212 542 537 613 638 
2213 185 281 369 641 
2214 381 593 58 635 
2215 347 53 406 270 
2216 488 448 134 626 
2217 544 534 306 642 
2218 110 519 109 646 
2219 478 277 447 622 
2220 593 232 518 494 
2221 369 281 410 641 
2222 328 167 327 201 
2223 438 463 535 274 
2224 172 122 577 127 
2225 274 535 438 211 
2226 564 334 428 626 
2227 8 316 6 637 
2228 395 540 470 605 
2229 593 194 494 635 
2230 478 612 422 622 
2231 18 331 203 126 
2232 351 392 411 387 
2233 624 640 544 642 
2234 369 410 372 641 
2235 112 581 566 644 
2236 189 473 413 418 
2237 148 247 150 295 
2238 3 370 254 310 
2239 406 32 53 347 
2240 405 272 349 552 
2241 488 564 448 626 
2242 309 527 430 419 
2243 528 395 425 605 
2244 468 250 93 640 
2245 463 224 535 274 
2246 535 211 462 623 
2247 505 321 382 608 
2248 498 234 445 485 
2249 196 112 317 644 
2250 93 250 440 640 
2251 127 129 21 479 
2252 425 474 490 623 
2253 503 333 513 625 
2254 209 339 268 622 
2255 275 211 438 623 
2256 200 601 523 632 
2257 523 608 330 632 
2258 407 607 75 637 
2259 456 544 640 642 
2260 381 194 593 635 
2261 593 494 194 258 
2262 456 468 359 640 
2263 513 285 399 625 
2264 321 291 382 642 
2265 299 254 3 187 
2266 461 605 490 623 
2267 455 28 156 358 
2268 119 387 105 264 
2269 41 466 193 192 
2270 554 579 202 124 
2271 327 117 167 328 
2272 326 21 19 285 
2273 269 242 341 149 
2274 249 82 81 637 
2275 156 160 71 243 
2276 463 438 535 623 
2277 576 288 499 219 
2278 517 383 502 621 
2279 454 543 562 508 
2280 21 122 127 479 
2281 250 249 6 637 
2282 131 24 19 129 
2283 504 228 39 621 
2284 306 534 256 627 
2285 488 394 564 626 
2286 296 273 158 445 
2287 201 392 328 411 
2288 349 582 272 405 
2289 298 545 461 623 
2290 471 488 134 626 
2291 545 605 461 623 
2292 535 438 211 623 
2293 21 479 285 609 
2294 269 62 242 149 
2295 418 189 357 307 
2296 433 544 559 642 
2297 523 416 470 602 
2298 6 93 249 250 
2299 189 431 357 307 
2300 339 209 482 622 
2301 470 605 602 623 
2302 274 224 535 211 
2303 564 417 416 626 
2304 330 523 505 608 
2305 351 537 391 638 
2306 245 215 68 161 
2307 427 183 407 292 
2308 8 6 249 637 
2309 463 535 224 429 
2310 505 321 608 642 
2311 8 249 81 637 
2312 383 540 124 644 
2313 554 579 124 116 
2314 347 406 356 270 
2315 461 436 490 605 
2316 542 225 537 638 
2317 535 490 474 623 
2318 481 288 576 532 
2319 437 590 31 510 
2320 65 140 142 551 
2321 419 610 451 641 
2322 82 75 553 637 
2323 129 19 21 285 
2324 451 610 556 641 
2325 342 245 170 147 
2326 285 479 231 609 
2327 84 283 74 363 
2328 490 436 425 605 
2329 523 602 505 608 
2330 383 502 621 644 
2331 8 6 93 249 
2332 419 451 556 641 
2333 110 457 519 646 
2334 441 443 529 263 
2335 473 426 469 305 
2336 286 353 29 525 
2337 28 156 358 243 
2338 478 422 277 622 
2339 36 502 196 644 
2340 392 201 444 634 
2341 376 13 42 172 
2342 468 456 359 594 
2343 18 327 167 201 
2344 105 328 387 119 
2345 470 425 605 623 
2346 394 448 488 564 
2347 170 276 341 147 
2348 314 574 502 621 
2349 496 144 33 143 
2350 125 18 327 167 
2351 24 19 129 513 
2352 367 546 583 89 
2353 414 295 148 498 
2354 425 490 605 623 
2355 126 24 331 503 
2356 214 244 151 501 
2357 444 328 201 392 
2358 283 74 306 181 
2359 117 167 328 119 
2360 576 526 481 532 
2361 105 328 117 115 
2362 203 331 18 125 
2363 285 129 19 513 
2364 309 430 364 419 
2365 124 196 383 644 
2366 479 129 21 285 
2367 283 306 74 363 
2368 196 112 246 317 
2369 196 502 383 644 
2370 105 117 328 119 
2371 275 521 211 157 
2372 353 55 29 525 
2373 327 203 18 125 
2374 271 212 226 447 
2375 543 499 219 213 
2376 353 29 155 286 
2377 446 30 56 154 
2378 214 445 158 463 
2379 427 430 183 292 
2380 491 155 29 286 
2381 147 402 245 489 
2382 438 429 463 274 
2383 521 484 157 275 
2384 211 224 535 462 
2385 155 55 29 353 
2386 484 524 54 298 
2387 213 576 499 219 
2388 508 356 499 213 
2389 525 353 55 216 
2390 216 164 55 344 
2391 304 85 177 78 
2392 74 76 77 306 
2393 181 283 300 291 
2394 181 283 74 84 
2395 254 370 84 310 
2396 105 258 262 171 
2397 523 470 540 602 
2398 505 383 517 602 
2399 285 294 399 609 
2400 294 598 399 609 
2401 285 421 294 609 
2402 421 598 294 609 
2403 461 490 535 623 
2404 535 462 461 623 
2405 496 578 51 141 
2406 554 51 578 141 
2407 554 578 51 511 
2408 337 575 622 207 
2409 622 575 337 50 
2410 531 402 422 272 
2411 422 402 531 560 
2412 639 549 606 558 
2413 639 606 549 629 
2414 60 606 549 558 
2415 60 549 606 629 
2416 433 291 642 300 
2417 642 291 433 321 
2418 595 51 528 496 
2419 595 528 51 454 
2420 457 449 646 221 
2421 646 449 457 519 
2422 171 194 262 222 
2423 262 194 171 258 
2424 214 151 158 501 
2425 214 158 151 340 
2426 273 158 151 501 
2427 273 151 158 340 
2428 226 622 271 447 
2429 349 582 217 277 
2430 349 217 582 163 
2431 346 582 217 163 
2432 628 633 645 458 
2433 459 628 645 458 
2434 395 578 595 496 
2435 395 595 578 511 
2436 51 595 578 496 
2437 51 578 595 511 
2438 88 5 611 186 
2439 88 611 5 4 
2440 340 613 400 539 
2441 400 613 340 538 
2442 144 145 51 33 
2443 144 51 145 26 
2444 497 51 145 33 
2445 497 145 51 26 
2446 101 6 250 10 
2447 101 250 6 637 
2448 497 270 344 287 
2449 497 344 270 406 
2450 178 527 430 571 
2451 430 183 178 571 
2452 178 183 430 292 
2453 598 154 294 464 
2454 598 294 154 421 
2455 603 624 602 597 
2456 602 624 603 517 
2457 647 606 598 596 
2458 647 598 606 612 
2459 464 536 153 294 
2460 455 358 153 28 
2461 30 153 358 28 
2462 30 358 153 450 
2463 487 617 630 208 
2464 630 617 487 598 
2465 56 154 617 70 
2466 617 154 56 476 
2467 617 507 56 70 
2468 56 507 617 476 
2469 256 290 92 190 
2470 618 482 599 459 
2471 618 599 482 612 
2472 595 599 482 459 
2473 595 482 599 612 
2474 408 633 366 628 
2475 408 366 633 373 
2476 86 366 633 628 
2477 86 633 366 373 
2478 214 613 616 533 
2479 616 613 214 539 
2480 421 609 506 598 
2481 421 506 609 231 
2482 487 506 609 598 
2483 487 609 506 231 
2484 603 624 640 415 
2485 640 451 603 415 
2486 65 61 551 414 
2487 273 445 463 158 
2488 463 445 273 520 
2489 463 340 273 158 
2490 273 340 463 520 
2491 361 473 469 305 
2492 274 348 152 404 
2493 361 220 431 98 
2494 447 481 212 526 
2495 212 481 447 339 
2496 595 525 497 562 
2497 532 481 447 526 
2498 532 447 481 478 
2499 603 459 595 511 
2500 603 595 459 599 
2501 644 554 540 202 
2502 644 540 554 511 
2503 578 540 554 202 
2504 578 554 540 511 
2505 551 140 61 65 
2506 551 61 140 401 
2507 417 601 602 416 
2508 602 601 417 623 
2509 602 470 417 416 
2510 417 470 602 623 
2511 401 445 520 485 
2512 401 520 445 463 
2513 203 503 126 331 
2514 126 503 203 302 
2515 411 167 328 201 
2516 328 167 411 119 
2517 333 19 285 326 
2518 333 285 19 513 
2519 629 132 285 326 
2520 629 285 132 513 
2521 132 333 285 326 
2522 132 285 333 513 
2523 353 286 524 525 
2524 644 603 383 540 
2525 644 383 603 604 
2526 35 146 622 475 
2527 35 622 146 277 
2528 620 439 195 580 
2529 620 195 439 624 
2530 216 406 497 525 
2531 497 406 216 344 
2532 529 303 633 408 
2533 633 303 529 263 
2534 256 104 627 375 
2535 627 104 256 569 
2536 108 628 263 303 
2537 263 628 108 458 
2538 497 595 454 528 
2539 454 595 497 562 
2540 506 598 154 421 
2541 506 154 598 617 
2542 603 605 602 540 
2543 602 605 603 597 
2544 641 527 221 237 
2545 641 221 527 610 
2546 91 486 611 188 
2547 611 486 91 572 
2548 611 95 91 188 
2549 91 95 611 572 
2550 627 104 608 380 
2551 627 608 104 382 
2552 120 608 104 380 
2553 120 104 608 382 
2554 358 153 180 455 
2555 358 180 153 450 
2556 625 169 135 137 
2557 625 135 169 616 
2558 642 517 544 624 
2559 642 544 517 433 
2560 600 536 500 180 
2561 600 500 536 294 
2562 493 252 628 435 
2563 493 628 252 465 
2564 646 620 619 607 
2565 646 619 620 596 
2566 619 379 261 13 
2567 261 379 619 607 
2568 261 12 619 13 
2569 619 12 261 607 
2570 442 632 239 385 
2571 239 632 442 626 
2572 156 71 358 243 
2573 156 358 71 180 
2574 623 162 484 403 
2575 3 256 290 92 
2576 3 290 256 370 
2577 641 636 371 315 
2578 641 371 636 633 
2579 374 371 636 315 
2580 374 636 371 633 
2581 242 341 276 147 
2582 276 341 242 149 
2583 643 21 479 122 
2584 643 479 21 609 
2585 585 128 614 225 
2586 614 128 585 118 
2587 80 79 621 1 
2588 89 621 79 1 
2589 89 79 621 368 
2590 626 638 614 225 
2591 614 638 626 601 
2592 288 622 482 562 
2593 543 478 622 562 
2594 622 478 543 532 
2595 288 543 622 562 
2596 622 543 288 532 
2597 629 326 121 47 
2598 629 121 326 609 
2599 639 169 625 549 
2600 639 625 169 616 
2601 583 517 621 415 
2602 628 511 604 377 
2603 628 604 511 603 
2604 644 604 511 377 
2605 644 511 604 603 
2606 433 583 367 251 
2607 427 183 607 407 
2608 178 607 183 407 
2609 645 529 107 441 
2610 645 107 529 633 
2611 55 525 286 29 
2612 286 344 55 29 
2613 645 390 567 618 
2614 645 567 390 388 
2615 79 64 621 368 
2616 621 64 79 80 
2617 627 67 279 106 
2618 627 279 67 608 
2619 637 97 75 553 
2620 637 75 97 607 
2621 603 395 605 540 
2622 603 605 395 595 
2623 631 598 629 606 
2624 631 629 598 609 
2625 139 394 140 564 
2626 413 189 307 361 
2627 413 307 189 418 
2628 344 216 286 55 
2629 344 286 216 497 
2630 525 286 216 55 
2631 525 216 286 497 
2632 121 643 326 609 
2633 121 326 643 16 
2634 21 326 643 609 
2635 21 643 326 16 
2636 50 146 622 575 
2637 50 622 146 475 
2638 362 357 431 307 
2639 624 123 17 176 
2640 624 17 123 615 
2641 624 123 602 615 
2642 624 602 123 522 
2643 548 602 123 615 
2644 548 123 602 522 
2645 524 461 54 298 
2646 288 543 508 499 
2647 288 508 543 454 
2648 633 603 645 599 
2649 633 645 603 628 
2650 459 645 603 599 
2651 459 603 645 628 
2652 628 511 459 603 
2653 628 459 511 458 
2654 623 403 211 462 
2655 623 211 403 157 
2656 568 311 637 82 
2657 568 637 311 99 
2658 553 637 311 82 
2659 553 311 637 99 
2660 312 435 611 253 
2661 312 611 435 493 
2662 11 111 619 12 
2663 619 111 11 352 
2664 208 617 62 541 
2665 13 577 172 565 
2666 172 577 13 42 
2667 631 615 60 174 
2668 631 60 615 606 
2669 559 304 251 433 
2670 367 304 251 85 
2671 367 251 304 433 
2672 618 398 205 206 
2673 618 205 398 338 
2674 134 128 626 22 
2675 134 626 128 471 
2676 100 624 640 514 
2677 100 640 624 642 
2678 32 216 344 164 
2679 344 216 32 406 
2680 344 53 32 164 
2681 32 53 344 406 
2682 290 92 299 3 
2683 299 92 290 362 
2684 157 623 484 403 
2685 484 623 157 275 
2686 300 642 181 291 
2687 419 607 178 292 
2688 178 607 419 527 
2689 178 430 419 292 
2690 419 430 178 527 
2691 239 73 626 442 
2692 239 626 73 332 
2693 252 588 628 86 
2694 498 445 401 485 
2695 498 401 445 555 
2696 588 628 465 252 
2697 613 535 623 463 
2698 613 623 535 474 
2699 622 560 422 531 
2700 622 422 560 612 
2701 626 638 613 601 
2702 613 638 626 542 
2703 215 68 405 343 
2704 215 405 68 552 
2705 272 402 405 343 
2706 402 215 405 343 
2707 622 293 618 612 
2708 622 618 293 472 
2709 394 564 563 448 
2710 394 563 564 139 
2711 335 563 564 448 
2712 335 564 563 139 
2713 623 462 162 403 
2714 210 162 462 403 
2715 283 363 569 306 
2716 253 188 611 313 
2717 253 611 188 95 
2718 401 414 551 61 
2719 401 551 414 498 
2720 207 206 618 337 
2721 618 206 207 398 
2722 332 626 48 238 
2723 360 34 616 169 
2724 616 34 360 136 
2725 48 428 626 332 
2726 626 428 48 334 
2727 455 180 156 500 
2728 156 180 455 358 
2729 569 306 291 283 
2730 569 291 306 627 
2731 510 159 148 31 
2732 148 159 510 550 
2733 510 555 148 550 
2734 364 556 641 419 
2735 364 641 556 248 
2736 304 559 642 433 
2737 642 559 304 78 
2738 304 177 642 78 
2739 525 524 461 286 
2740 431 179 362 166 
2741 518 635 494 469 
2742 494 635 518 593 
2743 64 90 621 314 
2744 64 621 90 255 
2745 605 461 595 545 
2746 605 595 461 436 
2747 525 595 461 545 
2748 75 82 83 37 
2749 75 83 82 553 
2750 114 41 635 113 
2751 635 41 114 423 
2752 539 434 613 400 
2753 613 434 539 453 
2754 590 152 348 437 
2755 510 429 590 555 
2756 640 514 439 102 
2757 640 439 514 624 
2758 266 630 208 487 
2759 617 245 276 161 
2760 617 276 245 147 
2761 170 276 245 161 
2762 170 245 276 147 
2763 194 262 593 258 
2764 194 593 262 381 
2765 80 255 621 64 
2766 621 255 80 228 
2767 530 372 641 452 
2768 530 641 372 410 
2769 110 547 607 278 
2770 110 607 547 409 
2771 586 242 617 489 
2772 586 617 242 269 
2773 411 328 387 392 
2774 411 387 328 119 
2775 281 308 641 248 
2776 281 641 308 371 
2777 184 309 641 237 
2778 641 309 184 364 
2779 377 108 628 458 
2780 628 108 377 420 
2781 453 570 616 355 
2782 461 497 595 525 
2783 461 595 497 436 
2784 622 447 481 339 
2785 622 481 447 478 
2786 298 438 623 275 
2787 623 438 298 545 
2788 274 211 152 224 
2789 152 211 274 404 
2790 290 306 256 363 
2791 256 306 290 534 
2792 573 107 645 516 
2793 573 645 107 197 
2794 465 492 604 297 
2795 604 492 465 493 
2796 604 628 465 297 
2797 465 628 604 493 
2798 630 617 336 208 
2799 621 644 90 354 
2800 235 644 90 36 
2801 235 90 644 354 
2802 93 359 640 440 
2803 640 359 93 468 
2804 207 282 622 268 
2805 207 622 282 575 
2806 336 62 617 269 
2807 336 617 62 208 
2808 46 205 618 495 
2809 46 618 205 267 
2810 241 472 618 25 
2811 618 472 241 284 
2812 314 368 621 64 
2813 621 368 314 574 
2814 234 273 445 520 
2815 445 273 234 296 
2816 199 412 630 49 
2817 630 412 199 393 
2818 607 87 75 589 
2819 37 87 75 38 
2820 149 345 591 66 
2821 341 170 149 276 
2822 341 149 170 66 
2823 170 591 149 276 
2824 170 149 591 66 
2825 439 176 624 195 
2826 439 624 176 514 
2827 330 200 632 20 
2828 632 200 330 523 
2829 299 310 3 254 
2830 299 3 310 290 
2831 559 78 306 77 
2832 44 393 630 199 
2833 630 393 44 512 
2834 626 471 477 542 
2835 224 555 429 535 
2836 238 200 632 48 
2837 238 632 200 329 
2838 197 441 645 107 
2839 197 645 441 63 
2840 154 30 70 446 
2841 154 70 30 464 
2842 450 70 30 446 
2843 450 30 70 464 
2844 271 218 622 226 
2845 271 622 218 515 
2846 275 211 274 438 
2847 275 274 211 521 
2848 148 590 510 31 
2849 148 510 590 555 
2850 139 563 140 394 
2851 139 140 563 142 
2852 551 140 563 394 
2853 551 563 140 142 
2854 203 201 327 18 
2855 327 201 203 444 
2856 338 495 618 205 
2857 338 618 495 397 
2858 48 601 523 200 
2859 523 334 601 48 
2860 601 334 523 416 
2861 178 87 607 409 
2862 178 607 87 183 
2863 19 126 24 131 
2864 276 591 476 507 
2865 56 476 591 507 
2866 56 591 476 345 
2867 105 381 171 262 
2868 105 171 381 264 
2869 325 381 171 264 
2870 86 308 633 373 
2871 86 633 308 588 
2872 556 465 628 297 
2873 628 465 556 588 
2874 408 257 628 366 
2875 408 628 257 303 
2876 472 622 560 293 
2877 618 397 645 495 
2878 618 645 397 459 
2879 443 645 397 495 
2880 443 397 645 459 
2881 267 337 618 206 
2882 618 337 267 25 
2883 397 268 618 209 
2884 622 618 268 209 
2885 622 268 618 207 
2886 268 271 622 339 
2887 268 622 271 515 
2888 343 245 215 68 
2889 215 245 343 402 
2890 630 617 396 336 
2891 269 617 396 586 
2892 269 396 617 336 
2893 444 355 634 592 
2894 444 634 355 453 
2895 616 634 355 592 
2896 616 355 634 453 
2897 180 464 153 450 
2898 180 153 464 536 
2899 461 623 54 298 
2900 484 623 54 162 
2901 484 54 623 298 
2902 27 151 214 244 
2903 27 214 151 289 
2904 537 538 613 400 
2905 613 538 537 542 
2906 394 498 140 477 
2907 394 140 498 551 
2908 401 140 498 477 
2909 401 498 140 551 
2910 148 414 401 61 
2911 525 298 461 524 
2912 525 461 298 545 
2913 54 524 286 461 
2914 543 406 508 350 
2915 543 508 406 562 
2916 504 297 604 492 
2917 604 297 504 415 
2918 141 116 579 554 
2919 141 579 116 138 
2920 204 579 141 138 
2921 57 204 141 138 
2922 182 493 611 312 
2923 182 611 493 492 
2924 621 583 574 517 
2925 433 583 574 367 
2926 433 574 583 517 
2927 300 304 642 433 
2928 642 304 300 177 
2929 517 321 642 433 
2930 642 321 517 505 
2931 384 58 614 381 
2932 384 614 58 265 
2933 220 635 466 192 
2934 468 593 456 594 
2935 468 456 593 232 
2936 171 328 105 115 
2937 105 328 171 387 
2938 466 423 635 378 
2939 635 423 466 41 
2940 136 548 602 323 
2941 136 602 548 360 
2942 351 400 613 434 
2943 351 613 400 537 
2944 488 477 626 471 
2945 488 626 477 394 
2946 254 227 187 299 
2947 254 187 227 365 
2948 402 272 215 422 
2949 277 272 215 552 
2950 277 215 272 422 
2951 522 323 602 548 
2952 522 602 323 15 
2953 13 9 261 12 
2954 13 261 9 376 
2955 99 9 261 376 
2956 237 452 641 372 
2957 237 641 452 320 
2958 78 251 304 85 
2959 78 304 251 559 
2960 353 175 286 155 
2961 353 286 175 524 
2962 431 230 362 179 
2963 362 230 431 357 
2964 531 472 622 560 
2965 531 622 472 475 
2966 630 336 266 208 
2967 630 266 336 396 
2968 613 340 520 463 
2969 613 520 340 538 
2970 348 510 590 437 
2971 590 510 348 429 
2972 623 605 600 595 
2973 623 600 605 602 
2974 605 597 615 595 
2975 605 615 597 602 
2976 639 605 615 595 
2977 639 615 605 602 
2978 600 605 639 595 
2979 600 639 605 602 
2980 338 268 618 397 
2981 338 618 268 207 
2982 427 607 75 407 
2983 306 78 177 77 
2984 177 78 306 642 
2985 177 76 306 77 
2986 453 289 616 570 
2987 453 616 289 539 
2988 214 289 616 539 
2989 473 361 635 220 
2990 635 361 473 469 
2991 635 466 473 220 
2992 473 466 635 469 
2993 83 87 75 37 
2994 83 75 87 589 
2995 135 592 126 302 
2996 135 126 592 625 
2997 503 126 592 302 
2998 503 592 126 625 
2999 361 189 220 413 
3000 220 189 361 431 
3001 582 217 52 346 
3002 582 52 217 277 
3003 557 52 217 346 
3004 557 217 52 277 
3005 603 624 451 640 
3006 603 451 624 597 
3007 620 451 624 640 
3008 620 624 451 597 
3009 288 481 622 532 
3010 288 622 481 482 
3011 153 180 294 536 
3012 153 294 180 455 
3013 500 294 180 536 
3014 500 180 294 455 
3015 92 299 179 362 
3016 92 179 299 187 
3017 230 179 299 362 
3018 230 299 179 187 
3019 583 621 504 415 
3020 583 1 621 89 
3021 621 1 583 504 
3022 616 533 289 214 
3023 616 289 533 570 
3024 280 214 570 533 
3025 280 570 214 27 
3026 570 214 289 533 
3027 570 289 214 27 
3028 363 310 370 290 
3029 370 310 363 84 
3030 370 256 363 290 
3031 370 569 363 256 
3032 181 300 306 642 
3033 181 306 300 76 
3034 177 306 300 642 
3035 177 300 306 76 
3036 141 578 204 57 
3037 405 272 215 402 
3038 215 272 405 552 
3039 283 363 370 569 
3040 283 370 363 84 
3041 502 644 314 621 
3042 502 314 644 36 
3043 90 314 644 621 
3044 90 644 314 36 
3045 89 583 574 621 
3046 574 583 89 367 
3047 574 368 89 621 
3048 89 368 574 367 
3049 183 87 427 607 
3050 183 427 87 38 
3051 75 427 87 607 
3052 75 87 427 38 
3053 591 149 476 345 
3054 476 149 591 276 
3055 306 559 642 78 
3056 642 559 306 544 
3057 214 280 180 533 
3058 71 214 280 180 
3059 630 396 130 266 
3060 393 396 630 412 
3061 393 630 396 130 
3062 27 214 71 244 
3063 71 214 27 280 
3064 71 160 27 244 
3065 27 160 71 280 
3066 19 126 503 24 
3067 503 126 19 333 
3068 503 513 19 24 
3069 19 513 503 333 
3070 381 171 222 325 
3071 381 222 171 262 
3072 584 617 412 630 
3073 584 412 617 586 
3074 396 412 617 630 
3075 396 617 412 586 
3076 623 54 462 461 
3077 623 462 54 162 
3078 286 462 54 461 
3079 590 429 224 555 
3080 152 274 429 348 
3081 429 274 152 224 
3082 429 590 152 348 
3083 152 590 429 224 
3084 401 148 498 414 
3085 498 148 401 555 
3086 210 54 462 162 
3087 491 524 175 286 
3088 491 175 524 210 
3089 155 491 175 286 
3090 155 175 491 210 
3091 462 54 491 286 
3092 462 491 54 210 
3093 54 524 491 286 
3094 54 491 524 210 
3095 579 141 202 204 
3096 579 202 141 554 
3097 578 202 141 204 
3098 578 141 202 554 
3099 2 307 230 299 
3100 2 230 307 357 
3101 362 230 307 299 
3102 362 307 230 357 
3103 230 365 227 187 
3104 227 365 230 2 
3105 227 299 230 187 
3106 230 299 227 2 
3107 9 261 637 99 
3108 9 637 261 12 
$EndElements
